<svg viewBox="0 0 989.806 438.06" fill="none" stroke-linecap="square" stroke-miterlimit="10" xmlns="http://www.w3.org/2000/svg"><clipPath id="a"><path d="M0 0h989.806v438.06H0V0z"/></clipPath><g clip-path="url(#a)"><path fill="none" d="M0 0h989.806v438.06H0z"/><path shape-rendering="crispEdges" fill="#d0e0e3" d="M62.106 51.702h69.297v58.57H62.106v-58.57zM131.403 51.702h69.296v58.57h-69.296v-58.57zM200.7 51.702h69.296v58.57H200.7v-58.57zM269.996 51.702h69.297v58.57h-69.297v-58.57zM339.293 51.702h69.296v58.57h-69.296v-58.57z"/><path shape-rendering="crispEdges" fill="#d0e0e3" d="M408.59 51.702h69.296v58.57h-69.297v-58.57zM477.886 51.702h69.296v58.57h-69.296v-58.57zM547.182 51.702h69.297v58.57h-69.297v-58.57zM616.479 51.702h69.297v58.57h-69.297v-58.57z"/><path shape-rendering="crispEdges" fill="#d0e0e3" d="M685.776 51.702h69.296v58.57h-69.296v-58.57zM62.106 110.272h69.297v58.57H62.106v-58.57zM131.403 110.272h69.296v58.57h-69.296v-58.57zM200.7 110.272h69.296v58.57H200.7v-58.57zM269.996 110.272h69.297v58.57h-69.297v-58.57zM339.293 110.272h69.296v58.57h-69.296v-58.57z"/><path shape-rendering="crispEdges" fill="#d0e0e3" d="M408.59 110.272h69.296v58.57h-69.297v-58.57zM477.886 110.272h69.296v58.57h-69.296v-58.57zM547.182 110.272h69.297v58.57h-69.297v-58.57zM616.479 110.272h69.297v58.57h-69.297v-58.57z"/><path shape-rendering="crispEdges" fill="#d0e0e3" d="M685.776 110.272h69.296v58.57h-69.296v-58.57z"/><path stroke="#45818e" stroke-width="4" stroke-linecap="butt" d="M62.106 49.702v121.14M131.403 49.702v121.14M200.7 49.702v121.14M269.996 49.702v121.14M339.293 49.702v121.14M408.59 49.702v121.14M477.886 49.702v121.14M547.182 49.702v121.14M616.479 49.702v121.14M685.776 49.702v121.14M755.072 49.702v121.14M60.106 51.702h696.966M60.106 110.272h696.966M60.106 168.841h696.966"/><path fill="#0c343d" d="M73.966 79.583q-.188 0-.25-.234 0-.453.64-1.031.64-.594 1.032-.75.39-.172 2.562-.219l.375-.438q8.11-9.343 11.25-9.343.266-.032.61-.032 1.843 0 1.843.875 0 .172-.344.86l-1.203 2.39q-.843 1.72-1.656 3.47-4.312 9.515-5 12.484 0 .203-.547.203t-1.328-.61q-.766-.593-.766-1.047 0-.812 1.297-3.109 1.313-2.297 1.313-2.984 0-.938-3.625-.938-.531 0-1.656.047l-1.016 1.344q-1.86 2.5-3.563 6.203-.296.672-1.796.672-1.485 0-1.485-.422 0-.297 1.656-2.578 1.672-2.281 3.97-5.047-.407.047-1.016.11-.61.046-.954.093-.328.031-.343.031zm11.047-3.437q1.046-1.25 1.562-2.531.531-1.282.531-1.735 0-.453-.453-.453-.812 0-2.656 1.703-1.828 1.688-3.984 4.219l2.906.047q1.062 0 2.094-1.25zM153.684 84.458q-1.172 1.078-3.078 1.766-1.89.672-3.672.672-1.781 0-2.547-.188-.765-.172-.89-.172-.266 0-.532.172-.859.766-2.062.766-1.188 0-1.188-.422 0-.297 1.844-3.484 1.86-3.203 4.11-7.125t2.906-5.39q.656-1.47.656-2.532v-.219q0-.719 4.125-.719 3.781 0 4.86.407 1.374.53 1.718 1.406.219.547.219 1.281 0 1.203-.875 2.266-1.625 1.922-4.219 2.531-.984.25-1.172.406-.187.156-.187.328 0 .172.39.438.391.25.844.547.469.281.86.953.39.672.39 1.703 0 1.016-.656 2.266t-1.844 2.343zm-2.328-1.453q.781-.937 1.219-1.89.437-.97.437-1.625 0-.657-.203-1.11-.203-.469-.469-.703-.265-.25-.64-.39-.547-.204-1.11-.204h-.265q-.36 0-.36-.25 0-.547.407-1.172.422-.64.953-.64 2.172 0 3.875-1.438 1.703-1.437 1.703-3.062 0-1.406-1.86-1.406-1.546 0-2.171.734-1.672 2.078-4.844 7.75-3.172 5.672-3.172 6.656 0 .39.438.688.437.297 1.593.297 1.172 0 2.438-.657 1.265-.656 2.031-1.578zM215.934 86.943q-4.39 0-4.39-4.485 0-1.297.624-3.156.625-1.875 1.844-3.89 1.234-2.016 2.781-3.735 1.547-1.734 3.625-2.86 2.078-1.124 4.188-1.124.984 0 1.515.234.532.219.563.219.047 0 .672-.266.625-.265 1.484-.265.875 0 .875.5 0 .484-1.031 2.14-1.016 1.656-2.453 3.172-1.438 1.516-2.297 1.516-.11.031-.266.031-.5 0-.5-.297 0-.047.36-.594.375-.547.75-1.468.375-.922.375-1.485 0-.562-.063-.797-.047-.234-.36-.547-.296-.328-.827-.328-1.438 0-3.422 2.188-1.985 2.187-3.422 5.14-1.422 2.938-1.422 4.985 0 2.453 2.234 2.453 2.672 0 5.172-3.438.11-.218.219-.218.125 0 .187.015.079.016.188.172.125.14.125.547 0 .39-.547 1.328-.547.922-1.453 1.922-.906.984-2.344 1.688-1.437.703-2.984.703zM285.184 86.911q-1.422 0-1.829-.093-.39-.094-.671-.157-.282-.062-.36-.093-.078-.032-.234-.032-.328 0-.594.172-.922.766-2.453.766-.797 0-.797-.36 0-.359 1.844-3.546 1.86-3.203 4.11-7.125 2.265-3.922 2.905-5.39.657-1.47.657-2.532v-.219q0-.766 4.453-.766 6.61 0 6.61 4.5 0 3.25-2.204 7.172-1.156 2.063-2.703 3.766-1.547 1.703-3.86 2.828-2.296 1.11-4.874 1.11zm8.765-9.125q.985-1.906 1.5-3.562.531-1.672.531-2.797 0-1.14-.656-1.719-.656-.593-2.203-.593-1.062 0-1.703.734-1.672 2.11-4.86 7.781-3.171 5.656-3.171 6.625 0 1.063 2.265 1.063 1.61 0 3.235-1.11 1.625-1.125 2.843-2.812 1.235-1.703 2.22-3.61zM360.715 77.505l-2.266-.078q-1.672 0-2.578 1.094-.64.797-1.703 2.61-1.047 1.812-1.047 2.874 0 .985 1.937.985 1.203 0 2.563-.454 2.75-.906 4.344-3.453.187-.25.64-.25t.453.532q0 .515-.86 2.171-.843 1.641-1.515 2.47-.343.437-1.343.484-1 .046-3.047.046h-2.61l-1.531-.015-.719-.063h-.187q-.156 0-.39.25-.891.766-2.516.766-.766 0-.766-.344v-.078q0-.297 1.844-3.484 1.859-3.188 4.125-7.094 2.265-3.922 2.906-5.375.64-1.453.64-2.5v-.297q0-.453 5.672-.453 1.875 0 3.25.062.407-.453 2.063-.453.687 0 .687.344 0 .61-1.218 2.469-1.203 1.844-2.11 2.515-.297.235-.75.235t-.453-.188q0-.078.078-.203.438-.828.438-1.875 0-1.453-2.031-1.453-1.235 0-1.938.64-.703.626-1.406 1.782-.688 1.14-1.016 1.969-.328.828-.328 1.047 0 .64.625.78.625.141 2.484.141l1.985-.078q.265 0 .265.203 0 .204-.28.672-.282.453-.579.641-.594.406-1.812.406zM429.667 77.505l-2.297-.078q-1.671 0-2.562 1.094-1.406 1.844-2.922 4.812-1.5 2.97-2.078 3.391-.969.75-2.453.75-.813 0-.813-.344v-.078q0-.297 1.86-3.484 1.86-3.188 4.11-7.094 2.25-3.922 2.905-5.39.657-1.47.657-2.5v-.282q0-.453 5.671-.453 1.86 0 3.25.062.407-.453 2.032-.453.718 0 .718.344 0 .64-1.296 2.578-1.297 1.922-2.172 2.485-.375.187-.719.187t-.344-.219q0-.015.125-.28.375-.75.375-1.798 0-1.453-2.047-1.453-1.234 0-1.937.64-.703.626-1.406 1.782-.688 1.14-1.016 1.969-.328.828-.328 1.14 0 .297.281.563.297.265 2.86.265 1.14 0 1.53-.03.407-.048.438-.048.235 0 .235.188 0 .11-.016.156-.375.906-.906 1.25-.516.328-1.735.328zM497.73 86.458q-.375 0-.657-.343-.265-.344-.343-.688l-.094-.344q-.078-.297-.39-.297-.298 0-.532.188-2.516 1.969-4.672 1.969-2.766 0-2.766-3.703 0-1.313.672-3.25.688-1.954 1.953-4.063 1.282-2.125 2.891-3.969 1.625-1.859 3.734-3.062 2.125-1.203 4.235-1.203 1.14 0 1.86.406.109.047.234.047.14 0 .28-.078.657-.453 1.688-.453 1.047 0 1.047.515 0 .625-1.328 2.531-2.078 2.954-3.406 2.954-.344 0-.469-.047-.125-.063-.125-.219t.172-.531q.531-1.125.531-1.86 0-.734-.281-1.109-.281-.39-1.156-.39-1.61 0-3.813 2.421-2.187 2.406-3.765 5.563-1.579 3.156-1.579 5.203 0 1.734 1.438 1.734 1.125 0 2.547-1.14 1.437-1.157 2.344-2.47.921-1.312.921-1.89 0-.578-.562-.797-.547-.234-2.156-.234-.313 0-.313-.234 0-.454.516-.938.515-.484 1-.531 1.922-.14 4.031-.14 2.125 0 2.125.374 0 .328-.36 1-.359.656-.593 1.078-.219.407-.656 1.141-.438.734-.703 1.156-.266.422-.813 1.297-.547.86-.875 1.406-.312.532-.781 1.407-.469.875-.688 1.234-.203.36-.343.36zM565.776 68.661v-.359q0-.687 2.86-.687 1.437 0 1.437.53 0 .22-.219.438-1.015 1.375-4.312 7l3.297.032q1.093 0 2-.875.453-.485.812-.891.36-.422.813-1.188l.718-1.234q.375-.672 1.313-2.562 0-.125.203-.329.203-.203.469-.343.281-.157.86-.25.593-.11 1.39-.11.812 0 .812.344 0 .156-.125.36-.11.203-1.39 2.156-1.266 1.937-2.547 4.031-1.266 2.094-2.703 4.547-1.422 2.453-2.313 4.484-.89 2.016-.89 2.953-.157.453-.672.453-1.47 0-2.032-.25-.546-.234-.546-.718 0-.828 1.765-3.86 1.781-3.047 1.781-3.687 0-.656-.546-.969-.532-.328-1.782-.328t-1.734.016q-.906 1.468-2.078 3.765-1.172 2.297-1.969 3.766-.797 1.453-1.281 1.828-.985.75-2.422.75-.828 0-.828-.422 0-.25.703-1.422.703-1.187 2.281-3.734 1.578-2.547 2.719-4.469l-1.625.078q-.406 0-.406-.219 0-.453.578-.906t.937-.578q.375-.14 1.563-.187.984-1.688 2.531-4.672.578-1.282.578-2.282zM625.854 85.427q0-.625.688-1.219.703-.593 1.437-.593 1.469 0 1.469.906 0 .719-.703 1.297-.688.562-1.453.562-1.438 0-1.438-.953zm5.625 0q0-.625.688-1.219.703-.593 1.437-.593 1.469 0 1.469.906 0 .719-.703 1.297-.688.562-1.422.562-1.469 0-1.469-.953zm5.625 0q0-.625.688-1.219.703-.593 1.437-.593 1.469 0 1.469.906 0 .719-.703 1.297-.688.562-1.453.562-1.438 0-1.438-.953zM715.963 68.865q0 1.28-5.594 5.609-2.312 1.781-4.656 3.594-2.328 1.812-3.969 3.453-1.64 1.64-1.64 2.515 0 .485.61.657.624.172 1.39.172.781 0 2.015-.5 1.235-.516 2.22-1.235 2.108-1.578 3.093-2.672l.453-.5q.562-.453.969-.453h.047q.421 0 .421.266-.046.64-2.14 3.906-2.094 3.266-2.781 3.344h-.297q-1.594 0-2.39-.61-2.563.235-3.282.235-3.547 0-4.813-.219-1.265-.203-1.265-.89 0-.938 1.656-2.72 1.672-1.796 4.047-3.702 2.39-1.922 4.781-3.766 2.406-1.844 4.078-3.234 1.688-1.407 1.719-1.813v-.016q0-.718-1.453-.718t-2.922.765q-1.469.75-3.14 2.141-.61.469-1 .469-.391 0-.391-.282.031-.296 1.312-2.265 1.281-1.985 2.11-2.672.343-.328.843-.328 1.125 0 1.844.594 1.766-.157 3.969-.157 4.156 0 4.156 1.032zM92.294 127.434q0 1.281-5.594 5.61-2.312 1.78-4.656 3.593-2.328 1.813-3.969 3.453-1.64 1.641-1.64 2.516 0 .484.609.656.625.172 1.39.172.782 0 2.016-.5 1.234-.515 2.219-1.234 2.11-1.578 3.094-2.672l.453-.5q.562-.453.968-.453h.047q.422 0 .422.265-.047.641-2.14 3.907-2.094 3.265-2.782 3.343h-.297q-1.593 0-2.39-.609-2.563.234-3.281.234-3.547 0-4.813-.218-1.266-.203-1.266-.891 0-.937 1.657-2.719 1.672-1.797 4.047-3.703 2.39-1.922 4.78-3.765 2.407-1.844 4.079-3.235 1.687-1.406 1.719-1.812v-.016q0-.719-1.453-.719-1.454 0-2.922.766-1.47.75-3.14 2.14-.61.47-1 .47-.392 0-.392-.282.032-.297 1.313-2.266 1.281-1.984 2.11-2.671.343-.329.843-.329 1.125 0 1.844.594 1.765-.156 3.969-.156 4.156 0 4.156 1.031zM145.528 131.169l-.031-2.829q0-1.109-.172-1.421-.156-.329-.156-.547 0-.532 2.093-.532 2.094 0 2.094.985 0 .672-.437 3.219-.438 2.546-.47 3.5-.015.937.516.937.313 0 .72-.36 1.624-1.437 3.64-3.624 2.031-2.203 2.687-3.063.672-.875 1.125-1.062.969-.375 2.297-.422h.453q1.516 0 1.516.469 0 .28-.453.546-1.703.985-5.875 4.485-4.172 3.484-6.094 5.531-.766.828-2.61 4.25-1.843 3.422-2.5 3.875-.609.531-1.812.531t-1.203-.453v-.078q0-.187.875-1.64 2.86-4.672 3.203-5.876.594-1.921.594-6.421zM219.543 138.934l.016-.594q0-.53-.422-.53-.344 0-.875.421-1.531 1.344-3.219 3.11-1.672 1.765-2.219 2.515-.546.75-.718.922-.172.172-.953.469-.766.297-1.782.297-1.03 0-1.03-.329 0-.656 10.468-9.515.937-.75 1-1.938.094-1.984.094-2.937 0-2.688-.454-4.047l-.125-.406q0-.453 1.97-.453.968 0 1.359.312.406.297.406 1.125 0 .828-.188 3.5 0 .719.5.719.266 0 .61-.297 3.531-3.125 4.156-3.922.625-.797 1.016-.984.812-.313 2.25-.375h.453q1.297 0 1.297.422 0 .25-.375.453-3.375 1.922-8.922 6.453-.14.078-.344.234-.188.14-.547.703-.344.563-.39 1.219-.188 3.36-.188 5.547 0 2.516.375 3.25.11.219.11.36 0 .39-.813.562-.813.172-1.563.172t-.968-.328q-.204-.313-.204-1.297 0-.985.22-4.813zM284.84 127.169l-.031-.579q0-.718 2.484-.718 1.547 0 1.547.765 0 .14-.063.188-.187 1.047-2.11 6.64-1.92 5.594-1.92 6.172 0 .563.546.563.39 0 .61-.203.374-.375.921-.938.563-.562 3.063-4.031 2.515-3.484 4.03-6.016.517-1.015 3.36-1.015.72 0 .72.453l-.188.515q-.797 1.625-2.157 5.735-1.36 4.094-1.36 4.797 0 .703.532.703.406 0 .625-.203.36-.375.735-.75.984-.985 4.328-5.625 3.36-4.657 4.53-6.953.298-.594.657-.782.672-.312 2.36-.375h.53q1.376 0 1.376.453 0 .188-.235.438-2.609 2.469-7.671 8.406-5.047 5.938-6.86 8.563-.375.562-.594.812-.203.235-.687.547-.906.594-3.172.594-1.297 0-1.297-.64l.078-.298q.157-.5.578-1.703.438-1.203.72-2.015.296-.829.64-1.829.672-2 .672-2.453 0-.453-.407-.453-.421 0-.953.64-2.11 2.516-5.125 6.798-.5.734-.797 1.047-.28.296-1.218.593-.938.313-2.344.313-1.39 0-1.39-.64l.077-.298q.938-2.687 2.485-7.75 1.562-5.062 2.125-7.437.25-1.36.25-2.031zM354.136 127.122l-.062-.563q0-.687 2.516-.687 1.515 0 1.515.797 0 .5-1.984 6.437-1.969 5.922-1.969 6.516 0 .578.531.578.438 0 .64-.203l.267-.266q.062-.062.218-.234.157-.172.235-.25 1.078-1.063 4.53-5.688 3.454-4.625 4.595-6.89.297-.594.672-.782.656-.312 2.343-.375h.532q1.39 0 1.39.453 0 .188-.25.438-2.562 2.469-8.094 8.734-5.53 6.266-6.671 8.235-.407.703-.75 1.047-.344.343-1.282.625-.922.28-2.328.28-1.39 0-1.39-.64l.078-.297q.843-2.468 2.359-7.593 1.531-5.141 2.094-7.594.265-1.594.265-2.078zM423.37 145.544q-1.921 0-3.187-.907-1.266-.906-1.266-2.562 0-1.063 1.047-3.156 1.063-2.094 2.89-5.125 1.829-3.047 2.61-4.61.781-1.562.781-2.547 0-.265.172-.422.375-.375 2.547-.375 1.453 0 1.453.563 0 .266-.187.453-1.469 2.047-4.516 7.297-3.031 5.25-3.031 6.687 0 2.11 1.922 2.11 1.734 0 2.687-.906.72-.72 1.203-1.485 1.063-1.625 2.766-5.11 1.703-3.484 3.047-6.187 1.36-2.703 1.906-3.14.547-.438 1.906-.438 1.375 0 1.375.313 0 .218-.468.78-.453.548-1.36 1.938-.906 1.391-2.093 3.313-1.188 1.922-2.079 3.39-.875 1.454-2.062 3.47l-1.39 2.359q-2.516 4.297-6.673 4.297zM505.683 125.872q.375 0 .375.515 0 .516-1.047 2.407-1.031 1.89-1.735 2.859-.421.64-1 .64-.562 0-.562-.374l.016-.235q.343-1.312.343-2.219 0-1.39-.734-1.39-.328 0-.656.234-.313.219-.469.469l-.156.234q-.375.61-4.516 7.625-.922 1.594-1.922 3.64-.984 2.032-1.594 3.204-.609 1.156-1.218 1.64-.61.5-1.985.5t-1.375-.452v-.079q0-.265 1.407-2.515 5.203-8.172 7.875-13.375.234-.485.234-.688 0-.36-.453-.36-1.469 0-4.485 3.313-.296.532-1.359.532-.234 0-.234-.235 0-.187.343-.781l.532-.953q2.343-4.11 3.062-4.11 1.39 0 2.078.532 1.875-.047 3.438-.047 1.578 0 3.125.047 1.328-.578 2.672-.578zM570.98 138.637q0 2.828-2.344 4.735-2.329 1.906-5.954 1.906-2 0-3.03-.594-.11-.047-.25-.047-.126 0-.985.282-.844.296-1.719.296-.86 0-.86-.5 0-.703 1.673-3.609 1.687-2.922 2.984-3.937.562-.422 1.094-.422.53 0 .53.28 0 .063-.358.673-.36.594-.72 1.578-.359.984-.359 1.687 0 .704.141 1.188.156.484.75.984.61.485 1.469.485.875 0 1.625-.203.765-.22 1.515-.672.75-.453 1.22-1.328.484-.891.484-2.047 0-1.157-.72-2.36-.718-1.203-1.577-2.047-.844-.843-1.563-1.921-.719-1.079-.719-2.094 0-1.031.532-1.906.547-.891 1.359-1.407.828-.515 1.86-.86 1.765-.593 3.124-.593 1.36 0 2 .125.657.11.985.219.344.11.422.11.078 0 .218-.079.797-.453 1.72-.453.937 0 .937.453 0 .75-1.782 3.344-1.765 2.594-2.64 2.594-.719 0-.719-.313 0-.047.188-.375.578-1.062.578-2.422 0-.75-.641-1.156-.625-.422-1.312-.422-.672 0-1.391.219-.703.203-1.406.844-.703.64-.703 1.547 0 .89.671 1.859.688.969 1.5 1.781.813.813 1.485 2.063.687 1.234.687 2.515zM625.854 143.997q0-.625.688-1.22.703-.593 1.437-.593 1.469 0 1.469.906 0 .72-.703 1.297-.688.563-1.453.563-1.438 0-1.438-.953zm5.625 0q0-.625.688-1.22.703-.593 1.437-.593 1.469 0 1.469.906 0 .72-.703 1.297-.688.563-1.422.563-1.469 0-1.469-.953zm5.625 0q0-.625.688-1.22.703-.593 1.437-.593 1.469 0 1.469.906 0 .72-.703 1.297-.688.563-1.453.563-1.438 0-1.438-.953zM697.635 138.153q-.188 0-.25-.234 0-.454.64-1.032.641-.593 1.032-.75.39-.172 2.562-.218l.375-.438q8.11-9.344 11.25-9.344.266-.031.61-.031 1.843 0 1.843.875 0 .172-.343.86l-1.203 2.39q-.844 1.719-1.657 3.469-4.312 9.515-5 12.484 0 .203-.547.203-.546 0-1.328-.61-.765-.593-.765-1.046 0-.812 1.297-3.11 1.312-2.296 1.312-2.984 0-.937-3.625-.937-.531 0-1.656.047l-1.016 1.343q-1.86 2.5-3.562 6.204-.297.671-1.797.671-1.485 0-1.485-.421 0-.297 1.657-2.579 1.672-2.28 3.968-5.046-.406.046-1.015.109-.61.047-.953.094-.328.03-.344.03zm11.047-3.438q1.047-1.25 1.562-2.53.532-1.282.532-1.735 0-.453-.454-.453-.812 0-2.656 1.703-1.828 1.687-3.984 4.219l2.906.046q1.063 0 2.094-1.25z"/><path fill="#76a5af" d="m757.89 316.798 43.197-46.2v21.6c62.194-8.788 110.348-35.728 125.021-69.947 21.458 50.04-34.071 100.293-125.021 113.143v21.598z" fill-rule="evenodd"/><path fill="#5e838b" d="M930.677 243.85c0-52.218-77.36-94.548-172.787-94.548v-43.197c95.428 0 172.787 42.33 172.787 94.547z" fill-rule="evenodd"/><path fill="none" d="M930.677 243.85c0-52.218-77.36-94.548-172.787-94.548v-43.197c95.428 0 172.787 42.33 172.787 94.547v43.197c0 43.113-53.302 80.767-129.59 91.545v21.599l-43.197-40.195 43.197-46.2v21.6c62.194-8.788 110.348-35.728 125.021-69.947"/><path stroke="#134f5c" stroke-linejoin="round" stroke-linecap="butt" d="M930.677 243.85c0-52.218-77.36-94.548-172.787-94.548v-43.197c95.428 0 172.787 42.33 172.787 94.547v43.197c0 43.113-53.302 80.767-129.59 91.545v21.599l-43.197-40.195 43.197-46.2v21.6c62.194-8.788 110.348-35.728 125.021-69.947"/><path fill="#d9ead3" d="M62.102 253.136H755.08v134.898H62.102z" fill-rule="evenodd"/><path stroke="#6aa84f" stroke-width="4" stroke-linejoin="round" stroke-linecap="butt" d="M62.102 253.136H755.08v134.898H62.102z"/><path fill="none" d="M78.822 291.031h641.165v87.906H78.822z"/><path fill="#38761d" d="M99.822 309.969v-.438q0-.859 3.562-.859 1.797 0 1.797.656 0 .266-.266.547-1.265 1.719-5.39 8.766l4.125.031q1.375 0 2.5-1.11.562-.593 1.015-1.109.453-.515 1.016-1.484.578-.969.906-1.531.469-.844 1.625-3.203 0-.172.25-.422t.594-.422q.36-.188 1.094-.313.734-.14 1.734-.14t1 .437q0 .188-.156.438-.14.25-1.735 2.687-1.578 2.438-3.187 5.063-1.594 2.61-3.375 5.672t-2.906 5.593q-1.11 2.532-1.11 3.704-.203.562-.828.562-1.828 0-2.531-.297-.703-.297-.703-.906 0-1.031 2.219-4.828 2.218-3.797 2.218-4.61 0-.812-.672-1.218-.671-.407-2.234-.407-1.562 0-2.172.032-1.125 1.843-2.594 4.718-1.468 2.86-2.468 4.688-1 1.828-1.594 2.297-1.234.937-3.031.937-1.032 0-1.032-.531 0-.297.875-1.781.891-1.485 2.844-4.672 1.969-3.188 3.406-5.578l-2.03.094q-.5 0-.5-.266 0-.563.718-1.125.719-.578 1.172-.735.469-.171 1.937-.234 1.235-2.11 3.172-5.844.735-1.593.735-2.859zm21.828 11.063-2.828-.094q-2.11 0-3.235 1.36-.796 1-2.125 3.265-1.312 2.265-1.312 3.61 0 1.218 2.437 1.218 1.5 0 3.204-.563 3.421-1.125 5.421-4.328.235-.297.797-.297.578 0 .578.657 0 .64-1.078 2.703-1.062 2.062-1.89 3.11-.438.53-1.688.593-1.25.062-3.812.062h-3.266l-1.906-.03-.89-.063h-.235q-.203 0-.5.296-1.11.97-3.14.97-.97 0-.97-.438v-.094q0-.375 2.313-4.36 2.328-3.984 5.156-8.874 2.844-4.907 3.64-6.72.798-1.812.798-3.108v-.375q0-.563 7.093-.563 2.344 0 4.063.063.5-.563 2.578-.563.86 0 .86.438 0 .765-1.516 3.078-1.516 2.312-2.64 3.156-.376.297-.938.297-.563 0-.563-.235 0-.109.094-.265.531-1.031.531-2.344 0-1.828-2.531-1.828-1.531 0-2.422.812-.875.797-1.75 2.235-.86 1.422-1.281 2.453-.406 1.031-.406 1.297 0 .797.78.984.782.188 3.11.188l2.469-.094q.328 0 .328.25t-.36.828q-.343.578-.702.813-.735.5-2.266.5zm7.16 11.234-.468-.031q-.453 0-.688.296-1.14.97-3.078.97-1 0-1-.438v-.094q0-.375 2.313-4.36 2.328-3.984 5.14-8.874 2.813-4.907 3.625-6.735.828-1.828.828-3.031v-.438q0-.859 3.563-.859 1.797 0 1.797.656 0 .266-.266.547-2.656 4.328-7.062 12.36l-.47.828q-.468.844-.671 1.187-.187.344-.61 1.203-.421.844-.609 1.375-.578 1.5-.578 2.344 0 1.219 2.203 1.219h.235q1.359 0 3-.563 3.203-1.125 5.203-4.328.125-.297.734-.297.625 0 .625.532 0 .796-1.062 2.875-1.063 2.062-1.938 3.062-.422.594-1.656.594-1.234.062-5.344.062l-3.765-.062zm17.431 0-.469-.031q-.453 0-.687.296-1.14.97-3.078.97-1 0-1-.438v-.094q0-.375 2.312-4.36 2.328-3.984 5.14-8.874 2.813-4.907 3.626-6.735.828-1.828.828-3.031v-.438q0-.859 3.562-.859 1.797 0 1.797.656 0 .266-.265.547-2.657 4.328-7.063 12.36l-.469.828q-.468.844-.671 1.187-.188.344-.61 1.203-.422.844-.61 1.375-.577 1.5-.577 2.344 0 1.219 2.203 1.219h.234q1.36 0 3-.563 3.203-1.125 5.203-4.328.125-.297.735-.297.625 0 .625.532 0 .796-1.063 2.875-1.062 2.062-1.937 3.062-.422.594-1.657.594-1.234.062-5.343.062l-3.766-.062zm36.693-18.203q0 1.875-.75 4.281-.75 2.39-2.219 4.89-1.453 2.5-3.375 4.626-1.921 2.109-4.546 3.468-2.61 1.344-5.391 1.344t-4.375-1.547q-1.594-1.562-1.594-4.297 0-1.859.735-4.25.75-2.406 2.218-4.906 1.469-2.5 3.375-4.594 1.922-2.109 4.532-3.453 2.625-1.36 5.406-1.36 2.797 0 4.39 1.532 1.594 1.531 1.594 4.266zm-3.922-.297q0-3.672-2.672-3.672-2.234 0-4.984 2.844-2.75 2.828-4.672 6.844-1.906 4.015-1.906 7.187 0 3.656 2.672 3.656 2.187 0 4.953-2.828 2.766-2.828 4.687-6.844 1.922-4.015 1.922-7.187zm18.39-3.86-.031-.734q0-.906 3.093-.906 1.938 0 1.938.969 0 .171-.063.234-.234 1.297-2.64 8.297-2.39 7-2.39 7.719 0 .718.655.718.5 0 .766-.265l1.172-1.172q.703-.703 3.828-5.047 3.14-4.344 5.031-7.516.641-1.265 4.203-1.265.907 0 .907.562l-.235.64q-1 2.032-2.703 7.173-1.703 5.125-1.703 6.015 0 .875.672.875.5 0 .766-.265l.937-.938q1.234-1.234 5.406-7.047 4.188-5.812 5.657-8.687.359-.735.828-.969.843-.39 2.937-.469h.672q1.734 0 1.734.579 0 .234-.312.53-3.266 3.094-9.578 10.516-6.313 7.407-8.578 10.72-.469.687-.735 1-.265.296-.875.687-1.125.734-3.953.734-1.64 0-1.64-.797l.109-.36q.187-.64.719-2.14.547-1.5.906-2.531.375-1.031.797-2.266.844-2.5.844-3.062 0-.578-.5-.578-.547 0-1.204.812-2.64 3.125-6.406 8.5-.625.89-1 1.281-.36.375-1.531.75-1.172.391-2.922.391-1.734 0-1.734-.797l.093-.36q1.172-3.374 3.11-9.702 1.953-6.329 2.656-9.297.297-1.703.297-2.531zm44.69 4.157q0 1.875-.75 4.281-.75 2.39-2.219 4.89-1.453 2.5-3.375 4.626-1.922 2.109-4.547 3.468-2.61 1.344-5.39 1.344-2.782 0-4.375-1.547-1.594-1.562-1.594-4.297 0-1.859.734-4.25.75-2.406 2.219-4.906 1.469-2.5 3.375-4.594 1.922-2.109 4.531-3.453 2.625-1.36 5.406-1.36 2.797 0 4.391 1.532 1.594 1.531 1.594 4.266zm-3.922-.297q0-3.672-2.672-3.672-2.234 0-4.984 2.844-2.75 2.828-4.672 6.844-1.906 4.015-1.906 7.187 0 3.656 2.671 3.656 2.188 0 4.954-2.828 2.765-2.828 4.687-6.844 1.922-4.015 1.922-7.187zm15.157 17.265.063 1q0 .532-1.594.532-2.797 0-2.797-1.063 0-1.062 1.484-4.594 1.485-3.546 1.485-4.406 0-1.765-2.172-1.765l-.531.03q-.407 0-.407-.296 0-.64.485-1.281.484-.656 1.219-.656 3.03 0 5.421-1.797 2.407-1.797 2.407-3.797 0-1.438-.89-2-.876-.563-2.407-.563-1.531 0-2.328.922-1.97 2.469-6.328 10.328-4.344 7.844-4.875 9.64-.297.829-1.547 1.22-1.25.406-2.438.406-1.172 0-1.172-.453v-.078q0-.36 2.297-4.25 2.297-3.907 5.078-8.688 2.782-4.781 3.594-6.61.828-1.843.828-3.109v-.328q0-.906 5.063-.906 5.437 0 7.156 1.094.734.469 1.25 1.375.516.89.516 2.297 0 1.406-1.141 2.843-1.125 1.422-2.406 2.11-1.282.672-2.547.984-1.266.297-1.906.5-.625.188-.625.625 0 .266.484.656.484.375.984.922.5.531.5 1.125t-1.11 3.453q-1.093 2.844-1.093 4.579zm6.296 1.235-.468-.031q-.454 0-.688.296-1.14.97-3.078.97-1 0-1-.438v-.094q0-.375 2.312-4.36 2.329-3.984 5.141-8.874 2.813-4.907 3.625-6.735.828-1.828.828-3.031v-.438q0-.859 3.563-.859 1.797 0 1.797.656 0 .266-.266.547-2.656 4.328-7.063 12.36l-.468.828q-.47.844-.672 1.187-.188.344-.61 1.203-.421.844-.609 1.375-.578 1.5-.578 2.344 0 1.219 2.203 1.219h.234q1.36 0 3-.563 3.204-1.125 5.204-4.328.125-.297.734-.297.625 0 .625.532 0 .796-1.063 2.875-1.062 2.062-1.937 3.062-.422.594-1.656.594-1.235.062-5.344.062l-3.766-.062zm20.837.531q-1.766 0-2.266-.125-.5-.11-.859-.203-.344-.078-.453-.11-.094-.03-.297-.03-.39 0-.719.202-1.172.97-3.078.97-1 0-1-.454 0-.453 2.313-4.453 2.328-4 5.14-8.89 2.813-4.907 3.625-6.735.828-1.828.828-3.172v-.266q0-.968 5.563-.968 8.266 0 8.266 5.64 0 4.063-2.766 8.97-1.438 2.562-3.375 4.702-1.922 2.125-4.813 3.531-2.875 1.391-6.109 1.391zm10.969-11.406q1.234-2.39 1.875-4.469.656-2.094.656-3.5 0-1.422-.828-2.156-.813-.735-2.75-.735-1.328 0-2.125.938-2.094 2.625-6.063 9.719-3.968 7.078-3.968 8.281 0 1.328 2.828 1.328 2 0 4.031-1.39 2.031-1.407 3.563-3.516 1.546-2.125 2.78-4.5zM508.319 324.235q0 3.53-2.922 5.921-2.906 2.375-7.453 2.375-2.5 0-3.797-.734-.125-.062-.297-.062t-1.234.359q-1.063.375-2.157.375-1.078 0-1.078-.64 0-.86 2.094-4.5 2.11-3.657 3.75-4.923.687-.546 1.36-.546.671 0 .671.375 0 .062-.453.812t-.906 1.984q-.453 1.235-.453 2.125 0 .875.187 1.485.188.594.938 1.219.75.609 1.828.609 1.094 0 2.031-.266.953-.265 1.89-.828.938-.578 1.532-1.672.594-1.109.594-2.547 0-1.453-.907-2.953-.89-1.5-1.953-2.547-1.062-1.062-1.968-2.406-.891-1.344-.891-2.625 0-1.297.672-2.39.687-1.094 1.703-1.75 1.016-.657 2.312-1.079 2.204-.734 3.907-.734 1.703 0 2.515.156.813.141 1.22.282.421.125.515.125.11 0 .28-.094 1-.578 2.157-.578 1.172 0 1.172.578 0 .922-2.219 4.172-2.203 3.25-3.312 3.25-.89 0-.89-.39 0-.079.218-.47.734-1.328.734-3.03 0-.938-.797-1.454-.796-.516-1.656-.516-.844 0-1.734.266-.875.266-1.766 1.062-.875.797-.875 1.922 0 1.11.844 2.328.86 1.22 1.875 2.235 1.016 1.015 1.86 2.562.859 1.547.859 3.157zm7.827-14.407-.062-.687q0-.875 3.125-.875 1.906 0 1.906 1 0 .64-2.469 8.062-2.469 7.407-2.469 8.141t.672.734q.531 0 .797-.265l.328-.344q.078-.063.266-.281.203-.219.312-.313 1.328-1.328 5.641-7.11 4.312-5.796 5.75-8.624.375-.735.844-.969.828-.39 2.922-.469h.671q1.735 0 1.735.578 0 .235-.297.532-3.203 3.093-10.125 10.937-6.906 7.828-8.344 10.297-.5.86-.937 1.297-.438.422-1.61.766-1.156.359-2.906.359-1.75 0-1.75-.797l.11-.36q1.062-3.109 2.953-9.515 1.906-6.422 2.609-9.484.328-2 .328-2.61zm33.725 4.235q0 1.875-.75 4.281-.75 2.39-2.219 4.89-1.453 2.5-3.375 4.626-1.922 2.109-4.547 3.468-2.609 1.344-5.39 1.344-2.782 0-4.375-1.547-1.594-1.562-1.594-4.297 0-1.859.734-4.25.75-2.406 2.22-4.906 1.468-2.5 3.374-4.594 1.922-2.109 4.531-3.453 2.625-1.36 5.407-1.36 2.796 0 4.39 1.532 1.594 1.531 1.594 4.266zm-3.922-.297q0-3.672-2.672-3.672-2.234 0-4.984 2.844-2.75 2.828-4.672 6.843-1.906 4.016-1.906 7.188 0 3.656 2.672 3.656 2.187 0 4.953-2.828 2.765-2.828 4.687-6.844 1.922-4.015 1.922-7.187zm23.985.297q0 1.875-.75 4.281-.75 2.39-2.218 4.89-1.453 2.5-3.375 4.626-1.922 2.109-4.547 3.468-2.61 1.344-5.39 1.344-2.782 0-4.376-1.547-1.594-1.562-1.594-4.297 0-1.859.735-4.25.75-2.406 2.219-4.906 1.468-2.5 3.375-4.594 1.921-2.109 4.53-3.453 2.626-1.36 5.407-1.36 2.797 0 4.39 1.532 1.594 1.531 1.594 4.266zm-3.921-.297q0-3.672-2.672-3.672-2.235 0-4.985 2.844-2.75 2.828-4.672 6.843-1.906 4.016-1.906 7.188 0 3.656 2.672 3.656 2.188 0 4.953-2.828 2.766-2.828 4.688-6.844 1.922-4.015 1.922-7.187zm3.422 18.5-.468-.031q-.453 0-.688.296-1.14.97-3.078.97-1 0-1-.438v-.094q0-.375 2.313-4.36 2.328-3.984 5.14-8.874 2.813-4.907 3.625-6.735.828-1.828.828-3.031v-.438q0-.859 3.563-.859 1.797 0 1.797.656 0 .266-.266.547-2.656 4.328-7.062 12.36l-.47.828q-.468.843-.671 1.187-.188.344-.61 1.203-.421.844-.609 1.375-.578 1.5-.578 2.344 0 1.219 2.203 1.219h.235q1.359 0 3-.563 3.203-1.125 5.203-4.328.125-.297.734-.297.625 0 .625.532 0 .796-1.062 2.875-1.063 2.062-1.938 3.062-.422.594-1.656.594-1.235.062-5.344.062l-3.766-.062zm26.836.531q-1.765 0-2.265-.125-.5-.11-.86-.203-.343-.078-.453-.11-.094-.03-.297-.03-.39 0-.718.202-1.172.97-3.079.97-1 0-1-.454 0-.453 2.313-4.453 2.328-4 5.14-8.89 2.813-4.907 3.626-6.735.828-1.828.828-3.172v-.266q0-.968 5.562-.968 8.266 0 8.266 5.64 0 4.063-2.766 8.97-1.437 2.562-3.375 4.702-1.922 2.125-4.812 3.531-2.875 1.391-6.11 1.391zm10.97-11.406q1.233-2.39 1.874-4.469.656-2.094.656-3.5 0-1.422-.828-2.156-.812-.735-2.75-.735-1.328 0-2.125.938-2.094 2.625-6.062 9.719-3.969 7.078-3.969 8.281 0 1.328 2.828 1.328 2 0 4.031-1.39 2.032-1.407 3.563-3.516 1.547-2.125 2.781-4.5zm5.554 10.875-.468-.031q-.454 0-.688.296-1.14.97-3.078.97-1 0-1-.438v-.094q0-.375 2.312-4.36 2.329-3.984 5.141-8.874 2.813-4.907 3.625-6.735.828-1.828.828-3.031v-.438q0-.859 3.563-.859 1.797 0 1.797.656 0 .266-.266.547-2.656 4.328-7.063 12.36l-.468.828q-.47.843-.672 1.187-.188.344-.61 1.203-.421.844-.609 1.375-.578 1.5-.578 2.344 0 1.219 2.203 1.219h.234q1.36 0 3-.563 3.204-1.125 5.204-4.328.125-.297.734-.297.625 0 .625.532 0 .796-1.063 2.875-1.062 2.062-1.937 3.062-.422.594-1.656.594-1.235.062-5.344.062l-3.766-.062zm18.54-1.906q0 .671.078 1.015.078.328.078.485 0 .765-3.25.765t-3.25-.765l.204-.391q1.14-.672 4.53-6.188 3.407-5.515 6.907-12.453.734-1.453.734-2.765v-.532q0-.859 3.563-.859 1.797 0 1.797.656 0 .266-.266.547-2.265 2.922-6.703 10.969-4.422 8.047-4.422 9.516zm27.685-16.297q0 1.875-.75 4.281-.75 2.39-2.218 4.89-1.453 2.5-3.375 4.626-1.922 2.109-4.547 3.468-2.61 1.344-5.39 1.344-2.782 0-4.376-1.547-1.594-1.562-1.594-4.297 0-1.859.735-4.25.75-2.406 2.219-4.906 1.468-2.5 3.375-4.594 1.921-2.109 4.53-3.453 2.626-1.36 5.407-1.36 2.797 0 4.39 1.532 1.594 1.531 1.594 4.266zm-3.921-.297q0-3.672-2.672-3.672-2.235 0-4.985 2.844-2.75 2.828-4.672 6.843-1.906 4.016-1.906 7.188 0 3.656 2.672 3.656 2.188 0 4.953-2.828 2.766-2.828 4.688-6.844 1.922-4.015 1.922-7.187zm6.391-3.86-.031-.734q0-.906 3.094-.906 1.937 0 1.937.969 0 .171-.062.234-.235 1.297-2.641 8.297-2.39 7-2.39 7.719 0 .718.656.718.5 0 .765-.265l1.172-1.172q.703-.703 3.828-5.047 3.14-4.344 5.031-7.516.641-1.265 4.204-1.265.906 0 .906.562l-.235.64q-1 2.032-2.703 7.173-1.703 5.125-1.703 6.015 0 .875.672.875.5 0 .766-.265l.937-.938q1.235-1.234 5.406-7.047 4.188-5.812 5.657-8.687.36-.735.828-.969.844-.39 2.937-.469h.672q1.735 0 1.735.578 0 .235-.313.532-3.266 3.093-9.578 10.515-6.313 7.407-8.578 10.72-.469.687-.735 1-.265.296-.875.687-1.125.734-3.953.734-1.64 0-1.64-.797l.11-.36q.187-.64.718-2.14.547-1.5.906-2.531.375-1.031.797-2.266.844-2.5.844-3.062 0-.578-.5-.578-.547 0-1.203.812-2.641 3.125-6.407 8.5-.625.89-1 1.281-.359.375-1.53.75-1.173.391-2.923.391-1.734 0-1.734-.797l.094-.36q1.171-3.374 3.109-9.702 1.953-6.329 2.656-9.297.297-1.703.297-2.532z"/><defs><radialGradient id="b" gradientUnits="userSpaceOnUse" gradientTransform="scale(8.32987)" spreadMethod="pad" cx="46.857" cy="38.486" fx="46.857" fy="38.486" r="8.33"><stop offset="0" stop-color="#dcecd5"/><stop offset="1" stop-color="#93bc81"/></radialGradient></defs><path fill="url(#b)" d="M324.378 309.782h110.268V298.98l21.606 21.606-21.606 21.607v-10.804H324.378z" fill-rule="evenodd"/><path stroke="#38761d" stroke-linejoin="round" stroke-linecap="butt" d="M324.378 309.782h110.268V298.98l21.606 21.606-21.606 21.607v-10.804H324.378z"/></g></svg>