<svg viewBox="0 0 989.806 438.06" fill="none" stroke-linecap="square" stroke-miterlimit="10" xmlns="http://www.w3.org/2000/svg"><clipPath id="a"><path d="M0 0h989.806v438.06H0V0z"/></clipPath><g clip-path="url(#a)"><path fill="none" d="M0 0h989.806v438.06H0z"/><path shape-rendering="crispEdges" fill="#d0e0e3" d="M107.39 50.864h69.296v58.57H107.39v-58.57zM176.686 50.864h69.297v58.57h-69.297v-58.57z"/><path shape-rendering="crispEdges" fill="#d0e0e3" d="M245.983 50.864h69.297v58.57h-69.297v-58.57zM315.28 50.864h69.296v58.57H315.28v-58.57zM384.576 50.864h69.297v58.57h-69.297v-58.57z"/><path shape-rendering="crispEdges" fill="#d0e0e3" d="M453.873 50.864h69.296v58.57h-69.296v-58.57zM523.17 50.864h69.296v58.57h-69.297v-58.57zM592.466 50.864h69.296v58.57h-69.296v-58.57z"/><path shape-rendering="crispEdges" fill="#d0e0e3" d="M661.762 50.864h69.297v58.57h-69.297v-58.57zM731.06 50.864h69.296v58.57h-69.297v-58.57zM107.39 109.433h69.296v58.57H107.39v-58.57zM176.686 109.433h69.297v58.57h-69.297v-58.57z"/><path shape-rendering="crispEdges" fill="#d0e0e3" d="M245.983 109.433h69.297v58.57h-69.297v-58.57zM315.28 109.433h69.296v58.57H315.28v-58.57zM384.576 109.433h69.297v58.57h-69.297v-58.57z"/><path shape-rendering="crispEdges" fill="#d0e0e3" d="M453.873 109.433h69.296v58.57h-69.296v-58.57zM523.17 109.433h69.296v58.57h-69.297v-58.57zM592.466 109.433h69.296v58.57h-69.296v-58.57z"/><path shape-rendering="crispEdges" fill="#d0e0e3" d="M661.762 109.433h69.297v58.57h-69.297v-58.57zM731.06 109.433h69.296v58.57h-69.297v-58.57z"/><path stroke="#45818e" stroke-width="4" stroke-linecap="butt" d="M107.39 48.864v121.139M176.686 48.864v121.139M245.983 48.864v121.139M315.28 48.864v121.139M384.576 48.864v121.139M453.873 48.864v121.139M523.17 48.864v121.139M592.466 48.864v121.139M661.762 48.864v121.139M731.06 48.864v121.139M800.356 48.864v121.139M105.39 50.864h696.966M105.39 109.433h696.966M105.39 168.003h696.966"/><path fill="#0c343d" d="M119.25 78.745q-.188 0-.25-.235 0-.453.64-1.03.64-.595 1.031-.75.39-.173 2.563-.22l.375-.437q8.109-9.344 11.25-9.344.265-.031.609-.031 1.844 0 1.844.875 0 .172-.344.86l-1.203 2.39q-.844 1.719-1.656 3.469-4.313 9.515-5 12.484 0 .203-.547.203t-1.328-.61q-.766-.593-.766-1.046 0-.813 1.297-3.11 1.312-2.296 1.312-2.984 0-.937-3.625-.937-.531 0-1.656.047l-1.016 1.343q-1.859 2.5-3.562 6.203-.297.672-1.797.672-1.484 0-1.484-.422 0-.296 1.656-2.578 1.672-2.281 3.969-5.047-.407.047-1.016.11-.61.047-.953.094-.328.03-.344.03zm11.046-3.438q1.047-1.25 1.563-2.531.53-1.281.53-1.734 0-.453-.452-.453-.813 0-2.657 1.703-1.828 1.687-3.984 4.218l2.906.047q1.063 0 2.094-1.25zM198.968 83.62q-1.172 1.078-3.079 1.765-1.89.672-3.671.672-1.782 0-2.547-.187-.766-.172-.89-.172-.267 0-.532.172-.86.765-2.063.765-1.187 0-1.187-.421 0-.297 1.844-3.485 1.859-3.203 4.109-7.125t2.906-5.39q.656-1.47.656-2.532v-.218q0-.72 4.125-.72 3.782 0 4.86.407 1.375.531 1.719 1.406.218.547.218 1.282 0 1.203-.875 2.265-1.625 1.922-4.218 2.531-.985.25-1.172.407-.188.156-.188.328 0 .172.39.437.391.25.845.547.468.281.859.953.39.672.39 1.703 0 1.016-.656 2.266t-1.843 2.344zm-2.329-1.453q.782-.938 1.22-1.891.437-.969.437-1.625t-.203-1.11q-.204-.468-.47-.702-.265-.25-.64-.391-.547-.203-1.11-.203h-.265q-.36 0-.36-.25 0-.547.407-1.172.422-.64.953-.64 2.172 0 3.875-1.438 1.703-1.438 1.703-3.063 0-1.406-1.859-1.406-1.547 0-2.172.734-1.672 2.079-4.844 7.75-3.172 5.672-3.172 6.657 0 .39.438.687.437.297 1.594.297 1.172 0 2.437-.656 1.266-.656 2.031-1.578zM261.217 86.104q-4.39 0-4.39-4.484 0-1.297.625-3.156.625-1.875 1.843-3.891 1.235-2.016 2.782-3.734 1.547-1.735 3.625-2.86 2.078-1.125 4.187-1.125.985 0 1.516.235.531.218.562.218.047 0 .672-.265.625-.266 1.485-.266.875 0 .875.5 0 .484-1.032 2.14-1.015 1.657-2.453 3.173-1.437 1.515-2.297 1.515-.11.031-.265.031-.5 0-.5-.296 0-.047.36-.594.374-.547.75-1.469.374-.922.374-1.484 0-.563-.062-.797-.047-.235-.36-.547-.297-.328-.828-.328-1.437 0-3.422 2.187-1.984 2.188-3.422 5.14-1.422 2.938-1.422 4.985 0 2.453 2.235 2.453 2.672 0 5.172-3.437.11-.219.218-.219.125 0 .188.016.078.015.187.172.125.14.125.547 0 .39-.546 1.328-.547.922-1.454 1.922-.906.984-2.343 1.687-1.438.703-2.985.703zM330.467 86.073q-1.422 0-1.828-.094-.39-.094-.672-.156-.281-.063-.36-.094-.077-.031-.234-.031-.328 0-.593.172-.922.765-2.454.765-.796 0-.796-.359 0-.36 1.843-3.547 1.86-3.203 4.11-7.125 2.265-3.922 2.906-5.39.656-1.47.656-2.532v-.218q0-.766 4.453-.766 6.61 0 6.61 4.5 0 3.25-2.203 7.172-1.157 2.062-2.704 3.765-1.546 1.704-3.859 2.829-2.297 1.109-4.875 1.109zm8.766-9.125q.984-1.906 1.5-3.563.53-1.671.53-2.796 0-1.141-.655-1.72-.657-.593-2.203-.593-1.063 0-1.704.734-1.671 2.11-4.859 7.782-3.172 5.656-3.172 6.625 0 1.062 2.266 1.062 1.61 0 3.234-1.11 1.625-1.124 2.844-2.812 1.234-1.703 2.219-3.61zM405.998 76.667l-2.266-.078q-1.672 0-2.578 1.093-.64.797-1.703 2.61-1.047 1.812-1.047 2.875 0 .984 1.938.984 1.203 0 2.562-.453 2.75-.906 4.344-3.453.188-.25.64-.25.454 0 .454.531 0 .516-.86 2.172-.843 1.64-1.515 2.469-.344.437-1.344.484-1 .047-3.047.047h-2.61l-1.53-.016-.72-.062h-.187q-.156 0-.39.25-.891.765-2.516.765-.766 0-.766-.343v-.078q0-.297 1.844-3.485 1.86-3.187 4.125-7.094 2.266-3.921 2.906-5.375.641-1.453.641-2.5v-.296q0-.454 5.672-.454 1.875 0 3.25.063.406-.453 2.062-.453.688 0 .688.344 0 .609-1.219 2.468-1.203 1.844-2.11 2.516-.296.234-.75.234-.452 0-.452-.187 0-.078.078-.203.437-.828.437-1.875 0-1.453-2.031-1.453-1.234 0-1.938.64-.703.625-1.406 1.781-.687 1.141-1.015 1.97-.329.827-.329 1.046 0 .64.625.781.625.14 2.485.14l1.984-.077q.266 0 .266.203t-.281.672q-.282.453-.579.64-.593.407-1.812.407zM474.95 76.667l-2.296-.078q-1.672 0-2.563 1.093-1.406 1.844-2.921 4.813-1.5 2.969-2.079 3.39-.968.75-2.453.75-.812 0-.812-.343v-.078q0-.297 1.86-3.485 1.859-3.187 4.109-7.094 2.25-3.921 2.906-5.39.656-1.469.656-2.5v-.281q0-.454 5.672-.454 1.86 0 3.25.063.406-.453 2.031-.453.719 0 .719.344 0 .64-1.297 2.578-1.297 1.922-2.172 2.484-.375.188-.719.188-.343 0-.343-.22 0-.015.125-.28.375-.75.375-1.797 0-1.453-2.047-1.453-1.235 0-1.938.64-.703.625-1.406 1.781-.687 1.141-1.016 1.97-.328.827-.328 1.14 0 .297.282.562.296.266 2.859.266 1.14 0 1.531-.031.406-.047.438-.047.234 0 .234.187 0 .11-.016.157-.375.906-.906 1.25-.515.328-1.734.328zM543.013 85.62q-.375 0-.656-.344-.266-.344-.344-.687l-.094-.344q-.078-.297-.39-.297-.297 0-.532.187-2.515 1.97-4.671 1.97-2.766 0-2.766-3.704 0-1.312.672-3.25.687-1.953 1.953-4.062 1.281-2.125 2.89-3.97 1.626-1.859 3.735-3.062 2.125-1.203 4.234-1.203 1.14 0 1.86.406.11.047.234.047.14 0 .281-.078.657-.453 1.688-.453 1.047 0 1.047.516 0 .625-1.328 2.53-2.079 2.954-3.407 2.954-.343 0-.468-.047-.125-.062-.125-.219 0-.156.171-.53.532-1.126.532-1.86 0-.735-.282-1.11-.28-.39-1.156-.39-1.61 0-3.812 2.422-2.188 2.406-3.766 5.562-1.578 3.156-1.578 5.203 0 1.735 1.437 1.735 1.125 0 2.547-1.141 1.438-1.156 2.344-2.469.922-1.312.922-1.89 0-.578-.563-.797-.546-.235-2.156-.235-.312 0-.312-.234 0-.453.515-.937.516-.485 1-.532 1.922-.14 4.032-.14 2.125 0 2.125.375 0 .328-.36 1-.36.656-.594 1.078-.218.406-.656 1.14-.437.735-.703 1.157-.266.422-.812 1.297-.547.859-.875 1.406-.313.531-.782 1.406-.468.875-.687 1.234-.203.36-.344.36zM611.06 67.823v-.36q0-.687 2.859-.687 1.438 0 1.438.531 0 .219-.22.438-1.015 1.375-4.312 7l3.297.031q1.094 0 2-.875.453-.484.813-.89.359-.422.812-1.188.453-.781.719-1.234.375-.672 1.312-2.563 0-.125.204-.328.203-.203.468-.344.282-.156.86-.25.593-.11 1.39-.11.813 0 .813.345 0 .156-.125.359-.11.203-1.39 2.156-1.266 1.938-2.548 4.031-1.265 2.094-2.703 4.547-1.422 2.453-2.312 4.485-.891 2.015-.891 2.953-.156.453-.672.453-1.469 0-2.031-.25-.547-.234-.547-.719 0-.828 1.766-3.86 1.78-3.046 1.78-3.687 0-.656-.546-.968-.531-.329-1.781-.329t-1.735.016q-.906 1.469-2.078 3.766-1.172 2.297-1.968 3.765-.797 1.453-1.282 1.828-.984.75-2.422.75-.828 0-.828-.421 0-.25.703-1.422.704-1.188 2.282-3.735 1.578-2.547 2.718-4.468l-1.625.078q-.406 0-.406-.22 0-.452.578-.905t.938-.578q.375-.141 1.562-.188.985-1.687 2.532-4.672.578-1.281.578-2.281zM671.137 84.589q0-.625.688-1.22.703-.593 1.437-.593 1.47 0 1.47.906 0 .719-.704 1.297-.687.563-1.453.563-1.438 0-1.438-.953zm5.625 0q0-.625.688-1.22.703-.593 1.437-.593 1.47 0 1.47.906 0 .719-.704 1.297-.687.563-1.422.563-1.469 0-1.469-.953zm5.625 0q0-.625.688-1.22.703-.593 1.437-.593 1.47 0 1.47.906 0 .719-.704 1.297-.687.563-1.453.563-1.438 0-1.438-.953zM761.247 68.026q0 1.281-5.594 5.61-2.313 1.78-4.656 3.593-2.329 1.813-3.97 3.453-1.64 1.64-1.64 2.516 0 .484.61.656.625.172 1.39.172.781 0 2.016-.5 1.234-.516 2.219-1.234 2.109-1.578 3.093-2.672l.453-.5q.563-.453.97-.453h.046q.422 0 .422.265-.047.64-2.14 3.907-2.094 3.265-2.782 3.343h-.297q-1.594 0-2.39-.61-2.563.235-3.282.235-3.547 0-4.812-.218-1.266-.204-1.266-.891 0-.938 1.656-2.719 1.672-1.797 4.047-3.703 2.391-1.922 4.782-3.766 2.406-1.843 4.078-3.234 1.687-1.406 1.718-1.812v-.016q0-.719-1.453-.719t-2.922.766q-1.468.75-3.14 2.14-.61.47-1 .47t-.39-.282q.03-.297 1.312-2.266 1.281-1.984 2.11-2.672.343-.328.843-.328 1.125 0 1.844.594 1.765-.156 3.968-.156 4.157 0 4.157 1.031zM118.25 130.714q-.126 0-.157-.157 0-.296.406-.671.422-.391.672-.485.25-.11 1.672-.156l.25-.266q5.266-6.093 7.312-6.093.172-.016.391-.016 1.203 0 1.203.578 0 .11-.234.547l-.781 1.562q-.547 1.11-1.079 2.25-2.796 6.188-3.25 8.11 0 .14-.359.14-.344 0-.86-.39-.5-.39-.5-.688 0-.53.844-2.015.86-1.5.86-1.953 0-.594-2.36-.594-.343 0-1.078.031l-.656.86q-1.203 1.64-2.312 4.046-.204.422-1.172.422-.97 0-.97-.265 0-.188 1.079-1.672 1.094-1.485 2.578-3.282-.25.032-.656.063t-.625.062q-.203.032-.219.032zm7.187-2.235q.672-.828 1-1.656.343-.828.343-1.125 0-.297-.28-.297-.532 0-1.735 1.11-1.188 1.093-2.594 2.734l1.89.047q.704 0 1.376-.813zm2.117 2.235q-.125 0-.156-.157 0-.296.406-.671.422-.391.672-.485.25-.11 1.672-.156l.25-.266q5.265-6.093 7.312-6.093.172-.016.391-.016 1.203 0 1.203.578 0 .11-.234.547l-.782 1.562q-.546 1.11-1.078 2.25-2.797 6.188-3.25 8.11 0 .14-.359.14-.344 0-.86-.39-.5-.39-.5-.688 0-.53.844-2.015.86-1.5.86-1.953 0-.594-2.36-.594-.343 0-1.078.031l-.656.86q-1.203 1.64-2.313 4.046-.203.422-1.171.422-.97 0-.97-.265 0-.188 1.079-1.672 1.094-1.485 2.578-3.282-.25.032-.656.063t-.625.062q-.203.032-.219.032zm7.188-2.235q.671-.828 1-1.656.343-.828.343-1.125 0-.297-.28-.297-.532 0-1.735 1.11-1.188 1.093-2.594 2.734l1.89.047q.704 0 1.376-.813zm2.117 2.235q-.125 0-.156-.157 0-.296.406-.671.422-.391.672-.485.25-.11 1.672-.156l.25-.266q5.265-6.093 7.312-6.093.172-.016.39-.016 1.204 0 1.204.578 0 .11-.234.547l-.782 1.562q-.546 1.11-1.078 2.25-2.797 6.188-3.25 8.11 0 .14-.36.14-.343 0-.858-.39-.5-.39-.5-.688 0-.53.843-2.015.86-1.5.86-1.953 0-.594-2.36-.594-.343 0-1.078.031l-.656.86q-1.203 1.64-2.313 4.046-.203.422-1.171.422-.97 0-.97-.265 0-.188 1.079-1.672 1.094-1.485 2.578-3.282-.25.032-.656.063t-.625.062q-.203.032-.219.032zm7.188-2.235q.671-.828 1-1.656.343-.828.343-1.125 0-.297-.281-.297-.531 0-1.734 1.11-1.188 1.093-2.594 2.734l1.89.047q.704 0 1.376-.813zm2.117 2.235q-.125 0-.156-.157 0-.296.406-.671.422-.391.672-.485.25-.11 1.672-.156l.25-.266q5.265-6.093 7.312-6.093.172-.016.39-.016 1.204 0 1.204.578 0 .11-.234.547l-.782 1.562q-.547 1.11-1.078 2.25-2.797 6.188-3.25 8.11 0 .14-.36.14-.343 0-.859-.39-.5-.39-.5-.688 0-.53.844-2.015.86-1.5.86-1.953 0-.594-2.36-.594-.344 0-1.078.031l-.656.86q-1.203 1.64-2.313 4.046-.203.422-1.172.422-.968 0-.968-.265 0-.188 1.078-1.672 1.094-1.485 2.578-3.282-.25.032-.656.063-.407.031-.625.062-.203.032-.22.032zm7.187-2.235q.672-.828 1-1.656.344-.828.344-1.125 0-.297-.281-.297-.531 0-1.734 1.11-1.188 1.093-2.594 2.734l1.89.047q.704 0 1.375-.813zm2.118 2.235q-.125 0-.156-.157 0-.296.406-.671.422-.391.672-.485.25-.11 1.672-.156l.25-.266q5.265-6.093 7.312-6.093.172-.016.39-.016 1.204 0 1.204.578 0 .11-.235.547l-.78 1.562q-.548 1.11-1.079 2.25-2.797 6.188-3.25 8.11 0 .14-.36.14-.343 0-.859-.39-.5-.39-.5-.688 0-.53.844-2.015.86-1.5.86-1.953 0-.594-2.36-.594-.344 0-1.078.031l-.656.86q-1.203 1.64-2.313 4.046-.203.422-1.172.422-.968 0-.968-.265 0-.188 1.078-1.672 1.093-1.485 2.578-3.282-.25.032-.656.063-.407.031-.625.062-.204.032-.22.032zm7.187-2.235q.672-.828 1-1.656.344-.828.344-1.125 0-.297-.281-.297-.531 0-1.735 1.11-1.187 1.093-2.593 2.734l1.89.047q.703 0 1.375-.813zM187.546 130.714q-.125 0-.157-.157 0-.296.407-.671.422-.391.672-.485.25-.11 1.671-.156l.25-.266q5.266-6.093 7.313-6.093.172-.016.39-.016 1.204 0 1.204.578 0 .11-.235.547l-.78 1.562q-.548 1.11-1.079 2.25-2.797 6.188-3.25 8.11 0 .14-.36.14-.343 0-.859-.39-.5-.39-.5-.688 0-.53.844-2.015.86-1.5.86-1.953 0-.594-2.36-.594-.344 0-1.078.031l-.656.86q-1.204 1.64-2.313 4.046-.203.422-1.172.422-.969 0-.969-.265 0-.188 1.079-1.672 1.093-1.485 2.578-3.282-.25.032-.657.063-.406.031-.625.062-.203.032-.218.032zm7.187-2.235q.672-.828 1-1.656.344-.828.344-1.125 0-.297-.281-.297-.532 0-1.735 1.11-1.187 1.093-2.593 2.734l1.89.047q.703 0 1.375-.813zm2.118 2.235q-.125 0-.157-.157 0-.296.407-.671.422-.391.672-.485.25-.11 1.671-.156l.25-.266q5.266-6.093 7.313-6.093.172-.016.39-.016 1.204 0 1.204.578 0 .11-.235.547l-.781 1.562q-.547 1.11-1.078 2.25-2.797 6.188-3.25 8.11 0 .14-.36.14-.343 0-.859-.39-.5-.39-.5-.688 0-.53.844-2.015.86-1.5.86-1.953 0-.594-2.36-.594-.344 0-1.078.031l-.656.86q-1.204 1.64-2.313 4.046-.203.422-1.172.422-.969 0-.969-.265 0-.188 1.079-1.672 1.093-1.485 2.578-3.282-.25.032-.657.063-.406.031-.625.062-.203.032-.218.032zm7.187-2.235q.672-.828 1-1.656.344-.828.344-1.125 0-.297-.281-.297-.532 0-1.735 1.11-1.187 1.093-2.593 2.734l1.89.047q.703 0 1.375-.813zm2.118 2.235q-.125 0-.157-.157 0-.296.407-.671.421-.391.671-.485.25-.11 1.672-.156l.25-.266q5.266-6.093 7.313-6.093.172-.016.39-.016 1.204 0 1.204.578 0 .11-.235.547l-.781 1.562q-.547 1.11-1.078 2.25-2.797 6.188-3.25 8.11 0 .14-.36.14-.343 0-.859-.39-.5-.39-.5-.688 0-.53.844-2.015.86-1.5.86-1.953 0-.594-2.36-.594-.344 0-1.078.031l-.657.86q-1.203 1.64-2.312 4.046-.203.422-1.172.422-.969 0-.969-.265 0-.188 1.078-1.672 1.094-1.485 2.579-3.282-.25.032-.657.063-.406.031-.625.062-.203.032-.218.032zm7.187-2.235q.672-.828 1-1.656.344-.828.344-1.125 0-.297-.281-.297-.532 0-1.735 1.11-1.187 1.093-2.594 2.734l1.891.047q.703 0 1.375-.813zm2.118 2.235q-.125 0-.157-.157 0-.296.407-.671.421-.391.671-.485.25-.11 1.672-.156l.25-.266q5.266-6.093 7.313-6.093.172-.016.39-.016 1.204 0 1.204.578 0 .11-.235.547l-.781 1.562q-.547 1.11-1.078 2.25-2.797 6.188-3.25 8.11 0 .14-.36.14-.343 0-.859-.39-.5-.39-.5-.688 0-.53.844-2.015.86-1.5.86-1.953 0-.594-2.36-.594-.344 0-1.078.031l-.657.86q-1.203 1.64-2.312 4.046-.203.422-1.172.422-.969 0-.969-.265 0-.188 1.078-1.672 1.094-1.485 2.579-3.282-.25.032-.657.063-.406.031-.625.062-.203.032-.218.032zm7.187-2.235q.672-.828 1-1.656.344-.828.344-1.125 0-.297-.281-.297-.532 0-1.735 1.11-1.187 1.093-2.594 2.734l1.891.047q.703 0 1.375-.813zm9.351 5.39q-.766.704-2 1.142-1.219.437-2.39.437-1.157 0-1.657-.11-.484-.109-.562-.109-.172 0-.36.11-.547.5-1.328.5t-.781-.282q0-.187 1.203-2.265 1.203-2.078 2.672-4.625t1.89-3.5q.422-.953.422-1.656v-.141q0-.469 2.688-.469 2.453 0 3.156.266.89.344 1.125.922.14.343.14.828 0 .781-.577 1.469-1.047 1.25-2.735 1.656-.64.156-.765.265-.125.094-.125.204 0 .109.25.28.265.173.562.36.297.188.547.625.266.422.266 1.094 0 .672-.438 1.484-.422.813-1.203 1.516zm-1.5-.937q.5-.609.781-1.234.297-.625.297-1.047 0-.437-.14-.734-.125-.297-.297-.453-.172-.157-.422-.25-.36-.14-.719-.14h-.172q-.234 0-.234-.157 0-.36.265-.766.282-.406.625-.406 1.407 0 2.5-.938 1.11-.937 1.11-2 0-.906-1.203-.906-1 0-1.407.485-1.093 1.343-3.156 5.03-2.062 3.688-2.062 4.329 0 .25.281.453.297.188 1.047.188t1.578-.422q.828-.438 1.328-1.032zM256.842 130.714q-.125 0-.156-.157 0-.296.406-.671.422-.391.672-.485.25-.11 1.672-.156l.25-.266q5.266-6.093 7.313-6.093.171-.016.39-.016 1.203 0 1.203.578 0 .11-.234.547l-.781 1.562q-.547 1.11-1.078 2.25-2.797 6.188-3.25 8.11 0 .14-.36.14-.344 0-.86-.39-.5-.39-.5-.688 0-.53.845-2.015.859-1.5.859-1.953 0-.594-2.36-.594-.343 0-1.078.031l-.656.86q-1.203 1.64-2.312 4.046-.203.422-1.172.422-.969 0-.969-.265 0-.188 1.078-1.672 1.094-1.485 2.578-3.282-.25.032-.656.063t-.625.062q-.203.032-.219.032zm7.188-2.235q.672-.828 1-1.656.344-.828.344-1.125 0-.297-.282-.297-.53 0-1.734 1.11-1.188 1.093-2.594 2.734l1.89.047q.704 0 1.376-.813zm2.117 2.235q-.125 0-.156-.157 0-.296.406-.671.422-.391.672-.485.25-.11 1.672-.156l.25-.266q5.266-6.093 7.313-6.093.171-.016.39-.016 1.203 0 1.203.578 0 .11-.234.547l-.781 1.562q-.547 1.11-1.078 2.25-2.797 6.188-3.25 8.11 0 .14-.36.14-.344 0-.86-.39-.5-.39-.5-.688 0-.53.845-2.015.859-1.5.859-1.953 0-.594-2.36-.594-.343 0-1.078.031l-.656.86q-1.203 1.64-2.312 4.046-.203.422-1.172.422-.969 0-.969-.265 0-.188 1.078-1.672 1.094-1.485 2.578-3.282-.25.032-.656.063t-.625.062q-.203.032-.219.032zm7.188-2.235q.672-.828 1-1.656.344-.828.344-1.125 0-.297-.282-.297-.531 0-1.734 1.11-1.188 1.093-2.594 2.734l1.89.047q.704 0 1.376-.813zm2.117 2.235q-.125 0-.156-.157 0-.296.406-.671.422-.391.672-.485.25-.11 1.672-.156l.25-.266q5.266-6.093 7.312-6.093.172-.016.391-.016 1.203 0 1.203.578 0 .11-.234.547l-.781 1.562q-.547 1.11-1.079 2.25-2.796 6.188-3.25 8.11 0 .14-.359.14-.344 0-.86-.39-.5-.39-.5-.688 0-.53.844-2.015.86-1.5.86-1.953 0-.594-2.36-.594-.343 0-1.078.031l-.656.86q-1.203 1.64-2.312 4.046-.204.422-1.172.422-.97 0-.97-.265 0-.188 1.08-1.672 1.093-1.485 2.577-3.282-.25.032-.656.063t-.625.062q-.203.032-.219.032zm7.188-2.235q.672-.828 1-1.656.343-.828.343-1.125 0-.297-.28-.297-.532 0-1.735 1.11-1.188 1.093-2.594 2.734l1.89.047q.704 0 1.376-.813zm9.35 5.39q-.765.704-2 1.142-1.218.437-2.39.437-1.156 0-1.656-.11-.485-.109-.563-.109-.172 0-.359.11-.547.5-1.328.5t-.781-.282q0-.187 1.203-2.265 1.203-2.078 2.672-4.625 1.468-2.547 1.89-3.5.422-.953.422-1.656v-.141q0-.469 2.688-.469 2.453 0 3.156.266.89.344 1.125.922.14.343.14.828 0 .781-.578 1.469-1.047 1.25-2.734 1.656-.64.156-.766.265-.125.094-.125.204 0 .109.25.28.266.173.563.36.297.188.547.625.265.422.265 1.094 0 .672-.437 1.484-.422.813-1.203 1.516zm-1.5-.937q.5-.609.782-1.234.297-.625.297-1.047 0-.437-.14-.734-.126-.297-.298-.453-.172-.157-.422-.25-.359-.14-.718-.14h-.172q-.235 0-.235-.157 0-.36.266-.766.281-.406.625-.406 1.406 0 2.5-.938 1.11-.937 1.11-2 0-.906-1.204-.906-1 0-1.406.485-1.094 1.343-3.156 5.03-2.063 3.688-2.063 4.329 0 .25.282.453.296.188 1.046.188t1.579-.422q.828-.438 1.328-1.032zm3.988-2.218q-.125 0-.156-.157 0-.296.406-.671.422-.391.672-.485.25-.11 1.672-.156l.25-.266q5.265-6.093 7.312-6.093.172-.016.391-.016 1.203 0 1.203.578 0 .11-.234.547l-.782 1.562q-.546 1.11-1.078 2.25-2.797 6.188-3.25 8.11 0 .14-.359.14-.344 0-.86-.39-.5-.39-.5-.688 0-.53.844-2.015.86-1.5.86-1.953 0-.594-2.36-.594-.343 0-1.078.031l-.656.86q-1.203 1.64-2.313 4.046-.203.422-1.171.422-.97 0-.97-.265 0-.188 1.079-1.672 1.094-1.485 2.578-3.282-.25.032-.656.063t-.625.062q-.203.032-.219.032zm7.188-2.235q.671-.828 1-1.656.343-.828.343-1.125 0-.297-.28-.297-.532 0-1.735 1.11-1.188 1.093-2.594 2.734l1.89.047q.704 0 1.376-.813zM326.139 130.714q-.125 0-.156-.157 0-.296.406-.671.422-.391.672-.485.25-.11 1.672-.156l.25-.266q5.265-6.093 7.312-6.093.172-.016.39-.016 1.204 0 1.204.578 0 .11-.234.547l-.782 1.562q-.547 1.11-1.078 2.25-2.797 6.188-3.25 8.11 0 .14-.36.14-.343 0-.859-.39-.5-.39-.5-.688 0-.53.844-2.015.86-1.5.86-1.953 0-.594-2.36-.594-.344 0-1.078.031l-.656.86q-1.203 1.64-2.313 4.046-.203.422-1.172.422-.968 0-.968-.265 0-.188 1.078-1.672 1.094-1.485 2.578-3.282-.25.032-.656.063-.407.031-.625.062-.203.032-.22.032zm7.187-2.235q.672-.828 1-1.656.344-.828.344-1.125 0-.297-.281-.297-.531 0-1.734 1.11-1.188 1.093-2.594 2.734l1.89.047q.704 0 1.375-.813zm2.118 2.235q-.125 0-.156-.157 0-.296.406-.671.422-.391.672-.485.25-.11 1.672-.156l.25-.266q5.265-6.093 7.312-6.093.172-.016.39-.016 1.204 0 1.204.578 0 .11-.235.547l-.78 1.562q-.548 1.11-1.079 2.25-2.797 6.188-3.25 8.11 0 .14-.36.14-.343 0-.859-.39-.5-.39-.5-.688 0-.53.844-2.015.86-1.5.86-1.953 0-.594-2.36-.594-.344 0-1.078.031l-.656.86q-1.203 1.64-2.313 4.046-.203.422-1.172.422-.968 0-.968-.265 0-.188 1.078-1.672 1.093-1.485 2.578-3.282-.25.032-.656.063-.407.031-.625.062-.204.032-.22.032zm7.187-2.235q.672-.828 1-1.656.344-.828.344-1.125 0-.297-.281-.297-.531 0-1.735 1.11-1.187 1.093-2.593 2.734l1.89.047q.703 0 1.375-.813zm2.118 2.235q-.125 0-.156-.157 0-.296.406-.671.422-.391.672-.485.25-.11 1.672-.156l.25-.266q5.265-6.093 7.312-6.093.172-.016.39-.016 1.204 0 1.204.578 0 .11-.235.547l-.78 1.562q-.548 1.11-1.079 2.25-2.797 6.188-3.25 8.11 0 .14-.36.14-.343 0-.859-.39-.5-.39-.5-.688 0-.53.844-2.015.86-1.5.86-1.953 0-.594-2.36-.594-.344 0-1.078.031l-.656.86q-1.203 1.64-2.313 4.046-.203.422-1.172.422-.968 0-.968-.265 0-.188 1.078-1.672 1.093-1.485 2.578-3.282-.25.032-.656.063-.407.031-.625.062-.204.032-.22.032zm7.187-2.235q.672-.828 1-1.656.344-.828.344-1.125 0-.297-.281-.297-.531 0-1.735 1.11-1.187 1.093-2.593 2.734l1.89.047q.703 0 1.375-.813zm9.351 5.39q-.765.704-2 1.142-1.218.437-2.39.437-1.157 0-1.657-.11-.484-.109-.562-.109-.172 0-.36.11-.546.5-1.328.5-.78 0-.78-.282 0-.187 1.202-2.265 1.203-2.078 2.672-4.625t1.89-3.5q.423-.953.423-1.656v-.141q0-.469 2.687-.469 2.453 0 3.156.266.891.344 1.125.922.141.343.141.828 0 .781-.578 1.469-1.047 1.25-2.734 1.656-.641.156-.766.265-.125.094-.125.204 0 .109.25.28.266.173.562.36.297.188.547.625.266.422.266 1.094 0 .672-.438 1.484-.421.813-1.203 1.516zm-1.5-.937q.5-.609.782-1.234.296-.625.296-1.047 0-.437-.14-.734-.125-.297-.297-.453-.172-.157-.422-.25-.36-.14-.719-.14h-.172q-.234 0-.234-.157 0-.36.266-.766.281-.406.625-.406 1.406 0 2.5-.938 1.11-.937 1.11-2 0-.906-1.204-.906-1 0-1.406.485-1.094 1.343-3.157 5.03-2.062 3.688-2.062 4.329 0 .25.281.453.297.188 1.047.188t1.578-.422q.828-.438 1.328-1.032zm10.805.938q-.765.703-2 1.14-1.218.438-2.39.438-1.157 0-1.657-.11-.484-.109-.562-.109-.172 0-.36.11-.546.5-1.328.5-.78 0-.78-.282 0-.187 1.202-2.265 1.203-2.078 2.672-4.625t1.89-3.5q.423-.953.423-1.656v-.141q0-.469 2.687-.469 2.453 0 3.156.266.891.344 1.125.922.141.343.141.828 0 .781-.578 1.469-1.047 1.25-2.734 1.656-.641.156-.766.265-.125.094-.125.204 0 .109.25.28.266.173.562.36.297.188.547.625.266.422.266 1.094 0 .672-.438 1.484-.421.813-1.203 1.516zm-1.5-.938q.5-.609.782-1.234.296-.625.296-1.047 0-.437-.14-.734-.125-.297-.297-.453-.172-.157-.422-.25-.36-.14-.719-.14h-.172q-.234 0-.234-.157 0-.36.266-.766.28-.406.625-.406 1.406 0 2.5-.938 1.11-.937 1.11-2 0-.906-1.204-.906-1 0-1.406.485-1.094 1.343-3.157 5.03-2.062 3.688-2.062 4.329 0 .25.281.453.297.188 1.047.188t1.578-.422q.828-.438 1.328-1.032zM395.435 130.714q-.125 0-.156-.157 0-.296.406-.671.422-.391.672-.485.25-.11 1.672-.156l.25-.266q5.266-6.093 7.313-6.093.172-.016.39-.016 1.203 0 1.203.578 0 .11-.234.547l-.781 1.562q-.547 1.11-1.078 2.25-2.797 6.188-3.25 8.11 0 .14-.36.14-.343 0-.859-.39-.5-.39-.5-.688 0-.53.844-2.015.86-1.5.86-1.953 0-.594-2.36-.594-.344 0-1.078.031l-.657.86q-1.203 1.64-2.312 4.046-.203.422-1.172.422-.969 0-.969-.265 0-.188 1.078-1.672 1.094-1.485 2.578-3.282-.25.032-.656.063t-.625.062q-.203.032-.219.032zm7.188-2.235q.672-.828 1-1.656.344-.828.344-1.125 0-.297-.281-.297-.532 0-1.735 1.11-1.187 1.093-2.594 2.734l1.891.047q.703 0 1.375-.813zm2.117 2.235q-.125 0-.156-.157 0-.296.406-.671.422-.391.672-.485.25-.11 1.672-.156l.25-.266q5.266-6.093 7.313-6.093.172-.016.39-.016 1.203 0 1.203.578 0 .11-.234.547l-.781 1.562q-.547 1.11-1.078 2.25-2.797 6.188-3.25 8.11 0 .14-.36.14-.343 0-.86-.39-.5-.39-.5-.688 0-.53.845-2.015.86-1.5.86-1.953 0-.594-2.36-.594-.344 0-1.078.031l-.657.86q-1.203 1.64-2.312 4.046-.203.422-1.172.422-.969 0-.969-.265 0-.188 1.078-1.672 1.094-1.485 2.578-3.282-.25.032-.656.063t-.625.062q-.203.032-.219.032zm7.188-2.235q.672-.828 1-1.656.344-.828.344-1.125 0-.297-.282-.297-.53 0-1.734 1.11-1.187 1.093-2.594 2.734l1.89.047q.704 0 1.376-.813zm9.351 5.39q-.766.704-2 1.142-1.219.437-2.39.437-1.157 0-1.657-.11-.484-.109-.562-.109-.172 0-.36.11-.547.5-1.328.5t-.781-.282q0-.187 1.203-2.265 1.203-2.078 2.672-4.625t1.89-3.5q.422-.953.422-1.656v-.141q0-.469 2.688-.469 2.453 0 3.156.266.89.344 1.125.922.14.343.14.828 0 .781-.577 1.469-1.047 1.25-2.735 1.656-.64.156-.765.265-.125.094-.125.204 0 .109.25.28.265.173.562.36.297.188.547.625.266.422.266 1.094 0 .672-.438 1.484-.422.813-1.203 1.516zm-1.5-.937q.5-.609.781-1.234.297-.625.297-1.047 0-.437-.14-.734-.125-.297-.297-.453-.172-.157-.422-.25-.36-.14-.719-.14h-.172q-.234 0-.234-.157 0-.36.265-.766.282-.406.625-.406 1.407 0 2.5-.938 1.11-.937 1.11-2 0-.906-1.203-.906-1 0-1.407.485-1.093 1.343-3.156 5.03-2.062 3.688-2.062 4.329 0 .25.28.453.298.188 1.048.188t1.578-.422q.828-.438 1.328-1.032zm3.987-2.218q-.125 0-.156-.157 0-.296.406-.671.422-.391.672-.485.25-.11 1.672-.156l.25-.266q5.266-6.093 7.313-6.093.171-.016.39-.016 1.203 0 1.203.578 0 .11-.234.547l-.781 1.562q-.547 1.11-1.078 2.25-2.797 6.188-3.25 8.11 0 .14-.36.14-.344 0-.86-.39-.5-.39-.5-.688 0-.53.845-2.015.859-1.5.859-1.953 0-.594-2.36-.594-.343 0-1.078.031l-.656.86q-1.203 1.64-2.312 4.046-.203.422-1.172.422-.969 0-.969-.265 0-.188 1.078-1.672 1.094-1.485 2.578-3.282-.25.032-.656.063t-.625.062q-.203.032-.219.032zm7.188-2.235q.672-.828 1-1.656.344-.828.344-1.125 0-.297-.282-.297-.53 0-1.734 1.11-1.188 1.093-2.594 2.734l1.89.047q.704 0 1.376-.813zm2.117 2.235q-.125 0-.156-.157 0-.296.406-.671.422-.391.672-.485.25-.11 1.672-.156l.25-.266q5.266-6.093 7.313-6.093.171-.016.39-.016 1.203 0 1.203.578 0 .11-.234.547l-.781 1.562q-.547 1.11-1.078 2.25-2.797 6.188-3.25 8.11 0 .14-.36.14-.344 0-.86-.39-.5-.39-.5-.688 0-.53.845-2.015.859-1.5.859-1.953 0-.594-2.36-.594-.343 0-1.078.031l-.656.86q-1.203 1.64-2.312 4.046-.203.422-1.172.422-.969 0-.969-.265 0-.188 1.078-1.672 1.094-1.485 2.578-3.282-.25.032-.656.063t-.625.062q-.203.032-.219.032zm7.188-2.235q.672-.828 1-1.656.344-.828.344-1.125 0-.297-.282-.297-.531 0-1.734 1.11-1.188 1.093-2.594 2.734l1.89.047q.704 0 1.376-.813zM464.732 130.714q-.125 0-.156-.157 0-.296.406-.671.422-.391.672-.485.25-.11 1.672-.156l.25-.266q5.265-6.093 7.312-6.093.172-.016.391-.016 1.203 0 1.203.578 0 .11-.234.547l-.782 1.562q-.546 1.11-1.078 2.25-2.797 6.188-3.25 8.11 0 .14-.359.14-.344 0-.86-.39-.5-.39-.5-.688 0-.53.844-2.015.86-1.5.86-1.953 0-.594-2.36-.594-.343 0-1.078.031l-.656.86q-1.203 1.64-2.313 4.046-.203.422-1.171.422-.97 0-.97-.265 0-.188 1.079-1.672 1.094-1.485 2.578-3.282-.25.032-.656.063t-.625.062q-.203.032-.219.032zm7.188-2.235q.671-.828 1-1.656.343-.828.343-1.125 0-.297-.28-.297-.532 0-1.735 1.11-1.188 1.093-2.594 2.734l1.89.047q.704 0 1.376-.813zm2.117 2.235q-.125 0-.156-.157 0-.296.406-.671.422-.391.672-.485.25-.11 1.672-.156l.25-.266q5.265-6.093 7.312-6.093.172-.016.39-.016 1.204 0 1.204.578 0 .11-.234.547l-.782 1.562q-.546 1.11-1.078 2.25-2.797 6.188-3.25 8.11 0 .14-.36.14-.343 0-.858-.39-.5-.39-.5-.688 0-.53.843-2.015.86-1.5.86-1.953 0-.594-2.36-.594-.343 0-1.078.031l-.656.86q-1.203 1.64-2.313 4.046-.203.422-1.171.422-.97 0-.97-.265 0-.188 1.079-1.672 1.094-1.485 2.578-3.282-.25.032-.656.063t-.625.062q-.203.032-.219.032zm7.188-2.235q.671-.828 1-1.656.343-.828.343-1.125 0-.297-.281-.297-.531 0-1.734 1.11-1.188 1.093-2.594 2.734l1.89.047q.704 0 1.376-.813zm9.35 5.39q-.765.704-2 1.142-1.218.437-2.39.437-1.156 0-1.656-.11-.485-.109-.563-.109-.172 0-.36.11-.546.5-1.327.5-.782 0-.782-.282 0-.187 1.204-2.265 1.203-2.078 2.671-4.625 1.47-2.547 1.891-3.5.422-.953.422-1.656v-.141q0-.469 2.687-.469 2.454 0 3.157.266.89.344 1.125.922.14.343.14.828 0 .781-.578 1.469-1.047 1.25-2.734 1.656-.64.156-.766.265-.125.094-.125.204 0 .109.25.28.266.173.563.36.297.188.547.625.265.422.265 1.094 0 .672-.437 1.484-.422.813-1.203 1.516zm-1.5-.937q.5-.609.782-1.234.297-.625.297-1.047 0-.437-.14-.734-.126-.297-.298-.453-.172-.157-.422-.25-.359-.14-.718-.14h-.172q-.235 0-.235-.157 0-.36.266-.766.281-.406.625-.406 1.406 0 2.5-.938 1.11-.937 1.11-2 0-.906-1.204-.906-1 0-1.406.485-1.094 1.343-3.156 5.03-2.063 3.688-2.063 4.329 0 .25.281.453.297.188 1.047.188t1.578-.422q.829-.438 1.329-1.032zm3.988-2.218q-.125 0-.156-.157 0-.296.406-.671.422-.391.672-.485.25-.11 1.672-.156l.25-.266q5.265-6.093 7.312-6.093.172-.016.39-.016 1.204 0 1.204.578 0 .11-.234.547l-.782 1.562q-.547 1.11-1.078 2.25-2.797 6.188-3.25 8.11 0 .14-.36.14-.343 0-.859-.39-.5-.39-.5-.688 0-.53.844-2.015.86-1.5.86-1.953 0-.594-2.36-.594-.344 0-1.078.031l-.656.86q-1.203 1.64-2.313 4.046-.203.422-1.172.422-.968 0-.968-.265 0-.188 1.078-1.672 1.094-1.485 2.578-3.282-.25.032-.656.063-.407.031-.625.062-.203.032-.22.032zm7.187-2.235q.672-.828 1-1.656.344-.828.344-1.125 0-.297-.281-.297-.531 0-1.734 1.11-1.188 1.093-2.594 2.734l1.89.047q.704 0 1.375-.813zm9.351 5.39q-.765.704-2 1.142-1.218.437-2.39.437-1.156 0-1.656-.11-.485-.109-.563-.109-.172 0-.36.11-.546.5-1.327.5-.782 0-.782-.282 0-.187 1.203-2.265 1.204-2.078 2.672-4.625 1.47-2.547 1.891-3.5.422-.953.422-1.656v-.141q0-.469 2.687-.469 2.453 0 3.157.266.89.344 1.125.922.14.343.14.828 0 .781-.578 1.469-1.047 1.25-2.734 1.656-.64.156-.766.265-.125.094-.125.204 0 .109.25.28.266.173.563.36.296.188.546.625.266.422.266 1.094 0 .672-.437 1.484-.422.813-1.204 1.516zm-1.5-.937q.5-.609.782-1.234.297-.625.297-1.047 0-.437-.141-.734-.125-.297-.297-.453-.172-.157-.422-.25-.36-.14-.719-.14h-.171q-.235 0-.235-.157 0-.36.266-.766.281-.406.625-.406 1.406 0 2.5-.938 1.11-.937 1.11-2 0-.906-1.204-.906-1 0-1.406.485-1.094 1.343-3.156 5.03-2.063 3.688-2.063 4.329 0 .25.281.453.297.188 1.047.188t1.578-.422q.828-.438 1.328-1.032zM534.029 130.714q-.125 0-.157-.157 0-.296.407-.671.422-.391.672-.485.25-.11 1.671-.156l.25-.266q5.266-6.093 7.313-6.093.172-.016.39-.016 1.204 0 1.204.578 0 .11-.235.547l-.78 1.562q-.548 1.11-1.08 2.25-2.796 6.188-3.25 8.11 0 .14-.358.14-.344 0-.86-.39-.5-.39-.5-.688 0-.53.844-2.015.86-1.5.86-1.953 0-.594-2.36-.594-.344 0-1.078.031l-.656.86q-1.204 1.64-2.313 4.046-.203.422-1.172.422-.969 0-.969-.265 0-.188 1.079-1.672 1.093-1.485 2.578-3.282-.25.032-.657.063-.406.031-.625.062-.203.032-.218.032zm7.187-2.235q.672-.828 1-1.656.344-.828.344-1.125 0-.297-.281-.297-.532 0-1.735 1.11-1.187 1.093-2.593 2.734l1.89.047q.703 0 1.375-.813zm2.118 2.235q-.125 0-.157-.157 0-.296.407-.671.422-.391.672-.485.25-.11 1.671-.156l.25-.266q5.266-6.093 7.313-6.093.172-.016.39-.016 1.204 0 1.204.578 0 .11-.235.547l-.781 1.562q-.547 1.11-1.078 2.25-2.797 6.188-3.25 8.11 0 .14-.36.14-.343 0-.859-.39-.5-.39-.5-.688 0-.53.844-2.015.86-1.5.86-1.953 0-.594-2.36-.594-.344 0-1.078.031l-.656.86q-1.204 1.64-2.313 4.046-.203.422-1.172.422-.969 0-.969-.265 0-.188 1.079-1.672 1.093-1.485 2.578-3.282-.25.032-.657.063-.406.031-.625.062-.203.032-.218.032zm7.187-2.235q.672-.828 1-1.656.344-.828.344-1.125 0-.297-.281-.297-.532 0-1.735 1.11-1.187 1.093-2.593 2.734l1.89.047q.703 0 1.375-.813zm9.351 5.39q-.765.704-2 1.142-1.219.437-2.39.437-1.157 0-1.657-.11-.484-.109-.562-.109-.172 0-.36.11-.546.5-1.328.5-.781 0-.781-.282 0-.187 1.203-2.265 1.203-2.078 2.672-4.625t1.89-3.5q.423-.953.423-1.656v-.141q0-.469 2.687-.469 2.453 0 3.156.266.89.344 1.125.922.14.343.14.828 0 .781-.577 1.469-1.047 1.25-2.735 1.656-.64.156-.765.265-.125.094-.125.204 0 .109.25.28.265.173.562.36.297.188.547.625.266.422.266 1.094 0 .672-.438 1.484-.422.813-1.203 1.516zm-1.5-.937q.5-.609.781-1.234.297-.625.297-1.047 0-.437-.14-.734-.125-.297-.297-.453-.172-.157-.422-.25-.36-.14-.719-.14h-.172q-.234 0-.234-.157 0-.36.266-.766.28-.406.625-.406 1.406 0 2.5-.938 1.109-.937 1.109-2 0-.906-1.203-.906-1 0-1.406.485-1.094 1.343-3.157 5.03-2.062 3.688-2.062 4.329 0 .25.281.453.297.188 1.047.188t1.578-.422q.828-.438 1.328-1.032zm10.805.938q-.765.703-2 1.14-1.219.438-2.39.438-1.157 0-1.657-.11-.484-.109-.562-.109-.172 0-.36.11-.546.5-1.328.5-.781 0-.781-.282 0-.187 1.203-2.265 1.203-2.078 2.672-4.625t1.89-3.5q.423-.953.423-1.656v-.141q0-.469 2.687-.469 2.453 0 3.156.266.89.344 1.125.922.14.343.14.828 0 .781-.577 1.469-1.047 1.25-2.735 1.656-.64.156-.765.265-.125.094-.125.204 0 .109.25.28.265.173.562.36.297.188.547.625.266.422.266 1.094 0 .672-.438 1.484-.422.813-1.203 1.516zm-1.5-.938q.5-.609.781-1.234.297-.625.297-1.047 0-.437-.14-.734-.125-.297-.297-.453-.172-.157-.422-.25-.36-.14-.719-.14h-.172q-.234 0-.234-.157 0-.36.266-.766.28-.406.625-.406 1.406 0 2.5-.938 1.109-.937 1.109-2 0-.906-1.203-.906-1 0-1.406.485-1.094 1.343-3.157 5.03-2.062 3.688-2.062 4.329 0 .25.281.453.297.188 1.047.188t1.578-.422q.828-.438 1.328-1.032zm3.988-2.218q-.125 0-.157-.157 0-.296.407-.671.421-.391.671-.485.25-.11 1.672-.156l.25-.266q5.266-6.093 7.313-6.093.172-.016.39-.016 1.204 0 1.204.578 0 .11-.235.547l-.781 1.562q-.547 1.11-1.078 2.25-2.797 6.188-3.25 8.11 0 .14-.36.14-.343 0-.859-.39-.5-.39-.5-.688 0-.53.844-2.015.86-1.5.86-1.953 0-.594-2.36-.594-.344 0-1.078.031l-.657.86q-1.203 1.64-2.312 4.046-.203.422-1.172.422-.969 0-.969-.265 0-.188 1.078-1.672 1.094-1.485 2.579-3.282-.25.032-.657.063-.406.031-.625.062-.203.032-.218.032zm7.187-2.235q.672-.828 1-1.656.344-.828.344-1.125 0-.297-.281-.297-.532 0-1.735 1.11-1.187 1.093-2.594 2.734l1.891.047q.703 0 1.375-.813zM603.325 130.714q-.125 0-.156-.157 0-.296.406-.671.422-.391.672-.485.25-.11 1.672-.156l.25-.266q5.266-6.093 7.313-6.093.171-.016.39-.016 1.203 0 1.203.578 0 .11-.234.547l-.781 1.562q-.547 1.11-1.078 2.25-2.797 6.188-3.25 8.11 0 .14-.36.14-.344 0-.86-.39-.5-.39-.5-.688 0-.53.845-2.015.859-1.5.859-1.953 0-.594-2.36-.594-.343 0-1.078.031l-.656.86q-1.203 1.64-2.312 4.046-.203.422-1.172.422-.969 0-.969-.265 0-.188 1.078-1.672 1.094-1.485 2.578-3.282-.25.032-.656.063t-.625.062q-.203.032-.219.032zm7.188-2.235q.672-.828 1-1.656.344-.828.344-1.125 0-.297-.282-.297-.531 0-1.734 1.11-1.188 1.093-2.594 2.734l1.89.047q.704 0 1.376-.813zm2.117 2.235q-.125 0-.156-.157 0-.296.406-.671.422-.391.672-.485.25-.11 1.672-.156l.25-.266q5.266-6.093 7.312-6.093.172-.016.391-.016 1.203 0 1.203.578 0 .11-.234.547l-.781 1.562q-.547 1.11-1.079 2.25-2.796 6.188-3.25 8.11 0 .14-.359.14-.344 0-.86-.39-.5-.39-.5-.688 0-.53.844-2.015.86-1.5.86-1.953 0-.594-2.36-.594-.343 0-1.078.031l-.656.86q-1.203 1.64-2.312 4.046-.204.422-1.172.422-.97 0-.97-.265 0-.188 1.08-1.672 1.093-1.485 2.577-3.282-.25.032-.656.063t-.625.062q-.203.032-.219.032zm7.188-2.235q.672-.828 1-1.656.343-.828.343-1.125 0-.297-.28-.297-.532 0-1.735 1.11-1.188 1.093-2.594 2.734l1.89.047q.704 0 1.376-.813zm9.35 5.39q-.765.704-2 1.142-1.218.437-2.39.437-1.156 0-1.656-.11-.484-.109-.563-.109-.171 0-.359.11-.547.5-1.328.5t-.781-.282q0-.187 1.203-2.265 1.203-2.078 2.672-4.625 1.468-2.547 1.89-3.5.422-.953.422-1.656v-.141q0-.469 2.688-.469 2.453 0 3.156.266.89.344 1.125.922.14.343.14.828 0 .781-.578 1.469-1.046 1.25-2.734 1.656-.64.156-.766.265-.125.094-.125.204 0 .109.25.28.266.173.563.36.297.188.547.625.265.422.265 1.094 0 .672-.437 1.484-.422.813-1.203 1.516zm-1.5-.937q.5-.609.782-1.234.297-.625.297-1.047 0-.437-.14-.734-.126-.297-.298-.453-.171-.157-.421-.25-.36-.14-.72-.14h-.171q-.234 0-.234-.157 0-.36.265-.766.281-.406.625-.406 1.406 0 2.5-.938 1.11-.937 1.11-2 0-.906-1.204-.906-1 0-1.406.485-1.094 1.343-3.156 5.03-2.063 3.688-2.063 4.329 0 .25.282.453.297.188 1.047.188t1.578-.422q.828-.438 1.328-1.032zm10.806.938q-.766.703-2 1.14-1.22.438-2.39.438-1.157 0-1.657-.11-.485-.109-.563-.109-.172 0-.36.11-.546.5-1.327.5-.781 0-.781-.282 0-.187 1.203-2.265 1.203-2.078 2.672-4.625 1.468-2.547 1.89-3.5.422-.953.422-1.656v-.141q0-.469 2.688-.469 2.453 0 3.156.266.89.344 1.125.922.14.343.14.828 0 .781-.578 1.469-1.047 1.25-2.734 1.656-.64.156-.766.265-.125.094-.125.204 0 .109.25.28.266.173.563.36.297.188.547.625.265.422.265 1.094 0 .672-.437 1.484-.422.813-1.203 1.516zm-1.5-.938q.5-.609.78-1.234.298-.625.298-1.047 0-.437-.14-.734-.126-.297-.298-.453-.172-.157-.422-.25-.359-.14-.718-.14h-.172q-.235 0-.235-.157 0-.36.266-.766.281-.406.625-.406 1.406 0 2.5-.938 1.11-.937 1.11-2 0-.906-1.204-.906-1 0-1.406.485-1.094 1.343-3.156 5.03-2.063 3.688-2.063 4.329 0 .25.282.453.296.188 1.046.188t1.579-.422q.828-.438 1.328-1.032zm10.805.938q-.766.703-2 1.14-1.22.438-2.39.438-1.157 0-1.657-.11-.485-.109-.563-.109-.172 0-.36.11-.546.5-1.327.5-.781 0-.781-.282 0-.187 1.203-2.265 1.203-2.078 2.672-4.625 1.468-2.547 1.89-3.5.422-.953.422-1.656v-.141q0-.469 2.688-.469 2.453 0 3.156.266.89.344 1.125.922.14.343.14.828 0 .781-.578 1.469-1.047 1.25-2.734 1.656-.64.156-.766.265-.125.094-.125.204 0 .109.25.28.266.173.563.36.297.188.547.625.265.422.265 1.094 0 .672-.437 1.484-.422.813-1.203 1.516zm-1.5-.938q.5-.609.78-1.234.298-.625.298-1.047 0-.437-.14-.734-.126-.297-.298-.453-.172-.157-.422-.25-.359-.14-.718-.14h-.172q-.235 0-.235-.157 0-.36.266-.766.281-.406.625-.406 1.406 0 2.5-.938 1.11-.937 1.11-2 0-.906-1.204-.906-1 0-1.406.485-1.094 1.343-3.156 5.03-2.063 3.688-2.063 4.329 0 .25.282.453.296.188 1.046.188t1.579-.422q.828-.438 1.328-1.032zM671.106 140.676q0-.547.61-1.078.625-.547 1.296-.547 1.329 0 1.329.813 0 .656-.625 1.172-.625.515-1.329.515-1.28 0-1.28-.875zm5.063 0q0-.547.61-1.078.624-.547 1.296-.547 1.328 0 1.328.813 0 .656-.625 1.172-.625.515-1.297.515-1.312 0-1.312-.875zm5.062 0q0-.547.625-1.078.625-.547 1.297-.547 1.313 0 1.313.813 0 .656-.625 1.172-.625.515-1.313.515-1.297 0-1.297-.875zM748.684 133.87q-.766.703-2 1.14-1.219.438-2.39.438-1.157 0-1.657-.11-.484-.109-.562-.109-.172 0-.36.11-.547.5-1.328.5t-.781-.282q0-.187 1.203-2.265 1.203-2.078 2.672-4.625t1.89-3.5q.422-.953.422-1.656v-.141q0-.469 2.688-.469 2.453 0 3.156.266.89.344 1.125.922.14.343.14.828 0 .781-.577 1.469-1.047 1.25-2.735 1.656-.64.156-.765.265-.125.094-.125.204 0 .109.25.28.265.173.562.36.297.188.547.625.266.422.266 1.094 0 .672-.438 1.484-.422.813-1.203 1.516zm-1.5-.938q.5-.609.781-1.234.297-.625.297-1.047 0-.437-.14-.734-.125-.297-.297-.453-.172-.157-.422-.25-.36-.14-.719-.14h-.172q-.234 0-.234-.157 0-.36.265-.766.282-.406.625-.406 1.407 0 2.5-.938 1.11-.937 1.11-2 0-.906-1.203-.906-1 0-1.407.485-1.093 1.343-3.156 5.03-2.062 3.688-2.062 4.329 0 .25.281.453.297.188 1.047.188t1.578-.422q.828-.438 1.328-1.032zm3.987-2.218q-.125 0-.156-.157 0-.296.406-.671.422-.391.672-.485.25-.11 1.672-.156l.25-.266q5.266-6.093 7.313-6.093.172-.016.39-.016 1.203 0 1.203.578 0 .11-.234.547l-.781 1.562q-.547 1.11-1.078 2.25-2.797 6.188-3.25 8.11 0 .14-.36.14-.343 0-.86-.39-.5-.39-.5-.688 0-.53.845-2.015.859-1.5.859-1.953 0-.594-2.36-.594-.343 0-1.077.031l-.657.86q-1.203 1.64-2.312 4.046-.203.422-1.172.422-.969 0-.969-.265 0-.188 1.078-1.672 1.094-1.485 2.578-3.282-.25.032-.656.063t-.625.062q-.203.032-.219.032zm7.188-2.235q.672-.828 1-1.656.344-.828.344-1.125 0-.297-.282-.297-.53 0-1.734 1.11-1.187 1.093-2.594 2.734l1.89.047q.704 0 1.376-.813zm9.351 5.39q-.766.704-2 1.142-1.219.437-2.39.437-1.157 0-1.657-.11-.484-.109-.562-.109-.172 0-.36.11-.547.5-1.328.5t-.781-.282q0-.187 1.203-2.265 1.203-2.078 2.672-4.625t1.89-3.5q.422-.953.422-1.656v-.141q0-.469 2.688-.469 2.453 0 3.156.266.89.344 1.125.922.14.343.14.828 0 .781-.577 1.469-1.047 1.25-2.735 1.656-.64.156-.765.265-.125.094-.125.204 0 .109.25.28.265.173.562.36.297.188.547.625.266.422.266 1.094 0 .672-.438 1.484-.422.813-1.203 1.516zm-1.5-.937q.5-.609.781-1.234.297-.625.297-1.047 0-.437-.14-.734-.126-.297-.297-.453-.172-.157-.422-.25-.36-.14-.719-.14h-.172q-.234 0-.234-.157 0-.36.265-.766.282-.406.625-.406 1.407 0 2.5-.938 1.11-.937 1.11-2 0-.906-1.203-.906-1 0-1.407.485-1.093 1.343-3.156 5.03-2.062 3.688-2.062 4.329 0 .25.28.453.298.188 1.048.188t1.578-.422q.828-.438 1.328-1.032zm10.805.938q-.766.703-2 1.14-1.219.438-2.39.438-1.157 0-1.657-.11-.484-.109-.562-.109-.172 0-.36.11-.547.5-1.328.5t-.781-.282q0-.187 1.203-2.265 1.203-2.078 2.672-4.625t1.89-3.5q.422-.953.422-1.656v-.141q0-.469 2.688-.469 2.453 0 3.156.266.89.344 1.125.922.14.343.14.828 0 .781-.577 1.469-1.047 1.25-2.735 1.656-.64.156-.765.265-.125.094-.125.204 0 .109.25.28.265.173.562.36.297.188.547.625.266.422.266 1.094 0 .672-.438 1.484-.422.813-1.203 1.516zm-1.5-.938q.5-.609.781-1.234.297-.625.297-1.047 0-.437-.14-.734-.126-.297-.297-.453-.172-.157-.422-.25-.36-.14-.719-.14h-.172q-.234 0-.234-.157 0-.36.265-.766.282-.406.625-.406 1.407 0 2.5-.938 1.11-.937 1.11-2 0-.906-1.203-.906-1 0-1.407.485-1.093 1.343-3.156 5.03-2.062 3.688-2.062 4.329 0 .25.28.453.298.188 1.048.188t1.578-.422q.828-.438 1.328-1.032zm10.805.938q-.766.703-2 1.14-1.219.438-2.39.438-1.157 0-1.657-.11-.484-.109-.562-.109-.172 0-.36.11-.547.5-1.328.5t-.781-.282q0-.187 1.203-2.265 1.203-2.078 2.672-4.625t1.89-3.5q.422-.953.422-1.656v-.141q0-.469 2.688-.469 2.453 0 3.156.266.89.344 1.125.922.14.343.14.828 0 .781-.577 1.469-1.047 1.25-2.735 1.656-.64.156-.765.265-.125.094-.125.204 0 .109.25.28.265.173.562.36.297.188.547.625.266.422.266 1.094 0 .672-.438 1.484-.422.813-1.203 1.516zm-1.5-.938q.5-.609.781-1.234.297-.625.297-1.047 0-.437-.14-.734-.126-.297-.297-.453-.172-.157-.422-.25-.36-.14-.719-.14h-.172q-.234 0-.234-.157 0-.36.265-.766.282-.406.625-.406 1.407 0 2.5-.938 1.11-.937 1.11-2 0-.906-1.203-.906-1 0-1.407.485-1.093 1.343-3.156 5.03-2.062 3.688-2.062 4.329 0 .25.28.453.298.188 1.048.188t1.578-.422q.828-.438 1.328-1.032z"/><path fill="#76a5af" d="m803.173 315.96 43.197-46.2v21.599c62.195-8.787 110.348-35.728 125.022-69.947 21.458 50.04-34.072 100.294-125.022 113.143v21.599z" fill-rule="evenodd"/><path fill="#5e838b" d="M975.96 243.01c0-52.216-77.359-94.547-172.787-94.547v-43.197c95.428 0 172.788 42.33 172.788 94.548z" fill-rule="evenodd"/><path fill="none" d="M975.96 243.01c0-52.216-77.359-94.547-172.787-94.547v-43.197c95.428 0 172.788 42.33 172.788 94.548v43.197c0 43.113-53.302 80.766-129.59 91.544v21.599l-43.198-40.195 43.197-46.199v21.599c62.195-8.787 110.348-35.728 125.022-69.947"/><path stroke="#134f5c" stroke-linejoin="round" stroke-linecap="butt" d="M975.96 243.01c0-52.216-77.359-94.547-172.787-94.547v-43.197c95.428 0 172.788 42.33 172.788 94.548v43.197c0 43.113-53.302 80.766-129.59 91.544v21.599l-43.198-40.195 43.197-46.199v21.599c62.195-8.787 110.348-35.728 125.022-69.947"/><path fill="#d9ead3" d="M107.386 252.298h692.976v134.898H107.386z" fill-rule="evenodd"/><path stroke="#6aa84f" stroke-width="4" stroke-linejoin="round" stroke-linecap="butt" d="M107.386 252.298h692.976v134.898H107.386z"/><path fill="none" d="M124.105 290.194h272.378V378.1H124.105z"/><path fill="#38761d" d="M145.105 309.132v-.438q0-.86 3.562-.86 1.797 0 1.797.657 0 .266-.265.547-1.266 1.719-5.39 8.766l4.124.03q1.375 0 2.5-1.109.563-.593 1.016-1.109.453-.516 1.015-1.484.578-.969.907-1.532.468-.843 1.625-3.203 0-.172.25-.422t.593-.421q.36-.188 1.094-.313.734-.14 1.734-.14t1 .437q0 .187-.156.437-.14.25-1.734 2.688-1.578 2.437-3.188 5.062-1.593 2.61-3.375 5.672-1.78 3.063-2.906 5.594-1.11 2.531-1.11 3.703-.202.563-.827.563-1.829 0-2.532-.297-.703-.297-.703-.906 0-1.032 2.219-4.829 2.219-3.796 2.219-4.609 0-.812-.672-1.219-.672-.406-2.235-.406-1.562 0-2.171.031-1.125 1.844-2.594 4.72-1.469 2.858-2.469 4.687-1 1.828-1.594 2.296-1.234.938-3.03.938-1.032 0-1.032-.531 0-.297.875-1.782.89-1.484 2.844-4.671 1.968-3.188 3.406-5.579l-2.031.094q-.5 0-.5-.265 0-.563.718-1.125.72-.579 1.172-.735.469-.172 1.938-.234 1.234-2.11 3.172-5.844.734-1.594.734-2.86zm21.828 11.062-2.828-.094q-2.11 0-3.234 1.36-.797 1-2.125 3.265-1.313 2.266-1.313 3.61 0 1.219 2.438 1.219 1.5 0 3.203-.563 3.422-1.125 5.422-4.328.234-.297.797-.297.578 0 .578.656 0 .641-1.078 2.703-1.063 2.063-1.89 3.11-.438.531-1.688.594-1.25.062-3.813.062h-3.266l-1.906-.031-.89-.063h-.235q-.203 0-.5.297-1.11.969-3.14.969-.97 0-.97-.438v-.093q0-.375 2.313-4.36 2.328-3.984 5.157-8.875 2.843-4.906 3.64-6.718.797-1.813.797-3.11v-.375q0-.562 7.094-.562 2.344 0 4.062.062.5-.562 2.578-.562.86 0 .86.437 0 .766-1.516 3.078-1.515 2.313-2.64 3.157-.375.296-.938.296-.562 0-.562-.234 0-.11.093-.266.532-1.03.532-2.343 0-1.828-2.532-1.828-1.53 0-2.422.812-.875.797-1.75 2.234-.859 1.422-1.28 2.454-.407 1.03-.407 1.296 0 .797.781.985.781.187 3.11.187l2.468-.093q.328 0 .328.25t-.359.828q-.344.578-.703.812-.734.5-2.266.5zm7.161 11.235-.469-.032q-.453 0-.687.297-1.14.969-3.078.969-1 0-1-.438v-.093q0-.375 2.312-4.36 2.328-3.984 5.14-8.875 2.813-4.906 3.626-6.734.828-1.828.828-3.031v-.438q0-.86 3.562-.86 1.797 0 1.797.657 0 .266-.265.547-2.657 4.328-7.063 12.36l-.469.827q-.468.844-.672 1.188-.187.344-.609 1.203-.422.844-.61 1.375-.577 1.5-.577 2.344 0 1.219 2.203 1.219h.234q1.36 0 3-.563 3.203-1.125 5.203-4.328.125-.297.735-.297.625 0 .625.531 0 .797-1.063 2.875-1.062 2.063-1.937 3.063-.422.594-1.657.594-1.234.062-5.343.062l-3.766-.062zm17.43 0-.468-.032q-.453 0-.688.297-1.14.969-3.078.969-1 0-1-.438v-.093q0-.375 2.313-4.36 2.328-3.984 5.14-8.875 2.813-4.906 3.625-6.734.828-1.828.828-3.031v-.438q0-.86 3.563-.86 1.797 0 1.797.657 0 .266-.266.547-2.656 4.328-7.062 12.36l-.47.827q-.468.844-.671 1.188-.187.344-.61 1.203-.421.844-.609 1.375-.578 1.5-.578 2.344 0 1.219 2.203 1.219h.235q1.359 0 3-.563 3.203-1.125 5.203-4.328.125-.297.734-.297.625 0 .625.531 0 .797-1.062 2.875-1.063 2.063-1.938 3.063-.422.594-1.656.594-1.234.062-5.344.062l-3.765-.062zm36.694-18.204q0 1.875-.75 4.282-.75 2.39-2.22 4.89-1.452 2.5-3.374 4.625-1.922 2.11-4.547 3.47-2.61 1.343-5.39 1.343-2.782 0-4.376-1.547-1.593-1.563-1.593-4.297 0-1.86.734-4.25.75-2.406 2.219-4.906 1.468-2.5 3.375-4.594 1.922-2.11 4.531-3.453 2.625-1.36 5.406-1.36 2.797 0 4.39 1.532 1.595 1.531 1.595 4.265zm-3.922-.296q0-3.672-2.672-3.672-2.235 0-4.985 2.843-2.75 2.829-4.671 6.844-1.907 4.016-1.907 7.188 0 3.656 2.672 3.656 2.188 0 4.953-2.828 2.766-2.828 4.688-6.844 1.922-4.016 1.922-7.187z"/><defs><radialGradient id="b" gradientUnits="userSpaceOnUse" gradientTransform="scale(8.4508)" spreadMethod="pad" cx="38.004" cy="37.836" fx="38.004" fy="37.836" r="8.451"><stop offset="0" stop-color="#dcecd5"/><stop offset="1" stop-color="#93bc81"/></radialGradient></defs><path fill="url(#b)" d="M255.226 306.031h104.44v-13.716l27.434 27.433-27.433 27.433v-13.716H255.226z" fill-rule="evenodd"/><path stroke="#38761d" stroke-linejoin="round" stroke-linecap="butt" d="M255.226 306.031h104.44v-13.716l27.434 27.433-27.433 27.433v-13.716H255.226z"/><path fill="#c27ba0" d="M68.43 97.869c0 10.698 9.918 20.292 24.953 24.139v-5.11l14.008 15.85-14.008 12.388v-5.109c-15.035-3.846-24.953-13.44-24.953-24.139z" fill-rule="evenodd"/><path fill="#9b627f" d="M107.391 90.02c-16.284 0-30.85 6.724-36.521 16.859-4.443-7.94-2.75-16.822 4.532-23.777C82.684 76.147 94.634 72 107.392 72z" fill-rule="evenodd"/><path fill="none" d="M68.43 97.869c0 10.698 9.918 20.292 24.953 24.139v-5.11l14.008 15.85-14.008 12.388v-5.109c-15.035-3.846-24.953-13.44-24.953-24.139v-18.02C68.43 83.583 85.874 72 107.391 72v18.02c-16.284 0-30.85 6.724-36.521 16.859"/><path stroke="#741b47" stroke-linejoin="round" stroke-linecap="butt" d="M68.43 97.869c0 10.698 9.918 20.292 24.953 24.139v-5.11l14.008 15.85-14.008 12.388v-5.109c-15.035-3.846-24.953-13.44-24.953-24.139v-18.02C68.43 83.583 85.874 72 107.391 72v18.02c-16.284 0-30.85 6.724-36.521 16.859"/><path fill="#d5a6bd" d="M12.543 72h48.063v74.866H12.543z" fill-rule="evenodd"/><path stroke="#741b47" stroke-width="3" stroke-linejoin="round" stroke-linecap="butt" d="M12.543 72h48.063v74.866H12.543z"/><path fill="none" d="M8.417 79.62h56.315v67.244H8.417z"/><path fill="#a64d79" d="M19.464 99.948q-.39 0-.484-.437 0-.453.469-.875.468-.422.75-.532.28-.125 1.515-.156l.125-.14q4.953-5.735 6.985-5.735.156-.015.375-.015 1.437 0 1.437.859 0 .172-.234.656l-.735 1.438q-.5 1.015-.984 2.078-2.578 5.687-2.984 7.375 0 .422-.547.422t-1.125-.453q-.563-.438-.563-.86 0-.594.781-1.969.782-1.375.782-1.703 0-.218-1.844-.218-.313 0-.813.03l-.515.673q-1.11 1.468-2.11 3.656-.28.594-1.437.594-1.156 0-1.156-.578 0-.297 1.03-1.704 1.032-1.421 2.438-2.75.016.235-.359.266-.36.031-.562.063-.204.015-.235.015zm6.406-2.64q.563-.672.844-1.391.297-.719.328-.813.032-.109.032-.046-.36 0-1.407.968-1.047.969-1.875 1.938l1.047.015q.485 0 1.031-.671zm13.879-1.36 1.719-.047q.546 0 .546.469 0 .328-.437.86-.422.53-1.063.53l-4.703-.03-2.03.03q-.579 0-.579-.484 0-.328.422-.843.422-.532 1.078-.532l5.047.047zm-1.844 2.578 2.063-.031q.546 0 .546.469 0 .312-.437.844-.422.53-1.047.53l-4.703-.046-2.063.062q-.562 0-.562-.5 0-.328.422-.843.437-.516 1.078-.516l4.703.031zm9.914.11q.406 0 1.766-1.11-.25-.14-.063-.328.203-.187.688-.328.5-.156 1.328-.156.828 0 .828.547 0 .328-.766.797-.765.453-1.594.921-.812.454-1.437 1.047-.625.578-.625.969 0 .844.094 1.563.093.703.187.968l.11.36q0 .609-.594.609-1.781 0-1.781-.922v-.203q0-1.594-.079-1.594-.078 0-.609.547t-.922 1.125l-.422.61q-.437.546-1.484.546-.328 0-.61-.093-.28-.094-.343-.36v-.093q0-.391 1.5-1.72 1.515-1.343 2.39-2.03.344-.25.344-.672 0-.422-.062-.766-.047-.36-.125-.453-.078-.11-.172-.25-.078-.156-.078-.313 0-.453.64-.703.641-.25 1.016-.25t.547.078q.39.157.36.938-.032.781-.032.719zM25.933 121.976q-.75.688-1.953 1.125-1.188.438-2.313.438-1.11 0-1.562-.11-.453-.109-.5-.109-.078 0-.14.031-.563.532-1.516.532-.954 0-.954-.579 0-.28 1.141-2.234 1.14-1.953 2.484-4.297 1.344-2.344 1.72-3.172.374-.843.374-1.422v-.125q0-.765 2.813-.765 2.328 0 3.03.265.954.375 1.22 1.032.156.375.156.89 0 .844-.61 1.563-1.03 1.25-2.703 1.625-.515.125-.546.156-.016.016-.016-.031 0-.063.156.047.156.093.469.297.328.187.594.656.265.469.265 1.172t-.422 1.515q-.421.813-1.187 1.5zm-1.86-1.328q.438-.515.672-1.031.235-.531.235-.86 0-.328-.094-.546-.094-.22-.203-.297-.094-.094-.266-.156-.28-.11-.562-.11h-.156q-.532 0-.532-.484 0-.422.313-.906.328-.5.828-.5 1.172 0 2.094-.782.922-.781.922-1.593 0-.516-.797-.516-.766 0-1.047.312-.985 1.235-2.86 4.579-1.875 3.343-1.875 3.859 0 .078.141.172.156.094.766.094t1.297-.36q.703-.36 1.125-.875zm15.5-5.5 1.719-.047q.546 0 .546.469 0 .328-.437.86-.422.53-1.063.53l-4.703-.03-2.03.03q-.579 0-.579-.484 0-.328.422-.843.422-.532 1.078-.532l5.047.047zm-1.844 2.578 2.063-.031q.546 0 .546.469 0 .312-.437.844-.422.53-1.047.53l-4.703-.046-2.063.062q-.562 0-.562-.5 0-.328.422-.843.437-.516 1.078-.516l4.703.031zm10.555 1.547.015-.344q.063-.046.063.016-.094 0-.313.172-.89.781-1.89 1.828-1 1.047-1.329 1.516-.328.453-.468.593-.125.125-.657.329-.515.203-1.328.203-.812 0-.812-.532 0-.546 6.406-5.953.438-.36.469-.937.062-1.188.062-1.75 0-1.563-.25-2.328l-.093-.297q0-.64 1.5-.64.687 0 1.03.265.36.25.36.844 0 .593-.11 2.187-.03.125-.03.094.046 0 .156-.094 2.094-1.844 2.469-2.344.39-.5.718-.656.547-.219 1.485-.25h.265q1.11 0 1.11.578 0 .344-.39.563-2 1.14-5.329 3.859l-.188.125q-.078.063-.25.344-.156.265-.187.578-.125 2.016-.125 3.312 0 1.422.203 1.797.094.219.094.36 0 .5-.64.625-.641.14-1.188.14-.547 0-.75-.297-.203-.312-.203-.953 0-.656.125-2.953z"/><path fill="none" d="M255.226 303.811h172.787v31.874H255.226z"/><path fill="#38761d" d="m269.82 320.378-1.016-.047q-.766 0-1.172.5-.281.36-.766 1.172-.468.812-.468 1.297 0 .437.875.437.546 0 1.156-.203 1.234-.406 1.953-1.562.078-.094.281-.094t.203.234q0 .235-.39.985-.375.734-.672 1.109-.156.188-.61.203-.437.031-1.375.031h-1.171l-.688-.015-.312-.016h-.094q-.063 0-.172.11-.406.343-1.125.343-.36 0-.36-.156v-.031q0-.14.829-1.563.843-1.437 1.86-3.203 1.03-1.765 1.312-2.422.28-.656.28-1.125v-.125q0-.203 2.563-.203.844 0 1.47.016.171-.203.921-.203.312 0 .312.156 0 .281-.546 1.11-.547.827-.954 1.14-.14.11-.343.11t-.203-.094q0-.032.046-.094.188-.375.188-.844 0-.656-.922-.656-.547 0-.875.297-.312.28-.625.797-.297.515-.453.89-.156.375-.156.469 0 .281.281.36.281.062 1.125.062l.89-.047q.126 0 .126.094 0 .093-.125.312-.125.203-.266.281-.266.188-.813.188zm4.72.437q.407 0 1.392-1.062 0-.016.078-.094t.406-.172q.328-.11.797-.11.484 0 .484.173 0 .094-.515.406-.516.313-1.141.672-.625.344-1.14.828-.516.484-.516.89 0 .641.078 1.204.078.547.14.765l.079.235q0 .172-.204.172-1.078 0-1.078-.453v-.157q0-1.437-.234-1.437t-.672.453q-.437.453-.75.922l-.312.437q-.25.313-.922.313-.22 0-.328-.047-.125-.031-.141-.078v-.047q0-.172 1.078-1.125 1.094-.969 1.75-1.469.344-.265.344-.656 0-.39-.047-.688-.047-.312-.125-.406-.063-.11-.11-.172-.046-.078-.046-.125 0-.187.375-.328.39-.14.625-.14.234 0 .312.03.14.048.14.657 0 .61.204.61zm4.463-.859h.203q.203 0 .312-.203.11-.266.72-.25.608 0 .608.25 0 .047-.28.328-.266.266-.673.781-.39.5-.61 1.016-.015.078-.187.078-.156 0-.25-.14-.093-.157-.093-.329 0-.187.03-.312.048-.125.048-.188 0-.234-.25-.234-.703 0-1.25.797-.531.797-.531 1.469 0 .875.859.875.516 0 .89-.25.094-.063.172-.063.125 0 .125.125 0 .313-.562.719-.563.422-1.344.422-.781 0-1.078-.391-.297-.39-.297-.86 0-.484.25-1.077.266-.594.688-1.172.437-.594 1.11-.985.67-.406 1.39-.406zm1.986 5.063q-.688 0-1.016-.422-.328-.407-.328-1.016 0-.61.266-1.266.265-.671.719-1.296.468-.625 1.218-1.047.75-.422 1.61-.422.406 0 .61.25.202.234.202.578 0 .687-.5 1.297-.484.594-1.094.906-.593.313-1.062.36-.453.03-.61.171-.156.125-.156.532 0 .39.172.593.188.203.36.266.187.078.187.156 0 .156-.187.25-.172.11-.391.11zm2.11-4.344q0-.375-.329-.375-.484 0-1.062.672-.578.672-.578 1.218 0 .125.203.125.484 0 1.125-.5.64-.515.64-1.14zm4.651 2.125q-.234 0-.359-.219-.11-.234-.11-.453 0-.234.141-.516 0-.156-.125-.156-.469 0-1.062.563-.594.546-1.016 1.14-.406.594-.734 1.203-.203.36-.844.36-.328 0-.328-.157 0-.312 1.187-2.406 1.188-2.094 1.563-2.25.265-.125.594-.125.328 0 .328.14 0 .141-.282.532-.265.39-.265.5 0 .11.078.11.047 0 .266-.141.53-.39 1.296-.813l.11-.156q.297-.36.828-.36.547 0 .547.22-.016.062-.11.203-.953 1.28-1.593 2.703-.047.078-.11.078zm1.703 1.969q-.547 0-.625.109-.406.531-1.687 2.969-1.282 2.453-1.625 3.453-.047.14-.22.14-.187 0-.421-.265-.25-.25-.25-.563 0-.406 1.203-2.547 1.203-2.125 2.844-4.906 1.656-2.781 1.937-3.312.282-.547.282-.578.015-.032.093-.11.078-.094.172-.156.281-.188.735-.188.25 0 .25.157 0 .078-.329.593-.328.5-.328.625 0 .11.078.11.079 0 .313-.14.703-.454 1.312-.454.235 0 .422.203.203.188.203.625 0 .985-.578 1.969-.578.969-1.61 1.625-1.015.64-2.171.64zm3.094-3.61q0-.172-.078-.265-.063-.11-.172-.11-.438 0-.953.422-.516.406-.891.922t-.64.953q-.25.422-.25.547 0 .11.171.234.172.125.407.125.765 0 1.578-1.031.828-1.031.828-1.797zm7.146-4.5.578-.015q.125 0 .125.046 0 .047-.031.125-.016.063-.094.172-.078.11-.188.188-.296.234-.718.234t-.625.031q-.188.016-.344.11-.14.094-.188.14-.046.047-.171.25l-.157.266q-.64.875-2.062 3.344-1.422 2.453-1.766 3.797-.047.125-.234.125-.188 0-.516-.313-.312-.312-.312-.64 0-.313.968-1.922.985-1.61 1.97-3.157.984-1.562.984-1.734 0-.172-.141-.219-.14-.047-.5-.047h-.406q-.157 0-.157-.14t.141-.297q.14-.172.422-.281.281-.125.578-.25.297-.125.766-.532.468-.421.953-1.093.297-.407 1.031-.407.25 0 .25.157 0 .093-.547.875-.531.78-.531.984 0 .188.36.188.14.015.562.015zm2.383 3.36 1.375-.079q.14.016.14.125v.016q0 .281-.437.39-.234 0-.672.157-.437.156-.547.219-.312.156-.312.312 0 .14.328.36.125.078.234.296.11.22.11.547 0 .766-.735 2.203-.718 1.454-1.718 2.829-1 1.375-2.141 2.406-1.14 1.031-1.86 1.031-.203 0-.312-.094-.11-.093-.125-.187-.016-.094-.016-.266 0-.719 1.25-3.297 1.25-2.578 3.204-5.843.03-.047.03-.094 0-.281-.624-.281-.11 0-.11-.125 0-.204.438-.47.125-.093.406-.093h.203q.25 0 .313-.094 1.36-2.437 2.719-4.156 1.359-1.719 2.14-1.719.485 0 .485.61 0 .78-.579 1.812-.578 1.016-1.343 1.735-.75.703-1.266.703-.14 0-.14-.078 0-.11.156-.22.672-.437 1.281-1.405.61-.985.61-1.391 0-.125-.094-.125-.454 0-1.625 1.75-1.157 1.734-1.157 2.234 0 .282.391.282zm-1.516 1.64q-.125 0-.265.203-1.172 2.016-2.047 3.953-.875 1.938-.875 2.579 0 .25.172.25.218 0 .797-.625.578-.61 1.187-1.485.61-.875 1.078-1.969.485-1.093.485-1.89 0-1.016-.532-1.016zm6.21 1.14q-.234 0-.359-.218-.11-.234-.11-.453 0-.234.141-.516 0-.156-.125-.156-.468 0-1.062.563-.594.546-1.016 1.14-.406.594-.734 1.203-.203.36-.844.36-.328 0-.328-.157 0-.312 1.188-2.406 1.187-2.094 1.562-2.25.266-.125.594-.125.328 0 .328.14 0 .141-.281.532-.266.39-.266.5 0 .11.078.11.047 0 .266-.141.531-.39 1.297-.813l.109-.156q.297-.36.828-.36.547 0 .547.22-.016.062-.11.203-.952 1.28-1.593 2.703-.047.078-.11.078zm1.255 1.688q-.281-.125-.453-.453-.172-.344-.172-.844 0-.765.5-1.609t1.407-1.437q.906-.594 1.906-.594.469 0 .781.25.313.25.313.5 0 .234-.079.39-.062.141-.062.188 0 .14.219.14.234 0 .359-.062.125-.062.14-.062.094 0 .094.25t-.234.578q-.234.328-.594.484-.047.094-.14.266-.078.172-.391.609-.312.422-.672.75-.344.328-.922.594-.578.281-1.062.281-.485 0-.938-.219zm2.672-2.062q0-.094-.11-.094-.155 0-.359.078-.187.063-.203.063-.078 0-.078-.11 0-.468.328-.797.14-.156.39-.25.25-.109.392-.234.14-.14.14-.484 0-.407-.437-.407-.766 0-1.47 1.094-.687 1.078-.687 1.938 0 .28.188.484.203.203.484.203.625 0 1.016-.515.406-.532.406-.97zm7.934 2.5q-.203 0-.312-.25-.11-.235-.11-.406 0-.641.97-2.188.327-.531.327-.703 0-.188-.171-.188-.438 0-1.157.688-.718.672-1.218 1.344l-.516.672q-.203.296-.625.296t-.422-.156q0-.25.578-1.203.578-.953.578-1.266 0-.109-.062-.156-.047-.047-.094-.047-.39 0-.86.313-.468.297-.874.734-.797.875-1.297 1.64l-.188.298q-.25.359-.922.359-.296 0-.296-.156 0-.328 1.234-2.516 1.234-2.203 1.61-2.344.202-.125.562-.125.36 0 .36.125 0 .11-.423.735-.406.61-.406.812.031.078.11.078.093 0 .187-.078.094-.093.312-.265.22-.188.797-.485.578-.312 1.047-.312.485 0 .485.406 0 .281-.125.531-.125.235-.125.282 0 .093.093.093.11 0 .203-.11.172-.171.47-.437.296-.265.984-.703.687-.437 1.125-.437.593 0 .593.515 0 .422-.312 1-.313.563-.422.766-.094.203-.438.75-.343.547-.468.75-.125.203-.328.61-.204.39-.313.562-.094.172-.14.172zm7.24-6.797q-.046.078-.109.078-.046 0-.093-.094-.157-.343-.157-.812 0-1.375.97-1.375.421 0 .421.297 0 .14-.125.328l-.906 1.578zm1.849 0q-.047.078-.11.078-.046 0-.093-.094-.157-.343-.157-.812 0-1.375.97-1.375.421 0 .421.297 0 .14-.125.328l-.906 1.578zm1.672 0q-.047.078-.11.078-.047 0-.093-.094-.157-.343-.157-.812 0-1.375.985-1.375.406 0 .406.297 0 .14-.11.328l-.921 1.578zm7.043-2.36q.172 0 .172.235 0 .234-.469 1.094-.468.843-.78 1.28-.188.298-.454.298-.25 0-.25-.172l.016-.11q.156-.593.156-1 0-.624-.344-.624-.14 0-.281.109-.14.094-.219.203l-.078.11q-.156.28-2.016 3.437-.421.719-.875 1.64-.437.907-.718 1.438-.266.516-.547.734-.281.235-.906.235-.61 0-.61-.219v-.031q0-.125.64-1.125 2.345-3.688 3.532-6.031.11-.204.11-.313 0-.156-.204-.156-.656 0-2.015 1.5-.125.234-.61.234-.11 0-.11-.11 0-.077.157-.343l.235-.437q1.062-1.844 1.39-1.844.625 0 .938.234.828-.015 1.53-.015.72 0 1.423.015.594-.265 1.187-.265zm1.905 4.126q.516 0 .516.609 0 .594-.422 1.5-.61 1.281-1.39 2.219-.376.453-.938.453-.172 0-.172-.11l.047-.125q.562-.828 1-1.703.437-.89.437-1.281 0-.078-.047-.125t-.14-.062q-.485 0-1.329.812-.828.797-1.437 1.625-.61.813-.781 1.125-.172.313-.36.375-.172.078-.578.078-.406 0-.406-.156 0-.047.11-.234.109-.172.859-1.61.75-1.437 1.578-2.922.844-1.5 1.828-3.062 1-1.563 1.984-2.547 1-1 1.735-1 .562 0 .562.672 0 1.265-1.172 2.719-1.156 1.453-2.109 1.89-.219.094-.453.094-.235 0-.235-.094l.079-.125q1.171-.812 1.859-1.875.687-1.078.687-1.515 0-.141-.03-.188-.032-.062-.173-.062-.422 0-1.406 1.406t-1.766 2.89q-.765 1.485-.765 1.813 0 .14.078.14.094 0 .25-.124.187-.172.469-.422.281-.25.937-.657.672-.421 1.094-.421zm1.725 5.125q-.687 0-1.015-.422-.328-.407-.328-1.016 0-.61.265-1.266.266-.671.719-1.296.469-.625 1.219-1.047.75-.422 1.61-.422.405 0 .608.25.204.234.204.578 0 .687-.5 1.297-.485.594-1.094.906-.594.313-1.063.36-.453.03-.609.171-.156.125-.156.532 0 .39.172.593.187.203.359.266.187.078.187.156 0 .156-.187.25-.172.11-.39.11zm2.11-4.344q0-.375-.328-.375-.485 0-1.063.672t-.578 1.218q0 .125.203.125.484 0 1.125-.5.64-.515.64-1.14zm6.812-4.281v-.157q0-.312 1.297-.312.64 0 .64.234 0 .094-.093.188-.454.625-1.938 3.156l1.484.016q.485 0 .891-.391.203-.219.36-.406.171-.188.374-.532.204-.343.329-.562.171-.297.593-1.14 0-.063.078-.157.094-.094.22-.156.124-.063.39-.11.265-.046.625-.046t.36.156q0 .062-.063.156-.047.094-.625.969-.563.875-1.141 1.828-.562.937-1.219 2.047-.64 1.094-1.047 2.015-.39.907-.39 1.329-.078.203-.297.203-.672 0-.922-.11t-.25-.328q0-.375.797-1.734.797-1.375.797-1.672 0-.297-.235-.438-.234-.14-.812-.14-.563 0-.766.015-.406.657-.937 1.688t-.89 1.703q-.36.656-.579.813-.437.343-1.094.343-.375 0-.375-.187 0-.11.313-.64.328-.548 1.031-1.688.719-1.141 1.234-2.016l-.734.047q-.187 0-.187-.11 0-.203.25-.406.265-.203.437-.25.172-.062.703-.093.438-.75 1.14-2.094.25-.578.25-1.031zm2.995 8.093q-.282-.125-.454-.453-.171-.344-.171-.844 0-.765.5-1.609t1.406-1.437q.906-.594 1.906-.594.469 0 .781.25.313.25.313.5 0 .234-.078.39-.063.141-.063.188 0 .14.219.14.234 0 .36-.062.124-.062.14-.062.094 0 .094.25t-.235.578q-.234.328-.593.484-.047.094-.141.266-.078.172-.39.609-.313.422-.673.75-.343.328-.921.594-.579.281-1.063.281t-.937-.219zm2.671-2.062q0-.094-.109-.094-.156 0-.36.078-.187.063-.202.063-.079 0-.079-.11 0-.468.329-.797.14-.156.39-.25.25-.109.39-.234.141-.14.141-.484 0-.407-.437-.407-.766 0-1.469 1.094-.687 1.078-.687 1.938 0 .28.187.484.203.203.485.203.625 0 1.015-.515.406-.532.406-.97zm3.43 2.187q-.312 0-.61-.11-.296-.093-.343-.093-.125 0-.313.266-.234.39-.906.39-.39 0-.39-.187l.015-.063q5.828-10.078 5.938-10.296.28-.532 1.343-.532.36 0 .36.188 0 .11-.563.89-2.11 2.86-3.25 5.079-.031.046-.031.125 0 .109.094.109.11 0 .328-.172.656-.484 1.328-.484.719 0 .719.875 0 .468-.297 1.14-.281.657-.766 1.313-.484.64-1.203 1.11-.719.452-1.453.452zm.422-.687q.672 0 1.36-1.078.702-1.078.702-1.813 0-.328-.265-.328-.406 0-1.031.547-.625.547-1.094 1.156-.453.61-.453.844l.047.187q.046.11.234.297.203.188.5.188zm4.546.687q-.312 0-.61-.11-.296-.093-.343-.093-.125 0-.313.266-.234.39-.906.39-.39 0-.39-.187l.015-.063q5.828-10.078 5.938-10.296.28-.532 1.343-.532.36 0 .36.188 0 .11-.563.89-2.11 2.86-3.25 5.079-.031.046-.031.125 0 .109.094.109.11 0 .328-.172.656-.484 1.328-.484.719 0 .719.875 0 .468-.297 1.14-.281.657-.766 1.313-.484.64-1.203 1.11-.719.452-1.453.452zm.422-.687q.672 0 1.36-1.078.702-1.078.702-1.813 0-.328-.265-.328-.406 0-1.031.547-.625.547-1.094 1.156-.453.61-.453.844l.047.187q.046.11.234.297.203.188.5.188zm3.193 1.015q-.156 0-.375-.218-.203-.203-.203-.5 0-.172.78-1.703.798-1.532.83-2.063 0-.172.202-.312.39-.235 1.14-.235.157 0 .313.063.157.047.157.14 0 .063-.032.094-.453.578-1.328 2.078t-1.328 2.438q-.062.218-.156.218zm2.625-5.703q-.516 0-.547-.422 0-.359.344-.593.36-.235.718-.235.532 0 .547.422 0 .36-.343.594-.344.234-.72.234zm5.414-2.578.578-.015q.125 0 .125.046 0 .047-.03.125-.016.063-.095.172-.078.11-.187.188-.297.234-.719.234t-.625.031q-.187.016-.344.11-.14.094-.187.14-.047.047-.172.25l-.156.266q-.64.875-2.063 3.344-1.422 2.453-1.765 3.797-.047.125-.235.125-.187 0-.515-.313-.313-.312-.313-.64 0-.313.969-1.922.984-1.61 1.969-3.157.984-1.562.984-1.734 0-.172-.14-.219-.141-.047-.5-.047h-.407q-.156 0-.156-.14t.14-.297q.141-.172.422-.281.282-.125.579-.25.296-.125.765-.532.469-.421.953-1.093.297-.407 1.032-.407.25 0 .25.157 0 .093-.547.875-.532.78-.532.984 0 .188.36.188.14.015.562.015zm2.333-.25q.265-.453.781-.453t.516.375q0 .36-.89 1.125-.876.75-1.22.75-.14 0-.14-.11 0-.015.406-.734.422-.718.547-.953zm-1.735 0q.266-.453.782-.453.515 0 .515.375 0 .36-.89 1.125-.875.75-1.235.75-.125 0-.125-.11 0-.03.953-1.687z"/><path fill="none" d="M387.1 296.241h418.645v117.134H387.1z"/><path fill="#38761d" d="M397.631 326.815q-.297 0-.656-.375-.36-.375-.36-.906 0-.297 1.391-3.016 1.406-2.718 1.437-3.687 0-.297.391-.547.688-.406 2.031-.406.25 0 .532.093.296.094.296.266 0 .078-.062.14-.813 1.032-2.375 3.704-1.547 2.656-2.344 4.328-.11.406-.281.406zm4.672-10.14q-.938 0-.985-.75v-.016q0-.64.625-1.047.641-.406 1.266-.406.938 0 .969.75 0 .64-.625 1.062-.61.407-1.25.407zm4.268 9.968q-.593 0-.593-.28l.047-.126q1.265-1.922 2.187-3.703.922-1.781.922-2.313 0-.171-.094-.265-.078-.094-.25-.125-.828 0-2.234 1.078-1.39 1.062-2.453 2.187-1.047 1.125-1.563 1.844-.515.719-1.531.719-.563 0-.563-.281 0-.547 2.094-3.907 2.094-3.359 2.766-3.625.375-.203.937-.203.563 0 .563.22 0 .218-.516.968-.5.75-.5.969.031.156.172.156.14 0 .25-.078 3.156-2.453 5.031-2.453.782 0 .782.921 0 .594-.891 2.579-.875 1.984-2.234 3.859-1.344 1.86-2.329 1.86zm14.098-6.297q-.14 0-.188-.187 0-.36.5-.828.516-.485.829-.61.312-.125 2.062-.171l.297-.329q6.484-7.5 9-7.5.219-.015.484-.015 1.485 0 1.485.703 0 .125-.282.687l-.968 1.922q-.672 1.36-1.313 2.766-3.453 7.61-4.015 9.984 0 .172-.438.172-.437 0-1.062-.484-.61-.485-.61-.844 0-.656 1.047-2.484 1.047-1.844 1.047-2.39 0-.75-2.906-.75-.422 0-1.328.046l-.797 1.062q-1.5 2-2.86 4.97-.234.53-1.437.53-1.188 0-1.188-.343 0-.235 1.328-2.047 1.329-1.828 3.172-4.047l-.812.078q-.485.047-.766.078-.265.031-.281.031zm8.844-2.75q.843-1 1.25-2.015.422-1.031.422-1.39 0-.376-.36-.376-.64 0-2.125 1.36-1.469 1.359-3.187 3.375l2.328.046q.844 0 1.672-1zm16.574-6v-.265q0-.563 2.281-.563 1.156 0 1.156.422 0 .172-.172.344-.812 1.11-3.453 5.61l2.64.03q.876 0 1.61-.703.36-.39.64-.718.298-.328.657-.938.36-.625.578-1 .297-.531 1.047-2.047 0-.109.156-.265.157-.157.375-.266.235-.125.704-.203.468-.094 1.109-.094.64 0 .64.281 0 .125-.093.282-.094.156-1.11 1.718-1.015 1.563-2.046 3.235-1.016 1.672-2.157 3.64-1.14 1.954-1.86 3.579-.718 1.625-.718 2.359-.125.375-.531.375-1.172 0-1.625-.203-.438-.188-.438-.563 0-.672 1.407-3.093 1.422-2.438 1.422-2.954 0-.53-.422-.78-.422-.266-1.438-.266-1 0-1.375.03-.734 1.173-1.672 3.016-.937 1.829-1.578 3-.64 1.172-1.015 1.47-.797.593-1.938.593-.672 0-.672-.344 0-.187.563-1.14.578-.954 1.828-2.985 1.265-2.031 2.172-3.578l-1.297.078q-.313 0-.313-.172 0-.375.453-.734.454-.36.75-.469.313-.11 1.25-.14.782-1.344 2.016-3.735.469-1.031.469-1.844zm20.615 2.625q0 1.204-.485 2.735-.484 1.531-1.422 3.14-.937 1.594-2.172 2.954-1.218 1.343-2.89 2.218-1.672.86-3.453.86-1.782 0-2.813-.985-1.015-1-1.015-2.75 0-1.187.468-2.718.485-1.547 1.422-3.141.938-1.61 2.156-2.953 1.235-1.344 2.907-2.203 1.687-.86 3.468-.86 1.782 0 2.797.985 1.032.968 1.032 2.718zm-2.516-.187q0-2.344-1.719-2.344-1.422 0-3.187 1.813-1.75 1.812-2.985 4.39-1.218 2.563-1.218 4.594 0 2.344 1.703 2.344 1.406 0 3.172-1.813 1.78-1.812 3-4.375 1.234-2.578 1.234-4.609zm-.35 12.484q0-.843.703-2.64.704-1.797 1.579-3.5.875-1.719 2.375-4.219 2.218-3.688 4.562-7.313.36-.578 1.125-.937.766-.36 1.375-.36.625 0 .656.344 0 .11-.125.235-.734.656-2.437 3.062-1.703 2.39-3.625 5.485-1.906 3.093-3.344 6.53-1.437 3.438-1.437 5.61 0 .313-.188.313-.36 0-.625-.266-.25-.266-.36-.672-.234-.812-.234-1.672zm6.574.422q-1.234 0-1.813-.734-.578-.735-.578-1.813 0-1.078.47-2.265.468-1.188 1.28-2.297.828-1.11 2.157-1.86 1.343-.765 2.875-.765.703 0 1.062.437.36.438.36 1.047 0 1.235-.876 2.297-.859 1.063-1.937 1.625-1.063.547-1.89.625-.813.078-1.094.313-.282.234-.282.937 0 .703.313 1.063.328.359.64.484.329.14.329.266 0 .296-.329.468-.312.172-.687.172zm3.75-7.719q0-.671-.594-.671-.86 0-1.89 1.203-1.032 1.187-1.032 2.156 0 .234.36.234.875 0 2.015-.89 1.141-.907 1.141-2.032zm11.745 5.438q0 .422.047.64.063.204.063.313 0 .5-2.079.5-2.078 0-2.078-.5l.125-.25q.735-.437 2.907-3.953 2.171-3.531 4.421-7.969.47-.937.47-1.781v-.328q0-.563 2.28-.563 1.141 0 1.141.422 0 .172-.172.344-1.437 1.875-4.281 7.031-2.844 5.156-2.844 6.094zm7.878 1.984q-.594 0-.594-.28l.047-.126q1.265-1.922 2.187-3.703.922-1.781.922-2.313 0-.171-.094-.265-.078-.094-.25-.125-.828 0-2.234 1.078-1.39 1.062-2.453 2.187-1.047 1.125-1.563 1.844-.515.719-1.53.719-.563 0-.563-.281 0-.547 2.093-3.907 2.094-3.359 2.766-3.625.375-.203.937-.203.563 0 .563.22 0 .218-.516.968-.5.75-.5.969.032.156.172.156.14 0 .25-.078 3.156-2.453 5.031-2.453.782 0 .782.921 0 .594-.89 2.579-.876 1.984-2.235 3.859-1.344 1.86-2.328 1.86zm23.44-14.547 1.048-.046q.203 0 .203.093 0 .078-.047.203-.031.125-.172.329-.14.187-.328.328-.516.406-1.281.406-.75 0-1.11.047-.343.047-.609.219-.25.171-.328.265-.078.078-.297.422-.219.328-.297.453-1.14 1.578-3.672 5.953-2.515 4.375-3.14 6.766-.063.219-.391.219t-.906-.563q-.578-.547-.578-1.125t1.734-3.437q1.75-2.86 3.5-5.61 1.75-2.765 1.75-3.078 0-.312-.266-.39-.25-.079-.89-.079h-.703q-.282 0-.282-.25t.25-.53q.25-.298.75-.5.5-.22 1.016-.438.531-.219 1.36-.953.843-.75 1.703-1.922.53-.735 1.828-.735.453 0 .453.282 0 .171-.969 1.562-.953 1.375-.953 1.734 0 .344.64.344.266.031.985.031zm2.792 5.735q.922 0 .922 1.062 0 1.063-.75 2.688-1.094 2.281-2.469 3.953-.671.781-1.671.781-.313 0-.313-.172l.078-.234q1-1.469 1.781-3.031.782-1.578.782-2.282 0-.125-.078-.203-.079-.093-.235-.109-.875 0-2.36 1.437-1.484 1.422-2.562 2.875-1.078 1.438-1.39 2-.313.579-.64.688-.313.125-1.032.125-.719 0-.719-.266 0-.078.203-.406.203-.312 1.531-2.875 1.329-2.562 2.813-5.203 1.484-2.656 3.234-5.422 1.766-2.781 3.516-4.547 1.766-1.765 3.078-1.765 1 0 1 1.187 0 2.25-2.062 4.844-2.063 2.578-3.766 3.36-.375.171-.797.171-.422 0-.422-.187l.125-.22q2.094-1.452 3.313-3.343 1.234-1.906 1.234-2.672 0-.25-.062-.344-.063-.109-.297-.109-.766 0-2.516 2.5-1.734 2.5-3.125 5.14-1.375 2.641-1.375 3.22 0 .234.156.234.157 0 .438-.203.328-.313.828-.75.5-.453 1.672-1.188 1.187-.734 1.937-.734zm9.982.86-1.813-.079q-1.343 0-2.062.875-.516.64-1.36 2.094-.843 1.453-.843 2.312 0 .782 1.562.782.953 0 2.047-.36 2.188-.734 3.469-2.781.156-.188.516-.188.359 0 .359.422 0 .407-.688 1.735-.671 1.328-1.203 1.984-.281.344-1.078.375-.797.047-2.437.047h-2.094l-1.219-.016-.578-.047h-.156q-.125 0-.313.188-.703.625-2 .625-.625 0-.625-.281v-.063q0-.234 1.485-2.781 1.484-2.547 3.297-5.672 1.812-3.14 2.312-4.297.516-1.172.516-2v-.234q0-.375 4.547-.375 1.5 0 2.609.047.312-.36 1.64-.36.547 0 .547.282 0 .484-.968 1.968-.97 1.485-1.688 2.016-.234.187-.61.187-.359 0-.359-.14 0-.063.063-.172.344-.672.344-1.5 0-1.172-1.625-1.172-.97 0-1.547.516-.563.515-1.125 1.437-.547.906-.813 1.578-.265.657-.265.828 0 .5.5.625.5.11 2 .11l1.578-.063q.219 0 .219.172 0 .156-.235.531-.219.375-.453.516-.469.328-1.453.328zm7.29 17.765q.921 0 2.89-2.969 1.984-2.953 3.516-5.89 1.53-2.938 1.53-3.25 0-.313-.171-.313-.172 0-.578.328-.406.328-.86.734-.453.407-1.171.735-.72.344-1.422.344-.875 0-.875-1.313 0-1.031.578-2.344.578-1.312 1.578-2.53 1-1.235 2.625-2.063 1.625-.844 3.484-.844.47 0 1.016.172 1.11.343 1.11 1.234 0 .64-.36.64-.11 0-.36-.14-.765-.516-2.374-.516-1.594 0-3.11 1.594-1.5 1.578-1.5 3.094 0 .531.453.531.688 0 1.89-.969 1.204-.968 2.392-2.859.062-.297.984-.297.922 0 .922.313 0 .234-1.485 3.062-1.484 2.828-2.515 4.64-1.016 1.829-2.453 4.048-1.438 2.218-2.72 3.812-1.28 1.61-2.655 2.703-1.39 1.094-2.485 1.094-.89 0-.89-1.5 0-1.484.875-3.312.875-1.813 2.093-3.344 1.22-1.516 2.61-2.594 1.39-1.062 2.328-1.062h.062q.25 0 .25.14 0 .156-.25.297-.812.39-2.062 1.781-1.234 1.407-2.25 3.22-1.016 1.812-1.016 3.046v.031q0 .516.375.516zm21.57-11.375.046.64q0 .344-1.03.344-1.798 0-1.798-.687 0-.688.953-2.938.954-2.265.954-2.812 0-1.14-1.391-1.14l-.344.03q-.25 0-.25-.203 0-.406.313-.812.312-.422.78-.422 1.938 0 3.47-1.14 1.53-1.157 1.53-2.438 0-.922-.562-1.282-.562-.359-1.546-.359-.985 0-1.485.594-1.265 1.578-4.047 6.61-2.781 5.015-3.125 6.171-.187.531-1 .781-.797.25-1.547.25-.75 0-.75-.297v-.03q0-.235 1.47-2.735 1.468-2.5 3.25-5.563 1.78-3.062 2.296-4.234.531-1.172.531-1.984v-.204q0-.578 3.235-.578 3.484 0 4.593.703.47.297.797.875.328.579.328 1.47 0 .89-.734 1.812-.719.922-1.547 1.36-.812.437-1.625.624-.812.188-1.219.328-.406.125-.406.406 0 .157.313.407.312.25.625.593.328.344.328.735 0 .375-.703 2.203-.703 1.812-.703 2.922zm17.408-10.86q0 1.204-.485 2.735-.484 1.531-1.422 3.14-.937 1.594-2.171 2.954-1.22 1.343-2.891 2.218-1.672.86-3.453.86t-2.813-.985q-1.015-1-1.015-2.75 0-1.187.468-2.718.485-1.547 1.422-3.141.938-1.61 2.157-2.953 1.234-1.344 2.906-2.203 1.687-.86 3.469-.86 1.78 0 2.796.985 1.032.968 1.032 2.718zm-2.516-.187q0-2.344-1.719-2.344-1.422 0-3.187 1.813-1.75 1.812-2.985 4.39-1.218 2.563-1.218 4.594 0 2.344 1.703 2.344 1.406 0 3.172-1.813 1.78-1.812 3-4.375 1.234-2.578 1.234-4.609zm5.715 9.766q0-.141-.11-.141h-.047l-.312.14q-1.39 1.344-2.266 1.844-.875.5-1.812.5-.422 0-.766-.25-.344-.25-.344-.968 0-.735.75-2.563.75-1.844 1.844-3.516 1.11-1.671 1.953-1.89.266-.078.735-.078.484 0 .484.25 0 .078-.781 1.187-.766 1.094-1.532 2.5-.75 1.406-.75 2.11 0 .703.5.703.907 0 2.094-1.188 1.203-1.203 3.14-3.781.548-.766 1.72-.766.64 0 .64.25 0 .078-.062.172-3.36 5.172-4.032 7.406-.093.25-.218.25h-.063q-.86 0-.86-1.359l.095-.812zm9.36 1.437q0-.937.687-4.75.704-3.828.704-4.219 0-.406-.235-.406-.219 0-.61.453-.374.453-.64.875l-.265.453q-1.72 2.782-3.86 7.391-.437.937-.828 1.203-.375.281-1.094.281-.703 0-.703-.328v-.062q0-.282 1.078-2.032 4.157-6.671 6.078-10.546.5-.985.5-1.782v-.343q0-.141.11-.297.125-.172.734-.344.625-.188 1.719-.188 1.64 0 1.64.625 0 .188-.874 4.141-.875 3.938-.875 4.766 0 .812.171.812.25 0 .516-.265.281-.282.438-.547l.156-.266q1.36-2.25 2.437-4.453 1.094-2.203 1.61-3.25.515-1.047.89-1.328.563-.313 1.407-.313.859 0 .859.25v.047q0 .14-1.14 1.797-1.126 1.64-3 4.61-1.86 2.968-3.235 5.687-.61 1.39-.61 2.219 0 .25-.093.39-.094.125-.656.235-.563.125-1.157.125h-.687q-.235 0-.578-.11-.594-.172-.594-.53zm10.227-2.047q1.14-1.015 1.985-2.125.859-1.125.859-1.406 0-.297-.266-.484-.25-.188-.78-.188-1.235 0-2.61 1.688-1.36 1.671-1.36 2.875 0 .64.453.64.594 0 1.72-1zm1.219 3.078h-.031q-1.032 0-1.032-1.14l.047-.438-.156-.203q-.125 0-.312.14-1.844 1.782-3.22 1.782-.437 0-.796-.344-.344-.328-.344-1.14 0-1.61 1.406-3.72 2.22-3.359 5.594-3.359.469 0 .86.141.406.14.5.14.093 0 .343-.327.266-.329 1.641-2.704 3.219-5.484 3.781-6.609.469-.937 2.36-.937.578 0 .578.343 0 .125-.907 1.328-.906 1.188-2.578 3.641-1.672 2.453-3.093 5.031-3.704 5.891-4.407 8.125-.078.25-.234.25zm25.103-15.75q.297 0 .297.422 0 .406-.828 1.922t-1.39 2.281q-.329.516-.798.516-.453 0-.453-.297l.016-.203q.281-1.047.281-1.766 0-1.109-.594-1.109-.265 0-.515.187-.25.172-.375.375l-.141.188q-.297.484-3.594 6.094-.75 1.281-1.547 2.922-.78 1.625-1.28 2.562-.485.922-.985 1.313-.485.39-1.578.39-1.094 0-1.094-.36v-.062q0-.218 1.125-2 4.156-6.547 6.297-10.718.187-.375.187-.547 0-.282-.36-.282-1.171 0-3.593 2.641-.234.438-1.078.438-.188 0-.188-.204 0-.14.266-.609l.438-.766q1.875-3.296 2.453-3.296 1.11 0 1.656.437 1.5-.047 2.75-.047 1.266 0 2.5.047 1.062-.469 2.125-.469zm1.087 1.078v-.265q0-.563 2.28-.563 1.157 0 1.157.422 0 .172-.172.344-.812 1.11-3.453 5.61l2.64.03q.876 0 1.61-.703.36-.39.64-.718.298-.328.657-.938.36-.625.578-1 .297-.531 1.047-2.047 0-.109.156-.265.157-.157.375-.266.235-.125.703-.203.47-.094 1.11-.094.64 0 .64.281 0 .125-.093.282-.094.156-1.11 1.718-1.015 1.563-2.047 3.235-1.015 1.672-2.156 3.64-1.14 1.954-1.86 3.579-.718 1.625-.718 2.359-.125.375-.531.375-1.172 0-1.625-.203-.438-.188-.438-.563 0-.672 1.407-3.093 1.421-2.438 1.421-2.954 0-.53-.421-.78-.422-.266-1.438-.266-1 0-1.375.03-.734 1.173-1.672 3.016-.937 1.829-1.578 3-.64 1.172-1.016 1.47-.796.593-1.937.593-.672 0-.672-.344 0-.187.563-1.14.578-.954 1.828-2.985 1.265-2.031 2.172-3.578l-1.297.078q-.313 0-.313-.172 0-.375.453-.734.453-.36.75-.469.313-.11 1.25-.14.782-1.344 2.016-3.735.469-1.031.469-1.844zm7.068 15.344q-1.234 0-1.812-.734-.578-.735-.578-1.813 0-1.078.468-2.265.47-1.188 1.282-2.297.828-1.11 2.156-1.86 1.344-.765 2.875-.765.703 0 1.062.437.36.438.36 1.047 0 1.235-.875 2.297-.86 1.063-1.938 1.625-1.062.547-1.89.625-.813.078-1.094.313-.281.234-.281.937 0 .703.312 1.063.328.359.64.484.329.14.329.266 0 .296-.328.468-.313.172-.688.172zm3.75-7.719q0-.671-.594-.671-.859 0-1.89 1.203-1.031 1.187-1.031 2.156 0 .234.359.234.875 0 2.016-.89 1.14-.907 1.14-2.032zm10.88 5.86.047.64q0 .344-1.032.344-1.796 0-1.796-.687 0-.688.953-2.938.953-2.265.953-2.812 0-1.14-1.39-1.14l-.345.03q-.25 0-.25-.203 0-.406.313-.812.312-.422.781-.422 1.938 0 3.469-1.14 1.531-1.157 1.531-2.438 0-.922-.562-1.282-.563-.359-1.547-.359-.985 0-1.485.594-1.265 1.578-4.046 6.61-2.782 5.015-3.125 6.171-.188.531-1 .781-.797.25-1.547.25-.75 0-.75-.297v-.03q0-.235 1.468-2.735 1.47-2.5 3.25-5.563 1.782-3.062 2.297-4.234.532-1.172.532-1.984v-.204q0-.578 3.234-.578 3.484 0 4.594.703.468.297.797.875.328.579.328 1.47 0 .89-.735 1.812-.718.922-1.547 1.36-.812.437-1.625.624-.812.188-1.218.328-.407.125-.407.406 0 .157.313.407.312.25.625.593.328.344.328.735 0 .375-.703 2.203-.703 1.812-.703 2.922zm11.195-6.39-1.813-.079q-1.344 0-2.062.875-.516.64-1.36 2.094-.844 1.453-.844 2.312 0 .782 1.563.782.953 0 2.047-.36 2.187-.734 3.469-2.781.156-.188.515-.188.36 0 .36.422 0 .407-.688 1.735-.672 1.328-1.203 1.984-.281.344-1.078.375-.797.047-2.438.047h-2.093l-1.22-.016-.577-.047h-.157q-.125 0-.312.188-.703.625-2 .625-.625 0-.625-.281v-.063q0-.234 1.484-2.781 1.485-2.547 3.297-5.672 1.813-3.14 2.313-4.297.515-1.172.515-2v-.234q0-.375 4.547-.375 1.5 0 2.61.047.312-.36 1.64-.36.547 0 .547.282 0 .484-.969 1.968-.968 1.485-1.687 2.016-.235.187-.61.187-.359 0-.359-.14 0-.063.063-.172.343-.672.343-1.5 0-1.172-1.625-1.172-.968 0-1.547.516-.562.515-1.125 1.437-.546.906-.812 1.578-.266.657-.266.828 0 .5.5.625.5.11 2 .11l1.578-.063q.22 0 .22.172 0 .156-.235.531-.219.375-.453.516-.47.328-1.453.328zm12.258 7.187-.297-.032q-.297 0-.438.188-.734.625-1.968.625-.641 0-.641-.281v-.063q0-.234 1.484-2.781 1.485-2.547 3.282-5.672 1.812-3.14 2.328-4.312.515-1.172.515-1.954v-.265q0-.563 2.297-.563 1.14 0 1.14.422 0 .172-.171.344-1.703 2.781-4.516 7.922l-.297.531q-.296.531-.437.766-.125.218-.39.765-.266.532-.391.875-.36.953-.36 1.5 0 .782 1.407.782h.14q.875 0 1.922-.36 2.047-.734 3.328-2.781.094-.188.485-.188.39 0 .39.344 0 .516-.687 1.844-.672 1.312-1.235 1.953-.265.39-1.062.39-.781.032-3.406.032l-2.422-.031zm9.003.937q-.297 0-.657-.375-.359-.375-.359-.906 0-.297 1.39-3.016 1.407-2.718 1.438-3.687 0-.297.39-.547.688-.406 2.032-.406.25 0 .531.093.297.094.297.266 0 .078-.062.14-.813 1.032-2.375 3.704-1.547 2.656-2.344 4.328-.11.406-.281.406zm4.672-10.14q-.938 0-.985-.75v-.016q0-.64.625-1.047.64-.406 1.266-.406.937 0 .969.75 0 .64-.625 1.062-.61.407-1.25.407zm-.122 9.984q-.422 0-.61-.313-.187-.312-.187-.64 0-1.313.547-3.078.562-1.766 1.125-2.907l.546-1.125q-.078 0 .079-.156.156-.156.312-.265.422-.235.922-.235t.5.172q0 .031-.188.406-.187.36-.765 2.125-.563 1.766-.563 2.641t.438.875q.953 0 2.281-1.828 1.344-1.828 1.344-2.906-.563-.204-.563-.72 0-.53.407-1.077.421-.547.671-.547.016 0 .313.094.312.093.86.093.546 0 .968-.125.438-.125.656-.234.219-.125.282-.125.171 0 .171.219 0 .11-.156.5-.14.375-.281.625-.438.687-1.156.953-.172.094-.172.203 0 .531-.313 1.11-.968 1.859-3.515 4.062-2.547 2.203-3.953 2.203zm9.704.281q-1.234 0-1.813-.734-.578-.735-.578-1.813 0-1.078.469-2.265.469-1.188 1.281-2.297.828-1.11 2.157-1.86 1.343-.765 2.875-.765.703 0 1.062.437.36.438.36 1.047 0 1.235-.876 2.297-.859 1.063-1.937 1.625-1.063.547-1.89.625-.813.078-1.094.313-.282.234-.282.937 0 .703.313 1.063.328.359.64.484.329.14.329.266 0 .296-.329.468-.312.172-.687.172zm3.75-7.719q0-.671-.594-.671-.86 0-1.89 1.203-1.032 1.187-1.032 2.156 0 .234.36.234.875 0 2.015-.89 1.14-.907 1.14-2.032zm5.005 3.97q1.14-1.016 1.984-2.126.86-1.125.86-1.406 0-.297-.266-.484-.25-.188-.781-.188-1.234 0-2.61 1.688-1.359 1.671-1.359 2.875 0 .64.453.64.594 0 1.72-1zm1.219 3.077h-.031q-1.032 0-1.032-1.14l.047-.438-.156-.203q-.125 0-.313.14-1.843 1.782-3.218 1.782-.438 0-.797-.344-.344-.328-.344-1.14 0-1.61 1.406-3.72 2.22-3.359 5.594-3.359.469 0 .86.141.406.14.5.14.093 0 .343-.327.266-.329 1.64-2.704 3.22-5.484 3.782-6.609.469-.937 2.36-.937.578 0 .578.343 0 .125-.907 1.328-.906 1.188-2.578 3.641-1.672 2.453-3.094 5.031-3.703 5.891-4.406 8.125-.078.25-.234.25zm15.4-1.297.047-.437q0-.172-.125-.172-.188 0-.782.563-.593.546-1.484 1.109-.875.562-1.766.562-.875 0-.875-1.296 0-1.625 1.407-3.735.718-1.062 1.672-1.969.953-.906 2.312-1.5 1.375-.593 2.86-.593.796 0 1.343.422.563.421.563 1.03 0 .61-.375.61-.188 0-.5-.25-.61-.39-1.891-.39-1.672 0-3.187 1.53-1.5 1.516-1.5 3 0 .204.109.376.125.156.344.156.64 0 1.64-.875 1-.89 1.969-2.547.063-.203.469-.36.406-.171.953-.171.797.062.797.328 0 .031-.172.281-.156.235-.563.875-.406.641-1.14 2.11-.735 1.453-.86 2.312-.03.25-.218.25-1.047 0-1.047-1.219zm20.819-7.14q.921 0 .921 1.062 0 1.063-.75 2.688-1.093 2.281-2.468 3.953-.672.781-1.672.781-.313 0-.313-.172l.078-.234q1-1.469 1.782-3.031.781-1.578.781-2.282 0-.125-.078-.203-.078-.093-.235-.109-.875 0-2.359 1.437-1.484 1.422-2.562 2.875-1.079 1.438-1.391 2-.313.579-.64.688-.313.125-1.032.125-.719 0-.719-.266 0-.078.203-.406.204-.312 1.532-2.875 1.328-2.562 2.812-5.203 1.485-2.656 3.235-5.422 1.765-2.781 3.515-4.547 1.766-1.765 3.078-1.765 1 0 1 1.187 0 2.25-2.062 4.844-2.063 2.578-3.766 3.36-.375.171-.797.171-.422 0-.422-.187l.125-.22q2.094-1.452 3.313-3.343 1.234-1.906 1.234-2.672 0-.25-.062-.344-.063-.109-.297-.109-.766 0-2.516 2.5-1.734 2.5-3.125 5.14-1.375 2.641-1.375 3.22 0 .234.157.234.156 0 .437-.203.328-.313.828-.75.5-.453 1.672-1.188 1.188-.734 1.938-.734zm1.658 8.172q-.484-.235-.796-.828-.313-.61-.313-1.485 0-1.36.89-2.844.891-1.5 2.5-2.562 1.61-1.078 3.391-1.078.844 0 1.391.453.562.453.562.89 0 .438-.14.688-.125.25-.125.344 0 .25.406.25t.61-.094q.218-.11.265-.11.172 0 .172.438t-.422 1.031q-.422.579-1.047.844-.094.172-.25.485-.14.312-.703 1.078-.547.75-1.172 1.343-.625.579-1.672 1.047-1.03.485-1.89.485-.844 0-1.657-.375zm4.766-3.672q0-.172-.187-.172-.282 0-.641.125-.344.125-.39.125-.126 0-.126-.188 0-.828.594-1.421.234-.266.672-.438.453-.187.703-.422.25-.25.25-.86 0-.718-.766-.718-1.375 0-2.609 1.938-1.234 1.921-1.234 3.437 0 .516.343.875.36.36.844.36 1.11 0 1.828-.922.72-.938.72-1.72zm6.076 3.875q-.563 0-1.078-.188-.516-.172-.61-.172-.234 0-.547.5-.437.672-1.609.672-.703 0-.703-.343l.031-.079q10.36-17.921 10.547-18.328.516-.937 2.39-.937.641 0 .641.344 0 .187-1 1.578-3.75 5.078-5.781 9.031-.047.078-.047.203 0 .203.172.203t.578-.312q1.172-.844 2.375-.844 1.25 0 1.25 1.547 0 .844-.516 2.031-.5 1.172-1.359 2.328-.86 1.156-2.14 1.969-1.266.797-2.594.797zm.765-1.203q1.172 0 2.407-1.907 1.25-1.921 1.25-3.234 0-.578-.485-.578-.703 0-1.828.969-1.11.968-1.922 2.062-.812 1.078-.812 1.485.031.125.093.328.063.203.407.547.36.328.89.328zm8.065 1.203q-.563 0-1.079-.188-.515-.172-.609-.172-.234 0-.547.5-.437.672-1.61.672-.702 0-.702-.343l.03-.079q10.36-17.921 10.548-18.328.515-.937 2.39-.937.641 0 .641.344 0 .187-1 1.578-3.75 5.078-5.781 9.031-.047.078-.047.203 0 .203.172.203t.578-.312q1.172-.844 2.375-.844 1.25 0 1.25 1.547 0 .844-.516 2.031-.5 1.172-1.36 2.328-.858 1.156-2.14 1.969-1.265.797-2.593.797zm.765-1.203q1.172 0 2.406-1.907 1.25-1.921 1.25-3.234 0-.578-.484-.578-.703 0-1.828.969-1.11.968-1.922 2.062-.812 1.078-.812 1.485.03.125.093.328t.407.547q.359.328.89.328zm5.67 1.812q-.296 0-.656-.375-.359-.375-.359-.906 0-.297 1.39-3.016 1.407-2.718 1.438-3.687 0-.297.39-.547.688-.406 2.032-.406.25 0 .531.093.297.094.297.266 0 .078-.062.14-.813 1.032-2.375 3.704-1.547 2.656-2.344 4.328-.11.406-.281.406zm4.673-10.14q-.938 0-.985-.75v-.016q0-.64.625-1.047.64-.406 1.266-.406.937 0 .969.75 0 .64-.625 1.062-.61.407-1.25.407zm9.602-4.579 1.047-.046q.203 0 .203.093 0 .078-.047.203-.031.125-.172.329-.14.187-.328.328-.516.406-1.281.406-.75 0-1.11.047-.344.047-.61.219-.25.171-.327.265-.078.078-.297.422-.219.328-.297.453-1.14 1.578-3.672 5.953-2.516 4.375-3.14 6.766-.063.219-.391.219t-.906-.563q-.579-.547-.579-1.125t1.735-3.437q1.75-2.86 3.5-5.61 1.75-2.765 1.75-3.078 0-.312-.266-.39-.25-.079-.89-.079h-.704q-.28 0-.28-.25t.25-.53q.25-.298.75-.5.5-.22 1.015-.438.531-.219 1.36-.953.843-.75 1.702-1.922.532-.735 1.828-.735.454 0 .454.282 0 .171-.97 1.562-.952 1.375-.952 1.734 0 .344.64.344.266.031.985.031zm-6.85 12.922q0-.484.547-.968.563-.485 1.157-.485 1.172 0 1.172.735 0 .562-.563 1.03-.547.454-1.156.454-1.156 0-1.156-.766zm4.5 0q0-.484.547-.968.563-.485 1.157-.485 1.172 0 1.172.735 0 .562-.563 1.03-.547.454-1.14.454-1.172 0-1.172-.766zm4.5 0q0-.484.547-.968.563-.485 1.157-.485 1.172 0 1.172.735 0 .562-.563 1.03-.547.454-1.156.454-1.156 0-1.156-.766z"/></g></svg>