<svg viewBox="0 0 989.806 438.06" fill="none" stroke-linecap="square" stroke-miterlimit="10" xmlns="http://www.w3.org/2000/svg"><clipPath id="a"><path d="M0 0h989.806v438.06H0V0z"/></clipPath><g clip-path="url(#a)"><path fill="none" d="M0 0h989.806v438.06H0z"/><path shape-rendering="crispEdges" fill="#d0e0e3" d="M107.39 50.864h69.296v58.57H107.39v-58.57zM176.686 50.864h69.297v58.57h-69.297v-58.57z"/><path shape-rendering="crispEdges" fill="#d0e0e3" d="M245.983 50.864h69.297v58.57h-69.297v-58.57zM315.28 50.864h69.296v58.57H315.28v-58.57zM384.576 50.864h69.297v58.57h-69.297v-58.57z"/><path shape-rendering="crispEdges" fill="#d0e0e3" d="M453.873 50.864h69.296v58.57h-69.296v-58.57zM523.17 50.864h69.296v58.57h-69.297v-58.57zM592.466 50.864h69.296v58.57h-69.296v-58.57z"/><path shape-rendering="crispEdges" fill="#d0e0e3" d="M661.762 50.864h69.297v58.57h-69.297v-58.57zM731.06 50.864h69.296v58.57h-69.297v-58.57zM107.39 109.433h69.296v58.57H107.39v-58.57zM176.686 109.433h69.297v58.57h-69.297v-58.57z"/><path shape-rendering="crispEdges" fill="#d0e0e3" d="M245.983 109.433h69.297v58.57h-69.297v-58.57zM315.28 109.433h69.296v58.57H315.28v-58.57zM384.576 109.433h69.297v58.57h-69.297v-58.57z"/><path shape-rendering="crispEdges" fill="#d0e0e3" d="M453.873 109.433h69.296v58.57h-69.296v-58.57zM523.17 109.433h69.296v58.57h-69.297v-58.57zM592.466 109.433h69.296v58.57h-69.296v-58.57z"/><path shape-rendering="crispEdges" fill="#d0e0e3" d="M661.762 109.433h69.297v58.57h-69.297v-58.57zM731.06 109.433h69.296v58.57h-69.297v-58.57z"/><path stroke="#45818e" stroke-width="4" stroke-linecap="butt" d="M107.39 48.864v121.139M176.686 48.864v121.139M245.983 48.864v121.139M315.28 48.864v121.139M384.576 48.864v121.139M453.873 48.864v121.139M523.17 48.864v121.139M592.466 48.864v121.139M661.762 48.864v121.139M731.06 48.864v121.139M800.356 48.864v121.139M105.39 50.864h696.966M105.39 109.433h696.966M105.39 168.003h696.966"/><path fill="#0c343d" d="M119.25 78.745q-.188 0-.25-.235 0-.453.64-1.03.64-.595 1.031-.75.39-.173 2.563-.22l.375-.437q8.109-9.344 11.25-9.344.265-.031.609-.031 1.844 0 1.844.875 0 .172-.344.86l-1.203 2.39q-.844 1.719-1.656 3.469-4.313 9.515-5 12.484 0 .203-.547.203t-1.328-.61q-.766-.593-.766-1.046 0-.813 1.297-3.11 1.312-2.296 1.312-2.984 0-.937-3.625-.937-.531 0-1.656.047l-1.016 1.343q-1.859 2.5-3.562 6.203-.297.672-1.797.672-1.484 0-1.484-.422 0-.296 1.656-2.578 1.672-2.281 3.969-5.047-.407.047-1.016.11-.61.047-.953.094-.328.03-.344.03zm11.046-3.438q1.047-1.25 1.563-2.531.53-1.281.53-1.734 0-.453-.452-.453-.813 0-2.657 1.703-1.828 1.687-3.984 4.218l2.906.047q1.063 0 2.094-1.25zM198.968 83.62q-1.172 1.078-3.079 1.765-1.89.672-3.671.672-1.782 0-2.547-.187-.766-.172-.89-.172-.267 0-.532.172-.86.765-2.063.765-1.187 0-1.187-.421 0-.297 1.844-3.485 1.859-3.203 4.109-7.125t2.906-5.39q.656-1.47.656-2.532v-.218q0-.72 4.125-.72 3.782 0 4.86.407 1.375.531 1.719 1.406.218.547.218 1.282 0 1.203-.875 2.265-1.625 1.922-4.218 2.531-.985.25-1.172.407-.188.156-.188.328 0 .172.39.437.391.25.845.547.468.281.859.953.39.672.39 1.703 0 1.016-.656 2.266t-1.843 2.344zm-2.329-1.453q.782-.938 1.22-1.891.437-.969.437-1.625t-.203-1.11q-.204-.468-.47-.702-.265-.25-.64-.391-.547-.203-1.11-.203h-.265q-.36 0-.36-.25 0-.547.407-1.172.422-.64.953-.64 2.172 0 3.875-1.438 1.703-1.438 1.703-3.063 0-1.406-1.859-1.406-1.547 0-2.172.734-1.672 2.079-4.844 7.75-3.172 5.672-3.172 6.657 0 .39.438.687.437.297 1.594.297 1.172 0 2.437-.656 1.266-.656 2.031-1.578zM261.217 86.104q-4.39 0-4.39-4.484 0-1.297.625-3.156.625-1.875 1.843-3.891 1.235-2.016 2.782-3.734 1.547-1.735 3.625-2.86 2.078-1.125 4.187-1.125.985 0 1.516.235.531.218.562.218.047 0 .672-.265.625-.266 1.485-.266.875 0 .875.5 0 .484-1.032 2.14-1.015 1.657-2.453 3.173-1.437 1.515-2.297 1.515-.11.031-.265.031-.5 0-.5-.296 0-.047.36-.594.374-.547.75-1.469.374-.922.374-1.484 0-.563-.062-.797-.047-.235-.36-.547-.297-.328-.828-.328-1.437 0-3.422 2.187-1.984 2.188-3.422 5.14-1.422 2.938-1.422 4.985 0 2.453 2.235 2.453 2.672 0 5.172-3.437.11-.219.218-.219.125 0 .188.016.078.015.187.172.125.14.125.547 0 .39-.546 1.328-.547.922-1.454 1.922-.906.984-2.343 1.687-1.438.703-2.985.703zM330.467 86.073q-1.422 0-1.828-.094-.39-.094-.672-.156-.281-.063-.36-.094-.077-.031-.234-.031-.328 0-.593.172-.922.765-2.454.765-.796 0-.796-.359 0-.36 1.843-3.547 1.86-3.203 4.11-7.125 2.265-3.922 2.906-5.39.656-1.47.656-2.532v-.218q0-.766 4.453-.766 6.61 0 6.61 4.5 0 3.25-2.203 7.172-1.157 2.062-2.704 3.765-1.546 1.704-3.859 2.829-2.297 1.109-4.875 1.109zm8.766-9.125q.984-1.906 1.5-3.563.53-1.671.53-2.796 0-1.141-.655-1.72-.657-.593-2.203-.593-1.063 0-1.704.734-1.671 2.11-4.859 7.782-3.172 5.656-3.172 6.625 0 1.062 2.266 1.062 1.61 0 3.234-1.11 1.625-1.124 2.844-2.812 1.234-1.703 2.219-3.61zM405.998 76.667l-2.266-.078q-1.672 0-2.578 1.093-.64.797-1.703 2.61-1.047 1.812-1.047 2.875 0 .984 1.938.984 1.203 0 2.562-.453 2.75-.906 4.344-3.453.188-.25.64-.25.454 0 .454.531 0 .516-.86 2.172-.843 1.64-1.515 2.469-.344.437-1.344.484-1 .047-3.047.047h-2.61l-1.53-.016-.72-.062h-.187q-.156 0-.39.25-.891.765-2.516.765-.766 0-.766-.343v-.078q0-.297 1.844-3.485 1.86-3.187 4.125-7.094 2.266-3.921 2.906-5.375.641-1.453.641-2.5v-.296q0-.454 5.672-.454 1.875 0 3.25.063.406-.453 2.062-.453.688 0 .688.344 0 .609-1.219 2.468-1.203 1.844-2.11 2.516-.296.234-.75.234-.452 0-.452-.187 0-.078.078-.203.437-.828.437-1.875 0-1.453-2.031-1.453-1.234 0-1.938.64-.703.625-1.406 1.781-.687 1.141-1.015 1.97-.329.827-.329 1.046 0 .64.625.781.625.14 2.485.14l1.984-.077q.266 0 .266.203t-.281.672q-.282.453-.579.64-.593.407-1.812.407zM474.95 76.667l-2.296-.078q-1.672 0-2.563 1.093-1.406 1.844-2.921 4.813-1.5 2.969-2.079 3.39-.968.75-2.453.75-.812 0-.812-.343v-.078q0-.297 1.86-3.485 1.859-3.187 4.109-7.094 2.25-3.921 2.906-5.39.656-1.469.656-2.5v-.281q0-.454 5.672-.454 1.86 0 3.25.063.406-.453 2.031-.453.719 0 .719.344 0 .64-1.297 2.578-1.297 1.922-2.172 2.484-.375.188-.719.188-.343 0-.343-.22 0-.015.125-.28.375-.75.375-1.797 0-1.453-2.047-1.453-1.235 0-1.938.64-.703.625-1.406 1.781-.687 1.141-1.016 1.97-.328.827-.328 1.14 0 .297.282.562.296.266 2.859.266 1.14 0 1.531-.031.406-.047.438-.047.234 0 .234.187 0 .11-.016.157-.375.906-.906 1.25-.515.328-1.734.328zM543.013 85.62q-.375 0-.656-.344-.266-.344-.344-.687l-.094-.344q-.078-.297-.39-.297-.297 0-.532.187-2.515 1.97-4.671 1.97-2.766 0-2.766-3.704 0-1.312.672-3.25.687-1.953 1.953-4.062 1.281-2.125 2.89-3.97 1.626-1.859 3.735-3.062 2.125-1.203 4.234-1.203 1.14 0 1.86.406.11.047.234.047.14 0 .281-.078.657-.453 1.688-.453 1.047 0 1.047.516 0 .625-1.328 2.53-2.079 2.954-3.407 2.954-.343 0-.468-.047-.125-.062-.125-.219 0-.156.171-.53.532-1.126.532-1.86 0-.735-.282-1.11-.28-.39-1.156-.39-1.61 0-3.812 2.422-2.188 2.406-3.766 5.562-1.578 3.156-1.578 5.203 0 1.735 1.437 1.735 1.125 0 2.547-1.141 1.438-1.156 2.344-2.469.922-1.312.922-1.89 0-.578-.563-.797-.546-.235-2.156-.235-.312 0-.312-.234 0-.453.515-.937.516-.485 1-.532 1.922-.14 4.032-.14 2.125 0 2.125.375 0 .328-.36 1-.36.656-.594 1.078-.218.406-.656 1.14-.437.735-.703 1.157-.266.422-.812 1.297-.547.859-.875 1.406-.313.531-.782 1.406-.468.875-.687 1.234-.203.36-.344.36zM611.06 67.823v-.36q0-.687 2.859-.687 1.438 0 1.438.531 0 .219-.22.438-1.015 1.375-4.312 7l3.297.031q1.094 0 2-.875.453-.484.813-.89.359-.422.812-1.188.453-.781.719-1.234.375-.672 1.312-2.563 0-.125.204-.328.203-.203.468-.344.282-.156.86-.25.593-.11 1.39-.11.813 0 .813.345 0 .156-.125.359-.11.203-1.39 2.156-1.266 1.938-2.548 4.031-1.265 2.094-2.703 4.547-1.422 2.453-2.312 4.485-.891 2.015-.891 2.953-.156.453-.672.453-1.469 0-2.031-.25-.547-.234-.547-.719 0-.828 1.766-3.86 1.78-3.046 1.78-3.687 0-.656-.546-.968-.531-.329-1.781-.329t-1.735.016q-.906 1.469-2.078 3.766-1.172 2.297-1.968 3.765-.797 1.453-1.282 1.828-.984.75-2.422.75-.828 0-.828-.421 0-.25.703-1.422.704-1.188 2.282-3.735 1.578-2.547 2.718-4.468l-1.625.078q-.406 0-.406-.22 0-.452.578-.905t.938-.578q.375-.141 1.562-.188.985-1.687 2.532-4.672.578-1.281.578-2.281zM671.137 84.589q0-.625.688-1.22.703-.593 1.437-.593 1.47 0 1.47.906 0 .719-.704 1.297-.687.563-1.453.563-1.438 0-1.438-.953zm5.625 0q0-.625.688-1.22.703-.593 1.437-.593 1.47 0 1.47.906 0 .719-.704 1.297-.687.563-1.422.563-1.469 0-1.469-.953zm5.625 0q0-.625.688-1.22.703-.593 1.437-.593 1.47 0 1.47.906 0 .719-.704 1.297-.687.563-1.453.563-1.438 0-1.438-.953zM761.247 68.026q0 1.281-5.594 5.61-2.313 1.78-4.656 3.593-2.329 1.813-3.97 3.453-1.64 1.64-1.64 2.516 0 .484.61.656.625.172 1.39.172.781 0 2.016-.5 1.234-.516 2.219-1.234 2.109-1.578 3.093-2.672l.453-.5q.563-.453.97-.453h.046q.422 0 .422.265-.047.64-2.14 3.907-2.094 3.265-2.782 3.343h-.297q-1.594 0-2.39-.61-2.563.235-3.282.235-3.547 0-4.812-.218-1.266-.204-1.266-.891 0-.938 1.656-2.719 1.672-1.797 4.047-3.703 2.391-1.922 4.782-3.766 2.406-1.843 4.078-3.234 1.687-1.406 1.718-1.812v-.016q0-.719-1.453-.719t-2.922.766q-1.468.75-3.14 2.14-.61.47-1 .47t-.39-.282q.03-.297 1.312-2.266 1.281-1.984 2.11-2.672.343-.328.843-.328 1.125 0 1.844.594 1.765-.156 3.968-.156 4.157 0 4.157 1.031zM119.25 137.314q-.188 0-.25-.234 0-.453.64-1.031.64-.594 1.031-.75.39-.172 2.563-.22l.375-.437q8.109-9.343 11.25-9.343.265-.032.609-.032 1.844 0 1.844.875 0 .172-.344.86l-1.203 2.39q-.844 1.72-1.656 3.47-4.313 9.515-5 12.484 0 .203-.547.203t-1.328-.61q-.766-.593-.766-1.047 0-.812 1.297-3.109 1.312-2.297 1.312-2.984 0-.938-3.625-.938-.531 0-1.656.047l-1.016 1.344q-1.859 2.5-3.562 6.203-.297.672-1.797.672-1.484 0-1.484-.422 0-.297 1.656-2.578 1.672-2.281 3.969-5.047-.407.047-1.016.11-.61.046-.953.093-.328.031-.344.031zm11.046-3.437q1.047-1.25 1.563-2.531.53-1.282.53-1.735 0-.453-.452-.453-.813 0-2.657 1.703-1.828 1.688-3.984 4.219l2.906.047q1.063 0 2.094-1.25zm16.715 1.515-4.234-.015h-.047q-.938 1.719-2.11 3.719-.53.906-1.859.906-.75 0-.75-.281l.188-.407q.765-1.203 2.375-3.968h-1.453l-3.36.078q-.36 0-.36-.266 0-.344.563-1.031.578-.703 1.375-.703l4.297.03q.938-1.733 2.11-3.733.53-.907 1.828-.907.78 0 .78.297l-.187.39q-1.171 1.813-2.343 3.97l1.937.03q1.36 0 2.078-.046.72-.063.75-.063.375 0 .375.266 0 .36-.578 1.047-.562.687-1.375.687zm8.997 2.704.016-.594q0-.531-.422-.531-.344 0-.875.421-1.531 1.344-3.219 3.11-1.671 1.765-2.218 2.515-.547.75-.72.922-.17.172-.952.47-.766.296-1.781.296-1.032 0-1.032-.328 0-.656 10.47-9.516.937-.75 1-1.937.093-1.985.093-2.938 0-2.687-.453-4.047l-.125-.406q0-.453 1.968-.453.97 0 1.36.312.406.297.406 1.125 0 .829-.187 3.5 0 .72.5.72.265 0 .609-.298 3.531-3.125 4.156-3.922.625-.796 1.016-.984.812-.312 2.25-.375h.453q1.297 0 1.297.422 0 .25-.375.453-3.375 1.922-8.922 6.453-.14.078-.344.235-.187.14-.547.703-.343.562-.39 1.218-.188 3.36-.188 5.547 0 2.516.375 3.25.11.22.11.36 0 .39-.813.562-.812.172-1.562.172t-.97-.328q-.202-.313-.202-1.297t.218-4.812zM198.968 142.19q-1.172 1.077-3.079 1.765-1.89.672-3.671.672-1.782 0-2.547-.188-.766-.172-.89-.172-.267 0-.532.172-.86.766-2.063.766-1.187 0-1.187-.422 0-.297 1.844-3.484 1.859-3.203 4.109-7.125t2.906-5.39q.656-1.47.656-2.532v-.219q0-.719 4.125-.719 3.782 0 4.86.407 1.375.53 1.719 1.406.218.547.218 1.281 0 1.203-.875 2.266-1.625 1.922-4.218 2.53-.985.25-1.172.407-.188.156-.188.328 0 .172.39.438.391.25.845.547.468.28.859.953.39.672.39 1.703 0 1.016-.656 2.266t-1.843 2.343zm-2.329-1.454q.782-.937 1.22-1.89.437-.97.437-1.625 0-.657-.203-1.11-.204-.469-.47-.703-.265-.25-.64-.39-.547-.204-1.11-.204h-.265q-.36 0-.36-.25 0-.547.407-1.172.422-.64.953-.64 2.172 0 3.875-1.438 1.703-1.437 1.703-3.062 0-1.406-1.859-1.406-1.547 0-2.172.734-1.672 2.078-4.844 7.75-3.172 5.672-3.172 6.656 0 .39.438.688.437.297 1.594.297 1.172 0 2.437-.657 1.266-.656 2.031-1.578zm19.376-5.344-4.235-.015h-.047q-.937 1.719-2.11 3.719-.53.906-1.858.906-.75 0-.75-.281l.187-.407q.766-1.203 2.375-3.968h-1.453l-3.36.078q-.359 0-.359-.266 0-.344.563-1.031.578-.703 1.375-.703l4.297.03q.937-1.733 2.109-3.733.531-.907 1.828-.907.781 0 .781.297l-.187.39q-1.172 1.813-2.344 3.97l1.938.03q1.359 0 2.078-.046.718-.063.75-.063.375 0 .375.266 0 .36-.578 1.047-.563.687-1.375.687zm8.997 2.704.015-.594q0-.531-.421-.531-.344 0-.875.421-1.532 1.344-3.22 3.11-1.671 1.765-2.218 2.515-.547.75-.719.922-.172.172-.953.47-.765.296-1.781.296-1.031 0-1.031-.328 0-.656 10.468-9.516.938-.75 1-1.937.094-1.985.094-2.938 0-2.687-.453-4.047l-.125-.406q0-.453 1.969-.453.969 0 1.36.312.405.297.405 1.125 0 .829-.187 3.5 0 .72.5.72.266 0 .61-.298 3.53-3.125 4.156-3.922.625-.796 1.015-.984.813-.312 2.25-.375h.453q1.297 0 1.297.422 0 .25-.375.453-3.375 1.922-8.922 6.453-.14.078-.343.235-.188.14-.547.703-.344.562-.39 1.218-.188 3.36-.188 5.547 0 2.516.375 3.25.109.22.109.36 0 .39-.813.562-.812.172-1.562.172t-.969-.328q-.203-.313-.203-1.297t.219-4.812zM261.217 144.674q-4.39 0-4.39-4.485 0-1.297.625-3.156.625-1.875 1.843-3.89 1.235-2.016 2.782-3.735 1.547-1.734 3.625-2.86 2.078-1.124 4.187-1.124.985 0 1.516.234.531.219.562.219.047 0 .672-.266.625-.265 1.485-.265.875 0 .875.5 0 .484-1.032 2.14-1.015 1.656-2.453 3.172-1.437 1.516-2.297 1.516-.11.03-.265.03-.5 0-.5-.296 0-.047.36-.594.374-.547.75-1.468.374-.922.374-1.485 0-.562-.062-.797-.047-.234-.36-.547-.297-.328-.828-.328-1.437 0-3.422 2.188-1.984 2.187-3.422 5.14-1.422 2.938-1.422 4.985 0 2.453 2.235 2.453 2.672 0 5.172-3.438.11-.218.218-.218.125 0 .188.015.078.016.187.172.125.14.125.547 0 .39-.546 1.328-.547.922-1.454 1.922-.906.984-2.343 1.688-1.438.703-2.985.703zm22.148-9.282-4.234-.015h-.047q-.938 1.719-2.11 3.719-.53.906-1.859.906-.75 0-.75-.281l.188-.407q.765-1.203 2.375-3.968h-1.453l-3.36.078q-.36 0-.36-.266 0-.344.563-1.031.578-.703 1.375-.703l4.297.03q.938-1.733 2.11-3.733.53-.907 1.828-.907.781 0 .781.297l-.188.39q-1.171 1.813-2.343 3.97l1.937.03q1.36 0 2.078-.046.72-.063.75-.063.375 0 .375.266 0 .36-.578 1.047-.562.687-1.375.687zm8.997 2.704.016-.594q0-.531-.422-.531-.344 0-.875.421-1.531 1.344-3.219 3.11-1.671 1.765-2.218 2.515-.547.75-.719.922-.172.172-.953.47-.766.296-1.781.296-1.032 0-1.032-.328 0-.656 10.47-9.516.937-.75 1-1.937.093-1.985.093-2.938 0-2.687-.453-4.047l-.125-.406q0-.453 1.968-.453.97 0 1.36.312.406.297.406 1.125 0 .829-.187 3.5 0 .72.5.72.265 0 .609-.298 3.531-3.125 4.156-3.922.625-.796 1.016-.984.812-.312 2.25-.375h.453q1.297 0 1.297.422 0 .25-.375.453-3.375 1.922-8.922 6.453-.14.078-.344.235-.187.14-.547.703-.343.562-.39 1.218-.188 3.36-.188 5.547 0 2.516.375 3.25.11.22.11.36 0 .39-.813.562-.812.172-1.562.172t-.97-.328q-.202-.313-.202-1.297t.218-4.812zM330.467 144.642q-1.422 0-1.828-.093-.39-.094-.672-.157-.281-.062-.36-.093-.077-.032-.234-.032-.328 0-.593.172-.922.766-2.454.766-.796 0-.796-.36 0-.359 1.843-3.546 1.86-3.203 4.11-7.125 2.265-3.922 2.906-5.39.656-1.47.656-2.532v-.219q0-.766 4.453-.766 6.61 0 6.61 4.5 0 3.25-2.203 7.172-1.157 2.063-2.704 3.766-1.546 1.703-3.859 2.828-2.297 1.11-4.875 1.11zm8.766-9.125q.984-1.906 1.5-3.562.53-1.672.53-2.797 0-1.14-.655-1.719-.657-.593-2.203-.593-1.063 0-1.704.734-1.671 2.11-4.859 7.781-3.172 5.656-3.172 6.625 0 1.063 2.266 1.063 1.61 0 3.234-1.11 1.625-1.125 2.844-2.812 1.234-1.703 2.219-3.61zm16.174-.125-4.234-.015h-.047q-.937 1.719-2.11 3.719-.53.906-1.859.906-.75 0-.75-.281l.188-.407q.766-1.203 2.375-3.968h-1.453l-3.36.078q-.359 0-.359-.266 0-.344.563-1.031.578-.703 1.375-.703l4.296.03q.938-1.733 2.11-3.733.531-.907 1.828-.907.781 0 .781.297l-.187.39q-1.172 1.813-2.344 3.97l1.937.03q1.36 0 2.079-.046.718-.063.75-.063.375 0 .375.266 0 .36-.579 1.047-.562.687-1.375.687zm8.998 2.704.015-.594q0-.531-.422-.531-.343 0-.875.421-1.53 1.344-3.218 3.11-1.672 1.765-2.22 2.515-.546.75-.718.922-.172.172-.953.47-.766.296-1.781.296-1.031 0-1.031-.328 0-.656 10.468-9.516.938-.75 1-1.937.094-1.985.094-2.938 0-2.687-.453-4.047l-.125-.406q0-.453 1.969-.453.968 0 1.359.312.406.297.406 1.125 0 .829-.187 3.5 0 .72.5.72.265 0 .61-.298 3.53-3.125 4.155-3.922.625-.796 1.016-.984.813-.312 2.25-.375h.453q1.297 0 1.297.422 0 .25-.375.453-3.375 1.922-8.922 6.453-.14.078-.344.235-.187.14-.546.703-.344.562-.391 1.218-.188 3.36-.188 5.547 0 2.516.375 3.25.11.22.11.36 0 .39-.813.562-.812.172-1.562.172t-.969-.328q-.203-.313-.203-1.297t.219-4.812zM405.998 135.236l-2.266-.078q-1.672 0-2.578 1.094-.64.797-1.703 2.61-1.047 1.812-1.047 2.874 0 .985 1.938.985 1.203 0 2.562-.454 2.75-.906 4.344-3.453.188-.25.64-.25.454 0 .454.532 0 .515-.86 2.171-.843 1.641-1.515 2.47-.344.437-1.344.484-1 .046-3.047.046h-2.61l-1.53-.015-.72-.063h-.187q-.156 0-.39.25-.891.766-2.516.766-.766 0-.766-.344v-.078q0-.297 1.844-3.484 1.86-3.188 4.125-7.094 2.266-3.922 2.906-5.375.641-1.453.641-2.5v-.297q0-.453 5.672-.453 1.875 0 3.25.062.406-.453 2.062-.453.688 0 .688.344 0 .61-1.219 2.469-1.203 1.844-2.11 2.515-.296.235-.75.235-.452 0-.452-.188 0-.078.078-.203.437-.828.437-1.875 0-1.453-2.031-1.453-1.234 0-1.938.64-.703.626-1.406 1.782-.687 1.14-1.015 1.969-.329.828-.329 1.047 0 .64.625.78.625.141 2.485.141l1.984-.078q.266 0 .266.203 0 .204-.281.672-.282.453-.579.64-.593.407-1.812.407zm17.453.156-4.234-.015h-.047q-.938 1.719-2.11 3.719-.53.906-1.859.906-.75 0-.75-.281l.188-.407q.765-1.203 2.375-3.968h-1.453l-3.36.078q-.36 0-.36-.266 0-.344.563-1.031.578-.703 1.375-.703l4.297.03q.938-1.733 2.11-3.733.53-.907 1.828-.907.78 0 .78.297l-.187.39q-1.171 1.813-2.343 3.97l1.937.03q1.36 0 2.078-.046.72-.063.75-.063.375 0 .375.266 0 .36-.578 1.047-.562.687-1.375.687zm8.997 2.704.016-.594q0-.531-.422-.531-.344 0-.875.421-1.531 1.344-3.219 3.11-1.671 1.765-2.218 2.515-.547.75-.72.922-.17.172-.952.47-.766.296-1.781.296-1.032 0-1.032-.328 0-.656 10.47-9.516.937-.75 1-1.937.093-1.985.093-2.938 0-2.687-.453-4.047l-.125-.406q0-.453 1.968-.453.97 0 1.36.312.406.297.406 1.125 0 .829-.187 3.5 0 .72.5.72.265 0 .609-.298 3.531-3.125 4.156-3.922.625-.796 1.016-.984.812-.312 2.25-.375h.453q1.297 0 1.297.422 0 .25-.375.453-3.375 1.922-8.922 6.453-.14.078-.344.235-.187.14-.547.703-.343.562-.39 1.218-.188 3.36-.188 5.547 0 2.516.375 3.25.11.22.11.36 0 .39-.813.562-.812.172-1.562.172t-.97-.328q-.202-.313-.202-1.297t.218-4.812zM474.95 135.236l-2.296-.078q-1.672 0-2.563 1.094-1.406 1.844-2.921 4.812-1.5 2.97-2.079 3.39-.968.75-2.453.75-.812 0-.812-.343v-.078q0-.297 1.86-3.484 1.859-3.188 4.109-7.094 2.25-3.922 2.906-5.39.656-1.47.656-2.5v-.282q0-.453 5.672-.453 1.86 0 3.25.062.406-.453 2.031-.453.719 0 .719.344 0 .64-1.297 2.578-1.297 1.922-2.172 2.485-.375.187-.719.187-.343 0-.343-.219 0-.015.125-.28.375-.75.375-1.798 0-1.453-2.047-1.453-1.235 0-1.938.64-.703.626-1.406 1.782-.687 1.14-1.016 1.969-.328.828-.328 1.14 0 .297.282.563.296.265 2.859.265 1.14 0 1.531-.03.406-.048.438-.048.234 0 .234.188 0 .11-.016.156-.375.906-.906 1.25-.515.328-1.734.328zm14.2.156-4.235-.015h-.047q-.938 1.719-2.11 3.719-.53.906-1.859.906-.75 0-.75-.281l.188-.407q.765-1.203 2.375-3.968h-1.453l-3.36.078q-.36 0-.36-.266 0-.344.563-1.031.578-.703 1.375-.703l4.297.03q.938-1.733 2.11-3.733.53-.907 1.828-.907.78 0 .78.297l-.187.39q-1.171 1.813-2.343 3.97l1.937.03q1.36 0 2.078-.046.719-.063.75-.063.375 0 .375.266 0 .36-.578 1.047-.562.687-1.375.687zm8.996 2.704.016-.594q0-.531-.422-.531-.344 0-.875.421-1.531 1.344-3.219 3.11-1.671 1.765-2.218 2.515-.547.75-.72.922-.17.172-.952.47-.766.296-1.781.296-1.032 0-1.032-.328 0-.656 10.47-9.516.937-.75 1-1.937.093-1.985.093-2.938 0-2.687-.453-4.047l-.125-.406q0-.453 1.968-.453.97 0 1.36.312.406.297.406 1.125 0 .829-.187 3.5 0 .72.5.72.265 0 .609-.298 3.531-3.125 4.156-3.922.625-.796 1.016-.984.812-.312 2.25-.375h.453q1.297 0 1.297.422 0 .25-.375.453-3.375 1.922-8.922 6.453-.14.078-.344.235-.187.14-.547.703-.343.562-.39 1.218-.188 3.36-.188 5.547 0 2.516.375 3.25.11.22.11.36 0 .39-.813.562-.812.172-1.562.172t-.97-.328q-.202-.313-.202-1.297t.218-4.812zM543.013 144.19q-.375 0-.656-.344-.266-.344-.344-.688l-.094-.344q-.078-.297-.39-.297-.297 0-.532.188-2.515 1.969-4.671 1.969-2.766 0-2.766-3.703 0-1.313.672-3.25.687-1.954 1.953-4.063 1.281-2.125 2.89-3.969 1.626-1.86 3.735-3.062 2.125-1.203 4.234-1.203 1.14 0 1.86.406.11.047.234.047.14 0 .281-.078.657-.453 1.688-.453 1.047 0 1.047.515 0 .625-1.328 2.531-2.079 2.954-3.407 2.954-.343 0-.468-.047-.125-.063-.125-.22 0-.155.171-.53.532-1.125.532-1.86 0-.734-.282-1.11-.28-.39-1.156-.39-1.61 0-3.812 2.422-2.188 2.406-3.766 5.563-1.578 3.156-1.578 5.203 0 1.734 1.437 1.734 1.125 0 2.547-1.14 1.438-1.157 2.344-2.47.922-1.312.922-1.89 0-.578-.563-.797-.546-.234-2.156-.234-.312 0-.312-.234 0-.454.515-.938.516-.484 1-.531 1.922-.14 4.032-.14 2.125 0 2.125.374 0 .328-.36 1-.36.656-.594 1.078-.218.407-.656 1.14-.437.735-.703 1.157-.266.422-.812 1.297-.547.86-.875 1.406-.313.532-.782 1.407-.468.875-.687 1.234-.203.36-.344.36zm18.045-8.798-4.234-.015h-.047q-.938 1.719-2.11 3.719-.53.906-1.859.906-.75 0-.75-.281l.188-.407q.765-1.203 2.375-3.968h-1.454l-3.359.078q-.36 0-.36-.266 0-.344.563-1.031.578-.703 1.375-.703l4.297.03q.938-1.733 2.11-3.733.53-.907 1.828-.907.78 0 .78.297l-.187.39q-1.172 1.813-2.343 3.97l1.937.03q1.36 0 2.078-.046.719-.063.75-.063.375 0 .375.266 0 .36-.578 1.047-.562.687-1.375.687zm8.997 2.704.016-.594q0-.531-.422-.531-.344 0-.875.421-1.531 1.344-3.219 3.11-1.672 1.765-2.218 2.515-.547.75-.72.922-.171.172-.952.47-.766.296-1.782.296-1.03 0-1.03-.328 0-.656 10.468-9.516.937-.75 1-1.937.094-1.985.094-2.938 0-2.687-.453-4.047l-.125-.406q0-.453 1.968-.453.969 0 1.36.312.406.297.406 1.125 0 .829-.188 3.5 0 .72.5.72.266 0 .61-.298 3.531-3.125 4.156-3.922.625-.796 1.016-.984.812-.312 2.25-.375h.453q1.297 0 1.297.422 0 .25-.375.453-3.375 1.922-8.922 6.453-.14.078-.344.235-.187.14-.547.703-.344.562-.39 1.218-.188 3.36-.188 5.547 0 2.516.375 3.25.11.22.11.36 0 .39-.813.562-.813.172-1.563.172t-.968-.328q-.203-.313-.203-1.297t.218-4.812zM611.06 126.392v-.359q0-.687 2.859-.687 1.438 0 1.438.53 0 .22-.22.438-1.015 1.375-4.312 7l3.297.032q1.094 0 2-.875.453-.485.813-.891.359-.422.812-1.188.453-.78.719-1.234.375-.672 1.312-2.562 0-.125.204-.329.203-.203.468-.343.282-.157.86-.25.593-.11 1.39-.11.813 0 .813.344 0 .156-.125.36-.11.203-1.39 2.156-1.266 1.937-2.548 4.03-1.265 2.095-2.703 4.548-1.422 2.453-2.312 4.484-.891 2.016-.891 2.953-.156.453-.672.453-1.469 0-2.031-.25-.547-.234-.547-.718 0-.828 1.766-3.86 1.78-3.047 1.78-3.687 0-.656-.546-.969-.531-.328-1.781-.328t-1.735.016q-.906 1.468-2.078 3.765-1.172 2.297-1.968 3.766-.797 1.453-1.282 1.828-.984.75-2.422.75-.828 0-.828-.422 0-.25.703-1.422.704-1.187 2.282-3.734 1.578-2.547 2.718-4.469l-1.625.078q-.406 0-.406-.219 0-.453.578-.906t.938-.578q.375-.14 1.562-.187.985-1.688 2.532-4.672.578-1.282.578-2.282zm20.228 9-4.235-.015h-.047q-.937 1.719-2.109 3.719-.531.906-1.86.906-.75 0-.75-.281l.188-.407q.766-1.203 2.375-3.968h-1.453l-3.36.078q-.359 0-.359-.266 0-.344.563-1.031.578-.703 1.375-.703l4.297.03q.937-1.733 2.109-3.733.531-.907 1.828-.907.781 0 .781.297l-.187.39q-1.172 1.813-2.344 3.97l1.938.03q1.359 0 2.078-.046.718-.063.75-.063.375 0 .375.266 0 .36-.578 1.047-.563.687-1.375.687zm8.997 2.704.015-.594q0-.531-.421-.531-.344 0-.875.421-1.532 1.344-3.22 3.11-1.671 1.765-2.218 2.515-.547.75-.719.922-.172.172-.953.47-.765.296-1.781.296-1.031 0-1.031-.328 0-.656 10.468-9.516.938-.75 1-1.937.094-1.985.094-2.938 0-2.687-.453-4.047l-.125-.406q0-.453 1.969-.453.969 0 1.36.312.405.297.405 1.125 0 .829-.187 3.5 0 .72.5.72.266 0 .61-.298 3.53-3.125 4.156-3.922.625-.796 1.015-.984.813-.312 2.25-.375h.453q1.297 0 1.297.422 0 .25-.375.453-3.375 1.922-8.922 6.453-.14.078-.343.235-.188.14-.547.703-.344.562-.39 1.218-.188 3.36-.188 5.547 0 2.516.375 3.25.109.22.109.36 0 .39-.813.562-.812.172-1.562.172t-.969-.328q-.203-.313-.203-1.297t.219-4.812zM671.137 143.158q0-.625.688-1.219.703-.593 1.437-.593 1.47 0 1.47.906 0 .719-.704 1.297-.687.562-1.453.562-1.438 0-1.438-.953zm5.625 0q0-.625.688-1.219.703-.593 1.437-.593 1.47 0 1.47.906 0 .719-.704 1.297-.687.562-1.422.562-1.469 0-1.469-.953zm5.625 0q0-.625.688-1.219.703-.593 1.437-.593 1.47 0 1.47.906 0 .719-.704 1.297-.687.562-1.453.562-1.438 0-1.438-.953zM761.247 126.596q0 1.28-5.594 5.609-2.313 1.781-4.656 3.594-2.329 1.812-3.97 3.453-1.64 1.64-1.64 2.515 0 .485.61.657.625.172 1.39.172.781 0 2.016-.5 1.234-.516 2.219-1.235 2.109-1.578 3.093-2.672l.453-.5q.563-.453.97-.453h.046q.422 0 .422.266-.047.64-2.14 3.906-2.094 3.266-2.782 3.344h-.297q-1.594 0-2.39-.61-2.563.235-3.282.235-3.547 0-4.812-.219-1.266-.203-1.266-.89 0-.938 1.656-2.72 1.672-1.796 4.047-3.702 2.391-1.922 4.782-3.766 2.406-1.844 4.078-3.234 1.687-1.407 1.718-1.813v-.016q0-.718-1.453-.718t-2.922.765q-1.468.75-3.14 2.14-.61.47-1 .47t-.39-.282q.03-.296 1.312-2.265 1.281-1.985 2.11-2.672.343-.328.843-.328 1.125 0 1.844.594 1.765-.157 3.968-.157 4.157 0 4.157 1.032zm9.433 8.796-4.234-.015h-.047q-.937 1.719-2.11 3.719-.53.906-1.859.906-.75 0-.75-.281l.188-.407q.766-1.203 2.375-3.968h-1.453l-3.36.078q-.359 0-.359-.266 0-.344.563-1.031.578-.703 1.375-.703l4.296.03q.938-1.733 2.11-3.733.531-.907 1.828-.907.781 0 .781.297l-.187.39q-1.172 1.813-2.344 3.97l1.937.03q1.36 0 2.079-.046.718-.063.75-.063.375 0 .375.266 0 .36-.579 1.047-.562.687-1.375.687zm8.998 2.704.015-.594q0-.531-.421-.531-.344 0-.875.421-1.532 1.344-3.22 3.11-1.671 1.765-2.218 2.515-.547.75-.719.922-.172.172-.953.47-.765.296-1.781.296-1.031 0-1.031-.328 0-.656 10.468-9.516.938-.75 1-1.937.094-1.985.094-2.938 0-2.687-.453-4.047l-.125-.406q0-.453 1.969-.453.969 0 1.36.312.405.297.405 1.125 0 .829-.187 3.5 0 .72.5.72.266 0 .61-.298 3.53-3.125 4.156-3.922.625-.796 1.015-.984.813-.312 2.25-.375h.453q1.297 0 1.297.422 0 .25-.375.453-3.375 1.922-8.922 6.453-.14.078-.343.235-.188.14-.547.703-.344.562-.391 1.218-.187 3.36-.187 5.547 0 2.516.375 3.25.109.22.109.36 0 .39-.813.562-.812.172-1.562.172t-.969-.328q-.203-.313-.203-1.297t.219-4.812z"/><path fill="#76a5af" d="m803.173 315.96 43.197-46.2v21.599c62.195-8.787 110.348-35.728 125.022-69.947 21.458 50.04-34.072 100.294-125.022 113.143v21.599z" fill-rule="evenodd"/><path fill="#5e838b" d="M975.96 243.01c0-52.216-77.359-94.547-172.787-94.547v-43.197c95.428 0 172.788 42.33 172.788 94.548z" fill-rule="evenodd"/><path fill="none" d="M975.96 243.01c0-52.216-77.359-94.547-172.787-94.547v-43.197c95.428 0 172.788 42.33 172.788 94.548v43.197c0 43.113-53.302 80.766-129.59 91.544v21.599l-43.198-40.195 43.197-46.199v21.599c62.195-8.787 110.348-35.728 125.022-69.947"/><path stroke="#134f5c" stroke-linejoin="round" stroke-linecap="butt" d="M975.96 243.01c0-52.216-77.359-94.547-172.787-94.547v-43.197c95.428 0 172.788 42.33 172.788 94.548v43.197c0 43.113-53.302 80.766-129.59 91.544v21.599l-43.198-40.195 43.197-46.199v21.599c62.195-8.787 110.348-35.728 125.022-69.947"/><path fill="#d9ead3" d="M107.386 252.298h692.976v134.898H107.386z" fill-rule="evenodd"/><path stroke="#6aa84f" stroke-width="4" stroke-linejoin="round" stroke-linecap="butt" d="M107.386 252.298h692.976v134.898H107.386z"/><path fill="none" d="M124.105 290.193H765.27v87.905H124.105z"/><path fill="#38761d" d="M145.105 309.13v-.437q0-.86 3.562-.86 1.797 0 1.797.657 0 .265-.265.547-1.266 1.718-5.39 8.765l4.124.032q1.375 0 2.5-1.11.563-.594 1.016-1.11.453-.515 1.015-1.484.578-.968.907-1.53.468-.845 1.625-3.204 0-.172.25-.422t.593-.422q.36-.187 1.094-.312.734-.14 1.734-.14t1 .437q0 .187-.156.437-.14.25-1.734 2.688-1.578 2.437-3.188 5.062-1.593 2.61-3.375 5.672-1.78 3.063-2.906 5.594-1.11 2.531-1.11 3.703-.202.562-.827.562-1.829 0-2.532-.296-.703-.297-.703-.907 0-1.031 2.219-4.828 2.219-3.797 2.219-4.61 0-.812-.672-1.218-.672-.406-2.235-.406-1.562 0-2.171.031-1.125 1.844-2.594 4.719-1.469 2.86-2.469 4.687-1 1.828-1.594 2.297-1.234.938-3.03.938-1.032 0-1.032-.532 0-.296.875-1.78.89-1.485 2.844-4.673 1.968-3.187 3.406-5.578l-2.031.094q-.5 0-.5-.266 0-.562.718-1.125.72-.578 1.172-.734.469-.172 1.938-.234 1.234-2.11 3.172-5.844.734-1.594.734-2.86zm21.828 11.063-2.828-.094q-2.11 0-3.234 1.36-.797 1-2.125 3.265-1.313 2.266-1.313 3.61 0 1.218 2.438 1.218 1.5 0 3.203-.562 3.422-1.125 5.422-4.328.234-.297.797-.297.578 0 .578.656 0 .64-1.078 2.703-1.063 2.063-1.89 3.11-.438.53-1.688.593-1.25.063-3.813.063h-3.266l-1.906-.031-.89-.063h-.235q-.203 0-.5.297-1.11.969-3.14.969-.97 0-.97-.438v-.094q0-.375 2.313-4.359 2.328-3.984 5.157-8.875 2.843-4.906 3.64-6.719.797-1.812.797-3.11v-.374q0-.563 7.094-.563 2.344 0 4.062.063.5-.563 2.578-.563.86 0 .86.438 0 .766-1.516 3.078-1.515 2.313-2.64 3.156-.375.297-.938.297-.562 0-.562-.234 0-.11.093-.266.532-1.031.532-2.344 0-1.828-2.532-1.828-1.53 0-2.422.813-.875.797-1.75 2.234-.859 1.422-1.28 2.453-.407 1.032-.407 1.297 0 .797.781.985.781.187 3.11.187l2.468-.094q.328 0 .328.25t-.359.828q-.344.579-.703.813-.734.5-2.266.5zm7.161 11.234-.469-.031q-.453 0-.687.297-1.14.969-3.078.969-1 0-1-.438v-.094q0-.375 2.312-4.359 2.328-3.984 5.14-8.875 2.813-4.906 3.626-6.734.828-1.828.828-3.032v-.437q0-.86 3.562-.86 1.797 0 1.797.657 0 .265-.265.547-2.657 4.328-7.063 12.359l-.469.828q-.468.844-.672 1.188-.187.343-.609 1.203-.422.844-.61 1.375-.577 1.5-.577 2.344 0 1.218 2.203 1.218h.234q1.36 0 3-.562 3.203-1.125 5.203-4.328.125-.297.735-.297.625 0 .625.531 0 .797-1.063 2.875-1.062 2.063-1.937 3.063-.422.593-1.657.593-1.234.063-5.343.063l-3.766-.063zm17.43 0-.468-.031q-.453 0-.688.297-1.14.969-3.078.969-1 0-1-.438v-.094q0-.375 2.313-4.359 2.328-3.984 5.14-8.875 2.813-4.906 3.625-6.734.828-1.828.828-3.032v-.437q0-.86 3.563-.86 1.797 0 1.797.657 0 .265-.266.547-2.656 4.328-7.062 12.359l-.47.828q-.468.844-.671 1.188-.187.343-.61 1.203-.421.844-.609 1.375-.578 1.5-.578 2.344 0 1.218 2.203 1.218h.235q1.359 0 3-.562 3.203-1.125 5.203-4.328.125-.297.734-.297.625 0 .625.531 0 .797-1.062 2.875-1.063 2.063-1.938 3.063-.422.593-1.656.593-1.234.063-5.344.063l-3.765-.063zm36.694-18.203q0 1.875-.75 4.281-.75 2.391-2.22 4.891-1.452 2.5-3.374 4.625-1.922 2.11-4.547 3.469-2.61 1.344-5.39 1.344-2.782 0-4.376-1.547-1.593-1.563-1.593-4.297 0-1.86.734-4.25.75-2.406 2.219-4.906 1.468-2.5 3.375-4.594 1.922-2.11 4.531-3.453 2.625-1.36 5.406-1.36 2.797 0 4.39 1.532 1.595 1.53 1.595 4.265zm-3.922-.297q0-3.672-2.672-3.672-2.235 0-4.985 2.844-2.75 2.828-4.671 6.844-1.907 4.016-1.907 7.187 0 3.657 2.672 3.657 2.188 0 4.953-2.828 2.766-2.829 4.688-6.844 1.922-4.016 1.922-7.188zm18.39-3.86-.032-.733q0-.907 3.094-.907 1.937 0 1.937.969 0 .172-.062.234-.234 1.297-2.64 8.297-2.391 7-2.391 7.719 0 .719.656.719.5 0 .766-.266l1.171-1.172q.704-.703 3.829-5.047 3.14-4.343 5.03-7.515.641-1.266 4.204-1.266.906 0 .906.563l-.234.64q-1 2.032-2.703 7.172-1.703 5.125-1.703 6.016 0 .875.671.875.5 0 .766-.266l.938-.937q1.234-1.235 5.406-7.047 4.187-5.813 5.656-8.688.36-.734.828-.968.844-.391 2.938-.47h.672q1.734 0 1.734.579 0 .234-.313.531-3.265 3.094-9.578 10.516-6.312 7.406-8.578 10.719-.469.687-.734 1-.266.296-.875.687-1.125.734-3.953.734-1.64 0-1.64-.796l.108-.36q.188-.64.72-2.14.546-1.5.905-2.532.375-1.031.797-2.265.844-2.5.844-3.063 0-.578-.5-.578-.547 0-1.203.813-2.64 3.125-6.406 8.5-.625.89-1 1.28-.36.376-1.532.75-1.171.391-2.921.391-1.735 0-1.735-.796l.094-.36q1.172-3.375 3.11-9.703 1.952-6.328 2.656-9.297.296-1.703.296-2.531zm44.69 4.157q0 1.875-.75 4.281-.75 2.391-2.22 4.891-1.453 2.5-3.374 4.625-1.922 2.11-4.547 3.469-2.61 1.344-5.391 1.344t-4.375-1.547q-1.594-1.563-1.594-4.297 0-1.86.735-4.25.75-2.406 2.218-4.906 1.47-2.5 3.375-4.594 1.922-2.11 4.532-3.453 2.625-1.36 5.406-1.36 2.797 0 4.39 1.532 1.594 1.53 1.594 4.265zm-3.923-.297q0-3.672-2.671-3.672-2.235 0-4.985 2.844-2.75 2.828-4.672 6.844-1.906 4.016-1.906 7.187 0 3.657 2.672 3.657 2.187 0 4.953-2.828 2.766-2.829 4.688-6.844 1.921-4.016 1.921-7.188zm15.158 17.266.062 1q0 .531-1.594.531-2.796 0-2.796-1.062 0-1.063 1.484-4.594 1.484-3.547 1.484-4.406 0-1.766-2.172-1.766l-.53.031q-.407 0-.407-.297 0-.64.484-1.28.485-.657 1.219-.657 3.031 0 5.422-1.797 2.406-1.797 2.406-3.797 0-1.437-.89-2-.875-.562-2.407-.562-1.531 0-2.328.922-1.969 2.468-6.328 10.328-4.344 7.843-4.875 9.64-.297.828-1.547 1.219-1.25.406-2.437.406-1.172 0-1.172-.453v-.078q0-.36 2.297-4.25 2.297-3.906 5.078-8.687 2.781-4.782 3.594-6.61.828-1.844.828-3.11v-.327q0-.907 5.062-.907 5.438 0 7.156 1.094.735.469 1.25 1.375.516.89.516 2.297 0 1.406-1.14 2.844-1.126 1.422-2.407 2.11-1.281.671-2.547.984-1.265.296-1.906.5-.625.187-.625.625 0 .265.484.656.485.375.985.922.5.53.5 1.125 0 .593-1.11 3.453-1.093 2.844-1.093 4.578zm6.296 1.234-.469-.031q-.453 0-.688.297-1.14.969-3.078.969-1 0-1-.438v-.094q0-.375 2.313-4.359 2.328-3.984 5.14-8.875 2.813-4.906 3.625-6.734.829-1.828.829-3.032v-.437q0-.86 3.562-.86 1.797 0 1.797.657 0 .265-.266.547-2.656 4.328-7.062 12.359l-.469.828q-.469.844-.672 1.188-.187.343-.61 1.203-.421.844-.609 1.375-.578 1.5-.578 2.344 0 1.218 2.203 1.218h.235q1.36 0 3-.562 3.203-1.125 5.203-4.328.125-.297.734-.297.625 0 .625.531 0 .797-1.062 2.875-1.063 2.063-1.938 3.063-.422.593-1.656.593-1.234.063-5.344.063l-3.765-.063zm20.837.532q-1.766 0-2.266-.125-.5-.11-.86-.204-.343-.078-.453-.109-.093-.031-.296-.031-.391 0-.72.203-1.171.969-3.077.969-1 0-1-.453 0-.454 2.312-4.454 2.328-4 5.14-8.89 2.813-4.906 3.626-6.735.828-1.828.828-3.171v-.266q0-.969 5.562-.969 8.266 0 8.266 5.64 0 4.063-2.766 8.97-1.437 2.562-3.375 4.703-1.921 2.125-4.812 3.53-2.875 1.392-6.11 1.392zm10.968-11.407q1.235-2.39 1.875-4.468.657-2.094.657-3.5 0-1.422-.829-2.157-.812-.734-2.75-.734-1.328 0-2.125.937-2.093 2.625-6.062 9.72-3.969 7.077-3.969 8.28 0 1.329 2.828 1.329 2 0 4.032-1.391 2.03-1.406 3.562-3.516 1.547-2.125 2.781-4.5zM547.93 327.63q-.437.797-1.453.797-1.015 0-1.328-.281-.312-.281-.312-1.5 0-1.219 1.296-5.672 1.297-4.453 1.297-5.125 0-.687-.265-.687-.39 0-1 .687-.594.672-1 1.344l-.39.703q-2.142 3.469-3.892 6.953-1.75 3.485-2.562 5.094-.813 1.61-1.422 2.047-.594.437-1.719.437-1.11 0-1.11-.5v-.093q0-.344 1.735-3.11 6.39-10.156 9.625-16.594.766-1.53.766-2.875v-.39q0-.61 1.375-.969 1.39-.36 2.297-.36h1.094q1.406 0 2.078.532.297.187.297.531 0 .328-1.329 4.61-1.312 4.28-1.312 5.156 0 .86.266.86.843 0 2.937-2.048 2.094-2.047 4.797-4.922 2.203-2.39 4.203-4.125.438-.406 1.031-.468 1.297-.203 2.782-.203 1.484 0 1.484.671 0 .125-.016.204-.015.062-1.25 2.015-1.234 1.953-3 4.844-1.765 2.875-3.53 5.953-1.767 3.078-3 5.86-1.235 2.78-1.235 4.093-.297.563-.938.563-3.297 0-3.297-1.172 0-2.703 6.703-12.969.86-1.297.86-1.625 0-.328-.5-.328-1.266 0-5.328 4.516-4.063 4.515-5.735 7.546zm16.906 1.891q2.531 0 5.266-4.36 3.765-6.062 7.328-13.171.734-1.5.734-2.86v-.437q0-.86 3.563-.86 1.796 0 1.796.657 0 .265-.578.984t-3.297 5.313q-2.718 4.578-3.5 6.03-.78 1.438-1.468 2.767-.688 1.312-1.047 1.968-.344.64-.86 1.594-.515.953-.843 1.375-.328.406-.844 1.016-.516.593-.984.843-.47.25-1.094.563-.61.312-1.344.422-1.969.265-3.484.265-1.516 0-2.516-.578-.14-.062-.328-.062-.172 0-.297.11-.906.562-2.172.562-1.265 0-1.265-.641 0-.969 2.546-5.016 2.547-4.046 4.25-4.937.36-.234.985-.234.64 0 .64.359 0 .062-.703 1.203-.687 1.125-1.375 2.719-.687 1.578-.687 2.5 0 .906.422 1.406.422.5 1.156.5zm18.563 2.313q-2.797 0-4.406-1.547-1.594-1.563-1.594-4.297 0-1.86.75-4.25.75-2.406 2.203-4.906 1.469-2.5 3.39-4.594 1.922-2.11 4.532-3.453 2.625-1.36 5.406-1.36 2.781 0 4.375 1.532 1.61 1.53 1.61 4.578 0 3.03-2.313 7.547-2.297 4.515-5.625 7.046-1.328 1.032-1.328 1.625 0 .172.125.594.14.406.14.844 0 1.14-.796 2.36-.782 1.234-1.704 1.234l-.109-.094q-.062-.203-.125-.563-.375-2.609-1.797-2.609l-.437.078q-.907.235-2.297.235zm4.86-10.047q.234 0 .296.343 0 .125.11 1.032.124.906.234 1.359.125.438.265.766.297.78.766.78.703 0 2.078-2.14 1.39-2.14 2.547-5.343 1.172-3.22 1.172-5.657 0-3.672-2.672-3.672-2.187 0-4.969 2.844-2.765 2.828-4.687 6.844-1.906 4.016-1.906 7.187 0 .704.109 1.391.125.672.766 1.469.656.797 1.796.797 2.032 0 2.032-.766 0-.328-.375-.953-.36-.64-.36-1.5 0-1.61 1.078-3.188 1.094-1.593 1.72-1.593zm15.203 10.047q-2.797 0-4.406-1.547-1.594-1.563-1.594-4.297 0-1.86.75-4.25.75-2.406 2.203-4.906 1.47-2.5 3.391-4.594 1.922-2.11 4.531-3.453 2.625-1.36 5.407-1.36 2.78 0 4.375 1.532 1.609 1.53 1.609 4.578 0 3.03-2.313 7.547-2.296 4.515-5.625 7.046-1.328 1.032-1.328 1.625 0 .172.125.594.141.406.141.844 0 1.14-.797 2.36-.781 1.234-1.703 1.234l-.11-.094q-.062-.203-.124-.563-.375-2.609-1.797-2.609l-.438.078q-.906.235-2.297.235zm4.86-10.047q.234 0 .297.343 0 .125.109 1.032.125.906.234 1.359.125.438.266.766.297.78.766.78.703 0 2.078-2.14 1.39-2.14 2.547-5.343 1.171-3.22 1.171-5.657 0-3.672-2.671-3.672-2.188 0-4.97 2.844-2.765 2.828-4.687 6.844-1.906 4.016-1.906 7.187 0 .704.11 1.391.124.672.765 1.469.656.797 1.797.797 2.031 0 2.031-.766 0-.328-.375-.953-.36-.64-.36-1.5 0-1.61 1.079-3.188 1.094-1.593 1.719-1.593zm30-14.36q.47 0 .47.657 0 .64-1.313 3.015-1.297 2.36-2.156 3.563-.532.797-1.25.797-.72 0-.72-.47l.032-.296q.438-1.625.438-2.766 0-1.734-.938-1.734-.406 0-.812.281-.39.281-.594.594l-.188.297q-.468.765-5.64 9.531-1.156 2-2.39 4.547-1.235 2.547-2 4-.766 1.453-1.548 2.062-.765.625-2.484.625-1.703 0-1.703-.578v-.093q0-.329 1.765-3.125 6.5-10.235 9.829-16.735.296-.61.296-.875 0-.422-.562-.422-1.828 0-5.594 4.125-.375.672-1.703.672-.297 0-.297-.297 0-.234.422-.968l.672-1.204q2.937-5.14 3.828-5.14 1.734 0 2.61.672 2.328-.063 4.296-.063 1.97 0 3.89.063 1.673-.735 3.345-.735zm17.873 21.453q-1.485 1.344-3.86 2.204-2.359.843-4.593.843-2.219 0-3.172-.218-.953-.22-1.125-.22-.328 0-.656.204-1.063.969-2.563.969-1.5 0-1.5-.532 0-.375 2.313-4.375 2.312-4 5.125-8.89 2.828-4.906 3.64-6.735.813-1.828.813-3.171v-.266q0-.89 5.172-.89 4.734 0 6.062.5 1.734.656 2.156 1.765.282.656.282 1.594 0 1.5-1.11 2.828-2.031 2.406-5.265 3.172-1.235.297-1.47.5-.234.203-.234.422 0 .218.485.53l1.062.688q.594.36 1.078 1.203.485.829.485 2.11t-.828 2.844q-.813 1.562-2.297 2.921zm-2.906-1.812q.968-1.172 1.515-2.375.547-1.203.547-2.016 0-.812-.25-1.39-.25-.594-.594-.891-.328-.297-.797-.469-.687-.265-1.39-.265h-.344q-.422 0-.422-.297 0-.703.516-1.485.515-.78 1.187-.78 2.688 0 4.813-1.798 2.14-1.812 2.14-3.843 0-1.766-2.328-1.766-1.937 0-2.703.937-2.094 2.594-6.062 9.688-3.969 7.078-3.969 8.312 0 .5.547.875.562.36 2 .36 1.453 0 3.031-.813 1.594-.828 2.563-1.984zm29.727-19.64q.468 0 .468.656 0 .64-1.312 3.015-1.297 2.36-2.156 3.563-.532.797-1.25.797-.719 0-.719-.47l.031-.296q.438-1.625.438-2.766 0-1.734-.938-1.734-.406 0-.812.281-.39.281-.594.594l-.188.297q-.468.765-5.64 9.531-1.156 2-2.39 4.547-1.235 2.547-2 4-.766 1.453-1.548 2.062-.765.625-2.484.625-1.703 0-1.703-.578v-.093q0-.329 1.765-3.125 6.5-10.235 9.829-16.735.296-.61.296-.875 0-.422-.562-.422-1.828 0-5.594 4.125-.375.672-1.703.672-.297 0-.297-.297 0-.234.422-.968l.672-1.204q2.937-5.14 3.828-5.14 1.734 0 2.61.672 2.328-.063 4.296-.063 1.97 0 3.891.063 1.672-.735 3.344-.735zm-3.439 1.64-.031-.734q0-.907 3.094-.907 1.937 0 1.937.969 0 .172-.062.234-.235 1.297-2.64 8.297-2.391 7-2.391 7.719 0 .719.656.719.5 0 .765-.266l1.172-1.172q.703-.703 3.828-5.047 3.141-4.343 5.032-7.515.64-1.266 4.203-1.266.906 0 .906.563l-.234.64q-1 2.032-2.703 7.172-1.704 5.125-1.704 6.016 0 .875.672.875.5 0 .766-.266l.937-.937q1.235-1.235 5.407-7.047 4.187-5.813 5.656-8.688.36-.734.828-.968.844-.391 2.938-.47h.671q1.735 0 1.735.579 0 .234-.313.531-3.265 3.094-9.578 10.516-6.312 7.406-8.578 10.719-.469.687-.734 1-.266.296-.875.687-1.125.734-3.953.734-1.641 0-1.641-.796l.11-.36q.187-.64.718-2.14.547-1.5.906-2.532.375-1.031.797-2.265.844-2.5.844-3.063 0-.578-.5-.578-.547 0-1.203.813-2.64 3.125-6.406 8.5-.625.89-1 1.28-.36.376-1.532.75-1.172.391-2.922.391-1.734 0-1.734-.796l.094-.36q1.172-3.375 3.11-9.703 1.952-6.328 2.655-9.297.297-1.703.297-2.531zm26.303 22.766q-2.797 0-4.407-1.547-1.593-1.563-1.593-4.297 0-1.86.75-4.25.75-2.406 2.203-4.906 1.469-2.5 3.39-4.594 1.922-2.11 4.532-3.453 2.625-1.36 5.406-1.36 2.781 0 4.375 1.532 1.61 1.53 1.61 4.578 0 3.03-2.313 7.547-2.297 4.515-5.625 7.046-1.328 1.032-1.328 1.625 0 .172.125.594.14.406.14.844 0 1.14-.797 2.36-.78 1.234-1.703 1.234l-.11-.094q-.062-.203-.124-.563-.375-2.609-1.797-2.609l-.437.078q-.907.235-2.297.235zm4.859-10.047q.234 0 .297.343 0 .125.11 1.032.124.906.234 1.359.125.438.265.766.297.78.766.78.703 0 2.078-2.14 1.39-2.14 2.547-5.343 1.172-3.22 1.172-5.657 0-3.672-2.672-3.672-2.188 0-4.969 2.844-2.765 2.828-4.687 6.844-1.907 4.016-1.907 7.187 0 .704.11 1.391.125.672.765 1.469.657.797 1.797.797 2.032 0 2.032-.766 0-.328-.375-.953-.36-.64-.36-1.5 0-1.61 1.078-3.188 1.094-1.593 1.719-1.593zm11.938 7.734q0 .672.079 1.016.078.328.078.484 0 .766-3.25.766t-3.25-.766l.203-.39q1.14-.672 4.531-6.188 3.406-5.516 6.906-12.453.735-1.453.735-2.766v-.531q0-.86 3.562-.86 1.797 0 1.797.657 0 .265-.266.547-2.265 2.922-6.703 10.968-4.422 8.047-4.422 9.516z"/><defs><radialGradient id="b" gradientUnits="userSpaceOnUse" gradientTransform="scale(8.32987)" spreadMethod="pad" cx="52.294" cy="38.386" fx="52.294" fy="38.386" r="8.33"><stop offset="0" stop-color="#dcecd5"/><stop offset="1" stop-color="#93bc81"/></radialGradient></defs><path fill="url(#b)" d="M369.661 308.944H479.93V298.14l21.606 21.607-21.606 21.606V330.55H369.661z" fill-rule="evenodd"/><path stroke="#38761d" stroke-linejoin="round" stroke-linecap="butt" d="M369.661 308.944H479.93V298.14l21.606 21.607-21.606 21.606V330.55H369.661z"/><path fill="#c27ba0" d="M68.43 97.869c0 10.698 9.918 20.292 24.953 24.139v-5.11l14.008 15.85-14.008 12.388v-5.109c-15.035-3.846-24.953-13.44-24.953-24.139z" fill-rule="evenodd"/><path fill="#9b627f" d="M107.391 90.02c-16.284 0-30.85 6.724-36.521 16.859-4.443-7.94-2.75-16.822 4.532-23.777C82.684 76.147 94.634 72 107.392 72z" fill-rule="evenodd"/><path fill="none" d="M68.43 97.869c0 10.698 9.918 20.292 24.953 24.139v-5.11l14.008 15.85-14.008 12.388v-5.109c-15.035-3.846-24.953-13.44-24.953-24.139v-18.02C68.43 83.583 85.874 72 107.391 72v18.02c-16.284 0-30.85 6.724-36.521 16.859"/><path stroke="#741b47" stroke-linejoin="round" stroke-linecap="butt" d="M68.43 97.869c0 10.698 9.918 20.292 24.953 24.139v-5.11l14.008 15.85-14.008 12.388v-5.109c-15.035-3.846-24.953-13.44-24.953-24.139v-18.02C68.43 83.583 85.874 72 107.391 72v18.02c-16.284 0-30.85 6.724-36.521 16.859"/><path fill="#d5a6bd" d="M12.543 81.102h48.063v48.977H12.543z" fill-rule="evenodd"/><path stroke="#741b47" stroke-width="3" stroke-linejoin="round" stroke-linecap="butt" d="M12.543 81.102h48.063v48.977H12.543z"/><path fill="none" d="M8.417 81.102h56.315v43.213H8.417z"/><path fill="#a64d79" d="m31.605 105.361-3.828-.016v-.421q-.453 1.734-1.5 3.53-.64 1.063-2.125 1.063-1.172 0-1.172-.875l.234-.5q.719-1.093 1.719-2.828h-.438l-3.03.078q-.829 0-.829-.734 0-.484.64-1.266.657-.797 1.61-.797l3.563.016q.703-1.312 1.765-3.11.625-1.062 2.094-1.062 1.187 0 1.187.875l-.234.5q-1.047 1.625-1.703 2.828l.906.016q1.219 0 1.86-.047.656-.047.687-.047.844 0 .844.735 0 .484-.656 1.28-.641.782-1.594.782zm7.584 1.906.015-.5q.125-.109.125.016-.14 0-.468.281-1.344 1.156-2.844 2.75-1.485 1.578-1.985 2.25-.5.672-.703.89-.203.204-1 .485-.781.297-2 .297-1.218 0-1.218-.781 0-.828 9.609-8.953.672-.532.703-1.407.094-1.75.094-2.593 0-2.36-.375-3.5l-.156-.438q0-.984 2.28-.984 1.032 0 1.563.406.532.39.532 1.266 0 .875-.172 3.281-.047.187-.047.14.047 0 .219-.14 3.14-2.781 3.718-3.531.578-.75 1.063-.969.812-.328 2.203-.375h.422q1.687 0 1.687.875 0 .516-.593.844-3.016 1.703-7.985 5.781l-.281.187q-.125.079-.39.5-.25.407-.282.875-.172 3.016-.172 4.97 0 2.124.297 2.702.14.282.14.532 0 .765-.968.968-.953.203-1.781.203t-1.141-.453q-.312-.468-.312-1.437 0-.969.203-4.438z"/><path fill="none" d="M402.168 298.142h85.04v28.661h-85.04z"/><path fill="#38761d" d="M416.934 319.593q.64 0 2.14-1.64 0-.032.125-.157.14-.125.64-.281.5-.156 1.25-.156t.75.265q0 .14-.812.625-.797.485-1.765 1.047-.969.547-1.782 1.297-.796.75-.796 1.375 0 1 .109 1.86.125.859.234 1.218l.11.344q0 .266-.297.266-1.703 0-1.703-.688v-.234q0-2.25-.36-2.25-.359 0-1.047.718-.671.704-1.156 1.407l-.484.703q-.406.484-1.422.484-.344 0-.531-.078-.188-.063-.203-.14v-.047q0-.282 1.671-1.766 1.688-1.5 2.72-2.281.53-.422.53-1.016 0-.61-.078-1.078-.062-.469-.172-.625-.093-.156-.171-.266-.079-.11-.079-.187 0-.281.579-.5.593-.235.953-.235.375 0 .5.063.234.078.234 1.016 0 .937.313.937zm16.667-3.125 2-.063q.25 0 .25.172 0 .25-.407.75-.39.485-.953.485l-5.484-.047-2.375.047q-.281 0-.281-.172 0-.266.39-.75t.969-.484l5.89.062zm-2.157 3 2.407-.047q.265 0 .265.172 0 .25-.406.734-.39.485-.953.485l-5.485-.047-2.406.062q-.265 0-.265-.187 0-.25.39-.734.406-.485.969-.485l5.484.047zm18.321-7.453q.234 0 .234.312 0 .313-.468 1.047-.47.719-.782.89-.187.11-.546.11-.36 0-1.157-.078-.78-.078-1.28-.078t-.938.219q-.422.219-.688.515-.61.657-.812 1.157l-.094.203q0 .281.281.281.094 0 .516-.063.422-.062.703-.062.281 0 .61.078.343.078.765.297.437.203.719.656.296.453.296 1.125 0 .672-.296 1.547-.282.875-.86 1.766-.562.875-1.328 1.61-.766.733-1.812 1.187-1.047.453-2.188.453-3 0-3-.86 0-.265.484-1.265.485-1 1.22-1.969.734-.969 1.28-.969.282 0 .282.14 0 .017-.078.173-.079.14-.188.406-.094.266-.203.563-.266.687-.266 1.359 0 1.234 1.203 1.234.782 0 1.641-.812.86-.813 1.406-1.985.547-1.171.547-2.203 0-1.36-1.937-1.36-.875 0-1.532.188l-.234.047q-.234 0-.234-.187v-.047q.03-.281 1.578-2.766 1.562-2.484 1.875-2.484.25-.14 1.39-.14 1.157 0 2.266.062.563-.297 1.625-.297z"/></g></svg>