<svg viewBox="0 0 1009.307 436.06" fill="none" stroke-linecap="square" stroke-miterlimit="10" xmlns="http://www.w3.org/2000/svg"><clipPath id="a"><path d="M0 0h1009.307v436.06H0V0z"/></clipPath><g clip-path="url(#a)"><path fill="none" d="M0 0h1009.307v436.06H0z"/><path fill="#76a5af" d="m783.787 347.154 43.197-46.2v21.599c62.195-8.787 110.348-35.728 125.022-69.947 21.458 50.04-34.072 100.294-125.022 113.144v21.598z" fill-rule="evenodd"/><path fill="#5e838b" d="M956.575 274.205c0-52.217-77.36-94.548-172.788-94.548v-43.196c95.428 0 172.788 42.33 172.788 94.547z" fill-rule="evenodd"/><path fill="none" d="M956.575 274.205c0-52.217-77.36-94.548-172.788-94.548v-43.196c95.428 0 172.788 42.33 172.788 94.547v43.197c0 43.113-53.302 80.766-129.59 91.545v21.598l-43.198-40.194 43.197-46.2v21.599c62.195-8.787 110.348-35.728 125.022-69.947"/><path stroke="#134f5c" stroke-linejoin="round" stroke-linecap="butt" d="M956.575 274.205c0-52.217-77.36-94.548-172.788-94.548v-43.196c95.428 0 172.788 42.33 172.788 94.547v43.197c0 43.113-53.302 80.766-129.59 91.545v21.598l-43.198-40.194 43.197-46.2v21.599c62.195-8.787 110.348-35.728 125.022-69.947"/><path fill="#d9ead3" d="M38.638 285.336h733.921v134.898H38.638z" fill-rule="evenodd"/><path stroke="#6aa84f" stroke-width="4" stroke-linejoin="round" stroke-linecap="butt" d="M38.638 285.336h733.921v134.898H38.638z"/><path fill="none" d="M49.677 306.344H794.15V411.1H49.677z"/><path fill="#38761d" d="M70.677 325.281v-.437q0-.86 3.563-.86 1.797 0 1.797.657 0 .265-.266.547-1.266 1.718-5.39 8.765l4.124.031q1.375 0 2.5-1.109.563-.594 1.016-1.11.453-.515 1.016-1.484.578-.968.906-1.53.469-.845 1.625-3.204 0-.172.25-.422t.594-.422q.359-.187 1.093-.312.735-.14 1.735-.14t1 .437q0 .187-.157.437-.14.25-1.734 2.688-1.578 2.437-3.187 5.062-1.594 2.61-3.375 5.672-1.782 3.062-2.907 5.594-1.11 2.531-1.11 3.703-.202.562-.827.562-1.828 0-2.531-.297-.704-.296-.704-.906 0-1.031 2.22-4.828 2.218-3.797 2.218-4.61 0-.812-.672-1.218-.672-.406-2.234-.406-1.563 0-2.172.031-1.125 1.844-2.594 4.719-1.469 2.86-2.469 4.687-1 1.828-1.593 2.297-1.235.938-3.032.938-1.031 0-1.031-.532 0-.297.875-1.78.89-1.485 2.844-4.673 1.969-3.187 3.406-5.578l-2.031.094q-.5 0-.5-.266 0-.562.719-1.125.718-.578 1.171-.734.47-.172 1.938-.235 1.234-2.109 3.172-5.843.734-1.594.734-2.86zm21.829 11.063-2.829-.094q-2.109 0-3.234 1.36-.797 1-2.125 3.265-1.312 2.266-1.312 3.61 0 1.218 2.437 1.218 1.5 0 3.203-.562 3.422-1.125 5.422-4.328.234-.297.797-.297.578 0 .578.656 0 .64-1.078 2.703-1.063 2.063-1.89 3.11-.438.53-1.688.593-1.25.063-3.813.063H83.71l-1.907-.032-.89-.062h-.235q-.203 0-.5.297-1.109.969-3.14.969-.969 0-.969-.438v-.094q0-.375 2.313-4.359 2.328-3.984 5.156-8.875 2.844-4.906 3.64-6.719.797-1.812.797-3.11v-.374q0-.563 7.094-.563 2.344 0 4.063.063.5-.563 2.578-.563.859 0 .859.438 0 .765-1.516 3.078-1.515 2.312-2.64 3.156-.375.297-.938.297-.562 0-.562-.234 0-.11.094-.266.53-1.031.53-2.344 0-1.828-2.53-1.828-1.532 0-2.422.813-.875.797-1.75 2.234-.86 1.422-1.282 2.453-.406 1.031-.406 1.297 0 .797.781.984.782.188 3.11.188l2.469-.094q.328 0 .328.25t-.36.828q-.343.578-.703.813-.734.5-2.265.5zm7.16 11.234-.469-.031q-.453 0-.687.297-1.14.969-3.078.969-1 0-1-.438v-.094q0-.375 2.312-4.359 2.328-3.984 5.14-8.875 2.813-4.906 3.626-6.734.828-1.829.828-3.032v-.437q0-.86 3.563-.86 1.796 0 1.796.657 0 .265-.265.547-2.656 4.328-7.063 12.359l-.468.828q-.47.844-.672 1.188-.188.343-.61 1.203-.422.843-.61 1.375-.577 1.5-.577 2.343 0 1.22 2.203 1.22h.234q1.36 0 3-.563 3.203-1.125 5.203-4.328.125-.297.735-.297.625 0 .625.531 0 .797-1.063 2.875-1.062 2.062-1.937 3.062-.422.594-1.656.594-1.235.063-5.344.063l-3.766-.063zm17.43 0-.468-.031q-.453 0-.688.297-1.14.969-3.078.969-1 0-1-.438v-.094q0-.375 2.313-4.359 2.328-3.984 5.14-8.875 2.813-4.906 3.625-6.734.829-1.829.829-3.032v-.437q0-.86 3.562-.86 1.797 0 1.797.657 0 .265-.266.547-2.656 4.328-7.062 12.359l-.469.828q-.469.844-.672 1.188-.187.343-.61 1.203-.421.843-.609 1.375-.578 1.5-.578 2.343 0 1.22 2.203 1.22h.235q1.36 0 3-.563 3.203-1.125 5.203-4.328.125-.297.734-.297.625 0 .625.531 0 .797-1.062 2.875-1.063 2.062-1.938 3.062-.422.594-1.656.594-1.234.063-5.344.063l-3.765-.063zm36.694-18.203q0 1.875-.75 4.281-.75 2.391-2.219 4.891-1.453 2.5-3.375 4.625-1.922 2.11-4.547 3.469-2.61 1.343-5.39 1.343-2.782 0-4.375-1.546-1.594-1.563-1.594-4.297 0-1.86.734-4.25.75-2.407 2.219-4.907 1.469-2.5 3.375-4.593 1.922-2.11 4.531-3.453 2.625-1.36 5.406-1.36 2.797 0 4.391 1.531 1.594 1.532 1.594 4.266zm-3.922-.297q0-3.672-2.672-3.672-2.234 0-4.984 2.844-2.75 2.828-4.672 6.844-1.906 4.015-1.906 7.187 0 3.657 2.671 3.657 2.188 0 4.954-2.829 2.765-2.828 4.687-6.843 1.922-4.016 1.922-7.188zm18.39-3.86-.032-.734q0-.906 3.094-.906 1.938 0 1.938.969 0 .172-.063.234-.234 1.297-2.64 8.297-2.391 7-2.391 7.719 0 .719.656.719.5 0 .766-.266l1.172-1.172q.703-.703 3.828-5.047 3.14-4.343 5.031-7.515.64-1.266 4.203-1.266.906 0 .906.563l-.234.64q-1 2.031-2.703 7.172-1.703 5.125-1.703 6.016 0 .875.672.875.5 0 .765-.266l.938-.937q1.234-1.235 5.406-7.047 4.188-5.813 5.656-8.688.36-.734.828-.969.844-.39 2.938-.468h.672q1.734 0 1.734.578 0 .234-.312.531-3.266 3.094-9.578 10.516-6.313 7.406-8.579 10.718-.468.688-.734 1-.266.297-.875.688-1.125.734-3.953.734-1.64 0-1.64-.797l.109-.359q.187-.64.718-2.14.547-1.5.907-2.532.375-1.031.797-2.265.843-2.5.843-3.063 0-.578-.5-.578-.547 0-1.203.812-2.64 3.125-6.406 8.5-.625.891-1 1.282-.36.375-1.531.75-1.172.39-2.922.39-1.735 0-1.735-.797l.094-.359q1.172-3.375 3.11-9.703 1.953-6.328 2.656-9.297.297-1.703.297-2.531zm44.69 4.157q0 1.875-.75 4.281-.75 2.391-2.22 4.891-1.452 2.5-3.374 4.625-1.922 2.11-4.547 3.469-2.61 1.343-5.39 1.343-2.782 0-4.376-1.546-1.594-1.563-1.594-4.297 0-1.86.735-4.25.75-2.407 2.219-4.907 1.468-2.5 3.375-4.593 1.921-2.11 4.53-3.453 2.626-1.36 5.407-1.36 2.797 0 4.39 1.531 1.594 1.532 1.594 4.266zm-3.922-.297q0-3.672-2.672-3.672-2.235 0-4.985 2.844-2.75 2.828-4.672 6.844-1.906 4.015-1.906 7.187 0 3.657 2.672 3.657 2.188 0 4.953-2.829 2.766-2.828 4.688-6.843 1.922-4.016 1.922-7.188zm15.157 17.266.062 1q0 .531-1.593.531-2.797 0-2.797-1.062 0-1.063 1.484-4.594 1.484-3.547 1.484-4.406 0-1.766-2.171-1.766l-.532.031q-.406 0-.406-.297 0-.64.484-1.28.485-.657 1.22-.657 3.03 0 5.421-1.797 2.406-1.797 2.406-3.797 0-1.437-.89-2-.875-.562-2.407-.562-1.53 0-2.328.921-1.968 2.47-6.328 10.329-4.344 7.843-4.875 9.64-.297.828-1.547 1.219-1.25.406-2.437.406-1.172 0-1.172-.453v-.078q0-.36 2.297-4.25 2.297-3.906 5.078-8.688 2.781-4.78 3.594-6.609.828-1.844.828-3.11v-.327q0-.907 5.062-.907 5.438 0 7.157 1.094.734.469 1.25 1.375.515.89.515 2.297 0 1.406-1.14 2.844-1.125 1.422-2.407 2.11-1.28.671-2.547.983-1.265.297-1.906.5-.625.188-.625.625 0 .266.485.657.484.375.984.922.5.53.5 1.125 0 .593-1.11 3.453-1.093 2.843-1.093 4.578zm6.296 1.234-.469-.031q-.453 0-.687.297-1.141.969-3.078.969-1 0-1-.438v-.094q0-.375 2.312-4.359 2.328-3.984 5.14-8.875 2.813-4.906 3.626-6.734.828-1.829.828-3.032v-.437q0-.86 3.562-.86 1.797 0 1.797.657 0 .265-.265.547-2.657 4.328-7.063 12.359l-.469.828q-.468.844-.672 1.188-.187.343-.609 1.203-.422.843-.61 1.375-.577 1.5-.577 2.343 0 1.22 2.203 1.22h.234q1.36 0 3-.563 3.203-1.125 5.203-4.328.125-.297.735-.297.625 0 .625.531 0 .797-1.063 2.875-1.062 2.062-1.937 3.062-.422.594-1.657.594-1.234.063-5.343.063l-3.766-.063zm20.837.531q-1.766 0-2.266-.125-.5-.109-.86-.203-.343-.078-.452-.109-.094-.031-.297-.031-.39 0-.719.203-1.172.969-3.078.969-1 0-1-.454 0-.453 2.312-4.453 2.328-4 5.141-8.89 2.812-4.907 3.625-6.735.828-1.828.828-3.172v-.265q0-.969 5.563-.969 8.265 0 8.265 5.64 0 4.063-2.765 8.97-1.438 2.562-3.375 4.703-1.922 2.125-4.813 3.53-2.875 1.391-6.11 1.391zm10.968-11.406q1.235-2.39 1.875-4.469.657-2.093.657-3.5 0-1.421-.828-2.156-.813-.734-2.75-.734-1.329 0-2.125.937-2.094 2.625-6.063 9.72-3.969 7.077-3.969 8.28 0 1.328 2.828 1.328 2 0 4.032-1.39 2.031-1.406 3.562-3.516 1.547-2.125 2.781-4.5zM515.568 329.375q0 1.875-.75 4.281-.75 2.391-2.219 4.891-1.453 2.5-3.375 4.625-1.922 2.11-4.547 3.469-2.61 1.343-5.39 1.343-2.782 0-4.375-1.546-1.594-1.563-1.594-4.297 0-1.86.734-4.25.75-2.407 2.219-4.907 1.469-2.5 3.375-4.593 1.922-2.11 4.531-3.453 2.625-1.36 5.406-1.36 2.797 0 4.391 1.531 1.594 1.532 1.594 4.266zm-3.922-.297q0-3.672-2.672-3.672-2.234 0-4.984 2.844-2.75 2.828-4.672 6.844-1.906 4.015-1.906 7.187 0 3.657 2.671 3.657 2.188 0 4.954-2.829 2.765-2.828 4.687-6.843 1.922-4.016 1.922-7.188zm6.829 19.031q-1.766 0-2.266-.125-.5-.109-.859-.203-.344-.078-.453-.109-.094-.031-.297-.031-.39 0-.719.203-1.172.969-3.078.969-1 0-1-.454 0-.453 2.313-4.453 2.328-4 5.14-8.89 2.813-4.907 3.625-6.735.828-1.828.828-3.172v-.265q0-.969 5.563-.969 8.266 0 8.266 5.64 0 4.063-2.766 8.97-1.438 2.562-3.375 4.703-1.922 2.125-4.813 3.53-2.875 1.391-6.109 1.391zm10.969-11.406q1.234-2.39 1.875-4.469.656-2.093.656-3.5 0-1.421-.828-2.156-.813-.734-2.75-.734-1.328 0-2.125.937-2.094 2.625-6.063 9.72-3.968 7.077-3.968 8.28 0 1.328 2.828 1.328 2 0 4.031-1.39 2.031-1.406 3.563-3.516 1.546-2.125 2.78-4.5zm15.29 10.844q-.47 0-.829-.438-.344-.437-.437-.859l-.094-.437q-.11-.375-.5-.375-.375 0-.672.234-3.125 2.469-5.828 2.469-3.469 0-3.469-4.625 0-1.64.844-4.063.86-2.437 2.453-5.078 1.594-2.656 3.61-4.969 2.03-2.328 4.671-3.828 2.657-1.5 5.282-1.5 1.437 0 2.343.5.125.063.282.063.171 0 .343-.094.828-.563 2.125-.563 1.313 0 1.313.625 0 .797-1.672 3.172-2.594 3.703-4.266 3.703-.437 0-.593-.062-.141-.078-.141-.266 0-.203.203-.672.672-1.406.672-2.312 0-.922-.36-1.406-.343-.485-1.453-.485-2 0-4.75 3.016t-4.718 6.969q-1.953 3.953-1.953 6.515 0 2.157 1.796 2.157 1.407 0 3.188-1.422 1.781-1.438 2.922-3.078 1.156-1.657 1.156-2.375 0-.72-.703-1-.703-.282-2.703-.282-.39 0-.39-.297 0-.578.64-1.171.656-.594 1.25-.672 2.406-.157 5.047-.157 2.656 0 2.656.47 0 .39-.453 1.234-.438.828-.735 1.343-.28.516-.828 1.438-.547.906-.89 1.437-.328.532-1.016 1.625-.672 1.078-1.078 1.75-.39.657-.984 1.766-.579 1.094-.844 1.547-.266.453-.438.453zm7.13-8.61q-.234 0-.297-.296 0-.563.797-1.297.797-.735 1.281-.922.485-.203 3.219-.281l.469-.532q10.125-11.687 14.062-11.687.328-.047.766-.047 2.297 0 2.297 1.11 0 .203-.422 1.062l-1.5 3q-1.078 2.125-2.078 4.328-5.39 11.906-6.266 15.61 0 .265-.687.265-.672 0-1.641-.75t-.969-1.328q0-1.031 1.625-3.89 1.64-2.876 1.64-3.735 0-1.172-4.53-1.172-.657 0-2.063.063l-1.266 1.671q-2.328 3.141-4.468 7.766-.36.828-2.235.828-1.86 0-1.86-.531 0-.36 2.08-3.203 2.077-2.86 4.952-6.328-.5.078-1.265.14-.766.063-1.188.11-.422.047-.453.047zm13.828-4.28q1.313-1.579 1.953-3.173.656-1.609.656-2.171 0-.563-.562-.563-1 0-3.313 2.125-2.296 2.11-5 5.266l3.641.078q1.328 0 2.625-1.563zm13.57 5.25.031-.735q0-.656-.531-.656-.438 0-1.094.531-1.906 1.672-4.015 3.89-2.094 2.204-2.782 3.141-.672.938-.89 1.156-.219.204-1.188.563-.969.375-2.25.375-1.281 0-1.281-.39 0-.844 13.094-11.907 1.172-.922 1.234-2.422.14-2.469.14-3.672 0-3.375-.562-5.062l-.172-.5q0-.578 2.47-.578 1.202 0 1.702.39.5.375.5 1.422 0 1.031-.234 4.36 0 .906.625.906.344 0 .765-.375 4.407-3.89 5.188-4.89.781-1 1.281-1.235 1-.406 2.797-.469h.578q1.625 0 1.625.531 0 .297-.469.563-4.234 2.406-11.156 8.062-.172.11-.422.297-.25.172-.687.875-.422.703-.5 1.531-.235 4.204-.235 6.938 0 3.125.47 4.062.14.266.14.438 0 .5-1.016.719-1.015.218-1.953.218-.937 0-1.203-.406t-.266-1.64q0-1.235.266-6.032zm29.598-14.626v-.437q0-.86 3.563-.86 1.797 0 1.797.657 0 .265-.266.547-1.266 1.718-5.39 8.765l4.124.031q1.375 0 2.5-1.109.563-.594 1.016-1.11.453-.515 1.016-1.484.578-.968.906-1.53.469-.845 1.625-3.204 0-.172.25-.422t.594-.422q.36-.187 1.093-.312.735-.14 1.735-.14t1 .437q0 .187-.156.437-.141.25-1.735 2.688-1.578 2.437-3.187 5.062-1.594 2.61-3.375 5.672-1.782 3.062-2.907 5.594-1.109 2.531-1.109 3.703-.203.562-.828.562-1.828 0-2.531-.297-.703-.296-.703-.906 0-1.031 2.218-4.828 2.22-3.797 2.22-4.61 0-.812-.673-1.218-.672-.406-2.234-.406-1.563 0-2.172.031-1.125 1.844-2.594 4.719-1.469 2.86-2.469 4.687-1 1.828-1.593 2.297-1.235.938-3.032.938-1.03 0-1.03-.532 0-.297.874-1.78.89-1.485 2.844-4.673 1.969-3.187 3.406-5.578l-2.031.094q-.5 0-.5-.266 0-.562.719-1.125.718-.578 1.172-.734.468-.172 1.937-.235 1.234-2.109 3.172-5.843.734-1.594.734-2.86zm13.594-.062-.03-.735q0-.906 3.093-.906 1.937 0 1.937.969 0 .172-.062.234-.235 1.297-2.64 8.297-2.391 7-2.391 7.719 0 .719.656.719.5 0 .765-.266l1.172-1.172q.703-.703 3.828-5.047 3.141-4.343 5.032-7.515.64-1.266 4.203-1.266.906 0 .906.563l-.234.64q-1 2.031-2.703 7.172-1.704 5.125-1.704 6.016 0 .875.672.875.5 0 .766-.266l.937-.937q1.235-1.235 5.407-7.047 4.187-5.813 5.656-8.688.36-.734.828-.969.844-.39 2.938-.468h.671q1.735 0 1.735.578 0 .234-.313.531-3.265 3.094-9.578 10.516-6.312 7.406-8.578 10.718-.469.688-.734 1-.266.297-.875.688-1.125.734-3.953.734-1.641 0-1.641-.797l.11-.359q.187-.64.718-2.14.547-1.5.906-2.532.375-1.031.797-2.265.844-2.5.844-3.063 0-.578-.5-.578-.547 0-1.203.812-2.64 3.125-6.406 8.5-.625.891-1 1.282-.36.375-1.532.75-1.172.39-2.922.39-1.734 0-1.734-.797l.094-.359q1.172-3.375 3.11-9.703 1.952-6.328 2.655-9.297.297-1.703.297-2.531zm19.729 13.719q-.235 0-.297-.297 0-.563.797-1.297.797-.735 1.28-.922.485-.203 3.22-.281l.468-.532q10.125-11.687 14.063-11.687.328-.047.766-.047 2.296 0 2.296 1.11 0 .203-.421 1.062l-1.5 3q-1.079 2.125-2.079 4.328-5.39 11.906-6.265 15.61 0 .265-.688.265-.672 0-1.64-.75-.97-.75-.97-1.328 0-1.031 1.626-3.89 1.64-2.876 1.64-3.735 0-1.172-4.53-1.172-.657 0-2.063.063l-1.266 1.671q-2.328 3.141-4.469 7.766-.359.828-2.234.828-1.86 0-1.86-.531 0-.36 2.079-3.203 2.078-2.86 4.953-6.328-.5.078-1.266.14-.765.063-1.187.11-.422.047-.453.047zm13.828-4.282q1.312-1.578 1.953-3.172.656-1.609.656-2.171 0-.563-.562-.563-1 0-3.313 2.125-2.297 2.11-5 5.266l3.64.078q1.329 0 2.626-1.563zm26.797-5.28q0 1.874-.75 4.28-.75 2.391-2.219 4.891-1.453 2.5-3.375 4.625-1.922 2.11-4.547 3.469-2.61 1.343-5.39 1.343-2.782 0-4.375-1.546-1.594-1.563-1.594-4.297 0-1.86.734-4.25.75-2.407 2.219-4.907 1.469-2.5 3.375-4.593 1.922-2.11 4.531-3.453 2.625-1.36 5.406-1.36 2.797 0 4.391 1.531 1.594 1.532 1.594 4.266zm-3.922-.298q0-3.672-2.672-3.672-2.234 0-4.984 2.844-2.75 2.828-4.672 6.844-1.906 4.015-1.906 7.187 0 3.657 2.671 3.657 2.188 0 4.954-2.829 2.765-2.828 4.687-6.843 1.922-4.016 1.922-7.188zm5.5 1.14-.046-3.53q0-1.407-.203-1.797-.188-.407-.188-.672 0-.672 2.61-.672 2.625 0 2.625 1.234 0 .828-.563 4.016-.547 3.187-.578 4.375-.031 1.172.64 1.172.391 0 .891-.438 2.032-1.797 4.563-4.547 2.547-2.75 3.375-3.828.828-1.078 1.406-1.312 1.188-.469 2.86-.531h.562q1.906 0 1.906.593 0 .328-.562.672-2.14 1.235-7.36 5.594-5.218 4.36-7.609 6.937-.969 1.032-3.266 5.313-2.296 4.281-3.14 4.844-.766.672-2.266.672t-1.5-.563v-.11q0-.234 1.11-2.062 3.562-5.828 4-7.328.734-2.406.734-8.031zM62.24 378.938q-.235 0-.297-.297 0-.563.797-1.297.797-.735 1.28-.922.485-.203 3.22-.281l.468-.532q10.125-11.687 14.063-11.687.328-.047.766-.047 2.296 0 2.296 1.11 0 .203-.421 1.062l-1.5 3q-1.079 2.125-2.079 4.328-5.39 11.906-6.265 15.61 0 .265-.688.265-.672 0-1.64-.75-.97-.75-.97-1.328 0-1.031 1.626-3.89 1.64-2.876 1.64-3.735 0-1.172-4.53-1.172-.657 0-2.063.063l-1.266 1.671q-2.328 3.141-4.469 7.766-.359.828-2.234.828-1.86 0-1.86-.531 0-.36 2.079-3.203 2.078-2.86 4.953-6.328-.5.078-1.266.14-.765.063-1.187.11-.422.047-.453.047zm13.828-4.282q1.312-1.578 1.953-3.172.656-1.609.656-2.171 0-.563-.562-.563-1 0-3.313 2.125-2.297 2.11-5 5.266l3.64.078q1.329 0 2.626-1.563zm11.178 11.922q0-1.469 1.078-7.437 1.078-5.969 1.078-6.578 0-.61-.36-.61-.343 0-.937.703-.593.688-1 1.36l-.437.703q-2.656 4.36-6.031 11.562-.657 1.47-1.266 1.875-.594.422-1.719.422-1.11 0-1.11-.5v-.094q0-.437 1.704-3.171 6.5-10.438 9.5-16.5.766-1.532.766-2.766v-.531q0-.235.171-.485.188-.25 1.157-.53.968-.282 2.672-.282 2.562 0 2.562.969 0 .296-1.375 6.468-1.36 6.157-1.36 7.438 0 1.281.266 1.281.407 0 .828-.422.438-.437.672-.844l.235-.437q2.125-3.5 3.828-6.938 1.703-3.453 2.5-5.078.797-1.64 1.406-2.078.86-.5 2.188-.5 1.343 0 1.343.406v.063q0 .234-1.765 2.797-1.766 2.562-4.688 7.219-2.922 4.656-5.078 8.875-.937 2.171-.937 3.468 0 .407-.157.61-.14.187-1.03.375-.876.187-1.813.187h-1.063q-.375 0-.906-.172-.922-.265-.922-.828zm16.293 1.531q-1.766 0-2.266-.125-.5-.109-.86-.203-.343-.078-.452-.109-.094-.031-.297-.031-.39 0-.719.203-1.172.969-3.078.969-1 0-1-.454 0-.453 2.313-4.453 2.328-4 5.14-8.89 2.813-4.907 3.625-6.735.828-1.828.828-3.172v-.265q0-.969 5.563-.969 8.265 0 8.265 5.64 0 4.063-2.765 8.97-1.438 2.562-3.375 4.703-1.922 2.125-4.813 3.53-2.875 1.391-6.11 1.391zm10.969-11.406q1.234-2.39 1.875-4.469.656-2.093.656-3.5 0-1.421-.828-2.156-.813-.734-2.75-.734-1.328 0-2.125.937-2.094 2.625-6.063 9.72-3.968 7.077-3.968 8.28 0 1.328 2.828 1.328 2 0 4.03-1.39 2.032-1.406 3.563-3.516 1.547-2.125 2.782-4.5zm10.788 2.235q-.234 0-.297-.297 0-.563.797-1.297.797-.735 1.282-.922.484-.203 3.218-.281l.47-.532q10.124-11.687 14.062-11.687.328-.047.765-.047 2.297 0 2.297 1.11 0 .203-.422 1.062l-1.5 3q-1.078 2.125-2.078 4.328-5.39 11.906-6.266 15.61 0 .265-.687.265-.672 0-1.64-.75-.97-.75-.97-1.328 0-1.031 1.626-3.89 1.64-2.876 1.64-3.735 0-1.172-4.531-1.172-.656 0-2.063.063l-1.265 1.671q-2.328 3.141-4.469 7.766-.36.828-2.234.828-1.86 0-1.86-.531 0-.36 2.078-3.203 2.079-2.86 4.954-6.328-.5.078-1.266.14-.766.063-1.188.11-.421.047-.453.047zm13.828-4.282q1.313-1.578 1.954-3.172.656-1.609.656-2.171 0-.563-.563-.563-1 0-3.312 2.125-2.297 2.11-5 5.266l3.64.078q1.329 0 2.625-1.563zm21.468 12.891q-.468 0-.828-.438-.344-.437-.437-.859l-.094-.437q-.11-.375-.5-.375-.375 0-.672.234-3.125 2.469-5.828 2.469-3.469 0-3.469-4.625 0-1.64.844-4.063.86-2.437 2.453-5.078 1.594-2.656 3.61-4.969 2.03-2.328 4.671-3.828 2.657-1.5 5.282-1.5 1.437 0 2.343.5.125.063.282.063.171 0 .343-.094.828-.563 2.125-.563 1.313 0 1.313.625 0 .797-1.672 3.172-2.594 3.703-4.266 3.703-.437 0-.593-.062-.141-.078-.141-.266 0-.203.203-.672.672-1.406.672-2.312 0-.922-.36-1.406-.343-.485-1.453-.485-2 0-4.75 3.016t-4.718 6.969q-1.953 3.953-1.953 6.515 0 2.157 1.796 2.157 1.407 0 3.188-1.422 1.781-1.438 2.922-3.078 1.156-1.657 1.156-2.375 0-.72-.703-1-.703-.282-2.703-.282-.39 0-.39-.297 0-.578.64-1.171.656-.594 1.25-.672 2.406-.157 5.047-.157 2.656 0 2.656.47 0 .39-.453 1.234-.438.828-.735 1.343-.28.516-.828 1.438-.547.906-.89 1.437-.328.532-1.016 1.625-.672 1.078-1.078 1.75-.39.657-.984 1.766-.579 1.094-.844 1.547-.266.453-.438.453zm28.46-18.172q0 1.875-.75 4.281-.75 2.391-2.22 4.891-1.453 2.5-3.375 4.625-1.922 2.11-4.547 3.469-2.609 1.343-5.39 1.343-2.781 0-4.375-1.546-1.594-1.563-1.594-4.297 0-1.86.734-4.25.75-2.407 2.22-4.907 1.468-2.5 3.374-4.593 1.922-2.11 4.531-3.453 2.625-1.36 5.407-1.36 2.797 0 4.39 1.531 1.594 1.532 1.594 4.266zm-3.923-.297q0-3.672-2.672-3.672-2.234 0-4.984 2.844-2.75 2.828-4.672 6.844-1.906 4.015-1.906 7.187 0 3.657 2.672 3.657 2.187 0 4.953-2.829 2.765-2.828 4.687-6.843 1.922-4.016 1.922-7.188zm23.986.297q0 1.875-.75 4.281-.75 2.391-2.22 4.891-1.452 2.5-3.374 4.625-1.922 2.11-4.547 3.469-2.61 1.343-5.39 1.343-2.782 0-4.376-1.546-1.593-1.563-1.593-4.297 0-1.86.734-4.25.75-2.407 2.219-4.907 1.468-2.5 3.375-4.593 1.922-2.11 4.53-3.453 2.626-1.36 5.407-1.36 2.797 0 4.39 1.531 1.595 1.532 1.595 4.266zm-3.922-.297q0-3.672-2.672-3.672-2.235 0-4.985 2.844-2.75 2.828-4.671 6.844-1.907 4.015-1.907 7.187 0 3.657 2.672 3.657 2.188 0 4.953-2.829 2.766-2.828 4.688-6.843 1.922-4.016 1.922-7.188zm6.829 19.031q-1.766 0-2.266-.125-.5-.109-.86-.203-.343-.078-.452-.109-.094-.031-.297-.031-.39 0-.719.203-1.172.969-3.078.969-1 0-1-.454 0-.453 2.312-4.453 2.329-4 5.141-8.89 2.813-4.907 3.625-6.735.828-1.828.828-3.172v-.265q0-.969 5.563-.969 8.265 0 8.265 5.64 0 4.063-2.765 8.97-1.438 2.562-3.375 4.703-1.922 2.125-4.813 3.53-2.875 1.391-6.11 1.391zm10.969-11.406q1.234-2.39 1.875-4.469.656-2.093.656-3.5 0-1.421-.828-2.156-.813-.734-2.75-.734-1.328 0-2.125.937-2.094 2.625-6.063 9.72-3.969 7.077-3.969 8.28 0 1.328 2.829 1.328 2 0 4.03-1.39 2.032-1.406 3.563-3.516 1.547-2.125 2.782-4.5zm14.96 11.406q-1.766 0-2.266-.125-.5-.109-.859-.203-.344-.078-.453-.109-.094-.031-.297-.031-.39 0-.719.203-1.172.969-3.078.969-1 0-1-.454 0-.453 2.313-4.453 2.328-4 5.14-8.89 2.813-4.907 3.625-6.735.828-1.828.828-3.172v-.265q0-.969 5.563-.969 8.266 0 8.266 5.64 0 4.063-2.766 8.97-1.438 2.562-3.375 4.703-1.922 2.125-4.813 3.53-2.875 1.391-6.109 1.391zm10.969-11.406q1.234-2.39 1.875-4.469.656-2.093.656-3.5 0-1.421-.828-2.156-.813-.734-2.75-.734-1.328 0-2.125.937-2.094 2.625-6.063 9.72-3.968 7.077-3.968 8.28 0 1.328 2.828 1.328 2 0 4.031-1.39 2.031-1.406 3.563-3.516 1.546-2.125 2.78-4.5zm4.79 2.235q-.235 0-.298-.297 0-.563.797-1.297.797-.735 1.282-.922.484-.203 3.218-.281l.47-.532q10.124-11.687 14.062-11.687.328-.047.765-.047 2.297 0 2.297 1.11 0 .203-.422 1.062l-1.5 3q-1.078 2.125-2.078 4.328-5.39 11.906-6.266 15.61 0 .265-.687.265-.672 0-1.64-.75-.97-.75-.97-1.328 0-1.031 1.626-3.89 1.64-2.876 1.64-3.735 0-1.172-4.531-1.172-.656 0-2.063.063l-1.265 1.671q-2.328 3.141-4.469 7.766-.36.828-2.234.828-1.86 0-1.86-.531 0-.36 2.078-3.203 2.079-2.86 4.954-6.328-.5.078-1.266.14-.766.063-1.188.11-.421.047-.453.047zm13.827-4.282q1.313-1.578 1.954-3.172.656-1.609.656-2.171 0-.563-.563-.563-1 0-3.312 2.125-2.297 2.11-5 5.266l3.64.078q1.329 0 2.625-1.563zm9.98-4.437-.047-3.531q0-1.407-.203-1.797-.188-.407-.188-.672 0-.672 2.61-.672 2.625 0 2.625 1.234 0 .828-.563 4.016-.547 3.187-.578 4.375-.031 1.172.64 1.172.391 0 .891-.438 2.031-1.797 4.563-4.547 2.547-2.75 3.375-3.828.828-1.078 1.406-1.312 1.187-.469 2.86-.531h.562q1.906 0 1.906.593 0 .328-.562.672-2.141 1.235-7.36 5.594-5.219 4.36-7.61 6.937-.968 1.032-3.265 5.313t-3.14 4.844q-.766.672-2.266.672t-1.5-.563v-.11q0-.234 1.11-2.062 3.562-5.828 4-7.328.734-2.406.734-8.031zM476.206 376.344l-2.829-.094q-2.109 0-3.234 1.36-.797 1-2.125 3.265-1.312 2.266-1.312 3.61 0 1.218 2.437 1.218 1.5 0 3.203-.562 3.422-1.125 5.422-4.328.234-.297.797-.297.578 0 .578.656 0 .64-1.078 2.703-1.063 2.063-1.89 3.11-.438.53-1.688.593-1.25.063-3.813.063h-3.265l-1.907-.032-.89-.062h-.235q-.203 0-.5.297-1.109.969-3.14.969-.969 0-.969-.438v-.094q0-.375 2.313-4.359 2.328-3.984 5.156-8.875 2.844-4.906 3.64-6.719.797-1.812.797-3.11v-.374q0-.563 7.094-.563 2.344 0 4.063.063.5-.563 2.578-.563.86 0 .86.438 0 .765-1.517 3.078-1.515 2.312-2.64 3.156-.375.297-.938.297-.562 0-.562-.234 0-.11.094-.266.53-1.031.53-2.344 0-1.828-2.53-1.828-1.532 0-2.422.813-.875.797-1.75 2.234-.86 1.422-1.282 2.453-.406 1.031-.406 1.297 0 .797.781.984.782.188 3.11.188l2.469-.094q.328 0 .328.25t-.36.828q-.343.578-.703.813-.734.5-2.265.5zm26.723-6.969q0 1.875-.75 4.281-.75 2.391-2.22 4.891-1.452 2.5-3.374 4.625-1.922 2.11-4.547 3.469-2.61 1.343-5.39 1.343-2.782 0-4.376-1.546-1.593-1.563-1.593-4.297 0-1.86.734-4.25.75-2.407 2.219-4.907 1.469-2.5 3.375-4.593 1.922-2.11 4.531-3.453 2.625-1.36 5.406-1.36 2.797 0 4.39 1.531 1.595 1.532 1.595 4.266zm-3.922-.297q0-3.672-2.672-3.672-2.234 0-4.984 2.844-2.75 2.828-4.672 6.844-1.907 4.015-1.907 7.187 0 3.657 2.672 3.657 2.188 0 4.953-2.829 2.766-2.828 4.688-6.843 1.922-4.016 1.922-7.188zm8.766 17.5q0-1.469 1.079-7.437 1.078-5.969 1.078-6.578 0-.61-.36-.61-.343 0-.937.703-.594.688-1 1.36l-.438.703q-2.656 4.36-6.03 11.562-.657 1.47-1.267 1.875-.593.422-1.718.422-1.11 0-1.11-.5v-.094q0-.437 1.703-3.171 6.5-10.438 9.5-16.5.766-1.532.766-2.766v-.531q0-.235.172-.485.187-.25 1.156-.53.969-.282 2.672-.282 2.563 0 2.563.969 0 .296-1.375 6.468-1.36 6.157-1.36 7.438 0 1.281.266 1.281.406 0 .828-.422.437-.437.672-.844l.234-.437q2.125-3.5 3.828-6.938 1.703-3.453 2.5-5.078.797-1.64 1.407-2.078.859-.5 2.187-.5 1.344 0 1.344.406v.063q0 .234-1.766 2.797-1.765 2.562-4.687 7.219-2.922 4.656-5.078 8.875-.938 2.171-.938 3.468 0 .407-.156.61-.14.187-1.031.375-.875.187-1.813.187h-1.062q-.375 0-.907-.172-.922-.265-.922-.828zm33.583-17.203q0 1.875-.75 4.281-.75 2.391-2.219 4.891-1.453 2.5-3.375 4.625-1.922 2.11-4.547 3.469-2.609 1.343-5.39 1.343-2.781 0-4.375-1.546-1.594-1.563-1.594-4.297 0-1.86.734-4.25.75-2.407 2.22-4.907 1.468-2.5 3.374-4.593 1.922-2.11 4.531-3.453 2.625-1.36 5.407-1.36 2.797 0 4.39 1.531 1.594 1.532 1.594 4.266zm-3.922-.297q0-3.672-2.672-3.672-2.234 0-4.984 2.844-2.75 2.828-4.672 6.844-1.906 4.015-1.906 7.187 0 3.657 2.672 3.657 2.187 0 4.953-2.829 2.765-2.828 4.687-6.843 1.922-4.016 1.922-7.188zm8.392 10.828.031-.734q0-.656-.531-.656-.438 0-1.094.531-1.906 1.672-4.016 3.89-2.093 2.204-2.78 3.141-.673.938-.892 1.156-.218.204-1.187.563-.969.375-2.25.375-1.281 0-1.281-.39 0-.844 13.093-11.907 1.172-.922 1.235-2.422.14-2.469.14-3.672 0-3.375-.562-5.062l-.172-.5q0-.578 2.469-.578 1.203 0 1.703.39.5.375.5 1.422 0 1.031-.234 4.36 0 .906.625.906.343 0 .765-.375 4.406-3.89 5.188-4.89.781-1 1.281-1.235 1-.406 2.797-.469h.578q1.625 0 1.625.531 0 .297-.469.563-4.234 2.406-11.156 8.062-.172.11-.422.297-.25.172-.687.875-.422.703-.5 1.531-.235 4.204-.235 6.938 0 3.125.469 4.062.14.266.14.438 0 .5-1.015.719-1.016.218-1.953.218-.938 0-1.203-.406-.266-.406-.266-1.64 0-1.235.266-6.032zm21.926 7.672-.468-.031q-.454 0-.688.297-1.14.969-3.078.969-1 0-1-.438v-.094q0-.375 2.312-4.359 2.329-3.984 5.141-8.875 2.813-4.906 3.625-6.734.828-1.829.828-3.032v-.437q0-.86 3.563-.86 1.797 0 1.797.657 0 .265-.266.547-2.656 4.328-7.063 12.359l-.468.828q-.47.844-.672 1.188-.188.343-.61 1.203-.421.843-.609 1.375-.578 1.5-.578 2.343 0 1.22 2.203 1.22h.234q1.36 0 3-.563 3.204-1.125 5.204-4.328.125-.297.734-.297.625 0 .625.531 0 .797-1.063 2.875-1.062 2.062-1.937 3.062-.422.594-1.656.594-1.235.063-5.344.063l-3.766-.063zm17.43 0-.468-.031q-.453 0-.687.297-1.141.969-3.079.969-1 0-1-.438v-.094q0-.375 2.313-4.359 2.328-3.984 5.14-8.875 2.813-4.906 3.626-6.734.828-1.829.828-3.032v-.437q0-.86 3.562-.86 1.797 0 1.797.657 0 .265-.266.547-2.656 4.328-7.062 12.359l-.469.828q-.469.844-.672 1.188-.187.343-.609 1.203-.422.843-.61 1.375-.578 1.5-.578 2.343 0 1.22 2.204 1.22h.234q1.36 0 3-.563 3.203-1.125 5.203-4.328.125-.297.734-.297.625 0 .625.531 0 .797-1.062 2.875-1.063 2.062-1.938 3.062-.421.594-1.656.594-1.234.063-5.344.063l-3.765-.063zm15.5-8.64q-.235 0-.298-.297 0-.563.797-1.297.797-.735 1.281-.922.485-.203 3.22-.281l.468-.532q10.125-11.687 14.062-11.687.328-.047.766-.047 2.297 0 2.297 1.11 0 .203-.422 1.062l-1.5 3q-1.078 2.125-2.078 4.328-5.39 11.906-6.266 15.61 0 .265-.687.265-.672 0-1.64-.75-.97-.75-.97-1.328 0-1.031 1.625-3.89 1.641-2.876 1.641-3.735 0-1.172-4.531-1.172-.657 0-2.063.063l-1.265 1.671q-2.329 3.141-4.47 7.766-.359.828-2.234.828-1.859 0-1.859-.531 0-.36 2.078-3.203 2.078-2.86 4.953-6.328-.5.078-1.265.14-.766.063-1.188.11-.422.047-.453.047zm13.827-4.282q1.313-1.578 1.953-3.172.657-1.609.657-2.171 0-.563-.563-.563-1 0-3.312 2.125-2.297 2.11-5 5.266l3.64.078q1.328 0 2.625-1.563zm9.641 13.453q-1.766 0-2.266-.125-.5-.109-.859-.203-.344-.078-.453-.109-.094-.031-.297-.031-.39 0-.719.203-1.172.969-3.078.969-1 0-1-.454 0-.453 2.313-4.453 2.328-4 5.14-8.89 2.813-4.907 3.625-6.735.828-1.828.828-3.172v-.265q0-.969 5.563-.969 8.265 0 8.265 5.64 0 4.063-2.765 8.97-1.438 2.562-3.375 4.703-1.922 2.125-4.813 3.53-2.875 1.391-6.109 1.391zm10.969-11.406q1.234-2.39 1.875-4.469.656-2.093.656-3.5 0-1.421-.828-2.156-.813-.734-2.75-.734-1.328 0-2.125.937-2.094 2.625-6.063 9.72-3.968 7.077-3.968 8.28 0 1.328 2.828 1.328 2 0 4.031-1.39 2.031-1.406 3.562-3.516 1.547-2.125 2.782-4.5zm11.39 3.203.032-.734q0-.656-.532-.656-.437 0-1.093.531-1.907 1.672-4.016 3.89-2.094 2.204-2.781 3.141-.672.938-.891 1.156-.219.204-1.187.563-.97.375-2.25.375-1.282 0-1.282-.39 0-.844 13.094-11.907 1.172-.922 1.234-2.422.141-2.469.141-3.672 0-3.375-.562-5.062l-.172-.5q0-.578 2.468-.578 1.204 0 1.704.39.5.375.5 1.422 0 1.031-.235 4.36 0 .906.625.906.344 0 .766-.375 4.406-3.89 5.187-4.89.782-1 1.282-1.235 1-.406 2.796-.469h.579q1.625 0 1.625.531 0 .297-.47.563-4.234 2.406-11.155 8.062-.172.11-.422.297-.25.172-.688.875-.422.703-.5 1.531-.234 4.204-.234 6.938 0 3.125.469 4.062.14.266.14.438 0 .5-1.015.719-1.016.218-1.954.218-.937 0-1.203-.406-.265-.406-.265-1.64 0-1.235.265-6.032zm21.927 7.672-.469-.031q-.453 0-.687.297-1.141.969-3.079.969-1 0-1-.438v-.094q0-.375 2.313-4.359 2.328-3.984 5.14-8.875 2.813-4.906 3.626-6.734.828-1.829.828-3.032v-.437q0-.86 3.562-.86 1.797 0 1.797.657 0 .265-.266.547-2.656 4.328-7.062 12.359l-.469.828q-.469.844-.672 1.188-.187.343-.609 1.203-.422.843-.61 1.375-.578 1.5-.578 2.343 0 1.22 2.204 1.22h.234q1.36 0 3-.563 3.203-1.125 5.203-4.328.125-.297.734-.297.625 0 .625.531 0 .797-1.062 2.875-1.063 2.062-1.938 3.062-.421.594-1.656.594-1.234.063-5.344.063l-3.765-.063zm29.165-1.234.062 1q0 .531-1.593.531-2.797 0-2.797-1.062 0-1.063 1.484-4.594 1.484-3.547 1.484-4.406 0-1.766-2.171-1.766l-.532.031q-.406 0-.406-.297 0-.64.484-1.28.485-.657 1.22-.657 3.03 0 5.421-1.797 2.406-1.797 2.406-3.797 0-1.437-.89-2-.875-.562-2.407-.562-1.53 0-2.328.921-1.968 2.47-6.328 10.329-4.344 7.843-4.875 9.64-.297.828-1.547 1.219-1.25.406-2.437.406-1.172 0-1.172-.453v-.078q0-.36 2.297-4.25 2.297-3.906 5.078-8.688 2.781-4.78 3.594-6.609.828-1.844.828-3.11v-.327q0-.907 5.062-.907 5.438 0 7.157 1.094.734.469 1.25 1.375.515.89.515 2.297 0 1.406-1.14 2.844-1.125 1.422-2.407 2.11-1.281.671-2.547.983-1.265.297-1.906.5-.625.188-.625.625 0 .266.485.657.484.375.984.922.5.53.5 1.125 0 .593-1.11 3.453-1.093 2.843-1.093 4.578zm9.702 1.765q-1.766 0-2.266-.125-.5-.109-.859-.203-.344-.078-.453-.109-.094-.031-.297-.031-.39 0-.719.203-1.172.969-3.078.969-1 0-1-.454 0-.453 2.313-4.453 2.328-4 5.14-8.89 2.813-4.907 3.625-6.735.828-1.828.828-3.172v-.265q0-.969 5.563-.969 8.266 0 8.266 5.64 0 4.063-2.766 8.97-1.438 2.562-3.375 4.703-1.922 2.125-4.813 3.53-2.875 1.391-6.109 1.391zm10.969-11.406q1.234-2.39 1.875-4.469.656-2.093.656-3.5 0-1.421-.828-2.156-.813-.734-2.75-.734-1.328 0-2.125.937-2.094 2.625-6.063 9.72-3.968 7.077-3.968 8.28 0 1.328 2.828 1.328 2 0 4.031-1.39 2.031-1.406 3.563-3.516 1.546-2.125 2.78-4.5zm8.961 11.406q-1.765 0-2.265-.125-.5-.109-.86-.203-.343-.078-.453-.109-.094-.031-.297-.031-.39 0-.718.203-1.172.969-3.079.969-1 0-1-.454 0-.453 2.313-4.453 2.328-4 5.14-8.89 2.813-4.907 3.626-6.735.828-1.828.828-3.172v-.265q0-.969 5.562-.969 8.266 0 8.266 5.64 0 4.063-2.766 8.97-1.437 2.562-3.375 4.703-1.922 2.125-4.812 3.53-2.875 1.391-6.11 1.391zm10.969-11.406q1.234-2.39 1.875-4.469.656-2.093.656-3.5 0-1.421-.828-2.156-.812-.734-2.75-.734-1.328 0-2.125.937-2.094 2.625-6.062 9.72-3.97 7.077-3.97 8.28 0 1.328 2.829 1.328 2 0 4.031-1.39 2.032-1.406 3.563-3.516 1.547-2.125 2.781-4.5zm11.39 3.203.032-.734q0-.656-.531-.656-.438 0-1.094.531-1.906 1.672-4.016 3.89-2.094 2.204-2.781 3.141-.672.938-.89 1.156-.22.204-1.188.563-.969.375-2.25.375-1.281 0-1.281-.39 0-.844 13.093-11.907 1.172-.922 1.235-2.422.14-2.469.14-3.672 0-3.375-.562-5.062l-.172-.5q0-.578 2.469-.578 1.203 0 1.703.39.5.375.5 1.422 0 1.031-.235 4.36 0 .906.625.906.344 0 .766-.375 4.406-3.89 5.188-4.89.78-1 1.28-1.235 1-.406 2.798-.469h.578q1.625 0 1.625.531 0 .297-.469.563-4.234 2.406-11.156 8.062-.172.11-.422.297-.25.172-.688.875-.421.703-.5 1.531-.234 4.204-.234 6.938 0 3.125.469 4.062.14.266.14.438 0 .5-1.015.719-1.016.218-1.953.218-.938 0-1.203-.406-.266-.406-.266-1.64 0-1.235.266-6.032z"/><defs><radialGradient id="b" gradientUnits="userSpaceOnUse" gradientTransform="scale(8.32987)" spreadMethod="pad" cx="47.326" cy="42.352" fx="47.326" fy="42.352" r="8.33"><stop offset="0" stop-color="#dcecd5"/><stop offset="1" stop-color="#93bc81"/></radialGradient></defs><path fill="url(#b)" d="M328.283 341.98h110.268v-10.803l21.606 21.606-21.606 21.607v-10.803H328.283z" fill-rule="evenodd"/><path stroke="#38761d" stroke-linejoin="round" stroke-linecap="butt" d="M328.283 341.98h110.268v-10.803l21.606 21.606-21.606 21.607v-10.803H328.283z"/><path fill="#d0e0e3" d="M606.252 54.977h176.756v216.725H606.252z" fill-rule="evenodd"/><path stroke="#45818e" stroke-width="4" stroke-linejoin="round" stroke-linecap="butt" d="M606.252 54.977h176.756v216.725H606.252z"/><path fill="none" d="M629.163 68.131h246.614v104.756H629.163z"/><path fill="#000" d="M649.194 86.274v-.39q0-.797 3.281-.797 1.656 0 1.656.61 0 .25-.234.484-1.172 1.593-4.969 8.062l3.797.031q1.25 0 2.297-1.015.516-.547.922-1.016.422-.484.938-1.36.53-.89.843-1.421.422-.766 1.5-2.938 0-.156.219-.375.234-.234.563-.406.328-.172 1-.297.671-.125 1.593-.125.922 0 .922.406 0 .188-.14.422-.141.22-1.594 2.453-1.453 2.235-2.938 4.657-1.469 2.406-3.11 5.234-1.64 2.813-2.671 5.14-1.016 2.329-1.016 3.391-.187.532-.765.532-1.688 0-2.344-.282-.64-.28-.64-.828 0-.953 2.03-4.437 2.048-3.5 2.048-4.25t-.61-1.11q-.61-.375-2.062-.375-1.438 0-1.985.032-1.047 1.687-2.39 4.328-1.344 2.625-2.266 4.312-.922 1.688-1.469 2.11-1.14.859-2.797.859-.953 0-.953-.484 0-.282.813-1.641.812-1.36 2.625-4.281 1.812-2.938 3.125-5.14l-1.86.093q-.468 0-.468-.25 0-.531.656-1.047.672-.516 1.094-.672.421-.156 1.78-.219 1.126-1.922 2.907-5.359.672-1.469.672-2.64zm20.08 10.188-2.593-.094q-1.938 0-2.985 1.25-.734.922-1.953 3.016-1.203 2.078-1.203 3.297 0 1.14 2.234 1.14 1.39 0 2.953-.515 3.157-1.047 5-4 .204-.266.72-.266.53 0 .53.594 0 .593-.984 2.5-.984 1.906-1.75 2.843-.39.5-1.547.563-1.14.062-3.5.062h-3.015l-1.75-.03-.813-.063h-.219q-.187 0-.468.265-1 .891-2.875.891-.891 0-.891-.39v-.094q0-.344 2.125-4 2.14-3.672 4.734-8.172 2.61-4.5 3.344-6.172.734-1.672.734-2.875v-.328q0-.532 6.532-.532 2.156 0 3.75.063.453-.516 2.36-.516.796 0 .796.391 0 .703-1.406 2.844-1.39 2.125-2.422 2.89-.344.282-.875.282-.516 0-.516-.22 0-.093.094-.25.5-.937.5-2.14 0-1.687-2.344-1.687-1.406 0-2.219.734-.812.734-1.609 2.063-.797 1.312-1.187 2.265-.375.953-.375 1.188 0 .75.718.922.72.156 2.875.156l2.266-.094q.297 0 .297.234 0 .235-.328.766-.313.531-.64.75-.673.469-2.095.469zm6.595 10.328-.422-.031q-.437 0-.656.265-1.031.891-2.813.891-.921 0-.921-.39v-.094q0-.344 2.125-4 2.14-3.672 4.718-8.172 2.594-4.5 3.344-6.188.75-1.687.75-2.797v-.39q0-.797 3.281-.797 1.657 0 1.657.61 0 .25-.235.484-2.453 3.984-6.5 11.375l-.437.765q-.422.766-.61 1.094-.187.312-.578 1.11-.375.78-.562 1.265-.516 1.375-.516 2.14 0 1.141 2.031 1.141h.203q1.266 0 2.766-.515 2.938-1.047 4.781-4 .125-.266.688-.266.562 0 .562.484 0 .735-.984 2.641-.969 1.906-1.766 2.812-.406.563-1.53.563-1.142.062-4.907.062l-3.469-.062zm16.033 0-.422-.031q-.437 0-.656.265-1.031.891-2.812.891-.922 0-.922-.39v-.094q0-.344 2.125-4 2.14-3.672 4.719-8.172 2.593-4.5 3.343-6.188.75-1.687.75-2.797v-.39q0-.797 3.282-.797 1.656 0 1.656.61 0 .25-.235.484-2.453 3.984-6.5 11.375l-.437.765q-.422.766-.61 1.094-.187.312-.578 1.11-.375.78-.562 1.265-.516 1.375-.516 2.14 0 1.141 2.032 1.141h.203q1.265 0 2.765-.515 2.938-1.047 4.782-4 .125-.266.687-.266.563 0 .563.484 0 .735-.985 2.641-.969 1.906-1.765 2.812-.407.563-1.532.563-1.14.062-4.906.062l-3.469-.062zm33.76-16.75q0 1.719-.704 3.937-.687 2.204-2.03 4.5-1.345 2.297-3.11 4.25-1.766 1.938-4.172 3.188-2.406 1.234-4.969 1.234-2.562 0-4.031-1.422-1.469-1.421-1.469-3.937 0-1.719.688-3.922.687-2.203 2.03-4.5 1.36-2.312 3.126-4.234 1.766-1.938 4.172-3.172 2.406-1.25 4.953-1.25 2.562 0 4.031 1.422 1.485 1.406 1.485 3.906zm-3.625-.266q0-3.375-2.454-3.375-2.046 0-4.578 2.61-2.531 2.61-4.297 6.297-1.765 3.687-1.765 6.609 0 3.375 2.453 3.375 2.031 0 4.562-2.61 2.547-2.609 4.313-6.296 1.766-3.703 1.766-6.61zM644.881 123.012l-.03-.672q0-.828 2.843-.828 1.781 0 1.781.89 0 .157-.062.22-.219 1.187-2.422 7.624-2.203 6.438-2.203 7.11 0 .656.61.656.452 0 .702-.25l1.078-1.078q.641-.64 3.516-4.64 2.89-4 4.64-6.907.579-1.172 3.86-1.172.828 0 .828.516l-.219.593q-.922 1.86-2.484 6.594-1.563 4.719-1.563 5.531 0 .813.61.813.469 0 .719-.25.421-.438.843-.86 1.141-1.14 4.985-6.484 3.86-5.344 5.203-7.984.328-.672.765-.89.766-.36 2.704-.423h.609q1.594 0 1.594.516 0 .219-.282.484-3 2.86-8.812 9.688-5.813 6.812-7.89 9.843-.438.641-.688.922-.235.282-.781.641-1.047.672-3.657.672-1.5 0-1.5-.735l.094-.328q.188-.593.672-1.968.5-1.375.828-2.329.344-.953.734-2.078.766-2.312.766-2.828 0-.515-.453-.515-.5 0-1.11.734-2.421 2.875-5.874 7.812-.594.829-.938 1.188-.328.344-1.406.687-1.063.36-2.672.36-1.61 0-1.61-.735l.094-.328q1.063-3.093 2.86-8.922 1.797-5.828 2.437-8.562.281-1.563.281-2.328zm41.112 3.828q0 1.719-.703 3.937-.687 2.204-2.031 4.5-1.344 2.297-3.11 4.25-1.765 1.938-4.171 3.188-2.407 1.234-4.97 1.234-2.562 0-4.03-1.422-1.47-1.421-1.47-3.937 0-1.719.688-3.922.688-2.203 2.032-4.5 1.36-2.312 3.125-4.234 1.765-1.938 4.172-3.172 2.406-1.25 4.953-1.25 2.562 0 4.03 1.422 1.485 1.406 1.485 3.906zm-3.625-.266q0-3.375-2.453-3.375-2.047 0-4.578 2.61t-4.297 6.297q-1.765 3.687-1.765 6.609 0 3.375 2.453 3.375 2.03 0 4.562-2.61 2.547-2.609 4.313-6.296 1.765-3.703 1.765-6.61zm13.955 15.875.063.922q0 .485-1.484.485-2.563 0-2.563-.97 0-.984 1.36-4.234 1.359-3.25 1.359-4.046 0-1.625-1.985-1.625l-.5.03q-.359 0-.359-.28 0-.579.438-1.172.453-.61 1.125-.61 2.78 0 4.984-1.656 2.219-1.656 2.219-3.484 0-1.328-.813-1.844-.812-.516-2.234-.516-1.406 0-2.14.86-1.798 2.265-5.813 9.484-4 7.219-4.485 8.875-.281.766-1.437 1.125-1.14.375-2.235.375-1.078 0-1.078-.422v-.062q0-.344 2.11-3.922 2.125-3.594 4.672-7.985 2.562-4.406 3.312-6.093.766-1.688.766-2.86v-.297q0-.828 4.656-.828 5 0 6.594 1.016.672.422 1.14 1.25.485.828.485 2.125 0 1.281-1.047 2.61-1.047 1.312-2.235 1.937-1.171.625-2.343.906-1.157.266-1.75.453-.578.188-.578.578 0 .25.437.61.453.343.906.843.469.485.469 1.047 0 .547-1.016 3.172-1 2.61-1 4.203zm5.789 1.141-.422-.031q-.438 0-.657.265-1.03.891-2.812.891-.922 0-.922-.39v-.094q0-.344 2.125-4 2.14-3.672 4.719-8.172 2.594-4.5 3.344-6.188.75-1.687.75-2.797v-.39q0-.797 3.28-.797 1.657 0 1.657.61 0 .25-.234.484-2.453 3.984-6.5 11.375l-.438.765q-.422.766-.61 1.094-.187.312-.577 1.11-.375.78-.563 1.265-.515 1.375-.515 2.14 0 1.141 2.03 1.141h.204q1.266 0 2.766-.515 2.937-1.047 4.78-4 .126-.266.688-.266.563 0 .563.484 0 .735-.985 2.641-.968 1.906-1.765 2.812-.406.563-1.531.563-1.141.062-4.907.062l-3.468-.062zm19.158.484q-1.625 0-2.094-.109l-.781-.188q-.313-.062-.406-.093-.094-.032-.266-.032-.375 0-.688.172-1.062.891-2.812.891-.922 0-.922-.422 0-.406 2.125-4.078 2.14-3.688 4.719-8.188 2.594-4.5 3.344-6.187.75-1.688.75-2.922v-.234q0-.89 5.125-.89 7.609 0 7.609 5.171 0 3.75-2.547 8.25-1.312 2.36-3.094 4.328-1.78 1.953-4.437 3.25-2.656 1.281-5.625 1.281zm10.078-10.5q1.14-2.187 1.734-4.093.61-1.922.61-3.22 0-1.312-.75-1.984-.75-.671-2.532-.671-1.234 0-1.968.843-1.922 2.422-5.578 8.938-3.641 6.515-3.641 7.625 0 1.219 2.61 1.219 1.827 0 3.702-1.282 1.875-1.28 3.282-3.234 1.406-1.953 2.531-4.14zM641.444 172.452q-.219 0-.281-.28 0-.516.734-1.188.734-.688 1.172-.86.453-.187 2.969-.25l.437-.5q9.313-10.75 12.938-10.75.297-.03.703-.03 2.11 0 2.11 1 0 .187-.391.983l-1.391 2.766q-.969 1.953-1.89 3.984-4.97 10.938-5.766 14.344 0 .25-.64.25-.626 0-1.517-.687-.875-.688-.875-1.219 0-.953 1.5-3.578 1.5-2.64 1.5-3.438 0-1.078-4.171-1.078-.61 0-1.907.063l-1.156 1.531q-2.14 2.89-4.11 7.14-.343.766-2.062.766-1.703 0-1.703-.484 0-.344 1.906-2.953 1.922-2.625 4.563-5.813-.469.063-1.172.125-.703.063-1.094.11-.375.046-.406.046zm12.719-3.953q1.203-1.453 1.797-2.922.593-1.468.593-1.984 0-.531-.515-.531-.922 0-3.047 1.953-2.11 1.937-4.594 4.86l3.344.062q1.234 0 2.422-1.438zm10.272 10.97q0-1.345 1-6.829 1-5.5 1-6.063 0-.562-.328-.562t-.875.64q-.547.641-.922 1.25l-.39.641q-2.453 4.016-5.547 10.64-.625 1.36-1.172 1.735-.547.39-1.578.39-1.031 0-1.031-.468v-.094q0-.39 1.562-2.906 5.985-9.594 8.735-15.172.718-1.422.718-2.547v-.5q0-.203.157-.437.171-.235 1.062-.485.89-.265 2.453-.265 2.36 0 2.36.89 0 .266-1.266 5.938-1.25 5.672-1.25 6.86 0 1.187.25 1.187.36 0 .75-.406.406-.407.625-.766l.219-.406q1.953-3.219 3.515-6.39 1.578-3.173 2.313-4.673.734-1.5 1.281-1.89.797-.47 2.016-.47 1.234 0 1.234.376v.062q0 .203-1.625 2.563-1.625 2.36-4.312 6.64-2.672 4.282-4.672 8.172-.86 2-.86 3.188 0 .375-.14.562-.125.172-.938.344-.812.172-1.672.172h-.984q-.344 0-.828-.156-.86-.25-.86-.766zm14.988 1.405q-1.625 0-2.094-.109l-.78-.188q-.313-.062-.407-.093-.094-.032-.266-.032-.375 0-.687.172-1.063.891-2.813.891-.922 0-.922-.422 0-.406 2.125-4.078 2.141-3.688 4.72-8.188 2.593-4.5 3.343-6.187.75-1.688.75-2.922v-.234q0-.89 5.125-.89 7.61 0 7.61 5.171 0 3.75-2.548 8.25-1.312 2.36-3.093 4.328-1.782 1.953-4.438 3.25-2.656 1.281-5.625 1.281zm10.078-10.5q1.14-2.187 1.735-4.093.61-1.922.61-3.22 0-1.312-.75-1.984-.75-.671-2.532-.671-1.235 0-1.969.843-1.922 2.422-5.578 8.938-3.64 6.515-3.64 7.625 0 1.219 2.609 1.219 1.828 0 3.703-1.282 1.875-1.28 3.281-3.234 1.406-1.953 2.531-4.14zm4.427 2.078q-.22 0-.282-.28 0-.516.735-1.188.734-.688 1.172-.86.453-.187 2.968-.25l.438-.5q9.312-10.75 12.937-10.75.297-.03.703-.03 2.11 0 2.11 1 0 .187-.39.983l-1.391 2.766q-.97 1.953-1.891 3.984-4.969 10.938-5.766 14.344 0 .25-.64.25-.625 0-1.516-.687-.875-.688-.875-1.219 0-.953 1.5-3.578 1.5-2.64 1.5-3.438 0-1.078-4.172-1.078-.61 0-1.906.063l-1.156 1.531q-2.141 2.89-4.11 7.14-.343.766-2.062.766-1.703 0-1.703-.484 0-.344 1.906-2.953 1.922-2.625 4.562-5.813-.468.063-1.171.125-.704.063-1.094.11-.375.046-.406.046zm12.718-3.953q1.203-1.453 1.797-2.922.594-1.468.594-1.984 0-.531-.516-.531-.922 0-3.047 1.953-2.109 1.937-4.593 4.86l3.343.062q1.235 0 2.422-1.438zm14.235 11.86q-.438 0-.766-.39-.312-.407-.406-.813l-.094-.391q-.094-.344-.453-.344-.344 0-.625.219-2.875 2.266-5.36 2.266-3.187 0-3.187-4.266 0-1.5.781-3.734.782-2.235 2.25-4.672 1.469-2.438 3.328-4.563 1.86-2.14 4.297-3.515 2.438-1.375 4.86-1.375 1.312 0 2.14.453.125.062.282.062.156 0 .296-.094.766-.515 1.97-.515 1.202 0 1.202.578 0 .734-1.547 2.906-2.39 3.406-3.921 3.406-.391 0-.532-.062-.14-.063-.14-.234 0-.188.187-.625.61-1.282.61-2.125 0-.844-.329-1.282-.312-.453-1.328-.453-1.843 0-4.375 2.781-2.515 2.766-4.328 6.407-1.812 3.625-1.812 5.984 0 2 1.656 2 1.297 0 2.922-1.312 1.64-1.329 2.703-2.844 1.062-1.516 1.062-2.172 0-.672-.656-.922-.64-.266-2.469-.266-.375 0-.375-.28 0-.516.594-1.063.61-.563 1.156-.625 2.204-.14 4.641-.14 2.438 0 2.438.421 0 .375-.422 1.14-.407.766-.672 1.25-.25.47-.766 1.313-.5.844-.812 1.328-.297.485-.938 1.485-.625 1-1 1.609-.36.61-.89 1.625-.532 1.016-.782 1.437-.25.407-.39.407zM661.069 200.44q0 1.719-.703 3.937-.688 2.204-2.031 4.5-1.344 2.297-3.11 4.25-1.765 1.938-4.172 3.188-2.406 1.234-4.968 1.234-2.563 0-4.032-1.422-1.468-1.421-1.468-3.937 0-1.719.687-3.922.688-2.203 2.031-4.5 1.36-2.312 3.125-4.234 1.766-1.938 4.172-3.172 2.406-1.25 4.953-1.25 2.563 0 4.032 1.422 1.484 1.406 1.484 3.906zm-3.625-.266q0-3.375-2.453-3.375-2.047 0-4.578 2.61-2.532 2.61-4.297 6.297-1.766 3.687-1.766 6.609 0 3.375 2.453 3.375 2.032 0 4.563-2.61 2.547-2.609 4.312-6.296 1.766-3.703 1.766-6.61zm22.08.266q0 1.719-.703 3.937-.687 2.204-2.031 4.5-1.344 2.297-3.11 4.25-1.765 1.938-4.171 3.188-2.407 1.234-4.97 1.234-2.562 0-4.03-1.422-1.47-1.421-1.47-3.937 0-1.719.688-3.922.688-2.203 2.032-4.5 1.359-2.312 3.125-4.234 1.765-1.938 4.171-3.172 2.407-1.25 4.954-1.25 2.562 0 4.03 1.422 1.485 1.406 1.485 3.906zm-3.625-.266q0-3.375-2.453-3.375-2.047 0-4.578 2.61t-4.297 6.297q-1.766 3.687-1.766 6.609 0 3.375 2.454 3.375 2.03 0 4.562-2.61 2.547-2.609 4.313-6.296 1.765-3.703 1.765-6.61zm6.283 17.5q-1.625 0-2.093-.109l-.782-.188q-.312-.062-.406-.093-.094-.032-.266-.032-.375 0-.687.172-1.063.891-2.813.891-.921 0-.921-.422 0-.406 2.125-4.078 2.14-3.688 4.718-8.188 2.594-4.5 3.344-6.187.75-1.688.75-2.922v-.234q0-.89 5.125-.89 7.61 0 7.61 5.171 0 3.75-2.547 8.25-1.313 2.36-3.094 4.328-1.781 1.953-4.438 3.25-2.656 1.281-5.625 1.281zm10.078-10.5q1.141-2.187 1.735-4.093.61-1.922.61-3.22 0-1.312-.75-1.984-.75-.671-2.532-.671-1.234 0-1.969.843-1.922 2.422-5.578 8.938-3.64 6.515-3.64 7.625 0 1.219 2.609 1.219 1.828 0 3.703-1.282 1.875-1.28 3.281-3.234 1.406-1.953 2.531-4.14zm8.255 10.5q-1.625 0-2.094-.109l-.781-.188q-.313-.062-.406-.093-.094-.032-.266-.032-.375 0-.688.172-1.062.891-2.812.891-.922 0-.922-.422 0-.406 2.125-4.078 2.14-3.688 4.719-8.188 2.594-4.5 3.344-6.187.75-1.688.75-2.922v-.234q0-.89 5.125-.89 7.609 0 7.609 5.171 0 3.75-2.547 8.25-1.312 2.36-3.094 4.328-1.78 1.953-4.437 3.25-2.656 1.281-5.625 1.281zm10.078-10.5q1.14-2.187 1.734-4.093.61-1.922.61-3.22 0-1.312-.75-1.984-.75-.671-2.532-.671-1.234 0-1.968.843-1.922 2.422-5.578 8.938-3.641 6.515-3.641 7.625 0 1.219 2.61 1.219 1.827 0 3.702-1.282 1.875-1.28 3.282-3.234 1.406-1.953 2.531-4.14zm4.426 2.078q-.219 0-.281-.28 0-.516.734-1.188.735-.688 1.172-.86.453-.187 2.969-.25l.437-.5q9.313-10.75 12.938-10.75.297-.03.703-.03 2.11 0 2.11 1 0 .187-.391.983l-1.39 2.766q-.97 1.953-1.891 3.984-4.97 10.938-5.766 14.344 0 .25-.64.25-.626 0-1.516-.687-.875-.688-.875-1.219 0-.953 1.5-3.578 1.5-2.64 1.5-3.438 0-1.078-4.172-1.078-.61 0-1.906.063l-1.157 1.531q-2.14 2.89-4.11 7.14-.343.766-2.062.766-1.703 0-1.703-.484 0-.344 1.907-2.953 1.921-2.625 4.562-5.813-.469.063-1.172.125-.703.063-1.094.11-.375.046-.406.046zm12.719-3.953q1.203-1.453 1.797-2.922.594-1.468.594-1.984 0-.531-.516-.531-.922 0-3.047 1.953-2.11 1.937-4.594 4.86l3.344.062q1.234 0 2.422-1.438zM644.053 238.021l-.03-3.25q0-1.297-.188-1.656-.188-.375-.188-.625 0-.61 2.406-.61 2.407 0 2.407 1.141 0 .766-.516 3.703-.5 2.922-.531 4.016-.016 1.078.593 1.078.36 0 .829-.406 1.859-1.656 4.187-4.172 2.344-2.531 3.11-3.531.765-1 1.28-1.219 1.11-.422 2.641-.484h.516q1.75 0 1.75.546 0 .313-.516.625-1.968 1.125-6.765 5.141t-7 6.375q-.89.953-3.016 4.89-2.11 3.938-2.875 4.47-.703.609-2.094.609-1.375 0-1.375-.516v-.094q0-.218 1.016-1.906 3.281-5.36 3.687-6.75.672-2.203.672-7.375zm16.305 8.906.031-.671q0-.61-.484-.61-.406 0-1.016.485-1.75 1.546-3.687 3.593-1.922 2.032-2.563 2.891-.625.844-.828 1.047-.187.203-1.078.531-.89.344-2.062.344-1.188 0-1.188-.36 0-.78 12.047-10.953 1.078-.859 1.14-2.234.11-2.266.11-3.375 0-3.094-.516-4.656l-.156-.469q0-.516 2.266-.516 1.11 0 1.562.36.47.343.47 1.297 0 .953-.22 4.015 0 .828.594.828.297 0 .703-.343 4.047-3.579 4.766-4.5.719-.922 1.172-1.141.922-.36 2.578-.422h.515q1.516 0 1.516.484 0 .282-.437.532-3.891 2.203-10.266 7.406-.156.094-.39.266-.22.171-.626.812-.39.64-.453 1.406-.219 3.875-.219 6.375 0 2.891.422 3.75.125.25.125.391 0 .469-.937.656-.922.203-1.781.203-.86 0-1.11-.375-.25-.359-.25-1.484 0-1.14.25-5.563zm16.463 0 .03-.671q0-.61-.483-.61-.407 0-1.016.485-1.75 1.546-3.688 3.593-1.921 2.032-2.562 2.891-.625.844-.828 1.047-.188.203-1.078.531-.891.344-2.063.344-1.187 0-1.187-.36 0-.78 12.047-10.953 1.078-.859 1.14-2.234.11-2.266.11-3.375 0-3.094-.516-4.656l-.156-.469q0-.516 2.265-.516 1.11 0 1.563.36.469.343.469 1.297 0 .953-.22 4.015 0 .828.595.828.296 0 .703-.343 4.047-3.579 4.765-4.5.719-.922 1.172-1.141.922-.36 2.578-.422h.516q1.516 0 1.516.484 0 .282-.438.532-3.89 2.203-10.266 7.406-.156.094-.39.266-.219.171-.625.812-.39.64-.453 1.406-.22 3.875-.22 6.375 0 2.891.423 3.75.125.25.125.391 0 .469-.938.656-.922.203-1.781.203-.86 0-1.11-.375-.25-.359-.25-1.484 0-1.14.25-5.563zm16.462 0 .031-.671q0-.61-.484-.61-.406 0-1.016.485-1.75 1.546-3.687 3.593-1.922 2.032-2.563 2.891-.625.844-.828 1.047-.187.203-1.078.531-.89.344-2.062.344-1.188 0-1.188-.36 0-.78 12.047-10.953 1.078-.859 1.14-2.234.11-2.266.11-3.375 0-3.094-.516-4.656l-.156-.469q0-.516 2.266-.516 1.11 0 1.562.36.469.343.469 1.297 0 .953-.219 4.015 0 .828.594.828.297 0 .703-.343 4.047-3.579 4.766-4.5.719-.922 1.172-1.141.922-.36 2.578-.422h.515q1.516 0 1.516.484 0 .282-.437.532-3.891 2.203-10.266 7.406-.156.094-.39.266-.22.171-.626.812-.39.64-.453 1.406-.219 3.875-.219 6.375 0 2.891.422 3.75.125.25.125.391 0 .469-.937.656-.922.203-1.781.203-.86 0-1.11-.375-.25-.359-.25-1.484 0-1.14.25-5.563zm16.463 0 .03-.671q0-.61-.484-.61-.406 0-1.015.485-1.75 1.546-3.688 3.593-1.922 2.032-2.562 2.891-.625.844-.828 1.047-.188.203-1.078.531-.891.344-2.063.344-1.187 0-1.187-.36 0-.78 12.046-10.953 1.079-.859 1.141-2.234.11-2.266.11-3.375 0-3.094-.516-4.656l-.156-.469q0-.516 2.265-.516 1.11 0 1.563.36.468.343.468 1.297 0 .953-.218 4.015 0 .828.593.828.297 0 .704-.343 4.046-3.579 4.765-4.5.719-.922 1.172-1.141.922-.36 2.578-.422h.516q1.515 0 1.515.484 0 .282-.437.532-3.89 2.203-10.266 7.406-.156.094-.39.266-.22.171-.625.812-.391.64-.453 1.406-.22 3.875-.22 6.375 0 2.891.423 3.75.125.25.125.391 0 .469-.938.656-.922.203-1.781.203-.86 0-1.11-.375-.25-.359-.25-1.484 0-1.14.25-5.563z"/><path fill="#45818e" d="M728.131 24.452c0-6.279 4.836-11.369 10.801-11.369 2.865 0 5.612 1.198 7.638 3.33s3.164 5.024 3.164 8.04c0 6.278-4.836 11.369-10.802 11.369-5.965 0-10.8-5.09-10.8-11.37z" fill-rule="evenodd"/><path stroke="#134f5c" stroke-width="2" stroke-linejoin="round" stroke-linecap="butt" d="M728.131 24.452c0-6.279 4.836-11.369 10.801-11.369 2.865 0 5.612 1.198 7.638 3.33s3.164 5.024 3.164 8.04c0 6.278-4.836 11.369-10.802 11.369-5.965 0-10.8-5.09-10.8-11.37z"/><path fill="none" d="M728.131 8.774h17.882v24.147h-17.882z"/><path fill="#d0e0e3" d="M741.576 28.014h-4.063v-.953h1v-5.594h-1v-.953h3.063v6.547h1v.953z"/><path fill="#45818e" d="M604.412 43.236h179.37V76.37h-179.37z" fill-rule="evenodd"/><path stroke="#134f5c" stroke-width="3" stroke-linejoin="round" stroke-linecap="butt" d="M604.412 43.236h179.37V76.37h-179.37z"/><path fill="#a2c4c9" d="M639.926 65.78q-.312.579-1.046.579-.72 0-.954-.203-.218-.22-.218-1.094 0-.875.922-4.078.937-3.203.937-3.688 0-.5-.187-.5-.282 0-.72.5-.437.485-.718.969l-.297.5q-1.531 2.5-2.797 5.016-1.25 2.5-1.843 3.672-.579 1.156-1.016 1.468-.438.313-1.25.313-.797 0-.797-.36v-.078q0-.234 1.25-2.234 4.61-7.313 6.938-11.953.546-1.094.546-2.063v-.281q0-.437 1-.703 1-.266 1.641-.266h.797q1.016 0 1.484.39.219.142.219.392 0 .234-.953 3.328-.938 3.078-.938 3.703t.188.625q.61 0 2.11-1.469 1.515-1.484 3.452-3.547 1.594-1.734 3.032-2.984.312-.281.75-.328.937-.157 2-.157 1.062 0 1.062.485 0 .094-.015.14 0 .047-.891 1.454-.89 1.406-2.172 3.484-1.266 2.078-2.547 4.297-1.265 2.219-2.156 4.219-.875 2-.875 2.937-.219.422-.672.422-2.375 0-2.375-.844 0-1.953 4.813-9.344.625-.937.625-1.171 0-.235-.36-.235-.906 0-3.844 3.25-2.921 3.25-4.125 5.438zm34.584-10.374q0 1.343-.547 3.078-.531 1.719-1.594 3.531-1.047 1.797-2.437 3.328-1.375 1.516-3.266 2.485-1.875.968-3.875.968t-3.156-1.11q-1.156-1.124-1.156-3.093 0-1.344.53-3.062.548-1.735 1.61-3.532 1.063-1.796 2.438-3.312 1.375-1.516 3.25-2.484 1.89-.97 3.89-.97 2.016 0 3.157 1.11 1.156 1.094 1.156 3.063zm-2.828-.22q0-2.64-1.922-2.64-1.61 0-3.594 2.047-1.969 2.031-3.36 4.938-1.374 2.89-1.374 5.172 0 2.625 1.922 2.625 1.593 0 3.578-2.032 2-2.047 3.375-4.937t1.375-5.172zm13.197 13.75q-1.719 0-2.86-.812-1.14-.812-1.14-2.296 0-.97.938-2.844.953-1.89 2.593-4.625 1.657-2.735 2.36-4.14.703-1.407.703-2.298 0-.234.14-.375.344-.343 2.313-.343 1.297 0 1.297.515 0 .235-.172.406-1.313 1.844-4.063 6.579-2.734 4.718-2.734 6.015 0 1.89 1.734 1.89 1.563 0 2.422-.812.657-.64 1.078-1.343.97-1.47 2.5-4.594 1.532-3.125 2.735-5.563 1.219-2.437 1.703-2.828.5-.406 1.734-.406 1.25 0 1.25.297 0 .187-.422.687-.421.5-1.25 1.75-.812 1.25-1.875 2.985-1.062 1.718-1.859 3.047-.797 1.312-1.86 3.125-1.062 1.812-1.265 2.125-2.25 3.859-6 3.859zm28.821-6.202q0 2.531-2.093 4.25-2.094 1.719-5.36 1.719-1.797 0-2.734-.532-.094-.047-.219-.047t-.89.266q-.766.266-1.547.266-.782 0-.782-.453 0-.625 1.516-3.25 1.516-2.641 2.688-3.547.5-.375.984-.375t.484.25q0 .047-.328.593-.328.547-.656 1.438-.313.875-.313 1.516 0 .64.125 1.078.125.422.672.875.547.437 1.313.437.781 0 1.469-.187.687-.203 1.359-.61.672-.406 1.094-1.187.437-.797.437-1.844 0-1.047-.656-2.125-.64-1.078-1.406-1.828-.766-.766-1.422-1.734-.64-.97-.64-1.891 0-.938.484-1.719.5-.797 1.234-1.265.734-.47 1.672-.782 1.578-.531 2.797-.531 1.234 0 1.812.11.594.109.89.203.298.093.376.093.078 0 .187-.062.719-.406 1.563-.406t.844.406q0 .672-1.594 3.015-1.594 2.329-2.39 2.329-.657 0-.657-.282 0-.047.172-.343.531-.954.531-2.172 0-.672-.578-1.047-.578-.375-1.188-.375-.609 0-1.25.203-.625.187-1.265.766-.64.562-.64 1.375 0 .796.609 1.671t1.343 1.61q.735.734 1.344 1.86.61 1.109.61 2.265zm19.187-2.313-2.047-.062q-1.515 0-2.328.969-.578.734-1.53 2.359-.938 1.625-.938 2.594 0 .89 1.75.89 1.078 0 2.312-.406 2.469-.828 3.906-3.125.172-.219.578-.219.407 0 .407.469t-.766 1.953q-.766 1.485-1.375 2.235-.312.39-1.219.437-.89.047-2.734.047h-2.36l-1.359-.031-.656-.047h-.172q-.14 0-.36.219-.78.703-2.25.703-.687 0-.687-.313v-.078q0-.266 1.656-3.125 1.672-2.875 3.704-6.406 2.046-3.531 2.625-4.828.578-1.313.578-2.25v-.266q0-.406 5.11-.406 1.687 0 2.921.047.36-.407 1.86-.407.624 0 .624.313 0 .547-1.093 2.219-1.094 1.672-1.907 2.265-.265.219-.672.219-.406 0-.406-.172 0-.062.063-.187.39-.75.39-1.672 0-1.328-1.828-1.328-1.11 0-1.75.578-.625.578-1.25 1.61-.625 1.03-.922 1.78-.297.735-.297.922 0 .578.563.719.562.125 2.234.125l1.782-.062q.234 0 .234.187 0 .172-.25.594-.25.406-.516.578-.53.36-1.625.36z"/><path fill="#45818e" d="M702.85 24.452c0-6.279 4.836-11.369 10.802-11.369 2.864 0 5.612 1.198 7.637 3.33 2.026 2.132 3.164 5.024 3.164 8.04 0 6.278-4.836 11.369-10.801 11.369-5.966 0-10.802-5.09-10.802-11.37z" fill-rule="evenodd"/><path stroke="#134f5c" stroke-width="2" stroke-linejoin="round" stroke-linecap="butt" d="M702.85 24.452c0-6.279 4.836-11.369 10.802-11.369 2.864 0 5.612 1.198 7.637 3.33 2.026 2.132 3.164 5.024 3.164 8.04 0 6.278-4.836 11.369-10.801 11.369-5.966 0-10.802-5.09-10.802-11.37z"/><path fill="none" d="M699.131 8.774h21.603v24.147H699.13z"/><path fill="#d0e0e3" d="M715.131 26.311h-.515v1.703h-2.063v-1.703h-4.281q.14-.61.36-1.219.218-.625.5-1.234.296-.61.624-1.187.328-.594.703-1.11h1.438q-.453.75-.75 1.438-.297.672-.485 1.203-.203.625-.328 1.156h2.22v-4.844h2.062v4.844h.515v.953z"/><path fill="#45818e" d="M677.57 24.452c0-6.279 4.835-11.369 10.8-11.369 2.865 0 5.613 1.198 7.638 3.33 2.026 2.132 3.164 5.024 3.164 8.04 0 6.278-4.836 11.369-10.801 11.369-5.966 0-10.802-5.09-10.802-11.37z" fill-rule="evenodd"/><path stroke="#134f5c" stroke-width="2" stroke-linejoin="round" stroke-linecap="butt" d="M677.57 24.452c0-6.279 4.835-11.369 10.8-11.369 2.865 0 5.613 1.198 7.638 3.33 2.026 2.132 3.164 5.024 3.164 8.04 0 6.278-4.836 11.369-10.801 11.369-5.966 0-10.802-5.09-10.802-11.37z"/><path fill="none" d="M673.89 8.774h21.569v24.147h-21.57z"/><path fill="#d0e0e3" d="M690.484 25.717q0 .5-.172.891-.172.375-.453.64-.282.266-.672.454-.375.172-.797.281-.406.094-.844.14-.422.048-.813.048-.468 0-1.015-.11-.531-.11-1.047-.328-.5-.219-.922-.531-.422-.328-.625-.766l1.86-.875q0 .36.14.672.156.313.39.547.25.234.563.375.313.125.657.125.312 0 .625-.11.312-.109.546-.312.235-.219.375-.5.157-.297.157-.64 0-.391-.141-.688-.125-.297-.36-.484-.234-.204-.546-.297-.313-.11-.656-.11-.829 0-1.422.078-.594.063-.985.141-.468.094-.765.203l.78-4.047h5.517v.969h-3.829l-.359 1.828q.219-.031.484-.031.266-.016.579-.016.687 0 1.234.11.547.109.969.297.422.171.703.421.297.25.484.532.188.265.266.547.094.28.094.546z"/><path fill="#45818e" d="M652.289 24.452c0-6.279 4.835-11.369 10.8-11.369 2.865 0 5.613 1.198 7.638 3.33 2.026 2.132 3.164 5.024 3.164 8.04 0 6.278-4.836 11.369-10.801 11.369-5.966 0-10.801-5.09-10.801-11.37z" fill-rule="evenodd"/><path stroke="#134f5c" stroke-width="2" stroke-linejoin="round" stroke-linecap="butt" d="M652.289 24.452c0-6.279 4.835-11.369 10.8-11.369 2.865 0 5.613 1.198 7.638 3.33 2.026 2.132 3.164 5.024 3.164 8.04 0 6.278-4.836 11.369-10.801 11.369-5.966 0-10.801-5.09-10.801-11.37z"/><path fill="none" d="M648.57 8.774h21.602v24.147h-21.603z"/><path fill="#d0e0e3" d="M661.273 28.17q-.47 0-1.016-.109-.531-.11-1.047-.328-.5-.219-.922-.531-.406-.328-.625-.766l1.86-.875q0 .36.14.672.157.313.39.547.25.234.563.375.313.125.657.125.328 0 .625-.094.312-.094.547-.281.234-.188.375-.453.156-.281.156-.64 0-.391-.14-.657-.126-.281-.36-.453-.235-.188-.547-.266-.297-.078-.656-.078h-1.016v-.89h1.016q.25 0 .468-.063.235-.063.407-.188.187-.14.297-.328.109-.203.109-.453 0-.297-.094-.484-.094-.203-.281-.328-.172-.125-.406-.172-.235-.063-.5-.063-.266 0-.516.078-.234.063-.422.204-.187.125-.297.328-.11.203-.11.484l-1.483-1.094q.218-.265.562-.453.344-.203.734-.312.391-.125.782-.172.406-.063.75-.063.312 0 .656.047.36.031.703.11.344.078.656.218.328.14.563.36.234.218.375.515.156.297.156.688 0 .234-.11.469-.109.218-.28.421-.157.188-.376.344-.203.14-.421.219.359.078.687.266.344.171.594.437t.39.61q.157.328.157.718 0 .516-.172.89-.172.36-.453.626-.282.265-.657.437-.375.157-.796.25-.422.078-.86.11-.422.047-.812.047z"/><path fill="#45818e" d="M627.008 24.452c0-6.279 4.836-11.369 10.801-11.369 2.865 0 5.612 1.198 7.638 3.33 2.025 2.132 3.163 5.024 3.163 8.04 0 6.278-4.836 11.369-10.801 11.369s-10.801-5.09-10.801-11.37z" fill-rule="evenodd"/><path stroke="#134f5c" stroke-width="2" stroke-linejoin="round" stroke-linecap="butt" d="M627.008 24.452c0-6.279 4.836-11.369 10.801-11.369 2.865 0 5.612 1.198 7.638 3.33 2.025 2.132 3.163 5.024 3.163 8.04 0 6.278-4.836 11.369-10.801 11.369s-10.801-5.09-10.801-11.37z"/><path fill="none" d="M623.289 8.774h21.602v24.147H623.29z"/><path fill="#d0e0e3" d="M639.71 22.78q0 .453-.124.797-.125.328-.344.578-.203.234-.5.406-.281.156-.61.281-.328.125-.687.235-.344.094-.688.203-.343.094-.671.234-.313.14-.579.36-.25.203-.437.5-.172.28-.234.687h4.875v.953h-7.094q.11-.718.312-1.234.22-.531.5-.906.282-.375.61-.625.343-.25.687-.422.344-.172.688-.281.36-.125.687-.235.328-.11.61-.234.296-.125.5-.297.218-.188.328-.453.125-.266.125-.656 0-.36-.125-.625-.11-.266-.328-.438-.204-.172-.485-.266-.281-.093-.61-.093-.343 0-.64.125-.281.125-.515.359-.22.219-.391.547-.172.312-.25.703l-1.61-.89q.22-.438.61-.75.39-.329.875-.547.484-.22 1-.313.516-.11.969-.11.453 0 .89.032.438.031.828.14.391.094.72.266.343.172.577.438.25.265.391.64.14.375.14.89z"/><defs><linearGradient id="c" gradientUnits="userSpaceOnUse" gradientTransform="matrix(0 12.83205 -12.83205 0 0 0)" spreadMethod="pad" x1="6.313" y1="-44.556" x2="19.145" y2="-44.556"><stop offset="0" stop-color="#76a5af"/><stop offset="1" stop-color="#a2c4c9"/></linearGradient></defs><path fill="url(#c)" d="M588.307 81.008V234.63h5.52l-11.04 11.04-11.039-11.04h5.52V81.008z" fill-rule="evenodd"/><path stroke="#45818e" stroke-width="2" stroke-linejoin="round" stroke-linecap="butt" d="M588.307 81.008V234.63h5.52l-11.04 11.04-11.039-11.04h5.52V81.008z"/></g></svg>