<svg viewBox="0 0 1009.307 436.06" fill="none" stroke-linecap="square" stroke-miterlimit="10" xmlns="http://www.w3.org/2000/svg"><clipPath id="a"><path d="M0 0h1009.307v436.06H0V0z"/></clipPath><g clip-path="url(#a)"><path fill="none" d="M0 0h1009.307v436.06H0z"/><path fill="#76a5af" d="m783.643 349.066 67.822-50.118v20.705c53.164-11.4 92.717-35.475 106.39-64.759 21.164 45.328-24.098 91.956-106.39 109.602V385.2z" fill-rule="evenodd"/><path fill="#5e838b" d="M963.013 277.316c0-52.01-80.307-94.172-179.37-94.172v-44.842c99.063 0 179.37 42.162 179.37 94.171z" fill-rule="evenodd"/><path fill="none" d="M963.013 277.316c0-52.01-80.307-94.172-179.37-94.172v-44.842c99.063 0 179.37 42.162 179.37 94.171v44.843c0 38.258-44.087 72.714-111.548 87.18V385.2l-67.822-36.134 67.822-50.118v20.705c53.164-11.4 92.717-35.475 106.39-64.759"/><path stroke="#134f5c" stroke-linejoin="round" stroke-linecap="butt" d="M963.013 277.316c0-52.01-80.307-94.172-179.37-94.172v-44.842c99.063 0 179.37 42.162 179.37 94.171v44.843c0 38.258-44.087 72.714-111.548 87.18V385.2l-67.822-36.134 67.822-50.118v20.705c53.164-11.4 92.717-35.475 106.39-64.759"/><path fill="#d9ead3" d="M7.362 285.336H775.52v134.898H7.362z" fill-rule="evenodd"/><path stroke="#6aa84f" stroke-width="4" stroke-linejoin="round" stroke-linecap="butt" d="M7.362 285.336H775.52v134.898H7.362z"/><path fill="none" d="M12.88 308.3h806.802v103.4H12.88z"/><path fill="#38761d" d="M30.036 324.06v-.298q0-.578 2.421-.578 1.22 0 1.22.453 0 .172-.173.36-.86 1.172-3.672 5.953l2.813.031q.922 0 1.687-.75.391-.406.688-.75.312-.36.703-1.016.39-.656.61-1.046.312-.563 1.109-2.172 0-.125.172-.282.172-.171.406-.296.234-.125.734-.22.5-.093 1.172-.093.688 0 .688.297 0 .14-.11.312-.093.157-1.172 1.813-1.078 1.656-2.171 3.437-1.079 1.782-2.297 3.875-1.203 2.079-1.97 3.797-.75 1.72-.75 2.516-.14.375-.562.375-1.25 0-1.734-.203-.469-.203-.469-.61 0-.703 1.5-3.28 1.516-2.579 1.516-3.126 0-.562-.453-.828-.453-.281-1.531-.281-1.063 0-1.47.015-.765 1.25-1.765 3.204-1 1.937-1.687 3.187-.672 1.25-1.078 1.563-.829.64-2.063.64-.687 0-.687-.36 0-.202.593-1.202.594-1.016 1.922-3.172 1.344-2.172 2.328-3.813l-1.39.078q-.328 0-.328-.187 0-.39.484-.766.484-.39.797-.5.328-.125 1.312-.156.844-1.437 2.157-3.969.5-1.093.5-1.953zm14.844 7.53-1.937-.078q-1.422 0-2.188.938-.547.672-1.453 2.219-.89 1.53-.89 2.437 0 .844 1.656.844 1.03 0 2.171-.39 2.344-.766 3.704-2.938.156-.203.53-.203.391 0 .391.437 0 .438-.734 1.844-.719 1.406-1.281 2.11-.297.359-1.14.405-.845.047-2.595.047h-2.218l-1.297-.015-.61-.047h-.156q-.14 0-.344.203-.75.656-2.125.656-.656 0-.656-.297v-.062q0-.25 1.563-2.953 1.578-2.72 3.5-6.047 1.937-3.328 2.468-4.563.547-1.234.547-2.125v-.25q0-.375 4.828-.375 1.594 0 2.766.047.344-.39 1.75-.39.594 0 .594.296 0 .516-1.031 2.094-1.032 1.578-1.813 2.14-.25.204-.64.204-.376 0-.376-.156 0-.078.063-.188.375-.703.375-1.578 0-1.25-1.734-1.25-1.032 0-1.641.547-.594.547-1.188 1.516-.593.968-.875 1.671-.28.704-.28.891 0 .547.53.672.532.11 2.125.11l1.672-.063q.235 0 .235.172t-.25.578q-.235.39-.485.547-.5.343-1.531.343zm4.859 7.625-.313-.015q-.312 0-.469.203-.78.656-2.093.656-.672 0-.672-.297v-.062q0-.25 1.562-2.953 1.578-2.72 3.485-6.047 1.921-3.328 2.468-4.578.563-1.25.563-2.063v-.297q0-.578 2.437-.578 1.22 0 1.22.453 0 .172-.188.36-1.813 2.937-4.797 8.406l-.313.562q-.328.563-.469.813-.125.234-.406.812-.281.579-.422.938-.39 1.016-.39 1.578 0 .844 1.5.844h.156q.937 0 2.047-.39 2.172-.766 3.531-2.938.094-.203.5-.203.422 0 .422.359 0 .547-.719 1.953-.719 1.406-1.312 2.078-.297.406-1.14.406-.829.047-3.626.047l-2.562-.047zm11.849 0-.313-.015q-.312 0-.468.203-.782.656-2.094.656-.672 0-.672-.297v-.062q0-.25 1.562-2.953 1.579-2.72 3.485-6.047 1.922-3.328 2.469-4.578.562-1.25.562-2.063v-.297q0-.578 2.438-.578 1.218 0 1.218.453 0 .172-.187.36-1.813 2.937-4.797 8.406l-.313.562q-.328.563-.468.813-.125.234-.407.812-.28.579-.421.938-.391 1.016-.391 1.578 0 .844 1.5.844h.156q.938 0 2.047-.39 2.172-.766 3.531-2.938.094-.203.5-.203.422 0 .422.359 0 .547-.719 1.953-.718 1.406-1.312 2.078-.297.406-1.14.406-.829.047-3.626.047l-2.562-.047zm24.95-12.375q0 1.282-.516 2.907-.5 1.625-1.5 3.328-1 1.703-2.297 3.14-1.297 1.438-3.078 2.36-1.782.922-3.672.922-1.89 0-2.985-1.047-1.078-1.063-1.078-2.922 0-1.266.5-2.89.516-1.641 1.5-3.344 1-1.704 2.297-3.125 1.313-1.422 3.094-2.344 1.781-.922 3.672-.922 1.89 0 2.969 1.047 1.093 1.047 1.093 2.89zm-2.673-.203q0-2.484-1.812-2.484-1.516 0-3.39 1.922-1.86 1.922-3.173 4.656-1.296 2.734-1.296 4.89 0 2.485 1.812 2.485 1.5 0 3.375-1.922t3.172-4.656q1.312-2.734 1.312-4.89zm12.514-2.625-.03-.5q0-.61 2.109-.61 1.312 0 1.312.657 0 .11-.047.156-.156.891-1.797 5.657-1.625 4.75-1.625 5.234t.453.484q.344 0 .532-.171.312-.329.781-.797.484-.485 2.61-3.438 2.124-2.953 3.421-5.11.438-.859 2.86-.859.609 0 .609.391l-.156.422q-.688 1.39-1.844 4.875-1.156 3.484-1.156 4.094 0 .593.453.593.344 0 .531-.171.313-.329.625-.641.844-.844 3.688-4.797 2.843-3.953 3.843-5.89.25-.5.563-.657.562-.281 1.984-.328h.453q1.188 0 1.188.39 0 .157-.203.36-2.219 2.11-6.516 7.156-4.297 5.032-5.828 7.282-.328.468-.516.671-.172.204-.578.485-.765.5-2.703.5-1.11 0-1.11-.547l.079-.25q.125-.438.484-1.453.375-1.016.625-1.719.25-.703.547-1.547.563-1.687.563-2.078 0-.39-.344-.39-.36 0-.813.546-1.797 2.125-4.359 5.782-.422.609-.672.875-.25.25-1.047.515-.781.266-1.984.266-1.188 0-1.188-.547l.078-.25q.782-2.297 2.11-6.594 1.328-4.312 1.797-6.328.218-1.156.218-1.719zm30.374 2.828q0 1.282-.516 2.907-.5 1.625-1.5 3.328-1 1.703-2.297 3.14-1.297 1.438-3.078 2.36-1.781.922-3.672.922-1.89 0-2.984-1.047-1.078-1.063-1.078-2.922 0-1.266.5-2.89.515-1.641 1.5-3.344 1-1.704 2.297-3.125 1.312-1.422 3.093-2.344 1.782-.922 3.672-.922 1.89 0 2.969 1.047 1.094 1.047 1.094 2.89zm-2.672-.203q0-2.484-1.813-2.484-1.515 0-3.39 1.922-1.86 1.922-3.172 4.656-1.297 2.734-1.297 4.89 0 2.485 1.813 2.485 1.5 0 3.375-1.922t3.171-4.656q1.313-2.734 1.313-4.89zm10.31 11.75.048.672q0 .36-1.094.36-1.906 0-1.906-.72 0-.734 1-3.124 1.015-2.406 1.015-3 0-1.203-1.468-1.203l-.36.03q-.265 0-.265-.202 0-.438.328-.875.328-.438.828-.438 2.047 0 3.672-1.218 1.64-1.235 1.64-2.594 0-.969-.609-1.344-.594-.39-1.64-.39-1.032 0-1.579.624-1.328 1.672-4.297 7.016-2.953 5.328-3.312 6.563-.203.562-1.063.828-.843.28-1.656.28-.797 0-.797-.327v-.047q0-.234 1.563-2.89 1.562-2.657 3.453-5.907 1.906-3.25 2.453-4.484.562-1.25.562-2.11v-.234q0-.61 3.438-.61 3.687 0 4.875.75.5.313.844.922.36.61.36 1.563t-.782 1.937q-.766.97-1.64 1.438-.876.453-1.735.656-.86.203-1.297.344-.422.14-.422.437 0 .172.328.438t.672.625q.344.36.344.766t-.75 2.343q-.75 1.938-.75 3.125zm4.273.828-.312-.015q-.313 0-.469.203-.781.656-2.094.656-.671 0-.671-.297v-.062q0-.25 1.562-2.953 1.578-2.72 3.484-6.047 1.922-3.328 2.47-4.578.562-1.25.562-2.063v-.297q0-.578 2.437-.578 1.219 0 1.219.453 0 .172-.188.36-1.812 2.937-4.796 8.406l-.313.562q-.328.563-.469.813-.125.234-.406.812-.281.579-.422.938-.39 1.016-.39 1.578 0 .844 1.5.844h.156q.937 0 2.047-.39 2.172-.766 3.531-2.938.094-.203.5-.203.422 0 .422.359 0 .547-.719 1.953-.719 1.406-1.312 2.078-.297.406-1.141.406-.828.047-3.625.047l-2.563-.047zm14.162.36q-1.187 0-1.531-.078-.344-.078-.578-.14-.235-.048-.313-.08-.062-.015-.203-.015-.265 0-.5.14-.781.657-2.078.657-.687 0-.687-.312 0-.297 1.578-3.016t3.484-6.047q1.922-3.344 2.469-4.578.562-1.25.562-2.156v-.188q0-.656 3.782-.656 5.625 0 5.625 3.828 0 2.766-1.891 6.094-.969 1.75-2.281 3.203-1.313 1.453-3.282 2.406-1.953.938-4.156.938zm7.453-7.75q.844-1.625 1.282-3.031.453-1.422.453-2.375 0-.97-.563-1.47-.547-.5-1.875-.5-.906 0-1.437.626-1.438 1.797-4.141 6.61-2.687 4.812-2.687 5.624 0 .906 1.921.906 1.36 0 2.735-.937 1.39-.953 2.437-2.39 1.047-1.454 1.875-3.063zM595.801 339.2q-.313 0-.563-.297-.234-.297-.296-.594l-.063-.297q-.078-.25-.344-.25-.25 0-.453.172-2.125 1.672-3.968 1.672-2.36 0-2.36-3.156 0-1.11.578-2.75.578-1.656 1.672-3.453 1.094-1.813 2.453-3.39 1.375-1.579 3.172-2.595 1.813-1.015 3.594-1.015.969 0 1.594.343.078.047.187.047.125 0 .235-.078.562-.375 1.437-.375.89 0 .89.422 0 .547-1.124 2.156-1.766 2.516-2.907 2.516-.28 0-.39-.047-.11-.047-.11-.172 0-.14.141-.469.453-.953.453-1.562 0-.625-.234-.953-.235-.328-.985-.328-1.359 0-3.234 2.047-1.86 2.046-3.203 4.734-1.328 2.687-1.328 4.422 0 1.484 1.219 1.484.953 0 2.156-.969 1.219-.984 2-2.109.781-1.125.781-1.61 0-.484-.484-.671-.47-.203-1.828-.203-.266 0-.266-.203 0-.375.437-.782.438-.422.844-.453 1.64-.125 3.438-.125 1.797 0 1.797.328 0 .266-.313.844-.297.563-.5.906-.188.344-.563.97-.359.624-.593 1-.219.358-.688 1.093-.468.734-.75 1.187-.265.453-.656 1.203-.39.75-.578 1.063-.188.297-.297.297zm4.848-5.844q-.156 0-.203-.203 0-.39.547-.89t.875-.626q.328-.14 2.188-.187l.312-.36q6.89-7.953 9.563-7.953.218-.03.515-.03 1.563 0 1.563.75 0 .14-.297.718l-1.016 2.047q-.718 1.453-1.406 2.937-3.672 8.094-4.25 10.61 0 .187-.469.187-.468 0-1.125-.516-.656-.515-.656-.89 0-.703 1.11-2.656 1.109-1.954 1.109-2.532 0-.797-3.078-.797-.453 0-1.407.047l-.859 1.125q-1.594 2.141-3.031 5.282-.25.562-1.531.562-1.266 0-1.266-.36 0-.25 1.422-2.187 1.422-1.937 3.36-4.281-.329.031-.86.078-.516.047-.797.094-.281.031-.313.031zm9.391-2.922q.89-1.078 1.328-2.156.453-1.094.453-1.469 0-.39-.39-.39-.672 0-2.235 1.437-1.562 1.438-3.406 3.594l2.469.047q.906 0 1.781-1.063zm7.596 8.11q0-1 .734-5.047.75-4.063.75-4.485 0-.422-.25-.422-.234 0-.64.485-.407.469-.672.922l-.297.468q-1.813 2.97-4.11 7.875-.453.985-.859 1.266-.406.297-1.172.297-.75 0-.75-.344v-.062q0-.297 1.157-2.157 4.421-7.093 6.453-11.218.531-1.047.531-1.875v-.36q0-.172.125-.328.125-.172.781-.36.656-.202 1.813-.202 1.734 0 1.734.656 0 .203-.937 4.406-.922 4.188-.922 5.063 0 .86.187.86.266 0 .563-.282.297-.297.453-.578l.156-.297q1.453-2.375 2.61-4.719l1.703-3.453q.546-1.11.953-1.406.578-.344 1.484-.344t.906.281v.031q0 .172-1.203 1.922-1.187 1.735-3.172 4.891-1.984 3.156-3.453 6.047-.64 1.469-.64 2.344 0 .28-.11.421-.094.125-.703.25-.594.125-1.219.125h-.734q-.25 0-.61-.109-.64-.187-.64-.562zm7.822-5.188q-.157 0-.204-.203 0-.39.547-.89t.875-.626q.328-.14 2.188-.187l.312-.36q6.891-7.953 9.563-7.953.219-.03.515-.03 1.563 0 1.563.75 0 .14-.297.718l-1.016 2.047q-.718 1.453-1.406 2.937-3.672 8.094-4.25 10.61 0 .187-.469.187-.468 0-1.125-.516-.656-.515-.656-.89 0-.703 1.11-2.656 1.109-1.954 1.109-2.532 0-.797-3.078-.797-.453 0-1.406.047l-.86 1.125q-1.594 2.141-3.031 5.282-.25.562-1.531.562-1.266 0-1.266-.36 0-.25 1.422-2.187 1.422-1.937 3.36-4.281-.329.031-.86.078-.516.047-.797.094-.281.031-.312.031zm9.39-2.922q.89-1.078 1.328-2.156.453-1.094.453-1.469 0-.39-.39-.39-.672 0-2.235 1.437-1.562 1.438-3.406 3.594l2.469.047q.906 0 1.781-1.063zm6.556 9.14q-1.188 0-1.532-.077-.343-.078-.578-.14-.234-.048-.312-.079-.063-.016-.203-.016-.266 0-.5.141-.782.656-2.078.656-.688 0-.688-.312 0-.297 1.578-3.016t3.485-6.047q1.921-3.344 2.468-4.578.563-1.25.563-2.156v-.188q0-.656 3.781-.656 5.625 0 5.625 3.828 0 2.766-1.89 6.094-.97 1.75-2.282 3.203-1.312 1.453-3.281 2.406-1.953.938-4.156.938zm7.453-7.75q.844-1.624 1.281-3.03.453-1.422.453-2.375 0-.97-.562-1.47-.547-.5-1.875-.5-.907 0-1.438.626-1.437 1.797-4.14 6.61-2.688 4.812-2.688 5.624 0 .906 1.922.906 1.36 0 2.734-.937 1.39-.953 2.438-2.39 1.047-1.454 1.875-3.063zm17.36 2.188.016-.5q0-.453-.36-.453-.296 0-.75.36-1.28 1.125-2.718 2.64-1.422 1.5-1.89 2.14-.454.641-.61.782-.14.14-.797.39-.656.25-1.53.25-.876 0-.876-.265 0-.562 8.906-8.094.797-.625.844-1.656.078-1.672.078-2.484 0-2.297-.375-3.453l-.125-.329q0-.39 1.688-.39.812 0 1.14.265.344.25.344.954 0 .703-.156 2.968 0 .61.437.61.22 0 .516-.235 3-2.656 3.531-3.328.531-.687.86-.844.687-.28 1.906-.328h.39q1.11 0 1.11.375 0 .203-.313.375-2.875 1.641-7.593 5.485l-.282.203q-.172.11-.468.594-.297.468-.344 1.046-.156 2.844-.156 4.704 0 2.14.312 2.765.094.188.094.297 0 .344-.688.484-.687.157-1.328.157-.625 0-.812-.282-.188-.265-.188-1.109t.188-4.094zm9.806-6.593-.016-2.407q0-.953-.14-1.218-.125-.282-.125-.454 0-.453 1.765-.453 1.782 0 1.782.828 0 .579-.375 2.75-.375 2.157-.407 2.97-.015.796.438.796.281 0 .625-.297 1.375-1.234 3.094-3.094 1.718-1.875 2.281-2.609.578-.734.969-.89.812-.329 1.937-.36h.39q1.298 0 1.298.406 0 .22-.39.453-1.454.829-5 3.797-3.548 2.97-5.173 4.72-.656.702-2.219 3.608-1.562 2.907-2.14 3.297-.516.453-1.531.453-1.016 0-1.016-.39v-.063q0-.156.734-1.406 2.438-3.969 2.72-4.984.5-1.625.5-5.453zm12.059 6.593.015-.5q0-.453-.359-.453-.297 0-.75.36-1.281 1.125-2.719 2.64-1.422 1.5-1.89 2.14-.454.641-.61.782-.14.14-.797.39-.656.25-1.53.25-.876 0-.876-.265 0-.562 8.906-8.094.797-.625.844-1.656.078-1.672.078-2.484 0-2.297-.375-3.453l-.125-.329q0-.39 1.688-.39.812 0 1.14.265.344.25.344.954 0 .703-.156 2.968 0 .61.437.61.22 0 .516-.235 3-2.656 3.531-3.328.531-.687.86-.844.687-.28 1.906-.328h.39q1.11 0 1.11.375 0 .203-.313.375-2.875 1.641-7.593 5.485l-.282.203q-.172.11-.468.594-.297.468-.344 1.046-.156 2.844-.156 4.704 0 2.14.312 2.765.094.188.094.297 0 .344-.688.484-.687.157-1.328.157-.625 0-.812-.282-.188-.265-.188-1.109t.188-4.094zm12.166 0 .016-.5q0-.453-.36-.453-.297 0-.75.36-1.28 1.125-2.718 2.64-1.422 1.5-1.891 2.14-.453.641-.61.782-.14.14-.796.39-.657.25-1.532.25t-.875-.265q0-.562 8.907-8.094.797-.625.843-1.656.079-1.672.079-2.484 0-2.297-.375-3.453l-.125-.329q0-.39 1.687-.39.813 0 1.14.265.344.25.344.954 0 .703-.156 2.968 0 .61.438.61.218 0 .515-.235 3-2.656 3.532-3.328.53-.687.859-.844.687-.28 1.906-.328h.39q1.11 0 1.11.375 0 .203-.312.375-2.875 1.641-7.594 5.485-.11.078-.281.203-.172.11-.469.594-.297.468-.344 1.046-.156 2.844-.156 4.704 0 2.14.312 2.765.094.188.094.297 0 .344-.687.484-.688.157-1.328.157-.625 0-.813-.282-.187-.265-.187-1.109t.187-4.094zm12.166 0 .016-.5q0-.453-.36-.453-.296 0-.75.36-1.28 1.125-2.718 2.64-1.422 1.5-1.89 2.14-.454.641-.61.782-.14.14-.797.39-.656.25-1.531.25-.875 0-.875-.265 0-.562 8.906-8.094.797-.625.844-1.656.078-1.672.078-2.484 0-2.297-.375-3.453l-.125-.329q0-.39 1.687-.39.813 0 1.141.265.344.25.344.954 0 .703-.156 2.968 0 .61.437.61.219 0 .516-.235 3-2.656 3.531-3.328.531-.687.86-.844.687-.28 1.906-.328h.39q1.11 0 1.11.375 0 .203-.313.375-2.875 1.641-7.594 5.485l-.28.203q-.173.11-.47.594-.297.468-.343 1.046-.157 2.844-.157 4.704 0 2.14.313 2.765.094.188.094.297 0 .344-.688.484-.687.157-1.328.157-.625 0-.813-.282-.187-.265-.187-1.109t.187-4.094zM24.301 360.556q-.156 0-.203-.203 0-.39.547-.89t.875-.626q.328-.14 2.187-.187l.313-.36q6.89-7.953 9.562-7.953.22-.03.516-.03 1.563 0 1.563.75 0 .14-.297.718l-1.016 2.047q-.719 1.453-1.406 2.937-3.672 8.094-4.25 10.61 0 .187-.469.187t-1.125-.516q-.656-.515-.656-.89 0-.703 1.11-2.656 1.109-1.954 1.109-2.532 0-.797-3.079-.797-.453 0-1.406.047l-.86 1.125q-1.593 2.141-3.03 5.282-.25.562-1.532.562-1.265 0-1.265-.36 0-.25 1.422-2.187 1.421-1.937 3.359-4.281-.328.031-.86.078-.515.047-.796.094-.282.031-.313.031zm9.39-2.922q.891-1.078 1.329-2.156.453-1.094.453-1.469 0-.39-.39-.39-.672 0-2.235 1.437-1.562 1.438-3.406 3.594l2.469.047q.906 0 1.78-1.063zm7.597 8.11q0-1 .734-5.047.75-4.063.75-4.485 0-.422-.25-.422-.234 0-.64.485-.407.469-.672.922l-.297.468q-1.813 2.97-4.11 7.875-.453.985-.86 1.266-.405.297-1.17.297-.75 0-.75-.344v-.062q0-.297 1.155-2.157 4.422-7.093 6.453-11.218.532-1.047.532-1.875v-.36q0-.172.125-.328.125-.172.78-.36.657-.202 1.813-.202 1.735 0 1.735.656 0 .203-.938 4.406-.922 4.188-.922 5.063 0 .86.188.86.266 0 .562-.282.297-.297.454-.578l.156-.297q1.453-2.375 2.61-4.719l1.702-3.453q.547-1.11.953-1.406.579-.344 1.485-.344.906 0 .906.281v.031q0 .172-1.203 1.922-1.188 1.735-3.172 4.891-1.984 3.156-3.453 6.047-.64 1.469-.64 2.344 0 .28-.11.421-.094.125-.703.25-.594.125-1.219.125h-.734q-.25 0-.61-.109-.64-.187-.64-.562zm11.08 1.03q-1.187 0-1.531-.077-.344-.078-.578-.14-.235-.048-.313-.079-.062-.016-.203-.016-.265 0-.5.141-.781.656-2.078.656-.687 0-.687-.312 0-.297 1.578-3.016t3.484-6.047q1.922-3.344 2.469-4.578.562-1.25.562-2.156v-.188q0-.656 3.782-.656 5.625 0 5.625 3.828 0 2.766-1.891 6.094-.969 1.75-2.281 3.203-1.313 1.453-3.282 2.406-1.953.938-4.156.938zm7.453-7.75q.844-1.624 1.282-3.03.453-1.422.453-2.375 0-.97-.563-1.47-.547-.5-1.875-.5-.906 0-1.437.626-1.438 1.797-4.141 6.61-2.687 4.812-2.687 5.624 0 .906 1.921.906 1.36 0 2.735-.937 1.39-.953 2.437-2.39 1.047-1.454 1.875-3.063zm7.346 1.532q-.157 0-.204-.203 0-.39.547-.89t.875-.626q.328-.14 2.188-.187l.312-.36q6.89-7.953 9.563-7.953.219-.03.515-.03 1.563 0 1.563.75 0 .14-.297.718l-1.016 2.047q-.718 1.453-1.406 2.937-3.672 8.094-4.25 10.61 0 .187-.469.187-.468 0-1.125-.516-.656-.515-.656-.89 0-.703 1.11-2.656 1.109-1.954 1.109-2.532 0-.797-3.078-.797-.453 0-1.406.047l-.86 1.125q-1.594 2.141-3.031 5.282-.25.562-1.531.562-1.266 0-1.266-.36 0-.25 1.422-2.187 1.422-1.937 3.36-4.281-.329.031-.86.078-.516.047-.797.094-.281.031-.312.031zm9.39-2.922q.89-1.078 1.328-2.156.453-1.094.453-1.469 0-.39-.39-.39-.672 0-2.235 1.437-1.562 1.438-3.406 3.594l2.469.047q.906 0 1.781-1.063zM91.16 366.4q-.312 0-.562-.297-.234-.297-.297-.594l-.062-.297q-.079-.25-.344-.25-.25 0-.453.172-2.125 1.672-3.969 1.672-2.36 0-2.36-3.156 0-1.11.579-2.75.578-1.656 1.672-3.453 1.093-1.813 2.453-3.39 1.375-1.579 3.172-2.595 1.812-1.015 3.593-1.015.97 0 1.594.343.078.047.188.047.125 0 .234-.078.562-.375 1.437-.375.891 0 .891.422 0 .547-1.125 2.156-1.766 2.516-2.906 2.516-.281 0-.39-.047-.11-.047-.11-.172 0-.14.14-.469.454-.953.454-1.562 0-.625-.235-.953-.234-.328-.984-.328-1.36 0-3.235 2.047-1.859 2.046-3.203 4.734-1.328 2.687-1.328 4.422 0 1.484 1.219 1.484.953 0 2.156-.969 1.219-.984 2-2.109.781-1.125.781-1.61 0-.484-.484-.671-.469-.203-1.828-.203-.266 0-.266-.203 0-.375.438-.782.437-.422.844-.453 1.64-.125 3.437-.125t1.797.328q0 .266-.313.844-.296.563-.5.906-.187.344-.562.97-.36.624-.594 1-.219.358-.687 1.093-.469.734-.75 1.187-.266.453-.657 1.203-.39.75-.578 1.063-.187.297-.297.297zm19.349-12.36q0 1.282-.516 2.907-.5 1.625-1.5 3.328-1 1.703-2.297 3.14-1.296 1.438-3.078 2.36-1.781.922-3.672.922-1.89 0-2.984-1.047-1.078-1.063-1.078-2.922 0-1.266.5-2.89.516-1.641 1.5-3.344 1-1.704 2.297-3.125 1.312-1.422 3.094-2.344 1.78-.922 3.671-.922 1.891 0 2.97 1.047 1.093 1.047 1.093 2.89zm-2.672-.203q0-2.484-1.812-2.484-1.516 0-3.391 1.922-1.86 1.922-3.172 4.656-1.297 2.734-1.297 4.89 0 2.485 1.813 2.485 1.5 0 3.375-1.922t3.172-4.656q1.312-2.734 1.312-4.89zm16.31.203q0 1.282-.515 2.907-.5 1.625-1.5 3.328-1 1.703-2.297 3.14-1.296 1.438-3.078 2.36-1.781.922-3.672.922-1.89 0-2.984-1.047-1.078-1.063-1.078-2.922 0-1.266.5-2.89.516-1.641 1.5-3.344 1-1.704 2.297-3.125 1.312-1.422 3.094-2.344 1.78-.922 3.671-.922 1.891 0 2.97 1.047 1.093 1.047 1.093 2.89zm-2.671-.203q0-2.484-1.812-2.484-1.516 0-3.391 1.922-1.86 1.922-3.172 4.656-1.297 2.734-1.297 4.89 0 2.485 1.813 2.485 1.5 0 3.375-1.922t3.172-4.656q1.312-2.734 1.312-4.89zm4.64 12.938q-1.188 0-1.532-.078-.344-.078-.578-.14-.235-.048-.313-.079-.062-.016-.203-.016-.266 0-.5.141-.781.656-2.078.656-.688 0-.688-.312 0-.297 1.579-3.016 1.578-2.719 3.484-6.047 1.922-3.344 2.469-4.578.562-1.25.562-2.156v-.188q0-.656 3.781-.656 5.625 0 5.625 3.828 0 2.766-1.89 6.094-.969 1.75-2.281 3.203-1.313 1.453-3.282 2.406-1.953.938-4.156.938zm7.452-7.75q.844-1.625 1.281-3.031.454-1.422.454-2.375 0-.97-.563-1.47-.547-.5-1.875-.5-.906 0-1.437.626-1.438 1.797-4.141 6.61-2.688 4.812-2.688 5.624 0 .906 1.922.906 1.36 0 2.735-.937 1.39-.953 2.437-2.39 1.047-1.454 1.875-3.063zm10.174 7.75q-1.188 0-1.532-.078-.343-.078-.578-.14-.234-.048-.312-.079-.063-.016-.203-.016-.266 0-.5.141-.782.656-2.079.656-.687 0-.687-.312 0-.297 1.578-3.016t3.484-6.047q1.922-3.344 2.47-4.578.562-1.25.562-2.156v-.188q0-.656 3.781-.656 5.625 0 5.625 3.828 0 2.766-1.89 6.094-.97 1.75-2.282 3.203-1.312 1.453-3.281 2.406-1.953.938-4.156.938zm7.453-7.75q.843-1.625 1.281-3.031.453-1.422.453-2.375 0-.97-.562-1.47-.547-.5-1.875-.5-.907 0-1.438.626-1.437 1.797-4.14 6.61-2.688 4.812-2.688 5.624 0 .906 1.922.906 1.36 0 2.734-.937 1.39-.953 2.438-2.39 1.047-1.454 1.875-3.063zm3.267 1.531q-.156 0-.203-.203 0-.39.547-.89t.875-.626q.328-.14 2.187-.187l.313-.36q6.89-7.953 9.562-7.953.219-.03.516-.03 1.562 0 1.562.75 0 .14-.297.718l-1.015 2.047q-.719 1.453-1.406 2.937-3.672 8.094-4.25 10.61 0 .187-.47.187-.468 0-1.124-.516-.656-.515-.656-.89 0-.703 1.109-2.656 1.11-1.954 1.11-2.532 0-.797-3.079-.797-.453 0-1.406.047l-.86 1.125q-1.593 2.141-3.03 5.282-.25.562-1.532.562-1.266 0-1.266-.36 0-.25 1.422-2.187 1.422-1.937 3.36-4.281-.328.031-.86.078-.515.047-.797.094-.28.031-.312.031zm9.39-2.922q.891-1.078 1.329-2.156.453-1.094.453-1.469 0-.39-.39-.39-.673 0-2.235 1.437-1.563 1.438-3.406 3.594l2.468.047q.907 0 1.782-1.063zm6.783-3.015-.016-2.407q0-.953-.14-1.218-.125-.282-.125-.454 0-.453 1.765-.453 1.782 0 1.782.828 0 .579-.375 2.75-.375 2.157-.407 2.97-.015.796.438.796.281 0 .625-.297 1.375-1.234 3.094-3.094 1.718-1.875 2.28-2.609.579-.734.97-.89.812-.329 1.937-.36h.39q1.298 0 1.298.406 0 .22-.391.453-1.453.829-5 3.797-3.547 2.97-5.172 4.72-.656.702-2.219 3.608-1.562 2.907-2.14 3.297-.516.453-1.531.453-1.016 0-1.016-.39v-.063q0-.156.734-1.406 2.438-3.969 2.719-4.984.5-1.625.5-5.453zM555.13 366.775q-1.188 0-1.532-.078-.344-.078-.578-.14-.234-.048-.313-.079-.062-.016-.203-.016-.265 0-.5.141-.781.656-2.078.656-.687 0-.687-.312 0-.297 1.578-3.016t3.484-6.047q1.922-3.344 2.469-4.578.562-1.25.562-2.156v-.188q0-.656 3.782-.656 5.625 0 5.625 3.828 0 2.766-1.891 6.094-.969 1.75-2.281 3.203-1.313 1.453-3.281 2.406-1.954.938-4.157.938zm7.452-7.75q.844-1.625 1.282-3.031.453-1.422.453-2.375 0-.97-.563-1.47-.547-.5-1.875-.5-.906 0-1.437.626-1.438 1.797-4.14 6.61-2.688 4.812-2.688 5.624 0 .906 1.922.906 1.359 0 2.734-.937 1.39-.953 2.437-2.39 1.047-1.454 1.875-3.063zm5.814-7.813-.03-.5q0-.609 2.109-.609 1.312 0 1.312.656 0 .11-.047.156-.156.891-1.797 5.657-1.625 4.75-1.625 5.234t.453.484q.344 0 .532-.171.312-.329.781-.797.484-.485 2.61-3.438 2.124-2.953 3.421-5.11.438-.859 2.86-.859.609 0 .609.391l-.156.422q-.688 1.39-1.844 4.875-1.156 3.484-1.156 4.094 0 .593.453.593.344 0 .531-.171.313-.329.625-.641.844-.844 3.688-4.797 2.843-3.953 3.843-5.89.25-.5.563-.657.562-.281 1.984-.328h.453q1.188 0 1.188.39 0 .157-.203.36-2.219 2.11-6.516 7.156-4.297 5.032-5.828 7.282-.328.468-.516.671-.172.204-.578.485-.765.5-2.703.5-1.11 0-1.11-.547l.079-.25q.125-.438.484-1.453.375-1.016.625-1.719.25-.703.547-1.547.563-1.687.563-2.078 0-.39-.344-.39-.36 0-.813.546-1.797 2.125-4.359 5.782-.422.609-.672.875-.25.25-1.047.515-.781.266-1.984.266-1.188 0-1.188-.547l.078-.25q.782-2.297 2.11-6.594 1.328-4.312 1.797-6.328.218-1.156.218-1.719zm30.374 2.828q0 1.282-.516 2.907-.5 1.625-1.5 3.328-1 1.703-2.297 3.14-1.297 1.438-3.078 2.36-1.781.922-3.672.922-1.89 0-2.984-1.047-1.078-1.063-1.078-2.922 0-1.266.5-2.89.515-1.641 1.5-3.344 1-1.704 2.297-3.125 1.312-1.422 3.093-2.344 1.782-.922 3.672-.922 1.89 0 2.97 1.047 1.093 1.047 1.093 2.89zm-2.672-.203q0-2.484-1.813-2.484-1.515 0-3.39 1.922-1.86 1.922-3.172 4.656-1.297 2.734-1.297 4.89 0 2.485 1.813 2.485 1.5 0 3.375-1.922t3.171-4.656q1.313-2.734 1.313-4.89zm2.326 12.578-.312-.015q-.313 0-.469.203-.781.656-2.094.656-.671 0-.671-.297v-.062q0-.25 1.562-2.953 1.578-2.719 3.484-6.047 1.922-3.328 2.47-4.578.562-1.25.562-2.063v-.297q0-.578 2.437-.578 1.219 0 1.219.453 0 .172-.188.36-1.812 2.937-4.796 8.406l-.313.562q-.328.563-.469.813-.125.234-.406.812-.281.579-.422.938-.39 1.016-.39 1.578 0 .844 1.5.844h.156q.937 0 2.047-.39 2.172-.766 3.531-2.938.094-.203.5-.203.422 0 .422.359 0 .547-.719 1.953-.719 1.406-1.312 2.078-.297.406-1.141.406-.828.047-3.625.047l-2.563-.047zm19.834-.828.047.672q0 .36-1.094.36-1.906 0-1.906-.72 0-.734 1-3.124 1.016-2.406 1.016-3 0-1.203-1.47-1.203l-.359.031q-.265 0-.265-.203 0-.438.328-.875.328-.438.828-.438 2.047 0 3.672-1.218 1.64-1.235 1.64-2.594 0-.969-.609-1.344-.594-.39-1.64-.39-1.032 0-1.579.624-1.328 1.672-4.296 7.016-2.954 5.328-3.313 6.563-.203.562-1.062.828-.844.281-1.657.281-.797 0-.797-.328v-.047q0-.234 1.563-2.89 1.562-2.657 3.453-5.907 1.906-3.25 2.453-4.484.563-1.25.563-2.11v-.234q0-.61 3.437-.61 3.688 0 4.875.75.5.313.844.922.36.61.36 1.563t-.782 1.937q-.766.97-1.64 1.438-.876.453-1.735.656-.86.203-1.297.344-.422.14-.422.437 0 .172.328.438.329.266.672.625.344.36.344.766t-.75 2.343q-.75 1.938-.75 3.125zm11.913-5.03q-.156 0-.203-.204 0-.39.547-.89t.875-.626q.328-.14 2.187-.187l.313-.36q6.89-7.953 9.562-7.953.22-.03.516-.03 1.563 0 1.563.75 0 .14-.297.718l-1.016 2.047q-.719 1.453-1.406 2.937-3.672 8.094-4.25 10.61 0 .187-.469.187t-1.125-.516q-.656-.515-.656-.89 0-.703 1.11-2.656 1.109-1.954 1.109-2.532 0-.797-3.079-.797-.453 0-1.406.047l-.86 1.125q-1.593 2.141-3.03 5.282-.25.562-1.532.562-1.265 0-1.265-.36 0-.25 1.422-2.187 1.421-1.937 3.359-4.281-.328.031-.86.078-.515.047-.796.094-.282.031-.313.031zm9.39-2.923q.891-1.078 1.329-2.156.453-1.094.453-1.469 0-.39-.39-.39-.672 0-2.235 1.437-1.562 1.438-3.406 3.594l2.469.047q.906 0 1.78-1.063zm18.228-3.594q0 1.282-.515 2.907-.5 1.625-1.5 3.328-1 1.703-2.297 3.14-1.297 1.438-3.078 2.36-1.782.922-3.672.922-1.891 0-2.985-1.047-1.078-1.063-1.078-2.922 0-1.266.5-2.89.516-1.641 1.5-3.344 1-1.704 2.297-3.125 1.313-1.422 3.094-2.344 1.781-.922 3.672-.922 1.89 0 2.968 1.047 1.094 1.047 1.094 2.89zm-2.672-.203q0-2.484-1.812-2.484-1.516 0-3.39 1.922-1.86 1.922-3.173 4.656-1.297 2.734-1.297 4.89 0 2.485 1.813 2.485 1.5 0 3.375-1.922t3.172-4.656q1.312-2.734 1.312-4.89zm16.311.203q0 1.282-.515 2.907-.5 1.625-1.5 3.328-1 1.703-2.297 3.14-1.297 1.438-3.078 2.36-1.782.922-3.672.922-1.89 0-2.985-1.047-1.078-1.063-1.078-2.922 0-1.266.5-2.89.516-1.641 1.5-3.344 1-1.704 2.297-3.125 1.313-1.422 3.094-2.344 1.781-.922 3.672-.922 1.89 0 2.968 1.047 1.094 1.047 1.094 2.89zm-2.672-.203q0-2.484-1.812-2.484-1.516 0-3.39 1.922-1.86 1.922-3.173 4.656-1.297 2.734-1.297 4.89 0 2.485 1.813 2.485 1.5 0 3.375-1.922t3.172-4.656q1.312-2.734 1.312-4.89zm4.64 12.938q-1.188 0-1.532-.078-.344-.078-.578-.14-.234-.048-.313-.079-.062-.016-.203-.016-.265 0-.5.141-.78.656-2.078.656-.687 0-.687-.312 0-.297 1.578-3.016t3.484-6.047q1.922-3.344 2.469-4.578.562-1.25.562-2.156v-.188q0-.656 3.782-.656 5.625 0 5.625 3.828 0 2.766-1.89 6.094-.97 1.75-2.282 3.203-1.313 1.453-3.281 2.406-1.954.938-4.157.938zm7.452-7.75q.844-1.625 1.282-3.031.453-1.422.453-2.375 0-.97-.563-1.47-.547-.5-1.875-.5-.906 0-1.437.626-1.438 1.797-4.14 6.61-2.688 4.812-2.688 5.624 0 .906 1.922.906 1.359 0 2.734-.937 1.39-.953 2.437-2.39 1.047-1.454 1.875-3.063zm6.096 7.75q-1.188 0-1.531-.078-.344-.078-.579-.14-.234-.048-.312-.079-.063-.016-.203-.016-.266 0-.5.141-.781.656-2.078.656-.688 0-.688-.312 0-.297 1.578-3.016t3.485-6.047q1.922-3.344 2.468-4.578.563-1.25.563-2.156v-.188q0-.656 3.781-.656 5.625 0 5.625 3.828 0 2.766-1.89 6.094-.97 1.75-2.282 3.203-1.312 1.453-3.281 2.406-1.953.938-4.156.938zm7.453-7.75q.844-1.625 1.281-3.031.453-1.422.453-2.375 0-.97-.562-1.47-.547-.5-1.875-.5-.906 0-1.438.626-1.437 1.797-4.14 6.61-2.688 4.812-2.688 5.624 0 .906 1.922.906 1.36 0 2.734-.937 1.391-.953 2.438-2.39 1.047-1.454 1.875-3.063zm21.845-4.985q0 1.282-.515 2.907-.5 1.625-1.5 3.328-1 1.703-2.297 3.14-1.297 1.438-3.078 2.36-1.782.922-3.672.922-1.89 0-2.985-1.047-1.078-1.063-1.078-2.922 0-1.266.5-2.89.516-1.641 1.5-3.344 1-1.704 2.297-3.125 1.313-1.422 3.094-2.344 1.781-.922 3.672-.922 1.89 0 2.968 1.047 1.094 1.047 1.094 2.89zm-2.672-.203q0-2.484-1.812-2.484-1.516 0-3.39 1.922-1.86 1.922-3.173 4.656-1.297 2.734-1.297 4.89 0 2.485 1.813 2.485 1.5 0 3.375-1.922t3.172-4.656q1.312-2.734 1.312-4.89zm7.546-2.578v-.297q0-.578 2.422-.578 1.218 0 1.218.453 0 .172-.172.36-.859 1.172-3.671 5.953l2.812.031q.922 0 1.688-.75.39-.406.687-.75.313-.36.703-1.016.39-.656.61-1.046.312-.563 1.109-2.172 0-.125.172-.282.172-.171.406-.296.234-.125.734-.22.5-.093 1.172-.093.688 0 .688.297 0 .14-.11.312-.093.157-1.171 1.813-1.079 1.656-2.172 3.437-1.078 1.782-2.297 3.875-1.203 2.079-1.969 3.797-.75 1.72-.75 2.516-.14.375-.562.375-1.25 0-1.735-.203-.469-.203-.469-.61 0-.703 1.5-3.28 1.516-2.579 1.516-3.126 0-.562-.453-.828-.453-.281-1.531-.281-1.063 0-1.47.015-.765 1.25-1.765 3.204-1 1.937-1.687 3.187-.672 1.25-1.078 1.563-.828.64-2.063.64-.687 0-.687-.36 0-.202.593-1.202.594-1.016 1.922-3.172 1.344-2.172 2.328-3.813l-1.39.078q-.328 0-.328-.187 0-.39.484-.766.484-.39.797-.5.328-.125 1.312-.156.844-1.437 2.157-3.969.5-1.093.5-1.953zm14.844 7.531-1.937-.078q-1.422 0-2.188.938-.547.672-1.453 2.219-.89 1.53-.89 2.437 0 .844 1.656.844 1.03 0 2.171-.39 2.344-.766 3.704-2.938.156-.203.53-.203.391 0 .391.437 0 .438-.734 1.844-.719 1.406-1.281 2.11-.297.359-1.14.405-.845.047-2.595.047h-2.218l-1.297-.015-.61-.047h-.156q-.14 0-.344.203-.75.656-2.125.656-.656 0-.656-.297v-.062q0-.25 1.563-2.953 1.578-2.719 3.5-6.047 1.937-3.328 2.468-4.563.547-1.234.547-2.125v-.25q0-.375 4.828-.375 1.594 0 2.766.047.344-.39 1.75-.39.594 0 .594.296 0 .516-1.031 2.094-1.032 1.578-1.813 2.14-.25.204-.64.204-.376 0-.376-.156 0-.078.063-.188.375-.703.375-1.578 0-1.25-1.734-1.25-1.032 0-1.641.547-.594.547-1.188 1.516-.593.968-.875 1.671-.28.704-.28.891 0 .547.53.672.532.11 2.125.11l1.672-.063q.235 0 .235.172t-.25.578q-.235.39-.485.547-.5.343-1.53.343zm4.859 7.625-.313-.015q-.312 0-.469.203-.78.656-2.093.656-.672 0-.672-.297v-.062q0-.25 1.562-2.953 1.578-2.719 3.485-6.047 1.922-3.328 2.468-4.578.563-1.25.563-2.063v-.297q0-.578 2.437-.578 1.22 0 1.22.453 0 .172-.188.36-1.813 2.937-4.797 8.406l-.313.562q-.328.563-.468.813-.125.234-.407.812-.281.579-.422.938-.39 1.016-.39 1.578 0 .844 1.5.844h.156q.938 0 2.047-.39 2.172-.766 3.531-2.938.094-.203.5-.203.422 0 .422.359 0 .547-.719 1.953-.718 1.406-1.312 2.078-.297.406-1.14.406-.829.047-3.626.047l-2.562-.047zm11.849 0-.313-.015q-.312 0-.468.203-.782.656-2.094.656-.672 0-.672-.297v-.062q0-.25 1.562-2.953 1.579-2.719 3.485-6.047 1.922-3.328 2.469-4.578.562-1.25.562-2.063v-.297q0-.578 2.438-.578 1.218 0 1.218.453 0 .172-.187.36-1.813 2.937-4.797 8.406l-.313.562q-.328.563-.468.813-.125.234-.407.812-.28.579-.421.938-.391 1.016-.391 1.578 0 .844 1.5.844h.156q.938 0 2.047-.39 2.172-.766 3.531-2.938.094-.203.5-.203.422 0 .422.359 0 .547-.719 1.953-.718 1.406-1.312 2.078-.297.406-1.14.406-.829.047-3.626.047l-2.562-.047z"/><defs><radialGradient id="b" gradientUnits="userSpaceOnUse" gradientTransform="rotate(.04) scale(6.31767)" spreadMethod="pad" cx="35.746" cy="54.23" fx="35.746" fy="54.23" r="6.318"><stop offset="0" stop-color="#dcecd5"/><stop offset="1" stop-color="#93bc81"/></radialGradient></defs><path fill="url(#b)" d="M192.27 331.806h45.512v-10.803l21.607 21.606-21.607 21.606v-10.803H192.27z" fill-rule="evenodd"/><path stroke="#38761d" stroke-linejoin="round" stroke-linecap="butt" d="M192.27 331.806h45.512v-10.803l21.607 21.606-21.607 21.606v-10.803H192.27z"/><path fill="#d0e0e3" d="M606.252 54.977h176.756v216.725H606.252z" fill-rule="evenodd"/><path stroke="#45818e" stroke-width="4" stroke-linejoin="round" stroke-linecap="butt" d="M606.252 54.977h176.756v216.725H606.252z"/><path fill="none" d="M629.163 68.131h246.614v104.756H629.163z"/><path fill="#000" d="M661.069 90.04q0 1.719-.703 3.937-.688 2.204-2.031 4.5-1.344 2.297-3.11 4.25-1.765 1.938-4.172 3.188-2.406 1.234-4.968 1.234-2.563 0-4.032-1.422-1.468-1.421-1.468-3.937 0-1.719.687-3.922.688-2.203 2.031-4.5 1.36-2.312 3.125-4.234 1.766-1.938 4.172-3.172 2.406-1.25 4.953-1.25 2.563 0 4.032 1.422 1.484 1.406 1.484 3.906zm-3.625-.266q0-3.375-2.453-3.375-2.047 0-4.578 2.61-2.532 2.61-4.297 6.297-1.766 3.687-1.766 6.609 0 3.375 2.453 3.375 2.032 0 4.563-2.61 2.547-2.609 4.312-6.296 1.766-3.703 1.766-6.61zm6.283 17.5q-1.625 0-2.093-.109l-.782-.188q-.312-.062-.406-.093-.094-.032-.266-.032-.375 0-.687.172-1.063.891-2.813.891-.921 0-.921-.422 0-.406 2.125-4.078 2.14-3.688 4.718-8.188 2.594-4.5 3.344-6.187.75-1.688.75-2.922v-.234q0-.89 5.125-.89 7.61 0 7.61 5.171 0 3.75-2.547 8.25-1.313 2.36-3.094 4.328-1.781 1.953-4.438 3.25-2.656 1.281-5.625 1.281zm10.078-10.5q1.141-2.187 1.735-4.093.61-1.922.61-3.22 0-1.312-.75-1.984-.75-.671-2.532-.671-1.234 0-1.969.843-1.922 2.422-5.578 8.938-3.64 6.515-3.64 7.625 0 1.219 2.609 1.219 1.828 0 3.703-1.282 1.875-1.28 3.281-3.234 1.406-1.953 2.531-4.14zm14.09 9.985q-.438 0-.766-.39-.312-.407-.406-.813l-.094-.391q-.094-.344-.453-.344-.344 0-.625.219-2.875 2.266-5.36 2.266-3.187 0-3.187-4.266 0-1.5.781-3.734.782-2.235 2.25-4.672 1.47-2.438 3.328-4.563 1.86-2.14 4.297-3.515 2.438-1.375 4.86-1.375 1.312 0 2.14.453.125.062.282.062.156 0 .296-.094.766-.515 1.97-.515 1.202 0 1.202.578 0 .734-1.547 2.906-2.39 3.406-3.921 3.406-.391 0-.532-.062-.14-.063-.14-.234 0-.188.187-.625.61-1.282.61-2.125 0-.844-.329-1.282-.312-.453-1.328-.453-1.843 0-4.375 2.781-2.515 2.766-4.328 6.407-1.812 3.625-1.812 5.984 0 2 1.656 2 1.297 0 2.922-1.312 1.64-1.329 2.703-2.844 1.062-1.516 1.062-2.172 0-.672-.656-.922-.64-.266-2.469-.266-.375 0-.375-.28 0-.516.594-1.063.61-.563 1.156-.625 2.204-.14 4.641-.14 2.438 0 2.438.421 0 .375-.422 1.14-.407.766-.672 1.25-.25.47-.766 1.313-.5.844-.812 1.328-.297.485-.938 1.485-.625 1-1 1.609-.36.61-.89 1.625-.532 1.016-.782 1.437-.25.407-.39.407zm6.554-7.907q-.219 0-.281-.28 0-.516.734-1.188.734-.688 1.172-.86.453-.187 2.969-.25l.437-.5q9.313-10.75 12.938-10.75.297-.03.703-.03 2.11 0 2.11 1 0 .187-.391.983l-1.391 2.766q-.969 1.953-1.89 3.984-4.97 10.938-5.766 14.344 0 .25-.64.25-.626 0-1.517-.687-.875-.688-.875-1.219 0-.953 1.5-3.578 1.5-2.64 1.5-3.438 0-1.078-4.171-1.078-.61 0-1.907.063l-1.156 1.531q-2.14 2.89-4.11 7.14-.343.766-2.062.766-1.703 0-1.703-.484 0-.344 1.906-2.953 1.922-2.625 4.563-5.813-.469.063-1.172.125-.703.063-1.094.11-.375.046-.406.046zm12.719-3.953q1.203-1.453 1.797-2.922.593-1.468.593-1.984 0-.531-.515-.531-.922 0-3.047 1.953-2.11 1.937-4.594 4.86l3.344.062q1.234 0 2.422-1.438zm12.48 4.828.03-.671q0-.61-.484-.61-.406 0-1.015.485-1.75 1.546-3.688 3.593-1.922 2.032-2.562 2.891-.625.844-.828 1.047-.188.203-1.078.531-.891.344-2.063.344-1.187 0-1.187-.36 0-.78 12.046-10.953 1.079-.859 1.141-2.234.11-2.266.11-3.375 0-3.094-.516-4.656l-.156-.469q0-.516 2.265-.516 1.11 0 1.563.36.468.343.468 1.297 0 .953-.218 4.015 0 .828.593.828.297 0 .704-.343 4.046-3.579 4.765-4.5.719-.922 1.172-1.141.922-.36 2.578-.422h.516q1.515 0 1.515.484 0 .282-.437.532-3.89 2.203-10.266 7.406-.156.094-.39.266-.22.171-.625.812-.39.64-.453 1.406-.22 3.875-.22 6.375 0 2.891.423 3.75.125.25.125.391 0 .469-.938.656-.922.203-1.781.203-.86 0-1.11-.375-.25-.359-.25-1.484 0-1.14.25-5.563zM649.194 123.074v-.39q0-.797 3.281-.797 1.656 0 1.656.61 0 .25-.234.484-1.172 1.593-4.969 8.062l3.797.031q1.25 0 2.297-1.015.516-.547.922-1.016.422-.484.938-1.36.53-.89.843-1.421.422-.766 1.5-2.938 0-.156.219-.375.234-.234.563-.406.328-.172 1-.297.671-.125 1.593-.125.922 0 .922.406 0 .188-.14.422-.141.22-1.594 2.453-1.453 2.235-2.938 4.657-1.469 2.406-3.11 5.234-1.64 2.813-2.671 5.14-1.016 2.329-1.016 3.391-.187.532-.765.532-1.688 0-2.344-.282-.64-.28-.64-.828 0-.953 2.03-4.437 2.048-3.5 2.048-4.25t-.61-1.11q-.61-.375-2.062-.375-1.438 0-1.985.032-1.047 1.687-2.39 4.328-1.344 2.625-2.266 4.312-.922 1.688-1.469 2.11-1.14.859-2.797.859-.953 0-.953-.484 0-.282.813-1.641.812-1.36 2.625-4.281 1.812-2.938 3.125-5.14l-1.86.093q-.468 0-.468-.25 0-.531.656-1.047.672-.516 1.094-.672.421-.156 1.78-.219 1.126-1.922 2.907-5.359.672-1.469.672-2.64zm12.518-.062-.031-.672q0-.828 2.843-.828 1.782 0 1.782.89 0 .157-.063.22-.219 1.187-2.422 7.624-2.203 6.438-2.203 7.11 0 .656.61.656.453 0 .703-.25l1.078-1.078q.64-.64 3.515-4.64 2.89-4 4.64-6.907.58-1.172 3.86-1.172.828 0 .828.516l-.218.593q-.922 1.86-2.485 6.594-1.562 4.719-1.562 5.531 0 .813.61.813.468 0 .718-.25.422-.438.844-.86 1.14-1.14 4.984-6.484 3.86-5.344 5.203-7.984.328-.672.766-.89.765-.36 2.703-.423h.61q1.593 0 1.593.516 0 .219-.281.484-3 2.86-8.813 9.688-5.812 6.812-7.89 9.843-.438.641-.688.922-.234.282-.781.641-1.047.672-3.656.672-1.5 0-1.5-.735l.093-.328q.188-.593.672-1.968.5-1.375.828-2.329.344-.953.735-2.078.765-2.312.765-2.828 0-.515-.453-.515-.5 0-1.11.734-2.42 2.875-5.874 7.812-.594.829-.938 1.188-.328.344-1.406.687-1.062.36-2.672.36t-1.61-.735l.095-.328q1.062-3.093 2.86-8.922 1.796-5.828 2.437-8.562.28-1.563.28-2.328zm18.144 12.64q-.219 0-.281-.28 0-.516.734-1.188.734-.688 1.172-.86.453-.187 2.969-.25l.437-.5q9.313-10.75 12.938-10.75.297-.03.703-.03 2.11 0 2.11 1 0 .187-.391.983l-1.391 2.766q-.969 1.953-1.89 3.984-4.97 10.938-5.766 14.344 0 .25-.64.25-.626 0-1.517-.687-.875-.688-.875-1.219 0-.953 1.5-3.578 1.5-2.64 1.5-3.438 0-1.078-4.171-1.078-.61 0-1.907.063l-1.156 1.531q-2.14 2.89-4.11 7.14-.343.766-2.062.766-1.703 0-1.703-.484 0-.344 1.906-2.953 1.922-2.625 4.563-5.813-.469.063-1.172.125-.703.063-1.094.11-.375.046-.406.046zm12.719-3.953q1.203-1.453 1.797-2.922.593-1.468.593-1.984 0-.531-.515-.531-.922 0-3.047 1.953-2.11 1.937-4.594 4.86l3.344.062q1.234 0 2.422-1.438zm24.656-4.859q0 1.719-.703 3.937-.688 2.204-2.031 4.5-1.344 2.297-3.11 4.25-1.765 1.938-4.172 3.188-2.406 1.234-4.968 1.234-2.563 0-4.032-1.422-1.468-1.421-1.468-3.937 0-1.719.687-3.922.688-2.203 2.031-4.5 1.36-2.312 3.125-4.234 1.766-1.938 4.172-3.172 2.406-1.25 4.953-1.25 2.563 0 4.032 1.422 1.484 1.406 1.484 3.906zm-3.625-.266q0-3.375-2.453-3.375-2.047 0-4.578 2.61-2.532 2.61-4.297 6.297-1.766 3.687-1.766 6.609 0 3.375 2.453 3.375 2.032 0 4.563-2.61 2.547-2.609 4.312-6.296 1.766-3.703 1.766-6.61zm5.064 1.047-.03-3.25q0-1.297-.188-1.656-.188-.375-.188-.625 0-.61 2.406-.61 2.407 0 2.407 1.141 0 .766-.516 3.703-.5 2.922-.531 4.016-.016 1.078.594 1.078.359 0 .828-.406 1.86-1.656 4.187-4.172 2.344-2.531 3.11-3.531.765-1 1.28-1.219 1.11-.422 2.641-.484h.516q1.75 0 1.75.546 0 .313-.516.625-1.968 1.125-6.765 5.141t-7 6.375q-.89.953-3.016 4.89-2.11 3.938-2.875 4.47-.703.609-2.094.609-1.375 0-1.375-.516v-.094q0-.218 1.016-1.906 3.281-5.36 3.688-6.75.671-2.203.671-7.375zM652.444 170.062l-2.594-.094q-1.937 0-2.984 1.25-.735.922-1.953 3.016-1.203 2.078-1.203 3.297 0 1.14 2.234 1.14 1.39 0 2.953-.515 3.156-1.047 5-4 .203-.266.719-.266.531 0 .531.594 0 .593-.984 2.5-.985 1.906-1.75 2.843-.39.5-1.547.563-1.14.062-3.5.062h-3.016l-1.75-.03-.812-.063h-.219q-.188 0-.469.265-1 .891-2.875.891-.89 0-.89-.39v-.094q0-.344 2.125-4 2.14-3.672 4.734-8.172 2.61-4.5 3.344-6.172.734-1.672.734-2.875v-.328q0-.532 6.531-.532 2.157 0 3.75.063.453-.516 2.36-.516.797 0 .797.391 0 .703-1.407 2.844-1.39 2.125-2.422 2.89-.343.282-.875.282-.515 0-.515-.22 0-.093.094-.25.5-.937.5-2.14 0-1.687-2.344-1.687-1.406 0-2.219.734-.812.734-1.61 2.063-.796 1.312-1.187 2.265-.375.953-.375 1.188 0 .75.719.922.719.156 2.875.156l2.266-.094q.296 0 .296.234 0 .235-.328.766-.312.531-.64.75-.672.469-2.094.469zm24.597-6.422q0 1.719-.703 3.937-.688 2.204-2.032 4.5-1.343 2.297-3.11 4.25-1.765 1.938-4.17 3.188-2.407 1.234-4.97 1.234-2.562 0-4.03-1.422-1.47-1.421-1.47-3.937 0-1.719.688-3.922.687-2.203 2.031-4.5 1.36-2.312 3.125-4.234 1.766-1.938 4.172-3.172 2.406-1.25 4.953-1.25 2.563 0 4.031 1.422 1.485 1.406 1.485 3.906zm-3.625-.266q0-3.375-2.453-3.375-2.047 0-4.579 2.61-2.53 2.61-4.296 6.297-1.766 3.687-1.766 6.609 0 3.375 2.453 3.375 2.031 0 4.563-2.61 2.546-2.609 4.312-6.296 1.766-3.703 1.766-6.61zm8.064 16.094q0-1.344 1-6.828 1-5.5 1-6.063 0-.562-.328-.562t-.875.64q-.547.641-.922 1.25l-.39.641q-2.454 4.016-5.547 10.64-.625 1.36-1.172 1.735-.547.39-1.578.39-1.032 0-1.032-.468v-.094q0-.39 1.563-2.906 5.984-9.594 8.734-15.172.719-1.422.719-2.547v-.5q0-.203.156-.437.172-.235 1.063-.485.89-.265 2.453-.265 2.36 0 2.36.89 0 .266-1.266 5.938-1.25 5.672-1.25 6.86 0 1.187.25 1.187.359 0 .75-.406.406-.407.625-.766l.218-.406q1.954-3.219 3.516-6.39 1.578-3.173 2.313-4.673.734-1.5 1.28-1.89.798-.47 2.016-.47 1.235 0 1.235.376v.062q0 .203-1.625 2.563-1.625 2.36-4.313 6.64-2.672 4.282-4.672 8.172-.859 2-.859 3.188 0 .375-.14.562-.126.172-.938.344-.813.172-1.672.172h-.984q-.344 0-.828-.156-.86-.25-.86-.766zm30.907-15.828q0 1.719-.703 3.937-.687 2.204-2.031 4.5-1.344 2.297-3.11 4.25-1.765 1.938-4.171 3.188-2.406 1.234-4.969 1.234-2.562 0-4.031-1.422-1.469-1.421-1.469-3.937 0-1.719.688-3.922.687-2.203 2.03-4.5 1.36-2.312 3.126-4.234 1.765-1.938 4.172-3.172 2.406-1.25 4.953-1.25 2.562 0 4.031 1.422 1.484 1.406 1.484 3.906zm-3.625-.266q0-3.375-2.453-3.375-2.047 0-4.578 2.61t-4.297 6.297q-1.765 3.687-1.765 6.609 0 3.375 2.453 3.375 2.031 0 4.562-2.61 2.547-2.609 4.313-6.296 1.765-3.703 1.765-6.61zm7.727 9.953.031-.671q0-.61-.484-.61-.407 0-1.016.485-1.75 1.546-3.687 3.593-1.922 2.032-2.563 2.891-.625.844-.828 1.047-.188.203-1.078.531-.89.344-2.063.344-1.187 0-1.187-.36 0-.78 12.047-10.953 1.078-.859 1.14-2.234.11-2.266.11-3.375 0-3.094-.516-4.656l-.156-.469q0-.516 2.265-.516 1.11 0 1.563.36.469.343.469 1.297 0 .953-.22 4.015 0 .828.595.828.297 0 .703-.343 4.047-3.579 4.765-4.5.72-.922 1.172-1.141.922-.36 2.578-.422h.516q1.516 0 1.516.484 0 .282-.438.532-3.89 2.203-10.265 7.406-.157.094-.391.266-.219.171-.625.812-.39.64-.453 1.406-.219 3.875-.219 6.375 0 2.891.422 3.75.125.25.125.391 0 .469-.938.656-.921.203-1.78.203-.86 0-1.11-.375-.25-.359-.25-1.484 0-1.14.25-5.563zM642.147 217.19l-.422-.031q-.437 0-.656.265-1.031.891-2.813.891-.921 0-.921-.39v-.094q0-.344 2.125-4 2.14-3.672 4.718-8.172 2.594-4.5 3.344-6.188.75-1.687.75-2.797v-.39q0-.797 3.281-.797 1.657 0 1.657.61 0 .25-.235.484-2.453 3.984-6.5 11.375l-.437.765q-.422.766-.61 1.094-.187.312-.578 1.11-.375.78-.562 1.265-.516 1.375-.516 2.14 0 1.141 2.031 1.141h.203q1.266 0 2.766-.515 2.938-1.047 4.781-4 .125-.266.688-.266.562 0 .562.484 0 .735-.984 2.641-.969 1.906-1.766 2.812-.406.563-1.53.563-1.142.062-4.907.062l-3.469-.062zm16.033 0-.422-.031q-.437 0-.656.265-1.031.891-2.812.891-.922 0-.922-.39v-.094q0-.344 2.125-4 2.14-3.672 4.719-8.172 2.593-4.5 3.343-6.188.75-1.687.75-2.797v-.39q0-.797 3.282-.797 1.656 0 1.656.61 0 .25-.235.484-2.453 3.984-6.5 11.375l-.437.765q-.422.766-.61 1.094-.187.312-.578 1.11-.375.78-.562 1.265-.516 1.375-.516 2.14 0 1.141 2.032 1.141h.203q1.265 0 2.765-.515 2.938-1.047 4.782-4 .125-.266.687-.266.563 0 .563.484 0 .735-.985 2.641-.969 1.906-1.765 2.812-.407.563-1.532.563-1.14.062-4.906.062l-3.469-.062zm14.257-7.938q-.219 0-.281-.28 0-.516.734-1.188.735-.688 1.172-.86.453-.187 2.969-.25l.437-.5q9.313-10.75 12.938-10.75.297-.03.703-.03 2.11 0 2.11 1 0 .187-.391.983l-1.39 2.766q-.97 1.953-1.891 3.984-4.97 10.938-5.766 14.344 0 .25-.64.25-.626 0-1.516-.687-.875-.688-.875-1.219 0-.953 1.5-3.578 1.5-2.64 1.5-3.438 0-1.078-4.172-1.078-.61 0-1.906.063l-1.157 1.531q-2.14 2.89-4.109 7.14-.344.766-2.063.766-1.703 0-1.703-.484 0-.344 1.907-2.953 1.921-2.625 4.562-5.813-.469.063-1.172.125-.703.063-1.094.11-.375.046-.406.046zm12.719-3.953q1.203-1.453 1.797-2.922.594-1.468.594-1.984 0-.531-.516-.531-.922 0-3.047 1.953-2.11 1.937-4.594 4.86l3.344.062q1.234 0 2.422-1.438zm8.86 12.375q-1.626 0-2.094-.109l-.782-.188q-.312-.062-.406-.093-.094-.032-.266-.032-.375 0-.687.172-1.063.891-2.813.891-.921 0-.921-.422 0-.406 2.125-4.078 2.14-3.688 4.718-8.188 2.594-4.5 3.344-6.187.75-1.688.75-2.922v-.234q0-.89 5.125-.89 7.61 0 7.61 5.171 0 3.75-2.547 8.25-1.313 2.36-3.094 4.328-1.781 1.953-4.438 3.25-2.656 1.281-5.625 1.281zm10.077-10.5q1.141-2.187 1.735-4.093.61-1.922.61-3.22 0-1.312-.75-1.984-.75-.671-2.532-.671-1.234 0-1.969.843-1.922 2.422-5.578 8.938-3.64 6.515-3.64 7.625 0 1.219 2.609 1.219 1.828 0 3.703-1.282 1.875-1.28 3.281-3.234 1.406-1.953 2.531-4.14zm10.495 2.953.032-.671q0-.61-.485-.61-.406 0-1.015.485-1.75 1.546-3.688 3.593-1.922 2.032-2.562 2.891-.625.844-.829 1.047-.187.203-1.078.531-.89.344-2.062.344-1.188 0-1.188-.36 0-.78 12.047-10.953 1.078-.859 1.14-2.234.11-2.266.11-3.375 0-3.094-.515-4.656l-.157-.469q0-.516 2.266-.516 1.11 0 1.562.36.47.343.47 1.297 0 .953-.22 4.015 0 .828.594.828.297 0 .703-.343 4.047-3.579 4.766-4.5.719-.922 1.172-1.141.922-.36 2.578-.422h.516q1.515 0 1.515.484 0 .282-.437.532-3.891 2.203-10.266 7.406-.156.094-.39.266-.22.171-.626.812-.39.64-.453 1.406-.218 3.875-.218 6.375 0 2.891.421 3.75.125.25.125.391 0 .469-.937.656-.922.203-1.781.203-.86 0-1.11-.375-.25-.359-.25-1.484 0-1.14.25-5.563zM642.147 253.99l-.422-.031q-.437 0-.656.265-1.031.891-2.813.891-.921 0-.921-.39v-.094q0-.344 2.125-4 2.14-3.672 4.718-8.172 2.594-4.5 3.344-6.188.75-1.687.75-2.797v-.39q0-.797 3.281-.797 1.657 0 1.657.61 0 .25-.235.484-2.453 3.984-6.5 11.375l-.437.765q-.422.766-.61 1.094-.187.312-.578 1.11-.375.78-.562 1.265-.516 1.375-.516 2.14 0 1.141 2.031 1.141h.203q1.266 0 2.766-.515 2.938-1.047 4.781-4 .125-.266.688-.266.562 0 .562.484 0 .735-.984 2.641-.969 1.906-1.766 2.812-.406.563-1.53.563-1.142.062-4.907.062l-3.469-.062zm26.83-1.14.063.921q0 .485-1.485.485-2.562 0-2.562-.97 0-.984 1.36-4.234 1.359-3.25 1.359-4.046 0-1.625-1.985-1.625l-.5.03q-.36 0-.36-.28 0-.579.438-1.172.453-.61 1.125-.61 2.782 0 4.985-1.656 2.218-1.656 2.218-3.484 0-1.328-.812-1.844-.813-.516-2.234-.516-1.407 0-2.141.86-1.797 2.265-5.813 9.484-4 7.219-4.484 8.875-.281.766-1.437 1.125-1.141.375-2.235.375-1.078 0-1.078-.422v-.062q0-.344 2.11-3.922 2.124-3.594 4.671-7.985 2.563-4.406 3.313-6.093.765-1.688.765-2.86v-.297q0-.828 4.657-.828 5 0 6.593 1.016.672.422 1.141 1.25.484.828.484 2.125 0 1.281-1.046 2.61-1.047 1.312-2.235 1.937-1.172.625-2.344.906-1.156.266-1.75.453-.578.188-.578.578 0 .25.438.61.453.343.906.843.469.485.469 1.047 0 .547-1.016 3.172-1 2.61-1 4.203zm8.913 1.624q-1.625 0-2.093-.109-.453-.11-.782-.188-.312-.062-.406-.093-.094-.032-.265-.032-.375 0-.688.172-1.062.891-2.812.891-.922 0-.922-.422 0-.406 2.125-4.078 2.14-3.688 4.718-8.188 2.594-4.5 3.344-6.187.75-1.688.75-2.922v-.234q0-.89 5.125-.89 7.61 0 7.61 5.171 0 3.75-2.547 8.25-1.313 2.36-3.094 4.328-1.781 1.953-4.438 3.25-2.656 1.281-5.625 1.281zm10.079-10.5q1.14-2.187 1.734-4.093.61-1.922.61-3.22 0-1.312-.75-1.984-.75-.671-2.532-.671-1.234 0-1.969.843-1.922 2.422-5.578 8.938-3.64 6.515-3.64 7.625 0 1.219 2.609 1.219 1.828 0 3.703-1.282 1.875-1.28 3.281-3.234 1.407-1.953 2.532-4.14zm8.254 10.5q-1.625 0-2.094-.109l-.781-.188q-.313-.062-.406-.093-.094-.032-.266-.032-.375 0-.687.172-1.063.891-2.813.891-.922 0-.922-.422 0-.406 2.125-4.078 2.14-3.688 4.719-8.188 2.594-4.5 3.344-6.187.75-1.688.75-2.922v-.234q0-.89 5.125-.89 7.61 0 7.61 5.171 0 3.75-2.548 8.25-1.312 2.36-3.094 4.328-1.78 1.953-4.437 3.25-2.656 1.281-5.625 1.281zm10.078-10.5q1.14-2.187 1.734-4.093.61-1.922.61-3.22 0-1.312-.75-1.984-.75-.671-2.531-.671-1.235 0-1.97.843-1.921 2.422-5.577 8.938-3.64 6.515-3.64 7.625 0 1.219 2.608 1.219 1.829 0 3.704-1.282 1.875-1.28 3.28-3.234 1.407-1.953 2.532-4.14zm10.495 2.953.031-.671q0-.61-.484-.61-.406 0-1.016.485-1.75 1.546-3.687 3.593-1.922 2.032-2.563 2.891-.625.844-.828 1.047-.187.203-1.078.531-.89.344-2.063.344-1.187 0-1.187-.36 0-.78 12.047-10.953 1.078-.859 1.14-2.234.11-2.266.11-3.375 0-3.094-.516-4.656l-.156-.469q0-.516 2.266-.516 1.109 0 1.562.36.469.343.469 1.297 0 .953-.219 4.015 0 .828.594.828.297 0 .703-.343 4.047-3.579 4.766-4.5.718-.922 1.171-1.141.922-.36 2.579-.422h.515q1.516 0 1.516.484 0 .282-.438.532-3.89 2.203-10.265 7.406-.157.094-.391.266-.219.171-.625.812-.39.64-.453 1.406-.219 3.875-.219 6.375 0 2.891.422 3.75.125.25.125.391 0 .469-.937.656-.922.203-1.782.203t-1.11-.375q-.25-.359-.25-1.484 0-1.14.25-5.563z"/><path fill="#45818e" d="M728.131 24.452c0-6.279 4.836-11.369 10.801-11.369 2.865 0 5.612 1.198 7.638 3.33s3.164 5.024 3.164 8.04c0 6.278-4.836 11.369-10.802 11.369-5.965 0-10.8-5.09-10.8-11.37z" fill-rule="evenodd"/><path stroke="#134f5c" stroke-width="2" stroke-linejoin="round" stroke-linecap="butt" d="M728.131 24.452c0-6.279 4.836-11.369 10.801-11.369 2.865 0 5.612 1.198 7.638 3.33s3.164 5.024 3.164 8.04c0 6.278-4.836 11.369-10.802 11.369-5.965 0-10.8-5.09-10.8-11.37z"/><path fill="none" d="M724.412 8.774h21.602v24.147h-21.602z"/><path fill="#d0e0e3" d="M740.834 22.78q0 .453-.125.797-.125.328-.344.578-.203.234-.5.406-.281.156-.61.281-.327.125-.687.235-.343.094-.687.203-.344.094-.672.234-.313.14-.578.36-.25.203-.438.5-.172.28-.234.687h4.875v.953h-7.094q.11-.718.313-1.234.218-.531.5-.906.28-.375.609-.625.344-.25.688-.422.343-.172.687-.281.36-.125.688-.235.328-.11.609-.234.297-.125.5-.297.219-.188.328-.453.125-.266.125-.656 0-.36-.125-.625-.11-.266-.328-.438-.203-.172-.484-.266-.282-.093-.61-.093-.344 0-.64.125-.282.125-.516.359-.219.219-.39.547-.173.312-.25.703l-1.61-.89q.219-.438.61-.75.39-.329.874-.547.485-.22 1-.313.516-.11.969-.11.453 0 .89.032.438.031.829.14.39.094.719.266.343.172.578.438.25.265.39.64t.14.89z"/><path fill="#45818e" d="M604.412 43.236h179.37V76.37h-179.37z" fill-rule="evenodd"/><path stroke="#134f5c" stroke-width="3" stroke-linejoin="round" stroke-linecap="butt" d="M604.412 43.236h179.37V76.37h-179.37z"/><path fill="#a2c4c9" d="M649.176 54.64q0 1.578-.703 2.875-.687 1.297-1.562 2.11-.875.796-2.531 1.374-1.657.579-3.891.579t-3.11.5q-.859.5-1.671 1.953-.594 1-1.22 2.328-.608 1.312-.78 1.844-.157.53-.907.843-.734.328-1.39.36l-.672.047q-.719 0-.719-.313v-.078q0-.266 1.656-3.14 1.672-2.876 3.704-6.407 2.03-3.531 2.609-4.844.594-1.328.594-2.234v-.25q0-.375 1.64-.578 1.657-.203 3.547-.203 3.031 0 4.219.828 1.187.828 1.187 2.406zm-7.265-1.125q-.656.734-2.172 3.25-1.516 2.5-1.516 2.813 0 .296.328.39.344.094 1.625.094 1.297 0 2.5-.453 1.22-.453 1.907-1.094.703-.656 1.156-1.453.766-1.344.766-2.172 0-.844-.235-1.266-.219-.421-.656-.593-.719-.266-1.89-.266-1.157 0-1.813.75zm13.218 15-.344-.031q-.328 0-.5.219-.812.703-2.203.703-.719 0-.719-.313v-.078q0-.266 1.657-3.125 1.671-2.875 3.703-6.406 2.031-3.531 2.61-4.844.593-1.328.593-2.187v-.313q0-.625 2.562-.625 1.297 0 1.297.484 0 .188-.187.391-1.922 3.11-5.094 8.89l-.328.61q-.344.594-.485.844-.14.25-.453.875-.297.61-.437.984-.406 1.094-.406 1.688 0 .89 1.578.89h.172q.984 0 2.156-.406 2.312-.828 3.75-3.125.094-.219.531-.219.453 0 .453.39 0 .579-.765 2.063-.766 1.485-1.391 2.204-.313.437-1.203.437-.89.047-3.844.047l-2.703-.047zm20.63-6.219q-.157 0-.204-.218 0-.407.563-.938.578-.531.922-.672.36-.14 2.328-.187l.328-.391q7.297-8.422 10.125-8.422.25-.015.562-.015 1.657 0 1.657.78 0 .157-.313.766l-1.078 2.172q-.766 1.532-1.5 3.11-3.875 8.578-4.5 11.234 0 .203-.5.203-.484 0-1.187-.547-.688-.547-.688-.953 0-.734 1.172-2.797 1.172-2.062 1.172-2.687 0-.844-3.266-.844-.469 0-1.484.047l-.906 1.203q-1.688 2.25-3.22 5.594-.265.594-1.609.594-1.343 0-1.343-.391 0-.25 1.5-2.297 1.5-2.062 3.562-4.562-.36.046-.922.093-.547.047-.843.094-.297.031-.329.031zm9.968-3.093q.938-1.125 1.406-2.282.47-1.156.47-1.562 0-.406-.423-.406-.718 0-2.375 1.53-1.656 1.516-3.593 3.798l2.609.047q.969 0 1.906-1.125zm16.958 8.593q0-1.062.781-5.36.782-4.296.782-4.733 0-.454-.25-.454t-.688.516q-.422.5-.719.984l-.312.5q-1.922 3.141-4.344 8.329-.469 1.046-.906 1.343-.438.313-1.25.313-.797 0-.797-.36v-.078q0-.312 1.234-2.281 4.672-7.516 6.828-11.875.563-1.11.563-2v-.375q0-.172.125-.344.14-.187.828-.39.703-.203 1.922-.203 1.844 0 1.844.703 0 .203-.985 4.656-.984 4.437-.984 5.36 0 .921.203.921.281 0 .594-.312.312-.313.484-.594l.172-.313q1.531-2.53 2.75-5.015 1.234-2.485 1.797-3.656.578-1.172 1.016-1.485.625-.36 1.578-.36.968 0 .968.282v.047q0 .172-1.28 2.031-1.266 1.844-3.376 5.188-2.094 3.343-3.656 6.39-.672 1.563-.672 2.5 0 .282-.11.438-.109.14-.75.265-.624.141-1.296.141h-.766q-.265 0-.656-.125-.672-.187-.672-.594zm26.002-7.375-2.047-.062q-1.515 0-2.328.969-.578.734-1.53 2.359-.938 1.625-.938 2.594 0 .89 1.75.89 1.078 0 2.312-.406 2.469-.828 3.906-3.125.172-.219.578-.219.407 0 .407.469t-.766 1.953q-.766 1.485-1.375 2.235-.312.39-1.219.437-.89.047-2.734.047h-2.36l-1.359-.031-.656-.047h-.172q-.14 0-.36.219-.78.703-2.25.703-.687 0-.687-.313v-.078q0-.266 1.656-3.125 1.672-2.875 3.704-6.406 2.046-3.531 2.625-4.828.578-1.313.578-2.25v-.266q0-.406 5.11-.406 1.687 0 2.921.047.36-.407 1.86-.407.624 0 .624.313 0 .547-1.093 2.219-1.094 1.672-1.907 2.265-.265.219-.672.219-.406 0-.406-.172 0-.062.063-.187.39-.75.39-1.672 0-1.328-1.828-1.328-1.11 0-1.75.578-.625.578-1.25 1.61-.625 1.03-.922 1.78-.297.735-.297.922 0 .578.563.719.562.125 2.234.125l1.782-.062q.234 0 .234.187 0 .172-.25.594-.25.406-.516.578-.53.36-1.625.36z"/><path fill="#45818e" d="M702.85 24.452c0-6.279 4.836-11.369 10.802-11.369 2.864 0 5.612 1.198 7.637 3.33 2.026 2.132 3.164 5.024 3.164 8.04 0 6.278-4.836 11.369-10.801 11.369-5.966 0-10.802-5.09-10.802-11.37z" fill-rule="evenodd"/><path stroke="#134f5c" stroke-width="2" stroke-linejoin="round" stroke-linecap="butt" d="M702.85 24.452c0-6.279 4.836-11.369 10.802-11.369 2.864 0 5.612 1.198 7.637 3.33 2.026 2.132 3.164 5.024 3.164 8.04 0 6.278-4.836 11.369-10.801 11.369-5.966 0-10.802-5.09-10.802-11.37z"/><path fill="none" d="M699.131 8.774h21.603v24.147H699.13z"/><path fill="#d0e0e3" d="M715.131 26.311h-.515v1.703h-2.063v-1.703h-4.281q.14-.61.36-1.219.218-.625.5-1.234.296-.61.624-1.187.328-.594.703-1.11h1.438q-.453.75-.75 1.438-.297.672-.485 1.203-.203.625-.328 1.156h2.22v-4.844h2.062v4.844h.515v.953z"/><path fill="#45818e" d="M677.57 24.452c0-6.279 4.835-11.369 10.8-11.369 2.865 0 5.613 1.198 7.638 3.33 2.026 2.132 3.164 5.024 3.164 8.04 0 6.278-4.836 11.369-10.801 11.369-5.966 0-10.802-5.09-10.802-11.37z" fill-rule="evenodd"/><path stroke="#134f5c" stroke-width="2" stroke-linejoin="round" stroke-linecap="butt" d="M677.57 24.452c0-6.279 4.835-11.369 10.8-11.369 2.865 0 5.613 1.198 7.638 3.33 2.026 2.132 3.164 5.024 3.164 8.04 0 6.278-4.836 11.369-10.801 11.369-5.966 0-10.802-5.09-10.802-11.37z"/><path fill="none" d="M673.89 8.774h21.569v24.147h-21.57z"/><path fill="#d0e0e3" d="M687.452 28.014h-4.062v-.953h1v-5.594h-1v-.953h3.062v6.547h1v.953z"/><path fill="#45818e" d="M652.289 24.452c0-6.279 4.835-11.369 10.8-11.369 2.865 0 5.613 1.198 7.638 3.33 2.026 2.132 3.164 5.024 3.164 8.04 0 6.278-4.836 11.369-10.801 11.369-5.966 0-10.801-5.09-10.801-11.37z" fill-rule="evenodd"/><path stroke="#134f5c" stroke-width="2" stroke-linejoin="round" stroke-linecap="butt" d="M652.289 24.452c0-6.279 4.835-11.369 10.8-11.369 2.865 0 5.613 1.198 7.638 3.33 2.026 2.132 3.164 5.024 3.164 8.04 0 6.278-4.836 11.369-10.801 11.369-5.966 0-10.801-5.09-10.801-11.37z"/><path fill="none" d="M648.57 8.774h21.602v24.147h-21.603z"/><path fill="#d0e0e3" d="M661.273 28.17q-.47 0-1.016-.109-.531-.11-1.047-.328-.5-.219-.922-.531-.406-.328-.625-.766l1.86-.875q0 .36.14.672.157.313.39.547.25.234.563.375.313.125.657.125.328 0 .625-.094.312-.094.547-.281.234-.188.375-.453.156-.281.156-.64 0-.391-.14-.657-.126-.281-.36-.453-.235-.188-.547-.266-.297-.078-.656-.078h-1.016v-.89h1.016q.25 0 .468-.063.235-.063.407-.188.187-.14.297-.328.109-.203.109-.453 0-.297-.094-.484-.094-.203-.281-.328-.172-.125-.406-.172-.235-.063-.5-.063-.266 0-.516.078-.234.063-.422.204-.187.125-.297.328-.11.203-.11.484l-1.483-1.094q.218-.265.562-.453.344-.203.734-.312.391-.125.782-.172.406-.063.75-.063.312 0 .656.047.36.031.703.11.344.078.656.218.328.14.563.36.234.218.375.515.156.297.156.688 0 .234-.11.469-.109.218-.28.421-.157.188-.376.344-.203.14-.421.219.359.078.687.266.344.171.594.437t.39.61q.157.328.157.718 0 .516-.172.89-.172.36-.453.626-.282.265-.657.437-.375.157-.796.25-.422.078-.86.11-.422.047-.812.047z"/><path fill="#45818e" d="M627.008 24.452c0-6.279 4.836-11.369 10.801-11.369 2.865 0 5.612 1.198 7.638 3.33 2.025 2.132 3.163 5.024 3.163 8.04 0 6.278-4.836 11.369-10.801 11.369s-10.801-5.09-10.801-11.37z" fill-rule="evenodd"/><path stroke="#134f5c" stroke-width="2" stroke-linejoin="round" stroke-linecap="butt" d="M627.008 24.452c0-6.279 4.836-11.369 10.801-11.369 2.865 0 5.612 1.198 7.638 3.33 2.025 2.132 3.163 5.024 3.163 8.04 0 6.278-4.836 11.369-10.801 11.369s-10.801-5.09-10.801-11.37z"/><path fill="none" d="M623.289 8.774h21.602v24.147H623.29z"/><path fill="#d0e0e3" d="M639.882 25.717q0 .5-.171.891-.172.375-.454.64-.28.266-.671.454-.375.172-.797.281-.407.094-.844.14-.422.048-.813.048-.468 0-1.015-.11-.531-.11-1.047-.328-.5-.219-.922-.531-.422-.328-.625-.766l1.86-.875q0 .36.14.672.156.313.39.547.25.234.563.375.313.125.656.125.313 0 .625-.11.313-.109.547-.312.235-.219.375-.5.157-.297.157-.64 0-.391-.141-.688-.125-.297-.36-.484-.234-.204-.546-.297-.313-.11-.657-.11-.828 0-1.421.078-.594.063-.985.141-.469.094-.765.203l.78-4.047h5.516v.969h-3.828l-.36 1.828q.22-.031.485-.031.266-.016.578-.016.688 0 1.235.11.547.109.969.297.421.171.703.421.297.25.484.532.188.265.266.547.093.28.093.546z"/><defs><linearGradient id="c" gradientUnits="userSpaceOnUse" gradientTransform="matrix(0 12.83205 -12.83205 0 0 0)" spreadMethod="pad" x1="6.313" y1="-44.556" x2="19.145" y2="-44.556"><stop offset="0" stop-color="#76a5af"/><stop offset="1" stop-color="#a2c4c9"/></linearGradient></defs><path fill="url(#c)" d="M588.307 81.008V234.63h5.52l-11.04 11.04-11.039-11.04h5.52V81.008z" fill-rule="evenodd"/><path stroke="#45818e" stroke-width="2" stroke-linejoin="round" stroke-linecap="butt" d="M588.307 81.008V234.63h5.52l-11.04 11.04-11.039-11.04h5.52V81.008z"/><path fill="#d0e0e3" d="M222.99 54.977h176.755v216.725H222.99z" fill-rule="evenodd"/><path stroke="#45818e" stroke-width="4" stroke-linejoin="round" stroke-linecap="butt" d="M222.99 54.977h176.755v216.725H222.99z"/><path fill="none" d="M245.9 68.131h246.614v104.756H245.9z"/><path fill="#000" d="M265.932 86.274v-.39q0-.797 3.28-.797 1.657 0 1.657.61 0 .25-.234.484-1.172 1.593-4.97 8.062l3.798.031q1.25 0 2.297-1.015.515-.547.922-1.016.421-.484.937-1.36.531-.89.844-1.421.422-.766 1.5-2.938 0-.156.219-.375.234-.234.562-.406.328-.172 1-.297.672-.125 1.594-.125t.922.406q0 .188-.141.422-.14.22-1.594 2.453-1.453 2.235-2.937 4.657-1.469 2.406-3.11 5.234-1.64 2.813-2.671 5.14-1.016 2.329-1.016 3.391-.188.532-.766.532-1.687 0-2.343-.282-.641-.28-.641-.828 0-.953 2.031-4.437 2.047-3.5 2.047-4.25t-.61-1.11q-.609-.375-2.062-.375-1.437 0-1.984.032-1.047 1.687-2.39 4.328-1.345 2.625-2.266 4.312-.922 1.688-1.47 2.11-1.14.859-2.796.859-.953 0-.953-.484 0-.282.812-1.641.813-1.36 2.625-4.281 1.813-2.938 3.125-5.14l-1.86.093q-.468 0-.468-.25 0-.531.656-1.047.672-.516 1.094-.672.422-.156 1.781-.219 1.125-1.922 2.907-5.359.672-1.469.672-2.64zm20.08 10.188-2.594-.094q-1.937 0-2.984 1.25-.735.922-1.953 3.016-1.204 2.078-1.204 3.297 0 1.14 2.235 1.14 1.39 0 2.953-.515 3.156-1.047 5-4 .203-.266.719-.266.531 0 .531.594 0 .593-.984 2.5-.985 1.906-1.75 2.843-.391.5-1.547.563-1.14.062-3.5.062h-3.016l-1.75-.03-.812-.063h-.22q-.187 0-.468.265-1 .891-2.875.891-.89 0-.89-.39v-.094q0-.344 2.124-4 2.141-3.672 4.735-8.172 2.61-4.5 3.344-6.172.734-1.672.734-2.875v-.328q0-.532 6.531-.532 2.156 0 3.75.063.453-.516 2.36-.516.796 0 .796.391 0 .703-1.406 2.844-1.39 2.125-2.422 2.89-.343.282-.875.282-.515 0-.515-.22 0-.093.093-.25.5-.937.5-2.14 0-1.687-2.343-1.687-1.407 0-2.219.734-.813.734-1.61 2.063-.796 1.312-1.187 2.265-.375.953-.375 1.188 0 .75.719.922.719.156 2.875.156l2.265-.094q.297 0 .297.234 0 .235-.328.766-.312.531-.64.75-.672.469-2.094.469zm6.595 10.328-.422-.031q-.438 0-.657.265-1.03.891-2.812.891-.922 0-.922-.39v-.094q0-.344 2.125-4 2.14-3.672 4.719-8.172 2.594-4.5 3.344-6.188.75-1.687.75-2.797v-.39q0-.797 3.28-.797 1.657 0 1.657.61 0 .25-.234.484-2.453 3.984-6.5 11.375l-.438.765q-.422.766-.61 1.094-.187.312-.577 1.11-.375.78-.563 1.265-.515 1.375-.515 2.14 0 1.141 2.03 1.141h.204q1.266 0 2.766-.515 2.937-1.047 4.78-4 .126-.266.688-.266.563 0 .563.484 0 .735-.985 2.641-.968 1.906-1.765 2.812-.406.563-1.531.563-1.141.062-4.907.062l-3.468-.062zm16.033 0-.422-.031q-.438 0-.656.265-1.032.891-2.813.891-.922 0-.922-.39v-.094q0-.344 2.125-4 2.141-3.672 4.72-8.172 2.593-4.5 3.343-6.188.75-1.687.75-2.797v-.39q0-.797 3.281-.797 1.656 0 1.656.61 0 .25-.234.484-2.453 3.984-6.5 11.375l-.438.765q-.421.766-.609 1.094-.187.312-.578 1.11-.375.78-.563 1.265-.515 1.375-.515 2.14 0 1.141 2.031 1.141h.203q1.266 0 2.766-.515 2.937-1.047 4.781-4 .125-.266.688-.266.562 0 .562.484 0 .735-.984 2.641-.969 1.906-1.766 2.812-.406.563-1.531.563-1.14.062-4.906.062l-3.47-.062zm33.759-16.75q0 1.719-.703 3.937-.688 2.204-2.031 4.5-1.344 2.297-3.11 4.25-1.765 1.938-4.172 3.188-2.406 1.234-4.968 1.234-2.563 0-4.032-1.422-1.468-1.421-1.468-3.937 0-1.719.687-3.922.688-2.203 2.031-4.5 1.36-2.312 3.125-4.234 1.766-1.938 4.172-3.172 2.407-1.25 4.953-1.25 2.563 0 4.032 1.422 1.484 1.406 1.484 3.906zm-3.625-.266q0-3.375-2.453-3.375-2.047 0-4.578 2.61t-4.297 6.297q-1.766 3.687-1.766 6.609 0 3.375 2.453 3.375 2.032 0 4.563-2.61 2.547-2.609 4.312-6.296 1.766-3.703 1.766-6.61zM261.619 123.012l-.031-.672q0-.828 2.844-.828 1.78 0 1.78.89 0 .157-.062.22-.218 1.187-2.422 7.624-2.203 6.438-2.203 7.11 0 .656.61.656.453 0 .703-.25l1.078-1.078q.64-.64 3.516-4.64 2.89-4 4.64-6.907.578-1.172 3.86-1.172.828 0 .828.516l-.22.593q-.921 1.86-2.483 6.594-1.563 4.719-1.563 5.531 0 .813.61.813.468 0 .718-.25.422-.438.844-.86 1.14-1.14 4.984-6.484 3.86-5.344 5.203-7.984.329-.672.766-.89.766-.36 2.703-.423h.61q1.593 0 1.593.516 0 .219-.281.484-3 2.86-8.812 9.688-5.813 6.812-7.891 9.843-.438.641-.688.922-.234.282-.78.641-1.048.672-3.657.672-1.5 0-1.5-.735l.094-.328q.187-.593.672-1.968.5-1.375.828-2.329.343-.953.734-2.078.766-2.312.766-2.828 0-.515-.453-.515-.5 0-1.11.734-2.422 2.875-5.875 7.812-.594.829-.937 1.188-.328.344-1.407.687-1.062.36-2.671.36-1.61 0-1.61-.735l.094-.328q1.062-3.093 2.86-8.922 1.796-5.828 2.437-8.562.281-1.563.281-2.328zm41.112 3.828q0 1.719-.703 3.937-.688 2.204-2.032 4.5-1.343 2.297-3.109 4.25-1.766 1.938-4.172 3.188-2.406 1.234-4.969 1.234-2.562 0-4.03-1.422-1.47-1.421-1.47-3.937 0-1.719.688-3.922.687-2.203 2.031-4.5 1.36-2.312 3.125-4.234 1.766-1.938 4.172-3.172 2.406-1.25 4.953-1.25 2.563 0 4.031 1.422 1.485 1.406 1.485 3.906zm-3.625-.266q0-3.375-2.453-3.375-2.047 0-4.578 2.61-2.532 2.61-4.297 6.297-1.766 3.687-1.766 6.609 0 3.375 2.453 3.375 2.031 0 4.563-2.61 2.547-2.609 4.312-6.296 1.766-3.703 1.766-6.61zm13.955 15.875.062.922q0 .485-1.484.485-2.562 0-2.562-.97 0-.984 1.359-4.234 1.36-3.25 1.36-4.046 0-1.625-1.985-1.625l-.5.03q-.36 0-.36-.28 0-.579.438-1.172.453-.61 1.125-.61 2.781 0 4.984-1.656 2.22-1.656 2.22-3.484 0-1.328-.813-1.844t-2.235-.516q-1.406 0-2.14.86-1.797 2.265-5.813 9.484-4 7.219-4.484 8.875-.281.766-1.438 1.125-1.14.375-2.234.375-1.078 0-1.078-.422v-.062q0-.344 2.11-3.922 2.124-3.594 4.671-7.985 2.563-4.406 3.313-6.093.765-1.688.765-2.86v-.297q0-.828 4.656-.828 5 0 6.594 1.016.672.422 1.14 1.25.485.828.485 2.125 0 1.281-1.047 2.61-1.047 1.312-2.234 1.937-1.172.625-2.344.906-1.156.266-1.75.453-.578.188-.578.578 0 .25.438.61.453.343.906.843.469.485.469 1.047 0 .547-1.016 3.172-1 2.61-1 4.203zm5.788 1.141-.422-.031q-.437 0-.656.265-1.031.891-2.813.891-.921 0-.921-.39v-.094q0-.344 2.125-4 2.14-3.672 4.718-8.172 2.594-4.5 3.344-6.188.75-1.687.75-2.797v-.39q0-.797 3.281-.797 1.657 0 1.657.61 0 .25-.235.484-2.453 3.984-6.5 11.375l-.437.765q-.422.766-.61 1.094-.187.312-.578 1.11-.375.78-.562 1.265-.516 1.375-.516 2.14 0 1.141 2.031 1.141h.203q1.266 0 2.766-.515 2.938-1.047 4.781-4 .125-.266.688-.266.562 0 .562.484 0 .735-.984 2.641-.969 1.906-1.766 2.812-.406.563-1.53.563-1.142.062-4.907.062l-3.469-.062zm19.158.484q-1.625 0-2.093-.109-.453-.11-.782-.188-.312-.062-.406-.093-.094-.032-.265-.032-.375 0-.688.172-1.062.891-2.812.891-.922 0-.922-.422 0-.406 2.125-4.078 2.14-3.688 4.718-8.188 2.594-4.5 3.344-6.187.75-1.688.75-2.922v-.234q0-.89 5.125-.89 7.61 0 7.61 5.171 0 3.75-2.547 8.25-1.313 2.36-3.094 4.328-1.781 1.953-4.438 3.25-2.656 1.281-5.625 1.281zm10.079-10.5q1.14-2.187 1.734-4.093.61-1.922.61-3.22 0-1.312-.75-1.984-.75-.671-2.532-.671-1.234 0-1.969.843-1.922 2.422-5.578 8.938-3.64 6.515-3.64 7.625 0 1.219 2.609 1.219 1.828 0 3.703-1.282 1.875-1.28 3.281-3.234 1.407-1.953 2.532-4.14zM258.182 172.452q-.22 0-.282-.28 0-.516.735-1.188.734-.688 1.172-.86.453-.187 2.968-.25l.438-.5q9.312-10.75 12.937-10.75.297-.03.703-.03 2.11 0 2.11 1 0 .187-.39.983l-1.391 2.766q-.97 1.953-1.891 3.984-4.969 10.938-5.766 14.344 0 .25-.64.25-.625 0-1.516-.687-.875-.688-.875-1.219 0-.953 1.5-3.578 1.5-2.64 1.5-3.438 0-1.078-4.172-1.078-.61 0-1.906.063l-1.156 1.531q-2.141 2.89-4.11 7.14-.343.766-2.062.766-1.703 0-1.703-.484 0-.344 1.906-2.953 1.922-2.625 4.562-5.813-.468.063-1.171.125-.704.063-1.094.11-.375.046-.406.046zM270.9 168.5q1.203-1.453 1.797-2.922.594-1.468.594-1.984 0-.531-.516-.531-.922 0-3.047 1.953-2.109 1.937-4.593 4.86l3.343.062q1.235 0 2.422-1.438zm10.273 10.97q0-1.345 1-6.829 1-5.5 1-6.063 0-.562-.328-.562t-.875.64q-.547.641-.922 1.25l-.39.641q-2.454 4.016-5.548 10.64-.625 1.36-1.171 1.735-.547.39-1.579.39-1.03 0-1.03-.468v-.094q0-.39 1.562-2.906 5.984-9.594 8.734-15.172.719-1.422.719-2.547v-.5q0-.203.156-.437.172-.235 1.063-.485.89-.265 2.453-.265 2.359 0 2.359.89 0 .266-1.266 5.938-1.25 5.672-1.25 6.86 0 1.187.25 1.187.36 0 .75-.406.407-.407.625-.766l.22-.406q1.952-3.219 3.515-6.39 1.578-3.173 2.312-4.673.735-1.5 1.282-1.89.796-.47 2.015-.47 1.235 0 1.235.376v.062q0 .203-1.625 2.563-1.625 2.36-4.313 6.64-2.672 4.282-4.672 8.172-.86 2-.86 3.188 0 .375-.14.562-.125.172-.937.344-.813.172-1.672.172h-.985q-.343 0-.828-.156-.86-.25-.86-.766zm14.988 1.405q-1.625 0-2.094-.109l-.781-.188q-.313-.062-.407-.093-.093-.032-.265-.032-.375 0-.688.172-1.062.891-2.812.891-.922 0-.922-.422 0-.406 2.125-4.078 2.14-3.688 4.719-8.188 2.593-4.5 3.343-6.187.75-1.688.75-2.922v-.234q0-.89 5.125-.89 7.61 0 7.61 5.171 0 3.75-2.547 8.25-1.313 2.36-3.094 4.328-1.781 1.953-4.437 3.25-2.657 1.281-5.625 1.281zm10.078-10.5q1.14-2.187 1.734-4.093.61-1.922.61-3.22 0-1.312-.75-1.984-.75-.671-2.532-.671-1.234 0-1.968.843-1.922 2.422-5.579 8.938-3.64 6.515-3.64 7.625 0 1.219 2.61 1.219 1.827 0 3.702-1.282 1.875-1.28 3.282-3.234 1.406-1.953 2.53-4.14zm4.426 2.078q-.219 0-.281-.28 0-.516.734-1.188.735-.688 1.172-.86.453-.187 2.969-.25l.437-.5q9.313-10.75 12.938-10.75.297-.03.703-.03 2.11 0 2.11 1 0 .187-.391.983l-1.391 2.766q-.969 1.953-1.89 3.984-4.97 10.938-5.766 14.344 0 .25-.64.25-.626 0-1.516-.687-.875-.688-.875-1.219 0-.953 1.5-3.578 1.5-2.64 1.5-3.438 0-1.078-4.172-1.078-.61 0-1.907.063l-1.156 1.531q-2.14 2.89-4.11 7.14-.343.766-2.062.766-1.703 0-1.703-.484 0-.344 1.906-2.953 1.922-2.625 4.563-5.813-.469.063-1.172.125-.703.063-1.094.11-.375.046-.406.046zm12.719-3.953q1.203-1.453 1.797-2.922.593-1.468.593-1.984 0-.531-.515-.531-.922 0-3.047 1.953-2.11 1.937-4.594 4.86l3.344.062q1.234 0 2.422-1.438zm14.234 11.86q-.437 0-.765-.39-.313-.407-.407-.813l-.093-.391q-.094-.344-.454-.344-.343 0-.625.219-2.875 2.266-5.359 2.266-3.187 0-3.187-4.266 0-1.5.78-3.734.782-2.235 2.25-4.672 1.47-2.438 3.329-4.563 1.86-2.14 4.297-3.515 2.437-1.375 4.86-1.375 1.312 0 2.14.453.125.062.281.062.156 0 .297-.094.766-.515 1.969-.515t1.203.578q0 .734-1.547 2.906-2.39 3.406-3.922 3.406-.39 0-.531-.062-.14-.063-.14-.234 0-.188.187-.625.609-1.282.609-2.125 0-.844-.328-1.282-.313-.453-1.328-.453-1.844 0-4.375 2.781-2.516 2.766-4.328 6.407-1.813 3.625-1.813 5.984 0 2 1.656 2 1.297 0 2.922-1.312 1.64-1.329 2.703-2.844 1.063-1.516 1.063-2.172 0-.672-.656-.922-.641-.266-2.47-.266-.374 0-.374-.28 0-.516.594-1.063.609-.563 1.156-.625 2.203-.14 4.64-.14 2.438 0 2.438.421 0 .375-.422 1.14-.406.766-.672 1.25-.25.47-.765 1.313-.5.844-.813 1.328-.297.485-.937 1.485-.625 1-1 1.609-.36.61-.891 1.625-.531 1.016-.781 1.437-.25.407-.39.407zM277.807 200.44q0 1.719-.704 3.937-.687 2.204-2.03 4.5-1.345 2.297-3.11 4.25-1.766 1.938-4.172 3.188-2.406 1.234-4.969 1.234-2.562 0-4.031-1.422-1.469-1.421-1.469-3.937 0-1.719.688-3.922.687-2.203 2.03-4.5 1.36-2.312 3.126-4.234 1.766-1.938 4.172-3.172 2.406-1.25 4.953-1.25 2.562 0 4.031 1.422 1.485 1.406 1.485 3.906zm-3.625-.266q0-3.375-2.454-3.375-2.046 0-4.578 2.61-2.531 2.61-4.297 6.297-1.765 3.687-1.765 6.609 0 3.375 2.453 3.375 2.031 0 4.562-2.61 2.547-2.609 4.313-6.296 1.766-3.703 1.766-6.61zm22.08.266q0 1.719-.703 3.937-.688 2.204-2.032 4.5-1.343 2.297-3.11 4.25-1.765 1.938-4.171 3.188-2.406 1.234-4.969 1.234-2.562 0-4.031-1.422-1.469-1.421-1.469-3.937 0-1.719.688-3.922.687-2.203 2.031-4.5 1.36-2.312 3.125-4.234 1.766-1.938 4.172-3.172 2.406-1.25 4.953-1.25 2.563 0 4.031 1.422 1.485 1.406 1.485 3.906zm-3.625-.266q0-3.375-2.453-3.375-2.047 0-4.579 2.61-2.53 2.61-4.296 6.297-1.766 3.687-1.766 6.609 0 3.375 2.453 3.375 2.031 0 4.563-2.61 2.546-2.609 4.312-6.296 1.766-3.703 1.766-6.61zm6.283 17.5q-1.625 0-2.094-.109l-.781-.188q-.313-.062-.406-.093-.094-.032-.266-.032-.375 0-.688.172-1.062.891-2.812.891-.922 0-.922-.422 0-.406 2.125-4.078 2.14-3.688 4.719-8.188 2.594-4.5 3.344-6.187.75-1.688.75-2.922v-.234q0-.89 5.125-.89 7.609 0 7.609 5.171 0 3.75-2.547 8.25-1.312 2.36-3.094 4.328-1.78 1.953-4.437 3.25-2.656 1.281-5.625 1.281zm10.078-10.5q1.14-2.187 1.734-4.093.61-1.922.61-3.22 0-1.312-.75-1.984-.75-.671-2.532-.671-1.234 0-1.968.843-1.922 2.422-5.578 8.938-3.641 6.515-3.641 7.625 0 1.219 2.61 1.219 1.827 0 3.702-1.282 1.875-1.28 3.282-3.234 1.406-1.953 2.531-4.14zm8.254 10.5q-1.625 0-2.093-.109l-.782-.188q-.312-.062-.406-.093-.094-.032-.266-.032-.375 0-.687.172-1.063.891-2.813.891-.921 0-.921-.422 0-.406 2.125-4.078 2.14-3.688 4.718-8.188 2.594-4.5 3.344-6.187.75-1.688.75-2.922v-.234q0-.89 5.125-.89 7.61 0 7.61 5.171 0 3.75-2.547 8.25-1.313 2.36-3.094 4.328-1.781 1.953-4.438 3.25-2.656 1.281-5.625 1.281zm10.078-10.5q1.141-2.187 1.735-4.093.61-1.922.61-3.22 0-1.312-.75-1.984-.75-.671-2.532-.671-1.234 0-1.969.843-1.922 2.422-5.578 8.938-3.64 6.515-3.64 7.625 0 1.219 2.609 1.219 1.828 0 3.703-1.282 1.875-1.28 3.281-3.234 1.406-1.953 2.531-4.14zm4.427 2.078q-.219 0-.282-.28 0-.516.735-1.188.734-.688 1.172-.86.453-.187 2.968-.25l.438-.5q9.312-10.75 12.937-10.75.297-.03.704-.03 2.109 0 2.109 1 0 .187-.39.983l-1.391 2.766q-.969 1.953-1.89 3.984-4.97 10.938-5.767 14.344 0 .25-.64.25-.625 0-1.516-.687-.875-.688-.875-1.219 0-.953 1.5-3.578 1.5-2.64 1.5-3.438 0-1.078-4.172-1.078-.609 0-1.906.063l-1.156 1.531q-2.14 2.89-4.11 7.14-.343.766-2.062.766-1.703 0-1.703-.484 0-.344 1.906-2.953 1.922-2.625 4.563-5.813-.47.063-1.172.125-.703.063-1.094.11-.375.046-.406.046zm12.718-3.953q1.204-1.453 1.797-2.922.594-1.468.594-1.984 0-.531-.516-.531-.921 0-3.046 1.953-2.11 1.937-4.594 4.86l3.344.062q1.234 0 2.421-1.438zM260.79 238.021l-.03-3.25q0-1.297-.188-1.656-.187-.375-.187-.625 0-.61 2.406-.61t2.406 1.141q0 .766-.515 3.703-.5 2.922-.532 4.016-.015 1.078.594 1.078.36 0 .828-.406 1.86-1.656 4.188-4.172 2.343-2.531 3.109-3.531t1.281-1.219q1.11-.422 2.64-.484h.517q1.75 0 1.75.546 0 .313-.516.625-1.969 1.125-6.766 5.141t-7 6.375q-.89.953-3.015 4.89-2.11 3.938-2.875 4.47-.703.609-2.094.609-1.375 0-1.375-.516v-.094q0-.218 1.016-1.906 3.28-5.36 3.687-6.75.672-2.203.672-7.375zm16.306 8.906.031-.671q0-.61-.484-.61-.407 0-1.016.485-1.75 1.546-3.687 3.593-1.922 2.032-2.563 2.891-.625.844-.828 1.047-.188.203-1.078.531-.89.344-2.063.344-1.187 0-1.187-.36 0-.78 12.047-10.953 1.078-.859 1.14-2.234.11-2.266.11-3.375 0-3.094-.516-4.656l-.156-.469q0-.516 2.265-.516 1.11 0 1.563.36.469.343.469 1.297 0 .953-.22 4.015 0 .828.595.828.297 0 .703-.343 4.047-3.579 4.765-4.5.72-.922 1.172-1.141.922-.36 2.578-.422h.516q1.516 0 1.516.484 0 .282-.438.532-3.89 2.203-10.265 7.406-.157.094-.391.266-.219.171-.625.812-.39.64-.453 1.406-.219 3.875-.219 6.375 0 2.891.422 3.75.125.25.125.391 0 .469-.938.656-.921.203-1.78.203-.86 0-1.11-.375-.25-.359-.25-1.484 0-1.14.25-5.563zm16.462 0 .031-.671q0-.61-.484-.61-.406 0-1.016.485-1.75 1.546-3.687 3.593-1.922 2.032-2.563 2.891-.625.844-.828 1.047-.187.203-1.078.531-.89.344-2.062.344-1.188 0-1.188-.36 0-.78 12.047-10.953 1.078-.859 1.14-2.234.11-2.266.11-3.375 0-3.094-.516-4.656l-.156-.469q0-.516 2.266-.516 1.11 0 1.562.36.47.343.47 1.297 0 .953-.22 4.015 0 .828.594.828.297 0 .703-.343 4.047-3.579 4.766-4.5.719-.922 1.172-1.141.922-.36 2.578-.422h.515q1.516 0 1.516.484 0 .282-.437.532-3.891 2.203-10.266 7.406-.156.094-.39.266-.22.171-.626.812-.39.64-.453 1.406-.219 3.875-.219 6.375 0 2.891.422 3.75.125.25.125.391 0 .469-.937.656-.922.203-1.781.203-.86 0-1.11-.375-.25-.359-.25-1.484 0-1.14.25-5.563zm16.463 0 .03-.671q0-.61-.483-.61-.407 0-1.016.485-1.75 1.546-3.688 3.593-1.921 2.032-2.562 2.891-.625.844-.828 1.047-.188.203-1.078.531-.891.344-2.063.344-1.187 0-1.187-.36 0-.78 12.047-10.953 1.078-.859 1.14-2.234.11-2.266.11-3.375 0-3.094-.516-4.656l-.156-.469q0-.516 2.265-.516 1.11 0 1.563.36.469.343.469 1.297 0 .953-.22 4.015 0 .828.595.828.296 0 .703-.343 4.047-3.579 4.765-4.5.719-.922 1.172-1.141.922-.36 2.578-.422h.516q1.516 0 1.516.484 0 .282-.438.532-3.89 2.203-10.266 7.406-.156.094-.39.266-.219.171-.625.812-.39.64-.453 1.406-.22 3.875-.22 6.375 0 2.891.423 3.75.125.25.125.391 0 .469-.938.656-.922.203-1.781.203-.86 0-1.11-.375-.25-.359-.25-1.484 0-1.14.25-5.563zm16.462 0 .031-.671q0-.61-.484-.61-.406 0-1.016.485-1.75 1.546-3.687 3.593-1.922 2.032-2.563 2.891-.625.844-.828 1.047-.187.203-1.078.531-.89.344-2.062.344-1.188 0-1.188-.36 0-.78 12.047-10.953 1.078-.859 1.14-2.234.11-2.266.11-3.375 0-3.094-.516-4.656l-.156-.469q0-.516 2.266-.516 1.11 0 1.562.36.469.343.469 1.297 0 .953-.219 4.015 0 .828.594.828.297 0 .703-.343 4.047-3.579 4.766-4.5.718-.922 1.172-1.141.921-.36 2.578-.422h.515q1.516 0 1.516.484 0 .282-.438.532-3.89 2.203-10.265 7.406-.156.094-.39.266-.22.171-.626.812-.39.64-.453 1.406-.219 3.875-.219 6.375 0 2.891.422 3.75.125.25.125.391 0 .469-.937.656-.922.203-1.782.203-.859 0-1.109-.375-.25-.359-.25-1.484 0-1.14.25-5.563z"/><path fill="#45818e" d="M344.869 24.452c0-6.279 4.835-11.369 10.8-11.369 2.866 0 5.613 1.198 7.638 3.33 2.026 2.132 3.164 5.024 3.164 8.04 0 6.278-4.836 11.369-10.801 11.369-5.966 0-10.801-5.09-10.801-11.37z" fill-rule="evenodd"/><path stroke="#134f5c" stroke-width="2" stroke-linejoin="round" stroke-linecap="butt" d="M344.869 24.452c0-6.279 4.835-11.369 10.8-11.369 2.866 0 5.613 1.198 7.638 3.33 2.026 2.132 3.164 5.024 3.164 8.04 0 6.278-4.836 11.369-10.801 11.369-5.966 0-10.801-5.09-10.801-11.37z"/><path fill="none" d="M344.869 8.774h17.882v24.147h-17.882z"/><path fill="#d0e0e3" d="M358.313 28.014h-4.062v-.953h1v-5.594h-1v-.953h3.062v6.547h1v.953z"/><path fill="#45818e" d="M221.15 43.236h179.37V76.37H221.15z" fill-rule="evenodd"/><path stroke="#134f5c" stroke-width="3" stroke-linejoin="round" stroke-linecap="butt" d="M221.15 43.236h179.37V76.37H221.15z"/><path fill="#a2c4c9" d="M256.664 65.78q-.313.579-1.047.579-.719 0-.953-.203-.219-.22-.219-1.094 0-.875.922-4.078.938-3.203.938-3.688 0-.5-.188-.5-.281 0-.719.5-.437.485-.718.969l-.297.5q-1.532 2.5-2.797 5.016-1.25 2.5-1.844 3.672-.578 1.156-1.016 1.468-.437.313-1.25.313-.796 0-.796-.36v-.078q0-.234 1.25-2.234 4.609-7.313 6.937-11.953.547-1.094.547-2.063v-.281q0-.437 1-.703 1-.266 1.64-.266h.797q1.016 0 1.485.39.219.142.219.392 0 .234-.954 3.328-.937 3.078-.937 3.703t.187.625q.61 0 2.11-1.469 1.515-1.484 3.453-3.547 1.594-1.734 3.031-2.984.313-.281.75-.328.938-.157 2-.157 1.063 0 1.063.485 0 .094-.016.14 0 .047-.89 1.454-.891 1.406-2.172 3.484-1.266 2.078-2.547 4.297-1.266 2.219-2.157 4.219-.875 2-.875 2.937-.218.422-.671.422-2.375 0-2.375-.844 0-1.953 4.812-9.344.625-.937.625-1.171 0-.235-.36-.235-.906 0-3.843 3.25-2.922 3.25-4.125 5.438zm34.583-10.374q0 1.343-.546 3.078-.532 1.719-1.594 3.531-1.047 1.797-2.438 3.328-1.375 1.516-3.265 2.485-1.875.968-3.875.968t-3.157-1.11q-1.156-1.124-1.156-3.093 0-1.344.531-3.062.547-1.735 1.61-3.532 1.062-1.796 2.437-3.312 1.375-1.516 3.25-2.484 1.89-.97 3.89-.97 2.017 0 3.157 1.11 1.156 1.094 1.156 3.063zm-2.828-.22q0-2.64-1.922-2.64-1.609 0-3.593 2.047-1.97 2.031-3.36 4.938-1.375 2.89-1.375 5.172 0 2.625 1.922 2.625 1.594 0 3.578-2.032 2-2.047 3.375-4.937t1.375-5.172zm13.198 13.75q-1.72 0-2.86-.812t-1.14-2.296q0-.97.937-2.844.953-1.89 2.594-4.625 1.656-2.735 2.36-4.14.702-1.407.702-2.298 0-.234.141-.375.344-.343 2.312-.343 1.297 0 1.297.515 0 .235-.172.406-1.312 1.844-4.062 6.579-2.734 4.718-2.734 6.015 0 1.89 1.734 1.89 1.562 0 2.422-.812.656-.64 1.078-1.343.969-1.47 2.5-4.594 1.531-3.125 2.734-5.563 1.22-2.437 1.703-2.828.5-.406 1.735-.406 1.25 0 1.25.297 0 .187-.422.687t-1.25 1.75q-.813 1.25-1.875 2.985-1.063 1.718-1.86 3.047-.796 1.312-1.859 3.125-1.062 1.812-1.265 2.125-2.25 3.859-6 3.859zm28.82-6.202q0 2.531-2.093 4.25-2.094 1.719-5.36 1.719-1.796 0-2.734-.532-.093-.047-.218-.047t-.891.266q-.766.266-1.547.266-.781 0-.781-.453 0-.625 1.516-3.25 1.515-2.641 2.687-3.547.5-.375.984-.375.485 0 .485.25 0 .047-.328.593-.328.547-.657 1.438-.312.875-.312 1.516 0 .64.125 1.078.125.422.672.875.547.437 1.312.437.782 0 1.469-.187.688-.203 1.36-.61.671-.406 1.093-1.187.438-.797.438-1.844 0-1.047-.657-2.125-.64-1.078-1.406-1.828-.765-.766-1.422-1.734-.64-.97-.64-1.891 0-.938.484-1.719.5-.797 1.234-1.265.735-.47 1.672-.782 1.578-.531 2.797-.531 1.235 0 1.813.11.593.109.89.203.297.093.375.093.078 0 .188-.062.719-.406 1.562-.406.844 0 .844.406 0 .672-1.594 3.015-1.593 2.329-2.39 2.329-.657 0-.657-.282 0-.047.172-.343.532-.954.532-2.172 0-.672-.579-1.047-.578-.375-1.187-.375-.61 0-1.25.203-.625.187-1.266.766-.64.562-.64 1.375 0 .796.609 1.671.61.875 1.344 1.61.734.734 1.344 1.86.609 1.109.609 2.265zm19.188-2.313-2.047-.062q-1.516 0-2.328.969-.578.734-1.531 2.359-.938 1.625-.938 2.594 0 .89 1.75.89 1.078 0 2.313-.406 2.468-.828 3.906-3.125.172-.219.578-.219.406 0 .406.469t-.765 1.953q-.766 1.485-1.375 2.235-.313.39-1.22.437-.89.047-2.734.047h-2.359l-1.36-.031-.656-.047h-.171q-.141 0-.36.219-.781.703-2.25.703-.687 0-.687-.313v-.078q0-.266 1.656-3.125 1.672-2.875 3.703-6.406 2.047-3.531 2.625-4.828.578-1.313.578-2.25v-.266q0-.406 5.11-.406 1.687 0 2.921.047.36-.407 1.86-.407.625 0 .625.313 0 .547-1.094 2.219-1.094 1.672-1.906 2.265-.266.219-.672.219t-.406-.172q0-.062.062-.187.39-.75.39-1.672 0-1.328-1.827-1.328-1.11 0-1.75.578-.625.578-1.25 1.61-.625 1.03-.922 1.78-.297.735-.297.922 0 .578.562.719.563.125 2.235.125l1.781-.062q.234 0 .234.187 0 .172-.25.594-.25.406-.515.578-.531.36-1.625.36z"/><path fill="#45818e" d="M319.588 24.452c0-6.279 4.836-11.369 10.801-11.369 2.865 0 5.612 1.198 7.638 3.33 2.025 2.132 3.163 5.024 3.163 8.04 0 6.278-4.836 11.369-10.801 11.369s-10.801-5.09-10.801-11.37z" fill-rule="evenodd"/><path stroke="#134f5c" stroke-width="2" stroke-linejoin="round" stroke-linecap="butt" d="M319.588 24.452c0-6.279 4.836-11.369 10.801-11.369 2.865 0 5.612 1.198 7.638 3.33 2.025 2.132 3.163 5.024 3.163 8.04 0 6.278-4.836 11.369-10.801 11.369s-10.801-5.09-10.801-11.37z"/><path fill="none" d="M315.869 8.774h21.602v24.147H315.87z"/><path fill="#d0e0e3" d="M331.869 26.311h-.516v1.703h-2.062v-1.703h-4.282q.141-.61.36-1.219.218-.625.5-1.234.297-.61.625-1.187.328-.594.703-1.11h1.437q-.453.75-.75 1.438-.297.672-.484 1.203-.203.625-.328 1.156h2.219v-4.844h2.062v4.844h.516v.953z"/><path fill="#45818e" d="M294.307 24.452c0-6.279 4.836-11.369 10.801-11.369 2.865 0 5.612 1.198 7.638 3.33 2.025 2.132 3.163 5.024 3.163 8.04 0 6.278-4.835 11.369-10.8 11.369-5.966 0-10.802-5.09-10.802-11.37z" fill-rule="evenodd"/><path stroke="#134f5c" stroke-width="2" stroke-linejoin="round" stroke-linecap="butt" d="M294.307 24.452c0-6.279 4.836-11.369 10.801-11.369 2.865 0 5.612 1.198 7.638 3.33 2.025 2.132 3.163 5.024 3.163 8.04 0 6.278-4.835 11.369-10.8 11.369-5.966 0-10.802-5.09-10.802-11.37z"/><path fill="none" d="M290.627 8.774h21.57v24.147h-21.57z"/><path fill="#d0e0e3" d="M307.221 25.717q0 .5-.172.891-.172.375-.453.64-.281.266-.672.454-.375.172-.797.281-.406.094-.843.14-.422.048-.813.048-.469 0-1.016-.11-.53-.11-1.046-.328-.5-.219-.922-.531-.422-.328-.625-.766l1.859-.875q0 .36.14.672.157.313.391.547.25.234.563.375.312.125.656.125.313 0 .625-.11.313-.109.547-.312.234-.219.375-.5.156-.297.156-.64 0-.391-.14-.688-.125-.297-.36-.484-.234-.204-.547-.297-.312-.11-.656-.11-.828 0-1.422.078-.594.063-.984.141-.469.094-.766.203l.781-4.047h5.516v.969h-3.828l-.36 1.828q.22-.031.485-.031.266-.016.578-.016.688 0 1.234.11.547.109.97.297.421.171.702.421.297.25.485.532.187.265.265.547.094.28.094.546z"/><path fill="#45818e" d="M269.026 24.452c0-6.279 4.836-11.369 10.801-11.369 2.865 0 5.612 1.198 7.638 3.33s3.164 5.024 3.164 8.04c0 6.278-4.836 11.369-10.802 11.369-5.965 0-10.8-5.09-10.8-11.37z" fill-rule="evenodd"/><path stroke="#134f5c" stroke-width="2" stroke-linejoin="round" stroke-linecap="butt" d="M269.026 24.452c0-6.279 4.836-11.369 10.801-11.369 2.865 0 5.612 1.198 7.638 3.33s3.164 5.024 3.164 8.04c0 6.278-4.836 11.369-10.802 11.369-5.965 0-10.8-5.09-10.8-11.37z"/><path fill="none" d="M265.307 8.774h21.602v24.147h-21.602z"/><path fill="#d0e0e3" d="M278.01 28.17q-.469 0-1.015-.109-.532-.11-1.047-.328-.5-.219-.922-.531-.406-.328-.625-.766l1.86-.875q0 .36.14.672.156.313.39.547.25.234.563.375.312.125.656.125.328 0 .625-.094.313-.094.547-.281.234-.188.375-.453.156-.281.156-.64 0-.391-.14-.657-.125-.281-.36-.453-.234-.188-.547-.266-.296-.078-.656-.078h-1.015v-.89h1.015q.25 0 .469-.063.234-.063.406-.188.188-.14.297-.328.11-.203.11-.453 0-.297-.094-.484-.094-.203-.282-.328-.171-.125-.406-.172-.234-.063-.5-.063-.265 0-.515.078-.235.063-.422.204-.188.125-.297.328-.11.203-.11.484l-1.484-1.094q.219-.265.563-.453.343-.203.734-.312.39-.125.781-.172.406-.063.75-.063.313 0 .656.047.36.031.704.11.343.078.656.218.328.14.562.36.235.218.375.515.157.297.157.688 0 .234-.11.469-.11.218-.281.421-.156.188-.375.344-.203.14-.422.219.36.078.688.266.343.171.593.437.25.266.39.61.157.328.157.718 0 .516-.172.89-.172.36-.453.626-.281.265-.656.437-.375.157-.797.25-.422.078-.86.11-.421.047-.812.047z"/><path fill="#45818e" d="M243.745 24.452c0-6.279 4.836-11.369 10.801-11.369 2.865 0 5.612 1.198 7.638 3.33s3.164 5.024 3.164 8.04c0 6.278-4.836 11.369-10.802 11.369-5.965 0-10.8-5.09-10.8-11.37z" fill-rule="evenodd"/><path stroke="#134f5c" stroke-width="2" stroke-linejoin="round" stroke-linecap="butt" d="M243.745 24.452c0-6.279 4.836-11.369 10.801-11.369 2.865 0 5.612 1.198 7.638 3.33s3.164 5.024 3.164 8.04c0 6.278-4.836 11.369-10.802 11.369-5.965 0-10.8-5.09-10.8-11.37z"/><path fill="none" d="M240.026 8.774h21.603v24.147h-21.603z"/><path fill="#d0e0e3" d="M256.448 22.78q0 .453-.125.797-.125.328-.344.578-.203.234-.5.406-.28.156-.609.281-.328.125-.688.235-.343.094-.687.203-.344.094-.672.234-.312.14-.578.36-.25.203-.438.5-.171.28-.234.687h4.875v.953h-7.094q.11-.718.313-1.234.219-.531.5-.906t.61-.625q.343-.25.687-.422.343-.172.687-.281.36-.125.688-.235.328-.11.61-.234.296-.125.5-.297.218-.188.327-.453.125-.266.125-.656 0-.36-.125-.625-.11-.266-.328-.438-.203-.172-.484-.266-.282-.093-.61-.093-.343 0-.64.125-.282.125-.516.359-.219.219-.39.547-.172.312-.25.703l-1.61-.89q.219-.438.61-.75.39-.329.874-.547.485-.22 1-.313.516-.11.97-.11.452 0 .89.032.437.031.828.14.39.094.719.266.343.172.578.438.25.265.39.64.141.375.141.89z"/><defs><linearGradient id="d" gradientUnits="userSpaceOnUse" gradientTransform="matrix(0 12.83205 -12.83205 0 0 0)" spreadMethod="pad" x1="6.313" y1="-14.689" x2="19.145" y2="-14.689"><stop offset="0" stop-color="#76a5af"/><stop offset="1" stop-color="#a2c4c9"/></linearGradient></defs><path fill="url(#d)" d="M205.045 81.008V234.63h5.52l-11.04 11.04-11.04-11.04h5.52V81.008z" fill-rule="evenodd"/><path stroke="#45818e" stroke-width="2" stroke-linejoin="round" stroke-linecap="butt" d="M205.045 81.008V234.63h5.52l-11.04 11.04-11.04-11.04h5.52V81.008z"/><defs><linearGradient id="e" gradientUnits="userSpaceOnUse" gradientTransform="scale(11.48364)" spreadMethod="pad" x1="35.008" y1="17.625" x2="46.492" y2="17.625"><stop offset="0" stop-color="#45818e"/><stop offset="1" stop-color="#a2c4c9"/></linearGradient></defs><path fill="url(#e)" d="M402.021 143.055h92.315v-19.78l39.559 39.56-39.559 39.559v-19.78h-92.315z" fill-rule="evenodd"/><path stroke="#45818e" stroke-width="3" stroke-linejoin="round" stroke-linecap="butt" d="M402.021 143.055h92.315v-19.78l39.559 39.56-39.559 39.559v-19.78h-92.315z"/><defs><radialGradient id="f" gradientUnits="userSpaceOnUse" gradientTransform="rotate(.04) scale(6.31767)" spreadMethod="pad" cx="81.205" cy="54.23" fx="81.205" fy="54.23" r="6.318"><stop offset="0" stop-color="#dcecd5"/><stop offset="1" stop-color="#93bc81"/></radialGradient></defs><path fill="url(#f)" d="M479.47 331.806h45.512v-10.803l21.606 21.606-21.606 21.606v-10.803H479.47z" fill-rule="evenodd"/><path stroke="#38761d" stroke-linejoin="round" stroke-linecap="butt" d="M479.47 331.806h45.512v-10.803l21.606 21.606-21.606 21.606v-10.803H479.47z"/><path fill="none" d="M236.035 308.3h243.433v79.117H236.035z"/><path fill="#38761d" d="M309.957 326.84q0 1.282-.515 2.907-.5 1.625-1.5 3.328-1 1.703-2.297 3.14-1.297 1.438-3.078 2.36-1.782.922-3.672.922-1.89 0-2.985-1.047-1.078-1.063-1.078-2.922 0-1.266.5-2.89.516-1.641 1.5-3.344 1-1.704 2.297-3.125 1.313-1.422 3.094-2.344 1.781-.922 3.672-.922 1.89 0 2.969 1.047 1.093 1.047 1.093 2.89zm-2.672-.203q0-2.484-1.812-2.484-1.516 0-3.39 1.922-1.86 1.922-3.173 4.656-1.296 2.734-1.296 4.89 0 2.485 1.812 2.485 1.5 0 3.375-1.922t3.172-4.656q1.312-2.734 1.312-4.89zm4.64 12.938q-1.188 0-1.532-.078-.344-.078-.578-.14-.234-.048-.312-.08-.063-.015-.204-.015-.265 0-.5.14-.78.657-2.078.657-.687 0-.687-.312 0-.297 1.578-3.016t3.484-6.047q1.922-3.344 2.47-4.578.562-1.25.562-2.156v-.188q0-.656 3.78-.656 5.626 0 5.626 3.828 0 2.766-1.89 6.094-.97 1.75-2.282 3.203-1.313 1.453-3.281 2.406-1.953.938-4.157.938zm7.453-7.75q.843-1.625 1.28-3.031.454-1.422.454-2.375 0-.97-.563-1.47-.546-.5-1.875-.5-.906 0-1.437.626-1.438 1.797-4.14 6.61-2.688 4.812-2.688 5.624 0 .906 1.922.906 1.36 0 2.734-.937 1.39-.953 2.438-2.39 1.046-1.454 1.875-3.063zm10.404 7.375q-.313 0-.563-.297-.234-.297-.297-.594l-.062-.297q-.078-.25-.344-.25-.25 0-.453.172-2.125 1.672-3.969 1.672-2.36 0-2.36-3.156 0-1.11.579-2.75.578-1.656 1.672-3.453 1.094-1.813 2.453-3.39 1.375-1.58 3.172-2.595 1.812-1.015 3.594-1.015.968 0 1.593.343.078.047.188.047.125 0 .234-.078.563-.375 1.438-.375.89 0 .89.422 0 .547-1.125 2.156-1.765 2.516-2.906 2.516-.281 0-.39-.047-.11-.047-.11-.172 0-.14.14-.469.454-.953.454-1.562 0-.625-.235-.953-.234-.328-.984-.328-1.36 0-3.234 2.047-1.86 2.046-3.203 4.734-1.329 2.687-1.329 4.422 0 1.484 1.22 1.484.952 0 2.155-.969 1.22-.984 2-2.109.782-1.125.782-1.61 0-.484-.485-.671-.468-.203-1.828-.203-.265 0-.265-.203 0-.375.437-.782.438-.422.844-.453 1.64-.125 3.437-.125t1.797.328q0 .266-.312.844-.297.563-.5.906-.188.344-.563.97-.36.624-.594 1-.218.358-.687 1.093-.469.734-.75 1.187-.266.453-.656 1.203-.391.75-.578 1.063-.188.297-.297.297zm4.848-5.844q-.156 0-.203-.203 0-.39.547-.89t.875-.626q.328-.14 2.187-.187l.313-.36q6.89-7.953 9.562-7.953.22-.03.516-.03 1.562 0 1.562.75 0 .14-.296.718l-1.016 2.047q-.719 1.453-1.406 2.937-3.672 8.094-4.25 10.61 0 .187-.47.187-.468 0-1.124-.516-.656-.515-.656-.89 0-.703 1.11-2.656 1.108-1.954 1.108-2.532 0-.797-3.078-.797-.453 0-1.406.047l-.86 1.125q-1.593 2.14-3.03 5.282-.25.562-1.532.562-1.265 0-1.265-.36 0-.25 1.421-2.187 1.422-1.937 3.36-4.281-.328.031-.86.078-.515.047-.796.094-.282.031-.313.031zm9.39-2.922q.891-1.078 1.329-2.156.453-1.094.453-1.469 0-.39-.39-.39-.673 0-2.235 1.437-1.563 1.438-3.406 3.594l2.468.047q.907 0 1.782-1.063zm9.235 3.578.015-.5q0-.453-.359-.453-.297 0-.75.36-1.281 1.125-2.719 2.64-1.422 1.5-1.89 2.14-.453.641-.61.782-.14.14-.797.39-.656.25-1.53.25-.876 0-.876-.265 0-.562 8.906-8.094.797-.625.844-1.656.078-1.672.078-2.484 0-2.297-.375-3.453l-.125-.329q0-.39 1.688-.39.812 0 1.14.265.344.25.344.954 0 .703-.156 2.968 0 .61.437.61.22 0 .516-.235 3-2.656 3.531-3.328.532-.687.86-.844.687-.28 1.906-.328h.39q1.11 0 1.11.375 0 .203-.313.375-2.875 1.64-7.593 5.485l-.282.203q-.171.11-.468.594-.297.468-.344 1.046-.156 2.844-.156 4.704 0 2.14.312 2.765.094.188.094.297 0 .344-.688.484-.687.157-1.328.157-.625 0-.812-.282-.188-.265-.188-1.109t.188-4.094zm20.12-9.953v-.297q0-.578 2.421-.578 1.219 0 1.219.453 0 .172-.172.36-.86 1.172-3.672 5.953l2.813.031q.922 0 1.687-.75.39-.406.688-.75.312-.36.703-1.016.39-.656.61-1.046.312-.563 1.109-2.172 0-.125.171-.282.172-.171.407-.296.234-.125.734-.22.5-.093 1.172-.093.687 0 .687.297 0 .14-.109.312-.094.157-1.172 1.813-1.078 1.656-2.172 3.437-1.078 1.782-2.297 3.875-1.203 2.079-1.968 3.797-.75 1.72-.75 2.516-.141.375-.563.375-1.25 0-1.734-.203-.469-.203-.469-.61 0-.703 1.5-3.28 1.516-2.579 1.516-3.126 0-.562-.453-.828-.454-.281-1.532-.281-1.062 0-1.468.015-.766 1.25-1.766 3.204-1 1.937-1.688 3.187-.671 1.25-1.078 1.563-.828.64-2.062.64-.688 0-.688-.36 0-.202.594-1.202.594-1.016 1.922-3.172 1.344-2.172 2.328-3.813l-1.39.078q-.329 0-.329-.187 0-.39.485-.766.484-.39.797-.5.328-.125 1.312-.156.844-1.437 2.156-3.969.5-1.093.5-1.953zm9.25-.047-.031-.5q0-.61 2.11-.61 1.312 0 1.312.657 0 .11-.047.156-.156.891-1.797 5.657-1.625 4.75-1.625 5.234t.453.484q.344 0 .531-.171.313-.329.782-.797.484-.485 2.609-3.438 2.125-2.953 3.422-5.11.437-.859 2.86-.859.609 0 .609.391l-.157.422q-.687 1.39-1.843 4.875-1.157 3.484-1.157 4.094 0 .593.453.593.344 0 .532-.171.312-.329.625-.641.843-.844 3.687-4.797t3.844-5.89q.25-.5.562-.657.563-.281 1.985-.328h.453q1.187 0 1.187.39 0 .157-.203.36-2.218 2.11-6.515 7.156-4.297 5.032-5.828 7.282-.329.468-.516.671-.172.204-.578.485-.766.5-2.703.5-1.11 0-1.11-.547l.078-.25q.125-.438.485-1.453.375-1.016.625-1.719.25-.703.547-1.547.562-1.687.562-2.078 0-.39-.344-.39-.359 0-.812.546-1.797 2.125-4.36 5.782-.421.609-.671.875-.25.25-1.047.515-.781.266-1.985.266-1.187 0-1.187-.547l.078-.25q.781-2.297 2.11-6.594 1.328-4.312 1.796-6.328.22-1.156.22-1.719zm13.403 9.344q-.157 0-.203-.203 0-.39.546-.89.547-.5.875-.626.329-.14 2.188-.187l.312-.36q6.891-7.953 9.563-7.953.219-.03.516-.03 1.562 0 1.562.75 0 .14-.297.718l-1.015 2.047q-.72 1.453-1.407 2.937-3.672 8.094-4.25 10.61 0 .187-.468.187-.47 0-1.125-.516-.657-.515-.657-.89 0-.703 1.11-2.656 1.109-1.954 1.109-2.532 0-.797-3.078-.797-.453 0-1.406.047l-.86 1.125q-1.593 2.14-3.031 5.282-.25.562-1.531.562-1.266 0-1.266-.36 0-.25 1.422-2.187 1.422-1.937 3.36-4.281-.329.031-.86.078-.516.047-.797.094-.281.031-.312.031zm9.39-2.922q.89-1.078 1.328-2.156.454-1.094.454-1.469 0-.39-.391-.39-.672 0-2.234 1.437-1.563 1.438-3.407 3.594l2.469.047q.906 0 1.781-1.063zm18.228-3.594q0 1.282-.516 2.907-.5 1.625-1.5 3.328-1 1.703-2.297 3.14-1.297 1.438-3.078 2.36-1.781.922-3.672.922-1.89 0-2.984-1.047-1.078-1.063-1.078-2.922 0-1.266.5-2.89.515-1.641 1.5-3.344 1-1.704 2.296-3.125 1.313-1.422 3.094-2.344 1.781-.922 3.672-.922 1.89 0 2.969 1.047 1.094 1.047 1.094 2.89zm-2.672-.203q0-2.484-1.813-2.484-1.515 0-3.39 1.922-1.86 1.922-3.172 4.656-1.297 2.734-1.297 4.89 0 2.485 1.812 2.485 1.5 0 3.375-1.922t3.172-4.656q1.313-2.734 1.313-4.89zm3.733.782-.016-2.407q0-.953-.14-1.218-.126-.282-.126-.454 0-.453 1.766-.453 1.781 0 1.781.828 0 .579-.375 2.75-.375 2.157-.406 2.97-.016.796.437.796.282 0 .625-.297 1.375-1.234 3.094-3.094 1.719-1.875 2.281-2.609.579-.734.97-.89.812-.329 1.937-.36h.39q1.297 0 1.297.406 0 .22-.39.453-1.454.829-5 3.797-3.547 2.97-5.172 4.72-.657.702-2.22 3.608-1.562 2.907-2.14 3.297-.515.453-1.531.453t-1.016-.39v-.063q0-.156.735-1.406 2.437-3.969 2.719-4.984.5-1.625.5-5.453zM271.91 358.79l-1.937-.078q-1.422 0-2.188.938-.547.672-1.453 2.219-.89 1.53-.89 2.437 0 .844 1.656.844 1.031 0 2.172-.39 2.343-.766 3.703-2.938.156-.203.531-.203.39 0 .39.437 0 .438-.734 1.844-.718 1.406-1.28 2.11-.298.359-1.142.405-.843.047-2.593.047h-2.219l-1.297-.015-.61-.047h-.156q-.14 0-.343.203-.75.656-2.125.656-.657 0-.657-.297v-.062q0-.25 1.563-2.953 1.578-2.719 3.5-6.047 1.937-3.328 2.469-4.563.547-1.234.547-2.125v-.25q0-.375 4.828-.375 1.593 0 2.765.047.344-.39 1.75-.39.594 0 .594.296 0 .516-1.031 2.094-1.031 1.578-1.813 2.14-.25.204-.64.204-.375 0-.375-.156 0-.078.062-.188.375-.703.375-1.578 0-1.25-1.734-1.25-1.031 0-1.64.547-.595.547-1.188 1.516-.594.968-.875 1.671-.282.704-.282.891 0 .547.532.672.531.11 2.125.11l1.672-.063q.234 0 .234.172t-.25.578q-.234.39-.484.547-.5.343-1.532.343zm18.163-4.75q0 1.282-.515 2.907-.5 1.625-1.5 3.328-1 1.703-2.297 3.14-1.297 1.438-3.078 2.36-1.782.922-3.672.922-1.89 0-2.985-1.047-1.078-1.063-1.078-2.922 0-1.266.5-2.89.516-1.641 1.5-3.344 1-1.704 2.297-3.125 1.313-1.422 3.094-2.344 1.781-.922 3.672-.922 1.89 0 2.969 1.047 1.093 1.047 1.093 2.89zm-2.672-.203q0-2.484-1.812-2.484-1.516 0-3.39 1.922-1.86 1.922-3.173 4.656-1.296 2.734-1.296 4.89 0 2.485 1.812 2.485 1.5 0 3.375-1.922t3.172-4.656q1.312-2.734 1.312-4.89zm5.952 11.907q0-1 .734-5.047.75-4.063.75-4.485 0-.422-.25-.422-.234 0-.64.485-.407.469-.672.922l-.297.468q-1.813 2.97-4.11 7.875-.453.985-.859 1.266-.406.297-1.172.297-.75 0-.75-.344v-.062q0-.297 1.157-2.157 4.421-7.093 6.453-11.218.531-1.047.531-1.875v-.36q0-.172.125-.328.125-.172.781-.36.656-.202 1.813-.202 1.734 0 1.734.656 0 .203-.937 4.406-.922 4.188-.922 5.063 0 .86.187.86.266 0 .563-.282.297-.297.453-.578l.156-.297q1.453-2.375 2.61-4.719l1.703-3.453q.546-1.11.953-1.406.578-.344 1.484-.344t.906.281v.031q0 .172-1.203 1.922-1.187 1.735-3.172 4.891-1.984 3.156-3.453 6.047-.64 1.469-.64 2.344 0 .28-.11.421-.094.125-.703.25-.594.125-1.219.125h-.734q-.25 0-.61-.109-.64-.187-.64-.562zm22.843-11.704q0 1.282-.516 2.907-.5 1.625-1.5 3.328-1 1.703-2.297 3.14-1.296 1.438-3.078 2.36-1.78.922-3.672.922-1.89 0-2.984-1.047-1.078-1.063-1.078-2.922 0-1.266.5-2.89.516-1.641 1.5-3.344 1-1.704 2.297-3.125 1.312-1.422 3.094-2.344 1.78-.922 3.671-.922 1.891 0 2.97 1.047 1.093 1.047 1.093 2.89zm-2.672-.203q0-2.484-1.812-2.484-1.516 0-3.391 1.922-1.86 1.922-3.172 4.656-1.297 2.734-1.297 4.89 0 2.485 1.813 2.485 1.5 0 3.375-1.922t3.172-4.656q1.312-2.734 1.312-4.89zm5.709 7.375.015-.5q0-.453-.36-.453-.296 0-.75.36-1.28 1.125-2.718 2.64-1.422 1.5-1.89 2.14-.454.641-.61.782-.14.14-.797.39-.656.25-1.531.25-.875 0-.875-.265 0-.562 8.906-8.094.797-.625.844-1.656.078-1.672.078-2.484 0-2.297-.375-3.453l-.125-.329q0-.39 1.688-.39.812 0 1.14.265.344.25.344.954 0 .703-.156 2.968 0 .61.437.61.219 0 .516-.235 3-2.656 3.531-3.328.531-.687.86-.844.687-.28 1.906-.328h.39q1.11 0 1.11.375 0 .203-.313.375-2.875 1.641-7.594 5.485l-.28.203q-.173.11-.47.594-.296.468-.343 1.046-.157 2.844-.157 4.704 0 2.14.313 2.765.094.188.094.297 0 .344-.688.484-.687.157-1.328.157-.625 0-.812-.282-.188-.265-.188-1.109t.188-4.094zm14.9 5.203-.312-.015q-.313 0-.469.203-.781.656-2.094.656-.672 0-.672-.297v-.062q0-.25 1.563-2.953 1.578-2.719 3.484-6.047 1.922-3.328 2.469-4.578.562-1.25.562-2.063v-.297q0-.578 2.438-.578 1.219 0 1.219.453 0 .172-.188.36-1.812 2.937-4.797 8.406l-.312.562q-.328.563-.469.813-.125.234-.406.812-.281.579-.422.938-.39 1.016-.39 1.578 0 .844 1.5.844h.156q.937 0 2.046-.39 2.172-.766 3.532-2.938.093-.203.5-.203.422 0 .422.359 0 .547-.72 1.953-.718 1.406-1.312 2.078-.297.406-1.14.406-.828.047-3.625.047l-2.563-.047zm11.85 0-.313-.015q-.313 0-.469.203-.781.656-2.094.656-.671 0-.671-.297v-.062q0-.25 1.562-2.953 1.578-2.719 3.484-6.047 1.922-3.328 2.47-4.578.562-1.25.562-2.063v-.297q0-.578 2.437-.578 1.219 0 1.219.453 0 .172-.188.36-1.812 2.937-4.796 8.406l-.313.562q-.328.563-.469.813-.125.234-.406.812-.281.579-.422.938-.39 1.016-.39 1.578 0 .844 1.5.844h.156q.937 0 2.047-.39 2.172-.766 3.531-2.938.094-.203.5-.203.422 0 .422.359 0 .547-.719 1.953-.719 1.406-1.312 2.078-.297.406-1.141.406-.828.047-3.625.047l-2.563-.047zm10.54-5.859q-.157 0-.203-.203 0-.39.546-.89.547-.5.875-.626.329-.14 2.188-.187l.312-.36q6.891-7.953 9.563-7.953.219-.03.516-.03 1.562 0 1.562.75 0 .14-.297.718l-1.015 2.047q-.72 1.453-1.407 2.937-3.672 8.094-4.25 10.61 0 .187-.468.187-.47 0-1.125-.516-.657-.515-.657-.89 0-.703 1.11-2.656 1.109-1.954 1.109-2.532 0-.797-3.078-.797-.453 0-1.406.047l-.86 1.125q-1.593 2.141-3.031 5.282-.25.562-1.531.562-1.266 0-1.266-.36 0-.25 1.422-2.187 1.422-1.937 3.36-4.281-.329.031-.86.078-.516.047-.797.094-.281.031-.312.031zm9.39-2.922q.89-1.078 1.328-2.156.454-1.094.454-1.469 0-.39-.391-.39-.672 0-2.234 1.437-1.563 1.438-3.407 3.594l2.469.047q.906 0 1.781-1.063zm6.556 9.14q-1.188 0-1.532-.077-.343-.078-.578-.14-.234-.048-.312-.079-.063-.016-.203-.016-.266 0-.5.141-.782.656-2.078.656-.688 0-.688-.312 0-.297 1.578-3.016t3.485-6.047q1.921-3.344 2.468-4.578.563-1.25.563-2.156v-.188q0-.656 3.781-.656 5.625 0 5.625 3.828 0 2.766-1.89 6.094-.97 1.75-2.282 3.203-1.312 1.453-3.281 2.406-1.953.938-4.156.938zm7.453-7.75q.844-1.624 1.281-3.03.453-1.422.453-2.375 0-.97-.562-1.47-.547-.5-1.875-.5-.907 0-1.438.626-1.437 1.797-4.14 6.61-2.688 4.812-2.688 5.624 0 .906 1.922.906 1.36 0 2.734-.937 1.391-.953 2.438-2.39 1.047-1.454 1.875-3.063zm7.754 2.188.015-.5q0-.453-.359-.453-.297 0-.75.36-1.281 1.125-2.719 2.64-1.422 1.5-1.89 2.14-.453.641-.61.782-.14.14-.797.39-.656.25-1.53.25-.876 0-.876-.265 0-.562 8.906-8.094.797-.625.844-1.656.078-1.672.078-2.484 0-2.297-.375-3.453l-.125-.329q0-.39 1.688-.39.812 0 1.14.265.344.25.344.954 0 .703-.156 2.968 0 .61.437.61.22 0 .516-.235 3-2.656 3.531-3.328.532-.687.86-.844.687-.28 1.906-.328h.39q1.11 0 1.11.375 0 .203-.313.375-2.875 1.641-7.593 5.485l-.282.203q-.171.11-.468.594-.297.468-.344 1.046-.156 2.844-.156 4.704 0 2.14.312 2.765.094.188.094.297 0 .344-.688.484-.687.157-1.328.157-.625 0-.812-.282-.188-.265-.188-1.109t.188-4.094zm14.9 5.203-.312-.015q-.312 0-.469.203-.78.656-2.093.656-.672 0-.672-.297v-.062q0-.25 1.562-2.953 1.578-2.719 3.485-6.047 1.921-3.328 2.468-4.578.563-1.25.563-2.063v-.297q0-.578 2.437-.578 1.22 0 1.22.453 0 .172-.188.36-1.813 2.937-4.797 8.406l-.313.562q-.328.563-.469.813-.125.234-.406.812-.281.579-.422.938-.39 1.016-.39 1.578 0 .844 1.5.844h.156q.937 0 2.047-.39 2.172-.766 3.531-2.938.094-.203.5-.203.422 0 .422.359 0 .547-.719 1.953-.719 1.406-1.312 2.078-.297.406-1.14.406-.829.047-3.626.047l-2.562-.047zm19.834-.828.047.672q0 .36-1.094.36-1.906 0-1.906-.72 0-.734 1-3.124 1.016-2.406 1.016-3 0-1.203-1.47-1.203l-.358.031q-.266 0-.266-.203 0-.438.328-.875.328-.438.828-.438 2.047 0 3.672-1.218 1.64-1.235 1.64-2.594 0-.969-.609-1.344-.593-.39-1.64-.39-1.032 0-1.578.624-1.329 1.672-4.297 7.016-2.953 5.328-3.313 6.563-.203.562-1.062.828-.844.281-1.657.281-.796 0-.796-.328v-.047q0-.234 1.562-2.89 1.563-2.657 3.453-5.907 1.906-3.25 2.453-4.484.563-1.25.563-2.11v-.234q0-.61 3.437-.61 3.688 0 4.875.75.5.313.844.922.36.61.36 1.563t-.782 1.937q-.765.97-1.64 1.438-.875.453-1.735.656-.86.203-1.297.344-.422.14-.422.437 0 .172.329.438.328.266.671.625.344.36.344.766t-.75 2.343q-.75 1.938-.75 3.125zm6.585 1.188q-1.187 0-1.531-.078-.344-.078-.578-.14-.234-.048-.313-.079-.062-.016-.203-.016-.265 0-.5.141-.781.656-2.078.656-.687 0-.687-.312 0-.297 1.578-3.016t3.484-6.047q1.922-3.344 2.469-4.578.562-1.25.562-2.156v-.188q0-.656 3.782-.656 5.625 0 5.625 3.828 0 2.766-1.891 6.094-.969 1.75-2.281 3.203-1.313 1.453-3.281 2.406-1.954.938-4.157.938zm7.453-7.75q.844-1.625 1.282-3.031.453-1.422.453-2.375 0-.97-.563-1.47-.547-.5-1.875-.5-.906 0-1.437.626-1.438 1.797-4.14 6.61-2.688 4.812-2.688 5.624 0 .906 1.922.906 1.359 0 2.734-.937 1.39-.953 2.437-2.39 1.047-1.454 1.875-3.063zm6.096 7.75q-1.188 0-1.532-.078-.343-.078-.578-.14-.234-.048-.312-.079-.063-.016-.203-.016-.266 0-.5.141-.782.656-2.078.656-.688 0-.688-.312 0-.297 1.578-3.016t3.485-6.047q1.921-3.344 2.468-4.578.563-1.25.563-2.156v-.188q0-.656 3.781-.656 5.625 0 5.625 3.828 0 2.766-1.89 6.094-.97 1.75-2.282 3.203-1.312 1.453-3.281 2.406-1.953.938-4.156.938zm7.453-7.75q.844-1.625 1.281-3.031.453-1.422.453-2.375 0-.97-.562-1.47-.547-.5-1.875-.5-.907 0-1.438.626-1.437 1.797-4.14 6.61-2.688 4.812-2.688 5.624 0 .906 1.922.906 1.36 0 2.734-.937 1.391-.953 2.438-2.39 1.047-1.454 1.875-3.063zm7.754 2.187.015-.5q0-.453-.359-.453-.297 0-.75.36-1.281 1.125-2.719 2.64-1.422 1.5-1.89 2.14-.453.641-.61.782-.14.14-.797.39-.656.25-1.53.25-.876 0-.876-.265 0-.562 8.906-8.094.797-.625.844-1.656.078-1.672.078-2.484 0-2.297-.375-3.453l-.125-.329q0-.39 1.688-.39.812 0 1.14.265.344.25.344.954 0 .703-.156 2.968 0 .61.437.61.22 0 .516-.235 3-2.656 3.531-3.328.532-.687.86-.844.687-.28 1.906-.328h.39q1.11 0 1.11.375 0 .203-.313.375-2.875 1.641-7.593 5.485l-.282.203q-.171.11-.468.594-.297.468-.344 1.046-.156 2.844-.156 4.704 0 2.14.312 2.765.094.188.094.297 0 .344-.688.484-.687.157-1.328.157-.625 0-.812-.282-.188-.265-.188-1.109t.188-4.094z"/></g></svg>