<svg viewBox="0 0 1007.94 455.593" fill="none" stroke-linecap="square" stroke-miterlimit="10" xmlns="http://www.w3.org/2000/svg"><clipPath id="a"><path d="M0 0h1007.94v455.593H0V0z"/></clipPath><g clip-path="url(#a)"><path fill="none" d="M0 0h1007.94v455.593H0z"/><path fill="#76a5af" d="m783.782 359.647 43.197-46.2v21.6c62.195-8.788 110.348-35.728 125.022-69.947 21.458 50.04-34.072 100.293-125.022 113.143v21.599z" fill-rule="evenodd"/><path fill="#5e838b" d="M956.57 286.698c0-52.217-77.36-94.547-172.788-94.547v-43.197c95.428 0 172.788 42.33 172.788 94.547z" fill-rule="evenodd"/><path fill="none" d="M956.57 286.698c0-52.217-77.36-94.547-172.788-94.547v-43.197c95.428 0 172.788 42.33 172.788 94.547v43.197c0 43.114-53.302 80.767-129.591 91.545v21.599l-43.197-40.195 43.197-46.2v21.6c62.195-8.788 110.348-35.728 125.022-69.947"/><path stroke="#134f5c" stroke-linejoin="round" stroke-linecap="butt" d="M956.57 286.698c0-52.217-77.36-94.547-172.788-94.547v-43.197c95.428 0 172.788 42.33 172.788 94.547v43.197c0 43.114-53.302 80.767-129.591 91.545v21.599l-43.197-40.195 43.197-46.2v21.6c62.195-8.788 110.348-35.728 125.022-69.947"/><path fill="#d9ead3" d="M37.677 306.483H778.56V441.38H37.677z" fill-rule="evenodd"/><path stroke="#6aa84f" stroke-width="4" stroke-linejoin="round" stroke-linecap="butt" d="M37.677 306.483H778.56V441.38H37.677z"/><path fill="none" d="M42.291 327.49H793.19v104.757H42.291z"/><path fill="#38761d" d="M63.291 346.428v-.437q0-.86 3.563-.86 1.797 0 1.797.657 0 .265-.266.547-1.266 1.718-5.39 8.765l4.124.031q1.375 0 2.5-1.109.563-.594 1.016-1.11.453-.515 1.016-1.484.578-.968.906-1.531.469-.844 1.625-3.203 0-.172.25-.422t.594-.422q.36-.187 1.093-.312.735-.141 1.735-.141t1 .438q0 .187-.156.437-.141.25-1.735 2.688-1.578 2.437-3.187 5.062-1.594 2.61-3.375 5.672-1.782 3.062-2.907 5.594-1.109 2.53-1.109 3.703-.203.562-.828.562-1.828 0-2.531-.297-.703-.296-.703-.906 0-1.031 2.218-4.828 2.22-3.797 2.22-4.61 0-.812-.673-1.218-.672-.406-2.234-.406-1.563 0-2.172.03-1.125 1.845-2.594 4.72-1.469 2.859-2.469 4.687-1 1.828-1.593 2.297-1.235.938-3.032.938-1.03 0-1.03-.532 0-.297.874-1.781.89-1.484 2.844-4.672 1.969-3.187 3.406-5.578l-2.031.094q-.5 0-.5-.266 0-.562.719-1.125.718-.578 1.172-.734.468-.172 1.937-.235 1.234-2.109 3.172-5.843.734-1.594.734-2.86zm21.829 11.063-2.828-.094q-2.11 0-3.235 1.36-.797 1-2.125 3.265-1.312 2.266-1.312 3.61 0 1.218 2.437 1.218 1.5 0 3.203-.562 3.422-1.125 5.422-4.328.235-.297.797-.297.578 0 .578.656 0 .64-1.078 2.703-1.062 2.063-1.89 3.11-.438.53-1.688.593-1.25.063-3.813.063h-3.265l-1.906-.032-.891-.062h-.234q-.204 0-.5.297-1.11.969-3.141.969-.969 0-.969-.438v-.094q0-.375 2.313-4.36 2.328-3.983 5.156-8.874 2.844-4.906 3.64-6.719.797-1.812.797-3.11v-.374q0-.563 7.094-.563 2.344 0 4.063.063.5-.563 2.578-.563.86 0 .86.438 0 .765-1.516 3.078-1.516 2.312-2.641 3.156-.375.297-.938.297-.562 0-.562-.234 0-.11.094-.266.53-1.031.53-2.344 0-1.828-2.53-1.828-1.532 0-2.422.813-.875.797-1.75 2.234-.86 1.422-1.281 2.453-.407 1.031-.407 1.297 0 .797.782.984.78.188 3.109.188l2.469-.094q.328 0 .328.25t-.36.828q-.343.578-.703.813-.734.5-2.265.5zm7.16 11.234-.468-.031q-.454 0-.688.297-1.14.969-3.078.969-1 0-1-.438v-.094q0-.375 2.312-4.36 2.329-3.983 5.141-8.874 2.813-4.906 3.625-6.734.828-1.829.828-3.032v-.437q0-.86 3.563-.86 1.797 0 1.797.657 0 .265-.266.547-2.656 4.328-7.063 12.359l-.468.828q-.47.844-.672 1.188-.188.343-.61 1.203-.421.843-.609 1.375-.578 1.5-.578 2.343 0 1.22 2.203 1.22h.234q1.36 0 3-.563 3.204-1.125 5.204-4.328.125-.297.734-.297.625 0 .625.53 0 .798-1.063 2.876-1.062 2.062-1.937 3.062-.422.594-1.656.594-1.235.063-5.344.063l-3.766-.063zm17.43 0-.468-.031q-.453 0-.687.297-1.141.969-3.078.969-1 0-1-.438v-.094q0-.375 2.312-4.36 2.328-3.983 5.14-8.874 2.813-4.906 3.626-6.734.828-1.829.828-3.032v-.437q0-.86 3.562-.86 1.797 0 1.797.657 0 .265-.265.547-2.657 4.328-7.063 12.359l-.469.828q-.468.844-.672 1.188-.187.343-.609 1.203-.422.843-.61 1.375-.577 1.5-.577 2.343 0 1.22 2.203 1.22h.234q1.36 0 3-.563 3.203-1.125 5.203-4.328.125-.297.735-.297.625 0 .625.53 0 .798-1.063 2.876-1.062 2.062-1.937 3.062-.422.594-1.657.594-1.234.063-5.343.063l-3.766-.063zm36.694-18.203q0 1.875-.75 4.281-.75 2.39-2.219 4.89-1.453 2.5-3.375 4.626-1.922 2.11-4.547 3.469-2.609 1.343-5.39 1.343-2.782 0-4.375-1.546-1.594-1.563-1.594-4.297 0-1.86.734-4.25.75-2.407 2.22-4.907 1.468-2.5 3.374-4.593 1.922-2.11 4.531-3.453 2.625-1.36 5.407-1.36 2.796 0 4.39 1.531 1.594 1.532 1.594 4.266zm-3.922-.297q0-3.672-2.672-3.672-2.234 0-4.984 2.844-2.75 2.828-4.672 6.844-1.906 4.015-1.906 7.187 0 3.657 2.672 3.657 2.187 0 4.953-2.829 2.765-2.828 4.687-6.843 1.922-4.016 1.922-7.188zm18.39-3.86-.031-.734q0-.906 3.093-.906 1.938 0 1.938.969 0 .172-.063.234-.234 1.297-2.64 8.297-2.39 7-2.39 7.719 0 .719.655.719.5 0 .766-.266l1.172-1.172q.703-.703 3.828-5.047 3.14-4.343 5.031-7.515.64-1.266 4.203-1.266.907 0 .907.563l-.235.64q-1 2.031-2.703 7.172-1.703 5.125-1.703 6.016 0 .875.672.875.5 0 .765-.266l.938-.937q1.234-1.235 5.406-7.047 4.188-5.813 5.656-8.688.36-.734.829-.969.843-.39 2.937-.468h.672q1.734 0 1.734.578 0 .234-.312.531-3.266 3.094-9.578 10.516-6.313 7.406-8.578 10.718-.47.688-.735 1-.265.297-.875.688-1.125.734-3.953.734-1.64 0-1.64-.797l.109-.359q.187-.64.719-2.14.546-1.5.906-2.532.375-1.031.797-2.265.843-2.5.843-3.063 0-.578-.5-.578-.546 0-1.203.812-2.64 3.125-6.406 8.5-.625.891-1 1.282-.36.375-1.531.75-1.172.39-2.922.39-1.734 0-1.734-.797l.093-.359q1.172-3.375 3.11-9.703 1.953-6.328 2.656-9.297.297-1.703.297-2.531zm44.69 4.157q0 1.875-.75 4.281-.75 2.39-2.22 4.89-1.452 2.5-3.374 4.626-1.922 2.11-4.547 3.469-2.61 1.343-5.39 1.343-2.782 0-4.376-1.546-1.593-1.563-1.593-4.297 0-1.86.734-4.25.75-2.407 2.219-4.907 1.468-2.5 3.375-4.593 1.922-2.11 4.531-3.453 2.625-1.36 5.406-1.36 2.797 0 4.39 1.531 1.595 1.532 1.595 4.266zm-3.922-.297q0-3.672-2.672-3.672-2.235 0-4.985 2.844-2.75 2.828-4.671 6.844-1.907 4.015-1.907 7.187 0 3.657 2.672 3.657 2.188 0 4.953-2.829 2.766-2.828 4.688-6.843 1.922-4.016 1.922-7.188zm15.157 17.266.062 1q0 .531-1.593.531-2.797 0-2.797-1.062 0-1.063 1.484-4.594 1.485-3.547 1.485-4.406 0-1.766-2.172-1.766l-.532.031q-.406 0-.406-.297 0-.64.485-1.281.484-.656 1.218-.656 3.032 0 5.422-1.797 2.406-1.797 2.406-3.797 0-1.437-.89-2-.875-.562-2.406-.562-1.532 0-2.329.921-1.968 2.47-6.328 10.329-4.343 7.843-4.875 9.64-.297.828-1.547 1.219-1.25.406-2.437.406-1.172 0-1.172-.453v-.078q0-.36 2.297-4.25 2.297-3.906 5.078-8.688 2.781-4.78 3.594-6.609.828-1.844.828-3.11v-.327q0-.907 5.062-.907 5.438 0 7.157 1.094.734.469 1.25 1.375.515.89.515 2.297 0 1.406-1.14 2.844-1.125 1.422-2.407 2.109-1.28.672-2.546.984-1.266.297-1.907.5-.625.188-.625.625 0 .266.485.657.484.375.984.922.5.53.5 1.125 0 .593-1.11 3.453-1.093 2.843-1.093 4.578zm6.296 1.234-.469-.031q-.453 0-.687.297-1.14.969-3.078.969-1 0-1-.438v-.094q0-.375 2.312-4.36 2.328-3.983 5.14-8.874 2.813-4.906 3.626-6.734.828-1.829.828-3.032v-.437q0-.86 3.562-.86 1.797 0 1.797.657 0 .265-.265.547-2.657 4.328-7.063 12.359l-.469.828q-.468.844-.671 1.188-.188.343-.61 1.203-.422.843-.61 1.375-.577 1.5-.577 2.343 0 1.22 2.203 1.22h.234q1.36 0 3-.563 3.203-1.125 5.203-4.328.125-.297.735-.297.625 0 .625.53 0 .798-1.063 2.876-1.062 2.062-1.937 3.062-.422.594-1.657.594-1.234.063-5.343.063l-3.766-.063zm20.837.531q-1.766 0-2.266-.125-.5-.109-.86-.203-.343-.078-.452-.11-.094-.03-.297-.03-.39 0-.719.203-1.172.969-3.078.969-1 0-1-.454 0-.453 2.313-4.453 2.328-4 5.14-8.89 2.813-4.907 3.625-6.735.828-1.828.828-3.172v-.265q0-.969 5.563-.969 8.265 0 8.265 5.64 0 4.063-2.765 8.97-1.438 2.562-3.375 4.703-1.922 2.125-4.813 3.53-2.875 1.391-6.11 1.391zm10.969-11.406q1.234-2.39 1.875-4.469.656-2.093.656-3.5 0-1.421-.828-2.156-.813-.734-2.75-.734-1.328 0-2.125.937-2.094 2.625-6.063 9.719-3.968 7.078-3.968 8.281 0 1.328 2.828 1.328 2 0 4.03-1.39 2.032-1.406 3.563-3.516 1.547-2.125 2.782-4.5zM528.818 357.49l-2.828-.093q-2.11 0-3.235 1.36-.796 1-2.125 3.265-1.312 2.266-1.312 3.61 0 1.218 2.437 1.218 1.5 0 3.204-.562 3.421-1.125 5.421-4.328.235-.297.797-.297.578 0 .578.656 0 .64-1.078 2.703-1.062 2.063-1.89 3.11-.438.53-1.688.593-1.25.063-3.812.063h-3.266l-1.906-.032-.89-.062h-.235q-.203 0-.5.297-1.11.969-3.14.969-.97 0-.97-.438v-.094q0-.375 2.313-4.36 2.328-3.983 5.156-8.874 2.844-4.906 3.64-6.719.798-1.812.798-3.11v-.374q0-.563 7.093-.563 2.344 0 4.063.063.5-.563 2.578-.563.86 0 .86.438 0 .765-1.516 3.078-1.516 2.312-2.64 3.156-.376.297-.938.297-.563 0-.563-.234 0-.11.094-.266.531-1.031.531-2.344 0-1.828-2.531-1.828-1.531 0-2.422.813-.875.797-1.75 2.234-.86 1.422-1.281 2.453-.406 1.031-.406 1.297 0 .797.78.984.782.188 3.11.188l2.469-.094q.328 0 .328.25t-.36.828q-.343.578-.702.813-.735.5-2.266.5zm26.723-6.968q0 1.875-.75 4.281-.75 2.39-2.219 4.89-1.453 2.5-3.375 4.626-1.922 2.11-4.547 3.469-2.609 1.343-5.39 1.343-2.782 0-4.375-1.546-1.594-1.563-1.594-4.297 0-1.86.734-4.25.75-2.407 2.22-4.907 1.468-2.5 3.374-4.593 1.922-2.11 4.531-3.453 2.625-1.36 5.407-1.36 2.796 0 4.39 1.531 1.594 1.532 1.594 4.266zm-3.922-.297q0-3.672-2.672-3.672-2.234 0-4.984 2.844-2.75 2.828-4.672 6.844-1.906 4.015-1.906 7.187 0 3.657 2.672 3.657 2.187 0 4.953-2.829 2.765-2.828 4.687-6.843 1.922-4.016 1.922-7.188zm8.767 17.5q0-1.469 1.078-7.437 1.078-5.97 1.078-6.578 0-.61-.36-.61-.343 0-.937.703-.594.688-1 1.36l-.437.703q-2.657 4.36-6.032 11.562-.656 1.469-1.265 1.875-.594.422-1.719.422-1.11 0-1.11-.5v-.094q0-.437 1.704-3.171 6.5-10.438 9.5-16.5.765-1.532.765-2.766v-.531q0-.235.172-.485.188-.25 1.156-.531.97-.281 2.672-.281 2.563 0 2.563.969 0 .296-1.375 6.468-1.36 6.157-1.36 7.438 0 1.281.266 1.281.406 0 .828-.422.438-.437.672-.844l.234-.437q2.125-3.5 3.829-6.938 1.703-3.453 2.5-5.078.796-1.64 1.406-2.078.86-.5 2.187-.5 1.344 0 1.344.406v.063q0 .234-1.766 2.797-1.765 2.562-4.687 7.219-2.922 4.656-5.078 8.875-.938 2.171-.938 3.468 0 .407-.156.61-.14.187-1.031.375-.875.187-1.813.187h-1.062q-.375 0-.906-.172-.922-.265-.922-.828zm33.582-17.203q0 1.875-.75 4.281-.75 2.39-2.218 4.89-1.454 2.5-3.375 4.626-1.922 2.11-4.547 3.469-2.61 1.343-5.391 1.343t-4.375-1.546q-1.594-1.563-1.594-4.297 0-1.86.735-4.25.75-2.407 2.218-4.907 1.47-2.5 3.375-4.593 1.922-2.11 4.532-3.453 2.625-1.36 5.406-1.36 2.797 0 4.39 1.531 1.594 1.532 1.594 4.266zm-3.922-.297q0-3.672-2.671-3.672-2.235 0-4.985 2.844-2.75 2.828-4.672 6.844-1.906 4.015-1.906 7.187 0 3.657 2.672 3.657 2.187 0 4.953-2.829 2.766-2.828 4.688-6.843 1.921-4.016 1.921-7.188zm8.392 10.828.031-.734q0-.656-.531-.656-.437 0-1.094.53-1.906 1.673-4.015 3.892-2.094 2.203-2.782 3.14-.671.938-.89 1.156-.219.204-1.188.563-.968.375-2.25.375-1.281 0-1.281-.39 0-.844 13.094-11.907 1.172-.922 1.234-2.422.14-2.469.14-3.672 0-3.375-.562-5.062l-.172-.5q0-.578 2.47-.578 1.202 0 1.702.39.5.375.5 1.422 0 1.031-.234 4.36 0 .906.625.906.344 0 .766-.375 4.406-3.89 5.187-4.89.781-1 1.281-1.235 1-.406 2.797-.469h.578q1.625 0 1.625.531 0 .297-.468.563-4.235 2.406-11.157 8.062-.172.11-.422.297-.25.172-.687.875-.422.703-.5 1.531-.234 4.204-.234 6.938 0 3.125.468 4.062.14.266.14.438 0 .5-1.015.719-1.015.218-1.953.218-.937 0-1.203-.406t-.266-1.64q0-1.235.266-6.032zm21.927 7.672-.47-.031q-.452 0-.687.297-1.14.969-3.078.969-1 0-1-.438v-.094q0-.375 2.313-4.36 2.328-3.983 5.14-8.874 2.813-4.906 3.625-6.734.828-1.829.828-3.032v-.437q0-.86 3.563-.86 1.797 0 1.797.657 0 .265-.266.547-2.656 4.328-7.062 12.359l-.47.828q-.468.844-.671 1.188-.187.343-.61 1.203-.421.843-.609 1.375-.578 1.5-.578 2.343 0 1.22 2.203 1.22h.235q1.359 0 3-.563 3.203-1.125 5.203-4.328.125-.297.734-.297.625 0 .625.53 0 .798-1.062 2.876-1.063 2.062-1.938 3.062-.422.594-1.656.594-1.234.063-5.344.063l-3.765-.063zm36.693-18.203q0 1.875-.75 4.281-.75 2.39-2.22 4.89-1.452 2.5-3.374 4.626-1.922 2.11-4.547 3.469-2.61 1.343-5.39 1.343-2.782 0-4.376-1.546-1.593-1.563-1.593-4.297 0-1.86.734-4.25.75-2.407 2.219-4.907 1.468-2.5 3.375-4.593 1.922-2.11 4.531-3.453 2.625-1.36 5.406-1.36 2.797 0 4.39 1.531 1.595 1.532 1.595 4.266zm-3.922-.297q0-3.672-2.672-3.672-2.235 0-4.985 2.844-2.75 2.828-4.671 6.844-1.907 4.015-1.907 7.187 0 3.657 2.672 3.657 2.188 0 4.953-2.829 2.766-2.828 4.688-6.843 1.922-4.016 1.922-7.188zm3.423 18.5-.47-.031q-.452 0-.687.297-1.14.969-3.078.969-1 0-1-.438v-.094q0-.375 2.313-4.36 2.328-3.983 5.14-8.874 2.813-4.906 3.625-6.734.828-1.829.828-3.032v-.437q0-.86 3.563-.86 1.797 0 1.797.657 0 .265-.266.547-2.656 4.328-7.062 12.359l-.469.828q-.469.844-.672 1.188-.187.343-.61 1.203-.421.843-.609 1.375-.578 1.5-.578 2.343 0 1.22 2.203 1.22h.235q1.36 0 3-.563 3.203-1.125 5.203-4.328.125-.297.734-.297.625 0 .625.53 0 .798-1.062 2.876-1.063 2.062-1.938 3.062-.422.594-1.656.594-1.234.063-5.344.063l-3.765-.063zm20.836.531q-1.765 0-2.265-.125-.5-.109-.86-.203-.343-.078-.453-.11-.093-.03-.297-.03-.39 0-.718.203-1.172.969-3.078.969-1 0-1-.454 0-.453 2.312-4.453 2.328-4 5.14-8.89 2.813-4.907 3.626-6.735.828-1.828.828-3.172v-.265q0-.969 5.562-.969 8.266 0 8.266 5.64 0 4.063-2.766 8.97-1.437 2.562-3.375 4.703-1.922 2.125-4.812 3.53-2.875 1.391-6.11 1.391zm10.97-11.406q1.234-2.39 1.874-4.469.656-2.093.656-3.5 0-1.421-.828-2.156-.812-.734-2.75-.734-1.328 0-2.125.937-2.093 2.625-6.062 9.719-3.969 7.078-3.969 8.281 0 1.328 2.828 1.328 2 0 4.031-1.39 2.032-1.406 3.563-3.516 1.547-2.125 2.781-4.5zm4.789 2.235q-.235 0-.297-.297 0-.563.797-1.297.797-.735 1.281-.922.484-.203 3.219-.281l.468-.532q10.125-11.687 14.063-11.687.328-.047.766-.047 2.296 0 2.296 1.11 0 .203-.421 1.062l-1.5 3q-1.079 2.125-2.079 4.328-5.39 11.906-6.265 15.61 0 .265-.688.265-.672 0-1.64-.75-.969-.75-.969-1.328 0-1.031 1.625-3.89 1.64-2.876 1.64-3.735 0-1.172-4.53-1.172-.657 0-2.063.063l-1.266 1.671q-2.328 3.141-4.469 7.766-.359.828-2.234.828-1.86 0-1.86-.531 0-.36 2.079-3.203 2.078-2.86 4.953-6.328-.5.078-1.266.14-.765.063-1.187.11-.422.047-.453.047zm13.828-4.282q1.312-1.578 1.953-3.172.656-1.609.656-2.171 0-.563-.562-.563-1 0-3.313 2.125-2.297 2.11-5 5.266l3.64.078q1.329 0 2.626-1.563zM54.854 400.085q-.235 0-.297-.297 0-.563.797-1.297.797-.735 1.281-.922.484-.203 3.219-.281l.469-.532q10.125-11.687 14.062-11.687.328-.047.766-.047 2.297 0 2.297 1.11 0 .203-.422 1.062l-1.5 3q-1.078 2.125-2.078 4.328-5.391 11.906-6.266 15.61 0 .265-.688.265-.671 0-1.64-.75-.969-.75-.969-1.328 0-1.031 1.625-3.89 1.64-2.876 1.64-3.735 0-1.172-4.53-1.172-.657 0-2.063.063l-1.266 1.671q-2.328 3.141-4.468 7.766-.36.828-2.235.828-1.86 0-1.86-.531 0-.36 2.079-3.203 2.078-2.86 4.953-6.328-.5.078-1.266.14-.765.063-1.187.11-.422.047-.453.047zm13.828-4.282q1.312-1.578 1.953-3.172.656-1.609.656-2.171 0-.563-.562-.563-1 0-3.313 2.125-2.297 2.11-5 5.266l3.641.078q1.328 0 2.625-1.563zm11.178 11.922q0-1.469 1.078-7.437 1.078-5.97 1.078-6.578 0-.61-.359-.61-.344 0-.937.703-.594.688-1 1.36l-.438.703q-2.656 4.36-6.031 11.562-.656 1.47-1.266 1.875-.594.422-1.719.422-1.109 0-1.109-.5v-.094q0-.437 1.703-3.171 6.5-10.438 9.5-16.5.766-1.532.766-2.766v-.531q0-.235.172-.485.187-.25 1.156-.53.969-.282 2.672-.282 2.562 0 2.562.969 0 .296-1.375 6.468-1.36 6.157-1.36 7.438 0 1.281.267 1.281.406 0 .828-.422.437-.437.672-.844l.234-.437q2.125-3.5 3.828-6.938 1.703-3.453 2.5-5.078.797-1.64 1.406-2.078.86-.5 2.188-.5 1.344 0 1.344.406v.063q0 .234-1.766 2.797-1.766 2.562-4.688 7.219-2.921 4.656-5.078 8.875-.937 2.171-.937 3.468 0 .407-.156.61-.141.187-1.032.375-.875.187-1.812.187h-1.063q-.375 0-.906-.172-.922-.265-.922-.828zm16.293 1.531q-1.766 0-2.266-.125-.5-.109-.859-.203-.344-.078-.453-.11-.094-.03-.297-.03-.39 0-.719.203-1.172.969-3.078.969-1 0-1-.454 0-.453 2.313-4.453 2.328-4 5.14-8.89 2.813-4.907 3.625-6.735.828-1.828.828-3.172v-.265q0-.969 5.563-.969 8.266 0 8.266 5.64 0 4.063-2.766 8.97-1.438 2.562-3.375 4.703-1.922 2.125-4.813 3.53-2.875 1.391-6.109 1.391zm10.969-11.406q1.234-2.39 1.875-4.469.656-2.093.656-3.5 0-1.421-.828-2.156-.813-.734-2.75-.734-1.328 0-2.125.937-2.094 2.625-6.063 9.72-3.968 7.077-3.968 8.28 0 1.328 2.828 1.328 2 0 4.031-1.39 2.031-1.406 3.563-3.516 1.546-2.125 2.78-4.5zm10.788 2.235q-.234 0-.296-.297 0-.563.796-1.297.797-.735 1.282-.922.484-.203 3.218-.281l.47-.532q10.124-11.687 14.062-11.687.328-.047.765-.047 2.297 0 2.297 1.11 0 .203-.422 1.062l-1.5 3q-1.078 2.125-2.078 4.328-5.39 11.906-6.265 15.61 0 .265-.688.265-.672 0-1.64-.75-.97-.75-.97-1.328 0-1.031 1.626-3.89 1.64-2.876 1.64-3.735 0-1.172-4.53-1.172-.657 0-2.063.063l-1.266 1.671q-2.328 3.141-4.469 7.766-.36.828-2.234.828-1.86 0-1.86-.531 0-.36 2.079-3.203 2.078-2.86 4.953-6.328-.5.078-1.266.14-.766.063-1.187.11-.422.047-.454.047zm13.829-4.282q1.312-1.578 1.953-3.172.656-1.609.656-2.171 0-.563-.563-.563-1 0-3.312 2.125-2.297 2.11-5 5.266l3.64.078q1.329 0 2.626-1.563zm21.467 12.89q-.468 0-.828-.437-.343-.437-.437-.859l-.094-.437q-.11-.375-.5-.375-.375 0-.672.234-3.125 2.469-5.828 2.469-3.469 0-3.469-4.625 0-1.64.844-4.063.86-2.437 2.453-5.078 1.594-2.656 3.61-4.969 2.03-2.328 4.671-3.828 2.657-1.5 5.282-1.5 1.437 0 2.343.5.125.063.282.063.172 0 .343-.094.829-.563 2.125-.563 1.313 0 1.313.625 0 .797-1.672 3.172-2.594 3.703-4.266 3.703-.437 0-.593-.062-.14-.078-.14-.266 0-.203.202-.672.672-1.406.672-2.312 0-.922-.36-1.406-.343-.485-1.452-.485-2 0-4.75 3.016t-4.72 6.969q-1.952 3.953-1.952 6.515 0 2.157 1.797 2.157 1.406 0 3.187-1.422 1.781-1.438 2.922-3.078 1.156-1.657 1.156-2.375 0-.72-.703-1-.703-.282-2.703-.282-.39 0-.39-.297 0-.578.64-1.171.656-.594 1.25-.672 2.406-.157 5.047-.157 2.656 0 2.656.47 0 .39-.453 1.234-.438.828-.734 1.343-.282.516-.829 1.438-.546.906-.89 1.437-.328.532-1.016 1.625-.672 1.078-1.078 1.75-.39.657-.984 1.766-.578 1.094-.844 1.547-.266.453-.438.453zm28.46-18.17q0 1.874-.75 4.28-.75 2.39-2.22 4.89-1.453 2.5-3.375 4.626-1.921 2.11-4.546 3.469-2.61 1.343-5.391 1.343t-4.375-1.546q-1.594-1.563-1.594-4.297 0-1.86.735-4.25.75-2.407 2.218-4.907 1.47-2.5 3.375-4.593 1.922-2.11 4.532-3.453 2.625-1.36 5.406-1.36 2.797 0 4.39 1.531 1.594 1.532 1.594 4.266zm-3.923-.298q0-3.672-2.672-3.672-2.234 0-4.984 2.844-2.75 2.828-4.672 6.844-1.906 4.015-1.906 7.187 0 3.657 2.672 3.657 2.187 0 4.953-2.829 2.766-2.828 4.687-6.843 1.922-4.016 1.922-7.188zm23.986.297q0 1.875-.75 4.281-.75 2.39-2.219 4.89-1.453 2.5-3.375 4.626-1.922 2.11-4.547 3.469-2.61 1.343-5.39 1.343-2.782 0-4.376-1.546-1.593-1.563-1.593-4.297 0-1.86.734-4.25.75-2.407 2.219-4.907 1.469-2.5 3.375-4.593 1.922-2.11 4.531-3.453 2.625-1.36 5.406-1.36 2.797 0 4.391 1.531 1.594 1.532 1.594 4.266zm-3.922-.297q0-3.672-2.672-3.672-2.234 0-4.984 2.844-2.75 2.828-4.672 6.844-1.907 4.015-1.907 7.187 0 3.657 2.672 3.657 2.188 0 4.953-2.829 2.766-2.828 4.688-6.843 1.922-4.016 1.922-7.188zm6.829 19.031q-1.766 0-2.266-.125-.5-.109-.859-.203-.344-.078-.453-.11-.094-.03-.297-.03-.39 0-.719.203-1.172.969-3.078.969-1 0-1-.454 0-.453 2.313-4.453 2.328-4 5.14-8.89 2.813-4.907 3.625-6.735.828-1.828.828-3.172v-.265q0-.969 5.563-.969 8.265 0 8.265 5.64 0 4.063-2.765 8.97-1.438 2.562-3.375 4.703-1.922 2.125-4.813 3.53-2.875 1.391-6.109 1.391zm10.969-11.406q1.234-2.39 1.875-4.469.656-2.093.656-3.5 0-1.421-.828-2.156-.813-.734-2.75-.734-1.328 0-2.125.937-2.094 2.625-6.063 9.72-3.968 7.077-3.968 8.28 0 1.328 2.828 1.328 2 0 4.031-1.39 2.031-1.406 3.562-3.516 1.547-2.125 2.782-4.5zm14.96 11.406q-1.765 0-2.265-.125-.5-.109-.86-.203-.344-.078-.453-.11-.094-.03-.297-.03-.39 0-.719.203-1.171.969-3.078.969-1 0-1-.454 0-.453 2.313-4.453 2.328-4 5.14-8.89 2.813-4.907 3.625-6.735.829-1.828.829-3.172v-.265q0-.969 5.562-.969 8.266 0 8.266 5.64 0 4.063-2.766 8.97-1.437 2.562-3.375 4.703-1.922 2.125-4.812 3.53-2.875 1.391-6.11 1.391zm10.969-11.406q1.234-2.39 1.875-4.469.656-2.093.656-3.5 0-1.421-.828-2.156-.812-.734-2.75-.734-1.328 0-2.125.937-2.094 2.625-6.062 9.72-3.97 7.077-3.97 8.28 0 1.328 2.829 1.328 2 0 4.031-1.39 2.031-1.406 3.563-3.516 1.547-2.125 2.78-4.5zm4.79 2.235q-.235 0-.297-.297 0-.563.796-1.297.797-.735 1.282-.922.484-.203 3.218-.281l.47-.532q10.124-11.687 14.062-11.687.328-.047.765-.047 2.297 0 2.297 1.11 0 .203-.422 1.062l-1.5 3q-1.078 2.125-2.078 4.328-5.39 11.906-6.265 15.61 0 .265-.688.265-.672 0-1.64-.75-.97-.75-.97-1.328 0-1.031 1.626-3.89 1.64-2.876 1.64-3.735 0-1.172-4.53-1.172-.657 0-2.063.063l-1.266 1.671q-2.328 3.141-4.469 7.766-.36.828-2.234.828-1.86 0-1.86-.531 0-.36 2.079-3.203 2.078-2.86 4.953-6.328-.5.078-1.266.14-.766.063-1.187.11-.422.047-.454.047zm13.828-4.282q1.312-1.578 1.953-3.172.656-1.609.656-2.171 0-.563-.563-.563-1 0-3.312 2.125-2.297 2.11-5 5.266l3.64.078q1.329 0 2.626-1.563zm9.979-4.437-.047-3.531q0-1.407-.203-1.797-.188-.407-.188-.672 0-.672 2.61-.672 2.625 0 2.625 1.234 0 .828-.563 4.016-.547 3.187-.578 4.375-.031 1.172.64 1.172.391 0 .891-.438 2.032-1.797 4.563-4.547 2.547-2.75 3.375-3.828.828-1.078 1.406-1.312 1.188-.469 2.86-.531h.562q1.906 0 1.906.593 0 .328-.562.672-2.14 1.235-7.36 5.594-5.218 4.36-7.609 6.937-.969 1.032-3.266 5.313t-3.14 4.844q-.766.672-2.266.672t-1.5-.563v-.11q0-.234 1.11-2.062 3.562-5.828 4-7.328.734-2.406.734-8.031zM466.851 408.694q-.469 0-.828-.438-.344-.437-.438-.859l-.093-.437q-.11-.375-.5-.375-.375 0-.672.234-3.125 2.469-5.828 2.469-3.47 0-3.47-4.625 0-1.64.845-4.063.859-2.437 2.453-5.078 1.594-2.656 3.61-4.969 2.03-2.328 4.671-3.828 2.656-1.5 5.281-1.5 1.438 0 2.344.5.125.063.281.063.172 0 .344-.094.828-.563 2.125-.563 1.313 0 1.313.625 0 .797-1.672 3.172-2.594 3.703-4.266 3.703-.438 0-.594-.062-.14-.078-.14-.266 0-.203.203-.672.672-1.406.672-2.312 0-.922-.36-1.406-.344-.485-1.453-.485-2 0-4.75 3.016t-4.719 6.969q-1.953 3.953-1.953 6.515 0 2.157 1.797 2.157 1.406 0 3.188-1.422 1.78-1.438 2.921-3.078 1.157-1.657 1.157-2.375 0-.72-.703-1-.704-.282-2.704-.282-.39 0-.39-.297 0-.578.64-1.171.657-.594 1.25-.672 2.407-.157 5.047-.157 2.657 0 2.657.47 0 .39-.454 1.234-.437.828-.734 1.343-.281.516-.828 1.438-.547.906-.89 1.437-.329.532-1.016 1.625-.672 1.078-1.078 1.75-.391.657-.985 1.766-.578 1.094-.844 1.547-.265.453-.437.453zm11.302.562q-1.765 0-2.265-.125-.5-.109-.86-.203-.343-.078-.453-.11-.093-.03-.297-.03-.39 0-.718.203-1.172.969-3.078.969-1 0-1-.454 0-.453 2.312-4.453 2.328-4 5.14-8.89 2.813-4.907 3.626-6.735.828-1.828.828-3.172v-.265q0-.969 5.562-.969 8.266 0 8.266 5.64 0 4.063-2.766 8.97-1.437 2.562-3.375 4.703-1.922 2.125-4.812 3.53-2.875 1.391-6.11 1.391zm10.97-11.406q1.234-2.39 1.874-4.469.656-2.093.656-3.5 0-1.421-.828-2.156-.812-.734-2.75-.734-1.328 0-2.125.937-2.093 2.625-6.062 9.72-3.969 7.077-3.969 8.28 0 1.328 2.828 1.328 2 0 4.031-1.39 2.032-1.406 3.563-3.516 1.547-2.125 2.781-4.5zm4.789 2.235q-.235 0-.297-.297 0-.563.797-1.297.797-.735 1.281-.922.484-.203 3.219-.281l.469-.532q10.125-11.687 14.062-11.687.328-.047.766-.047 2.297 0 2.297 1.11 0 .203-.422 1.062l-1.5 3q-1.078 2.125-2.078 4.328-5.391 11.906-6.266 15.61 0 .265-.688.265-.671 0-1.64-.75-.969-.75-.969-1.328 0-1.031 1.625-3.89 1.64-2.876 1.64-3.735 0-1.172-4.53-1.172-.657 0-2.063.063l-1.266 1.671q-2.328 3.141-4.468 7.766-.36.828-2.235.828-1.86 0-1.86-.531 0-.36 2.079-3.203 2.078-2.86 4.953-6.328-.5.078-1.266.14-.765.063-1.187.11-.422.047-.453.047zm13.828-4.282q1.312-1.578 1.953-3.172.656-1.609.656-2.171 0-.563-.562-.563-1 0-3.313 2.125-2.297 2.11-5 5.266l3.64.078q1.329 0 2.626-1.563zm13.57 5.25.031-.734q0-.656-.531-.656-.438 0-1.094.53-1.906 1.673-4.016 3.892-2.093 2.203-2.78 3.14-.673.938-.892 1.156-.218.204-1.187.563-.969.375-2.25.375-1.281 0-1.281-.39 0-.844 13.093-11.907 1.172-.922 1.235-2.422.14-2.469.14-3.672 0-3.375-.562-5.062l-.172-.5q0-.578 2.469-.578 1.203 0 1.703.39.5.375.5 1.422 0 1.031-.234 4.36 0 .906.625.906.343 0 .765-.375 4.406-3.89 5.188-4.89.781-1 1.281-1.235 1-.406 2.797-.469h.578q1.625 0 1.625.531 0 .297-.469.563-4.234 2.406-11.156 8.062-.172.11-.422.297-.25.172-.687.875-.422.703-.5 1.531-.235 4.204-.235 6.938 0 3.125.469 4.062.14.266.14.438 0 .5-1.015.719-1.016.218-1.953.218-.938 0-1.203-.406-.266-.406-.266-1.64 0-1.235.266-6.032zm17.897 0 .031-.734q0-.656-.531-.656-.438 0-1.094.53-1.906 1.673-4.015 3.892-2.094 2.203-2.782 3.14-.672.938-.89 1.156-.219.204-1.188.563-.969.375-2.25.375-1.281 0-1.281-.39 0-.844 13.094-11.907 1.172-.922 1.234-2.422.14-2.469.14-3.672 0-3.375-.562-5.062l-.172-.5q0-.578 2.47-.578 1.202 0 1.702.39.5.375.5 1.422 0 1.031-.234 4.36 0 .906.625.906.344 0 .765-.375 4.407-3.89 5.188-4.89.781-1 1.281-1.235 1-.406 2.797-.469h.578q1.625 0 1.625.531 0 .297-.469.563-4.234 2.406-11.156 8.062-.172.11-.422.297-.25.172-.687.875-.422.703-.5 1.531-.235 4.204-.235 6.938 0 3.125.47 4.062.14.266.14.438 0 .5-1.016.719-1.015.218-1.953.218-.937 0-1.203-.406t-.266-1.64q0-1.235.266-6.032zm35.597-14.625v-.437q0-.86 3.563-.86 1.797 0 1.797.657 0 .265-.266.547-1.266 1.718-5.39 8.765l4.124.031q1.375 0 2.5-1.109.563-.594 1.016-1.11.453-.515 1.016-1.484.578-.968.906-1.53.469-.845 1.625-3.204 0-.172.25-.422t.594-.422q.36-.187 1.093-.312.735-.14 1.735-.14t1 .437q0 .187-.156.437-.141.25-1.735 2.688-1.578 2.437-3.187 5.062-1.594 2.61-3.375 5.672-1.782 3.062-2.907 5.594-1.109 2.53-1.109 3.703-.203.562-.828.562-1.828 0-2.531-.297-.703-.296-.703-.906 0-1.031 2.218-4.828 2.22-3.797 2.22-4.61 0-.812-.673-1.218-.672-.406-2.234-.406-1.563 0-2.172.03-1.125 1.845-2.594 4.72-1.469 2.86-2.469 4.687-1 1.828-1.593 2.297-1.235.938-3.032.938-1.03 0-1.03-.532 0-.297.874-1.78.89-1.485 2.844-4.673 1.969-3.187 3.406-5.578l-2.031.094q-.5 0-.5-.266 0-.562.719-1.125.718-.578 1.172-.734.468-.172 1.937-.235 1.234-2.109 3.172-5.843.734-1.594.734-2.86zm13.594-.062-.03-.735q0-.906 3.093-.906 1.937 0 1.937.969 0 .172-.062.234-.235 1.297-2.64 8.297-2.391 7-2.391 7.719 0 .719.656.719.5 0 .765-.266l1.172-1.172q.703-.703 3.828-5.047 3.141-4.343 5.032-7.515.64-1.266 4.203-1.266.906 0 .906.563l-.234.64q-1 2.031-2.703 7.172-1.704 5.125-1.704 6.016 0 .875.672.875.5 0 .766-.266l.937-.937q1.235-1.235 5.407-7.047 4.187-5.813 5.656-8.688.36-.734.828-.969.844-.39 2.938-.468h.671q1.735 0 1.735.578 0 .234-.313.531-3.265 3.094-9.578 10.516-6.312 7.406-8.578 10.718-.469.688-.734 1-.266.297-.875.688-1.125.734-3.953.734-1.641 0-1.641-.797l.11-.359q.187-.64.718-2.14.547-1.5.906-2.532.375-1.031.797-2.265.844-2.5.844-3.063 0-.578-.5-.578-.547 0-1.203.812-2.64 3.125-6.406 8.5-.625.891-1 1.282-.36.375-1.532.75-1.172.39-2.922.39-1.734 0-1.734-.797l.094-.359q1.172-3.375 3.11-9.703 1.952-6.328 2.655-9.297.297-1.703.297-2.531zm19.729 13.719q-.235 0-.297-.297 0-.563.797-1.297.797-.735 1.28-.922.485-.203 3.22-.281l.468-.532q10.125-11.687 14.063-11.687.328-.047.766-.047 2.296 0 2.296 1.11 0 .203-.421 1.062l-1.5 3q-1.079 2.125-2.079 4.328-5.39 11.906-6.265 15.61 0 .265-.688.265-.672 0-1.64-.75-.97-.75-.97-1.328 0-1.031 1.626-3.89 1.64-2.876 1.64-3.735 0-1.172-4.53-1.172-.657 0-2.063.063l-1.266 1.671q-2.328 3.141-4.469 7.766-.359.828-2.234.828-1.86 0-1.86-.531 0-.36 2.079-3.203 2.078-2.86 4.953-6.328-.5.078-1.266.14-.765.063-1.187.11-.422.047-.453.047zm13.828-4.282q1.312-1.578 1.953-3.172.656-1.609.656-2.171 0-.563-.562-.563-1 0-3.313 2.125-2.297 2.11-5 5.266l3.64.078q1.329 0 2.626-1.563zm26.797-5.28q0 1.874-.75 4.28-.75 2.39-2.219 4.89-1.453 2.5-3.375 4.626-1.922 2.11-4.547 3.469-2.61 1.343-5.39 1.343-2.782 0-4.375-1.546-1.594-1.563-1.594-4.297 0-1.86.734-4.25.75-2.407 2.219-4.907 1.469-2.5 3.375-4.593 1.922-2.11 4.531-3.453 2.625-1.36 5.406-1.36 2.797 0 4.391 1.531 1.594 1.532 1.594 4.266zm-3.922-.298q0-3.672-2.672-3.672-2.234 0-4.984 2.844-2.75 2.828-4.672 6.844-1.906 4.015-1.906 7.187 0 3.657 2.671 3.657 2.188 0 4.954-2.829 2.765-2.828 4.687-6.843 1.922-4.016 1.922-7.188zm5.5 1.14-.046-3.53q0-1.407-.203-1.797-.188-.407-.188-.672 0-.672 2.61-.672 2.625 0 2.625 1.234 0 .828-.563 4.016-.547 3.187-.578 4.375-.031 1.172.64 1.172.391 0 .891-.438 2.032-1.797 4.563-4.547 2.547-2.75 3.375-3.828.828-1.078 1.406-1.312 1.188-.469 2.86-.531h.562q1.906 0 1.906.593 0 .328-.562.672-2.14 1.235-7.36 5.594-5.218 4.36-7.609 6.937-.969 1.032-3.266 5.313-2.296 4.281-3.14 4.844-.766.672-2.266.672t-1.5-.563v-.11q0-.234 1.11-2.062 3.562-5.828 4-7.328.734-2.406.734-8.031zm21.752 17.36-.468-.031q-.454 0-.688.297-1.14.969-3.078.969-1 0-1-.438v-.094q0-.375 2.312-4.36 2.329-3.983 5.141-8.874 2.813-4.906 3.625-6.734.828-1.829.828-3.032v-.437q0-.86 3.563-.86 1.797 0 1.797.657 0 .265-.266.547-2.656 4.328-7.063 12.359l-.468.828q-.47.844-.672 1.188-.188.343-.61 1.203-.421.843-.609 1.375-.578 1.5-.578 2.343 0 1.22 2.203 1.22h.234q1.36 0 3-.563 3.204-1.125 5.204-4.328.125-.297.734-.297.625 0 .625.53 0 .798-1.063 2.876-1.062 2.062-1.937 3.062-.422.594-1.656.594-1.235.063-5.344.063l-3.766-.063zm29.165-1.234.063 1q0 .531-1.594.531-2.797 0-2.797-1.062 0-1.063 1.485-4.594 1.484-3.547 1.484-4.406 0-1.766-2.172-1.766l-.531.031q-.406 0-.406-.297 0-.64.484-1.28.484-.657 1.219-.657 3.03 0 5.422-1.797 2.406-1.797 2.406-3.797 0-1.437-.89-2-.876-.562-2.407-.562-1.531 0-2.328.921-1.969 2.47-6.328 10.329-4.344 7.843-4.875 9.64-.297.828-1.547 1.219-1.25.406-2.438.406-1.172 0-1.172-.453v-.078q0-.36 2.297-4.25 2.297-3.906 5.078-8.688 2.782-4.78 3.594-6.609.828-1.844.828-3.11v-.327q0-.907 5.063-.907 5.437 0 7.156 1.094.734.469 1.25 1.375.516.89.516 2.297 0 1.406-1.14 2.844-1.126 1.422-2.407 2.11-1.281.67-2.547.983-1.266.297-1.906.5-.625.188-.625.625 0 .266.484.657.484.375.984.922.5.53.5 1.125 0 .593-1.109 3.453-1.094 2.843-1.094 4.578zm9.703 1.765q-1.766 0-2.266-.125-.5-.109-.86-.203-.343-.078-.452-.11-.094-.03-.297-.03-.391 0-.72.203-1.171.969-3.077.969-1 0-1-.454 0-.453 2.312-4.453 2.328-4 5.14-8.89 2.813-4.907 3.626-6.735.828-1.828.828-3.172v-.265q0-.969 5.563-.969 8.265 0 8.265 5.64 0 4.063-2.765 8.97-1.438 2.562-3.375 4.703-1.922 2.125-4.813 3.53-2.875 1.391-6.11 1.391zm10.968-11.406q1.235-2.39 1.875-4.469.657-2.093.657-3.5 0-1.421-.828-2.156-.813-.734-2.75-.734-1.329 0-2.125.937-2.094 2.625-6.063 9.72-3.969 7.077-3.969 8.28 0 1.328 2.828 1.328 2 0 4.032-1.39 2.03-1.406 3.562-3.516 1.547-2.125 2.781-4.5zm8.962 11.406q-1.766 0-2.266-.125-.5-.109-.86-.203-.343-.078-.452-.11-.094-.03-.297-.03-.39 0-.719.203-1.172.969-3.078.969-1 0-1-.454 0-.453 2.312-4.453 2.329-4 5.141-8.89 2.813-4.907 3.625-6.735.828-1.828.828-3.172v-.265q0-.969 5.563-.969 8.265 0 8.265 5.64 0 4.063-2.765 8.97-1.438 2.562-3.375 4.703-1.922 2.125-4.813 3.53-2.875 1.391-6.11 1.391zm10.969-11.406q1.234-2.39 1.875-4.469.656-2.093.656-3.5 0-1.421-.828-2.156-.813-.734-2.75-.734-1.328 0-2.125.937-2.094 2.625-6.063 9.72-3.969 7.077-3.969 8.28 0 1.328 2.829 1.328 2 0 4.03-1.39 2.032-1.406 3.563-3.516 1.547-2.125 2.782-4.5zm11.39 3.203.031-.734q0-.656-.53-.656-.438 0-1.095.53-1.906 1.673-4.015 3.892-2.094 2.203-2.781 3.14-.672.938-.891 1.156-.219.204-1.188.563-.968.375-2.25.375-1.28 0-1.28-.39 0-.844 13.093-11.907 1.172-.922 1.234-2.422.14-2.469.14-3.672 0-3.375-.562-5.062l-.171-.5q0-.578 2.468-.578 1.203 0 1.703.39.5.375.5 1.422 0 1.031-.234 4.36 0 .906.625.906.344 0 .766-.375 4.406-3.89 5.187-4.89.781-1 1.281-1.235 1-.406 2.797-.469h.578q1.625 0 1.625.531 0 .297-.468.563-4.235 2.406-11.157 8.062-.171.11-.421.297-.25.172-.688.875-.422.703-.5 1.531-.234 4.204-.234 6.938 0 3.125.468 4.062.141.266.141.438 0 .5-1.016.719-1.015.218-1.953.218-.937 0-1.203-.406-.265-.406-.265-1.64 0-1.235.265-6.032z"/><defs><radialGradient id="b" gradientUnits="userSpaceOnUse" gradientTransform="scale(8.32987)" spreadMethod="pad" cx="47.211" cy="44.89" fx="47.211" fy="44.89" r="8.33"><stop offset="0" stop-color="#dcecd5"/><stop offset="1" stop-color="#93bc81"/></radialGradient></defs><path fill="url(#b)" d="M327.323 363.127H437.59v-10.803l21.606 21.606-21.606 21.607v-10.803H327.323z" fill-rule="evenodd"/><path stroke="#38761d" stroke-linejoin="round" stroke-linecap="butt" d="M327.323 363.127H437.59v-10.803l21.606 21.606-21.606 21.607v-10.803H327.323z"/><path fill="#d0e0e3" d="M606.252 46.203h176.756v216.724H606.252z" fill-rule="evenodd"/><path stroke="#45818e" stroke-width="4" stroke-linejoin="round" stroke-linecap="butt" d="M606.252 46.203h176.756v216.724H606.252z"/><path fill="none" d="M629.163 59.357h246.614v104.756H629.163z"/><path fill="#000" d="M649.194 77.5v-.39q0-.797 3.281-.797 1.656 0 1.656.609 0 .25-.234.484-1.172 1.594-4.969 8.063l3.797.031q1.25 0 2.297-1.016.516-.546.922-1.015.422-.485.938-1.36.53-.89.843-1.421.422-.766 1.5-2.938 0-.156.219-.375.234-.234.563-.406.328-.172 1-.297.671-.125 1.593-.125.922 0 .922.406 0 .188-.14.422-.141.219-1.594 2.453-1.453 2.235-2.938 4.656-1.469 2.407-3.11 5.235-1.64 2.812-2.671 5.14-1.016 2.329-1.016 3.391-.187.531-.765.531-1.688 0-2.344-.28-.64-.282-.64-.829 0-.953 2.03-4.438 2.048-3.5 2.048-4.25t-.61-1.109q-.61-.375-2.062-.375-1.438 0-1.985.031-1.047 1.688-2.39 4.328-1.344 2.625-2.266 4.313-.922 1.687-1.469 2.11-1.14.859-2.797.859-.953 0-.953-.485 0-.28.813-1.64.812-1.36 2.625-4.282 1.812-2.937 3.125-5.14l-1.86.094q-.468 0-.468-.25 0-.532.656-1.047.672-.516 1.094-.672.421-.156 1.78-.219 1.126-1.922 2.907-5.36.672-1.468.672-2.64zm20.08 10.188-2.593-.094q-1.938 0-2.985 1.25-.734.922-1.953 3.015-1.203 2.079-1.203 3.297 0 1.141 2.234 1.141 1.39 0 2.953-.516 3.157-1.047 5-4 .204-.265.72-.265.53 0 .53.593 0 .594-.984 2.5-.984 1.907-1.75 2.844-.39.5-1.547.563-1.14.062-3.5.062h-3.015l-1.75-.031-.813-.063h-.219q-.187 0-.468.266-1 .89-2.875.89-.891 0-.891-.39v-.094q0-.343 2.125-4 2.14-3.672 4.734-8.172 2.61-4.5 3.344-6.171.734-1.672.734-2.875v-.329q0-.53 6.532-.53 2.156 0 3.75.062.453-.516 2.36-.516.796 0 .796.39 0 .704-1.406 2.844-1.39 2.125-2.422 2.891-.344.281-.875.281-.516 0-.516-.218 0-.094.094-.25.5-.938.5-2.141 0-1.688-2.344-1.688-1.406 0-2.219.735-.812.734-1.609 2.062-.797 1.313-1.187 2.266-.375.953-.375 1.187 0 .75.718.922.72.157 2.875.157l2.266-.094q.297 0 .297.234 0 .235-.328.766-.313.531-.64.75-.673.469-2.095.469zm6.595 10.328-.422-.032q-.437 0-.656.266-1.031.89-2.813.89-.921 0-.921-.39v-.094q0-.343 2.125-4 2.14-3.672 4.718-8.172 2.594-4.5 3.344-6.187.75-1.688.75-2.797v-.39q0-.797 3.281-.797 1.657 0 1.657.609 0 .25-.235.484-2.453 3.985-6.5 11.375l-.437.766q-.422.766-.61 1.094-.187.312-.578 1.11-.375.78-.562 1.265-.516 1.375-.516 2.14 0 1.141 2.031 1.141h.203q1.266 0 2.766-.516 2.938-1.047 4.781-4 .125-.265.688-.265.562 0 .562.484 0 .734-.984 2.64-.969 1.907-1.766 2.813-.406.563-1.53.563-1.142.062-4.907.062l-3.469-.062zm16.033 0-.422-.032q-.437 0-.656.266-1.031.89-2.812.89-.922 0-.922-.39v-.094q0-.343 2.125-4 2.14-3.672 4.719-8.172 2.593-4.5 3.343-6.187.75-1.688.75-2.797v-.39q0-.797 3.282-.797 1.656 0 1.656.609 0 .25-.235.484-2.453 3.985-6.5 11.375l-.437.766q-.422.766-.61 1.094-.187.312-.578 1.11-.375.78-.562 1.265-.516 1.375-.516 2.14 0 1.141 2.032 1.141h.203q1.265 0 2.765-.516 2.938-1.047 4.782-4 .125-.265.687-.265.563 0 .563.484 0 .734-.985 2.64-.969 1.907-1.765 2.813-.407.563-1.532.563-1.14.062-4.906.062l-3.469-.062zm33.76-16.75q0 1.718-.704 3.937-.687 2.203-2.03 4.5-1.345 2.297-3.11 4.25-1.766 1.938-4.172 3.188-2.406 1.234-4.969 1.234-2.562 0-4.031-1.422-1.469-1.422-1.469-3.937 0-1.719.688-3.922.687-2.203 2.03-4.5 1.36-2.313 3.126-4.235 1.766-1.937 4.172-3.171 2.406-1.25 4.953-1.25 2.562 0 4.031 1.421 1.485 1.407 1.485 3.907zM722.037 81q0-3.375-2.454-3.375-2.046 0-4.578 2.61-2.531 2.609-4.297 6.296-1.765 3.688-1.765 6.61 0 3.375 2.453 3.375 2.031 0 4.562-2.61 2.547-2.609 4.313-6.297 1.766-3.703 1.766-6.609zM644.881 114.238l-.03-.672q0-.828 2.843-.828 1.781 0 1.781.89 0 .156-.062.219-.219 1.187-2.422 7.625-2.203 6.437-2.203 7.11 0 .656.61.656.452 0 .702-.25l1.078-1.079q.641-.64 3.516-4.64 2.89-4 4.64-6.906.579-1.172 3.86-1.172.828 0 .828.515l-.219.594q-.922 1.86-2.484 6.594-1.563 4.719-1.563 5.531 0 .813.61.813.469 0 .719-.25.421-.438.843-.86 1.141-1.14 4.985-6.484 3.86-5.344 5.203-7.985.328-.671.765-.89.766-.36 2.704-.422h.609q1.594 0 1.594.516 0 .218-.282.484-3 2.86-8.812 9.687-5.813 6.813-7.89 9.844-.438.64-.688.922-.235.281-.781.64-1.047.673-3.657.673-1.5 0-1.5-.735l.094-.328q.188-.594.672-1.969.5-1.375.828-2.328.344-.953.734-2.078.766-2.312.766-2.828t-.453-.516q-.5 0-1.11.735-2.421 2.875-5.874 7.812-.594.828-.938 1.188-.328.343-1.406.687-1.063.36-2.672.36-1.61 0-1.61-.735l.094-.328q1.063-3.094 2.86-8.922 1.797-5.828 2.437-8.562.281-1.563.281-2.328zm41.112 3.828q0 1.718-.703 3.937-.687 2.203-2.031 4.5t-3.11 4.25q-1.765 1.938-4.171 3.188-2.407 1.234-4.97 1.234-2.562 0-4.03-1.422-1.47-1.422-1.47-3.937 0-1.72.688-3.922.688-2.203 2.032-4.5 1.36-2.313 3.125-4.235 1.765-1.937 4.172-3.171 2.406-1.25 4.953-1.25 2.562 0 4.03 1.421 1.485 1.407 1.485 3.907zm-3.625-.266q0-3.375-2.453-3.375-2.047 0-4.578 2.61-2.531 2.609-4.297 6.296-1.765 3.688-1.765 6.61 0 3.375 2.453 3.375 2.03 0 4.562-2.61 2.547-2.61 4.313-6.297 1.765-3.703 1.765-6.609zm13.955 15.875.063.922q0 .484-1.484.484-2.563 0-2.563-.968 0-.985 1.36-4.235 1.359-3.25 1.359-4.047 0-1.625-1.985-1.625l-.5.032q-.359 0-.359-.282 0-.578.438-1.172.453-.609 1.125-.609 2.78 0 4.984-1.656 2.219-1.656 2.219-3.485 0-1.328-.813-1.843-.812-.516-2.234-.516-1.406 0-2.14.86-1.798 2.265-5.813 9.484-4 7.219-4.485 8.875-.281.765-1.437 1.125-1.14.375-2.235.375-1.078 0-1.078-.422v-.063q0-.343 2.11-3.921 2.125-3.594 4.672-7.985 2.562-4.406 3.312-6.094.766-1.687.766-2.859v-.297q0-.828 4.656-.828 5 0 6.594 1.016.672.422 1.14 1.25.485.828.485 2.125 0 1.28-1.047 2.61-1.047 1.312-2.235 1.937-1.171.625-2.343.906-1.157.265-1.75.453-.578.187-.578.578 0 .25.437.61.453.343.906.843.469.485.469 1.047 0 .547-1.016 3.172-1 2.61-1 4.203zm5.789 1.14-.422-.03q-.438 0-.657.265-1.03.89-2.812.89-.922 0-.922-.39v-.094q0-.343 2.125-4 2.14-3.672 4.719-8.172 2.594-4.5 3.344-6.187.75-1.688.75-2.797v-.39q0-.797 3.28-.797 1.657 0 1.657.609 0 .25-.234.484-2.453 3.985-6.5 11.375l-.438.766q-.422.766-.61 1.094-.187.312-.577 1.11-.375.78-.563 1.265-.515 1.375-.515 2.14 0 1.14 2.03 1.14h.204q1.266 0 2.766-.515 2.937-1.047 4.78-4 .126-.265.688-.265.563 0 .563.484 0 .734-.985 2.64-.968 1.907-1.765 2.813-.406.563-1.531.563-1.141.062-4.907.062l-3.468-.062zm19.158.485q-1.625 0-2.094-.11l-.781-.187q-.313-.062-.406-.094-.094-.03-.266-.03-.375 0-.688.171-1.062.89-2.812.89-.922 0-.922-.421 0-.406 2.125-4.078 2.14-3.688 4.719-8.188 2.594-4.5 3.344-6.187.75-1.688.75-2.922v-.235q0-.89 5.125-.89 7.609 0 7.609 5.172 0 3.75-2.547 8.25-1.312 2.36-3.094 4.328-1.78 1.953-4.437 3.25-2.656 1.281-5.625 1.281zm10.078-10.5q1.14-2.187 1.734-4.094.61-1.922.61-3.218 0-1.313-.75-1.985-.75-.672-2.532-.672-1.234 0-1.968.844-1.922 2.422-5.578 8.938-3.641 6.515-3.641 7.625 0 1.218 2.61 1.218 1.827 0 3.702-1.28 1.875-1.282 3.282-3.235 1.406-1.953 2.531-4.14zM641.444 163.678q-.219 0-.281-.281 0-.516.734-1.188.734-.687 1.172-.859.453-.187 2.969-.25l.437-.5q9.313-10.75 12.938-10.75.297-.031.703-.031 2.11 0 2.11 1 0 .187-.391.984l-1.391 2.766q-.969 1.953-1.89 3.984-4.97 10.938-5.766 14.344 0 .25-.64.25-.626 0-1.517-.688-.875-.687-.875-1.218 0-.953 1.5-3.578 1.5-2.641 1.5-3.438 0-1.078-4.171-1.078-.61 0-1.907.062l-1.156 1.532q-2.14 2.89-4.11 7.14-.343.766-2.062.766-1.703 0-1.703-.484 0-.344 1.906-2.954 1.922-2.625 4.563-5.812-.469.062-1.172.125-.703.062-1.094.11-.375.046-.406.046zm12.719-3.953q1.203-1.453 1.797-2.922.593-1.469.593-1.984 0-.531-.515-.531-.922 0-3.047 1.953-2.11 1.937-4.594 4.86l3.344.062q1.234 0 2.422-1.438zm10.272 10.969q0-1.344 1-6.828 1-5.5 1-6.063 0-.562-.328-.562t-.875.64q-.547.64-.922 1.25l-.39.64q-2.453 4.017-5.547 10.642-.625 1.359-1.172 1.734-.547.39-1.578.39-1.031 0-1.031-.468v-.094q0-.39 1.562-2.906 5.985-9.594 8.735-15.172.718-1.422.718-2.547v-.5q0-.203.157-.437.171-.235 1.062-.485.89-.265 2.453-.265 2.36 0 2.36.89 0 .266-1.266 5.938-1.25 5.672-1.25 6.86 0 1.187.25 1.187.36 0 .75-.407.406-.406.625-.765l.219-.407q1.953-3.218 3.515-6.39 1.578-3.172 2.313-4.672.734-1.5 1.281-1.89.797-.47 2.016-.47 1.234 0 1.234.376v.062q0 .203-1.625 2.563-1.625 2.359-4.312 6.64-2.672 4.281-4.672 8.172-.86 2-.86 3.188 0 .375-.14.562-.125.172-.938.344-.812.172-1.672.172h-.984q-.344 0-.828-.157-.86-.25-.86-.765zm14.988 1.406q-1.625 0-2.094-.11l-.78-.187q-.313-.062-.407-.094-.094-.03-.266-.03-.375 0-.687.171-1.063.89-2.813.89-.922 0-.922-.421 0-.406 2.125-4.078 2.141-3.688 4.72-8.188 2.593-4.5 3.343-6.187.75-1.688.75-2.922v-.235q0-.89 5.125-.89 7.61 0 7.61 5.172 0 3.75-2.548 8.25-1.312 2.36-3.093 4.328-1.782 1.953-4.438 3.25-2.656 1.281-5.625 1.281zm10.078-10.5q1.14-2.187 1.735-4.094.61-1.922.61-3.218 0-1.313-.75-1.985-.75-.672-2.532-.672-1.235 0-1.969.844-1.922 2.422-5.578 8.938-3.64 6.515-3.64 7.625 0 1.218 2.609 1.218 1.828 0 3.703-1.28 1.875-1.282 3.281-3.235 1.406-1.953 2.531-4.14zm4.427 2.078q-.22 0-.282-.281 0-.516.735-1.188.734-.687 1.172-.859.453-.187 2.968-.25l.438-.5q9.312-10.75 12.937-10.75.297-.031.703-.031 2.11 0 2.11 1 0 .187-.39.984l-1.391 2.766q-.97 1.953-1.891 3.984-4.969 10.938-5.766 14.344 0 .25-.64.25-.625 0-1.516-.688-.875-.687-.875-1.218 0-.953 1.5-3.578 1.5-2.641 1.5-3.438 0-1.078-4.172-1.078-.61 0-1.906.062l-1.156 1.532q-2.141 2.89-4.11 7.14-.343.766-2.062.766-1.703 0-1.703-.484 0-.344 1.906-2.954 1.922-2.625 4.562-5.812-.468.062-1.171.125-.704.062-1.094.11-.375.046-.406.046zm12.718-3.953q1.203-1.453 1.797-2.922.594-1.469.594-1.984 0-.531-.516-.531-.922 0-3.047 1.953-2.109 1.937-4.593 4.86l3.343.062q1.235 0 2.422-1.438zm14.235 11.86q-.438 0-.766-.391-.312-.406-.406-.813l-.094-.39q-.094-.344-.453-.344-.344 0-.625.219-2.875 2.265-5.36 2.265-3.187 0-3.187-4.265 0-1.5.781-3.735.782-2.234 2.25-4.672 1.469-2.437 3.328-4.562 1.86-2.14 4.297-3.516 2.438-1.375 4.86-1.375 1.312 0 2.14.453.125.063.282.063.156 0 .296-.094.766-.515 1.97-.515 1.202 0 1.202.578 0 .734-1.547 2.906-2.39 3.406-3.921 3.406-.391 0-.532-.062-.14-.063-.14-.235 0-.187.187-.625.61-1.28.61-2.125 0-.843-.329-1.28-.312-.454-1.328-.454-1.843 0-4.375 2.781-2.515 2.766-4.328 6.406-1.812 3.625-1.812 5.985 0 2 1.656 2 1.297 0 2.922-1.313 1.64-1.328 2.703-2.843 1.062-1.516 1.062-2.172 0-.672-.656-.922-.64-.266-2.469-.266-.375 0-.375-.281 0-.516.594-1.063.61-.562 1.156-.625 2.204-.14 4.641-.14 2.438 0 2.438.422 0 .375-.422 1.14-.407.766-.672 1.25-.25.47-.766 1.313-.5.844-.812 1.328-.297.484-.938 1.484-.625 1-1 1.61-.36.61-.89 1.625-.532 1.015-.782 1.437-.25.406-.39.406zM661.069 191.666q0 1.718-.703 3.937-.688 2.203-2.031 4.5-1.344 2.297-3.11 4.25-1.765 1.938-4.172 3.188-2.406 1.234-4.968 1.234-2.563 0-4.032-1.422-1.468-1.422-1.468-3.937 0-1.72.687-3.922.688-2.203 2.031-4.5 1.36-2.313 3.125-4.235 1.766-1.937 4.172-3.171 2.406-1.25 4.953-1.25 2.563 0 4.032 1.421 1.484 1.407 1.484 3.907zm-3.625-.266q0-3.375-2.453-3.375-2.047 0-4.578 2.61-2.532 2.609-4.297 6.296-1.766 3.688-1.766 6.61 0 3.375 2.453 3.375 2.032 0 4.563-2.61 2.547-2.61 4.312-6.297 1.766-3.703 1.766-6.609zm22.08.266q0 1.718-.703 3.937-.687 2.203-2.031 4.5t-3.11 4.25q-1.765 1.938-4.171 3.188-2.407 1.234-4.97 1.234-2.562 0-4.03-1.422-1.47-1.422-1.47-3.937 0-1.72.688-3.922.688-2.203 2.032-4.5 1.359-2.313 3.125-4.235 1.765-1.937 4.171-3.171 2.407-1.25 4.954-1.25 2.562 0 4.03 1.421 1.485 1.407 1.485 3.907zm-3.625-.266q0-3.375-2.453-3.375-2.047 0-4.578 2.61-2.531 2.609-4.297 6.296-1.766 3.688-1.766 6.61 0 3.375 2.454 3.375 2.03 0 4.562-2.61 2.547-2.61 4.313-6.297 1.765-3.703 1.765-6.609zm6.283 17.5q-1.625 0-2.093-.11l-.782-.187q-.312-.062-.406-.094-.094-.03-.266-.03-.375 0-.687.171-1.063.89-2.813.89-.921 0-.921-.421 0-.406 2.125-4.078 2.14-3.688 4.718-8.188 2.594-4.5 3.344-6.187.75-1.688.75-2.922v-.235q0-.89 5.125-.89 7.61 0 7.61 5.172 0 3.75-2.547 8.25-1.313 2.36-3.094 4.328-1.781 1.953-4.438 3.25-2.656 1.281-5.625 1.281zm10.078-10.5q1.141-2.187 1.735-4.094.61-1.922.61-3.218 0-1.313-.75-1.985-.75-.672-2.532-.672-1.234 0-1.969.844-1.922 2.422-5.578 8.938-3.64 6.515-3.64 7.625 0 1.218 2.609 1.218 1.828 0 3.703-1.28 1.875-1.282 3.281-3.235 1.406-1.953 2.531-4.14zm8.255 10.5q-1.625 0-2.094-.11l-.781-.187q-.313-.062-.406-.094-.094-.03-.266-.03-.375 0-.688.171-1.062.89-2.812.89-.922 0-.922-.421 0-.406 2.125-4.078 2.14-3.688 4.719-8.188 2.594-4.5 3.344-6.187.75-1.688.75-2.922v-.235q0-.89 5.125-.89 7.609 0 7.609 5.172 0 3.75-2.547 8.25-1.312 2.36-3.094 4.328-1.78 1.953-4.437 3.25-2.656 1.281-5.625 1.281zm10.078-10.5q1.14-2.187 1.734-4.094.61-1.922.61-3.218 0-1.313-.75-1.985-.75-.672-2.532-.672-1.234 0-1.968.844-1.922 2.422-5.578 8.938-3.641 6.515-3.641 7.625 0 1.218 2.61 1.218 1.827 0 3.702-1.28 1.875-1.282 3.282-3.235 1.406-1.953 2.531-4.14zm4.426 2.078q-.219 0-.281-.281 0-.516.734-1.188.735-.687 1.172-.859.453-.187 2.969-.25l.437-.5q9.313-10.75 12.938-10.75.297-.031.703-.031 2.11 0 2.11 1 0 .187-.391.984l-1.39 2.766q-.97 1.953-1.891 3.984-4.97 10.938-5.766 14.344 0 .25-.64.25-.626 0-1.516-.688-.875-.687-.875-1.218 0-.953 1.5-3.578 1.5-2.641 1.5-3.438 0-1.078-4.172-1.078-.61 0-1.906.062l-1.157 1.532q-2.14 2.89-4.11 7.14-.343.766-2.062.766-1.703 0-1.703-.484 0-.344 1.907-2.954 1.921-2.625 4.562-5.812-.469.062-1.172.125-.703.062-1.094.11-.375.046-.406.046zm12.719-3.953q1.203-1.453 1.797-2.922.594-1.469.594-1.984 0-.531-.516-.531-.922 0-3.047 1.953-2.11 1.937-4.594 4.86l3.344.062q1.234 0 2.422-1.438zM644.053 229.247l-.03-3.25q0-1.297-.188-1.656-.188-.375-.188-.625 0-.61 2.406-.61 2.407 0 2.407 1.141 0 .766-.516 3.703-.5 2.922-.531 4.016-.016 1.078.593 1.078.36 0 .829-.406 1.859-1.657 4.187-4.172 2.344-2.532 3.11-3.532.765-1 1.28-1.218 1.11-.422 2.641-.485h.516q1.75 0 1.75.547 0 .313-.516.625-1.968 1.125-6.765 5.14-4.797 4.016-7 6.376-.89.953-3.016 4.89-2.11 3.938-2.875 4.47-.703.609-2.094.609-1.375 0-1.375-.516v-.094q0-.219 1.016-1.906 3.281-5.36 3.687-6.75.672-2.203.672-7.375zm16.305 8.906.031-.672q0-.609-.484-.609-.406 0-1.016.484-1.75 1.547-3.687 3.594-1.922 2.031-2.563 2.89-.625.844-.828 1.048-.187.203-1.078.53-.89.345-2.062.345-1.188 0-1.188-.36 0-.781 12.047-10.953 1.078-.86 1.14-2.234.11-2.266.11-3.375 0-3.094-.516-4.657l-.156-.468q0-.516 2.266-.516 1.11 0 1.562.36.47.343.47 1.296 0 .953-.22 4.016 0 .828.594.828.297 0 .703-.344 4.047-3.578 4.766-4.5.719-.922 1.172-1.14.922-.36 2.578-.422h.515q1.516 0 1.516.484 0 .281-.437.531-3.891 2.204-10.266 7.407-.156.093-.39.265-.22.172-.626.813-.39.64-.453 1.406-.219 3.875-.219 6.375 0 2.89.422 3.75.125.25.125.39 0 .47-.937.657-.922.203-1.781.203-.86 0-1.11-.375-.25-.36-.25-1.484 0-1.14.25-5.563zm16.463 0 .03-.672q0-.609-.483-.609-.407 0-1.016.484-1.75 1.547-3.688 3.594-1.921 2.031-2.562 2.89-.625.844-.828 1.048-.188.203-1.078.53-.891.345-2.063.345-1.187 0-1.187-.36 0-.781 12.047-10.953 1.078-.86 1.14-2.234.11-2.266.11-3.375 0-3.094-.516-4.657l-.156-.468q0-.516 2.265-.516 1.11 0 1.563.36.469.343.469 1.296 0 .953-.22 4.016 0 .828.595.828.296 0 .703-.344 4.047-3.578 4.765-4.5.719-.922 1.172-1.14.922-.36 2.578-.422h.516q1.516 0 1.516.484 0 .281-.438.531-3.89 2.204-10.266 7.407-.156.093-.39.265-.219.172-.625.813-.39.64-.453 1.406-.22 3.875-.22 6.375 0 2.89.423 3.75.125.25.125.39 0 .47-.938.657-.922.203-1.781.203-.86 0-1.11-.375-.25-.36-.25-1.484 0-1.14.25-5.563zm16.462 0 .031-.672q0-.609-.484-.609-.406 0-1.016.484-1.75 1.547-3.687 3.594-1.922 2.031-2.563 2.89-.625.844-.828 1.048-.187.203-1.078.53-.89.345-2.062.345-1.188 0-1.188-.36 0-.781 12.047-10.953 1.078-.86 1.14-2.234.11-2.266.11-3.375 0-3.094-.516-4.657l-.156-.468q0-.516 2.266-.516 1.11 0 1.562.36.469.343.469 1.296 0 .953-.219 4.016 0 .828.594.828.297 0 .703-.344 4.047-3.578 4.766-4.5.719-.922 1.172-1.14.922-.36 2.578-.422h.515q1.516 0 1.516.484 0 .281-.437.531-3.891 2.204-10.266 7.407-.156.093-.39.265-.22.172-.626.813-.39.64-.453 1.406-.219 3.875-.219 6.375 0 2.89.422 3.75.125.25.125.39 0 .47-.937.657-.922.203-1.781.203-.86 0-1.11-.375-.25-.36-.25-1.484 0-1.14.25-5.563zm16.463 0 .03-.672q0-.609-.484-.609-.406 0-1.015.484-1.75 1.547-3.688 3.594-1.922 2.031-2.562 2.89-.625.844-.828 1.048-.188.203-1.078.53-.891.345-2.063.345-1.187 0-1.187-.36 0-.781 12.046-10.953 1.079-.86 1.141-2.234.11-2.266.11-3.375 0-3.094-.516-4.657l-.156-.468q0-.516 2.265-.516 1.11 0 1.563.36.468.343.468 1.296 0 .953-.218 4.016 0 .828.593.828.297 0 .704-.344 4.046-3.578 4.765-4.5.719-.922 1.172-1.14.922-.36 2.578-.422h.516q1.515 0 1.515.484 0 .281-.437.531-3.89 2.204-10.266 7.407-.156.093-.39.265-.22.172-.625.813-.391.64-.453 1.406-.22 3.875-.22 6.375 0 2.89.423 3.75.125.25.125.39 0 .47-.938.657-.922.203-1.781.203-.86 0-1.11-.375-.25-.36-.25-1.484 0-1.14.25-5.563z"/><path fill="#a64d79" d="M728.131 15.678c0-6.279 4.836-11.37 10.801-11.37 2.865 0 5.612 1.199 7.638 3.33 2.026 2.133 3.164 5.025 3.164 8.04 0 6.28-4.836 11.37-10.802 11.37-5.965 0-10.8-5.09-10.8-11.37z" fill-rule="evenodd"/><path stroke="#741b47" stroke-width="2" stroke-linejoin="round" stroke-linecap="butt" d="M728.131 15.678c0-6.279 4.836-11.37 10.801-11.37 2.865 0 5.612 1.199 7.638 3.33 2.026 2.133 3.164 5.025 3.164 8.04 0 6.28-4.836 11.37-10.802 11.37-5.965 0-10.8-5.09-10.8-11.37z"/><path fill="none" d="M774.144 0h-48.752v24.147h48.752z"/><path fill="#ead1dc" d="M741.814 14.006q0 .453-.125.796-.125.329-.344.579-.203.234-.5.406-.281.156-.61.281-.327.125-.687.235-.344.093-.687.203-.344.093-.672.234-.313.14-.578.36-.25.203-.438.5-.172.28-.234.687h4.875v.953h-7.094q.11-.719.313-1.234.218-.532.5-.907.28-.375.609-.625.344-.25.687-.421.344-.172.688-.282.36-.125.687-.234.329-.11.61-.234.297-.125.5-.297.219-.188.328-.453.125-.266.125-.657 0-.36-.125-.625-.11-.265-.328-.437-.203-.172-.485-.266-.28-.094-.609-.094-.344 0-.64.125-.282.125-.516.36-.219.219-.39.547-.173.312-.25.703l-1.61-.89q.219-.438.61-.75.39-.329.874-.548.485-.218 1-.312.516-.11.969-.11.453 0 .89.032.438.03.829.14.39.094.718.266.344.172.579.437.25.266.39.641t.14.89z"/><path fill="#45818e" d="M604.412 34.462h179.37v33.134h-179.37z" fill-rule="evenodd"/><path stroke="#134f5c" stroke-width="3" stroke-linejoin="round" stroke-linecap="butt" d="M604.412 34.462h179.37v33.134h-179.37z"/><path fill="#a2c4c9" d="m641.708 59.21.03.5q0 .39-1.155.39-2.047 0-2.047-.812 0-.75 1.219-3.641 1.234-2.89 1.234-3.547 0-1.187-1.875-1.187h-.813l-1.125 1.984q-.765 1.344-1.656 3.14-.89 1.797-1.406 2.672-.5.86-.969 1.25-.844.672-2.219.672-.625 0-.687-.218-.031-.079-.031-.25 0-.157.687-1.313.703-1.172 2.172-3.562 1.484-2.391 2.594-4.282l-1.656.063q-.172 0-.235-.188 0-.406.422-.78.438-.376.797-.5.36-.142 1.578-.188 1.188-2.079 2-3.672.531-1.219.531-2.157v-.218q0-.625 2.532-.625 1.296 0 1.296.484 0 .188-.546.89-.532.688-3.235 5.329.719-.031 1.36-.313.656-.297 2.062-1.609 1.422-1.328 3.469-3.813.047-.093.187-.25.14-.156.89-.406.767-.265 2.095-.265 1.328 0 1.328.437 0 .14-2.11 1.625-6.328 4.469-6.328 5.188 0 .312.766.875.766.546.766 1.093 0 .032-.97 2.953-.952 2.907-.952 4.25zm12.522-5.688q-.156 0-.203-.219 0-.406.563-.937.578-.532.922-.672.36-.14 2.328-.188l.328-.39q7.297-8.422 10.125-8.422.25-.016.562-.016 1.657 0 1.657.781 0 .157-.313.766l-1.078 2.172q-.766 1.531-1.5 3.11-3.875 8.577-4.5 11.234 0 .203-.5.203-.484 0-1.187-.547-.688-.547-.688-.953 0-.735 1.172-2.797 1.172-2.063 1.172-2.688 0-.843-3.266-.843-.469 0-1.484.047l-.906 1.203q-1.688 2.25-3.22 5.593-.265.594-1.609.594-1.343 0-1.343-.39 0-.25 1.5-2.297 1.5-2.063 3.562-4.563-.36.047-.922.094-.547.047-.843.094-.297.031-.329.031zm9.97-3.094q.937-1.125 1.405-2.281.47-1.156.47-1.563 0-.406-.423-.406-.718 0-2.375 1.531-1.656 1.516-3.593 3.797l2.609.047q.969 0 1.906-1.125zm29.082-6.562q0 1.156-5.031 5.047-2.094 1.609-4.203 3.25-2.094 1.625-3.578 3.109-1.47 1.469-1.47 2.25 0 .437.548.594.562.156 1.25.156.703 0 1.812-.453 1.125-.453 2.016-1.11 1.89-1.406 2.781-2.39l.406-.469q.5-.406.86-.406h.047q.39 0 .39.25-.047.578-1.937 3.515-1.875 2.938-2.5 3h-.266q-1.437 0-2.156-.546-2.313.218-2.953.218-3.203 0-4.344-.203-1.14-.187-1.14-.812 0-.828 1.5-2.438 1.5-1.61 3.64-3.328 2.156-1.734 4.312-3.39 2.172-1.657 3.672-2.922 1.516-1.266 1.547-1.625v-.016q0-.656-1.312-.656-1.313 0-2.625.687-1.313.688-2.828 1.938-.563.422-.907.422-.343 0-.343-.25.015-.266 1.171-2.047 1.157-1.782 1.907-2.407.297-.28.765-.28 1 0 1.657.53 1.578-.14 3.578-.14 3.734 0 3.734.922zm21.38 2.765q0 1.344-.547 3.078-.531 1.72-1.594 3.532-1.047 1.797-2.437 3.328-1.375 1.515-3.266 2.484-1.875.969-3.875.969t-3.156-1.11q-1.157-1.124-1.157-3.093 0-1.344.532-3.063.547-1.734 1.61-3.53 1.062-1.798 2.437-3.313 1.375-1.516 3.25-2.485 1.89-.969 3.89-.969 2.016 0 3.156 1.11 1.157 1.094 1.157 3.062zm-2.828-.218q0-2.641-1.922-2.641-1.61 0-3.594 2.047-1.969 2.031-3.36 4.937-1.374 2.891-1.374 5.172 0 2.625 1.921 2.625 1.594 0 3.579-2.031 2-2.047 3.375-4.938 1.375-2.89 1.375-5.171zm25.916.218q0 1.344-.547 3.078-.531 1.72-1.594 3.532-1.047 1.797-2.437 3.328-1.375 1.515-3.266 2.484-1.875.969-3.875.969t-3.156-1.11q-1.157-1.124-1.157-3.093 0-1.344.532-3.063.547-1.734 1.61-3.53 1.062-1.798 2.437-3.313 1.375-1.516 3.25-2.485 1.89-.969 3.89-.969 2.016 0 3.156 1.11 1.157 1.094 1.157 3.062zm-2.828-.218q0-2.641-1.922-2.641-1.61 0-3.594 2.047-1.969 2.031-3.36 4.937-1.374 2.891-1.374 5.172 0 2.625 1.921 2.625 1.594 0 3.579-2.031 2-2.047 3.375-4.938 1.375-2.89 1.375-5.171z"/><path fill="#a64d79" d="M702.85 15.678c0-6.279 4.836-11.37 10.802-11.37 2.864 0 5.612 1.199 7.637 3.33 2.026 2.133 3.164 5.025 3.164 8.04 0 6.28-4.836 11.37-10.801 11.37-5.966 0-10.802-5.09-10.802-11.37z" fill-rule="evenodd"/><path stroke="#741b47" stroke-width="2" stroke-linejoin="round" stroke-linecap="butt" d="M702.85 15.678c0-6.279 4.836-11.37 10.802-11.37 2.864 0 5.612 1.199 7.637 3.33 2.026 2.133 3.164 5.025 3.164 8.04 0 6.28-4.836 11.37-10.801 11.37-5.966 0-10.802-5.09-10.802-11.37z"/><path fill="none" d="M699.131 0h21.603v24.147H699.13z"/><path fill="#ead1dc" d="M715.553 14.006q0 .453-.125.796-.125.329-.344.579-.203.234-.5.406-.28.156-.609.281-.328.125-.688.235-.343.093-.687.203-.344.093-.672.234-.312.14-.578.36-.25.203-.438.5-.171.28-.234.687h4.875v.953h-7.094q.11-.719.313-1.234.219-.532.5-.907t.61-.625q.343-.25.687-.421.343-.172.687-.282.36-.125.688-.234.328-.11.61-.234.296-.125.5-.297.218-.188.327-.453.125-.266.125-.657 0-.36-.125-.625-.11-.265-.328-.437-.203-.172-.484-.266-.282-.094-.61-.094-.343 0-.64.125-.282.125-.516.36-.219.219-.39.547-.172.312-.25.703l-1.61-.89q.219-.438.61-.75.39-.329.874-.548.485-.218 1-.312.516-.11.97-.11.452 0 .89.032.437.03.828.14.39.094.719.266.343.172.578.437.25.266.39.641.141.375.141.89z"/><path fill="#45818e" d="M677.57 15.678c0-6.279 4.835-11.37 10.8-11.37 2.865 0 5.613 1.199 7.638 3.33 2.026 2.133 3.164 5.025 3.164 8.04 0 6.28-4.836 11.37-10.801 11.37-5.966 0-10.802-5.09-10.802-11.37z" fill-rule="evenodd"/><path stroke="#134f5c" stroke-width="2" stroke-linejoin="round" stroke-linecap="butt" d="M677.57 15.678c0-6.279 4.835-11.37 10.8-11.37 2.865 0 5.613 1.199 7.638 3.33 2.026 2.133 3.164 5.025 3.164 8.04 0 6.28-4.836 11.37-10.801 11.37-5.966 0-10.802-5.09-10.802-11.37z"/><path fill="none" d="M673.89 0h21.569v24.147h-21.57z"/><path fill="#d0e0e3" d="M689.89 17.537h-.516v1.703h-2.062v-1.703h-4.282q.141-.61.36-1.219.219-.625.5-1.234.297-.61.625-1.188.328-.594.703-1.11h1.437q-.453.75-.75 1.438-.296.672-.484 1.203-.203.625-.328 1.157h2.219V11.74h2.062v4.844h.516v.953z"/><path fill="#45818e" d="M652.289 15.678c0-6.279 4.835-11.37 10.8-11.37 2.865 0 5.613 1.199 7.638 3.33 2.026 2.133 3.164 5.025 3.164 8.04 0 6.28-4.836 11.37-10.801 11.37-5.966 0-10.801-5.09-10.801-11.37z" fill-rule="evenodd"/><path stroke="#134f5c" stroke-width="2" stroke-linejoin="round" stroke-linecap="butt" d="M652.289 15.678c0-6.279 4.835-11.37 10.8-11.37 2.865 0 5.613 1.199 7.638 3.33 2.026 2.133 3.164 5.025 3.164 8.04 0 6.28-4.836 11.37-10.801 11.37-5.966 0-10.801-5.09-10.801-11.37z"/><path fill="none" d="M648.57 0h21.602v24.147h-21.603z"/><path fill="#d0e0e3" d="M662.132 19.24h-4.063v-.953h1v-5.594h-1v-.953h3.063v6.547h1v.953z"/><path fill="#45818e" d="M627.008 15.678c0-6.279 4.836-11.37 10.801-11.37 2.865 0 5.612 1.199 7.638 3.33 2.025 2.133 3.163 5.025 3.163 8.04 0 6.28-4.836 11.37-10.801 11.37s-10.801-5.09-10.801-11.37z" fill-rule="evenodd"/><path stroke="#134f5c" stroke-width="2" stroke-linejoin="round" stroke-linecap="butt" d="M627.008 15.678c0-6.279 4.836-11.37 10.801-11.37 2.865 0 5.612 1.199 7.638 3.33 2.025 2.133 3.163 5.025 3.163 8.04 0 6.28-4.836 11.37-10.801 11.37s-10.801-5.09-10.801-11.37z"/><path fill="none" d="M623.289 0h21.602v24.147H623.29z"/><path fill="#d0e0e3" d="M635.992 19.396q-.469 0-1.016-.11-.531-.109-1.047-.327-.5-.219-.922-.532-.406-.328-.625-.765l1.86-.875q0 .36.14.672.157.312.391.547.25.234.563.375.312.125.656.125.328 0 .625-.094.312-.094.547-.281.234-.188.375-.454.156-.28.156-.64 0-.39-.14-.656-.126-.282-.36-.454-.234-.187-.547-.265-.297-.078-.656-.078h-1.016v-.89h1.016q.25 0 .469-.063.234-.063.406-.188.187-.14.297-.328.11-.203.11-.453 0-.297-.095-.485-.093-.203-.28-.328-.173-.125-.407-.172-.235-.062-.5-.062-.266 0-.516.078-.234.063-.422.203-.187.125-.297.328-.109.203-.109.485l-1.484-1.094q.218-.266.562-.453.344-.203.735-.313.39-.125.78-.172.407-.062.75-.062.313 0 .657.047.36.031.703.11.344.077.656.218.329.14.563.36.234.218.375.515.156.297.156.687 0 .235-.11.47-.109.218-.28.421-.157.188-.375.344-.204.14-.422.219.36.078.687.265.344.172.594.438.25.265.39.61.157.327.157.718 0 .515-.172.89-.172.36-.453.625-.281.266-.656.438-.375.156-.797.25-.422.078-.86.11-.422.046-.812.046z"/><defs><linearGradient id="c" gradientUnits="userSpaceOnUse" gradientTransform="matrix(0 12.83205 -12.83205 0 0 0)" spreadMethod="pad" x1="5.629" y1="-44.556" x2="18.461" y2="-44.556"><stop offset="0" stop-color="#76a5af"/><stop offset="1" stop-color="#a2c4c9"/></linearGradient></defs><path fill="url(#c)" d="M588.307 72.234v153.622h5.52l-11.04 11.039-11.039-11.04h5.52V72.235z" fill-rule="evenodd"/><path stroke="#45818e" stroke-width="2" stroke-linejoin="round" stroke-linecap="butt" d="M588.307 72.234v153.622h5.52l-11.04 11.039-11.039-11.04h5.52V72.235z"/><defs><linearGradient id="d" gradientUnits="userSpaceOnUse" gradientTransform="scale(12.83205)" spreadMethod="pad" x1="59.917" y1="21.327" x2="47.085" y2="21.327"><stop offset="0" stop-color="#ead1dc"/><stop offset="1" stop-color="#c27ba0"/></linearGradient></defs><path fill="url(#d)" d="M604.2 279.185h153.622v-5.52l11.039 11.04-11.04 11.04v-5.52H604.2z" fill-rule="evenodd"/><path stroke="#a64d79" stroke-width="2" stroke-linejoin="round" stroke-linecap="butt" d="M604.2 279.185h153.622v-5.52l11.039 11.04-11.04 11.04v-5.52H604.2z"/></g></svg>