<svg viewBox="0 0 989.806 438.06" fill="none" stroke-linecap="square" stroke-miterlimit="10" xmlns="http://www.w3.org/2000/svg"><clipPath id="a"><path d="M0 0h989.806v438.06H0V0z"/></clipPath><g clip-path="url(#a)"><path fill="none" d="M0 0h989.806v438.06H0z"/><path shape-rendering="crispEdges" fill="#d0e0e3" d="M107.39 50.864h69.296v58.57H107.39v-58.57zM176.686 50.864h69.297v58.57h-69.297v-58.57z"/><path shape-rendering="crispEdges" fill="#d0e0e3" d="M245.983 50.864h69.297v58.57h-69.297v-58.57zM315.28 50.864h69.296v58.57H315.28v-58.57zM384.576 50.864h69.297v58.57h-69.297v-58.57z"/><path shape-rendering="crispEdges" fill="#d0e0e3" d="M453.873 50.864h69.296v58.57h-69.296v-58.57zM523.17 50.864h69.296v58.57h-69.297v-58.57zM592.466 50.864h69.296v58.57h-69.296v-58.57z"/><path shape-rendering="crispEdges" fill="#d0e0e3" d="M661.762 50.864h69.297v58.57h-69.297v-58.57zM731.06 50.864h69.296v58.57h-69.297v-58.57zM107.39 109.433h69.296v58.57H107.39v-58.57zM176.686 109.433h69.297v58.57h-69.297v-58.57z"/><path shape-rendering="crispEdges" fill="#d0e0e3" d="M245.983 109.433h69.297v58.57h-69.297v-58.57zM315.28 109.433h69.296v58.57H315.28v-58.57zM384.576 109.433h69.297v58.57h-69.297v-58.57z"/><path shape-rendering="crispEdges" fill="#d0e0e3" d="M453.873 109.433h69.296v58.57h-69.296v-58.57zM523.17 109.433h69.296v58.57h-69.297v-58.57zM592.466 109.433h69.296v58.57h-69.296v-58.57z"/><path shape-rendering="crispEdges" fill="#d0e0e3" d="M661.762 109.433h69.297v58.57h-69.297v-58.57zM731.06 109.433h69.296v58.57h-69.297v-58.57z"/><path stroke="#45818e" stroke-width="4" stroke-linecap="butt" d="M107.39 48.864v121.139M176.686 48.864v121.139M245.983 48.864v121.139M315.28 48.864v121.139M384.576 48.864v121.139M453.873 48.864v121.139M523.17 48.864v121.139M592.466 48.864v121.139M661.762 48.864v121.139M731.06 48.864v121.139M800.356 48.864v121.139M105.39 50.864h696.966M105.39 109.433h696.966M105.39 168.003h696.966"/><path fill="#0c343d" d="M119.25 78.745q-.188 0-.25-.235 0-.453.64-1.03.64-.595 1.031-.75.39-.173 2.563-.22l.375-.437q8.109-9.344 11.25-9.344.265-.031.609-.031 1.844 0 1.844.875 0 .172-.344.86l-1.203 2.39q-.844 1.719-1.656 3.469-4.313 9.515-5 12.484 0 .203-.547.203t-1.328-.61q-.766-.593-.766-1.046 0-.813 1.297-3.11 1.312-2.296 1.312-2.984 0-.937-3.625-.937-.531 0-1.656.047l-1.016 1.343q-1.859 2.5-3.562 6.203-.297.672-1.797.672-1.484 0-1.484-.422 0-.296 1.656-2.578 1.672-2.281 3.969-5.047-.407.047-1.016.11-.61.047-.953.094-.328.03-.344.03zm11.046-3.438q1.047-1.25 1.563-2.531.53-1.281.53-1.734 0-.453-.452-.453-.813 0-2.657 1.703-1.828 1.687-3.984 4.218l2.906.047q1.063 0 2.094-1.25zM198.968 83.62q-1.172 1.078-3.079 1.765-1.89.672-3.671.672-1.782 0-2.547-.187-.766-.172-.89-.172-.267 0-.532.172-.86.765-2.063.765-1.187 0-1.187-.421 0-.297 1.844-3.485 1.859-3.203 4.109-7.125t2.906-5.39q.656-1.47.656-2.532v-.218q0-.72 4.125-.72 3.782 0 4.86.407 1.375.531 1.719 1.406.218.547.218 1.282 0 1.203-.875 2.265-1.625 1.922-4.218 2.531-.985.25-1.172.407-.188.156-.188.328 0 .172.39.437.391.25.845.547.468.281.859.953.39.672.39 1.703 0 1.016-.656 2.266t-1.843 2.344zm-2.329-1.453q.782-.938 1.22-1.891.437-.969.437-1.625t-.203-1.11q-.204-.468-.47-.702-.265-.25-.64-.391-.547-.203-1.11-.203h-.265q-.36 0-.36-.25 0-.547.407-1.172.422-.64.953-.64 2.172 0 3.875-1.438 1.703-1.438 1.703-3.063 0-1.406-1.859-1.406-1.547 0-2.172.734-1.672 2.079-4.844 7.75-3.172 5.672-3.172 6.657 0 .39.438.687.437.297 1.594.297 1.172 0 2.437-.656 1.266-.656 2.031-1.578zM261.217 86.104q-4.39 0-4.39-4.484 0-1.297.625-3.156.625-1.875 1.843-3.891 1.235-2.016 2.782-3.734 1.547-1.735 3.625-2.86 2.078-1.125 4.187-1.125.985 0 1.516.235.531.218.562.218.047 0 .672-.265.625-.266 1.485-.266.875 0 .875.5 0 .484-1.032 2.14-1.015 1.657-2.453 3.173-1.437 1.515-2.297 1.515-.11.031-.265.031-.5 0-.5-.296 0-.047.36-.594.374-.547.75-1.469.374-.922.374-1.484 0-.563-.062-.797-.047-.235-.36-.547-.297-.328-.828-.328-1.437 0-3.422 2.187-1.984 2.188-3.422 5.14-1.422 2.938-1.422 4.985 0 2.453 2.235 2.453 2.672 0 5.172-3.437.11-.219.218-.219.125 0 .188.016.078.015.187.172.125.14.125.547 0 .39-.546 1.328-.547.922-1.454 1.922-.906.984-2.343 1.687-1.438.703-2.985.703zM330.467 86.073q-1.422 0-1.828-.094-.39-.094-.672-.156-.281-.063-.36-.094-.077-.031-.234-.031-.328 0-.593.172-.922.765-2.454.765-.796 0-.796-.359 0-.36 1.843-3.547 1.86-3.203 4.11-7.125 2.265-3.922 2.906-5.39.656-1.47.656-2.532v-.218q0-.766 4.453-.766 6.61 0 6.61 4.5 0 3.25-2.203 7.172-1.157 2.062-2.704 3.765-1.546 1.704-3.859 2.829-2.297 1.109-4.875 1.109zm8.766-9.125q.984-1.906 1.5-3.563.53-1.671.53-2.796 0-1.141-.655-1.72-.657-.593-2.203-.593-1.063 0-1.704.734-1.671 2.11-4.859 7.782-3.172 5.656-3.172 6.625 0 1.062 2.266 1.062 1.61 0 3.234-1.11 1.625-1.124 2.844-2.812 1.234-1.703 2.219-3.61zM405.998 76.667l-2.266-.078q-1.672 0-2.578 1.093-.64.797-1.703 2.61-1.047 1.812-1.047 2.875 0 .984 1.938.984 1.203 0 2.562-.453 2.75-.906 4.344-3.453.188-.25.64-.25.454 0 .454.531 0 .516-.86 2.172-.843 1.64-1.515 2.469-.344.437-1.344.484-1 .047-3.047.047h-2.61l-1.53-.016-.72-.062h-.187q-.156 0-.39.25-.891.765-2.516.765-.766 0-.766-.343v-.078q0-.297 1.844-3.485 1.86-3.187 4.125-7.094 2.266-3.921 2.906-5.375.641-1.453.641-2.5v-.296q0-.454 5.672-.454 1.875 0 3.25.063.406-.453 2.062-.453.688 0 .688.344 0 .609-1.219 2.468-1.203 1.844-2.11 2.516-.296.234-.75.234-.452 0-.452-.187 0-.078.078-.203.437-.828.437-1.875 0-1.453-2.031-1.453-1.234 0-1.938.64-.703.625-1.406 1.781-.687 1.141-1.015 1.97-.329.827-.329 1.046 0 .64.625.781.625.14 2.485.14l1.984-.077q.266 0 .266.203t-.281.672q-.282.453-.579.64-.593.407-1.812.407zM474.95 76.667l-2.296-.078q-1.672 0-2.563 1.093-1.406 1.844-2.921 4.813-1.5 2.969-2.079 3.39-.968.75-2.453.75-.812 0-.812-.343v-.078q0-.297 1.86-3.485 1.859-3.187 4.109-7.094 2.25-3.921 2.906-5.39.656-1.469.656-2.5v-.281q0-.454 5.672-.454 1.86 0 3.25.063.406-.453 2.031-.453.719 0 .719.344 0 .64-1.297 2.578-1.297 1.922-2.172 2.484-.375.188-.719.188-.343 0-.343-.22 0-.015.125-.28.375-.75.375-1.797 0-1.453-2.047-1.453-1.235 0-1.938.64-.703.625-1.406 1.781-.687 1.141-1.016 1.97-.328.827-.328 1.14 0 .297.282.562.296.266 2.859.266 1.14 0 1.531-.031.406-.047.438-.047.234 0 .234.187 0 .11-.016.157-.375.906-.906 1.25-.515.328-1.734.328zM543.013 85.62q-.375 0-.656-.344-.266-.344-.344-.687l-.094-.344q-.078-.297-.39-.297-.297 0-.532.187-2.515 1.97-4.671 1.97-2.766 0-2.766-3.704 0-1.312.672-3.25.687-1.953 1.953-4.062 1.281-2.125 2.89-3.97 1.626-1.859 3.735-3.062 2.125-1.203 4.234-1.203 1.14 0 1.86.406.11.047.234.047.14 0 .281-.078.657-.453 1.688-.453 1.047 0 1.047.516 0 .625-1.328 2.53-2.079 2.954-3.407 2.954-.343 0-.468-.047-.125-.062-.125-.219 0-.156.171-.53.532-1.126.532-1.86 0-.735-.282-1.11-.28-.39-1.156-.39-1.61 0-3.812 2.422-2.188 2.406-3.766 5.562-1.578 3.156-1.578 5.203 0 1.735 1.437 1.735 1.125 0 2.547-1.141 1.438-1.156 2.344-2.469.922-1.312.922-1.89 0-.578-.563-.797-.546-.235-2.156-.235-.312 0-.312-.234 0-.453.515-.937.516-.485 1-.532 1.922-.14 4.032-.14 2.125 0 2.125.375 0 .328-.36 1-.36.656-.594 1.078-.218.406-.656 1.14-.437.735-.703 1.157-.266.422-.812 1.297-.547.859-.875 1.406-.313.531-.782 1.406-.468.875-.687 1.234-.203.36-.344.36zM611.06 67.823v-.36q0-.687 2.859-.687 1.438 0 1.438.531 0 .219-.22.438-1.015 1.375-4.312 7l3.297.031q1.094 0 2-.875.453-.484.813-.89.359-.422.812-1.188.453-.781.719-1.234.375-.672 1.312-2.563 0-.125.204-.328.203-.203.468-.344.282-.156.86-.25.593-.11 1.39-.11.813 0 .813.345 0 .156-.125.359-.11.203-1.39 2.156-1.266 1.938-2.548 4.031-1.265 2.094-2.703 4.547-1.422 2.453-2.312 4.485-.891 2.015-.891 2.953-.156.453-.672.453-1.469 0-2.031-.25-.547-.234-.547-.719 0-.828 1.766-3.86 1.78-3.046 1.78-3.687 0-.656-.546-.968-.531-.329-1.781-.329t-1.735.016q-.906 1.469-2.078 3.766-1.172 2.297-1.968 3.765-.797 1.453-1.282 1.828-.984.75-2.422.75-.828 0-.828-.421 0-.25.703-1.422.704-1.188 2.282-3.735 1.578-2.547 2.718-4.468l-1.625.078q-.406 0-.406-.22 0-.452.578-.905t.938-.578q.375-.141 1.562-.188.985-1.687 2.532-4.672.578-1.281.578-2.281zM671.137 84.589q0-.625.688-1.22.703-.593 1.437-.593 1.47 0 1.47.906 0 .719-.704 1.297-.687.563-1.453.563-1.438 0-1.438-.953zm5.625 0q0-.625.688-1.22.703-.593 1.437-.593 1.47 0 1.47.906 0 .719-.704 1.297-.687.563-1.422.563-1.469 0-1.469-.953zm5.625 0q0-.625.688-1.22.703-.593 1.437-.593 1.47 0 1.47.906 0 .719-.704 1.297-.687.563-1.453.563-1.438 0-1.438-.953zM761.247 68.026q0 1.281-5.594 5.61-2.313 1.78-4.656 3.593-2.329 1.813-3.97 3.453-1.64 1.64-1.64 2.516 0 .484.61.656.625.172 1.39.172.781 0 2.016-.5 1.234-.516 2.219-1.234 2.109-1.578 3.093-2.672l.453-.5q.563-.453.97-.453h.046q.422 0 .422.265-.047.64-2.14 3.907-2.094 3.265-2.782 3.343h-.297q-1.594 0-2.39-.61-2.563.235-3.282.235-3.547 0-4.812-.218-1.266-.204-1.266-.891 0-.938 1.656-2.719 1.672-1.797 4.047-3.703 2.391-1.922 4.782-3.766 2.406-1.843 4.078-3.234 1.687-1.406 1.718-1.812v-.016q0-.719-1.453-.719t-2.922.766q-1.468.75-3.14 2.14-.61.47-1 .47t-.39-.282q.03-.297 1.312-2.266 1.281-1.984 2.11-2.672.343-.328.843-.328 1.125 0 1.844.594 1.765-.156 3.968-.156 4.157 0 4.157 1.031zM124.124 143.424q0-1.172.86-5.938.875-4.781.875-5.265 0-.5-.282-.5-.281 0-.765.562-.485.547-.797 1.094l-.344.547q-2.14 3.5-4.828 9.25-.531 1.172-1.016 1.5-.484.343-1.375.343-.89 0-.89-.39v-.094q0-.344 1.359-2.531 5.203-8.344 7.594-13.188.625-1.234.625-2.218v-.422q0-.188.14-.39.141-.204.907-.423.78-.234 2.14-.234 2.063 0 2.063.781 0 .234-1.094 5.172-1.094 4.922-1.094 5.953 0 1.031.203 1.031.329 0 .672-.343.344-.344.532-.672l.187-.344q1.703-2.797 3.063-5.547 1.359-2.766 2-4.078.64-1.313 1.125-1.656.687-.39 1.75-.39 1.078 0 1.078.312v.062q0 .172-1.422 2.234-1.406 2.047-3.75 5.766-2.328 3.719-4.063 7.11-.734 1.734-.734 2.765 0 .328-.125.484-.125.157-.828.297-.703.157-1.453.157h-.844q-.297 0-.719-.141-.75-.203-.75-.656zM205.593 129.658q0 1.5-.594 3.422-.594 1.922-1.781 3.922-1.172 2-2.704 3.687-1.53 1.688-3.625 2.766-2.093 1.078-4.312 1.078-2.219 0-3.5-1.234-1.281-1.235-1.281-3.422 0-1.5.593-3.406.61-1.922 1.782-3.922 1.172-2 2.703-3.672 1.531-1.688 3.625-2.766 2.094-1.078 4.312-1.078 2.235 0 3.5 1.234 1.282 1.22 1.282 3.391zm-3.141-.234q0-2.938-2.125-2.938-1.797 0-4 2.266-2.188 2.265-3.719 5.484-1.531 3.219-1.531 5.75 0 2.922 2.125 2.922 1.766 0 3.969-2.266 2.218-2.265 3.75-5.468 1.531-3.22 1.531-5.75zM275.514 128.814q0 1.75-.781 3.203-.766 1.438-1.75 2.329-.969.89-2.813 1.53-1.828.641-4.312.641t-3.438.563q-.953.562-1.859 2.156-.672 1.125-1.36 2.594-.671 1.453-.859 2.047-.187.578-1.015.937-.828.36-1.547.39l-.75.048q-.797 0-.797-.344v-.078q0-.297 1.844-3.484 1.86-3.204 4.11-7.125 2.265-3.922 2.905-5.375.657-1.47.657-2.485v-.265q0-.422 1.828-.641 1.828-.234 3.937-.234 3.36 0 4.672.921 1.328.907 1.328 2.672zm-8.078-1.25q-.719.828-2.406 3.61-1.672 2.78-1.672 3.125 0 .328.36.437.374.094 1.796.094 1.438 0 2.781-.5 1.344-.5 2.11-1.219.781-.734 1.297-1.61.843-1.484.843-2.421 0-.938-.25-1.39-.25-.47-.734-.657-.797-.297-2.094-.297-1.297 0-2.03.828zM331.233 144.533q-2.235 0-3.516-1.234-1.281-1.235-1.281-3.422 0-1.5.594-3.406.609-1.922 1.78-3.922 1.173-2 2.704-3.672 1.531-1.688 3.625-2.766 2.094-1.078 4.312-1.078 2.235 0 3.516 1.234 1.281 1.22 1.281 3.641 0 2.422-1.843 6.031-1.844 3.61-4.5 5.64-1.063.83-1.063 1.313 0 .125.094.47.11.327.11.671 0 .906-.626 1.89-.625.985-1.375.985l-.078-.078q-.047-.156-.11-.453-.28-2.078-1.437-2.078l-.344.047q-.718.187-1.843.187zm3.89-8.016q.188 0 .25.266 0 .11.094.828.094.719.188 1.078.093.36.187.625.25.61.625.61.547 0 1.656-1.703 1.11-1.704 2.032-4.266.937-2.578.937-4.531 0-2.938-2.125-2.938-1.766 0-3.984 2.266-2.203 2.265-3.735 5.484-1.531 3.219-1.531 5.75 0 .563.094 1.11.094.53.61 1.171.515.641 1.437.641 1.625 0 1.625-.61 0-.265-.297-.765-.297-.516-.297-1.203 0-1.281.86-2.547.874-1.266 1.374-1.266zM406.42 143.236l.062.797q0 .422-1.28.422-2.235 0-2.235-.844 0-.86 1.172-3.687 1.187-2.828 1.187-3.516 0-1.406-1.734-1.406l-.422.015q-.313 0-.313-.234 0-.5.375-1.016.391-.53.985-.53 2.422 0 4.343-1.438 1.922-1.438 1.922-3.047 0-1.14-.718-1.594-.704-.453-1.938-.453-1.219 0-1.86.75-1.562 1.969-5.046 8.25-3.485 6.281-3.906 7.719-.235.656-1.235.968-1 .329-1.953.329-.937 0-.937-.375v-.047q0-.297 1.828-3.407 1.843-3.125 4.062-6.953 2.235-3.828 2.89-5.28.657-1.47.657-2.485v-.266q0-.719 4.047-.719 4.344 0 5.734.875.578.375.985 1.094.422.719.422 1.844 0 1.11-.907 2.265-.906 1.141-1.937 1.688-1.016.547-2.031.797-1.016.234-1.532.39-.5.157-.5.5 0 .22.391.532.39.297.781.734.406.422.406.906 0 .47-.89 2.75-.875 2.282-.875 3.672zM477.67 137.799q0 2.828-2.344 4.734-2.328 1.906-5.953 1.906-2 0-3.032-.593-.109-.047-.25-.047-.125 0-.984.28-.844.298-1.719.298-.859 0-.859-.5 0-.703 1.672-3.61 1.687-2.921 2.984-3.937.563-.422 1.094-.422.531 0 .531.281 0 .063-.36.672-.359.594-.718 1.578-.36.985-.36 1.688t.141 1.187q.157.485.75.985.61.484 1.47.484.874 0 1.624-.203.766-.219 1.516-.672.75-.453 1.218-1.328.485-.89.485-2.047 0-1.156-.719-2.36-.719-1.202-1.578-2.046-.844-.844-1.563-1.922-.718-1.078-.718-2.094 0-1.031.531-1.906.547-.89 1.36-1.406.827-.516 1.859-.86 1.765-.593 3.125-.593t2 .125q.656.109.984.218.344.11.422.11.078 0 .219-.078.797-.454 1.718-.454.938 0 .938.454 0 .75-1.781 3.343-1.766 2.594-2.64 2.594-.72 0-.72-.312 0-.047.188-.375.578-1.063.578-2.422 0-.75-.64-1.157-.626-.421-1.313-.421-.672 0-1.39.218-.704.203-1.407.844-.703.64-.703 1.547 0 .89.672 1.86.687.968 1.5 1.78.812.813 1.484 2.063.688 1.234.688 2.516zM550.966 125.033q.375 0 .375.516 0 .515-1.047 2.406-1.03 1.89-1.734 2.86-.422.64-1 .64-.563 0-.563-.375l.016-.234q.344-1.313.344-2.22 0-1.39-.735-1.39-.328 0-.656.235-.312.218-.469.468l-.156.235q-.375.61-4.515 7.625-.922 1.593-1.922 3.64-.985 2.032-1.594 3.203-.61 1.157-1.219 1.641-.61.5-1.984.5-1.375 0-1.375-.453v-.078q0-.266 1.406-2.516 5.203-8.172 7.875-13.375.234-.484.234-.687 0-.36-.453-.36-1.468 0-4.484 3.313-.297.531-1.36.531-.234 0-.234-.234 0-.188.344-.782l.531-.953q2.344-4.11 3.063-4.11 1.39 0 2.078.532 1.875-.047 3.437-.047 1.578 0 3.125.047 1.328-.578 2.672-.578zM607.247 144.705q-1.922 0-3.187-.906-1.266-.907-1.266-2.563 0-1.062 1.047-3.156 1.062-2.094 2.89-5.125 1.829-3.047 2.61-4.61.781-1.562.781-2.546 0-.266.172-.422.375-.375 2.547-.375 1.453 0 1.453.562 0 .266-.187.453-1.47 2.047-4.516 7.297-3.031 5.25-3.031 6.688 0 2.11 1.922 2.11 1.734 0 2.687-.907.719-.719 1.203-1.484 1.063-1.625 2.766-5.11 1.703-3.484 3.047-6.187 1.359-2.703 1.906-3.14.547-.438 1.906-.438 1.375 0 1.375.312 0 .219-.469.781-.453.547-1.359 1.938-.906 1.39-2.094 3.312-1.187 1.922-2.078 3.39-.875 1.454-2.062 3.47l-1.391 2.36q-2.516 4.296-6.672 4.296zM671.137 143.158q0-.625.688-1.219.703-.593 1.437-.593 1.47 0 1.47.906 0 .719-.704 1.297-.687.562-1.453.562-1.438 0-1.438-.953zm5.625 0q0-.625.688-1.219.703-.593 1.437-.593 1.47 0 1.47.906 0 .719-.704 1.297-.687.562-1.422.562-1.469 0-1.469-.953zm5.625 0q0-.625.688-1.219.703-.593 1.437-.593 1.47 0 1.47.906 0 .719-.704 1.297-.687.562-1.453.562-1.438 0-1.438-.953zM750.325 141.174q-.344.64-1.157.64-.812 0-1.078-.218-.25-.235-.25-1.204 0-.968 1.032-4.53 1.046-3.563 1.046-4.11 0-.547-.203-.547-.328 0-.812.547-.469.547-.797 1.078l-.313.562q-1.703 2.782-3.109 5.563l-2.062 4.078q-.641 1.297-1.125 1.64-.485.344-1.375.344-.891 0-.891-.39v-.094q0-.266 1.39-2.469 5.11-8.14 7.704-13.28.61-1.22.61-2.298v-.312q0-.485 1.108-.766 1.11-.297 1.829-.297h.875q1.125 0 1.656.422.234.156.234.422t-1.062 3.703q-1.047 3.422-1.047 4.125 0 .688.219.688.671 0 2.343-1.641 1.688-1.64 3.844-3.938 1.75-1.921 3.36-3.312.343-.313.828-.36 1.03-.171 2.218-.171t1.188.53q0 .11-.016.173-.015.047-1 1.61-.984 1.562-2.406 3.874-1.406 2.297-2.828 4.766-1.406 2.453-2.39 4.687-.985 2.22-.985 3.266-.235.453-.75.453-2.625 0-2.625-.937 0-2.157 5.344-10.36.703-1.047.703-1.312 0-.266-.407-.266-1.015 0-4.265 3.61-3.25 3.609-4.578 6.03z"/><path fill="#76a5af" d="m803.173 315.96 43.197-46.2v21.599c62.195-8.787 110.348-35.728 125.022-69.947 21.458 50.04-34.072 100.294-125.022 113.143v21.599z" fill-rule="evenodd"/><path fill="#5e838b" d="M975.96 243.01c0-52.216-77.359-94.547-172.787-94.547v-43.197c95.428 0 172.788 42.33 172.788 94.548z" fill-rule="evenodd"/><path fill="none" d="M975.96 243.01c0-52.216-77.359-94.547-172.787-94.547v-43.197c95.428 0 172.788 42.33 172.788 94.548v43.197c0 43.113-53.302 80.766-129.59 91.544v21.599l-43.198-40.195 43.197-46.199v21.599c62.195-8.787 110.348-35.728 125.022-69.947"/><path stroke="#134f5c" stroke-linejoin="round" stroke-linecap="butt" d="M975.96 243.01c0-52.216-77.359-94.547-172.787-94.547v-43.197c95.428 0 172.788 42.33 172.788 94.548v43.197c0 43.113-53.302 80.766-129.59 91.544v21.599l-43.198-40.195 43.197-46.199v21.599c62.195-8.787 110.348-35.728 125.022-69.947"/><path fill="#d9ead3" d="M107.386 252.298h692.976v134.898H107.386z" fill-rule="evenodd"/><path stroke="#6aa84f" stroke-width="4" stroke-linejoin="round" stroke-linecap="butt" d="M107.386 252.298h692.976v134.898H107.386z"/><path fill="none" d="M124.105 290.193H765.27v87.905H124.105z"/><path fill="#38761d" d="M145.105 309.13v-.437q0-.86 3.562-.86 1.797 0 1.797.657 0 .265-.265.547-1.266 1.718-5.39 8.765l4.124.032q1.375 0 2.5-1.11.563-.594 1.016-1.11.453-.515 1.015-1.484.578-.968.907-1.53.468-.845 1.625-3.204 0-.172.25-.422t.593-.422q.36-.187 1.094-.312.734-.14 1.734-.14t1 .437q0 .187-.156.437-.14.25-1.734 2.688-1.578 2.437-3.188 5.062-1.593 2.61-3.375 5.672-1.78 3.063-2.906 5.594-1.11 2.531-1.11 3.703-.202.562-.827.562-1.829 0-2.532-.296-.703-.297-.703-.907 0-1.031 2.219-4.828 2.219-3.797 2.219-4.61 0-.812-.672-1.218-.672-.406-2.235-.406-1.562 0-2.171.031-1.125 1.844-2.594 4.719-1.469 2.86-2.469 4.687-1 1.828-1.594 2.297-1.234.938-3.03.938-1.032 0-1.032-.532 0-.296.875-1.78.89-1.485 2.844-4.673 1.968-3.187 3.406-5.578l-2.031.094q-.5 0-.5-.266 0-.562.718-1.125.72-.578 1.172-.734.469-.172 1.938-.234 1.234-2.11 3.172-5.844.734-1.594.734-2.86zm21.828 11.063-2.828-.094q-2.11 0-3.234 1.36-.797 1-2.125 3.265-1.313 2.266-1.313 3.61 0 1.218 2.438 1.218 1.5 0 3.203-.562 3.422-1.125 5.422-4.328.234-.297.797-.297.578 0 .578.656 0 .64-1.078 2.703-1.063 2.063-1.89 3.11-.438.53-1.688.593-1.25.063-3.813.063h-3.266l-1.906-.031-.89-.063h-.235q-.203 0-.5.297-1.11.969-3.14.969-.97 0-.97-.438v-.094q0-.375 2.313-4.359 2.328-3.984 5.157-8.875 2.843-4.906 3.64-6.719.797-1.812.797-3.11v-.374q0-.563 7.094-.563 2.344 0 4.062.063.5-.563 2.578-.563.86 0 .86.438 0 .766-1.516 3.078-1.515 2.313-2.64 3.156-.375.297-.938.297-.562 0-.562-.234 0-.11.093-.266.532-1.031.532-2.344 0-1.828-2.532-1.828-1.53 0-2.422.813-.875.797-1.75 2.234-.859 1.422-1.28 2.453-.407 1.032-.407 1.297 0 .797.781.985.781.187 3.11.187l2.468-.094q.328 0 .328.25t-.359.828q-.344.579-.703.813-.734.5-2.266.5zm7.161 11.234-.469-.031q-.453 0-.687.297-1.14.969-3.078.969-1 0-1-.438v-.094q0-.375 2.312-4.359 2.328-3.984 5.14-8.875 2.813-4.906 3.626-6.734.828-1.828.828-3.032v-.437q0-.86 3.562-.86 1.797 0 1.797.657 0 .265-.265.547-2.657 4.328-7.063 12.359l-.469.828q-.468.844-.672 1.188-.187.343-.609 1.203-.422.844-.61 1.375-.577 1.5-.577 2.344 0 1.218 2.203 1.218h.234q1.36 0 3-.562 3.203-1.125 5.203-4.328.125-.297.735-.297.625 0 .625.531 0 .797-1.063 2.875-1.062 2.063-1.937 3.063-.422.593-1.657.593-1.234.063-5.343.063l-3.766-.063zm17.43 0-.468-.031q-.453 0-.688.297-1.14.969-3.078.969-1 0-1-.438v-.094q0-.375 2.313-4.359 2.328-3.984 5.14-8.875 2.813-4.906 3.625-6.734.828-1.828.828-3.032v-.437q0-.86 3.563-.86 1.797 0 1.797.657 0 .265-.266.547-2.656 4.328-7.062 12.359l-.47.828q-.468.844-.671 1.188-.187.343-.61 1.203-.421.844-.609 1.375-.578 1.5-.578 2.344 0 1.218 2.203 1.218h.235q1.359 0 3-.562 3.203-1.125 5.203-4.328.125-.297.734-.297.625 0 .625.531 0 .797-1.062 2.875-1.063 2.063-1.938 3.063-.422.593-1.656.593-1.234.063-5.344.063l-3.765-.063zm36.694-18.203q0 1.875-.75 4.281-.75 2.391-2.22 4.891-1.452 2.5-3.374 4.625-1.922 2.11-4.547 3.469-2.61 1.344-5.39 1.344-2.782 0-4.376-1.547-1.593-1.563-1.593-4.297 0-1.86.734-4.25.75-2.406 2.219-4.906 1.468-2.5 3.375-4.594 1.922-2.11 4.531-3.453 2.625-1.36 5.406-1.36 2.797 0 4.39 1.532 1.595 1.53 1.595 4.265zm-3.922-.297q0-3.672-2.672-3.672-2.235 0-4.985 2.844-2.75 2.828-4.671 6.844-1.907 4.016-1.907 7.187 0 3.657 2.672 3.657 2.188 0 4.953-2.828 2.766-2.829 4.688-6.844 1.922-4.016 1.922-7.188zm18.39-3.86-.032-.733q0-.907 3.094-.907 1.937 0 1.937.969 0 .172-.062.234-.234 1.297-2.64 8.297-2.391 7-2.391 7.719 0 .719.656.719.5 0 .766-.266l1.171-1.172q.704-.703 3.829-5.047 3.14-4.343 5.03-7.515.641-1.266 4.204-1.266.906 0 .906.563l-.234.64q-1 2.032-2.703 7.172-1.703 5.125-1.703 6.016 0 .875.671.875.5 0 .766-.266l.938-.937q1.234-1.235 5.406-7.047 4.187-5.813 5.656-8.688.36-.734.828-.968.844-.391 2.938-.47h.672q1.734 0 1.734.579 0 .234-.313.531-3.265 3.094-9.578 10.516-6.312 7.406-8.578 10.719-.469.687-.734 1-.266.296-.875.687-1.125.734-3.953.734-1.64 0-1.64-.796l.108-.36q.188-.64.72-2.14.546-1.5.905-2.532.375-1.031.797-2.265.844-2.5.844-3.063 0-.578-.5-.578-.547 0-1.203.813-2.64 3.125-6.406 8.5-.625.89-1 1.28-.36.376-1.532.75-1.171.391-2.921.391-1.735 0-1.735-.796l.094-.36q1.172-3.375 3.11-9.703 1.952-6.328 2.656-9.297.296-1.703.296-2.531zm44.69 4.157q0 1.875-.75 4.281-.75 2.391-2.22 4.891-1.453 2.5-3.374 4.625-1.922 2.11-4.547 3.469-2.61 1.344-5.391 1.344t-4.375-1.547q-1.594-1.563-1.594-4.297 0-1.86.735-4.25.75-2.406 2.218-4.906 1.47-2.5 3.375-4.594 1.922-2.11 4.532-3.453 2.625-1.36 5.406-1.36 2.797 0 4.39 1.532 1.594 1.53 1.594 4.265zm-3.923-.297q0-3.672-2.671-3.672-2.235 0-4.985 2.844-2.75 2.828-4.672 6.844-1.906 4.016-1.906 7.187 0 3.657 2.672 3.657 2.187 0 4.953-2.828 2.766-2.829 4.688-6.844 1.921-4.016 1.921-7.188zm15.158 17.266.062 1q0 .531-1.594.531-2.796 0-2.796-1.062 0-1.063 1.484-4.594 1.484-3.547 1.484-4.406 0-1.766-2.172-1.766l-.53.031q-.407 0-.407-.297 0-.64.484-1.28.485-.657 1.219-.657 3.031 0 5.422-1.797 2.406-1.797 2.406-3.797 0-1.437-.89-2-.875-.562-2.407-.562-1.531 0-2.328.922-1.969 2.468-6.328 10.328-4.344 7.843-4.875 9.64-.297.828-1.547 1.219-1.25.406-2.437.406-1.172 0-1.172-.453v-.078q0-.36 2.297-4.25 2.297-3.906 5.078-8.687 2.781-4.782 3.594-6.61.828-1.844.828-3.11v-.327q0-.907 5.062-.907 5.438 0 7.156 1.094.735.469 1.25 1.375.516.89.516 2.297 0 1.406-1.14 2.844-1.126 1.422-2.407 2.11-1.281.671-2.547.984-1.265.296-1.906.5-.625.187-.625.625 0 .265.484.656.485.375.985.922.5.53.5 1.125 0 .593-1.11 3.453-1.093 2.844-1.093 4.578zm6.296 1.234-.469-.031q-.453 0-.688.297-1.14.969-3.078.969-1 0-1-.438v-.094q0-.375 2.313-4.359 2.328-3.984 5.14-8.875 2.813-4.906 3.625-6.734.829-1.828.829-3.032v-.437q0-.86 3.562-.86 1.797 0 1.797.657 0 .265-.266.547-2.656 4.328-7.062 12.359l-.469.828q-.469.844-.672 1.188-.187.343-.61 1.203-.421.844-.609 1.375-.578 1.5-.578 2.344 0 1.218 2.203 1.218h.235q1.36 0 3-.562 3.203-1.125 5.203-4.328.125-.297.734-.297.625 0 .625.531 0 .797-1.062 2.875-1.063 2.063-1.938 3.063-.422.593-1.656.593-1.234.063-5.344.063l-3.765-.063zm20.837.532q-1.766 0-2.266-.125-.5-.11-.86-.204-.343-.078-.453-.109-.093-.031-.296-.031-.391 0-.72.203-1.171.969-3.077.969-1 0-1-.453 0-.454 2.312-4.454 2.328-4 5.14-8.89 2.813-4.906 3.626-6.735.828-1.828.828-3.171v-.266q0-.969 5.562-.969 8.266 0 8.266 5.64 0 4.063-2.766 8.97-1.437 2.562-3.375 4.703-1.921 2.125-4.812 3.53-2.875 1.392-6.11 1.392zm10.968-11.407q1.235-2.39 1.875-4.468.657-2.094.657-3.5 0-1.422-.829-2.157-.812-.734-2.75-.734-1.328 0-2.125.937-2.093 2.625-6.062 9.72-3.969 7.077-3.969 8.28 0 1.329 2.828 1.329 2 0 4.032-1.391 2.03-1.406 3.562-3.516 1.547-2.125 2.781-4.5zM542.337 332.021q-2.407 0-3.985-1.125-1.578-1.14-1.578-3.203 0-1.328 1.313-3.938 1.312-2.625 3.593-6.421 2.282-3.797 3.266-5.75.984-1.954.984-3.188 0-.328.203-.531.47-.469 3.204-.469 1.796 0 1.796.703 0 .328-.234.563-1.828 2.562-5.64 9.14-3.797 6.563-3.797 8.36 0 2.625 2.406 2.625 2.172 0 3.36-1.125.905-.907 1.5-1.875 1.343-2.032 3.468-6.375 2.14-4.344 3.812-7.72 1.688-3.39 2.375-3.937.688-.562 2.391-.562 1.719 0 1.719.406 0 .266-.578.969-.578.687-1.72 2.422-1.124 1.734-2.608 4.14-1.485 2.391-2.594 4.235-1.094 1.828-2.578 4.344-1.485 2.515-1.75 2.953-3.125 5.359-8.328 5.359zm25.592-1.828.062 1q0 .531-1.594.531-2.796 0-2.796-1.062 0-1.063 1.484-4.594 1.484-3.547 1.484-4.406 0-1.766-2.172-1.766l-.53.031q-.407 0-.407-.297 0-.64.484-1.28.485-.657 1.219-.657 3.031 0 5.422-1.797 2.406-1.797 2.406-3.797 0-1.437-.89-2-.875-.562-2.407-.562-1.531 0-2.328.922-1.969 2.468-6.328 10.328-4.344 7.843-4.875 9.64-.297.828-1.547 1.219-1.25.406-2.437.406-1.172 0-1.172-.453v-.078q0-.36 2.297-4.25 2.297-3.906 5.078-8.687 2.781-4.782 3.594-6.61.828-1.844.828-3.11v-.327q0-.907 5.062-.907 5.438 0 7.156 1.094.735.469 1.25 1.375.516.89.516 2.297 0 1.406-1.14 2.844-1.126 1.422-2.407 2.11-1.281.671-2.547.984-1.265.296-1.906.5-.625.187-.625.625 0 .265.484.656.485.375.985.922.5.53.5 1.125 0 .593-1.11 3.453-1.093 2.844-1.093 4.578zm9.974-16.125-.047-3.531q0-1.407-.203-1.797-.188-.406-.188-.672 0-.672 2.61-.672 2.625 0 2.625 1.234 0 .829-.563 4.016-.547 3.188-.578 4.375-.031 1.172.64 1.172.391 0 .891-.438 2.032-1.796 4.563-4.546 2.547-2.75 3.375-3.829.828-1.078 1.406-1.312 1.188-.469 2.86-.531h.562q1.906 0 1.906.593 0 .329-.562.672-2.14 1.235-7.36 5.594-5.218 4.36-7.609 6.938-.969 1.03-3.266 5.312-2.296 4.281-3.14 4.844-.766.672-2.266.672t-1.5-.563v-.11q0-.234 1.11-2.062 3.562-5.828 4-7.328.734-2.406.734-8.031zm16.698 0-.047-3.531q0-1.407-.203-1.797-.187-.406-.187-.672 0-.672 2.609-.672 2.625 0 2.625 1.234 0 .829-.563 4.016-.546 3.188-.578 4.375-.031 1.172.64 1.172.392 0 .892-.438 2.03-1.796 4.562-4.546 2.547-2.75 3.375-3.829.828-1.078 1.406-1.312 1.188-.469 2.86-.531h.562q1.906 0 1.906.593 0 .329-.562.672-2.14 1.235-7.36 5.594-5.218 4.36-7.609 6.938-.969 1.03-3.265 5.312-2.297 4.281-3.141 4.844-.766.672-2.266.672t-1.5-.563v-.11q0-.234 1.11-2.062 3.562-5.828 4-7.328.734-2.406.734-8.031zm25.601 14.812q-1.484 1.344-3.86 2.204-2.358.843-4.593.843-2.219 0-3.172-.218-.953-.22-1.125-.22-.328 0-.656.204-1.062.969-2.562.969-1.5 0-1.5-.532 0-.375 2.312-4.375 2.313-4 5.125-8.89 2.828-4.906 3.64-6.735.813-1.828.813-3.171v-.266q0-.89 5.172-.89 4.734 0 6.063.5 1.734.656 2.156 1.765.281.656.281 1.594 0 1.5-1.11 2.828-2.03 2.406-5.265 3.172-1.234.297-1.469.5-.234.203-.234.422 0 .218.484.53l1.063.688q.594.36 1.078 1.203.484.829.484 2.11t-.828 2.844q-.812 1.562-2.297 2.921zm-2.906-1.812q.969-1.172 1.516-2.375t.547-2.016q0-.812-.25-1.39-.25-.594-.594-.891-.328-.297-.797-.469-.688-.265-1.39-.265h-.344q-.422 0-.422-.297 0-.703.515-1.485.516-.78 1.188-.78 2.687 0 4.812-1.798 2.14-1.812 2.14-3.843 0-1.766-2.327-1.766-1.938 0-2.703.937-2.094 2.594-6.063 9.688-3.969 7.078-3.969 8.312 0 .5.547.875.563.36 2 .36 1.453 0 3.032-.813 1.593-.828 2.562-1.984zm18.164 2.453q2.531 0 5.265-4.36 3.766-6.062 7.329-13.171.734-1.5.734-2.86v-.437q0-.86 3.562-.86 1.797 0 1.797.657 0 .265-.578.984t-3.297 5.313q-2.718 4.578-3.5 6.03-.781 1.438-1.468 2.767-.688 1.312-1.047 1.968-.344.64-.86 1.594-.515.953-.843 1.375-.329.406-.844 1.016-.516.593-.985.843-.468.25-1.093.563-.61.312-1.344.422-1.969.265-3.484.265-1.516 0-2.516-.578-.14-.062-.328-.062-.172 0-.297.11-.906.562-2.172.562t-1.266-.641q0-.969 2.547-5.016 2.547-4.046 4.25-4.937.36-.234.985-.234.64 0 .64.359 0 .062-.703 1.203-.687 1.125-1.375 2.719-.687 1.578-.687 2.5 0 .906.422 1.406.421.5 1.156.5zm25.602-.64q-1.484 1.343-3.859 2.203-2.36.843-4.594.843-2.218 0-3.172-.218-.953-.22-1.125-.22-.328 0-.656.204-1.062.969-2.562.969-1.5 0-1.5-.532 0-.375 2.312-4.375 2.313-4 5.125-8.89 2.828-4.906 3.64-6.735.813-1.828.813-3.171v-.266q0-.89 5.172-.89 4.735 0 6.063.5 1.734.656 2.156 1.765.281.656.281 1.594 0 1.5-1.11 2.828-2.03 2.406-5.265 3.172-1.234.297-1.469.5-.234.203-.234.422 0 .218.484.53l1.063.688q.594.36 1.078 1.203.484.829.484 2.11t-.828 2.844q-.812 1.562-2.297 2.921zm-2.906-1.813q.969-1.172 1.516-2.375t.547-2.016q0-.812-.25-1.39-.25-.594-.594-.891-.328-.297-.797-.469-.687-.265-1.39-.265h-.344q-.422 0-.422-.297 0-.703.515-1.485.516-.78 1.188-.78 2.687 0 4.812-1.798 2.141-1.812 2.141-3.843 0-1.766-2.328-1.766-1.938 0-2.703.937-2.094 2.594-6.063 9.688-3.968 7.078-3.968 8.312 0 .5.546.875.563.36 2 .36 1.454 0 3.032-.813 1.593-.828 2.562-1.984zm20.759-6.875-2.829-.094q-2.109 0-3.234 1.36-.797 1-2.125 3.265-1.312 2.266-1.312 3.61 0 1.218 2.437 1.218 1.5 0 3.203-.562 3.422-1.125 5.422-4.328.234-.297.797-.297.578 0 .578.656 0 .64-1.078 2.703-1.063 2.063-1.89 3.11-.438.53-1.688.593-1.25.063-3.813.063h-3.265l-1.907-.031-.89-.063h-.235q-.203 0-.5.297-1.109.969-3.14.969-.969 0-.969-.438v-.094q0-.375 2.313-4.359 2.328-3.984 5.156-8.875 2.844-4.906 3.64-6.719.797-1.812.797-3.11v-.374q0-.563 7.094-.563 2.344 0 4.063.063.5-.563 2.578-.563.86 0 .86.438 0 .766-1.517 3.078-1.515 2.313-2.64 3.156-.375.297-.938.297-.562 0-.562-.234 0-.11.094-.266.53-1.031.53-2.344 0-1.828-2.53-1.828-1.532 0-2.422.813-.875.797-1.75 2.234-.86 1.422-1.282 2.453-.406 1.032-.406 1.297 0 .797.781.985.782.187 3.11.187l2.469-.094q.328 0 .328.25t-.36.828q-.343.579-.703.813-.734.5-2.265.5zm10.938-6.125-.047-3.531q0-1.407-.203-1.797-.187-.406-.187-.672 0-.672 2.61-.672 2.624 0 2.624 1.234 0 .829-.562 4.016-.547 3.188-.578 4.375-.032 1.172.64 1.172.39 0 .89-.438 2.032-1.796 4.563-4.546 2.547-2.75 3.375-3.829.828-1.078 1.407-1.312 1.187-.469 2.859-.531h.562q1.907 0 1.907.593 0 .329-.563.672-2.14 1.235-7.36 5.594-5.218 4.36-7.609 6.938-.968 1.03-3.265 5.312-2.297 4.281-3.14 4.844-.766.672-2.266.672t-1.5-.563v-.11q0-.234 1.109-2.062 3.562-5.828 4-7.328.734-2.406.734-8.031zm14.129 17.766q-2.797 0-4.407-1.547-1.593-1.563-1.593-4.297 0-1.86.75-4.25.75-2.406 2.203-4.906 1.469-2.5 3.39-4.594 1.922-2.11 4.532-3.453 2.625-1.36 5.406-1.36 2.781 0 4.375 1.532 1.61 1.53 1.61 4.578 0 3.03-2.313 7.547-2.297 4.515-5.625 7.046-1.328 1.032-1.328 1.625 0 .172.125.594.14.406.14.844 0 1.14-.797 2.36-.78 1.234-1.703 1.234l-.11-.094q-.062-.203-.124-.563-.375-2.609-1.797-2.609l-.437.078q-.907.235-2.297.235zm4.86-10.047q.233 0 .296.343 0 .125.11 1.032.124.906.234 1.359.125.438.265.766.297.78.766.78.703 0 2.078-2.14 1.39-2.14 2.547-5.343 1.172-3.22 1.172-5.657 0-3.672-2.672-3.672-2.188 0-4.969 2.844-2.765 2.828-4.687 6.844-1.907 4.016-1.907 7.187 0 .704.11 1.391.125.672.765 1.469.657.797 1.797.797 2.032 0 2.032-.766 0-.328-.375-.953-.36-.64-.36-1.5 0-1.61 1.078-3.188 1.094-1.593 1.72-1.593z"/><defs><radialGradient id="b" gradientUnits="userSpaceOnUse" gradientTransform="scale(8.32987)" spreadMethod="pad" cx="52.294" cy="38.386" fx="52.294" fy="38.386" r="8.33"><stop offset="0" stop-color="#dcecd5"/><stop offset="1" stop-color="#93bc81"/></radialGradient></defs><path fill="url(#b)" d="M369.661 308.944H479.93V298.14l21.606 21.607-21.606 21.606V330.55H369.661z" fill-rule="evenodd"/><path stroke="#38761d" stroke-linejoin="round" stroke-linecap="butt" d="M369.661 308.944H479.93V298.14l21.606 21.607-21.606 21.606V330.55H369.661z"/><path fill="#c27ba0" d="M68.43 97.869c0 10.698 9.918 20.292 24.953 24.139v-5.11l14.008 15.85-14.008 12.388v-5.109c-15.035-3.846-24.953-13.44-24.953-24.139z" fill-rule="evenodd"/><path fill="#9b627f" d="M107.391 90.02c-16.284 0-30.85 6.724-36.521 16.859-4.443-7.94-2.75-16.822 4.532-23.777C82.684 76.147 94.634 72 107.392 72z" fill-rule="evenodd"/><path fill="none" d="M68.43 97.869c0 10.698 9.918 20.292 24.953 24.139v-5.11l14.008 15.85-14.008 12.388v-5.109c-15.035-3.846-24.953-13.44-24.953-24.139v-18.02C68.43 83.583 85.874 72 107.391 72v18.02c-16.284 0-30.85 6.724-36.521 16.859"/><path stroke="#741b47" stroke-linejoin="round" stroke-linecap="butt" d="M68.43 97.869c0 10.698 9.918 20.292 24.953 24.139v-5.11l14.008 15.85-14.008 12.388v-5.109c-15.035-3.846-24.953-13.44-24.953-24.139v-18.02C68.43 83.583 85.874 72 107.391 72v18.02c-16.284 0-30.85 6.724-36.521 16.859"/><path fill="#d5a6bd" d="M12.543 81.102h48.063v48.977H12.543z" fill-rule="evenodd"/><path stroke="#741b47" stroke-width="3" stroke-linejoin="round" stroke-linecap="butt" d="M12.543 81.102h48.063v48.977H12.543z"/><path fill="none" d="M8.417 81.102h56.315v43.213H8.417z"/><path fill="#a64d79" d="m31.605 105.361-3.828-.016v-.421q-.453 1.734-1.5 3.53-.64 1.063-2.125 1.063-1.172 0-1.172-.875l.234-.5q.719-1.093 1.719-2.828h-.438l-3.03.078q-.829 0-.829-.734 0-.484.64-1.266.657-.797 1.61-.797l3.563.016q.703-1.312 1.765-3.11.625-1.062 2.094-1.062 1.187 0 1.187.875l-.234.5q-1.047 1.625-1.703 2.828l.906.016q1.219 0 1.86-.047.656-.047.687-.047.844 0 .844.735 0 .484-.656 1.28-.641.782-1.594.782zm3.615 6.36.016.28q0 1.266-2.547 1.266t-2.547-1.172l.203-.5q.781-.562 2.719-3.64 1.937-3.078 4.172-7.313.171-.39.171-.547 0-.171-.25-.25-.234-.093-.89-.125-.64-.046-.64-.687 0-1.125 2.562-2.281 2.562-1.172 4.156-1.172 1.219 0 1.219.89 0 .485-.438.922-.937 1.235-4.234 6.875-3.297 5.641-3.563 6.875-.11.5-.11.578zm11-5.876q0-.406-.25-.703-.25-.297-.735-.453-.969-.312-2.016-.312-.797 0-.797-.735 0-.64.563-1.203.578-.562 1.172-.562 2.781 0 4.234-1.032 1.469-1.046 1.547-2.015 0-.781-.937-.781-1.329 0-2.329.609-.937.61-1.28 1.016l-.157.171q-.422.579-1.266.579-.843 0-.843-.72v-.062q.015-.484 1.28-2.328 1.266-1.86 2.079-1.922h.187q1.188 0 1.563.328.219-.203 2.437-.203 1.407 0 2.22.907.812.89.812 2.015t-.625 2.11q-.625.968-1.485 1.484-.86.5-1.672.844-.812.328-1.328.437-.515.094-.656.063h.328q-.14 0 .078.062.219.063.578.266.375.203.704.86.328.64.328 1.546 0 2.016-1.297 3.719-1.297 1.703-3.188 2.594-1.875.89-3.843.89-1.954 0-3.141-.187-1.188-.188-1.61-.516-.406-.328-.406-.875v-.062q.047-.485.703-1.813.657-1.344 1.672-2.703 1.016-1.375 1.969-1.375.86 0 .86.687 0 .172-.063.297-.844 1.688-.844 2.97 0 1.187 1.063 1.187 1.437 0 2.906-1.594 1.484-1.594 1.484-3.485z"/></g></svg>