<svg viewBox="0 0 1009.307 436.06" fill="none" stroke-linecap="square" stroke-miterlimit="10" xmlns="http://www.w3.org/2000/svg"><clipPath id="a"><path d="M0 0h1009.307v436.06H0V0z"/></clipPath><g clip-path="url(#a)"><path fill="none" d="M0 0h1009.307v436.06H0z"/><path fill="#76a5af" d="M792.987 312.198 836.184 266v21.598c62.195-8.787 110.348-35.727 125.021-69.946 21.459 50.04-34.071 100.294-125.021 113.143v21.599z" fill-rule="evenodd"/><path fill="#5e838b" d="M965.774 239.25c0-52.218-77.36-94.548-172.787-94.548v-43.197c95.428 0 172.787 42.33 172.787 94.547z" fill-rule="evenodd"/><path fill="none" d="M965.774 239.25c0-52.218-77.36-94.548-172.787-94.548v-43.197c95.428 0 172.787 42.33 172.787 94.547v43.197c0 43.114-53.301 80.767-129.59 91.545v21.599l-43.197-40.195L836.184 266v21.598c62.194-8.787 110.348-35.727 125.021-69.946"/><path stroke="#134f5c" stroke-linejoin="round" stroke-linecap="butt" d="M965.774 239.25c0-52.218-77.36-94.548-172.787-94.548v-43.197c95.428 0 172.787 42.33 172.787 94.547v43.197c0 43.114-53.301 80.767-129.59 91.545v21.599l-43.197-40.195L836.184 266v21.598c62.194-8.787 110.348-35.727 125.021-69.946"/><path fill="#d9ead3" d="M100.01 250.38h692.977v134.897H100.01z" fill-rule="evenodd"/><path stroke="#6aa84f" stroke-width="4" stroke-linejoin="round" stroke-linecap="butt" d="M100.01 250.38h692.977v134.897H100.01z"/><path fill="none" d="M116.73 288.276h656.724v87.905H116.73z"/><path fill="#38761d" d="M137.73 307.213v-.437q0-.86 3.562-.86 1.797 0 1.797.656 0 .266-.266.547-1.265 1.72-5.39 8.766l4.125.031q1.375 0 2.5-1.11.562-.593 1.015-1.109.454-.515 1.016-1.484.578-.969.906-1.531.469-.844 1.625-3.203 0-.172.25-.422t.594-.422q.36-.188 1.094-.313.734-.14 1.734-.14t1 .437q0 .188-.156.438-.14.25-1.734 2.687-1.579 2.438-3.188 5.063-1.594 2.61-3.375 5.672t-2.906 5.593q-1.11 2.532-1.11 3.704-.203.562-.828.562-1.828 0-2.531-.297-.703-.297-.703-.906 0-1.031 2.219-4.828 2.218-3.797 2.218-4.61 0-.812-.671-1.218-.672-.407-2.235-.407-1.562 0-2.172.032-1.125 1.843-2.593 4.718-1.47 2.86-2.47 4.688-1 1.828-1.593 2.297-1.234.937-3.031.937-1.031 0-1.031-.53 0-.298.875-1.782.89-1.485 2.843-4.672 1.969-3.188 3.407-5.578l-2.032.094q-.5 0-.5-.266 0-.563.719-1.125.719-.578 1.172-.734.469-.172 1.937-.235 1.235-2.11 3.172-5.844.735-1.593.735-2.859zm21.828 11.063-2.828-.094q-2.11 0-3.234 1.36-.797 1-2.125 3.265-1.313 2.265-1.313 3.61 0 1.218 2.438 1.218 1.5 0 3.203-.563 3.422-1.125 5.422-4.328.234-.297.796-.297.579 0 .579.657 0 .64-1.079 2.703-1.062 2.062-1.89 3.11-.438.53-1.688.593-1.25.062-3.812.062h-3.266l-1.906-.03-.89-.063h-.235q-.203 0-.5.297-1.11.968-3.14.968-.97 0-.97-.437v-.094q0-.375 2.313-4.36 2.328-3.984 5.156-8.874 2.844-4.907 3.64-6.719.798-1.813.798-3.11v-.374q0-.563 7.094-.563 2.343 0 4.062.063.5-.563 2.578-.563.86 0 .86.438 0 .765-1.516 3.078-1.516 2.312-2.64 3.156-.376.297-.938.297-.563 0-.563-.235 0-.109.094-.265.531-1.031.531-2.344 0-1.828-2.531-1.828-1.531 0-2.422.812-.875.797-1.75 2.235-.86 1.422-1.281 2.453-.406 1.031-.406 1.297 0 .797.78.984.782.188 3.11.188l2.469-.094q.328 0 .328.25t-.36.828q-.343.578-.702.813-.735.5-2.266.5zm7.16 11.234-.468-.031q-.453 0-.688.297-1.14.968-3.078.968-1 0-1-.437v-.094q0-.375 2.313-4.36 2.328-3.984 5.14-8.874 2.813-4.907 3.625-6.735.829-1.828.829-3.03v-.438q0-.86 3.562-.86 1.797 0 1.797.656 0 .266-.266.547-2.656 4.328-7.062 12.36l-.469.828q-.469.844-.672 1.187-.187.344-.61 1.203-.421.844-.609 1.375-.578 1.5-.578 2.344 0 1.219 2.203 1.219h.235q1.36 0 3-.563 3.203-1.125 5.203-4.328.125-.297.734-.297.625 0 .625.532 0 .797-1.062 2.875-1.063 2.062-1.938 3.062-.422.594-1.656.594-1.234.062-5.344.062l-3.765-.062zm17.431 0-.469-.031q-.453 0-.687.297-1.14.968-3.078.968-1 0-1-.437v-.094q0-.375 2.312-4.36 2.328-3.984 5.141-8.874 2.812-4.907 3.625-6.735.828-1.828.828-3.03v-.438q0-.86 3.563-.86 1.796 0 1.796.656 0 .266-.265.547-2.656 4.328-7.063 12.36l-.468.828q-.47.844-.672 1.187-.188.344-.61 1.203-.422.844-.609 1.375-.578 1.5-.578 2.344 0 1.219 2.203 1.219h.234q1.36 0 3-.563 3.203-1.125 5.203-4.328.125-.297.735-.297.625 0 .625.532 0 .797-1.063 2.875-1.062 2.062-1.937 3.062-.422.594-1.656.594-1.235.062-5.344.062l-3.766-.062zm36.693-18.203q0 1.875-.75 4.281-.75 2.39-2.218 4.89-1.454 2.5-3.375 4.626-1.922 2.11-4.547 3.468-2.61 1.344-5.391 1.344t-4.375-1.547q-1.594-1.562-1.594-4.297 0-1.859.735-4.25.75-2.406 2.218-4.906 1.47-2.5 3.375-4.594 1.922-2.109 4.532-3.453 2.625-1.359 5.406-1.359 2.797 0 4.39 1.531 1.594 1.531 1.594 4.266zm-3.922-.297q0-3.672-2.671-3.672-2.235 0-4.985 2.844-2.75 2.828-4.672 6.844-1.906 4.015-1.906 7.187 0 3.656 2.672 3.656 2.187 0 4.953-2.828 2.766-2.828 4.688-6.844 1.921-4.015 1.921-7.187zm18.39-3.86-.031-.734q0-.906 3.094-.906 1.937 0 1.937.969 0 .172-.062.234-.235 1.297-2.641 8.297-2.39 7-2.39 7.719 0 .718.656.718.5 0 .765-.265l1.172-1.172q.703-.703 3.828-5.047 3.14-4.344 5.032-7.516.64-1.265 4.203-1.265.906 0 .906.562l-.234.641q-1 2.031-2.704 7.172-1.703 5.125-1.703 6.015 0 .875.672.875.5 0 .766-.265l.937-.938q1.235-1.234 5.407-7.047 4.187-5.812 5.656-8.687.36-.734.828-.969.844-.39 2.937-.469h.672q1.735 0 1.735.579 0 .234-.313.53-3.266 3.095-9.578 10.516-6.312 7.407-8.578 10.72-.469.687-.734 1-.266.296-.875.687-1.125.734-3.954.734-1.64 0-1.64-.797l.11-.36q.187-.64.718-2.14.547-1.5.906-2.531.375-1.031.797-2.266.844-2.5.844-3.062 0-.578-.5-.578-.547 0-1.203.812-2.641 3.125-6.407 8.5-.625.89-1 1.281-.359.375-1.53.75-1.173.391-2.923.391-1.734 0-1.734-.797l.094-.36q1.172-3.374 3.109-9.702 1.953-6.328 2.656-9.297.297-1.703.297-2.531zm44.69 4.157q0 1.875-.75 4.281-.75 2.39-2.219 4.89-1.453 2.5-3.375 4.626-1.922 2.11-4.547 3.468-2.61 1.344-5.39 1.344-2.782 0-4.375-1.547-1.594-1.562-1.594-4.297 0-1.859.734-4.25.75-2.406 2.22-4.906 1.468-2.5 3.374-4.594 1.922-2.109 4.531-3.453 2.625-1.359 5.407-1.359 2.796 0 4.39 1.531 1.594 1.531 1.594 4.266zm-3.922-.297q0-3.672-2.672-3.672-2.234 0-4.984 2.844-2.75 2.828-4.672 6.844-1.906 4.015-1.906 7.187 0 3.656 2.672 3.656 2.187 0 4.953-2.828 2.765-2.828 4.687-6.844 1.922-4.015 1.922-7.187zm15.157 17.266.063 1q0 .53-1.594.53-2.797 0-2.797-1.062t1.485-4.593q1.484-3.547 1.484-4.407 0-1.765-2.172-1.765l-.531.031q-.406 0-.406-.297 0-.64.484-1.281.484-.656 1.219-.656 3.03 0 5.422-1.797 2.406-1.797 2.406-3.797 0-1.438-.89-2-.876-.563-2.407-.563-1.531 0-2.328.922-1.969 2.469-6.328 10.328-4.344 7.844-4.875 9.641-.297.828-1.547 1.219-1.25.406-2.438.406-1.172 0-1.172-.453v-.078q0-.36 2.297-4.25 2.297-3.907 5.078-8.688 2.782-4.781 3.594-6.61.828-1.843.828-3.109v-.328q0-.906 5.063-.906 5.437 0 7.156 1.094.734.469 1.25 1.375.516.89.516 2.297 0 1.406-1.141 2.843-1.125 1.422-2.406 2.11-1.281.672-2.547.984-1.266.297-1.906.5-.625.188-.625.625 0 .266.484.656.484.375.984.922.5.532.5 1.125 0 .594-1.109 3.453-1.094 2.844-1.094 4.579zm6.296 1.234-.468-.031q-.453 0-.688.297-1.14.968-3.078.968-1 0-1-.437v-.094q0-.375 2.313-4.36 2.328-3.984 5.14-8.874 2.813-4.907 3.625-6.735.828-1.828.828-3.03v-.438q0-.86 3.563-.86 1.797 0 1.797.656 0 .266-.266.547-2.656 4.328-7.062 12.36l-.47.828q-.468.844-.671 1.187-.188.344-.61 1.203-.421.844-.609 1.375-.578 1.5-.578 2.344 0 1.219 2.203 1.219h.235q1.359 0 3-.563 3.203-1.125 5.203-4.328.125-.297.734-.297.625 0 .625.532 0 .797-1.062 2.875-1.063 2.062-1.938 3.062-.422.594-1.656.594-1.235.062-5.344.062l-3.766-.062zm20.837.531q-1.765 0-2.265-.125-.5-.11-.86-.203-.344-.078-.453-.11-.094-.03-.297-.03-.39 0-.719.203-1.171.968-3.078.968-1 0-1-.453t2.313-4.453q2.328-4 5.14-8.89 2.813-4.907 3.625-6.735.829-1.828.829-3.172v-.265q0-.97 5.562-.97 8.266 0 8.266 5.641 0 4.063-2.766 8.97-1.437 2.562-3.375 4.702-1.922 2.125-4.812 3.532-2.875 1.39-6.11 1.39zm10.969-11.406q1.234-2.39 1.875-4.469.656-2.094.656-3.5 0-1.422-.828-2.156-.812-.734-2.75-.734-1.328 0-2.125.937-2.094 2.625-6.062 9.719-3.97 7.078-3.97 8.281 0 1.328 2.829 1.328 2 0 4.031-1.39 2.031-1.407 3.563-3.516 1.547-2.125 2.781-4.5zM539.727 307.213v-.437q0-.86 3.562-.86 1.797 0 1.797.656 0 .266-.265.547-1.266 1.72-5.391 8.766l4.125.031q1.375 0 2.5-1.11.562-.593 1.016-1.109.453-.515 1.015-1.484.578-.969.906-1.531.47-.844 1.625-3.203 0-.172.25-.422t.594-.422q.36-.188 1.094-.313.734-.14 1.734-.14t1 .437q0 .188-.156.438-.14.25-1.734 2.687-1.578 2.438-3.188 5.063-1.594 2.61-3.375 5.672t-2.906 5.593q-1.11 2.532-1.11 3.704-.203.562-.828.562-1.828 0-2.53-.297-.704-.297-.704-.906 0-1.031 2.219-4.828 2.219-3.797 2.219-4.61 0-.812-.672-1.218-.672-.407-2.235-.407-1.562 0-2.172.032-1.125 1.843-2.593 4.718-1.47 2.86-2.47 4.688-1 1.828-1.593 2.297-1.234.937-3.031.937-1.031 0-1.031-.53 0-.298.875-1.782.89-1.485 2.843-4.672 1.97-3.188 3.407-5.578l-2.032.094q-.5 0-.5-.266 0-.563.72-1.125.718-.578 1.171-.734.469-.172 1.938-.235 1.234-2.11 3.171-5.844.735-1.593.735-2.859zm21.828 11.063-2.828-.094q-2.11 0-3.234 1.36-.797 1-2.125 3.265-1.313 2.265-1.313 3.61 0 1.218 2.438 1.218 1.5 0 3.203-.563 3.422-1.125 5.422-4.328.234-.297.797-.297.578 0 .578.657 0 .64-1.078 2.703-1.063 2.062-1.891 3.11-.438.53-1.688.593-1.25.062-3.812.062h-3.266l-1.906-.03-.89-.063h-.235q-.203 0-.5.297-1.11.968-3.14.968-.97 0-.97-.437v-.094q0-.375 2.313-4.36 2.328-3.984 5.156-8.874 2.844-4.907 3.641-6.719.797-1.813.797-3.11v-.374q0-.563 7.094-.563 2.343 0 4.062.063.5-.563 2.578-.563.86 0 .86.438 0 .765-1.516 3.078-1.516 2.312-2.64 3.156-.376.297-.938.297-.563 0-.563-.235 0-.109.094-.265.531-1.031.531-2.344 0-1.828-2.53-1.828-1.532 0-2.423.812-.875.797-1.75 2.235-.86 1.422-1.281 2.453-.406 1.031-.406 1.297 0 .797.781.984.781.188 3.11.188l2.468-.094q.328 0 .328.25t-.36.828q-.343.578-.702.813-.735.5-2.266.5zm7.16 11.234-.468-.031q-.453 0-.687.297-1.141.968-3.079.968-1 0-1-.437v-.094q0-.375 2.313-4.36 2.328-3.984 5.14-8.874 2.813-4.907 3.626-6.735.828-1.828.828-3.03v-.438q0-.86 3.562-.86 1.797 0 1.797.656 0 .266-.266.547-2.656 4.328-7.062 12.36l-.469.828q-.469.844-.672 1.187-.187.344-.61 1.203-.42.844-.608 1.375-.579 1.5-.579 2.344 0 1.219 2.204 1.219h.234q1.36 0 3-.563 3.203-1.125 5.203-4.328.125-.297.734-.297.625 0 .625.532 0 .797-1.062 2.875-1.063 2.062-1.938 3.062-.421.594-1.656.594-1.234.062-5.344.062l-3.765-.062zm20.4-22.36-.031-.734q0-.906 3.094-.906 1.937 0 1.937.969 0 .172-.062.234-.235 1.297-2.641 8.297-2.39 7-2.39 7.719 0 .718.656.718.5 0 .765-.265l1.172-1.172q.703-.703 3.828-5.047 3.14-4.344 5.031-7.516.641-1.265 4.204-1.265.906 0 .906.562l-.235.641q-1 2.031-2.703 7.172-1.703 5.125-1.703 6.015 0 .875.672.875.5 0 .766-.265l.937-.938q1.235-1.234 5.406-7.047 4.188-5.812 5.657-8.687.36-.734.828-.969.844-.39 2.937-.469h.672q1.735 0 1.735.579 0 .234-.313.53-3.266 3.095-9.578 10.516-6.313 7.407-8.578 10.72-.469.687-.735 1-.265.296-.875.687-1.125.734-3.953.734-1.64 0-1.64-.797l.11-.36q.187-.64.718-2.14.547-1.5.906-2.531.375-1.031.797-2.266.844-2.5.844-3.062 0-.578-.5-.578-.547 0-1.203.812-2.641 3.125-6.407 8.5-.625.89-1 1.281-.359.375-1.53.75-1.173.391-2.923.391-1.734 0-1.734-.797l.094-.36q1.171-3.374 3.109-9.702 1.953-6.328 2.656-9.297.297-1.703.297-2.531zm21.927 22.36-.468-.031q-.453 0-.688.297-1.14.968-3.078.968-1 0-1-.437v-.094q0-.375 2.313-4.36 2.328-3.984 5.14-8.874 2.813-4.907 3.625-6.735.828-1.828.828-3.03v-.438q0-.86 3.563-.86 1.797 0 1.797.656 0 .266-.266.547-2.656 4.328-7.062 12.36l-.47.828q-.468.844-.671 1.187-.188.344-.61 1.203-.421.844-.609 1.375-.578 1.5-.578 2.344 0 1.219 2.203 1.219h.235q1.359 0 3-.563 3.203-1.125 5.203-4.328.125-.297.734-.297.625 0 .625.532 0 .797-1.062 2.875-1.063 2.062-1.938 3.062-.422.594-1.656.594-1.235.062-5.344.062l-3.766-.062zm24.966-7.672.032-.734q0-.657-.532-.657-.437 0-1.093.532-1.907 1.672-4.016 3.89-2.094 2.203-2.781 3.141-.672.937-.89 1.156-.22.203-1.188.563-.97.375-2.25.375-1.282 0-1.282-.39 0-.845 13.094-11.907 1.172-.922 1.235-2.422.14-2.469.14-3.672 0-3.375-.562-5.062l-.172-.5q0-.579 2.469-.579 1.203 0 1.703.391.5.375.5 1.422 0 1.031-.235 4.36 0 .906.625.906.344 0 .766-.375 4.406-3.891 5.187-4.891.782-1 1.282-1.234 1-.407 2.797-.47h.578q1.625 0 1.625.532 0 .297-.47.563-4.233 2.406-11.155 8.062-.172.11-.422.297-.25.172-.688.875-.422.703-.5 1.531-.234 4.203-.234 6.938 0 3.125.469 4.062.14.266.14.438 0 .5-1.015.718-1.016.22-1.953.22-.938 0-1.204-.407-.265-.406-.265-1.64 0-1.235.265-6.032zm17.898 0 .03-.734q0-.657-.53-.657-.438 0-1.094.532-1.906 1.672-4.016 3.89-2.094 2.203-2.781 3.141-.672.937-.89 1.156-.22.203-1.188.563-.969.375-2.25.375-1.281 0-1.281-.39 0-.845 13.093-11.907 1.172-.922 1.235-2.422.14-2.469.14-3.672 0-3.375-.562-5.062l-.172-.5q0-.579 2.469-.579 1.203 0 1.703.391.5.375.5 1.422 0 1.031-.235 4.36 0 .906.625.906.344 0 .766-.375 4.406-3.891 5.188-4.891.78-1 1.28-1.234 1-.407 2.798-.47h.578q1.625 0 1.625.532 0 .297-.469.563-4.234 2.406-11.156 8.062-.172.11-.422.297-.25.172-.688.875-.421.703-.5 1.531-.234 4.203-.234 6.938 0 3.125.469 4.062.14.266.14.438 0 .5-1.015.718-1.016.22-1.953.22-.938 0-1.203-.407-.266-.406-.266-1.64 0-1.235.266-6.032zm13.334 8.203q-1.765 0-2.265-.125-.5-.11-.86-.203-.343-.078-.453-.11-.094-.03-.297-.03-.39 0-.718.203-1.172.968-3.079.968-1 0-1-.453t2.313-4.453q2.328-4 5.14-8.89 2.813-4.907 3.626-6.735.828-1.828.828-3.172v-.265q0-.97 5.562-.97 8.266 0 8.266 5.641 0 4.063-2.766 8.97-1.437 2.562-3.375 4.702-1.922 2.125-4.812 3.532-2.875 1.39-6.11 1.39zm10.969-11.406q1.234-2.39 1.875-4.469.656-2.094.656-3.5 0-1.422-.828-2.156-.812-.734-2.75-.734-1.328 0-2.125.937-2.094 2.625-6.062 9.719-3.97 7.078-3.97 8.281 0 1.328 2.829 1.328 2 0 4.031-1.39 2.032-1.407 3.563-3.516 1.547-2.125 2.781-4.5zm26.851-7.328q0 1.875-.75 4.281-.75 2.39-2.219 4.89-1.453 2.5-3.375 4.626-1.922 2.11-4.547 3.468-2.609 1.344-5.39 1.344-2.781 0-4.375-1.547-1.594-1.562-1.594-4.297 0-1.859.734-4.25.75-2.406 2.22-4.906 1.468-2.5 3.374-4.594 1.922-2.109 4.531-3.453 2.625-1.359 5.407-1.359 2.797 0 4.39 1.531 1.594 1.531 1.594 4.266zm-3.922-.297q0-3.672-2.672-3.672-2.234 0-4.984 2.844-2.75 2.828-4.672 6.844-1.906 4.015-1.906 7.187 0 3.656 2.672 3.656 2.187 0 4.953-2.828 2.765-2.828 4.687-6.844 1.922-4.015 1.922-7.187zm15.157 17.266.063 1q0 .53-1.594.53-2.797 0-2.797-1.062t1.485-4.593q1.484-3.547 1.484-4.407 0-1.765-2.172-1.765l-.531.031q-.406 0-.406-.297 0-.64.484-1.281.484-.656 1.219-.656 3.031 0 5.422-1.797 2.406-1.797 2.406-3.797 0-1.438-.89-2-.876-.563-2.407-.563-1.531 0-2.328.922-1.969 2.469-6.328 10.328-4.344 7.844-4.875 9.641-.297.828-1.547 1.219-1.25.406-2.438.406-1.171 0-1.171-.453v-.078q0-.36 2.296-4.25 2.297-3.907 5.079-8.688 2.78-4.781 3.593-6.61.828-1.843.828-3.109v-.328q0-.906 5.063-.906 5.437 0 7.156 1.094.735.469 1.25 1.375.516.89.516 2.297 0 1.406-1.14 2.843-1.126 1.422-2.407 2.11-1.281.672-2.547.984-1.266.297-1.906.5-.625.188-.625.625 0 .266.484.656.485.375.985.922.5.532.5 1.125 0 .594-1.11 3.453-1.094 2.844-1.094 4.579zm27.192-16.97q0 1.876-.75 4.282-.75 2.39-2.218 4.89-1.454 2.5-3.375 4.626-1.922 2.11-4.547 3.468-2.61 1.344-5.39 1.344-2.782 0-4.376-1.547-1.594-1.562-1.594-4.297 0-1.859.735-4.25.75-2.406 2.218-4.906 1.47-2.5 3.375-4.594 1.922-2.109 4.532-3.453 2.625-1.359 5.406-1.359 2.797 0 4.39 1.531 1.594 1.531 1.594 4.266zm-3.922-.296q0-3.672-2.671-3.672-2.235 0-4.985 2.844-2.75 2.828-4.672 6.844-1.906 4.015-1.906 7.187 0 3.656 2.672 3.656 2.187 0 4.953-2.828 2.766-2.828 4.688-6.844 1.921-4.015 1.921-7.187zm3.423 18.5-.468-.031q-.454 0-.688.297-1.14.968-3.078.968-1 0-1-.437v-.094q0-.375 2.312-4.36 2.329-3.984 5.141-8.874 2.813-4.907 3.625-6.735.828-1.828.828-3.03v-.438q0-.86 3.563-.86 1.797 0 1.797.656 0 .266-.266.547-2.656 4.328-7.063 12.36l-.468.828q-.469.844-.672 1.187-.188.344-.61 1.203-.421.844-.609 1.375-.578 1.5-.578 2.344 0 1.219 2.203 1.219h.234q1.36 0 3-.563 3.204-1.125 5.204-4.328.125-.297.734-.297.625 0 .625.532 0 .797-1.063 2.875-1.062 2.062-1.937 3.062-.422.594-1.656.594-1.235.062-5.344.062l-3.766-.062z"/><defs><radialGradient id="b" gradientUnits="userSpaceOnUse" gradientTransform="scale(8.32987)" spreadMethod="pad" cx="51.408" cy="38.155" fx="51.408" fy="38.155" r="8.33"><stop offset="0" stop-color="#dcecd5"/><stop offset="1" stop-color="#93bc81"/></radialGradient></defs><path fill="url(#b)" d="M362.286 307.025h110.268v-10.803l21.606 21.606-21.606 21.606v-10.803H362.286z" fill-rule="evenodd"/><path stroke="#38761d" stroke-linejoin="round" stroke-linecap="butt" d="M362.286 307.025h110.268v-10.803l21.606 21.606-21.606 21.606v-10.803H362.286z"/><path fill="#d0e0e3" d="M585.095 18.399h207.874v189.512H585.094z" fill-rule="evenodd"/><path stroke="#45818e" stroke-width="4" stroke-linejoin="round" stroke-linecap="butt" d="M585.095 18.399h207.874v189.512H585.094z"/><path fill="none" d="M494.16 5.533h332.315v139.842H494.16z"/><path fill="#000" d="M661.566 26.448v-.515q0-1.047 4.282-1.047 2.156 0 2.156.812 0 .313-.328.641-1.516 2.078-6.469 10.516l4.953.03q1.64 0 3-1.312.688-.718 1.219-1.328.547-.625 1.219-1.78.687-1.173 1.078-1.845.562-1 1.968-3.843 0-.204.297-.5.297-.297.72-.516.421-.234 1.296-.39.89-.157 2.078-.157 1.203 0 1.203.516 0 .25-.187.547-.172.296-2.078 3.218-1.891 2.922-3.813 6.063-1.922 3.14-4.062 6.828-2.141 3.672-3.485 6.719-1.328 3.03-1.328 4.422-.25.687-1 .687-2.203 0-3.047-.36-.844-.359-.844-1.077 0-1.25 2.657-5.797 2.672-4.563 2.672-5.547 0-.985-.813-1.453-.797-.485-2.672-.485t-2.594.032q-1.359 2.203-3.125 5.656-1.765 3.437-2.968 5.64-1.188 2.188-1.907 2.75-1.484 1.125-3.64 1.125-1.25 0-1.25-.64 0-.36 1.062-2.14 1.063-1.782 3.422-5.595 2.36-3.828 4.078-6.703l-2.437.11q-.594 0-.594-.313 0-.687.86-1.36.859-.687 1.406-.874.562-.203 2.328-.297 1.484-2.516 3.797-7 .89-1.906.89-3.438zm26.195 13.282-3.407-.11q-2.515 0-3.875 1.625-.953 1.203-2.546 3.922-1.579 2.719-1.579 4.328 0 1.485 2.922 1.485 1.797 0 3.844-.688 4.125-1.36 6.516-5.203.28-.36.953-.36.687 0 .687.782 0 .781-1.28 3.266-1.282 2.468-2.282 3.718-.516.64-2.016.72-1.5.077-4.578.077h-3.922l-2.281-.047-1.078-.078h-.281q-.235 0-.594.36-1.328 1.171-3.766 1.171-1.156 0-1.156-.53v-.11q0-.438 2.781-5.219 2.781-4.781 6.172-10.656 3.406-5.89 4.36-8.063.968-2.187.968-3.75v-.437q0-.688 8.516-.688 2.797 0 4.875.094.61-.687 3.094-.687 1.03 0 1.03.515 0 .922-1.827 3.703-1.813 2.782-3.172 3.782-.438.359-1.125.359-.672 0-.672-.281 0-.11.125-.313.64-1.25.64-2.797 0-2.203-3.046-2.203-1.844 0-2.907.969-1.046.953-2.093 2.672-1.047 1.719-1.547 2.953-.5 1.234-.5 1.562 0 .954.937 1.188.953.219 3.75.219l2.953-.125q.407 0 .407.297 0 .296-.422 1-.422.703-.86.984-.875.594-2.718.594zm8.602 13.484-.562-.047q-.563 0-.844.36-1.36 1.171-3.672 1.171-1.203 0-1.203-.53v-.11q0-.438 2.781-5.219 2.781-4.781 6.156-10.656 3.375-5.89 4.36-8.094.984-2.203.984-3.64v-.516q0-1.047 4.281-1.047 2.157 0 2.157.812 0 .313-.328.641-3.188 5.188-8.47 14.828l-.562 1q-.562 1-.812 1.422-.235.422-.735 1.453-.5 1.016-.734 1.656-.687 1.797-.687 2.797 0 1.485 2.64 1.485h.281q1.641 0 3.61-.688 3.844-1.36 6.234-5.203.156-.36.89-.36.75 0 .75.641 0 .97-1.28 3.453-1.282 2.47-2.313 3.672-.531.72-2 .72-1.484.077-6.406.077l-4.516-.078zM652.363 101.214l-.562-.047q-.563 0-.844.36-1.36 1.171-3.672 1.171-1.203 0-1.203-.53v-.11q0-.438 2.781-5.219 2.781-4.781 6.156-10.656 3.375-5.89 4.36-8.094.984-2.203.984-3.64v-.516q0-1.047 4.281-1.047 2.157 0 2.157.812 0 .313-.328.641-3.188 5.188-8.47 14.828l-.562 1q-.562 1-.812 1.422-.235.422-.735 1.453-.5 1.016-.734 1.656-.687 1.797-.687 2.797 0 1.485 2.64 1.485h.281q1.641 0 3.61-.688 3.844-1.36 6.234-5.203.156-.36.89-.36.75 0 .75.641 0 .969-1.28 3.453-1.282 2.47-2.313 3.672-.531.719-2 .719-1.484.078-6.406.078l-4.516-.078zm44.032-21.844q0 2.25-.906 5.125-.89 2.875-2.656 5.875-1.75 3-4.063 5.547-2.297 2.531-5.437 4.156-3.125 1.625-6.47 1.625-3.343 0-5.265-1.859-1.922-1.86-1.922-5.14 0-2.25.89-5.126.907-2.875 2.673-5.875 1.765-3 4.062-5.515 2.297-2.531 5.438-4.14 3.14-1.626 6.484-1.626t5.25 1.844q1.922 1.828 1.922 5.11zm-4.719-.36q0-4.39-3.203-4.39-2.672 0-5.969 3.407-3.296 3.39-5.609 8.218-2.297 4.813-2.297 8.61 0 4.39 3.203 4.39 2.64 0 5.953-3.39 3.329-3.407 5.625-8.22 2.297-4.827 2.297-8.624zm7.69-4.64-.047-.875q0-1.078 3.719-1.078 2.328 0 2.328 1.156 0 .204-.078.282-.282 1.562-3.172 9.968-2.875 8.391-2.875 9.25 0 .86.797.86.609 0 .921-.313.563-.562 1.391-1.406.844-.844 4.61-6.062 3.765-5.22 6.046-9.016.75-1.516 5.032-1.516 1.078 0 1.078.672l-.282.766q-1.187 2.437-3.234 8.594-2.047 6.156-2.047 7.218 0 1.063.813 1.063.593 0 .922-.313.546-.562 1.109-1.125 1.484-1.484 6.5-8.453 5.016-6.984 6.781-10.422.438-.89 1-1.172 1-.468 3.516-.562h.812q2.078 0 2.078.687 0 .282-.359.641-3.922 3.719-11.5 12.625-7.578 8.89-10.312 12.86-.547.828-.875 1.187-.313.36-1.032.844-1.36.89-4.765.89-1.953 0-1.953-.968l.109-.438q.25-.766.875-2.562.64-1.797 1.078-3.032.453-1.25.969-2.734 1-3 1-3.672 0-.687-.594-.687-.64 0-1.437.968-3.172 3.75-7.688 10.203-.766 1.079-1.203 1.547-.438.453-1.844.907-1.39.468-3.5.468-2.094 0-2.094-.968l.125-.438q1.391-4.047 3.735-11.64 2.344-7.594 3.187-11.157.36-2.047.36-3.047zM677.035 127.37q0 2.25-.906 5.125-.89 2.875-2.656 5.875-1.75 3-4.063 5.547-2.297 2.531-5.437 4.156-3.125 1.625-6.47 1.625-3.343 0-5.265-1.859-1.922-1.86-1.922-5.14 0-2.25.891-5.126.906-2.875 2.672-5.875 1.765-3 4.062-5.515 2.297-2.531 5.438-4.14 3.14-1.626 6.484-1.626t5.25 1.844q1.922 1.828 1.922 5.11zm-4.719-.36q0-4.39-3.203-4.39-2.672 0-5.969 3.407-3.296 3.39-5.609 8.218-2.297 4.813-2.297 8.61 0 4.39 3.203 4.39 2.641 0 5.953-3.39 3.329-3.407 5.625-8.22 2.297-4.827 2.297-8.624zm18.205 20.72.078 1.203q0 .64-1.921.64-3.36 0-3.36-1.28 0-1.282 1.781-5.516 1.782-4.25 1.782-5.282 0-2.125-2.594-2.125l-.64.047q-.485 0-.485-.36 0-.765.578-1.546t1.453-.781q3.64 0 6.516-2.157 2.89-2.156 2.89-4.562 0-1.719-1.062-2.39-1.063-.688-2.906-.688-1.828 0-2.797 1.125-2.36 2.953-7.578 12.375-5.22 9.422-5.86 11.578-.36 1-1.86 1.484-1.5.485-2.92.485-1.423 0-1.423-.563v-.078q0-.453 2.766-5.125 2.765-4.687 6.094-10.422 3.343-5.734 4.328-7.937.984-2.203.984-3.72v-.405q0-1.078 6.078-1.078 6.516 0 8.594 1.328.89.547 1.5 1.64.625 1.078.625 2.766 0 1.672-1.36 3.39-1.359 1.72-2.906 2.547-1.53.813-3.062 1.172-1.516.36-2.281.61-.75.234-.75.75 0 .312.578.78.578.454 1.172 1.095.609.64.609 1.359t-1.328 4.14q-1.313 3.423-1.313 5.5zm7.562 1.484-.562-.047q-.563 0-.844.36-1.36 1.171-3.672 1.171-1.203 0-1.203-.53v-.11q0-.438 2.781-5.219 2.781-4.781 6.156-10.656 3.375-5.89 4.36-8.094.984-2.203.984-3.64v-.516q0-1.047 4.281-1.047 2.157 0 2.157.812 0 .313-.328.641-3.188 5.188-8.47 14.828l-.562 1q-.562 1-.812 1.422-.235.422-.735 1.453-.5 1.016-.734 1.656-.687 1.797-.687 2.797 0 1.485 2.64 1.485h.281q1.641 0 3.61-.688 3.844-1.36 6.234-5.203.156-.36.89-.36.75 0 .75.641 0 .969-1.28 3.453-1.282 2.47-2.313 3.672-.531.719-2 .719-1.484.078-6.406.078l-4.516-.078zM656.441 197.855q-2.125 0-2.734-.14-.594-.142-1.016-.25-.406-.095-.53-.142-.126-.03-.36-.03-.485 0-.875.234-1.407 1.171-3.688 1.171-1.203 0-1.203-.546 0-.532 2.781-5.329 2.782-4.812 6.157-10.687 3.39-5.89 4.359-8.078.984-2.203.984-3.813v-.312q0-1.156 6.688-1.156 9.922 0 9.922 6.75 0 4.89-3.328 10.765-1.72 3.078-4.047 5.64-2.313 2.563-5.782 4.25-3.453 1.673-7.328 1.673zm13.157-13.703q1.484-2.86 2.265-5.36.781-2.5.781-4.203 0-1.703-.984-2.578-.984-.875-3.297-.875-1.61 0-2.562 1.11-2.516 3.171-7.282 11.671-4.765 8.5-4.765 9.938 0 1.593 3.406 1.593 2.406 0 4.844-1.671 2.437-1.688 4.265-4.22 1.844-2.546 3.329-5.405zm13.688 3.859.031-.875q0-.797-.64-.797-.516 0-1.313.64-2.281 2-4.813 4.657-2.515 2.656-3.343 3.781-.813 1.11-1.079 1.375-.25.266-1.406.703-1.156.438-2.703.438t-1.547-.485q0-1 15.735-14.28 1.39-1.11 1.468-2.923.157-2.953.157-4.39 0-4.047-.672-6.078l-.203-.61q0-.672 2.968-.672 1.438 0 2.032.47.609.452.609 1.687 0 1.234-.281 5.234 0 1.094.75 1.094.406 0 .922-.453 5.28-4.672 6.218-5.875.938-1.204 1.547-1.485 1.203-.469 3.36-.547h.671q1.97 0 1.97.625 0 .375-.563.688-5.078 2.875-13.407 9.687-.187.11-.5.328-.296.22-.812 1.063-.516.844-.61 1.844-.265 5.03-.265 8.312 0 3.766.547 4.89.172.313.172.516 0 .594-1.235.86-1.218.265-2.343.265-1.11 0-1.438-.484-.312-.484-.312-1.953 0-1.484.328-7.25zm21.48 0 .03-.875q0-.797-.64-.797-.515 0-1.312.64-2.281 2-4.813 4.657-2.515 2.656-3.343 3.781-.813 1.11-1.079 1.375-.25.266-1.406.703-1.156.438-2.703.438t-1.547-.485q0-1 15.735-14.28 1.39-1.11 1.468-2.923.157-2.953.157-4.39 0-4.047-.672-6.078l-.203-.61q0-.672 2.968-.672 1.438 0 2.032.47.609.452.609 1.687 0 1.234-.281 5.234 0 1.094.75 1.094.406 0 .922-.453 5.28-4.672 6.218-5.875.938-1.204 1.547-1.485 1.203-.469 3.36-.547h.671q1.97 0 1.97.625 0 .375-.563.688-5.078 2.875-13.407 9.687-.187.11-.5.328-.296.22-.812 1.063-.516.844-.61 1.844-.265 5.03-.265 8.312 0 3.766.547 4.89.172.313.172.516 0 .594-1.235.86-1.218.265-2.343.265-1.11 0-1.438-.484-.312-.484-.312-1.953 0-1.484.328-7.25z"/><path fill="#a2c4c9" d="M567.745 36.588h62.457v-5.04l10.079 10.08-10.079 10.078v-5.04h-62.457z" fill-rule="evenodd"/><path stroke="#45818e" stroke-linejoin="round" stroke-linecap="butt" d="M567.745 36.588h62.457v-5.04l10.079 10.08-10.079 10.078v-5.04h-62.457z"/><path fill="#45818e" d="M516.753 40.005c0-11.933 9.089-21.606 20.3-21.606 5.383 0 10.546 2.276 14.353 6.328 3.807 4.052 5.946 9.548 5.946 15.278 0 11.933-9.089 21.607-20.3 21.607-11.21 0-20.299-9.674-20.299-21.607z" fill-rule="evenodd"/><path stroke="#134f5c" stroke-width="3" stroke-linejoin="round" stroke-linecap="butt" d="M516.753 40.005c0-11.933 9.089-21.606 20.3-21.606 5.383 0 10.546 2.276 14.353 6.328 3.807 4.052 5.946 9.548 5.946 15.278 0 11.933-9.089 21.607-20.3 21.607-11.21 0-20.299-9.674-20.299-21.607z"/><path fill="none" d="M522.129 18.399h28.252v37.7h-28.252z"/><path fill="#d0e0e3" d="M540.27 47.879h-8.126v-1.906h2V34.785h-2V32.88h6.125v13.094h2v1.906z"/><path fill="#45818e" d="M743.06 41.627c0-11.933 9.089-21.606 20.3-21.606 5.383 0 10.546 2.276 14.353 6.328 3.807 4.052 5.946 9.548 5.946 15.278 0 11.933-9.089 21.607-20.3 21.607-11.21 0-20.299-9.674-20.299-21.607z" fill-rule="evenodd"/><path stroke="#134f5c" stroke-width="3" stroke-linejoin="round" stroke-linecap="butt" d="M743.06 41.627c0-11.933 9.089-21.606 20.3-21.606 5.383 0 10.546 2.276 14.353 6.328 3.807 4.052 5.946 9.548 5.946 15.278 0 11.933-9.089 21.607-20.3 21.607-11.21 0-20.299-9.674-20.299-21.607z"/><path fill="none" d="M745.35 20.021h34.424v37.7H745.35z"/><path fill="#d0e0e3" d="M769.193 39.017q0 .921-.25 1.593-.25.672-.672 1.157-.422.468-1 .796-.578.329-1.234.579-.657.25-1.36.453-.703.203-1.39.422-.688.218-1.329.5-.625.28-1.14.687-.516.406-.875.984-.36.579-.5 1.391h9.75v1.922H754.99q.234-1.438.656-2.484.437-1.047 1-1.797.562-.75 1.219-1.25.656-.516 1.36-.86.702-.343 1.405-.578l1.36-.453q.656-.219 1.218-.469.579-.25 1-.609.422-.36.657-.89.234-.532.234-1.298 0-.718-.234-1.25-.235-.53-.657-.875-.406-.359-.984-.53-.562-.188-1.203-.188-.688 0-1.266.25-.578.25-1.047.703-.453.453-.796 1.094-.329.64-.516 1.406l-3.188-1.766q.422-.875 1.204-1.515.796-.641 1.75-1.079.953-.437 1.984-.64 1.047-.219 1.969-.219.906 0 1.78.078.876.063 1.657.266t1.438.547q.672.343 1.156.875.5.531.766 1.281.28.75.28 1.766z"/><path fill="#45818e" d="M728.339 221.79c0-11.933 9.088-21.606 20.299-21.606 5.383 0 10.547 2.276 14.354 6.328 3.806 4.052 5.945 9.548 5.945 15.278 0 11.933-9.088 21.606-20.3 21.606-11.21 0-20.298-9.673-20.298-21.606z" fill-rule="evenodd"/><path stroke="#134f5c" stroke-width="3" stroke-linejoin="round" stroke-linecap="butt" d="M728.339 221.79c0-11.933 9.088-21.606 20.299-21.606 5.383 0 10.547 2.276 14.354 6.328 3.806 4.052 5.945 9.548 5.945 15.278 0 11.933-9.088 21.606-20.3 21.606-11.21 0-20.298-9.673-20.298-21.606z"/><path fill="none" d="M730.627 200.184h31.339v37.7h-31.339z"/><path fill="#d0e0e3" d="M747.05 229.96q-.938 0-2.016-.218-1.079-.203-2.11-.625-1.015-.438-1.86-1.078-.827-.657-1.25-1.532l3.72-1.765q0 .719.296 1.36.297.624.782 1.093.5.469 1.125.75.625.266 1.312.266.64 0 1.25-.188.625-.203 1.094-.578.469-.375.75-.922.297-.547.297-1.25 0-.781-.266-1.344-.25-.562-.719-.906-.468-.36-1.093-.516-.61-.171-1.313-.171h-2.031v-1.782h2.031q.485 0 .938-.125.468-.125.828-.375.36-.265.578-.656.219-.39.219-.906 0-.578-.203-.969-.188-.406-.547-.64-.344-.25-.813-.36-.469-.11-1-.11t-1.015.141q-.485.125-.86.407-.375.265-.61.671-.234.407-.234.97l-2.968-2.188q.437-.532 1.125-.922.687-.39 1.468-.625.797-.235 1.594-.344.813-.11 1.5-.11.625 0 1.328.079.703.062 1.375.234.688.156 1.328.438.641.281 1.11.718.484.422.765 1.016.297.594.297 1.39 0 .47-.218.923-.204.453-.547.843-.328.375-.75.672-.422.297-.86.469.72.156 1.391.516.672.359 1.172.89.5.516.797 1.203.297.672.297 1.47 0 1-.344 1.75-.328.75-.906 1.265-.563.515-1.313.843-.75.329-1.594.516-.828.188-1.687.25-.86.063-1.64.063z"/><path fill="#a2c4c9" d="M768.399 72.84v99.244h5.04l-10.08 10.079-10.078-10.079h5.04V72.84z" fill-rule="evenodd"/><path stroke="#45818e" stroke-linejoin="round" stroke-linecap="butt" d="M768.399 72.84v99.244h5.04l-10.08 10.079-10.078-10.079h5.04V72.84z"/><path fill="#a2c4c9" d="M720.315 226.83h-62.457v5.039L647.78 221.79l10.078-10.079v5.04h62.457z" fill-rule="evenodd"/><path stroke="#45818e" stroke-linejoin="round" stroke-linecap="butt" d="M720.315 226.83h-62.457v5.039L647.78 221.79l10.078-10.079v5.04h62.457z"/><path fill="#45818e" d="M567.745 131.709c0-11.933 9.089-21.607 20.3-21.607 5.383 0 10.546 2.277 14.353 6.329 3.807 4.052 5.946 9.547 5.946 15.278 0 11.932-9.088 21.606-20.3 21.606-11.21 0-20.299-9.674-20.299-21.606z" fill-rule="evenodd"/><path stroke="#134f5c" stroke-width="3" stroke-linejoin="round" stroke-linecap="butt" d="M567.745 131.709c0-11.933 9.089-21.607 20.3-21.607 5.383 0 10.546 2.277 14.353 6.329 3.807 4.052 5.946 9.547 5.946 15.278 0 11.932-9.088 21.606-20.3 21.606-11.21 0-20.299-9.674-20.299-21.606z"/><path fill="none" d="M570.034 110.102h31.339v37.701h-31.339z"/><path fill="#d0e0e3" d="M593.05 136.16h-1.047v3.422h-4.125v-3.422H579.3q.281-1.187.734-2.437.453-1.25 1.016-2.469.562-1.219 1.234-2.375.672-1.172 1.39-2.203h2.891q-.89 1.484-1.5 2.844-.593 1.36-.953 2.422-.437 1.25-.672 2.312h4.438v-9.672h4.125v9.672h1.047v1.906z"/><path fill="#a2c4c9" d="M616.034 126.67h24.378v-5.04l10.079 10.079-10.079 10.078v-5.039h-24.378z" fill-rule="evenodd"/><path stroke="#45818e" stroke-linejoin="round" stroke-linecap="butt" d="M616.034 126.67h24.378v-5.04l10.079 10.079-10.079 10.078v-5.039h-24.378z"/><path fill="#45818e" d="M567.745 80.904c0-11.933 9.089-21.606 20.3-21.606 5.383 0 10.546 2.276 14.353 6.328 3.807 4.052 5.946 9.548 5.946 15.278 0 11.933-9.088 21.607-20.3 21.607-11.21 0-20.299-9.674-20.299-21.607z" fill-rule="evenodd"/><path stroke="#134f5c" stroke-width="3" stroke-linejoin="round" stroke-linecap="butt" d="M567.745 80.904c0-11.933 9.089-21.606 20.3-21.606 5.383 0 10.546 2.276 14.353 6.328 3.807 4.052 5.946 9.548 5.946 15.278 0 11.933-9.088 21.607-20.3 21.607-11.21 0-20.299-9.674-20.299-21.607z"/><path fill="none" d="M570.034 59.298h31.339v37.7h-31.339z"/><path fill="#d0e0e3" d="M594.222 84.169q0 1.015-.344 1.78-.344.75-.906 1.298-.563.547-1.329.906-.75.344-1.578.562-.828.204-1.703.282-.86.078-1.64.078-.922 0-2.016-.219-1.078-.203-2.11-.625-1.015-.437-1.843-1.078-.828-.656-1.266-1.531l3.719-1.766q0 .719.297 1.36.297.624.781 1.093.5.469 1.125.75.64.266 1.313.266.64 0 1.25-.219.625-.234 1.093-.64.485-.422.766-1 .297-.579.297-1.297 0-.782-.266-1.375-.265-.594-.734-.985-.453-.39-1.078-.578-.625-.203-1.328-.203-1.641 0-2.844.14-1.203.126-1.985.282-.906.187-1.53.406l1.562-8.078h11.047V75.7h-7.641l-.734 3.656q.453-.047.984-.062.531-.032 1.14-.032 1.391 0 2.485.219 1.094.219 1.922.594.844.36 1.422.86.578.484.953 1.03.375.547.547 1.11.172.562.172 1.094z"/><path fill="#a2c4c9" d="M650.49 85.945h-24.377v5.04l-10.079-10.08 10.079-10.078v5.04h24.378z" fill-rule="evenodd"/><path stroke="#45818e" stroke-linejoin="round" stroke-linecap="butt" d="M650.49 85.945h-24.377v5.04l-10.079-10.08 10.079-10.078v5.04h24.378z"/><path fill="#ead1dc" d="M257.092 18.399h207.874v189.512H257.092z" fill-rule="evenodd"/><path stroke="#a64d79" stroke-width="4" stroke-linejoin="round" stroke-linecap="butt" d="M257.092 18.399h207.874v189.512H257.092z"/><path fill="#d5a6bd" d="M314.312 39.079h88.662v-5.04l10.078 10.08-10.078 10.078v-5.04h-88.662z" fill-rule="evenodd"/><path stroke="#a64d79" stroke-linejoin="round" stroke-linecap="butt" d="M314.312 39.079h88.662v-5.04l10.078 10.08-10.078 10.078v-5.04h-88.662z"/><path fill="#d5a6bd" d="M408.026 54.197v121.795h5.04l-10.08 10.079-10.078-10.079h5.04V54.197z" fill-rule="evenodd"/><path stroke="#a64d79" stroke-linejoin="round" stroke-linecap="butt" d="M408.026 54.197v121.795h5.04l-10.08 10.079-10.078-10.079h5.04V54.197z"/><path fill="#d5a6bd" d="M392.908 187.958h-70.362v5.04l-10.079-10.08 10.079-10.078v5.04h70.362z" fill-rule="evenodd"/><path stroke="#a64d79" stroke-linejoin="round" stroke-linecap="butt" d="M392.908 187.958h-70.362v5.04l-10.079-10.08 10.079-10.078v5.04h70.362z"/><path fill="#d5a6bd" d="m311.698 172.84.025-37.67h-5.04l10.086-10.078 10.072 10.078h-5.04l-.024 37.67z" fill-rule="evenodd"/><path stroke="#a64d79" stroke-linejoin="round" stroke-linecap="butt" d="m311.698 172.84.025-37.67h-5.04l10.086-10.078 10.072 10.078h-5.04l-.024 37.67z"/><path fill="#d5a6bd" d="m326.848 126.653 37.67.025v-5.04l10.078 10.086-10.079 10.072v-5.04l-37.67-.024z" fill-rule="evenodd"/><path stroke="#a64d79" stroke-linejoin="round" stroke-linecap="butt" d="m326.848 126.653 37.67.025v-5.04l10.078 10.086-10.079 10.072v-5.04l-37.67-.024z"/><path fill="#d5a6bd" d="m359.446 120.588.025-37.67h-5.04l10.086-10.078 10.072 10.078h-5.04l-.024 37.67z" fill-rule="evenodd"/><path stroke="#a64d79" stroke-linejoin="round" stroke-linecap="butt" d="m359.446 120.588.025-37.67h-5.04l10.086-10.078 10.072 10.078h-5.04l-.024 37.67z"/><path fill="#d5a6bd" d="m354.407 85.538-37.67-.025v5.04L306.66 80.466l10.079-10.072v5.04l37.669.024z" fill-rule="evenodd"/><path stroke="#a64d79" stroke-linejoin="round" stroke-linecap="butt" d="m354.407 85.538-37.67-.025v5.04L306.66 80.466l10.079-10.072v5.04l37.669.024z"/><defs><linearGradient id="c" gradientUnits="userSpaceOnUse" gradientTransform="rotate(.028) scale(9.48769)" spreadMethod="pad" x1="58.495" y1="8.388" x2="49.007" y2="8.388"><stop offset="0" stop-color="#ead1dc"/><stop offset="1" stop-color="#c27ba0"/></linearGradient></defs><path fill="url(#c)" d="M464.965 96.367h56.44V79.58l33.575 33.575-33.574 33.575v-16.788h-56.441z" fill-rule="evenodd"/><path stroke="#a64d79" stroke-linejoin="round" stroke-linecap="butt" d="M464.965 96.367h56.44V79.58l33.575 33.575-33.574 33.575v-16.788h-56.441z"/></g></svg>