<svg viewBox="0 0 1009.307 436.06" fill="none" stroke-linecap="square" stroke-miterlimit="10" xmlns="http://www.w3.org/2000/svg"><clipPath id="a"><path d="M0 0h1009.307v436.06H0V0z"/></clipPath><g clip-path="url(#a)"><path fill="none" d="M0 0h1009.307v436.06H0z"/><path shape-rendering="crispEdges" fill="#d0e0e3" d="M135.096 49.864h69.296v58.57h-69.296v-58.57z"/><path shape-rendering="crispEdges" fill="#d0e0e3" d="M204.392 49.864h69.297v58.57h-69.297v-58.57zM273.689 49.864h69.297v58.57h-69.297v-58.57zM342.986 49.864h69.296v58.57h-69.296v-58.57z"/><path shape-rendering="crispEdges" fill="#d0e0e3" d="M412.282 49.864h69.297v58.57h-69.297v-58.57zM481.579 49.864h69.296v58.57H481.58v-58.57zM550.875 49.864h69.297v58.57h-69.297v-58.57zM620.172 49.864h69.297v58.57h-69.297v-58.57z"/><path shape-rendering="crispEdges" fill="#d0e0e3" d="M689.468 49.864h69.297v58.57h-69.297v-58.57zM758.765 49.864h69.297v58.57h-69.297v-58.57zM135.096 108.433h69.296v58.57h-69.296v-58.57z"/><path shape-rendering="crispEdges" fill="#d0e0e3" d="M204.392 108.433h69.297v58.57h-69.297v-58.57zM273.689 108.433h69.297v58.57h-69.297v-58.57zM342.986 108.433h69.296v58.57h-69.296v-58.57z"/><path shape-rendering="crispEdges" fill="#d0e0e3" d="M412.282 108.433h69.297v58.57h-69.297v-58.57zM481.579 108.433h69.296v58.57H481.58v-58.57zM550.875 108.433h69.297v58.57h-69.297v-58.57zM620.172 108.433h69.297v58.57h-69.297v-58.57z"/><path shape-rendering="crispEdges" fill="#d0e0e3" d="M689.468 108.433h69.297v58.57h-69.297v-58.57zM758.765 108.433h69.297v58.57h-69.297v-58.57z"/><path stroke="#45818e" stroke-width="4" stroke-linecap="butt" d="M135.096 47.864v121.139M204.392 47.864v121.139M273.689 47.864v121.139M342.986 47.864v121.139M412.282 47.864v121.139M481.579 47.864v121.139M550.875 47.864v121.139M620.172 47.864v121.139M689.468 47.864v121.139M758.765 47.864v121.139M828.062 47.864v121.139M133.096 49.864h696.966M133.096 108.433h696.966M133.096 167.003h696.966"/><path fill="#0c343d" d="M146.955 77.745q-.187 0-.25-.235 0-.453.64-1.03.641-.595 1.032-.75.39-.173 2.563-.22l.375-.437q8.109-9.344 11.25-9.344.265-.031.609-.031 1.844 0 1.844.875 0 .172-.344.86l-1.203 2.39q-.844 1.719-1.656 3.469-4.313 9.515-5 12.484 0 .203-.547.203t-1.328-.61q-.766-.593-.766-1.046 0-.813 1.297-3.11 1.312-2.296 1.312-2.984 0-.937-3.625-.937-.531 0-1.656.047l-1.016 1.343q-1.859 2.5-3.562 6.203-.297.672-1.797.672-1.484 0-1.484-.422 0-.296 1.656-2.578 1.672-2.281 3.969-5.047-.407.047-1.016.11-.61.047-.953.094-.328.03-.344.03zm11.047-3.438q1.047-1.25 1.563-2.531.53-1.281.53-1.734 0-.453-.452-.453-.813 0-2.657 1.703-1.828 1.687-3.984 4.218l2.906.047q1.063 0 2.094-1.25zM226.674 82.62q-1.172 1.078-3.078 1.765-1.891.672-3.672.672-1.782 0-2.547-.187-.766-.172-.89-.172-.266 0-.532.172-.86.765-2.063.765-1.187 0-1.187-.421 0-.297 1.844-3.485 1.859-3.203 4.109-7.125t2.906-5.39q.657-1.47.657-2.532v-.218q0-.72 4.125-.72 3.78 0 4.859.407 1.375.531 1.719 1.406.218.547.218 1.282 0 1.203-.875 2.265-1.625 1.922-4.218 2.531-.985.25-1.172.407-.188.156-.188.328 0 .172.39.437.392.25.845.547.468.281.859.953.39.672.39 1.703 0 1.016-.656 2.266t-1.843 2.344zm-2.328-1.453q.78-.938 1.218-1.891.438-.969.438-1.625t-.203-1.11q-.203-.468-.47-.702-.265-.25-.64-.391-.547-.203-1.11-.203h-.265q-.36 0-.36-.25 0-.547.407-1.172.422-.64.953-.64 2.172 0 3.875-1.438 1.703-1.438 1.703-3.063 0-1.406-1.859-1.406-1.547 0-2.172.734-1.672 2.079-4.844 7.75-3.171 5.672-3.171 6.657 0 .39.437.687.438.297 1.594.297 1.172 0 2.437-.656 1.266-.656 2.032-1.578zM288.923 85.104q-4.39 0-4.39-4.484 0-1.297.625-3.156.625-1.875 1.843-3.891 1.235-2.016 2.782-3.734 1.547-1.735 3.625-2.86 2.078-1.125 4.187-1.125.985 0 1.516.235.531.218.562.218.047 0 .672-.265.625-.266 1.485-.266.875 0 .875.5 0 .484-1.032 2.14-1.015 1.657-2.453 3.173-1.437 1.515-2.297 1.515-.109.031-.265.031-.5 0-.5-.296 0-.047.36-.594.374-.547.75-1.469.374-.922.374-1.484 0-.563-.062-.797-.047-.235-.36-.547-.297-.328-.828-.328-1.437 0-3.422 2.187-1.984 2.188-3.422 5.14-1.422 2.938-1.422 4.985 0 2.453 2.235 2.453 2.672 0 5.172-3.437.11-.219.218-.219.125 0 .188.016.078.015.187.172.125.14.125.547 0 .39-.546 1.328-.547.922-1.454 1.922-.906.984-2.343 1.687-1.438.703-2.985.703zM358.173 85.073q-1.422 0-1.828-.094-.39-.094-.672-.156-.281-.063-.36-.094-.077-.031-.234-.031-.328 0-.593.172-.922.765-2.454.765-.796 0-.796-.359 0-.36 1.843-3.547 1.86-3.203 4.11-7.125 2.265-3.922 2.906-5.39.656-1.47.656-2.532v-.218q0-.766 4.453-.766 6.61 0 6.61 4.5 0 3.25-2.203 7.172-1.157 2.062-2.704 3.765-1.546 1.704-3.859 2.829-2.297 1.109-4.875 1.109zm8.766-9.125q.984-1.906 1.5-3.563.53-1.671.53-2.796 0-1.141-.655-1.72-.657-.593-2.203-.593-1.063 0-1.704.734-1.671 2.11-4.859 7.782-3.172 5.656-3.172 6.625 0 1.062 2.266 1.062 1.61 0 3.234-1.11 1.625-1.124 2.844-2.812 1.234-1.703 2.219-3.61zM433.704 75.667l-2.266-.078q-1.671 0-2.578 1.093-.64.797-1.703 2.61-1.047 1.812-1.047 2.875 0 .984 1.938.984 1.203 0 2.562-.453 2.75-.906 4.344-3.453.188-.25.64-.25.454 0 .454.531 0 .516-.86 2.172-.843 1.64-1.515 2.469-.344.437-1.344.484-1 .047-3.047.047h-2.61l-1.53-.016-.72-.062h-.187q-.156 0-.39.25-.891.765-2.516.765-.766 0-.766-.343v-.078q0-.297 1.844-3.485 1.86-3.187 4.125-7.094 2.266-3.921 2.906-5.375.641-1.453.641-2.5v-.296q0-.454 5.672-.454 1.875 0 3.25.063.406-.453 2.062-.453.688 0 .688.344 0 .609-1.219 2.468-1.203 1.844-2.11 2.516-.296.234-.75.234-.452 0-.452-.187 0-.078.078-.203.437-.828.437-1.875 0-1.453-2.031-1.453-1.234 0-1.937.64-.704.625-1.407 1.781-.687 1.141-1.015 1.97-.328.827-.328 1.046 0 .64.625.781.625.14 2.484.14l1.984-.077q.266 0 .266.203t-.281.672q-.282.453-.578.64-.594.407-1.813.407zM502.657 75.667l-2.297-.078q-1.672 0-2.563 1.093-1.406 1.844-2.921 4.813-1.5 2.969-2.079 3.39-.968.75-2.453.75-.812 0-.812-.343v-.078q0-.297 1.86-3.485 1.859-3.187 4.109-7.094 2.25-3.921 2.906-5.39.656-1.469.656-2.5v-.281q0-.454 5.672-.454 1.86 0 3.25.063.406-.453 2.031-.453.719 0 .719.344 0 .64-1.297 2.578-1.297 1.922-2.172 2.484-.375.188-.719.188-.343 0-.343-.22 0-.015.125-.28.375-.75.375-1.797 0-1.453-2.047-1.453-1.235 0-1.938.64-.703.625-1.406 1.781-.687 1.141-1.016 1.97-.328.827-.328 1.14 0 .297.282.562.296.266 2.859.266 1.14 0 1.531-.031.406-.047.438-.047.234 0 .234.187 0 .11-.016.157-.375.906-.906 1.25-.515.328-1.734.328zM570.72 84.62q-.376 0-.657-.344-.266-.344-.344-.687l-.094-.344q-.078-.297-.39-.297-.297 0-.532.187-2.515 1.97-4.671 1.97-2.766 0-2.766-3.704 0-1.312.672-3.25.687-1.953 1.953-4.062 1.281-2.125 2.89-3.97 1.626-1.859 3.735-3.062 2.125-1.203 4.234-1.203 1.14 0 1.86.406.11.047.234.047.14 0 .281-.078.657-.453 1.688-.453 1.047 0 1.047.516 0 .625-1.328 2.53-2.079 2.954-3.407 2.954-.343 0-.468-.047-.125-.062-.125-.219 0-.156.171-.53.532-1.126.532-1.86 0-.735-.282-1.11-.28-.39-1.156-.39-1.61 0-3.812 2.422-2.188 2.406-3.766 5.562-1.578 3.156-1.578 5.203 0 1.735 1.437 1.735 1.125 0 2.547-1.141 1.438-1.156 2.344-2.469.922-1.312.922-1.89 0-.578-.563-.797-.546-.235-2.156-.235-.312 0-.312-.234 0-.453.515-.937.516-.485 1-.532 1.922-.14 4.032-.14 2.125 0 2.125.375 0 .328-.36 1-.36.656-.594 1.078-.218.406-.656 1.14-.437.735-.703 1.157-.266.422-.812 1.297-.547.859-.875 1.406-.313.531-.782 1.406-.468.875-.687 1.234-.203.36-.344.36zM638.766 66.823v-.36q0-.687 2.86-.687 1.437 0 1.437.531 0 .219-.22.438-1.015 1.375-4.312 7l3.297.031q1.094 0 2-.875.453-.484.813-.89.36-.422.812-1.188.453-.781.719-1.234.375-.672 1.312-2.563 0-.125.204-.328.203-.203.468-.344.282-.156.86-.25.593-.11 1.39-.11.813 0 .813.345 0 .156-.125.359-.11.203-1.39 2.156-1.266 1.938-2.548 4.031-1.265 2.094-2.703 4.547-1.422 2.453-2.312 4.485-.89 2.015-.89 2.953-.157.453-.673.453-1.469 0-2.031-.25-.547-.234-.547-.719 0-.828 1.766-3.86 1.781-3.046 1.781-3.687 0-.656-.547-.968-.531-.329-1.781-.329t-1.735.016q-.906 1.469-2.078 3.766-1.172 2.297-1.968 3.765-.797 1.453-1.282 1.828-.984.75-2.422.75-.828 0-.828-.421 0-.25.703-1.422.704-1.188 2.282-3.735 1.578-2.547 2.718-4.468l-1.625.078q-.406 0-.406-.22 0-.452.578-.905t.938-.578q.375-.141 1.562-.188.985-1.687 2.532-4.672.578-1.281.578-2.281zM698.843 83.589q0-.625.688-1.22.703-.593 1.438-.593 1.468 0 1.468.906 0 .719-.703 1.297-.687.563-1.453.563-1.438 0-1.438-.953zm5.625 0q0-.625.688-1.22.703-.593 1.438-.593 1.468 0 1.468.906 0 .719-.703 1.297-.687.563-1.422.563-1.469 0-1.469-.953zm5.625 0q0-.625.688-1.22.703-.593 1.438-.593 1.468 0 1.468.906 0 .719-.703 1.297-.687.563-1.453.563-1.438 0-1.438-.953zM788.953 67.026q0 1.281-5.594 5.61-2.313 1.78-4.656 3.593-2.329 1.813-3.97 3.453-1.64 1.64-1.64 2.516 0 .484.61.656.625.172 1.39.172.781 0 2.016-.5 1.234-.516 2.219-1.234 2.109-1.578 3.093-2.672l.453-.5q.563-.453.97-.453h.046q.422 0 .422.265-.047.64-2.14 3.907-2.094 3.265-2.782 3.343h-.297q-1.594 0-2.39-.61-2.563.235-3.282.235-3.547 0-4.812-.218-1.266-.204-1.266-.891 0-.938 1.656-2.719 1.672-1.797 4.047-3.703 2.391-1.922 4.782-3.766 2.406-1.843 4.078-3.234 1.687-1.406 1.718-1.812v-.016q0-.719-1.453-.719t-2.922.766q-1.468.75-3.14 2.14-.61.47-1 .47t-.39-.282q.03-.297 1.312-2.266 1.281-1.984 2.11-2.672.343-.328.843-.328 1.125 0 1.844.594 1.765-.156 3.968-.156 4.157 0 4.157 1.031zM156.94 142.236l.062.797q0 .422-1.281.422-2.235 0-2.235-.844 0-.86 1.172-3.687 1.188-2.828 1.188-3.516 0-1.406-1.735-1.406l-.421.015q-.313 0-.313-.234 0-.5.375-1.016.39-.53.984-.53 2.422 0 4.344-1.438 1.922-1.438 1.922-3.047 0-1.14-.719-1.594-.703-.453-1.937-.453-1.219 0-1.86.75-1.562 1.969-5.046 8.25-3.485 6.281-3.907 7.719-.234.656-1.234.968-1 .329-1.953.329-.938 0-.938-.375v-.047q0-.297 1.828-3.407 1.844-3.125 4.063-6.953 2.234-3.828 2.89-5.28.657-1.47.657-2.485v-.266q0-.719 4.047-.719 4.343 0 5.734.875.578.375.984 1.094.422.719.422 1.844 0 1.11-.906 2.265-.906 1.141-1.937 1.688-1.016.547-2.032.797-1.015.234-1.531.39-.5.157-.5.5 0 .22.39.532.391.297.782.734.406.422.406.906 0 .47-.89 2.75-.875 2.282-.875 3.672zM218.94 141.705q2.03 0 4.202-3.5 3.016-4.844 5.875-10.531.579-1.188.579-2.282v-.359q0-.687 2.859-.687 1.437 0 1.437.53 0 .22-.468.798-.47.562-2.641 4.234-2.172 3.656-2.797 4.828-.625 1.156-1.172 2.219-.547 1.047-.828 1.562-.281.516-.703 1.282-.406.75-.672 1.093-.265.329-.687.813-.407.469-.782.672-.359.203-.859.453t-1.078.344q-1.578.203-2.797.203-1.203 0-2-.453-.11-.047-.266-.047-.14 0-.25.078-.718.453-1.734.453-1 0-1-.516 0-.765 2.031-4 2.047-3.25 3.407-3.968.28-.188.78-.188.516 0 .516.297 0 .063-.562.969-.547.906-1.094 2.172-.547 1.265-.547 2 0 .734.328 1.14.329.39.922.39zM288.876 143.642q-1.421 0-1.828-.093-.39-.094-.672-.157-.28-.062-.359-.093-.078-.032-.234-.032-.328 0-.594.172-.922.766-2.453.766-.797 0-.797-.36 0-.359 1.844-3.546 1.86-3.203 4.11-7.125 2.265-3.922 2.905-5.39.657-1.47.657-2.532v-.219q0-.766 4.453-.766 6.61 0 6.61 4.5 0 3.25-2.204 7.172-1.156 2.063-2.703 3.766-1.547 1.703-3.86 2.828-2.296 1.11-4.875 1.11zm8.766-9.125q.984-1.906 1.5-3.562.531-1.672.531-2.797 0-1.14-.656-1.719-.656-.593-2.203-.593-1.063 0-1.703.734-1.672 2.11-4.86 7.781-3.171 5.656-3.171 6.625 0 1.063 2.265 1.063 1.61 0 3.235-1.11 1.625-1.125 2.843-2.812 1.235-1.703 2.22-3.61zM364.407 134.236l-2.265-.078q-1.672 0-2.578 1.094-.64.797-1.703 2.61-1.047 1.812-1.047 2.874 0 .985 1.937.985 1.203 0 2.563-.454 2.75-.906 4.343-3.453.188-.25.641-.25t.453.532q0 .515-.86 2.171-.843 1.641-1.515 2.47-.344.437-1.344.484-1 .046-3.046.046h-2.61l-1.531-.015-.719-.063h-.187q-.157 0-.39.25-.892.766-2.517.766-.765 0-.765-.344v-.078q0-.297 1.844-3.484 1.859-3.188 4.125-7.094 2.265-3.922 2.906-5.375.64-1.453.64-2.5v-.297q0-.453 5.672-.453 1.875 0 3.25.062.407-.453 2.063-.453.687 0 .687.344 0 .61-1.218 2.469-1.204 1.844-2.11 2.515-.297.235-.75.235t-.453-.188q0-.078.078-.203.438-.828.438-1.875 0-1.453-2.032-1.453-1.234 0-1.937.64-.703.626-1.406 1.782-.688 1.14-1.016 1.969-.328.828-.328 1.047 0 .64.625.78.625.141 2.484.141l1.985-.078q.265 0 .265.203 0 .204-.28.672-.282.453-.58.64-.593.407-1.812.407zM431.548 140.174q-.344.64-1.156.64-.813 0-1.079-.218-.25-.235-.25-1.204 0-.968 1.032-4.53 1.047-3.563 1.047-4.11 0-.547-.204-.547-.328 0-.812.547-.469.547-.797 1.078l-.312.562q-1.704 2.782-3.11 5.563l-2.062 4.078q-.641 1.297-1.125 1.64-.485.344-1.375.344-.891 0-.891-.39v-.094q0-.266 1.39-2.469 5.11-8.14 7.704-13.28.61-1.22.61-2.298v-.312q0-.485 1.109-.766 1.109-.297 1.828-.297h.875q1.125 0 1.656.422.234.156.234.422t-1.062 3.703q-1.047 3.422-1.047 4.125 0 .688.219.688.672 0 2.343-1.641 1.688-1.64 3.844-3.938 1.75-1.921 3.36-3.312.343-.313.828-.36 1.03-.171 2.218-.171t1.188.53q0 .11-.016.173-.015.047-1 1.61-.984 1.562-2.406 3.874-1.406 2.297-2.828 4.766-1.406 2.453-2.39 4.687-.985 2.22-.985 3.266-.234.453-.75.453-2.625 0-2.625-.937 0-2.157 5.344-10.36.703-1.047.703-1.312 0-.266-.406-.266-1.016 0-4.266 3.61-3.25 3.609-4.578 6.03zM495.704 129.33l-.032-2.828q0-1.11-.171-1.422-.157-.328-.157-.547 0-.531 2.094-.531t2.094.984q0 .672-.438 3.219-.437 2.547-.468 3.5-.016.937.515.937.313 0 .719-.359 1.625-1.437 3.64-3.625 2.032-2.203 2.688-3.062.672-.875 1.125-1.063.969-.375 2.297-.422h.453q1.516 0 1.516.469 0 .281-.453.547-1.704.984-5.875 4.484-4.172 3.485-6.094 5.531-.766.829-2.61 4.25-1.843 3.422-2.5 3.875-.609.532-1.812.532t-1.203-.453v-.079q0-.187.875-1.64 2.86-4.672 3.203-5.875.594-1.922.594-6.422zM564.22 141.705q0 .531.062.797.078.265.078.39 0 .625-2.61.625-2.593 0-2.593-.625l.156-.312q.906-.531 3.625-4.938 2.719-4.421 5.515-9.968.594-1.172.594-2.203v-.438q0-.687 2.844-.687 1.453 0 1.453.53 0 .22-.219.438-1.812 2.344-5.36 8.782-3.546 6.437-3.546 7.609zM634.297 129.33l-.031-2.828q0-1.11-.172-1.422-.156-.328-.156-.547 0-.531 2.093-.531 2.094 0 2.094.984 0 .672-.437 3.219-.438 2.547-.47 3.5-.015.937.516.937.313 0 .72-.359 1.624-1.437 3.64-3.625 2.031-2.203 2.687-3.062.672-.875 1.125-1.063.97-.375 2.297-.422h.453q1.516 0 1.516.469 0 .281-.453.547-1.703.984-5.875 4.484-4.172 3.485-6.094 5.531-.766.829-2.61 4.25-1.843 3.422-2.5 3.875-.609.532-1.812.532t-1.203-.453v-.079q0-.187.875-1.64 2.86-4.672 3.203-5.875.594-1.922.594-6.422zM698.843 142.158q0-.625.688-1.219.703-.593 1.438-.593 1.468 0 1.468.906 0 .719-.703 1.297-.687.562-1.453.562-1.438 0-1.438-.953zm5.625 0q0-.625.688-1.219.703-.593 1.438-.593 1.468 0 1.468.906 0 .719-.703 1.297-.687.562-1.422.562-1.469 0-1.469-.953zm5.625 0q0-.625.688-1.219.703-.593 1.438-.593 1.468 0 1.468.906 0 .719-.703 1.297-.687.562-1.453.562-1.438 0-1.438-.953zM788.953 125.596q0 1.28-5.594 5.609-2.313 1.781-4.656 3.594-2.329 1.812-3.97 3.453-1.64 1.64-1.64 2.515 0 .485.61.657.625.172 1.39.172.781 0 2.016-.5 1.234-.516 2.219-1.235 2.109-1.578 3.093-2.672l.453-.5q.563-.453.97-.453h.046q.422 0 .422.266-.047.64-2.14 3.906-2.094 3.266-2.782 3.344h-.297q-1.594 0-2.39-.61-2.563.235-3.282.235-3.547 0-4.812-.219-1.266-.203-1.266-.89 0-.938 1.656-2.72 1.672-1.796 4.047-3.702 2.391-1.922 4.782-3.766 2.406-1.844 4.078-3.234 1.687-1.407 1.718-1.813v-.016q0-.718-1.453-.718t-2.922.765q-1.468.75-3.14 2.14-.61.47-1 .47t-.39-.282q.03-.296 1.312-2.265 1.281-1.985 2.11-2.672.343-.328.843-.328 1.125 0 1.844.594 1.765-.157 3.968-.157 4.157 0 4.157 1.032z"/><path fill="#76a5af" d="m830.88 314.96 43.196-46.2v21.599c62.195-8.787 110.348-35.728 125.022-69.947 21.458 50.04-34.072 100.294-125.022 113.143v21.599z" fill-rule="evenodd"/><path fill="#5e838b" d="M1003.667 242.01c0-52.216-77.36-94.547-172.788-94.547v-43.197c95.428 0 172.788 42.33 172.788 94.548z" fill-rule="evenodd"/><path fill="none" d="M1003.667 242.01c0-52.216-77.36-94.547-172.788-94.547v-43.197c95.428 0 172.788 42.33 172.788 94.548v43.197c0 43.113-53.302 80.766-129.59 91.544v21.599l-43.198-40.195 43.197-46.199v21.599c62.195-8.787 110.348-35.728 125.022-69.947"/><path stroke="#134f5c" stroke-linejoin="round" stroke-linecap="butt" d="M1003.667 242.01c0-52.216-77.36-94.547-172.788-94.547v-43.197c95.428 0 172.788 42.33 172.788 94.548v43.197c0 43.113-53.302 80.766-129.59 91.544v21.599l-43.198-40.195 43.197-46.199v21.599c62.195-8.787 110.348-35.728 125.022-69.947"/><path fill="#d9ead3" d="M135.092 251.298h692.976v134.898H135.092z" fill-rule="evenodd"/><path stroke="#6aa84f" stroke-width="4" stroke-linejoin="round" stroke-linecap="butt" d="M135.092 251.298h692.976v134.898H135.092z"/><path fill="none" d="M151.811 289.193h641.165v87.905H151.811z"/><path fill="#38761d" d="M172.811 308.13v-.437q0-.86 3.563-.86 1.796 0 1.796.657 0 .265-.265.547-1.266 1.718-5.39 8.765l4.124.032q1.375 0 2.5-1.11.563-.594 1.016-1.11.453-.515 1.015-1.484.579-.968.907-1.53.468-.845 1.625-3.204 0-.172.25-.422t.593-.422q.36-.187 1.094-.312.735-.14 1.735-.14t1 .437q0 .187-.157.437-.14.25-1.734 2.688-1.578 2.437-3.188 5.062-1.593 2.61-3.375 5.672-1.78 3.063-2.906 5.594-1.11 2.531-1.11 3.703-.202.562-.827.562-1.828 0-2.532-.296-.703-.297-.703-.907 0-1.031 2.219-4.828 2.219-3.797 2.219-4.61 0-.812-.672-1.218-.672-.406-2.234-.406-1.563 0-2.172.031-1.125 1.844-2.594 4.719-1.469 2.86-2.469 4.687-1 1.828-1.594 2.297-1.234.938-3.03.938-1.032 0-1.032-.532 0-.296.875-1.78.89-1.485 2.844-4.673 1.968-3.187 3.406-5.578l-2.031.094q-.5 0-.5-.266 0-.562.718-1.125.72-.578 1.172-.734.469-.172 1.938-.234 1.234-2.11 3.172-5.844.734-1.594.734-2.86zm21.828 11.063-2.828-.094q-2.11 0-3.234 1.36-.797 1-2.125 3.265-1.313 2.266-1.313 3.61 0 1.218 2.438 1.218 1.5 0 3.203-.562 3.422-1.125 5.422-4.328.234-.297.797-.297.578 0 .578.656 0 .64-1.078 2.703-1.063 2.063-1.89 3.11-.438.53-1.688.593-1.25.063-3.813.063h-3.266l-1.906-.031-.89-.063h-.235q-.203 0-.5.297-1.11.969-3.14.969-.97 0-.97-.438v-.094q0-.375 2.313-4.359 2.328-3.984 5.157-8.875 2.843-4.906 3.64-6.719.797-1.812.797-3.11v-.374q0-.563 7.094-.563 2.344 0 4.062.063.5-.563 2.578-.563.86 0 .86.438 0 .766-1.516 3.078-1.515 2.313-2.64 3.156-.375.297-.938.297-.562 0-.562-.234 0-.11.093-.266.532-1.031.532-2.344 0-1.828-2.532-1.828-1.53 0-2.422.813-.875.797-1.75 2.234-.859 1.422-1.28 2.453-.407 1.032-.407 1.297 0 .797.781.985.781.187 3.11.187l2.468-.094q.328 0 .328.25t-.359.828q-.344.579-.703.813-.734.5-2.266.5zm7.161 11.234-.469-.031q-.453 0-.687.297-1.14.969-3.078.969-1 0-1-.438v-.094q0-.375 2.312-4.359 2.328-3.984 5.14-8.875 2.813-4.906 3.626-6.734.828-1.828.828-3.032v-.437q0-.86 3.562-.86 1.797 0 1.797.657 0 .265-.265.547-2.657 4.328-7.063 12.359l-.469.828q-.468.844-.671 1.188-.188.343-.61 1.203-.422.844-.61 1.375-.577 1.5-.577 2.344 0 1.218 2.203 1.218h.234q1.36 0 3-.562 3.203-1.125 5.203-4.328.125-.297.735-.297.625 0 .625.531 0 .797-1.063 2.875-1.062 2.063-1.937 3.063-.422.593-1.657.593-1.234.063-5.343.063l-3.766-.063zm17.43 0-.468-.031q-.453 0-.688.297-1.14.969-3.078.969-1 0-1-.438v-.094q0-.375 2.313-4.359 2.328-3.984 5.14-8.875 2.813-4.906 3.625-6.734.828-1.828.828-3.032v-.437q0-.86 3.563-.86 1.797 0 1.797.657 0 .265-.266.547-2.656 4.328-7.062 12.359l-.469.828q-.469.844-.672 1.188-.187.343-.61 1.203-.421.844-.609 1.375-.578 1.5-.578 2.344 0 1.218 2.203 1.218h.235q1.36 0 3-.562 3.203-1.125 5.203-4.328.125-.297.734-.297.625 0 .625.531 0 .797-1.062 2.875-1.063 2.063-1.938 3.063-.422.593-1.656.593-1.234.063-5.344.063l-3.765-.063zm36.694-18.203q0 1.875-.75 4.281-.75 2.391-2.22 4.891-1.452 2.5-3.374 4.625-1.922 2.11-4.547 3.469-2.61 1.344-5.39 1.344-2.782 0-4.376-1.547-1.593-1.563-1.593-4.297 0-1.86.734-4.25.75-2.406 2.219-4.906 1.469-2.5 3.375-4.594 1.922-2.11 4.531-3.453 2.625-1.36 5.406-1.36 2.797 0 4.39 1.532 1.595 1.53 1.595 4.265zm-3.922-.297q0-3.672-2.672-3.672-2.234 0-4.984 2.844-2.75 2.828-4.672 6.844-1.907 4.016-1.907 7.187 0 3.657 2.672 3.657 2.188 0 4.953-2.828 2.766-2.829 4.688-6.844 1.922-4.016 1.922-7.188zm18.39-3.86-.032-.733q0-.907 3.094-.907 1.938 0 1.938.969 0 .172-.063.234-.234 1.297-2.64 8.297-2.391 7-2.391 7.719 0 .719.656.719.5 0 .766-.266l1.172-1.172q.703-.703 3.828-5.047 3.14-4.343 5.03-7.515.642-1.266 4.204-1.266.906 0 .906.563l-.234.64q-1 2.032-2.703 7.172-1.703 5.125-1.703 6.016 0 .875.672.875.5 0 .765-.266l.938-.937q1.234-1.235 5.406-7.047 4.187-5.813 5.656-8.688.36-.734.828-.968.844-.391 2.938-.47h.672q1.734 0 1.734.579 0 .234-.312.531-3.266 3.094-9.579 10.516-6.312 7.406-8.578 10.719-.468.687-.734 1-.266.296-.875.687-1.125.734-3.953.734-1.64 0-1.64-.796l.109-.36q.187-.64.718-2.14.547-1.5.907-2.532.375-1.031.796-2.265.844-2.5.844-3.063 0-.578-.5-.578-.547 0-1.203.813-2.64 3.125-6.406 8.5-.625.89-1 1.28-.36.376-1.531.75-1.172.391-2.922.391-1.735 0-1.735-.796l.094-.36q1.172-3.375 3.11-9.703 1.953-6.328 2.656-9.297.297-1.703.297-2.531zm44.69 4.157q0 1.875-.75 4.281-.75 2.391-2.22 4.891-1.453 2.5-3.374 4.625-1.922 2.11-4.547 3.469-2.61 1.344-5.39 1.344-2.782 0-4.376-1.547-1.594-1.563-1.594-4.297 0-1.86.735-4.25.75-2.406 2.218-4.906 1.47-2.5 3.375-4.594 1.922-2.11 4.532-3.453 2.625-1.36 5.406-1.36 2.797 0 4.39 1.532 1.594 1.53 1.594 4.265zm-3.923-.297q0-3.672-2.671-3.672-2.235 0-4.985 2.844-2.75 2.828-4.672 6.844-1.906 4.016-1.906 7.187 0 3.657 2.672 3.657 2.187 0 4.953-2.828 2.766-2.829 4.688-6.844 1.921-4.016 1.921-7.188zm15.158 17.266.062 1q0 .531-1.594.531-2.796 0-2.796-1.062 0-1.063 1.484-4.594 1.484-3.547 1.484-4.406 0-1.766-2.172-1.766l-.53.031q-.407 0-.407-.297 0-.64.484-1.28.485-.657 1.22-.657 3.03 0 5.42-1.797 2.407-1.797 2.407-3.797 0-1.437-.89-2-.875-.562-2.407-.562-1.53 0-2.328.922-1.969 2.468-6.328 10.328-4.344 7.843-4.875 9.64-.297.828-1.547 1.219-1.25.406-2.437.406-1.172 0-1.172-.453v-.078q0-.36 2.297-4.25 2.297-3.906 5.078-8.687 2.781-4.782 3.594-6.61.828-1.844.828-3.11v-.327q0-.907 5.062-.907 5.438 0 7.156 1.094.735.469 1.25 1.375.516.89.516 2.297 0 1.406-1.14 2.844-1.126 1.422-2.407 2.11-1.281.671-2.547.984-1.265.296-1.906.5-.625.187-.625.625 0 .265.484.656.485.375.985.922.5.53.5 1.125 0 .593-1.11 3.453-1.093 2.844-1.093 4.578zm6.296 1.234-.469-.031q-.453 0-.687.297-1.141.969-3.079.969-1 0-1-.438v-.094q0-.375 2.313-4.359 2.328-3.984 5.14-8.875 2.813-4.906 3.626-6.734.828-1.828.828-3.032v-.437q0-.86 3.562-.86 1.797 0 1.797.657 0 .265-.266.547-2.656 4.328-7.062 12.359l-.469.828q-.469.844-.672 1.188-.187.343-.61 1.203-.421.844-.608 1.375-.579 1.5-.579 2.344 0 1.218 2.204 1.218h.234q1.36 0 3-.562 3.203-1.125 5.203-4.328.125-.297.734-.297.625 0 .625.531 0 .797-1.062 2.875-1.063 2.063-1.938 3.063-.421.593-1.656.593-1.234.063-5.344.063l-3.765-.063zm20.837.532q-1.766 0-2.266-.125-.5-.11-.86-.204-.343-.078-.453-.109-.093-.031-.296-.031-.391 0-.72.203-1.171.969-3.077.969-1 0-1-.453 0-.454 2.312-4.454 2.328-4 5.14-8.89 2.813-4.906 3.626-6.735.828-1.828.828-3.171v-.266q0-.969 5.562-.969 8.266 0 8.266 5.64 0 4.063-2.766 8.97-1.437 2.562-3.375 4.703-1.921 2.125-4.812 3.53-2.875 1.392-6.11 1.392zm10.968-11.407q1.235-2.39 1.875-4.468.657-2.094.657-3.5 0-1.422-.829-2.157-.812-.734-2.75-.734-1.328 0-2.125.937-2.093 2.625-6.062 9.72-3.969 7.077-3.969 8.28 0 1.329 2.828 1.329 2 0 4.032-1.391 2.03-1.406 3.562-3.516 1.547-2.125 2.781-4.5zM569.214 313.068l-.046-3.531q0-1.407-.204-1.797-.187-.406-.187-.672 0-.672 2.61-.672 2.624 0 2.624 1.234 0 .829-.562 4.016-.547 3.188-.578 4.375-.032 1.172.64 1.172.39 0 .89-.438 2.032-1.796 4.563-4.546 2.547-2.75 3.375-3.829.829-1.078 1.407-1.312 1.187-.469 2.859-.531h.563q1.906 0 1.906.593 0 .329-.563.672-2.14 1.235-7.36 5.594-5.218 4.36-7.608 6.938-.97 1.03-3.266 5.312-2.297 4.281-3.14 4.844-.766.672-2.266.672t-1.5-.563v-.11q0-.234 1.109-2.062 3.563-5.828 4-7.328.734-2.406.734-8.031zm18.254 13.562q-.438.797-1.453.797-1.016 0-1.328-.281-.313-.281-.313-1.5 0-1.219 1.297-5.672 1.297-4.453 1.297-5.125 0-.687-.266-.687-.39 0-1 .687-.594.672-1 1.344l-.39.703q-2.141 3.469-3.891 6.953-1.75 3.485-2.563 5.094-.812 1.61-1.421 2.047-.594.437-1.72.437-1.109 0-1.109-.5v-.093q0-.344 1.735-3.11 6.39-10.156 9.625-16.594.765-1.53.765-2.875v-.39q0-.61 1.375-.969 1.391-.36 2.297-.36h1.094q1.406 0 2.078.532.297.187.297.531 0 .328-1.328 4.61-1.313 4.28-1.313 5.156 0 .86.266.86.844 0 2.938-2.048 2.093-2.047 4.796-4.922 2.204-2.39 4.204-4.125.437-.406 1.03-.468 1.298-.203 2.782-.203t1.484.671q0 .125-.015.204-.016.062-1.25 2.015-1.235 1.953-3 4.844-1.766 2.875-3.531 5.953-1.766 3.078-3 5.86-1.235 2.78-1.235 4.093-.297.563-.937.563-3.297 0-3.297-1.172 0-2.703 6.703-12.969.86-1.297.86-1.625 0-.328-.5-.328-1.266 0-5.329 4.516-4.062 4.515-5.734 7.546zm23.963 0q-.438.797-1.453.797-1.016 0-1.329-.281-.312-.281-.312-1.5 0-1.219 1.297-5.672 1.297-4.453 1.297-5.125 0-.687-.266-.687-.39 0-1 .687-.594.672-1 1.344l-.39.703q-2.141 3.469-3.891 6.953-1.75 3.485-2.563 5.094-.812 1.61-1.422 2.047-.593.437-1.718.437-1.11 0-1.11-.5v-.093q0-.344 1.735-3.11 6.39-10.156 9.625-16.594.765-1.53.765-2.875v-.39q0-.61 1.375-.969 1.39-.36 2.297-.36h1.094q1.406 0 2.078.532.297.187.297.531 0 .328-1.328 4.61-1.313 4.28-1.313 5.156 0 .86.266.86.844 0 2.937-2.048 2.094-2.047 4.797-4.922 2.203-2.39 4.203-4.125.438-.406 1.032-.468 1.297-.203 2.78-.203 1.485 0 1.485.671 0 .125-.015.204-.016.062-1.25 2.015-1.235 1.953-3 4.844-1.766 2.875-3.532 5.953-1.765 3.078-3 5.86-1.234 2.78-1.234 4.093-.297.563-.937.563-3.297 0-3.297-1.172 0-2.703 6.703-12.969.86-1.297.86-1.625 0-.328-.5-.328-1.266 0-5.329 4.516-4.062 4.515-5.734 7.546zm23.963 0q-.438.797-1.454.797-1.015 0-1.328-.281-.312-.281-.312-1.5 0-1.219 1.297-5.672 1.297-4.453 1.297-5.125 0-.687-.266-.687-.39 0-1 .687-.594.672-1 1.344l-.39.703q-2.141 3.469-3.891 6.953-1.75 3.485-2.563 5.094-.812 1.61-1.422 2.047-.593.437-1.718.437-1.11 0-1.11-.5v-.093q0-.344 1.735-3.11 6.39-10.156 9.625-16.594.765-1.53.765-2.875v-.39q0-.61 1.375-.969 1.39-.36 2.297-.36h1.094q1.406 0 2.078.532.297.187.297.531 0 .328-1.328 4.61-1.313 4.28-1.313 5.156 0 .86.266.86.844 0 2.937-2.048 2.094-2.047 4.797-4.922 2.203-2.39 4.203-4.125.438-.406 1.032-.468 1.296-.203 2.78-.203 1.485 0 1.485.671 0 .125-.015.204-.016.062-1.25 2.015-1.235 1.953-3 4.844-1.766 2.875-3.532 5.953-1.765 3.078-3 5.86-1.234 2.78-1.234 4.093-.297.563-.938.563-3.296 0-3.296-1.172 0-2.703 6.703-12.969.859-1.297.859-1.625 0-.328-.5-.328-1.266 0-5.328 4.516-4.063 4.515-5.734 7.546zm18.431-18.562-.031-.734q0-.907 3.094-.907 1.937 0 1.937.969 0 .172-.062.234-.235 1.297-2.641 8.297-2.39 7-2.39 7.719 0 .719.656.719.5 0 .765-.266l1.172-1.172q.703-.703 3.828-5.047 3.14-4.343 5.032-7.515.64-1.266 4.203-1.266.906 0 .906.563l-.234.64q-1 2.032-2.704 7.172-1.703 5.125-1.703 6.016 0 .875.672.875.5 0 .766-.266l.937-.937q1.235-1.235 5.407-7.047 4.187-5.813 5.656-8.688.36-.734.828-.968.844-.391 2.937-.47h.672q1.735 0 1.735.579 0 .234-.313.531-3.265 3.094-9.578 10.516-6.312 7.406-8.578 10.719-.469.687-.734 1-.266.296-.875.687-1.125.734-3.954.734-1.64 0-1.64-.796l.11-.36q.187-.64.718-2.14.547-1.5.906-2.532.375-1.031.797-2.265.844-2.5.844-3.063 0-.578-.5-.578-.547 0-1.203.813-2.641 3.125-6.407 8.5-.625.89-1 1.28-.359.376-1.53.75-1.173.391-2.923.391-1.734 0-1.734-.796l.094-.36q1.171-3.375 3.109-9.703 1.953-6.328 2.656-9.297.297-1.703.297-2.531zm55.254 3.094q0 2.203-.969 4-.953 1.797-2.172 2.922-1.219 1.109-3.516 1.906-2.296.797-5.406.797-3.094 0-4.297.703-1.203.703-2.328 2.703-.844 1.406-1.687 3.234-.844 1.828-1.078 2.563-.235.734-1.266 1.187-1.031.453-1.938.485l-.937.062q-1 0-1-.437v-.094q0-.36 2.312-4.36 2.329-4 5.141-8.89 2.813-4.906 3.625-6.734.828-1.844.828-3.11v-.344q0-.53 2.281-.812 2.282-.281 4.907-.281 4.203 0 5.843 1.156 1.657 1.14 1.657 3.344zM699 309.599q-.907 1.031-3.016 4.516-2.094 3.484-2.094 3.906 0 .406.453.547.47.125 2.25.125 1.797 0 3.47-.625 1.687-.64 2.655-1.531.97-.907 1.594-2.016 1.078-1.86 1.078-3.016 0-1.171-.328-1.75-.312-.593-.906-.828-1-.36-2.625-.36-1.61 0-2.531 1.032zm10.722 21.235q-2.797 0-4.406-1.547-1.594-1.563-1.594-4.297 0-1.86.75-4.25.75-2.406 2.203-4.906 1.469-2.5 3.39-4.594 1.922-2.11 4.532-3.453 2.625-1.36 5.406-1.36 2.781 0 4.375 1.532 1.61 1.53 1.61 4.578 0 3.03-2.313 7.547-2.297 4.515-5.625 7.046-1.328 1.032-1.328 1.625 0 .172.125.594.14.406.14.844 0 1.14-.796 2.36-.782 1.234-1.704 1.234l-.109-.094q-.062-.203-.125-.563-.375-2.609-1.797-2.609l-.437.078q-.907.235-2.297.235zm4.86-10.047q.234 0 .296.343 0 .125.11 1.032.124.906.234 1.359.125.438.265.766.297.78.766.78.703 0 2.078-2.14 1.39-2.14 2.547-5.343 1.172-3.22 1.172-5.657 0-3.672-2.672-3.672-2.187 0-4.969 2.844-2.765 2.828-4.687 6.844-1.906 4.016-1.906 7.187 0 .704.109 1.391.125.672.766 1.469.656.797 1.796.797 2.032 0 2.032-.766 0-.328-.375-.953-.36-.64-.36-1.5 0-1.61 1.078-3.188 1.094-1.593 1.72-1.593zm11.938 7.734q0 .672.078 1.016.078.328.078.484 0 .766-3.25.766t-3.25-.766l.203-.39q1.14-.672 4.531-6.188 3.406-5.516 6.906-12.453.735-1.453.735-2.766v-.531q0-.86 3.562-.86 1.797 0 1.797.657 0 .265-.265.547-2.266 2.922-6.704 10.968-4.421 8.047-4.421 9.516zm28.728-20.125q0 1.594-7 7-2.907 2.234-5.829 4.5-2.906 2.266-4.953 4.313-2.047 2.046-2.047 3.156 0 .594.766.812.766.219 1.719.219.969 0 2.515-.625 1.563-.64 2.797-1.547 2.625-1.969 3.86-3.328l.562-.64q.703-.563 1.203-.563h.063q.547 0 .547.328-.078.813-2.703 4.89-2.61 4.079-3.47 4.188h-.359q-2 0-3-.765-3.203.296-4.109.296-4.422 0-6.016-.265-1.578-.266-1.578-1.14 0-1.173 2.078-3.391 2.079-2.235 5.063-4.625 2.984-2.407 5.984-4.704 3-2.312 5.094-4.062 2.11-1.75 2.14-2.25v-.031q0-.907-1.812-.907t-3.656.954q-1.828.953-3.922 2.687-.766.594-1.25.594t-.484-.36q.03-.375 1.625-2.828 1.609-2.468 2.64-3.343.422-.391 1.063-.391 1.406 0 2.297.734 2.203-.203 4.968-.203 5.204 0 5.204 1.297zm.53 22.563q-1.765 0-2.265-.125-.5-.11-.86-.204-.343-.078-.452-.109-.094-.031-.297-.031-.39 0-.719.203-1.172.969-3.078.969-1 0-1-.453 0-.454 2.312-4.454 2.329-4 5.141-8.89 2.813-4.906 3.625-6.735.828-1.828.828-3.171v-.266q0-.969 5.563-.969 8.265 0 8.265 5.64 0 4.063-2.765 8.97-1.438 2.562-3.375 4.703-1.922 2.125-4.813 3.53-2.875 1.392-6.11 1.392zm10.97-11.407q1.234-2.39 1.875-4.468.656-2.094.656-3.5 0-1.422-.828-2.157-.813-.734-2.75-.734-1.328 0-2.125.937-2.094 2.625-6.063 9.72-3.969 7.077-3.969 8.28 0 1.329 2.829 1.329 2 0 4.03-1.391 2.032-1.406 3.563-3.516 1.547-2.125 2.782-4.5z"/><defs><radialGradient id="b" gradientUnits="userSpaceOnUse" gradientTransform="scale(8.32987)" spreadMethod="pad" cx="55.62" cy="38.266" fx="55.62" fy="38.266" r="8.33"><stop offset="0" stop-color="#dcecd5"/><stop offset="1" stop-color="#93bc81"/></radialGradient></defs><path fill="url(#b)" d="M397.367 307.944h110.268V297.14l21.606 21.607-21.606 21.606V329.55H397.367z" fill-rule="evenodd"/><path stroke="#38761d" stroke-linejoin="round" stroke-linecap="butt" d="M397.367 307.944h110.268V297.14l21.606 21.607-21.606 21.606V329.55H397.367z"/><path fill="#c27ba0" d="M96.136 96.869c0 10.698 9.918 20.292 24.953 24.139v-5.11l14.008 15.85-14.008 12.388v-5.109c-15.035-3.846-24.953-13.44-24.953-24.139z" fill-rule="evenodd"/><path fill="#9b627f" d="M135.097 89.02c-16.284 0-30.85 6.724-36.521 16.859-4.443-7.94-2.75-16.822 4.532-23.777C110.39 75.147 122.34 71 135.098 71z" fill-rule="evenodd"/><path fill="none" d="M96.136 96.869c0 10.698 9.918 20.292 24.953 24.139v-5.11l14.008 15.85-14.008 12.388v-5.109c-15.035-3.846-24.953-13.44-24.953-24.139v-18.02C96.136 82.583 113.58 71 135.097 71v18.02c-16.284 0-30.85 6.724-36.521 16.859"/><path stroke="#741b47" stroke-linejoin="round" stroke-linecap="butt" d="M96.136 96.869c0 10.698 9.918 20.292 24.953 24.139v-5.11l14.008 15.85-14.008 12.388v-5.109c-15.035-3.846-24.953-13.44-24.953-24.139v-18.02C96.136 82.583 113.58 71 135.097 71v18.02c-16.284 0-30.85 6.724-36.521 16.859"/><path fill="#d5a6bd" d="M5.236 56.449h85.008v103.968H5.236z" fill-rule="evenodd"/><path stroke="#741b47" stroke-width="3" stroke-linejoin="round" stroke-linecap="butt" d="M5.236 56.449h85.008v103.968H5.236z"/><path fill="none" d="M2.969 56.449h89.543v52H2.969z"/><path fill="#a64d79" d="M18.578 74.679q-.203.344-.547.344-.328 0-.578-.36-.328-.75-.328-1.672 0-2.875 2.172-2.875 1.187 0 1.187.953 0 .391-.281.829l-1.625 2.78zm2.984 0q-.203.344-.547.344-.328 0-.578-.36-.328-.75-.328-1.672 0-2.875 2.172-2.875 1.188 0 1.188.953 0 .391-.282.829l-1.625 2.78zm7.833 10.156.047.64q0 .798-1.469.798-2.234 0-2.234-.954 0-.953.953-3.203.953-2.265.953-2.718 0-.704-.937-.704l-.344.032q-.703 0-.703-.64 0-.548.422-1.11.422-.563 1.11-.563 1.796 0 3.171-1.031 1.39-1.047 1.39-2.11 0-.687-.406-.937-.406-.266-1.234-.266-.813 0-1.172.438-1.25 1.547-4.016 6.531-2.75 4.985-3.078 6.11-.265.75-1.218 1.03-.938.298-1.938.298t-1-.735v-.03q0-.36 1.5-2.907t3.266-5.594q1.781-3.062 2.281-4.172.5-1.125.5-1.844v-.203q0-1.015 3.672-1.015 3.61 0 4.828.765.562.36.937 1.047.391.672.391 1.703 0 1.016-.812 2.032-.797 1.015-1.688 1.484-.875.469-1.703.672l-1.11.25q-.265.062-.218.062-.11 0 .187.172.297.156.688.578.39.422.39.938 0 .5-.703 2.328-.703 1.812-.703 2.828zm2.053 2.188q-.485 0-.97-.516-.483-.5-.483-1.203 0-.406 1.39-3.125 1.406-2.719 1.438-3.578 0-.532.593-.922.797-.469 2.266-.469.313 0 .781.156.485.157.485.64 0 .267-.172.438-.781.985-2.328 3.625-1.532 2.641-2.313 4.266-.187.688-.687.688zm4.672-10.141q-1.344 0-1.422-1.172v-.031q0-.875.78-1.375.798-.516 1.548-.516 1.36 0 1.406 1.172 0 .89-.766 1.406-.765.516-1.546.516zm1.56 9.531q-.64 0-1.156-.187-.516-.172-.531-.172 0-.016-.172.297-.578.875-1.985.875-1.14 0-1.14-.86l.078-.187q10.36-17.938 10.547-18.344.64-1.172 2.781-1.172 1.078 0 1.078.781 0 .329-1.078 1.829-3.734 5.062-5.766 9-.078-.047.016-.016-.234 0-.25-.11 0-.124.297-.343 1.297-.938 2.64-.938 1.688 0 1.688 1.985 0 .937-.547 2.187-.531 1.235-1.437 2.453-.89 1.203-2.25 2.063-1.36.86-2.813.86zm.766-2.078q.937 0 2.078-1.75 1.14-1.766 1.14-2.953 0-.14-.046-.14-.547 0-1.578.906-1.032.89-1.797 1.906-.75 1-.75 1.219l.062.203q.047.14.281.375.25.234.61.234zm8.064 2.078q-.64 0-1.156-.187-.516-.172-.531-.172 0-.016-.172.297-.578.875-1.985.875-1.14 0-1.14-.86l.078-.187Q51.964 68.24 52.15 67.835q.64-1.172 2.78-1.172 1.079 0 1.079.781 0 .329-1.078 1.829-3.734 5.062-5.766 9-.078-.047.016-.016-.234 0-.25-.11 0-.124.297-.343 1.297-.938 2.64-.938 1.688 0 1.688 1.985 0 .937-.547 2.187-.531 1.235-1.437 2.453-.891 1.203-2.25 2.063-1.36.86-2.813.86zm.766-2.078q.937 0 2.078-1.75 1.14-1.766 1.14-2.953 0-.14-.046-.14-.547 0-1.579.906-1.03.89-1.796 1.906-.75 1-.75 1.219l.062.203q.047.14.281.375.25.234.61.234zm5.67 2.688q-.484 0-.969-.516-.484-.5-.484-1.203 0-.406 1.39-3.125 1.407-2.719 1.438-3.578 0-.532.594-.922.797-.469 2.266-.469.312 0 .78.156.485.157.485.64 0 .267-.172.438-.781.985-2.328 3.625-1.531 2.641-2.312 4.266-.188.688-.688.688zm4.672-10.141q-1.344 0-1.422-1.172v-.031q0-.875.781-1.375.797-.516 1.547-.516 1.36 0 1.407 1.172 0 .89-.766 1.406-.766.516-1.547.516zm9.587-5.453 1.046-.047q.657 0 .657.344 0 .328-.063.53-.062.188-.25.438-.172.25-.406.422-.625.5-1.453.5-.813 0-1.11.047-.28.031-.484.156-.187.125-.234.188-.047.047-.25.375-.203.312-.297.453-1.125 1.563-3.64 5.906-2.5 4.344-3.11 6.672-.156.547-.735.547-.578 0-1.296-.687-.704-.672-.704-1.407 0-.734 1.766-3.64 1.781-2.922 3.5-5.625t1.719-2.782q0-.093-.078-.109-.063-.031-.64-.031h-.704q-.719 0-.719-.547t.328-.938q.344-.39.89-.625.548-.234 1.032-.437.5-.203 1.281-.906.797-.703 1.625-1.828.672-.922 2.188-.922.89 0 .89.718 0 .313-.968 1.704-.953 1.375-.953 1.437 0 .063.234.063.266.03.938.03zM63.98 84.1q0 1.343-1.078 2.343t-2.078 1q-.781 0-.781-.703l.156-.297q.828-.484.828-.718.313-.063.266.25-1.031-.25-1.031-1.063 0-.812.687-1.422.688-.61 1.578-.61 1.453 0 1.453 1.22zM19.156 102.873l.375.015q.094 0 .14-.11.266-.718 1.735-.702 1.469 0 1.469.89 0 .25-.547.797t-1.234 1.422q-.672.86-1.032 1.719-.156.406-.703.406-.547 0-.828-.422-.266-.422-.266-.828 0-.406.063-.64.078-.235.078-.282.031 0 0 .031-1.016 0-1.875 1.282-.844 1.265-.844 2.297 0 1.109 1.063 1.109.797 0 1.344-.344.234-.203.562-.203.672 0 .672.672 0 .781-1.156 1.625-1.141.844-2.72.844-1.577 0-2.218-.844-.625-.844-.625-1.797 0-.969.485-2.094.5-1.125 1.296-2.218.797-1.094 2.063-1.86 1.281-.765 2.703-.765zm8.158 5.953q-.672 0-.969-.578-.297-.594-.297-1.079 0-.5.25-1.015.235.015.235.25-.672 0-1.657.922-.984.906-1.687 1.937-.703 1.031-1.297 2.094-.484.86-1.875.86-1.016 0-1.016-.704 0-.687 2.172-4.531 2.172-3.844 2.985-4.14.53-.266 1.39-.266.86 0 .86.53 0 .532-.5 1.235-.485.703-.625.75-.141.047-.141-.234 0 .187.219-.188.953-.718 2.25-1.421l.156-.188q.625-.812 1.922-.812 1.312 0 1.312.921-.109.235-.297.516-1.671 2.25-2.812 4.734-.203.407-.578.407zm2.046 2.937q-.625-.297-1-1-.36-.719-.36-1.703 0-1.484.938-3.062.953-1.594 2.657-2.72 1.718-1.14 3.625-1.14 1 0 1.687.578.703.563.703 1.157 0 .593-.172.843-.156.235-.093.235-.188 0 .046-.094.235-.094.438-.188.219-.109.36-.109.609 0 .609.734 0 .72-.5 1.422-.5.688-1.094.938-.016.031-.172.36-.156.312-.734 1.109-.578.796-1.25 1.421-.657.625-1.782 1.125-1.109.516-2.062.516-.938 0-1.844-.422zm4.516-4.062q.265 0 .25.265-.203 0-.563.125-.343.125-.468.125-.563 0-.563-.625 0-1.015.719-1.718.281-.329.734-.516.453-.188.61-.328.156-.156.156-.578 0-.282-.328-.282-1.141 0-2.282 1.782-1.125 1.765-1.125 3.156 0 .344.22.578.234.219.53.219.891 0 1.5-.781.61-.797.61-1.422zm7.948 2.625.047-.438q.312-.031.312.281-.015 0-.562.516-.547.5-1.5 1.11-.953.609-2.125.609-1.156 0-1.156-1.735 0-1.75 1.484-3.984.75-1.094 1.734-2.047 1-.953 2.438-1.578 1.453-.625 3.031-.625.938 0 1.64.531.704.532.704 1.47 0 .937-.813.937-.343 0-.75-.329-.484-.312-1.64-.312-1.485 0-2.875 1.406-1.375 1.39-1.375 2.688v.093q.015.016.015 0 .47 0 1.375-.796.922-.813 1.828-2.36.11-.36.657-.578.547-.219 1.187-.219 1.219.094 1.219.766 0 .172-.203.469-.203.28-.61.922-.39.625-1.109 2.046-.703 1.422-.812 2.204-.079.625-.657.625-1.484 0-1.484-1.672zm12.313 3.328q0 .547-.625.64-1.313 0-2.157-2.25-.828-2.234-.828-3.859 0-.578.547-.719.797-.265 1.844-1 1.047-.75 1.047-1.453.14 0 .14.14-1.156 0-3.422 2.235-2.25 2.219-3.203 3.985-.203.437-.703.437-.484 0-.906-.578-.422-.578-.422-1.14 0-.563.203-.985 2.156-4.36 4.078-7.531 1.922-3.188 3.328-5.078 1.407-1.891 3-3.266 1.594-1.39 2.907-1.39 1.437 0 1.437 1.64 0 1.703-1.172 3.64-1.172 1.938-2.593 3.25-2.063 1.922-3.297 1.922-.844 0-.844-.78l.25-.376q2.078-1.453 3.25-3.25 1.172-1.812 1.172-2.453.062-.078.062-.016-.547 0-2.14 2.188-1.594 2.187-2.875 4.578-1.282 2.375-1.282 2.844-.171.015-.171-.156.015 0 .218-.188.219-.187.735-.578.515-.39 1.875-1.031 1.375-.657 2.672-.657 1.312 0 1.312 1.422 0 .97-.703 1.813-.703.828-1.469 1.297-.765.453-1.312.843-.547.391-.547.485-.047.594-.047 1.062 0 .47.062 1.14.063.673.157 1.188.156.829.343 1.672l.079.313zm4.832-3.953q0 1.343-1.079 2.343-1.078 1-2.078 1-.78 0-.78-.703l.155-.297q.828-.484.828-.718.313-.063.266.25-1.031-.25-1.031-1.063 0-.812.687-1.422.688-.61 1.578-.61 1.454 0 1.454 1.22zM22.344 128.363q1.359 0 1.359 1.328t-.797 3.047q-1.11 2.328-2.531 4.047-.797.938-2 .938-.75 0-.75-.688l.125-.36q1.015-1.484 1.765-3 .75-1.515.75-2.109.11 0 .094.047-.015.047.016.078-.688 0-2.094 1.36t-2.469 2.78q-1.047 1.407-1.406 2.032-.344.64-.781.797-.422.156-1.406.156-.97 0-.97-.703 0-.203.235-.578.235-.36 1.547-2.906 1.328-2.563 2.813-5.219 1.5-2.656 3.265-5.453 1.781-2.813 3.61-4.656 1.843-1.844 3.343-1.844 1.438 0 1.438 1.625 0 2.406-2.14 5.094-2.141 2.687-3.938 3.5-.47.218-1.157.218t-.687-.734l.234-.406q2.094-1.469 3.266-3.266 1.172-1.812 1.172-2.453 0-.125.031-.078.047.047.047.062-.531 0-2.203 2.407-1.672 2.39-3.031 4.968-1.344 2.579-1.344 3.047-.203 0-.235-.093-.03-.11.11-.22.312-.296.828-.75.516-.468 1.766-1.234 1.25-.78 2.125-.78zm1.47 9q-.624-.297-1-1-.358-.719-.358-1.703 0-1.484.937-3.062.953-1.594 2.656-2.72 1.719-1.14 3.625-1.14 1 0 1.688.578.703.563.703 1.157 0 .593-.172.843-.156.235-.094.235-.187 0 .047-.094.235-.094.438-.188.218-.109.359-.109.61 0 .61.734 0 .72-.5 1.422-.5.688-1.094.938-.016.031-.172.36-.156.312-.735 1.109-.578.796-1.25 1.421-.656.625-1.78 1.125-1.11.516-2.063.516-.938 0-1.844-.422zm4.517-4.062q.265 0 .25.265-.204 0-.563.125-.344.125-.469.125-.562 0-.562-.625 0-1.015.719-1.718.28-.329.734-.516.453-.188.61-.328.156-.156.156-.578 0-.282-.329-.282-1.14 0-2.28 1.782-1.126 1.765-1.126 3.156 0 .344.219.578.234.219.531.219.89 0 1.5-.781.61-.797.61-1.422zm5.07 4.625q-.75 0-.766.015-.703.907-2.953 5.22-2.266 4.327-2.875 6.062-.203.546-.766.546-.562 0-1.109-.609-.547-.594-.547-1.297 0-.86 2.172-4.703 2.156-3.828 5.078-8.766 2.938-4.953 3.422-5.89.5-.938.531-1.016.031-.078.188-.281.172-.203.406-.36.61-.39 1.547-.39.875 0 .875.719 0 .25-.594 1.156-.578.89-.656.89-.063 0-.125-.062-.063-.078.234-.266 1.375-.859 2.563-.859.61 0 1.078.469.469.469.469 1.453 0 1.844-1.079 3.687-1.078 1.829-3 3.063-1.921 1.219-4.093 1.219zm5.062-6.86q0-.156-.015-.234 0-.078 0 0-.61 0-1.454.672-.843.656-1.5 1.547-.64.875-1.062 1.593-.406.704-.406.735 0 .031.156.14.156.11.453.11 1.14 0 2.484-1.688 1.344-1.687 1.344-2.875zm1.358 4.922q0-.719.688-1.312.703-.594 1.453-.594 1.61 0 1.61 1.187 0 .75-.704 1.344-.687.578-1.453.578-1.594 0-1.594-1.203zM55.07 122.41q.61-1.047 1.875-1.047 1.266 0 1.266.969t-1.72 2.437q-1.702 1.454-2.468 1.454-.672 0-.672-.594 0-.156.75-1.485.766-1.328.969-1.734zm-3.047-.016q.594-1.03 1.844-1.03 1.265 0 1.265.968 0 .969-1.703 2.437-1.703 1.454-2.5 1.454-.672 0-.672-.594 0-.203 1.766-3.235z"/></g></svg>