<svg viewBox="0 0 1009.307 436.06" fill="none" stroke-linecap="square" stroke-miterlimit="10" xmlns="http://www.w3.org/2000/svg"><clipPath id="a"><path d="M0 0h1009.307v436.06H0V0z"/></clipPath><g clip-path="url(#a)"><path fill="none" d="M0 0h1009.307v436.06H0z"/><path fill="#76a5af" d="M792.987 312.198 836.184 266v21.598c62.195-8.787 110.348-35.727 125.021-69.946 21.459 50.04-34.071 100.294-125.021 113.143v21.599z" fill-rule="evenodd"/><path fill="#5e838b" d="M965.774 239.25c0-52.218-77.36-94.548-172.787-94.548v-43.197c95.428 0 172.787 42.33 172.787 94.547z" fill-rule="evenodd"/><path fill="none" d="M965.774 239.25c0-52.218-77.36-94.548-172.787-94.548v-43.197c95.428 0 172.787 42.33 172.787 94.547v43.197c0 43.114-53.301 80.767-129.59 91.545v21.599l-43.197-40.195L836.184 266v21.598c62.194-8.787 110.348-35.727 125.021-69.946"/><path stroke="#134f5c" stroke-linejoin="round" stroke-linecap="butt" d="M965.774 239.25c0-52.218-77.36-94.548-172.787-94.548v-43.197c95.428 0 172.787 42.33 172.787 94.547v43.197c0 43.114-53.301 80.767-129.59 91.545v21.599l-43.197-40.195L836.184 266v21.598c62.194-8.787 110.348-35.727 125.021-69.946"/><path fill="#d9ead3" d="M100.01 250.38h692.977v134.897H100.01z" fill-rule="evenodd"/><path stroke="#6aa84f" stroke-width="4" stroke-linejoin="round" stroke-linecap="butt" d="M100.01 250.38h692.977v134.897H100.01z"/><path fill="none" d="M116.73 288.274h641.165v87.906H116.73z"/><path fill="#38761d" d="M137.73 307.212v-.438q0-.86 3.562-.86 1.797 0 1.797.657 0 .266-.266.547-1.265 1.719-5.39 8.766l4.125.03q1.375 0 2.5-1.108.562-.594 1.015-1.11.454-.515 1.016-1.484.578-.969.906-1.531.469-.844 1.625-3.204 0-.171.25-.421.25-.25.594-.422.36-.188 1.094-.313.734-.14 1.734-.14t1 .437q0 .188-.156.438-.14.25-1.734 2.687-1.579 2.438-3.188 5.063-1.594 2.609-3.375 5.671-1.781 3.063-2.906 5.594-1.11 2.531-1.11 3.703-.203.563-.828.563-1.828 0-2.531-.297-.703-.297-.703-.906 0-1.032 2.219-4.828 2.218-3.797 2.218-4.61 0-.812-.671-1.219-.672-.406-2.235-.406-1.562 0-2.172.031-1.125 1.844-2.593 4.72-1.47 2.859-2.47 4.687-1 1.828-1.593 2.297-1.234.937-3.031.937-1.031 0-1.031-.531 0-.297.875-1.781.89-1.485 2.843-4.672 1.969-3.188 3.407-5.578l-2.032.093q-.5 0-.5-.265 0-.563.719-1.125.719-.578 1.172-.735.469-.172 1.937-.234 1.235-2.11 3.172-5.844.735-1.594.735-2.86zm21.828 11.062-2.828-.093q-2.11 0-3.234 1.359-.797 1-2.125 3.266-1.313 2.265-1.313 3.609 0 1.219 2.438 1.219 1.5 0 3.203-.563 3.422-1.125 5.422-4.328.234-.297.796-.297.579 0 .579.656 0 .641-1.079 2.704-1.062 2.062-1.89 3.109-.438.531-1.688.594-1.25.062-3.812.062h-3.266l-1.906-.031-.89-.063h-.235q-.203 0-.5.297-1.11.969-3.14.969-.97 0-.97-.437v-.094q0-.375 2.313-4.36 2.328-3.984 5.156-8.875 2.844-4.906 3.64-6.718.798-1.813.798-3.11v-.375q0-.562 7.094-.562 2.343 0 4.062.062.5-.562 2.578-.562.86 0 .86.437 0 .766-1.516 3.078-1.516 2.313-2.64 3.157-.376.297-.938.297-.563 0-.563-.235 0-.11.094-.265.531-1.032.531-2.344 0-1.828-2.531-1.828-1.531 0-2.422.812-.875.797-1.75 2.235-.86 1.421-1.281 2.453-.406 1.03-.406 1.297 0 .796.78.984.782.187 3.11.187l2.469-.093q.328 0 .328.25t-.36.828q-.343.578-.702.812-.735.5-2.266.5zm7.16 11.235-.468-.032q-.453 0-.688.297-1.14.969-3.078.969-1 0-1-.437v-.094q0-.375 2.313-4.36 2.328-3.984 5.14-8.875 2.813-4.906 3.625-6.734.829-1.828.829-3.031v-.438q0-.86 3.562-.86 1.797 0 1.797.657 0 .266-.266.547-2.656 4.328-7.062 12.36l-.469.828q-.469.843-.672 1.187-.187.344-.61 1.203-.421.844-.609 1.375-.578 1.5-.578 2.344 0 1.219 2.203 1.219h.235q1.36 0 3-.563 3.203-1.125 5.203-4.328.125-.297.734-.297.625 0 .625.531 0 .797-1.062 2.875-1.063 2.063-1.938 3.063-.422.594-1.656.594-1.234.062-5.344.062l-3.765-.062zm17.431 0-.469-.032q-.453 0-.687.297-1.14.969-3.078.969-1 0-1-.437v-.094q0-.375 2.312-4.36 2.328-3.984 5.141-8.875 2.812-4.906 3.625-6.734.828-1.828.828-3.031v-.438q0-.86 3.563-.86 1.796 0 1.796.657 0 .266-.265.547-2.656 4.328-7.063 12.36l-.468.828q-.47.843-.672 1.187-.188.344-.61 1.203-.422.844-.609 1.375-.578 1.5-.578 2.344 0 1.219 2.203 1.219h.234q1.36 0 3-.563 3.203-1.125 5.203-4.328.125-.297.735-.297.625 0 .625.531 0 .797-1.063 2.875-1.062 2.063-1.937 3.063-.422.594-1.656.594-1.235.062-5.344.062l-3.766-.062zm36.693-18.203q0 1.875-.75 4.28-.75 2.391-2.218 4.891-1.454 2.5-3.375 4.625-1.922 2.11-4.547 3.47-2.61 1.343-5.391 1.343t-4.375-1.547q-1.594-1.562-1.594-4.297 0-1.86.735-4.25.75-2.406 2.218-4.906 1.47-2.5 3.375-4.594 1.922-2.11 4.532-3.453 2.625-1.36 5.406-1.36 2.797 0 4.39 1.532 1.594 1.531 1.594 4.266zm-3.922-.297q0-3.672-2.671-3.672-2.235 0-4.985 2.844-2.75 2.828-4.672 6.843-1.906 4.016-1.906 7.188 0 3.656 2.672 3.656 2.187 0 4.953-2.828 2.766-2.828 4.688-6.844 1.921-4.015 1.921-7.187zm18.39-3.86-.031-.734q0-.906 3.094-.906 1.937 0 1.937.968 0 .172-.062.235-.235 1.297-2.641 8.297-2.39 7-2.39 7.718 0 .72.656.72.5 0 .765-.266l1.172-1.172q.703-.703 3.828-5.047 3.14-4.344 5.032-7.516.64-1.265 4.203-1.265.906 0 .906.562l-.234.64q-1 2.032-2.704 7.173-1.703 5.125-1.703 6.015 0 .875.672.875.5 0 .766-.265l.937-.938q1.235-1.234 5.407-7.047 4.187-5.812 5.656-8.687.36-.735.828-.97.844-.39 2.937-.468h.672q1.735 0 1.735.578 0 .235-.313.532-3.266 3.093-9.578 10.515-6.312 7.406-8.578 10.719-.469.687-.734 1-.266.297-.875.687-1.125.735-3.954.735-1.64 0-1.64-.797l.11-.36q.187-.64.718-2.14.547-1.5.906-2.531.375-1.032.797-2.266.844-2.5.844-3.062 0-.579-.5-.579-.547 0-1.203.813-2.641 3.125-6.407 8.5-.625.89-1 1.281-.359.375-1.53.75-1.173.39-2.923.39-1.734 0-1.734-.796l.094-.36q1.172-3.374 3.109-9.703 1.953-6.328 2.656-9.296.297-1.704.297-2.532zm44.69 4.157q0 1.875-.75 4.28-.75 2.391-2.219 4.891-1.453 2.5-3.375 4.625-1.922 2.11-4.547 3.47-2.61 1.343-5.39 1.343-2.782 0-4.375-1.547-1.594-1.562-1.594-4.297 0-1.86.734-4.25.75-2.406 2.22-4.906 1.468-2.5 3.374-4.594 1.922-2.11 4.531-3.453 2.625-1.36 5.407-1.36 2.796 0 4.39 1.532Q280 308.57 280 311.306zm-3.922-.297q0-3.672-2.672-3.672-2.234 0-4.984 2.844-2.75 2.828-4.672 6.843-1.906 4.016-1.906 7.188 0 3.656 2.672 3.656 2.187 0 4.953-2.828 2.765-2.828 4.687-6.844 1.922-4.015 1.922-7.187zm15.157 17.265.063 1q0 .532-1.594.532-2.797 0-2.797-1.063 0-1.062 1.485-4.594 1.484-3.547 1.484-4.406 0-1.766-2.172-1.766l-.531.032q-.406 0-.406-.297 0-.64.484-1.281.484-.657 1.219-.657 3.03 0 5.422-1.797 2.406-1.796 2.406-3.796 0-1.438-.89-2-.876-.563-2.407-.563-1.531 0-2.328.922-1.969 2.469-6.328 10.328-4.344 7.844-4.875 9.64-.297.829-1.547 1.22-1.25.406-2.438.406-1.172 0-1.172-.453v-.079q0-.359 2.297-4.25 2.297-3.906 5.078-8.687 2.782-4.781 3.594-6.61.828-1.843.828-3.109v-.328q0-.906 5.063-.906 5.437 0 7.156 1.094.734.468 1.25 1.375.516.89.516 2.296 0 1.407-1.141 2.844-1.125 1.422-2.406 2.11-1.281.671-2.547.984-1.266.297-1.906.5-.625.187-.625.625 0 .266.484.656.484.375.984.922.5.531.5 1.125t-1.109 3.453q-1.094 2.844-1.094 4.578zm6.296 1.235-.468-.032q-.453 0-.688.297-1.14.969-3.078.969-1 0-1-.437v-.094q0-.375 2.313-4.36 2.328-3.984 5.14-8.875 2.813-4.906 3.625-6.734.828-1.828.828-3.031v-.438q0-.86 3.563-.86 1.797 0 1.797.657 0 .266-.266.547-2.656 4.328-7.062 12.36l-.47.828q-.468.843-.671 1.187-.188.344-.61 1.203-.421.844-.609 1.375-.578 1.5-.578 2.344 0 1.219 2.203 1.219h.235q1.359 0 3-.563 3.203-1.125 5.203-4.328.125-.297.734-.297.625 0 .625.531 0 .797-1.062 2.875-1.063 2.063-1.938 3.063-.422.594-1.656.594-1.235.062-5.344.062l-3.766-.062zm20.837.53q-1.765 0-2.265-.124-.5-.11-.86-.203-.344-.078-.453-.11-.094-.03-.297-.03-.39 0-.719.202-1.171.969-3.078.969-1 0-1-.453t2.313-4.453q2.328-4 5.14-8.89 2.813-4.907 3.625-6.735.829-1.828.829-3.172v-.266q0-.968 5.562-.968 8.266 0 8.266 5.64 0 4.063-2.766 8.969-1.437 2.562-3.375 4.703-1.922 2.125-4.812 3.531-2.875 1.39-6.11 1.39zm10.969-11.405q1.234-2.391 1.875-4.47.656-2.093.656-3.5 0-1.421-.828-2.155-.812-.735-2.75-.735-1.328 0-2.125.938-2.094 2.625-6.062 9.719-3.97 7.078-3.97 8.28 0 1.329 2.829 1.329 2 0 4.031-1.39 2.031-1.407 3.563-3.516 1.547-2.125 2.781-4.5zM539.727 307.212v-.438q0-.86 3.562-.86 1.797 0 1.797.657 0 .266-.265.547-1.266 1.719-5.391 8.766l4.125.03q1.375 0 2.5-1.108.562-.594 1.016-1.11.453-.515 1.015-1.484.578-.969.906-1.531.47-.844 1.625-3.204 0-.171.25-.421.25-.25.594-.422.36-.188 1.094-.313.734-.14 1.734-.14t1 .437q0 .188-.156.438-.14.25-1.734 2.687-1.578 2.438-3.188 5.063-1.594 2.609-3.375 5.671-1.781 3.063-2.906 5.594-1.11 2.531-1.11 3.703-.203.563-.828.563-1.828 0-2.53-.297-.704-.297-.704-.906 0-1.032 2.219-4.828 2.219-3.797 2.219-4.61 0-.812-.672-1.219-.672-.406-2.235-.406-1.562 0-2.172.031-1.125 1.844-2.593 4.72-1.47 2.859-2.47 4.687-1 1.828-1.593 2.297-1.234.937-3.031.937-1.031 0-1.031-.531 0-.297.875-1.781.89-1.485 2.843-4.672 1.97-3.188 3.407-5.578l-2.032.093q-.5 0-.5-.265 0-.563.72-1.125.718-.578 1.171-.735.469-.172 1.938-.234 1.234-2.11 3.171-5.844.735-1.594.735-2.86zm10.625 22.297-.469-.032q-.453 0-.687.297-1.14.969-3.078.969-1 0-1-.437v-.094q0-.375 2.312-4.36 2.328-3.984 5.14-8.875 2.813-4.906 3.626-6.734.828-1.828.828-3.031v-.438q0-.86 3.562-.86 1.797 0 1.797.657 0 .266-.265.547-2.657 4.328-7.063 12.36l-.469.828q-.468.843-.671 1.187-.188.344-.61 1.203-.422.844-.61 1.375-.577 1.5-.577 2.344 0 1.219 2.203 1.219h.234q1.36 0 3-.563 3.203-1.125 5.203-4.328.125-.297.735-.297.625 0 .625.531 0 .797-1.063 2.875-1.062 2.063-1.937 3.063-.422.594-1.657.594-1.234.062-5.343.062l-3.766-.062zm36.693-18.203q0 1.875-.75 4.28-.75 2.391-2.219 4.891-1.453 2.5-3.375 4.625-1.922 2.11-4.547 3.47-2.609 1.343-5.39 1.343-2.781 0-4.375-1.547-1.594-1.562-1.594-4.297 0-1.86.734-4.25.75-2.406 2.22-4.906 1.468-2.5 3.374-4.594 1.922-2.11 4.531-3.453 2.625-1.36 5.407-1.36 2.797 0 4.39 1.532 1.594 1.531 1.594 4.266zm-3.922-.297q0-3.672-2.672-3.672-2.234 0-4.984 2.844-2.75 2.828-4.672 6.843-1.906 4.016-1.906 7.188 0 3.656 2.672 3.656 2.187 0 4.953-2.828 2.765-2.828 4.687-6.844 1.922-4.015 1.922-7.187zm6.83 19.03q-1.766 0-2.266-.124-.5-.11-.86-.203-.343-.078-.453-.11-.093-.03-.297-.03-.39 0-.718.202-1.172.969-3.078.969-1 0-1-.453t2.312-4.453q2.328-4 5.14-8.89 2.813-4.907 3.626-6.735.828-1.828.828-3.172v-.266q0-.968 5.562-.968 8.266 0 8.266 5.64 0 4.063-2.766 8.969-1.437 2.562-3.375 4.703-1.922 2.125-4.812 3.531-2.875 1.39-6.11 1.39zm10.968-11.405q1.235-2.391 1.875-4.47.656-2.093.656-3.5 0-1.421-.828-2.155-.812-.735-2.75-.735-1.328 0-2.125.938-2.093 2.625-6.062 9.719-3.969 7.078-3.969 8.28 0 1.329 2.828 1.329 2 0 4.031-1.39 2.032-1.407 3.563-3.516 1.547-2.125 2.781-4.5zm16.758-.36-2.828-.093q-2.11 0-3.234 1.359-.797 1-2.125 3.266-1.313 2.265-1.313 3.609 0 1.219 2.438 1.219 1.5 0 3.203-.563 3.422-1.125 5.422-4.328.234-.297.797-.297.578 0 .578.656 0 .641-1.078 2.704-1.063 2.062-1.89 3.109-.438.531-1.688.594-1.25.062-3.813.062h-3.265l-1.907-.031-.89-.063h-.235q-.203 0-.5.297-1.11.969-3.14.969-.97 0-.97-.437v-.094q0-.375 2.313-4.36 2.329-3.984 5.157-8.875 2.843-4.906 3.64-6.718.797-1.813.797-3.11v-.375q0-.562 7.094-.562 2.344 0 4.062.062.5-.562 2.579-.562.859 0 .859.437 0 .766-1.516 3.078-1.515 2.313-2.64 3.157-.375.297-.938.297-.562 0-.562-.235 0-.11.093-.265.532-1.032.532-2.344 0-1.828-2.532-1.828-1.53 0-2.421.812-.875.797-1.75 2.235-.86 1.421-1.282 2.453-.406 1.03-.406 1.297 0 .796.781.984.782.187 3.11.187l2.468-.093q.329 0 .329.25t-.36.828q-.344.578-.703.812-.734.5-2.266.5zm26.724-6.968q0 1.875-.75 4.28-.75 2.391-2.22 4.891-1.452 2.5-3.374 4.625-1.922 2.11-4.547 3.47-2.61 1.343-5.39 1.343-2.782 0-4.376-1.547-1.593-1.562-1.593-4.297 0-1.86.734-4.25.75-2.406 2.219-4.906 1.468-2.5 3.375-4.594 1.922-2.11 4.53-3.453 2.626-1.36 5.407-1.36 2.797 0 4.39 1.532 1.595 1.531 1.595 4.266zm-3.922-.297q0-3.672-2.672-3.672-2.235 0-4.985 2.844-2.75 2.828-4.671 6.843-1.907 4.016-1.907 7.188 0 3.656 2.672 3.656 2.188 0 4.953-2.828 2.766-2.828 4.688-6.844 1.922-4.015 1.922-7.187zm15.157 17.265.062 1q0 .532-1.593.532-2.797 0-2.797-1.063 0-1.062 1.484-4.594 1.485-3.547 1.485-4.406 0-1.766-2.172-1.766l-.532.032q-.406 0-.406-.297 0-.64.485-1.281.484-.657 1.218-.657 3.032 0 5.422-1.797 2.406-1.796 2.406-3.796 0-1.438-.89-2-.875-.563-2.406-.563-1.532 0-2.329.922-1.968 2.469-6.328 10.328-4.343 7.844-4.875 9.64-.297.829-1.547 1.22-1.25.406-2.437.406-1.172 0-1.172-.453v-.079q0-.359 2.297-4.25 2.297-3.906 5.078-8.687 2.781-4.781 3.594-6.61.828-1.843.828-3.109v-.328q0-.906 5.062-.906 5.438 0 7.157 1.094.734.468 1.25 1.375.515.89.515 2.296 0 1.407-1.14 2.844-1.125 1.422-2.407 2.11-1.28.671-2.546.984-1.266.297-1.907.5-.625.187-.625.625 0 .266.485.656.484.375.984.922.5.531.5 1.125t-1.11 3.453q-1.093 2.844-1.093 4.578zm6.296 1.235-.469-.032q-.453 0-.687.297-1.14.969-3.078.969-1 0-1-.437v-.094q0-.375 2.312-4.36 2.328-3.984 5.14-8.875 2.813-4.906 3.626-6.734.828-1.828.828-3.031v-.438q0-.86 3.562-.86 1.797 0 1.797.657 0 .266-.265.547-2.657 4.328-7.063 12.36l-.469.828q-.468.843-.671 1.187-.188.344-.61 1.203-.422.844-.61 1.375-.577 1.5-.577 2.344 0 1.219 2.203 1.219h.234q1.36 0 3-.563 3.203-1.125 5.203-4.328.125-.297.735-.297.625 0 .625.531 0 .797-1.063 2.875-1.062 2.063-1.937 3.063-.422.594-1.657.594-1.234.062-5.343.062l-3.766-.062zm20.4-22.36-.032-.734q0-.906 3.094-.906 1.937 0 1.937.968 0 .172-.062.235-.235 1.297-2.64 8.297-2.391 7-2.391 7.718 0 .72.656.72.5 0 .765-.266l1.172-1.172q.703-.703 3.828-5.047 3.141-4.344 5.032-7.516.64-1.265 4.203-1.265.906 0 .906.562l-.234.64q-1 2.032-2.703 7.173-1.704 5.125-1.704 6.015 0 .875.672.875.5 0 .766-.265l.937-.938q1.235-1.234 5.407-7.047 4.187-5.812 5.656-8.687.36-.735.828-.97.844-.39 2.938-.468h.671q1.735 0 1.735.578 0 .235-.313.532-3.265 3.093-9.578 10.515-6.312 7.406-8.578 10.719-.469.687-.734 1-.266.297-.875.687-1.125.735-3.953.735-1.641 0-1.641-.797l.11-.36q.187-.64.718-2.14.547-1.5.906-2.531.375-1.032.797-2.266.844-2.5.844-3.062 0-.579-.5-.579-.547 0-1.203.813-2.64 3.125-6.406 8.5-.625.89-1 1.281-.36.375-1.532.75-1.172.39-2.922.39-1.734 0-1.734-.796l.094-.36q1.172-3.374 3.11-9.703 1.952-6.328 2.655-9.296.297-1.704.297-2.532zm21.927 22.36-.47-.032q-.452 0-.687.297-1.14.969-3.078.969-1 0-1-.437v-.094q0-.375 2.313-4.36 2.328-3.984 5.14-8.875 2.813-4.906 3.625-6.734.829-1.828.829-3.031v-.438q0-.86 3.562-.86 1.797 0 1.797.657 0 .266-.266.547-2.656 4.328-7.062 12.36l-.469.828q-.469.843-.672 1.187-.187.344-.61 1.203-.421.844-.609 1.375-.578 1.5-.578 2.344 0 1.219 2.203 1.219h.235q1.36 0 3-.563 3.203-1.125 5.203-4.328.125-.297.734-.297.625 0 .625.531 0 .797-1.062 2.875-1.063 2.063-1.938 3.063-.422.594-1.656.594-1.234.062-5.344.062l-3.765-.062z"/><defs><radialGradient id="b" gradientUnits="userSpaceOnUse" gradientTransform="scale(8.32987)" spreadMethod="pad" cx="51.408" cy="38.155" fx="51.408" fy="38.155" r="8.33"><stop offset="0" stop-color="#dcecd5"/><stop offset="1" stop-color="#93bc81"/></radialGradient></defs><path fill="url(#b)" d="M362.286 307.025h110.268v-10.803l21.606 21.606-21.606 21.606v-10.803H362.286z" fill-rule="evenodd"/><path stroke="#38761d" stroke-linejoin="round" stroke-linecap="butt" d="M362.286 307.025h110.268v-10.803l21.606 21.606-21.606 21.606v-10.803H362.286z"/><path fill="#d0e0e3" d="M198.711 25.759H792.98v172.944H198.711z" fill-rule="evenodd"/><path stroke="#45818e" stroke-width="4" stroke-linejoin="round" stroke-linecap="butt" d="M198.711 25.759H792.98v172.944H198.711z"/><path fill="none" d="M135.234 29.438H828.21v139.843H135.234z"/><path fill="#000" d="M264.568 50.354v-.516q0-1.047 4.281-1.047 2.157 0 2.157.813 0 .312-.329.64-1.515 2.079-6.468 10.516l4.953.031q1.64 0 3-1.312.687-.719 1.219-1.328.546-.625 1.218-1.781.688-1.172 1.078-1.844.563-1 1.97-3.844 0-.203.296-.5.297-.297.719-.516.422-.234 1.297-.39.89-.156 2.078-.156 1.203 0 1.203.515 0 .25-.188.547-.171.297-2.078 3.219-1.89 2.922-3.812 6.062t-4.063 6.828q-2.14 3.672-3.484 6.72-1.328 3.03-1.328 4.421-.25.688-1 .688-2.203 0-3.047-.36-.844-.36-.844-1.078 0-1.25 2.656-5.797 2.672-4.562 2.672-5.547 0-.984-.812-1.453-.797-.484-2.672-.484t-2.594.031q-1.36 2.203-3.125 5.656-1.765 3.438-2.969 5.64-1.187 2.188-1.906 2.75-1.484 1.126-3.64 1.126-1.25 0-1.25-.64 0-.36 1.062-2.141 1.063-1.782 3.422-5.594 2.36-3.828 4.078-6.703l-2.437.11q-.594 0-.594-.313 0-.688.86-1.36.859-.687 1.405-.875.563-.203 2.329-.297 1.484-2.515 3.796-7 .891-1.906.891-3.437zM298.724 75.526q0-.969 1.032-1.86 1.046-.906 2.171-.906 2.188 0 2.188 1.39 0 1.048-1.047 1.938-1.031.875-2.187.875-2.157 0-2.157-1.437zM346.724 75.526q0-.969 1.032-1.86 1.046-.906 2.171-.906 2.188 0 2.188 1.39 0 1.048-1.047 1.938-1.031.875-2.187.875-2.157 0-2.157-1.437zM406.565 77.12l-.563-.047q-.562 0-.843.36-1.36 1.17-3.672 1.17-1.203 0-1.203-.53v-.11q0-.437 2.78-5.218 2.782-4.782 6.157-10.657 3.375-5.89 4.36-8.093.984-2.204.984-3.641v-.516q0-1.047 4.281-1.047 2.156 0 2.156.813 0 .312-.328.64-3.187 5.188-8.468 14.829l-.563 1q-.562 1-.812 1.422-.235.421-.735 1.453-.5 1.015-.734 1.656-.688 1.797-.688 2.797 0 1.484 2.64 1.484h.282q1.64 0 3.61-.687 3.843-1.36 6.234-5.203.156-.36.89-.36.75 0 .75.64 0 .97-1.28 3.454-1.282 2.469-2.313 3.672-.531.719-2 .719-1.485.078-6.406.078l-4.516-.078zM442.724 75.526q0-.969 1.032-1.86 1.046-.906 2.171-.906 2.188 0 2.188 1.39 0 1.048-1.047 1.938-1.031.875-2.187.875-2.157 0-2.157-1.437zM497.924 75.526q0-.969 1.032-1.86 1.046-.906 2.171-.906 2.188 0 2.188 1.39 0 1.048-1.047 1.938-1.031.875-2.187.875-2.157 0-2.157-1.437zM582.437 55.276q0 2.25-.906 5.125-.891 2.875-2.657 5.875-1.75 3-4.062 5.547-2.297 2.53-5.438 4.156-3.125 1.625-6.468 1.625-3.344 0-5.266-1.86-1.922-1.859-1.922-5.14 0-2.25.89-5.125.907-2.875 2.673-5.875 1.765-3 4.062-5.516 2.297-2.53 5.438-4.14 3.14-1.625 6.484-1.625t5.25 1.843q1.922 1.829 1.922 5.11zm-4.719-.36q0-4.39-3.203-4.39-2.672 0-5.969 3.406-3.297 3.39-5.61 8.219-2.296 4.812-2.296 8.61 0 4.39 3.203 4.39 2.64 0 5.953-3.39 3.328-3.407 5.625-8.22 2.297-4.828 2.297-8.625zM608.324 75.526q0-.969 1.032-1.86 1.046-.906 2.171-.906 2.188 0 2.188 1.39 0 1.048-1.047 1.938-1.031.875-2.187.875-2.157 0-2.157-1.437zM649.124 75.526q0-.969 1.032-1.86 1.046-.906 2.171-.906 2.188 0 2.188 1.39 0 1.048-1.047 1.938-1.031.875-2.187.875-2.157 0-2.157-1.437zM698.643 77.76q-2.125 0-2.734-.14-.594-.141-1.016-.25-.406-.094-.531-.141-.125-.031-.36-.031-.484 0-.875.234-1.406 1.172-3.687 1.172-1.203 0-1.203-.547 0-.531 2.781-5.328 2.781-4.813 6.156-10.688 3.39-5.89 4.36-8.078.984-2.203.984-3.812v-.313q0-1.156 6.688-1.156 9.921 0 9.921 6.75 0 4.89-3.328 10.766-1.718 3.078-4.047 5.64-2.312 2.563-5.78 4.25-3.454 1.672-7.329 1.672zM711.8 64.057q1.485-2.86 2.266-5.36.781-2.5.781-4.202 0-1.704-.984-2.579-.985-.875-3.297-.875-1.61 0-2.563 1.11-2.515 3.172-7.28 11.672-4.766 8.5-4.766 9.937 0 1.594 3.406 1.594 2.406 0 4.844-1.672 2.437-1.687 4.265-4.219 1.844-2.547 3.328-5.406zM255.144 123.526q0-.969 1.032-1.86 1.046-.906 2.171-.906 2.188 0 2.188 1.39 0 1.048-1.047 1.938-1.031.875-2.187.875-2.157 0-2.157-1.437zM321.222 111.635l-3.406-.11q-2.515 0-3.875 1.626-.953 1.203-2.547 3.922-1.578 2.718-1.578 4.328 0 1.484 2.922 1.484 1.797 0 3.844-.687 4.125-1.36 6.515-5.203.282-.36.954-.36.687 0 .687.781 0 .782-1.281 3.266-1.281 2.469-2.281 3.719-.516.64-2.016.719-1.5.078-4.578.078h-3.922l-2.281-.047-1.078-.078h-.282q-.234 0-.593.36-1.329 1.17-3.766 1.17-1.156 0-1.156-.53v-.11q0-.437 2.78-5.218 2.782-4.782 6.173-10.657 3.406-5.89 4.36-8.062.968-2.188.968-3.75v-.438q0-.687 8.516-.687 2.796 0 4.875.094.609-.688 3.093-.688 1.032 0 1.032.516 0 .922-1.829 3.703-1.812 2.781-3.171 3.781-.438.36-1.125.36-.672 0-.672-.282 0-.11.125-.312.64-1.25.64-2.797 0-2.203-3.047-2.203-1.843 0-2.906.968-1.047.954-2.094 2.672-1.046 1.72-1.546 2.953-.5 1.235-.5 1.563 0 .953.937 1.187.953.22 3.75.22l2.953-.126q.406 0 .406.297t-.421 1q-.422.703-.86.984-.875.594-2.719.594zM358.344 123.526q0-.969 1.032-1.86 1.046-.906 2.171-.906 2.188 0 2.188 1.39 0 1.048-1.047 1.938-1.031.875-2.187.875-2.157 0-2.157-1.437zM413.544 123.526q0-.969 1.032-1.86 1.046-.906 2.171-.906 2.188 0 2.188 1.39 0 1.048-1.047 1.938-1.031.875-2.187.875-2.157 0-2.157-1.437zM483.657 103.276q0 2.25-.906 5.125-.891 2.875-2.657 5.875-1.75 3-4.062 5.547-2.297 2.53-5.438 4.156-3.125 1.625-6.468 1.625-3.344 0-5.266-1.86-1.922-1.859-1.922-5.14 0-2.25.89-5.125.907-2.875 2.673-5.875 1.765-3 4.062-5.516 2.297-2.53 5.438-4.14 3.14-1.625 6.484-1.625t5.25 1.843q1.922 1.829 1.922 5.11zm-4.719-.36q0-4.39-3.203-4.39-2.672 0-5.969 3.406-3.297 3.39-5.61 8.219-2.296 4.812-2.296 8.61 0 4.39 3.203 4.39 2.64 0 5.953-3.39 3.328-3.407 5.625-8.22 2.297-4.828 2.297-8.625zM509.544 123.526q0-.969 1.032-1.86 1.046-.906 2.171-.906 2.188 0 2.188 1.39 0 1.048-1.047 1.938-1.031.875-2.187.875-2.157 0-2.157-1.437zM564.744 123.526q0-.969 1.032-1.86 1.046-.906 2.171-.906 2.188 0 2.188 1.39 0 1.048-1.047 1.938-1.031.875-2.187.875-2.157 0-2.157-1.437zM631.463 123.635l.078 1.203q0 .64-1.922.64-3.36 0-3.36-1.28 0-1.282 1.782-5.516 1.781-4.25 1.781-5.281 0-2.125-2.593-2.125l-.641.047q-.484 0-.484-.36 0-.765.578-1.547.578-.78 1.453-.78 3.64 0 6.515-2.157 2.891-2.156 2.891-4.563 0-1.718-1.062-2.39-1.063-.688-2.907-.688-1.828 0-2.797 1.125-2.359 2.953-7.578 12.375-5.218 9.422-5.859 11.578-.36 1-1.86 1.485-1.5.484-2.921.484-1.422 0-1.422-.562v-.078q0-.454 2.765-5.125 2.766-4.688 6.094-10.422 3.344-5.735 4.328-7.938.985-2.203.985-3.719v-.406q0-1.078 6.078-1.078 6.515 0 8.594 1.328.89.547 1.5 1.64.625 1.079.625 2.766 0 1.672-1.36 3.391t-2.906 2.547q-1.531.812-3.063 1.172-1.515.36-2.28.61-.75.234-.75.75 0 .312.577.78.578.454 1.172 1.094.61.64.61 1.36 0 .718-1.329 4.14-1.312 3.422-1.312 5.5zM660.744 123.526q0-.969 1.032-1.86 1.046-.906 2.171-.906 2.188 0 2.188 1.39 0 1.048-1.047 1.938-1.031.875-2.187.875-2.157 0-2.157-1.437zM701.544 123.526q0-.969 1.032-1.86 1.046-.906 2.171-.906 2.188 0 2.188 1.39 0 1.048-1.047 1.938-1.031.875-2.188.875-2.156 0-2.156-1.437zM262.396 171.526q0-.969 1.031-1.86 1.047-.906 2.172-.906 2.188 0 2.188 1.39 0 1.048-1.047 1.938-1.031.875-2.188.875-2.156 0-2.156-1.437zM317.596 171.526q0-.969 1.031-1.86 1.047-.906 2.172-.906 2.188 0 2.188 1.39 0 1.048-1.047 1.938-1.031.875-2.188.875-2.156 0-2.156-1.437zM355.837 173.12l-.563-.047q-.562 0-.844.36-1.359 1.17-3.671 1.17-1.204 0-1.204-.53v-.11q0-.437 2.782-5.218 2.781-4.782 6.156-10.657 3.375-5.89 4.36-8.093.984-2.204.984-3.641v-.516q0-1.047 4.281-1.047 2.156 0 2.156.813 0 .312-.328.64-3.187 5.188-8.469 14.829l-.562 1q-.563 1-.813 1.422-.234.421-.734 1.453-.5 1.015-.734 1.656-.688 1.797-.688 2.797 0 1.484 2.64 1.484h.282q1.64 0 3.61-.687 3.843-1.36 6.234-5.203.156-.36.89-.36.75 0 .75.64 0 .97-1.28 3.454-1.282 2.469-2.313 3.672-.532.719-2 .719-1.485.078-6.407.078l-4.515-.078zM413.596 171.526q0-.969 1.031-1.86 1.047-.906 2.172-.906 2.188 0 2.188 1.39 0 1.048-1.047 1.938-1.031.875-2.188.875-2.156 0-2.156-1.437zM461.596 171.526q0-.969 1.031-1.86 1.047-.906 2.172-.906 2.188 0 2.188 1.39 0 1.048-1.047 1.938-1.031.875-2.188.875-2.156 0-2.156-1.437zM510.6 146.276l-.048-.875q0-1.078 3.72-1.078 2.327 0 2.327 1.156 0 .203-.078.281-.281 1.563-3.172 9.969-2.875 8.39-2.875 9.25 0 .86.797.86.61 0 .922-.313.562-.563 1.39-1.406.844-.844 4.61-6.063 3.766-5.219 6.047-9.016.75-1.515 5.031-1.515 1.078 0 1.078.672l-.281.765q-1.188 2.438-3.234 8.594-2.047 6.156-2.047 7.219 0 1.062.812 1.062.594 0 .922-.312.547-.563 1.11-1.125 1.484-1.485 6.5-8.453 5.015-6.985 6.78-10.422.438-.89 1-1.172 1-.469 3.516-.563h.813q2.078 0 2.078.688 0 .281-.36.64-3.921 3.72-11.5 12.626-7.578 8.89-10.312 12.859-.547.828-.875 1.187-.312.36-1.031.844-1.36.89-4.766.89-1.953 0-1.953-.968l.11-.437q.25-.766.874-2.563.641-1.797 1.079-3.031.453-1.25.968-2.735 1-3 1-3.671 0-.688-.593-.688-.641 0-1.438.969-3.172 3.75-7.687 10.203-.766 1.078-1.204 1.547-.437.453-1.843.906-1.39.469-3.5.469-2.094 0-2.094-.969l.125-.437q1.39-4.047 3.734-11.641 2.344-7.594 3.188-11.156.36-2.047.36-3.047zm50.476 25.25q0-.969 1.031-1.86 1.047-.906 2.172-.906 2.188 0 2.188 1.39 0 1.048-1.047 1.938-1.031.875-2.188.875-2.156 0-2.156-1.437zm58.28 0q0-.969 1.031-1.86 1.047-.906 2.172-.906 2.188 0 2.188 1.39 0 1.048-1.047 1.938-1.031.875-2.188.875-2.156 0-2.156-1.437zm41.32 1.594-.562-.047q-.562 0-.844.36-1.359 1.17-3.672 1.17-1.203 0-1.203-.53v-.11q0-.437 2.782-5.218 2.78-4.782 6.156-10.657 3.375-5.89 4.36-8.093.984-2.204.984-3.641v-.516q0-1.047 4.28-1.047 2.157 0 2.157.813 0 .312-.328.64-3.188 5.188-8.469 14.829l-.562 1q-.563 1-.813 1.422-.234.421-.734 1.453-.5 1.015-.735 1.656-.687 1.797-.687 2.797 0 1.484 2.64 1.484h.282q1.64 0 3.61-.687 3.843-1.36 6.234-5.203.156-.36.89-.36.75 0 .75.64 0 .97-1.281 3.454-1.281 2.469-2.313 3.672-.53.719-2 .719-1.484.078-6.406.078l-4.515-.078zm45.08-1.594q0-.969 1.031-1.86 1.047-.906 2.172-.906 2.188 0 2.188 1.39 0 1.048-1.047 1.938-1.032.875-2.188.875-2.156 0-2.156-1.437z"/><path fill="#a2c4c9" d="M152.843 55.49h62.456v-5.039l10.079 10.08-10.079 10.078v-5.04h-62.456z" fill-rule="evenodd"/><path stroke="#45818e" stroke-linejoin="round" stroke-linecap="butt" d="M152.843 55.49h62.456v-5.039l10.079 10.08-10.079 10.078v-5.04h-62.456z"/><path fill="#45818e" d="M100.01 58.908c0-11.933 9.089-21.606 20.3-21.606 5.383 0 10.547 2.276 14.353 6.328 3.807 4.052 5.946 9.548 5.946 15.278 0 11.933-9.088 21.606-20.3 21.606-11.21 0-20.299-9.673-20.299-21.606z" fill-rule="evenodd"/><path stroke="#134f5c" stroke-width="3" stroke-linejoin="round" stroke-linecap="butt" d="M100.01 58.908c0-11.933 9.089-21.606 20.3-21.606 5.383 0 10.547 2.276 14.353 6.328 3.807 4.052 5.946 9.548 5.946 15.278 0 11.933-9.088 21.606-20.3 21.606-11.21 0-20.299-9.673-20.299-21.606z"/><path fill="#45818e" d="M100.01 116.625c0-11.933 9.089-21.607 20.3-21.607 5.383 0 10.547 2.277 14.353 6.329 3.807 4.052 5.946 9.547 5.946 15.278 0 11.932-9.088 21.606-20.3 21.606-11.21 0-20.299-9.674-20.299-21.606z" fill-rule="evenodd"/><path stroke="#134f5c" stroke-width="3" stroke-linejoin="round" stroke-linecap="butt" d="M100.01 116.625c0-11.933 9.089-21.607 20.3-21.607 5.383 0 10.547 2.277 14.353 6.329 3.807 4.052 5.946 9.547 5.946 15.278 0 11.932-9.088 21.606-20.3 21.606-11.21 0-20.299-9.674-20.299-21.606z"/><path fill="#45818e" d="M100.01 174.341c0-11.933 9.089-21.606 20.3-21.606 5.383 0 10.547 2.276 14.353 6.328 3.807 4.052 5.946 9.548 5.946 15.278 0 11.933-9.088 21.607-20.3 21.607-11.21 0-20.299-9.674-20.299-21.607z" fill-rule="evenodd"/><path stroke="#134f5c" stroke-width="3" stroke-linejoin="round" stroke-linecap="butt" d="M100.01 174.341c0-11.933 9.089-21.606 20.3-21.606 5.383 0 10.547 2.276 14.353 6.328 3.807 4.052 5.946 9.548 5.946 15.278 0 11.933-9.088 21.607-20.3 21.607-11.21 0-20.299-9.674-20.299-21.607z"/><path fill="none" d="M105.386 37.302h28.252v37.7h-28.252z"/><path fill="#d0e0e3" d="M123.526 66.782h-8.125v-1.906h2V53.688h-2v-1.906h6.125v13.094h2v1.906z"/><path fill="none" d="M102.3 95.018h34.424v37.701H102.3z"/><path fill="#d0e0e3" d="M126.143 114.014q0 .922-.25 1.594t-.672 1.156q-.422.469-1 .797-.578.328-1.234.578-.657.25-1.36.453-.703.203-1.39.422-.688.219-1.328.5-.625.281-1.141.688-.516.406-.875.984-.36.578-.5 1.39h9.75v1.922H111.94q.234-1.437.656-2.484.438-1.047 1-1.797.563-.75 1.219-1.25.656-.516 1.36-.86.702-.343 1.405-.577l1.36-.454q.656-.218 1.219-.468.578-.25 1-.61.421-.359.656-.89.234-.532.234-1.297 0-.719-.234-1.25-.235-.531-.656-.875-.407-.36-.985-.531-.562-.188-1.203-.188-.687 0-1.266.25-.578.25-1.046.703-.454.453-.797 1.094-.328.64-.516 1.406l-3.187-1.765q.421-.875 1.203-1.516.797-.64 1.75-1.078.953-.438 1.984-.64 1.047-.22 1.969-.22.906 0 1.781.079.875.062 1.656.265.782.203 1.438.547.672.344 1.156.875.5.531.766 1.281.281.75.281 1.766z"/><path fill="none" d="M102.3 152.735h31.338v37.7h-31.339z"/><path fill="#d0e0e3" d="M118.721 182.512q-.937 0-2.016-.219-1.078-.203-2.109-.625-1.016-.437-1.86-1.078-.827-.656-1.25-1.531l3.72-1.766q0 .719.296 1.36.297.624.782 1.093.5.469 1.125.75.625.266 1.312.266.64 0 1.25-.188.625-.203 1.094-.578.469-.375.75-.922.297-.547.297-1.25 0-.781-.266-1.343-.25-.563-.719-.907-.468-.36-1.093-.515-.61-.172-1.313-.172h-2.031v-1.781h2.031q.484 0 .938-.125.468-.125.828-.375.36-.266.578-.657.219-.39.219-.906 0-.578-.204-.969-.187-.406-.546-.64-.344-.25-.813-.36-.469-.11-1-.11t-1.016.142q-.484.125-.859.406-.375.265-.61.672-.234.406-.234.968l-2.968-2.187q.437-.531 1.125-.922.687-.39 1.468-.625.797-.234 1.594-.344.813-.11 1.5-.11.625 0 1.328.079.703.063 1.375.234.688.157 1.328.438.641.281 1.11.719.484.422.765 1.015.297.594.297 1.39 0 .47-.219.923-.203.453-.546.844-.329.375-.75.671-.422.297-.86.47.719.155 1.39.515.673.36 1.173.89.5.516.797 1.204.296.671.296 1.468 0 1-.343 1.75-.328.75-.907 1.266-.562.516-1.312.844-.75.328-1.594.515-.828.188-1.687.25-.86.063-1.64.063z"/><path fill="#a2c4c9" d="M152.843 111.585h62.456v-5.04l10.079 10.08-10.079 10.078v-5.039h-62.456z" fill-rule="evenodd"/><path stroke="#45818e" stroke-linejoin="round" stroke-linecap="butt" d="M152.843 111.585h62.456v-5.04l10.079 10.08-10.079 10.078v-5.039h-62.456z"/><path fill="#a2c4c9" d="M152.843 167.68h62.456v-5.04l10.079 10.08-10.079 10.078v-5.04h-62.456z" fill-rule="evenodd"/><path stroke="#45818e" stroke-linejoin="round" stroke-linecap="butt" d="M152.843 167.68h62.456v-5.04l10.079 10.08-10.079 10.078v-5.04h-62.456z"/></g></svg>