<svg viewBox="0 0 1009.307 436.06" fill="none" stroke-linecap="square" stroke-miterlimit="10" xmlns="http://www.w3.org/2000/svg"><clipPath id="a"><path d="M0 0h1009.307v436.06H0V0z"/></clipPath><g clip-path="url(#a)"><path fill="none" d="M0 0h1009.307v436.06H0z"/><path shape-rendering="crispEdges" fill="#d0e0e3" d="M135.096 49.864h69.296v58.57h-69.296v-58.57z"/><path shape-rendering="crispEdges" fill="#d0e0e3" d="M204.392 49.864h69.297v58.57h-69.297v-58.57zM273.689 49.864h69.297v58.57h-69.297v-58.57zM342.986 49.864h69.296v58.57h-69.296v-58.57z"/><path shape-rendering="crispEdges" fill="#d0e0e3" d="M412.282 49.864h69.297v58.57h-69.297v-58.57zM481.579 49.864h69.296v58.57H481.58v-58.57zM550.875 49.864h69.297v58.57h-69.297v-58.57zM620.172 49.864h69.297v58.57h-69.297v-58.57z"/><path shape-rendering="crispEdges" fill="#d0e0e3" d="M689.468 49.864h69.297v58.57h-69.297v-58.57zM758.765 49.864h69.297v58.57h-69.297v-58.57zM135.096 108.433h69.296v58.57h-69.296v-58.57z"/><path shape-rendering="crispEdges" fill="#d0e0e3" d="M204.392 108.433h69.297v58.57h-69.297v-58.57zM273.689 108.433h69.297v58.57h-69.297v-58.57zM342.986 108.433h69.296v58.57h-69.296v-58.57z"/><path shape-rendering="crispEdges" fill="#d0e0e3" d="M412.282 108.433h69.297v58.57h-69.297v-58.57zM481.579 108.433h69.296v58.57H481.58v-58.57zM550.875 108.433h69.297v58.57h-69.297v-58.57zM620.172 108.433h69.297v58.57h-69.297v-58.57z"/><path shape-rendering="crispEdges" fill="#d0e0e3" d="M689.468 108.433h69.297v58.57h-69.297v-58.57zM758.765 108.433h69.297v58.57h-69.297v-58.57z"/><path stroke="#45818e" stroke-width="4" stroke-linecap="butt" d="M135.096 47.864v121.139M204.392 47.864v121.139M273.689 47.864v121.139M342.986 47.864v121.139M412.282 47.864v121.139M481.579 47.864v121.139M550.875 47.864v121.139M620.172 47.864v121.139M689.468 47.864v121.139M758.765 47.864v121.139M828.062 47.864v121.139M133.096 49.864h696.966M133.096 108.433h696.966M133.096 167.003h696.966"/><path fill="#0c343d" d="M146.955 77.745q-.187 0-.25-.235 0-.453.64-1.03.641-.595 1.032-.75.39-.173 2.563-.22l.375-.437q8.109-9.344 11.25-9.344.265-.031.609-.031 1.844 0 1.844.875 0 .172-.344.86l-1.203 2.39q-.844 1.719-1.656 3.469-4.313 9.515-5 12.484 0 .203-.547.203t-1.328-.61q-.766-.593-.766-1.046 0-.813 1.297-3.11 1.312-2.296 1.312-2.984 0-.937-3.625-.937-.531 0-1.656.047l-1.016 1.343q-1.859 2.5-3.562 6.203-.297.672-1.797.672-1.484 0-1.484-.422 0-.296 1.656-2.578 1.672-2.281 3.969-5.047-.407.047-1.016.11-.61.047-.953.094-.328.03-.344.03zm11.047-3.438q1.047-1.25 1.563-2.531.53-1.281.53-1.734 0-.453-.452-.453-.813 0-2.657 1.703-1.828 1.687-3.984 4.218l2.906.047q1.063 0 2.094-1.25zM226.674 82.62q-1.172 1.078-3.078 1.765-1.891.672-3.672.672-1.782 0-2.547-.187-.766-.172-.89-.172-.266 0-.532.172-.86.765-2.063.765-1.187 0-1.187-.421 0-.297 1.844-3.485 1.859-3.203 4.109-7.125t2.906-5.39q.657-1.47.657-2.532v-.218q0-.72 4.125-.72 3.78 0 4.859.407 1.375.531 1.719 1.406.218.547.218 1.282 0 1.203-.875 2.265-1.625 1.922-4.218 2.531-.985.25-1.172.407-.188.156-.188.328 0 .172.39.437.392.25.845.547.468.281.859.953.39.672.39 1.703 0 1.016-.656 2.266t-1.843 2.344zm-2.328-1.453q.78-.938 1.218-1.891.438-.969.438-1.625t-.203-1.11q-.203-.468-.47-.702-.265-.25-.64-.391-.547-.203-1.11-.203h-.265q-.36 0-.36-.25 0-.547.407-1.172.422-.64.953-.64 2.172 0 3.875-1.438 1.703-1.438 1.703-3.063 0-1.406-1.859-1.406-1.547 0-2.172.734-1.672 2.079-4.844 7.75-3.171 5.672-3.171 6.657 0 .39.437.687.438.297 1.594.297 1.172 0 2.437-.656 1.266-.656 2.032-1.578zM288.923 85.104q-4.39 0-4.39-4.484 0-1.297.625-3.156.625-1.875 1.843-3.891 1.235-2.016 2.782-3.734 1.547-1.735 3.625-2.86 2.078-1.125 4.187-1.125.985 0 1.516.235.531.218.562.218.047 0 .672-.265.625-.266 1.485-.266.875 0 .875.5 0 .484-1.032 2.14-1.015 1.657-2.453 3.173-1.437 1.515-2.297 1.515-.109.031-.265.031-.5 0-.5-.296 0-.047.36-.594.374-.547.75-1.469.374-.922.374-1.484 0-.563-.062-.797-.047-.235-.36-.547-.297-.328-.828-.328-1.437 0-3.422 2.187-1.984 2.188-3.422 5.14-1.422 2.938-1.422 4.985 0 2.453 2.235 2.453 2.672 0 5.172-3.437.11-.219.218-.219.125 0 .188.016.078.015.187.172.125.14.125.547 0 .39-.546 1.328-.547.922-1.454 1.922-.906.984-2.343 1.687-1.438.703-2.985.703zM358.173 85.073q-1.422 0-1.828-.094-.39-.094-.672-.156-.281-.063-.36-.094-.077-.031-.234-.031-.328 0-.593.172-.922.765-2.454.765-.796 0-.796-.359 0-.36 1.843-3.547 1.86-3.203 4.11-7.125 2.265-3.922 2.906-5.39.656-1.47.656-2.532v-.218q0-.766 4.453-.766 6.61 0 6.61 4.5 0 3.25-2.203 7.172-1.157 2.062-2.704 3.765-1.546 1.704-3.859 2.829-2.297 1.109-4.875 1.109zm8.766-9.125q.984-1.906 1.5-3.563.53-1.671.53-2.796 0-1.141-.655-1.72-.657-.593-2.203-.593-1.063 0-1.704.734-1.671 2.11-4.859 7.782-3.172 5.656-3.172 6.625 0 1.062 2.266 1.062 1.61 0 3.234-1.11 1.625-1.124 2.844-2.812 1.234-1.703 2.219-3.61zM433.704 75.667l-2.266-.078q-1.671 0-2.578 1.093-.64.797-1.703 2.61-1.047 1.812-1.047 2.875 0 .984 1.938.984 1.203 0 2.562-.453 2.75-.906 4.344-3.453.188-.25.64-.25.454 0 .454.531 0 .516-.86 2.172-.843 1.64-1.515 2.469-.344.437-1.344.484-1 .047-3.047.047h-2.61l-1.53-.016-.72-.062h-.187q-.156 0-.39.25-.891.765-2.516.765-.766 0-.766-.343v-.078q0-.297 1.844-3.485 1.86-3.187 4.125-7.094 2.266-3.921 2.906-5.375.641-1.453.641-2.5v-.296q0-.454 5.672-.454 1.875 0 3.25.063.406-.453 2.062-.453.688 0 .688.344 0 .609-1.219 2.468-1.203 1.844-2.11 2.516-.296.234-.75.234-.452 0-.452-.187 0-.078.078-.203.437-.828.437-1.875 0-1.453-2.031-1.453-1.234 0-1.937.64-.704.625-1.407 1.781-.687 1.141-1.015 1.97-.328.827-.328 1.046 0 .64.625.781.625.14 2.484.14l1.984-.077q.266 0 .266.203t-.281.672q-.282.453-.578.64-.594.407-1.813.407zM502.657 75.667l-2.297-.078q-1.672 0-2.563 1.093-1.406 1.844-2.921 4.813-1.5 2.969-2.079 3.39-.968.75-2.453.75-.812 0-.812-.343v-.078q0-.297 1.86-3.485 1.859-3.187 4.109-7.094 2.25-3.921 2.906-5.39.656-1.469.656-2.5v-.281q0-.454 5.672-.454 1.86 0 3.25.063.406-.453 2.031-.453.719 0 .719.344 0 .64-1.297 2.578-1.297 1.922-2.172 2.484-.375.188-.719.188-.343 0-.343-.22 0-.015.125-.28.375-.75.375-1.797 0-1.453-2.047-1.453-1.235 0-1.938.64-.703.625-1.406 1.781-.687 1.141-1.016 1.97-.328.827-.328 1.14 0 .297.282.562.296.266 2.859.266 1.14 0 1.531-.031.406-.047.438-.047.234 0 .234.187 0 .11-.016.157-.375.906-.906 1.25-.515.328-1.734.328zM570.72 84.62q-.376 0-.657-.344-.266-.344-.344-.687l-.094-.344q-.078-.297-.39-.297-.297 0-.532.187-2.515 1.97-4.671 1.97-2.766 0-2.766-3.704 0-1.312.672-3.25.687-1.953 1.953-4.062 1.281-2.125 2.89-3.97 1.626-1.859 3.735-3.062 2.125-1.203 4.234-1.203 1.14 0 1.86.406.11.047.234.047.14 0 .281-.078.657-.453 1.688-.453 1.047 0 1.047.516 0 .625-1.328 2.53-2.079 2.954-3.407 2.954-.343 0-.468-.047-.125-.062-.125-.219 0-.156.171-.53.532-1.126.532-1.86 0-.735-.282-1.11-.28-.39-1.156-.39-1.61 0-3.812 2.422-2.188 2.406-3.766 5.562-1.578 3.156-1.578 5.203 0 1.735 1.437 1.735 1.125 0 2.547-1.141 1.438-1.156 2.344-2.469.922-1.312.922-1.89 0-.578-.563-.797-.546-.235-2.156-.235-.312 0-.312-.234 0-.453.515-.937.516-.485 1-.532 1.922-.14 4.032-.14 2.125 0 2.125.375 0 .328-.36 1-.36.656-.594 1.078-.218.406-.656 1.14-.437.735-.703 1.157-.266.422-.812 1.297-.547.859-.875 1.406-.313.531-.782 1.406-.468.875-.687 1.234-.203.36-.344.36zM638.766 66.823v-.36q0-.687 2.86-.687 1.437 0 1.437.531 0 .219-.22.438-1.015 1.375-4.312 7l3.297.031q1.094 0 2-.875.453-.484.813-.89.36-.422.812-1.188.453-.781.719-1.234.375-.672 1.312-2.563 0-.125.204-.328.203-.203.468-.344.282-.156.86-.25.593-.11 1.39-.11.813 0 .813.345 0 .156-.125.359-.11.203-1.39 2.156-1.266 1.938-2.548 4.031-1.265 2.094-2.703 4.547-1.422 2.453-2.312 4.485-.89 2.015-.89 2.953-.157.453-.673.453-1.469 0-2.031-.25-.547-.234-.547-.719 0-.828 1.766-3.86 1.781-3.046 1.781-3.687 0-.656-.547-.968-.531-.329-1.781-.329t-1.735.016q-.906 1.469-2.078 3.766-1.172 2.297-1.968 3.765-.797 1.453-1.282 1.828-.984.75-2.422.75-.828 0-.828-.421 0-.25.703-1.422.704-1.188 2.282-3.735 1.578-2.547 2.718-4.468l-1.625.078q-.406 0-.406-.22 0-.452.578-.905t.938-.578q.375-.141 1.562-.188.985-1.687 2.532-4.672.578-1.281.578-2.281zM698.843 83.589q0-.625.688-1.22.703-.593 1.438-.593 1.468 0 1.468.906 0 .719-.703 1.297-.687.563-1.453.563-1.438 0-1.438-.953zm5.625 0q0-.625.688-1.22.703-.593 1.438-.593 1.468 0 1.468.906 0 .719-.703 1.297-.687.563-1.422.563-1.469 0-1.469-.953zm5.625 0q0-.625.688-1.22.703-.593 1.438-.593 1.468 0 1.468.906 0 .719-.703 1.297-.687.563-1.453.563-1.438 0-1.438-.953zM788.953 67.026q0 1.281-5.594 5.61-2.313 1.78-4.656 3.593-2.329 1.813-3.97 3.453-1.64 1.64-1.64 2.516 0 .484.61.656.625.172 1.39.172.781 0 2.016-.5 1.234-.516 2.219-1.234 2.109-1.578 3.093-2.672l.453-.5q.563-.453.97-.453h.046q.422 0 .422.265-.047.64-2.14 3.907-2.094 3.265-2.782 3.343h-.297q-1.594 0-2.39-.61-2.563.235-3.282.235-3.547 0-4.812-.218-1.266-.204-1.266-.891 0-.938 1.656-2.719 1.672-1.797 4.047-3.703 2.391-1.922 4.782-3.766 2.406-1.843 4.078-3.234 1.687-1.406 1.718-1.812v-.016q0-.719-1.453-.719t-2.922.766q-1.468.75-3.14 2.14-.61.47-1 .47t-.39-.282q.03-.297 1.312-2.266 1.281-1.984 2.11-2.672.343-.328.843-.328 1.125 0 1.844.594 1.765-.156 3.968-.156 4.157 0 4.157 1.031zM164.627 127.814q0 1.75-.781 3.203-.766 1.438-1.75 2.329-.969.89-2.813 1.53-1.828.641-4.312.641-2.485 0-3.438.563-.953.562-1.86 2.156-.671 1.125-1.358 2.594-.672 1.453-.86 2.047-.187.578-1.015.937-.829.36-1.547.39l-.75.048q-.797 0-.797-.344v-.078q0-.297 1.844-3.484 1.859-3.204 4.109-7.125 2.266-3.922 2.906-5.375.656-1.47.656-2.485v-.265q0-.422 1.829-.641 1.828-.234 3.937-.234 3.36 0 4.672.921 1.328.907 1.328 2.672zm-8.078-1.25q-.719.828-2.406 3.61-1.672 2.78-1.672 3.125 0 .328.36.437.374.094 1.796.094 1.438 0 2.781-.5 1.344-.5 2.11-1.219.78-.734 1.297-1.61.843-1.484.843-2.421 0-.938-.25-1.39-.25-.47-.734-.657-.797-.297-2.094-.297-1.297 0-2.031.828zM222.986 125.392v-.359q0-.687 2.86-.687 1.437 0 1.437.53 0 .22-.219.438-1.015 1.375-4.312 7l3.297.032q1.093 0 2-.875.453-.485.812-.891.36-.422.813-1.188l.718-1.234q.375-.672 1.313-2.562 0-.125.203-.329.203-.203.469-.343.281-.157.86-.25.593-.11 1.39-.11.812 0 .812.344 0 .156-.125.36-.11.203-1.39 2.156-1.266 1.937-2.547 4.03-1.266 2.095-2.703 4.548-1.422 2.453-2.313 4.484-.89 2.016-.89 2.953-.157.453-.672.453-1.47 0-2.032-.25-.546-.234-.546-.718 0-.828 1.765-3.86 1.781-3.047 1.781-3.687 0-.656-.546-.969-.532-.328-1.782-.328t-1.734.016q-.906 1.468-2.078 3.765-1.172 2.297-1.969 3.766-.797 1.453-1.281 1.828-.985.75-2.422.75-.828 0-.828-.422 0-.25.703-1.422.703-1.187 2.281-3.734 1.578-2.547 2.719-4.469l-1.625.078q-.406 0-.406-.219 0-.453.578-.906t.937-.578q.375-.14 1.563-.187.984-1.688 2.531-4.672.578-1.282.578-2.282zM289.642 143.533q-2.234 0-3.516-1.234-1.28-1.235-1.28-3.422 0-1.5.593-3.406.61-1.922 1.781-3.922 1.172-2 2.703-3.672 1.532-1.688 3.625-2.766 2.094-1.078 4.313-1.078 2.234 0 3.515 1.234 1.282 1.22 1.282 3.641 0 2.422-1.844 6.031-1.844 3.61-4.5 5.64-1.063.83-1.063 1.313 0 .125.094.47.11.327.11.671 0 .906-.625 1.89-.625.985-1.375.985l-.079-.078q-.046-.156-.109-.453-.281-2.078-1.437-2.078l-.344.047q-.719.187-1.844.187zm3.89-8.016q.188 0 .25.266 0 .11.094.828.094.719.188 1.078.094.36.187.625.25.61.625.61.547 0 1.657-1.703 1.11-1.704 2.031-4.266.937-2.578.937-4.531 0-2.938-2.125-2.938-1.765 0-3.984 2.266-2.203 2.265-3.734 5.484-1.532 3.219-1.532 5.75 0 .563.094 1.11.094.53.61 1.171.515.641 1.437.641 1.625 0 1.625-.61 0-.265-.297-.765-.297-.516-.297-1.203 0-1.281.86-2.547.875-1.266 1.375-1.266zM362.83 143.19q-.376 0-.657-.344-.266-.344-.344-.688l-.093-.344q-.079-.297-.391-.297-.297 0-.531.188-2.516 1.969-4.672 1.969-2.766 0-2.766-3.703 0-1.313.672-3.25.688-1.954 1.953-4.063 1.281-2.125 2.89-3.969 1.626-1.86 3.735-3.062 2.125-1.203 4.235-1.203 1.14 0 1.859.406.11.047.234.047.14 0 .282-.078.656-.453 1.687-.453 1.047 0 1.047.515 0 .625-1.328 2.531-2.078 2.954-3.406 2.954-.344 0-.47-.047-.124-.063-.124-.22 0-.155.172-.53.53-1.125.53-1.86 0-.734-.28-1.11-.282-.39-1.157-.39-1.609 0-3.812 2.422-2.188 2.406-3.766 5.563-1.578 3.156-1.578 5.203 0 1.734 1.438 1.734 1.125 0 2.547-1.14 1.437-1.157 2.343-2.47.922-1.312.922-1.89 0-.578-.562-.797-.547-.234-2.157-.234-.312 0-.312-.234 0-.454.516-.938.515-.484 1-.531 1.921-.14 4.03-.14 2.126 0 2.126.374 0 .328-.36 1-.359.656-.593 1.078-.22.407-.657 1.14-.437.735-.703 1.157l-.812 1.297q-.547.86-.875 1.406-.313.532-.781 1.407-.47.875-.688 1.234-.203.36-.344.36zM425.626 141.705q0 .531.062.797.079.265.079.39 0 .625-2.61.625-2.594 0-2.594-.625l.157-.312q.906-.531 3.625-4.938 2.718-4.421 5.515-9.968.594-1.172.594-2.203v-.438q0-.687 2.844-.687 1.453 0 1.453.53 0 .22-.219.438-1.812 2.344-5.36 8.782-3.546 6.437-3.546 7.609zM496.36 143.705q-1.922 0-3.188-.906-1.265-.907-1.265-2.563 0-1.062 1.047-3.156 1.062-2.094 2.89-5.125 1.829-3.047 2.61-4.61.781-1.562.781-2.546 0-.266.172-.422.375-.375 2.547-.375 1.453 0 1.453.562 0 .266-.188.453-1.468 2.047-4.515 7.297-3.031 5.25-3.031 6.688 0 2.11 1.921 2.11 1.735 0 2.688-.907.719-.719 1.203-1.484 1.063-1.625 2.766-5.11 1.703-3.484 3.047-6.187 1.359-2.703 1.906-3.14.547-.438 1.906-.438 1.375 0 1.375.312 0 .219-.469.781-.453.547-1.36 1.938-.905 1.39-2.093 3.312-1.187 1.922-2.078 3.39-.875 1.454-2.063 3.47l-1.39 2.36q-2.516 4.296-6.672 4.296zM570.14 140.174q-.343.64-1.155.64-.813 0-1.078-.218-.25-.235-.25-1.204 0-.968 1.03-4.53 1.048-3.563 1.048-4.11 0-.547-.203-.547-.329 0-.813.547-.469.547-.797 1.078l-.312.562q-1.703 2.782-3.11 5.563l-2.062 4.078q-.64 1.297-1.125 1.64-.485.344-1.375.344t-.89-.39v-.094q0-.266 1.39-2.469 5.11-8.14 7.703-13.28.61-1.22.61-2.298v-.312q0-.485 1.109-.766 1.109-.297 1.828-.297h.875q1.125 0 1.656.422.234.156.234.422t-1.062 3.703q-1.047 3.422-1.047 4.125 0 .688.219.688.672 0 2.344-1.641 1.687-1.64 3.843-3.938 1.75-1.921 3.36-3.312.343-.313.828-.36 1.031-.171 2.219-.171 1.187 0 1.187.53 0 .11-.016.173-.015.047-1 1.61-.984 1.562-2.406 3.874-1.406 2.297-2.828 4.766-1.406 2.453-2.39 4.687-.985 2.22-.985 3.266-.234.453-.75.453-2.625 0-2.625-.937 0-2.157 5.344-10.36.703-1.047.703-1.312 0-.266-.406-.266-1.016 0-4.266 3.61-3.25 3.609-4.578 6.03zM641.594 134.236l-2.266-.078q-1.672 0-2.578 1.094-.64.797-1.703 2.61-1.047 1.812-1.047 2.874 0 .985 1.938.985 1.203 0 2.562-.454 2.75-.906 4.344-3.453.187-.25.64-.25.454 0 .454.532 0 .515-.86 2.171-.844 1.641-1.515 2.47-.344.437-1.344.484-1 .046-3.047.046h-2.61l-1.53-.015-.72-.063h-.187q-.156 0-.39.25-.891.766-2.516.766-.766 0-.766-.344v-.078q0-.297 1.844-3.484 1.86-3.188 4.125-7.094 2.266-3.922 2.906-5.375.64-1.453.64-2.5v-.297q0-.453 5.673-.453 1.875 0 3.25.062.406-.453 2.062-.453.688 0 .688.344 0 .61-1.22 2.469-1.202 1.844-2.108 2.515-.297.235-.75.235-.454 0-.454-.188 0-.078.079-.203.437-.828.437-1.875 0-1.453-2.031-1.453-1.235 0-1.938.64-.703.626-1.406 1.782-.687 1.14-1.016 1.969-.328.828-.328 1.047 0 .64.625.78.625.141 2.485.141l1.984-.078q.266 0 .266.203 0 .204-.282.672-.28.453-.578.64-.593.407-1.812.407zM698.843 142.158q0-.625.688-1.219.703-.593 1.438-.593 1.468 0 1.468.906 0 .719-.703 1.297-.687.562-1.453.562-1.438 0-1.438-.953zm5.625 0q0-.625.688-1.219.703-.593 1.438-.593 1.468 0 1.468.906 0 .719-.703 1.297-.687.562-1.422.562-1.469 0-1.469-.953zm5.625 0q0-.625.688-1.219.703-.593 1.438-.593 1.468 0 1.468.906 0 .719-.703 1.297-.687.562-1.453.562-1.438 0-1.438-.953zM781.046 141.19q-1.172 1.077-3.078 1.765-1.89.672-3.672.672-1.781 0-2.547-.188-.765-.172-.89-.172-.266 0-.531.172-.86.766-2.063.766-1.187 0-1.187-.422 0-.297 1.843-3.484 1.86-3.203 4.11-7.125t2.906-5.39q.656-1.47.656-2.532v-.219q0-.719 4.125-.719 3.781 0 4.86.407 1.375.53 1.718 1.406.219.547.219 1.281 0 1.203-.875 2.266-1.625 1.922-4.219 2.53-.984.25-1.172.407-.187.156-.187.328 0 .172.39.438.391.25.844.547.469.28.86.953.39.672.39 1.703 0 1.016-.656 2.266t-1.844 2.343zm-2.328-1.454q.781-.937 1.219-1.89.437-.97.437-1.625 0-.657-.203-1.11-.203-.469-.468-.703-.266-.25-.641-.39-.547-.204-1.11-.204h-.265q-.36 0-.36-.25 0-.547.407-1.172.422-.64.953-.64 2.172 0 3.875-1.438 1.703-1.437 1.703-3.062 0-1.406-1.86-1.406-1.546 0-2.171.734-1.672 2.078-4.844 7.75-3.172 5.672-3.172 6.656 0 .39.438.688.437.297 1.593.297 1.172 0 2.438-.657 1.266-.656 2.031-1.578z"/><path fill="#76a5af" d="m830.88 314.96 43.196-46.2v21.599c62.195-8.787 110.348-35.728 125.022-69.947 21.458 50.04-34.072 100.294-125.022 113.143v21.599z" fill-rule="evenodd"/><path fill="#5e838b" d="M1003.667 242.01c0-52.216-77.36-94.547-172.788-94.547v-43.197c95.428 0 172.788 42.33 172.788 94.548z" fill-rule="evenodd"/><path fill="none" d="M1003.667 242.01c0-52.216-77.36-94.547-172.788-94.547v-43.197c95.428 0 172.788 42.33 172.788 94.548v43.197c0 43.113-53.302 80.766-129.59 91.544v21.599l-43.198-40.195 43.197-46.199v21.599c62.195-8.787 110.348-35.728 125.022-69.947"/><path stroke="#134f5c" stroke-linejoin="round" stroke-linecap="butt" d="M1003.667 242.01c0-52.216-77.36-94.547-172.788-94.547v-43.197c95.428 0 172.788 42.33 172.788 94.548v43.197c0 43.113-53.302 80.766-129.59 91.544v21.599l-43.198-40.195 43.197-46.199v21.599c62.195-8.787 110.348-35.728 125.022-69.947"/><path fill="#d9ead3" d="M135.092 251.298h692.976v134.898H135.092z" fill-rule="evenodd"/><path stroke="#6aa84f" stroke-width="4" stroke-linejoin="round" stroke-linecap="butt" d="M135.092 251.298h692.976v134.898H135.092z"/><path fill="none" d="M151.811 289.193h641.165v87.905H151.811z"/><path fill="#38761d" d="M172.811 308.13v-.437q0-.86 3.563-.86 1.796 0 1.796.657 0 .265-.265.547-1.266 1.718-5.39 8.765l4.124.032q1.375 0 2.5-1.11.563-.594 1.016-1.11.453-.515 1.015-1.484.579-.968.907-1.53.468-.845 1.625-3.204 0-.172.25-.422t.593-.422q.36-.187 1.094-.312.735-.14 1.735-.14t1 .437q0 .187-.157.437-.14.25-1.734 2.688-1.578 2.437-3.188 5.062-1.593 2.61-3.375 5.672-1.78 3.063-2.906 5.594-1.11 2.531-1.11 3.703-.202.562-.827.562-1.828 0-2.532-.296-.703-.297-.703-.907 0-1.031 2.219-4.828 2.219-3.797 2.219-4.61 0-.812-.672-1.218-.672-.406-2.234-.406-1.563 0-2.172.031-1.125 1.844-2.594 4.719-1.469 2.86-2.469 4.687-1 1.828-1.594 2.297-1.234.938-3.03.938-1.032 0-1.032-.532 0-.296.875-1.78.89-1.485 2.844-4.673 1.968-3.187 3.406-5.578l-2.031.094q-.5 0-.5-.266 0-.562.718-1.125.72-.578 1.172-.734.469-.172 1.938-.234 1.234-2.11 3.172-5.844.734-1.594.734-2.86zm21.828 11.063-2.828-.094q-2.11 0-3.234 1.36-.797 1-2.125 3.265-1.313 2.266-1.313 3.61 0 1.218 2.438 1.218 1.5 0 3.203-.562 3.422-1.125 5.422-4.328.234-.297.797-.297.578 0 .578.656 0 .64-1.078 2.703-1.063 2.063-1.89 3.11-.438.53-1.688.593-1.25.063-3.813.063h-3.266l-1.906-.031-.89-.063h-.235q-.203 0-.5.297-1.11.969-3.14.969-.97 0-.97-.438v-.094q0-.375 2.313-4.359 2.328-3.984 5.157-8.875 2.843-4.906 3.64-6.719.797-1.812.797-3.11v-.374q0-.563 7.094-.563 2.344 0 4.062.063.5-.563 2.578-.563.86 0 .86.438 0 .766-1.516 3.078-1.515 2.313-2.64 3.156-.375.297-.938.297-.562 0-.562-.234 0-.11.093-.266.532-1.031.532-2.344 0-1.828-2.532-1.828-1.53 0-2.422.813-.875.797-1.75 2.234-.859 1.422-1.28 2.453-.407 1.032-.407 1.297 0 .797.781.985.781.187 3.11.187l2.468-.094q.328 0 .328.25t-.359.828q-.344.579-.703.813-.734.5-2.266.5zm7.161 11.234-.469-.031q-.453 0-.687.297-1.14.969-3.078.969-1 0-1-.438v-.094q0-.375 2.312-4.359 2.328-3.984 5.14-8.875 2.813-4.906 3.626-6.734.828-1.828.828-3.032v-.437q0-.86 3.562-.86 1.797 0 1.797.657 0 .265-.265.547-2.657 4.328-7.063 12.359l-.469.828q-.468.844-.671 1.188-.188.343-.61 1.203-.422.844-.61 1.375-.577 1.5-.577 2.344 0 1.218 2.203 1.218h.234q1.36 0 3-.562 3.203-1.125 5.203-4.328.125-.297.735-.297.625 0 .625.531 0 .797-1.063 2.875-1.062 2.063-1.937 3.063-.422.593-1.657.593-1.234.063-5.343.063l-3.766-.063zm17.43 0-.468-.031q-.453 0-.688.297-1.14.969-3.078.969-1 0-1-.438v-.094q0-.375 2.313-4.359 2.328-3.984 5.14-8.875 2.813-4.906 3.625-6.734.828-1.828.828-3.032v-.437q0-.86 3.563-.86 1.797 0 1.797.657 0 .265-.266.547-2.656 4.328-7.062 12.359l-.469.828q-.469.844-.672 1.188-.187.343-.61 1.203-.421.844-.609 1.375-.578 1.5-.578 2.344 0 1.218 2.203 1.218h.235q1.36 0 3-.562 3.203-1.125 5.203-4.328.125-.297.734-.297.625 0 .625.531 0 .797-1.062 2.875-1.063 2.063-1.938 3.063-.422.593-1.656.593-1.234.063-5.344.063l-3.765-.063zm36.694-18.203q0 1.875-.75 4.281-.75 2.391-2.22 4.891-1.452 2.5-3.374 4.625-1.922 2.11-4.547 3.469-2.61 1.344-5.39 1.344-2.782 0-4.376-1.547-1.593-1.563-1.593-4.297 0-1.86.734-4.25.75-2.406 2.219-4.906 1.469-2.5 3.375-4.594 1.922-2.11 4.531-3.453 2.625-1.36 5.406-1.36 2.797 0 4.39 1.532 1.595 1.53 1.595 4.265zm-3.922-.297q0-3.672-2.672-3.672-2.234 0-4.984 2.844-2.75 2.828-4.672 6.844-1.907 4.016-1.907 7.187 0 3.657 2.672 3.657 2.188 0 4.953-2.828 2.766-2.829 4.688-6.844 1.922-4.016 1.922-7.188zm18.39-3.86-.032-.733q0-.907 3.094-.907 1.938 0 1.938.969 0 .172-.063.234-.234 1.297-2.64 8.297-2.391 7-2.391 7.719 0 .719.656.719.5 0 .766-.266l1.172-1.172q.703-.703 3.828-5.047 3.14-4.343 5.03-7.515.642-1.266 4.204-1.266.906 0 .906.563l-.234.64q-1 2.032-2.703 7.172-1.703 5.125-1.703 6.016 0 .875.672.875.5 0 .765-.266l.938-.937q1.234-1.235 5.406-7.047 4.187-5.813 5.656-8.688.36-.734.828-.968.844-.391 2.938-.47h.672q1.734 0 1.734.579 0 .234-.312.531-3.266 3.094-9.579 10.516-6.312 7.406-8.578 10.719-.468.687-.734 1-.266.296-.875.687-1.125.734-3.953.734-1.64 0-1.64-.796l.109-.36q.187-.64.718-2.14.547-1.5.907-2.532.375-1.031.796-2.265.844-2.5.844-3.063 0-.578-.5-.578-.547 0-1.203.813-2.64 3.125-6.406 8.5-.625.89-1 1.28-.36.376-1.531.75-1.172.391-2.922.391-1.735 0-1.735-.796l.094-.36q1.172-3.375 3.11-9.703 1.953-6.328 2.656-9.297.297-1.703.297-2.531zm44.69 4.157q0 1.875-.75 4.281-.75 2.391-2.22 4.891-1.453 2.5-3.374 4.625-1.922 2.11-4.547 3.469-2.61 1.344-5.39 1.344-2.782 0-4.376-1.547-1.594-1.563-1.594-4.297 0-1.86.735-4.25.75-2.406 2.218-4.906 1.47-2.5 3.375-4.594 1.922-2.11 4.532-3.453 2.625-1.36 5.406-1.36 2.797 0 4.39 1.532 1.594 1.53 1.594 4.265zm-3.923-.297q0-3.672-2.671-3.672-2.235 0-4.985 2.844-2.75 2.828-4.672 6.844-1.906 4.016-1.906 7.187 0 3.657 2.672 3.657 2.187 0 4.953-2.828 2.766-2.829 4.688-6.844 1.921-4.016 1.921-7.188zm15.158 17.266.062 1q0 .531-1.594.531-2.796 0-2.796-1.062 0-1.063 1.484-4.594 1.484-3.547 1.484-4.406 0-1.766-2.172-1.766l-.53.031q-.407 0-.407-.297 0-.64.484-1.28.485-.657 1.22-.657 3.03 0 5.42-1.797 2.407-1.797 2.407-3.797 0-1.437-.89-2-.875-.562-2.407-.562-1.53 0-2.328.922-1.969 2.468-6.328 10.328-4.344 7.843-4.875 9.64-.297.828-1.547 1.219-1.25.406-2.437.406-1.172 0-1.172-.453v-.078q0-.36 2.297-4.25 2.297-3.906 5.078-8.687 2.781-4.782 3.594-6.61.828-1.844.828-3.11v-.327q0-.907 5.062-.907 5.438 0 7.156 1.094.735.469 1.25 1.375.516.89.516 2.297 0 1.406-1.14 2.844-1.126 1.422-2.407 2.11-1.281.671-2.547.984-1.265.296-1.906.5-.625.187-.625.625 0 .265.484.656.485.375.985.922.5.53.5 1.125 0 .593-1.11 3.453-1.093 2.844-1.093 4.578zm6.296 1.234-.469-.031q-.453 0-.687.297-1.141.969-3.079.969-1 0-1-.438v-.094q0-.375 2.313-4.359 2.328-3.984 5.14-8.875 2.813-4.906 3.626-6.734.828-1.828.828-3.032v-.437q0-.86 3.562-.86 1.797 0 1.797.657 0 .265-.266.547-2.656 4.328-7.062 12.359l-.469.828q-.469.844-.672 1.188-.187.343-.61 1.203-.421.844-.608 1.375-.579 1.5-.579 2.344 0 1.218 2.204 1.218h.234q1.36 0 3-.562 3.203-1.125 5.203-4.328.125-.297.734-.297.625 0 .625.531 0 .797-1.062 2.875-1.063 2.063-1.938 3.063-.421.593-1.656.593-1.234.063-5.344.063l-3.765-.063zm20.837.532q-1.766 0-2.266-.125-.5-.11-.86-.204-.343-.078-.453-.109-.093-.031-.296-.031-.391 0-.72.203-1.171.969-3.077.969-1 0-1-.453 0-.454 2.312-4.454 2.328-4 5.14-8.89 2.813-4.906 3.626-6.735.828-1.828.828-3.171v-.266q0-.969 5.562-.969 8.266 0 8.266 5.64 0 4.063-2.766 8.97-1.437 2.562-3.375 4.703-1.921 2.125-4.812 3.53-2.875 1.392-6.11 1.392zm10.968-11.407q1.235-2.39 1.875-4.468.657-2.094.657-3.5 0-1.422-.829-2.157-.812-.734-2.75-.734-1.328 0-2.125.937-2.093 2.625-6.062 9.72-3.969 7.077-3.969 8.28 0 1.329 2.828 1.329 2 0 4.032-1.391 2.03-1.406 3.562-3.516 1.547-2.125 2.781-4.5zM578.34 319.193l-2.829-.094q-2.11 0-3.234 1.36-.797 1-2.125 3.265-1.313 2.266-1.313 3.61 0 1.218 2.438 1.218 1.5 0 3.203-.562 3.422-1.125 5.422-4.328.234-.297.797-.297.578 0 .578.656 0 .64-1.078 2.703-1.063 2.063-1.89 3.11-.438.53-1.688.593-1.25.063-3.813.063h-3.265l-1.907-.031-.89-.063h-.235q-.203 0-.5.297-1.11.969-3.14.969-.97 0-.97-.438v-.094q0-.375 2.313-4.359 2.329-3.984 5.157-8.875 2.843-4.906 3.64-6.719.797-1.812.797-3.11v-.374q0-.563 7.094-.563 2.344 0 4.062.063.5-.563 2.579-.563.859 0 .859.438 0 .766-1.516 3.078-1.515 2.313-2.64 3.156-.375.297-.938.297-.562 0-.562-.234 0-.11.093-.266.532-1.031.532-2.344 0-1.828-2.532-1.828-1.53 0-2.421.813-.875.797-1.75 2.234-.86 1.422-1.282 2.453-.406 1.032-.406 1.297 0 .797.781.985.782.187 3.11.187l2.468-.094q.329 0 .329.25t-.36.828q-.344.579-.703.813-.734.5-2.266.5zm7.703 9.328q0 .672.078 1.016.078.328.078.484 0 .766-3.25.766t-3.25-.766l.203-.39q1.14-.672 4.531-6.188 3.407-5.516 6.907-12.453.734-1.453.734-2.766v-.531q0-.86 3.563-.86 1.796 0 1.796.657 0 .265-.265.547-2.266 2.922-6.703 10.968-4.422 8.047-4.422 9.516zm12.466.906q0-1.468 1.078-7.437t1.078-6.578q0-.61-.359-.61-.344 0-.937.703-.594.688-1 1.36l-.438.703q-2.656 4.36-6.031 11.562-.656 1.47-1.266 1.875-.594.422-1.719.422-1.109 0-1.109-.5v-.093q0-.438 1.703-3.172 6.5-10.438 9.5-16.5.766-1.532.766-2.766v-.531q0-.235.172-.485.187-.25 1.156-.53.969-.282 2.672-.282 2.562 0 2.562.969 0 .297-1.375 6.468-1.36 6.157-1.36 7.438 0 1.281.267 1.281.406 0 .828-.422.437-.437.672-.843l.234-.438q2.125-3.5 3.828-6.937 1.703-3.454 2.5-5.079.797-1.64 1.406-2.078.86-.5 2.188-.5 1.344 0 1.344.407v.062q0 .234-1.766 2.797-1.766 2.562-4.688 7.219-2.921 4.656-5.078 8.875-.937 2.172-.937 3.468 0 .407-.156.61-.141.187-1.032.375-.875.187-1.812.187h-1.063q-.375 0-.906-.172-.922-.265-.922-.828zm17.664 0q0-1.468 1.078-7.437t1.078-6.578q0-.61-.36-.61-.343 0-.937.703-.593.688-1 1.36l-.437.703q-2.656 4.36-6.031 11.562-.657 1.47-1.266 1.875-.594.422-1.719.422-1.11 0-1.11-.5v-.093q0-.438 1.704-3.172 6.5-10.438 9.5-16.5.766-1.532.766-2.766v-.531q0-.235.171-.485.188-.25 1.157-.53.968-.282 2.672-.282 2.562 0 2.562.969 0 .297-1.375 6.468-1.36 6.157-1.36 7.438 0 1.281.266 1.281.407 0 .828-.422.438-.437.672-.843l.235-.438q2.125-3.5 3.828-6.937 1.703-3.454 2.5-5.079.797-1.64 1.406-2.078.86-.5 2.188-.5 1.343 0 1.343.407v.062q0 .234-1.765 2.797-1.766 2.562-4.688 7.219-2.922 4.656-5.078 8.875-.937 2.172-.937 3.468 0 .407-.157.61-.14.187-1.03.375-.876.187-1.813.187H618q-.375 0-.906-.172-.922-.265-.922-.828zm16.293 1.532q-1.766 0-2.266-.125-.5-.11-.86-.204-.343-.078-.452-.109-.094-.031-.297-.031-.39 0-.719.203-1.172.969-3.078.969-1 0-1-.453 0-.454 2.313-4.454 2.328-4 5.14-8.89 2.813-4.906 3.625-6.735.828-1.828.828-3.171v-.266q0-.969 5.563-.969 8.265 0 8.265 5.64 0 4.063-2.765 8.97-1.438 2.562-3.375 4.703-1.922 2.125-4.813 3.53-2.875 1.392-6.11 1.392zm10.969-11.407q1.234-2.39 1.875-4.468.656-2.094.656-3.5 0-1.422-.828-2.157-.813-.734-2.75-.734-1.328 0-2.125.937-2.094 2.625-6.063 9.72-3.968 7.077-3.968 8.28 0 1.329 2.828 1.329 2 0 4.03-1.391 2.032-1.406 3.563-3.516 1.547-2.125 2.782-4.5zm36.725-13.125q.469 0 .469.657 0 .64-1.313 3.015-1.297 2.36-2.156 3.563-.531.797-1.25.797t-.719-.47l.031-.296q.438-1.625.438-2.766 0-1.734-.938-1.734-.406 0-.812.281-.39.281-.594.594l-.187.297q-.47.765-5.641 9.531-1.156 2-2.39 4.547-1.235 2.547-2 4-.766 1.453-1.548 2.062-.765.625-2.484.625-1.703 0-1.703-.578v-.093q0-.329 1.766-3.125 6.5-10.235 9.828-16.735.297-.61.297-.875 0-.422-.563-.422-1.828 0-5.594 4.125-.375.672-1.703.672-.297 0-.297-.297 0-.234.422-.968l.672-1.204q2.938-5.14 3.828-5.14 1.735 0 2.61.672 2.328-.063 4.296-.063 1.97 0 3.891.063 1.672-.735 3.344-.735zm-3.001 24.532q-1.766 0-2.266-.125-.5-.11-.86-.204-.343-.078-.452-.109-.094-.031-.297-.031-.39 0-.719.203-1.172.969-3.078.969-1 0-1-.453 0-.454 2.312-4.454 2.329-4 5.141-8.89 2.813-4.906 3.625-6.735.828-1.828.828-3.171v-.266q0-.969 5.563-.969 8.265 0 8.265 5.64 0 4.063-2.765 8.97-1.438 2.562-3.375 4.703-1.922 2.125-4.813 3.53-2.875 1.392-6.11 1.392zm10.969-11.407q1.234-2.39 1.875-4.468.656-2.094.656-3.5 0-1.422-.828-2.157-.813-.734-2.75-.734-1.328 0-2.125.937-2.094 2.625-6.063 9.72-3.969 7.077-3.969 8.28 0 1.329 2.829 1.329 2 0 4.03-1.391 2.032-1.406 3.563-3.516 1.547-2.125 2.782-4.5zm16.524 10.14.03.704q0 .531-1.593.531-2.844 0-2.844-1.14 0-1.032 1.703-5.047 1.704-4.016 1.704-4.906 0-1.672-2.594-1.672h-1.14l-1.563 2.765q-1.063 1.86-2.297 4.36-1.235 2.5-1.938 3.703-.703 1.203-1.36 1.734-1.171.938-3.077.938-.86 0-.969-.297-.031-.11-.031-.344 0-.234.969-1.844.968-1.625 3.015-4.937 2.047-3.313 3.594-5.938l-2.313.094q-.234 0-.328-.266 0-.562.594-1.078.61-.531 1.11-.703.5-.187 2.203-.25 1.625-2.906 2.765-5.11.735-1.687.735-3v-.296q0-.86 3.53-.86 1.798 0 1.798.657 0 .265-.75 1.234t-4.516 7.406q1-.03 1.89-.421.907-.407 2.876-2.235 1.968-1.844 4.797-5.312.062-.125.265-.344.203-.219 1.25-.563 1.047-.359 2.89-.359 1.86 0 1.86.594 0 .203-2.937 2.265-8.797 6.204-8.797 7.204 0 .437 1.062 1.203 1.078.765 1.078 1.53 0 .032-1.343 4.095-1.328 4.047-1.328 5.906zm11.505-.265q0-1.468 1.078-7.437t1.078-6.578q0-.61-.359-.61-.344 0-.937.703-.594.688-1 1.36l-.438.703q-2.656 4.36-6.031 11.562-.656 1.47-1.266 1.875-.594.422-1.719.422-1.109 0-1.109-.5v-.093q0-.438 1.703-3.172 6.5-10.438 9.5-16.5.766-1.532.766-2.766v-.531q0-.235.172-.485.187-.25 1.156-.53.969-.282 2.672-.282 2.562 0 2.562.969 0 .297-1.375 6.468-1.36 6.157-1.36 7.438 0 1.281.267 1.281.406 0 .828-.422.437-.437.672-.843l.234-.438q2.125-3.5 3.828-6.937 1.703-3.454 2.5-5.079.797-1.64 1.406-2.078.86-.5 2.188-.5 1.344 0 1.344.407v.062q0 .234-1.766 2.797-1.766 2.562-4.688 7.219-2.921 4.656-5.078 8.875-.937 2.172-.937 3.468 0 .407-.156.61-.141.187-1.032.375-.875.187-1.812.187h-1.063q-.375 0-.906-.172-.922-.265-.922-.828zm22.121.969q-.469 0-.828-.437-.344-.438-.437-.86l-.094-.437q-.11-.375-.5-.375-.375 0-.672.234-3.125 2.469-5.828 2.469-3.469 0-3.469-4.625 0-1.64.844-4.063.86-2.437 2.453-5.078 1.594-2.656 3.61-4.969 2.03-2.328 4.671-3.828 2.656-1.5 5.281-1.5 1.438 0 2.344.5.125.063.281.063.172 0 .344-.094.828-.562 2.125-.562 1.313 0 1.313.625 0 .796-1.672 3.171-2.594 3.704-4.266 3.704-.437 0-.594-.063-.14-.078-.14-.266 0-.203.203-.671.672-1.407.672-2.313 0-.922-.36-1.406-.343-.485-1.453-.485-2 0-4.75 3.016t-4.718 6.969q-1.954 3.953-1.954 6.515 0 2.157 1.797 2.157 1.407 0 3.188-1.422 1.781-1.438 2.922-3.078 1.156-1.657 1.156-2.375 0-.72-.703-1-.703-.282-2.703-.282-.39 0-.39-.296 0-.579.64-1.172.656-.594 1.25-.672 2.406-.156 5.047-.156 2.656 0 2.656.468 0 .39-.453 1.235-.438.828-.735 1.343-.28.516-.828 1.438-.547.906-.89 1.437-.329.532-1.016 1.625-.672 1.079-1.078 1.75-.39.657-.985 1.766-.578 1.094-.843 1.547-.266.453-.438.453z"/><defs><radialGradient id="b" gradientUnits="userSpaceOnUse" gradientTransform="scale(8.32987)" spreadMethod="pad" cx="55.62" cy="38.266" fx="55.62" fy="38.266" r="8.33"><stop offset="0" stop-color="#dcecd5"/><stop offset="1" stop-color="#93bc81"/></radialGradient></defs><path fill="url(#b)" d="M397.367 307.944h110.268V297.14l21.606 21.607-21.606 21.606V329.55H397.367z" fill-rule="evenodd"/><path stroke="#38761d" stroke-linejoin="round" stroke-linecap="butt" d="M397.367 307.944h110.268V297.14l21.606 21.607-21.606 21.606V329.55H397.367z"/><path fill="#c27ba0" d="M96.136 96.869c0 10.698 9.918 20.292 24.953 24.139v-5.11l14.008 15.85-14.008 12.388v-5.109c-15.035-3.846-24.953-13.44-24.953-24.139z" fill-rule="evenodd"/><path fill="#9b627f" d="M135.097 89.02c-16.284 0-30.85 6.724-36.521 16.859-4.443-7.94-2.75-16.822 4.532-23.777C110.39 75.147 122.34 71 135.098 71z" fill-rule="evenodd"/><path fill="none" d="M96.136 96.869c0 10.698 9.918 20.292 24.953 24.139v-5.11l14.008 15.85-14.008 12.388v-5.109c-15.035-3.846-24.953-13.44-24.953-24.139v-18.02C96.136 82.583 113.58 71 135.097 71v18.02c-16.284 0-30.85 6.724-36.521 16.859"/><path stroke="#741b47" stroke-linejoin="round" stroke-linecap="butt" d="M96.136 96.869c0 10.698 9.918 20.292 24.953 24.139v-5.11l14.008 15.85-14.008 12.388v-5.109c-15.035-3.846-24.953-13.44-24.953-24.139v-18.02C96.136 82.583 113.58 71 135.097 71v18.02c-16.284 0-30.85 6.724-36.521 16.859"/><path fill="#d5a6bd" d="M5.236 56.449h85.008v103.968H5.236z" fill-rule="evenodd"/><path stroke="#741b47" stroke-width="3" stroke-linejoin="round" stroke-linecap="butt" d="M5.236 56.449h85.008v103.968H5.236z"/><path fill="none" d="M2.969 65.22h89.543v43.213H2.969z"/><path fill="#a64d79" d="M17.734 96.527q-4.203 0-4.203-4.28 0-1.188.547-2.829.562-1.656 1.625-3.406 1.078-1.75 2.422-3.266 1.36-1.516 3.203-2.516 1.86-1 3.781-1 .922 0 1.36.25.453.235.406.235-.031 0 .484-.266.531-.281 1.547-.281t1.016.719q0 .718-.922 2.203-.922 1.469-2.235 2.86-1.296 1.374-2.156 1.374-.094.031-.297.031-.906 0-.906-.718 0-.188.344-.688.344-.515.625-1.234.297-.719.297-1.11 0-.406-.032-.515-.015-.125-.156-.266-.14-.156-.406-.156-1.016 0-2.61 1.75-1.593 1.75-2.765 4.187-1.172 2.422-1.172 4.063 0 1.61 1.438 1.61 2.03 0 3.984-2.704.203-.406.484-.406.282 0 .438.047.156.047.36.297.202.234.202.718 0 .485-.515 1.36-.5.875-1.328 1.765-.813.875-2.125 1.532-1.313.64-2.735.64zm6.818.61q-.516 0-1.032-.547-.515-.531-.515-1.281 0-.422 1.484-3.313 1.485-2.906 1.531-3.812 0-.563.625-.97.844-.515 2.391-.515.36 0 .86.172.5.156.5.688 0 .28-.188.468-.813 1.047-2.453 3.86-1.64 2.797-2.469 4.5-.187.75-.734.75zM29.52 86.37q-1.437 0-1.515-1.25v-.031q0-.922.828-1.469.844-.547 1.64-.547 1.438 0 1.516 1.25 0 .953-.828 1.5t-1.64.547zm.34 10.453q-.782 0-.797.016-.766.953-3.157 5.547-2.39 4.593-3.03 6.422-.173.609-.798.609t-1.203-.64q-.594-.641-.594-1.391 0-.922 2.297-5t5.407-9.328q3.125-5.25 3.64-6.25.531-1 .563-1.063.03-.078.203-.312.187-.235.437-.375.625-.422 1.625-.422.953 0 .953.765 0 .282-.625 1.235-.625.953-.703.953-.078 0-.156-.078-.062-.078.266-.282 1.437-.906 2.718-.906.641 0 1.141.5t.5 1.531q0 1.954-1.156 3.907-1.14 1.953-3.188 3.265-2.031 1.297-4.343 1.297zm5.375-7.297v-.234q0-.078 0 0-.657 0-1.547.703-.875.703-1.578 1.656-.688.938-1.141 1.688-.438.734-.438.781 0 .031.157.156.172.11.484.11 1.203 0 2.625-1.797 1.438-1.797 1.438-3.063zm11.621-2.859q1.438 0 1.438 1.422t-.844 3.234q-1.188 2.469-2.688 4.281-.843 1.016-2.125 1.016-.812 0-.812-.734l.14-.39q1.079-1.579 1.876-3.173.796-1.61.796-2.25.11 0 .094.063-.015.062 0 .062-.703 0-2.203 1.453-1.484 1.438-2.61 2.953-1.124 1.5-1.484 2.157-.36.672-.828.843-.469.172-1.515.172-1.032 0-1.032-.75 0-.234.25-.625.235-.375 1.64-3.078 1.423-2.719 3-5.547 1.579-2.828 3.454-5.797 1.89-2.984 3.86-4.937 1.968-1.953 3.53-1.953 1.532 0 1.532 1.703 0 2.578-2.281 5.422-2.266 2.844-4.188 3.734-.5.219-1.219.219-.718 0-.718-.797l.234-.422q2.234-1.547 3.469-3.469 1.25-1.921 1.25-2.593 0-.14.047-.078.047.046.047.062-.579 0-2.344 2.547-1.766 2.547-3.219 5.281-1.437 2.735-1.437 3.235-.22 0-.25-.11-.032-.11.125-.219.328-.312.875-.796.546-.485 1.875-1.313 1.328-.828 2.265-.828zm3.26 10.61q-1.547 0-2.282-.938-.734-.938-.734-2.203 0-1.282.531-2.61.531-1.328 1.453-2.562.922-1.25 2.422-2.11 1.516-.859 3.281-.859.953 0 1.47.625.515.61.515 1.422 0 1.484-1.016 2.719-1.016 1.234-2.234 1.86-1.203.624-2.063.702-.844.078-1 .219-.156.125-.156.687 0 .547.25.829.25.265.672.437.437.172.437.625 0 .594-.515.875-.5.281-1.032.281zm3.515-8.673q0-.234-.172-.234-.687 0-1.656 1.125-.969 1.11-.969 1.953-.219 0-.094-.219.782 0 1.829-.828 1.062-.828 1.062-1.797zm9.245 4.5q-.718 0-1.046-.625-.313-.625-.313-1.14 0-.531.266-1.078.25.031.25.281-.703 0-1.75.984-1.047.97-1.797 2.063-.735 1.078-1.375 2.203-.531.906-1.985.906-1.078 0-1.078-.734 0-.735 2.297-4.813 2.297-4.078 3.172-4.406.563-.297 1.469-.297.922 0 .922.578 0 .563-.532 1.313-.515.75-.671.797-.141.047-.141-.25 0 .203.234-.188 1-.765 2.39-1.515l.142-.204q.703-.859 2.078-.859t1.375.969q-.11.25-.328.547-1.75 2.406-2.954 5.062-.25.406-.625.406zM17.625 121.9l.047-.47q.343-.046.343.297-.015 0-.593.547-.563.547-1.578 1.188-1.016.64-2.266.64t-1.25-1.843q0-1.86 1.578-4.235.797-1.172 1.844-2.172 1.062-1 2.594-1.656 1.546-.672 3.218-.672 1 0 1.735.563.75.547.75 1.547 0 1-.844 1-.36 0-.813-.329-.515-.359-1.734-.359-1.578 0-3.047 1.484-1.469 1.485-1.469 2.875v.11q.016.031.016 0 .5 0 1.469-.86.969-.859 1.922-2.515.109-.36.687-.594.578-.25 1.281-.25 1.297.094 1.297.828 0 .172-.218.485-.204.312-.625.984-.422.672-1.188 2.187-.75 1.5-.875 2.297-.047.703-.687.703-1.594 0-1.594-1.78zm3.447 1.655q0-.984.766-2.937.781-1.969 1.719-3.797.937-1.844 2.515-4.5 2.375-3.922 4.875-7.781.438-.719 1.36-1.156.937-.438 1.875-.438.937 0 .968.813 0 .296-.265.593-.75.688-2.547 3.22-1.797 2.515-3.813 5.78-2 3.25-3.515 6.844-1.5 3.578-1.5 5.797 0 .812-.672.812-.594 0-.985-.406-.375-.39-.515-.937-.266-.922-.266-1.907zm6.5.47q-.782 0-.798.015-.765.953-3.156 5.547-2.39 4.593-3.031 6.422-.172.609-.797.609t-1.203-.64q-.594-.641-.594-1.391 0-.922 2.297-5t5.406-9.328q3.125-5.25 3.641-6.25.531-1 .562-1.063.032-.078.204-.312.187-.235.437-.375.625-.422 1.625-.422.953 0 .953.765 0 .282-.625 1.235-.625.953-.703.953-.078 0-.156-.078-.063-.078.265-.282 1.438-.906 2.72-.906.64 0 1.14.5.5.5.5 1.531 0 1.954-1.156 3.907-1.141 1.953-3.188 3.265-2.031 1.297-4.344 1.297zm5.374-7.298v-.234q0-.078 0 0-.656 0-1.547.703-.875.703-1.578 1.656-.687.938-1.14 1.688-.438.734-.438.781 0 .031.156.156.172.11.485.11 1.203 0 2.625-1.797 1.437-1.797 1.437-3.063zm11.622-2.859q1.437 0 1.437 1.422t-.843 3.234q-1.188 2.469-2.688 4.281-.844 1.016-2.125 1.016-.812 0-.812-.734l.14-.39q1.078-1.579 1.875-3.173.797-1.61.797-2.25.11 0 .094.063-.016.062 0 .062-.703 0-2.203 1.453-1.485 1.438-2.61 2.953-1.125 1.5-1.484 2.157-.36.672-.828.843-.469.172-1.516.172-1.03 0-1.03-.75 0-.234.25-.625.233-.375 1.64-3.078 1.422-2.719 3-5.547t3.453-5.797q1.89-2.984 3.86-4.937 1.968-1.953 3.53-1.953 1.532 0 1.532 1.703 0 2.578-2.282 5.422-2.265 2.844-4.187 3.734-.5.219-1.219.219-.719 0-.719-.797l.235-.422q2.234-1.547 3.469-3.469 1.25-1.921 1.25-2.593 0-.14.046-.078.047.046.047.062-.578 0-2.343 2.547-1.766 2.547-3.22 5.281-1.437 2.735-1.437 3.235-.218 0-.25-.11-.03-.11.125-.219.328-.312.875-.796.547-.485 1.875-1.313 1.328-.828 2.266-.828zm4.843 8.031.047-.469q.343-.046.343.297-.015 0-.593.547-.563.547-1.579 1.188-1.015.64-2.265.64-1.25 0-1.25-1.843 0-1.86 1.578-4.235.797-1.172 1.844-2.172 1.062-1 2.593-1.656 1.547-.672 3.22-.672 1 0 1.734.563.75.547.75 1.547 0 1-.844 1-.36 0-.813-.329-.515-.359-1.734-.359-1.578 0-3.047 1.484-1.469 1.485-1.469 2.875v.11q.016.031.016 0 .5 0 1.469-.86.968-.859 1.922-2.515.109-.36.687-.594.578-.25 1.281-.25 1.297.094 1.297.828 0 .172-.219.485-.203.312-.625.984-.421.672-1.187 2.187-.75 1.5-.875 2.297-.047.703-.688.703-1.593 0-1.593-1.78zm7.68 1.797q-.673 0-1.235-.187l-.547-.188-.203.297q-.578.937-2.094.937-1.219 0-1.219-.906l.079-.203q11-19.062 11.203-19.484.687-1.25 2.968-1.25 1.141 0 1.141.828 0 .36-1.156 1.969-3.953 5.359-6.094 9.515 0-.015 0 0-.25 0-.25-.125t.297-.36q1.375-1 2.797-1 1.812 0 1.812 2.126 0 .984-.578 2.312-.578 1.328-1.531 2.61-.938 1.265-2.39 2.187-1.454.922-3 .922zm.812-2.219q1 0 2.203-1.859 1.203-1.875 1.203-3.14 0-.141-.031-.141-.578 0-1.688.968-1.093.954-1.89 2.032-.797 1.062-.797 1.312 0 .047.047.188.047.14.312.39.266.25.64.25zm8.185 3q-1.547 0-2.281-.937-.735-.938-.735-2.203 0-1.282.532-2.61.53-1.328 1.453-2.562.922-1.25 2.422-2.11 1.515-.859 3.28-.859.954 0 1.47.625.515.61.515 1.422 0 1.484-1.015 2.719-1.016 1.234-2.235 1.86-1.203.624-2.062.702-.844.078-1 .219-.157.125-.157.687 0 .547.25.829.25.265.672.437.438.172.438.625 0 .594-.516.875-.5.281-1.031.281zm3.516-8.672q0-.234-.172-.234-.688 0-1.657 1.125-.968 1.11-.968 1.953-.22 0-.094-.219.781 0 1.828-.828 1.063-.828 1.063-1.797zm12.904-8.046 1.11-.032q.702 0 .702.36t-.078.578q-.062.203-.25.469-.187.25-.453.453-.672.515-1.547.515-.859 0-1.172.047-.296.031-.5.172-.203.125-.265.188-.047.062-.266.406-.219.328-.312.484-1.203 1.656-3.86 6.266-2.656 4.61-3.297 7.11-.187.562-.812.562-.61 0-1.36-.735-.75-.718-.75-1.484 0-.781 1.876-3.875 1.89-3.11 3.703-5.984 1.828-2.875 1.828-2.954 0-.078-.078-.093-.063-.032-.672-.032h-.75q-.766 0-.766-.593 0-.594.36-1 .359-.422.937-.672.578-.25 1.094-.453.531-.219 1.375-.969t1.719-1.953q.718-.969 2.328-.969.953 0 .953.766 0 .328-1.031 1.797-1.016 1.468-1.016 1.546 0 .063.234.063.266.016 1.016.016z"/></g></svg>