<svg viewBox="0 0 1009.307 436.06" fill="none" stroke-linecap="square" stroke-miterlimit="10" xmlns="http://www.w3.org/2000/svg"><clipPath id="a"><path d="M0 0h1009.307v436.06H0V0z"/></clipPath><g clip-path="url(#a)"><path fill="none" d="M0 0h1009.307v436.06H0z"/><path shape-rendering="crispEdges" fill="#d0e0e3" d="M135.096 49.864h69.296v58.57h-69.296v-58.57z"/><path shape-rendering="crispEdges" fill="#d0e0e3" d="M204.392 49.864h69.297v58.57h-69.297v-58.57zM273.689 49.864h69.297v58.57h-69.297v-58.57zM342.986 49.864h69.296v58.57h-69.296v-58.57z"/><path shape-rendering="crispEdges" fill="#d0e0e3" d="M412.282 49.864h69.297v58.57h-69.297v-58.57zM481.579 49.864h69.296v58.57H481.58v-58.57zM550.875 49.864h69.297v58.57h-69.297v-58.57zM620.172 49.864h69.297v58.57h-69.297v-58.57z"/><path shape-rendering="crispEdges" fill="#d0e0e3" d="M689.468 49.864h69.297v58.57h-69.297v-58.57zM758.765 49.864h69.297v58.57h-69.297v-58.57zM135.096 108.433h69.296v58.57h-69.296v-58.57z"/><path shape-rendering="crispEdges" fill="#d0e0e3" d="M204.392 108.433h69.297v58.57h-69.297v-58.57zM273.689 108.433h69.297v58.57h-69.297v-58.57zM342.986 108.433h69.296v58.57h-69.296v-58.57z"/><path shape-rendering="crispEdges" fill="#d0e0e3" d="M412.282 108.433h69.297v58.57h-69.297v-58.57zM481.579 108.433h69.296v58.57H481.58v-58.57zM550.875 108.433h69.297v58.57h-69.297v-58.57zM620.172 108.433h69.297v58.57h-69.297v-58.57z"/><path shape-rendering="crispEdges" fill="#d0e0e3" d="M689.468 108.433h69.297v58.57h-69.297v-58.57zM758.765 108.433h69.297v58.57h-69.297v-58.57z"/><path stroke="#45818e" stroke-width="4" stroke-linecap="butt" d="M135.096 47.864v121.139M204.392 47.864v121.139M273.689 47.864v121.139M342.986 47.864v121.139M412.282 47.864v121.139M481.579 47.864v121.139M550.875 47.864v121.139M620.172 47.864v121.139M689.468 47.864v121.139M758.765 47.864v121.139M828.062 47.864v121.139M133.096 49.864h696.966M133.096 108.433h696.966M133.096 167.003h696.966"/><path fill="#0c343d" d="M146.955 77.745q-.187 0-.25-.235 0-.453.64-1.03.641-.595 1.032-.75.39-.173 2.563-.22l.375-.437q8.109-9.344 11.25-9.344.265-.031.609-.031 1.844 0 1.844.875 0 .172-.344.86l-1.203 2.39q-.844 1.719-1.656 3.469-4.313 9.515-5 12.484 0 .203-.547.203t-1.328-.61q-.766-.593-.766-1.046 0-.813 1.297-3.11 1.312-2.296 1.312-2.984 0-.937-3.625-.937-.531 0-1.656.047l-1.016 1.343q-1.859 2.5-3.562 6.203-.297.672-1.797.672-1.484 0-1.484-.422 0-.296 1.656-2.578 1.672-2.281 3.969-5.047-.407.047-1.016.11-.61.047-.953.094-.328.03-.344.03zm11.047-3.438q1.047-1.25 1.563-2.531.53-1.281.53-1.734 0-.453-.452-.453-.813 0-2.657 1.703-1.828 1.687-3.984 4.218l2.906.047q1.063 0 2.094-1.25zM226.674 82.62q-1.172 1.078-3.078 1.765-1.891.672-3.672.672-1.782 0-2.547-.187-.766-.172-.89-.172-.266 0-.532.172-.86.765-2.063.765-1.187 0-1.187-.421 0-.297 1.844-3.485 1.859-3.203 4.109-7.125t2.906-5.39q.657-1.47.657-2.532v-.218q0-.72 4.125-.72 3.78 0 4.859.407 1.375.531 1.719 1.406.218.547.218 1.282 0 1.203-.875 2.265-1.625 1.922-4.218 2.531-.985.25-1.172.407-.188.156-.188.328 0 .172.39.437.392.25.845.547.468.281.859.953.39.672.39 1.703 0 1.016-.656 2.266t-1.843 2.344zm-2.328-1.453q.78-.938 1.218-1.891.438-.969.438-1.625t-.203-1.11q-.203-.468-.47-.702-.265-.25-.64-.391-.547-.203-1.11-.203h-.265q-.36 0-.36-.25 0-.547.407-1.172.422-.64.953-.64 2.172 0 3.875-1.438 1.703-1.438 1.703-3.063 0-1.406-1.859-1.406-1.547 0-2.172.734-1.672 2.079-4.844 7.75-3.171 5.672-3.171 6.657 0 .39.437.687.438.297 1.594.297 1.172 0 2.437-.656 1.266-.656 2.032-1.578zM288.923 85.104q-4.39 0-4.39-4.484 0-1.297.625-3.156.625-1.875 1.843-3.891 1.235-2.016 2.782-3.734 1.547-1.735 3.625-2.86 2.078-1.125 4.187-1.125.985 0 1.516.235.531.218.562.218.047 0 .672-.265.625-.266 1.485-.266.875 0 .875.5 0 .484-1.032 2.14-1.015 1.657-2.453 3.173-1.437 1.515-2.297 1.515-.109.031-.265.031-.5 0-.5-.296 0-.047.36-.594.374-.547.75-1.469.374-.922.374-1.484 0-.563-.062-.797-.047-.235-.36-.547-.297-.328-.828-.328-1.437 0-3.422 2.187-1.984 2.188-3.422 5.14-1.422 2.938-1.422 4.985 0 2.453 2.235 2.453 2.672 0 5.172-3.437.11-.219.218-.219.125 0 .188.016.078.015.187.172.125.14.125.547 0 .39-.546 1.328-.547.922-1.454 1.922-.906.984-2.343 1.687-1.438.703-2.985.703zM358.173 85.073q-1.422 0-1.828-.094-.39-.094-.672-.156-.281-.063-.36-.094-.077-.031-.234-.031-.328 0-.593.172-.922.765-2.454.765-.796 0-.796-.359 0-.36 1.843-3.547 1.86-3.203 4.11-7.125 2.265-3.922 2.906-5.39.656-1.47.656-2.532v-.218q0-.766 4.453-.766 6.61 0 6.61 4.5 0 3.25-2.203 7.172-1.157 2.062-2.704 3.765-1.546 1.704-3.859 2.829-2.297 1.109-4.875 1.109zm8.766-9.125q.984-1.906 1.5-3.563.53-1.671.53-2.796 0-1.141-.655-1.72-.657-.593-2.203-.593-1.063 0-1.704.734-1.671 2.11-4.859 7.782-3.172 5.656-3.172 6.625 0 1.062 2.266 1.062 1.61 0 3.234-1.11 1.625-1.124 2.844-2.812 1.234-1.703 2.219-3.61zM433.704 75.667l-2.266-.078q-1.671 0-2.578 1.093-.64.797-1.703 2.61-1.047 1.812-1.047 2.875 0 .984 1.938.984 1.203 0 2.562-.453 2.75-.906 4.344-3.453.188-.25.64-.25.454 0 .454.531 0 .516-.86 2.172-.843 1.64-1.515 2.469-.344.437-1.344.484-1 .047-3.047.047h-2.61l-1.53-.016-.72-.062h-.187q-.156 0-.39.25-.891.765-2.516.765-.766 0-.766-.343v-.078q0-.297 1.844-3.485 1.86-3.187 4.125-7.094 2.266-3.921 2.906-5.375.641-1.453.641-2.5v-.296q0-.454 5.672-.454 1.875 0 3.25.063.406-.453 2.062-.453.688 0 .688.344 0 .609-1.219 2.468-1.203 1.844-2.11 2.516-.296.234-.75.234-.452 0-.452-.187 0-.078.078-.203.437-.828.437-1.875 0-1.453-2.031-1.453-1.234 0-1.937.64-.704.625-1.407 1.781-.687 1.141-1.015 1.97-.328.827-.328 1.046 0 .64.625.781.625.14 2.484.14l1.984-.077q.266 0 .266.203t-.281.672q-.282.453-.578.64-.594.407-1.813.407zM502.657 75.667l-2.297-.078q-1.672 0-2.563 1.093-1.406 1.844-2.921 4.813-1.5 2.969-2.079 3.39-.968.75-2.453.75-.812 0-.812-.343v-.078q0-.297 1.86-3.485 1.859-3.187 4.109-7.094 2.25-3.921 2.906-5.39.656-1.469.656-2.5v-.281q0-.454 5.672-.454 1.86 0 3.25.063.406-.453 2.031-.453.719 0 .719.344 0 .64-1.297 2.578-1.297 1.922-2.172 2.484-.375.188-.719.188-.343 0-.343-.22 0-.015.125-.28.375-.75.375-1.797 0-1.453-2.047-1.453-1.235 0-1.938.64-.703.625-1.406 1.781-.687 1.141-1.016 1.97-.328.827-.328 1.14 0 .297.282.562.296.266 2.859.266 1.14 0 1.531-.031.406-.047.438-.047.234 0 .234.187 0 .11-.016.157-.375.906-.906 1.25-.515.328-1.734.328zM570.72 84.62q-.376 0-.657-.344-.266-.344-.344-.687l-.094-.344q-.078-.297-.39-.297-.297 0-.532.187-2.515 1.97-4.671 1.97-2.766 0-2.766-3.704 0-1.312.672-3.25.687-1.953 1.953-4.062 1.281-2.125 2.89-3.97 1.626-1.859 3.735-3.062 2.125-1.203 4.234-1.203 1.14 0 1.86.406.11.047.234.047.14 0 .281-.078.657-.453 1.688-.453 1.047 0 1.047.516 0 .625-1.328 2.53-2.079 2.954-3.407 2.954-.343 0-.468-.047-.125-.062-.125-.219 0-.156.171-.53.532-1.126.532-1.86 0-.735-.282-1.11-.28-.39-1.156-.39-1.61 0-3.812 2.422-2.188 2.406-3.766 5.562-1.578 3.156-1.578 5.203 0 1.735 1.437 1.735 1.125 0 2.547-1.141 1.438-1.156 2.344-2.469.922-1.312.922-1.89 0-.578-.563-.797-.546-.235-2.156-.235-.312 0-.312-.234 0-.453.515-.937.516-.485 1-.532 1.922-.14 4.032-.14 2.125 0 2.125.375 0 .328-.36 1-.36.656-.594 1.078-.218.406-.656 1.14-.437.735-.703 1.157-.266.422-.812 1.297-.547.859-.875 1.406-.313.531-.782 1.406-.468.875-.687 1.234-.203.36-.344.36zM638.766 66.823v-.36q0-.687 2.86-.687 1.437 0 1.437.531 0 .219-.22.438-1.015 1.375-4.312 7l3.297.031q1.094 0 2-.875.453-.484.813-.89.36-.422.812-1.188.453-.781.719-1.234.375-.672 1.312-2.563 0-.125.204-.328.203-.203.468-.344.282-.156.86-.25.593-.11 1.39-.11.813 0 .813.345 0 .156-.125.359-.11.203-1.39 2.156-1.266 1.938-2.548 4.031-1.265 2.094-2.703 4.547-1.422 2.453-2.312 4.485-.89 2.015-.89 2.953-.157.453-.673.453-1.469 0-2.031-.25-.547-.234-.547-.719 0-.828 1.766-3.86 1.781-3.046 1.781-3.687 0-.656-.547-.968-.531-.329-1.781-.329t-1.735.016q-.906 1.469-2.078 3.766-1.172 2.297-1.968 3.765-.797 1.453-1.282 1.828-.984.75-2.422.75-.828 0-.828-.421 0-.25.703-1.422.704-1.188 2.282-3.735 1.578-2.547 2.718-4.468l-1.625.078q-.406 0-.406-.22 0-.452.578-.905t.938-.578q.375-.141 1.562-.188.985-1.687 2.532-4.672.578-1.281.578-2.281zM698.843 83.589q0-.625.688-1.22.703-.593 1.438-.593 1.468 0 1.468.906 0 .719-.703 1.297-.687.563-1.453.563-1.438 0-1.438-.953zm5.625 0q0-.625.688-1.22.703-.593 1.438-.593 1.468 0 1.468.906 0 .719-.703 1.297-.687.563-1.422.563-1.469 0-1.469-.953zm5.625 0q0-.625.688-1.22.703-.593 1.438-.593 1.468 0 1.468.906 0 .719-.703 1.297-.687.563-1.453.563-1.438 0-1.438-.953zM788.953 67.026q0 1.281-5.594 5.61-2.313 1.78-4.656 3.593-2.329 1.813-3.97 3.453-1.64 1.64-1.64 2.516 0 .484.61.656.625.172 1.39.172.781 0 2.016-.5 1.234-.516 2.219-1.234 2.109-1.578 3.093-2.672l.453-.5q.563-.453.97-.453h.046q.422 0 .422.265-.047.64-2.14 3.907-2.094 3.265-2.782 3.343h-.297q-1.594 0-2.39-.61-2.563.235-3.282.235-3.547 0-4.812-.218-1.266-.204-1.266-.891 0-.938 1.656-2.719 1.672-1.797 4.047-3.703 2.391-1.922 4.782-3.766 2.406-1.843 4.078-3.234 1.687-1.406 1.718-1.812v-.016q0-.719-1.453-.719t-2.922.766q-1.468.75-3.14 2.14-.61.47-1 .47t-.39-.282q.03-.297 1.312-2.266 1.281-1.984 2.11-2.672.343-.328.843-.328 1.125 0 1.844.594 1.765-.156 3.968-.156 4.157 0 4.157 1.031zM164.002 128.658q0 1.5-.594 3.422-.593 1.922-1.781 3.922-1.172 2-2.703 3.687-1.531 1.688-3.625 2.766-2.094 1.078-4.313 1.078-2.218 0-3.5-1.234-1.28-1.235-1.28-3.422 0-1.5.593-3.406.61-1.922 1.781-3.922 1.172-2 2.703-3.672 1.532-1.688 3.625-2.766 2.094-1.078 4.313-1.078 2.234 0 3.5 1.234 1.281 1.22 1.281 3.391zm-3.14-.234q0-2.938-2.126-2.938-1.796 0-4 2.266-2.187 2.265-3.718 5.484-1.532 3.219-1.532 5.75 0 2.922 2.125 2.922 1.766 0 3.97-2.266 2.218-2.265 3.75-5.468 1.53-3.22 1.53-5.75zM228.19 136.799q0 2.828-2.344 4.734-2.329 1.906-5.954 1.906-2 0-3.03-.593-.11-.047-.25-.047-.126 0-.985.28-.844.298-1.719.298-.86 0-.86-.5 0-.703 1.673-3.61 1.687-2.921 2.984-3.937.562-.422 1.094-.422.53 0 .53.281 0 .063-.358.672-.36.594-.72 1.578-.359.985-.359 1.688t.141 1.187q.156.485.75.985.61.484 1.469.484.875 0 1.625-.203.765-.219 1.515-.672.75-.453 1.22-1.328.484-.89.484-2.047 0-1.156-.72-2.36-.718-1.202-1.577-2.046-.844-.844-1.563-1.922-.719-1.078-.719-2.094 0-1.031.532-1.906.547-.89 1.359-1.406.828-.516 1.86-.86 1.765-.593 3.124-.593 1.36 0 2 .125.657.109.985.218.344.11.422.11.078 0 .218-.078.797-.454 1.72-.454.937 0 .937.454 0 .75-1.782 3.343-1.765 2.594-2.64 2.594-.719 0-.719-.312 0-.047.188-.375.578-1.063.578-2.422 0-.75-.641-1.157-.625-.421-1.312-.421-.672 0-1.391.218-.703.203-1.406.844-.703.64-.703 1.547 0 .89.671 1.86.688.968 1.5 1.78.813.813 1.485 2.063.687 1.234.687 2.516zM288.923 143.674q-4.39 0-4.39-4.485 0-1.297.625-3.156.625-1.875 1.843-3.89 1.235-2.016 2.782-3.735 1.547-1.734 3.625-2.86 2.078-1.124 4.187-1.124.985 0 1.516.234.531.219.562.219.047 0 .672-.266.625-.265 1.485-.265.875 0 .875.5 0 .484-1.032 2.14-1.015 1.656-2.453 3.172-1.437 1.516-2.297 1.516-.109.03-.265.03-.5 0-.5-.296 0-.047.36-.594.374-.547.75-1.468.374-.922.374-1.485 0-.562-.062-.797-.047-.234-.36-.547-.297-.328-.828-.328-1.437 0-3.422 2.188-1.984 2.187-3.422 5.14-1.422 2.938-1.422 4.985 0 2.453 2.235 2.453 2.672 0 5.172-3.438.11-.218.218-.218.125 0 .188.015.078.016.187.172.125.14.125.547 0 .39-.546 1.328-.547.922-1.454 1.922-.906.984-2.343 1.688-1.438.703-2.985.703zM358.939 143.533q-2.235 0-3.516-1.234-1.281-1.235-1.281-3.422 0-1.5.594-3.406.609-1.922 1.78-3.922 1.173-2 2.704-3.672 1.531-1.688 3.625-2.766 2.094-1.078 4.312-1.078 2.235 0 3.516 1.234 1.281 1.22 1.281 3.641 0 2.422-1.843 6.031-1.844 3.61-4.5 5.64-1.063.83-1.063 1.313 0 .125.094.47.11.327.11.671 0 .906-.626 1.89-.625.985-1.375.985l-.078-.078q-.047-.156-.11-.453-.28-2.078-1.437-2.078l-.344.047q-.718.187-1.843.187zm3.89-8.016q.188 0 .25.266 0 .11.094.828.094.719.188 1.078.093.36.187.625.25.61.625.61.547 0 1.656-1.703 1.11-1.704 2.032-4.266.937-2.578.937-4.531 0-2.938-2.125-2.938-1.766 0-3.984 2.266-2.203 2.265-3.735 5.484-1.53 3.219-1.53 5.75 0 .563.093 1.11.094.53.61 1.171.515.641 1.437.641 1.625 0 1.625-.61 0-.265-.297-.765-.297-.516-.297-1.203 0-1.281.86-2.547.874-1.266 1.374-1.266zM433.517 142.627l.03.562q0 .438-1.28.438-2.266 0-2.266-.906 0-.829 1.36-4.047 1.359-3.22 1.359-3.938 0-1.328-2.078-1.328h-.907l-1.25 2.219q-.86 1.484-1.843 3.484-.985 2-1.547 2.969-.563.953-1.094 1.375-.938.75-2.453.75-.688 0-.766-.234-.031-.079-.031-.266 0-.188.766-1.484.78-1.297 2.421-3.938 1.641-2.656 2.86-4.766l-1.844.079q-.187 0-.266-.22 0-.452.485-.859.484-.406.875-.546.406-.157 1.765-.22 1.313-2.312 2.22-4.077.577-1.36.577-2.39v-.25q0-.688 2.828-.688 1.438 0 1.438.53 0 .22-.61 1-.593.766-3.593 5.907.797-.031 1.515-.344.72-.328 2.282-1.78 1.578-1.47 3.843-4.25.063-.095.22-.267.155-.187.984-.453.843-.28 2.328-.28 1.484 0 1.484.468 0 .156-2.344 1.812-7.047 4.97-7.047 5.766 0 .344.86.953.86.61.86 1.234 0 .016-1.079 3.266-1.062 3.234-1.062 4.719zM496.126 141.705q2.03 0 4.203-3.5 3.015-4.844 5.875-10.531.578-1.188.578-2.282v-.359q0-.687 2.86-.687 1.437 0 1.437.53 0 .22-.469.798-.469.562-2.64 4.234-2.173 3.656-2.798 4.828-.625 1.156-1.171 2.219-.547 1.047-.829 1.562-.28.516-.703 1.282-.406.75-.672 1.093-.265.329-.687.813-.406.469-.781.672-.36.203-.86.453t-1.078.344q-1.578.203-2.797.203-1.203 0-2-.453-.109-.047-.265-.047-.14 0-.25.078-.719.453-1.735.453-1 0-1-.516 0-.765 2.032-4 2.046-3.25 3.406-3.968.281-.188.781-.188.516 0 .516.297 0 .063-.563.969-.547.906-1.094 2.172-.546 1.265-.546 2 0 .734.328 1.14.328.39.922.39zM565.657 143.705q-1.922 0-3.188-.906-1.266-.907-1.266-2.563 0-1.062 1.047-3.156 1.063-2.094 2.89-5.125 1.83-3.047 2.61-4.61.782-1.562.782-2.546 0-.266.171-.422.375-.375 2.547-.375 1.453 0 1.453.562 0 .266-.187.453-1.469 2.047-4.516 7.297-3.03 5.25-3.03 6.688 0 2.11 1.92 2.11 1.735 0 2.688-.907.72-.719 1.204-1.484 1.062-1.625 2.765-5.11 1.703-3.484 3.047-6.187 1.36-2.703 1.906-3.14.547-.438 1.907-.438 1.375 0 1.375.312 0 .219-.47.781-.452.547-1.359 1.938-.906 1.39-2.093 3.312-1.188 1.922-2.078 3.39-.875 1.454-2.063 3.47l-1.39 2.36q-2.516 4.296-6.672 4.296zM634.297 129.33l-.031-2.828q0-1.11-.172-1.422-.156-.328-.156-.547 0-.531 2.093-.531 2.094 0 2.094.984 0 .672-.437 3.219-.438 2.547-.47 3.5-.015.937.516.937.313 0 .72-.359 1.624-1.437 3.64-3.625 2.031-2.203 2.687-3.062.672-.875 1.125-1.063.97-.375 2.297-.422h.453q1.516 0 1.516.469 0 .281-.453.547-1.703.984-5.875 4.484-4.172 3.485-6.094 5.531-.766.829-2.61 4.25-1.843 3.422-2.5 3.875-.609.532-1.812.532t-1.203-.453v-.079q0-.187.875-1.64 2.86-4.672 3.203-5.875.594-1.922.594-6.422zM698.843 142.158q0-.625.688-1.219.703-.593 1.438-.593 1.468 0 1.468.906 0 .719-.703 1.297-.687.562-1.453.562-1.438 0-1.438-.953zm5.625 0q0-.625.688-1.219.703-.593 1.438-.593 1.468 0 1.468.906 0 .719-.703 1.297-.687.562-1.422.562-1.469 0-1.469-.953zm5.625 0q0-.625.688-1.219.703-.593 1.438-.593 1.468 0 1.468.906 0 .719-.703 1.297-.687.562-1.453.562-1.438 0-1.438-.953zM788.953 125.596q0 1.28-5.594 5.609-2.313 1.781-4.656 3.594-2.329 1.812-3.97 3.453-1.64 1.64-1.64 2.515 0 .485.61.657.625.172 1.39.172.781 0 2.016-.5 1.234-.516 2.219-1.235 2.109-1.578 3.093-2.672l.453-.5q.563-.453.97-.453h.046q.422 0 .422.266-.047.64-2.14 3.906-2.094 3.266-2.782 3.344h-.297q-1.594 0-2.39-.61-2.563.235-3.282.235-3.547 0-4.812-.219-1.266-.203-1.266-.89 0-.938 1.656-2.72 1.672-1.796 4.047-3.702 2.391-1.922 4.782-3.766 2.406-1.844 4.078-3.234 1.687-1.407 1.718-1.813v-.016q0-.718-1.453-.718t-2.922.765q-1.468.75-3.14 2.14-.61.47-1 .47t-.39-.282q.03-.296 1.312-2.265 1.281-1.985 2.11-2.672.343-.328.843-.328 1.125 0 1.844.594 1.765-.157 3.968-.157 4.157 0 4.157 1.032z"/><path fill="#76a5af" d="m830.88 314.96 43.196-46.2v21.599c62.195-8.787 110.348-35.728 125.022-69.947 21.458 50.04-34.072 100.294-125.022 113.143v21.599z" fill-rule="evenodd"/><path fill="#5e838b" d="M1003.667 242.01c0-52.216-77.36-94.547-172.788-94.547v-43.197c95.428 0 172.788 42.33 172.788 94.548z" fill-rule="evenodd"/><path fill="none" d="M1003.667 242.01c0-52.216-77.36-94.547-172.788-94.547v-43.197c95.428 0 172.788 42.33 172.788 94.548v43.197c0 43.113-53.302 80.766-129.59 91.544v21.599l-43.198-40.195 43.197-46.199v21.599c62.195-8.787 110.348-35.728 125.022-69.947"/><path stroke="#134f5c" stroke-linejoin="round" stroke-linecap="butt" d="M1003.667 242.01c0-52.216-77.36-94.547-172.788-94.547v-43.197c95.428 0 172.788 42.33 172.788 94.548v43.197c0 43.113-53.302 80.766-129.59 91.544v21.599l-43.198-40.195 43.197-46.199v21.599c62.195-8.787 110.348-35.728 125.022-69.947"/><path fill="#d9ead3" d="M135.092 251.298h692.976v134.898H135.092z" fill-rule="evenodd"/><path stroke="#6aa84f" stroke-width="4" stroke-linejoin="round" stroke-linecap="butt" d="M135.092 251.298h692.976v134.898H135.092z"/><path fill="none" d="M151.811 289.193h641.165v87.905H151.811z"/><path fill="#38761d" d="M172.811 308.13v-.437q0-.86 3.563-.86 1.796 0 1.796.657 0 .265-.265.547-1.266 1.718-5.39 8.765l4.124.032q1.375 0 2.5-1.11.563-.594 1.016-1.11.453-.515 1.015-1.484.579-.968.907-1.53.468-.845 1.625-3.204 0-.172.25-.422t.593-.422q.36-.187 1.094-.312.735-.14 1.735-.14t1 .437q0 .187-.157.437-.14.25-1.734 2.688-1.578 2.437-3.188 5.062-1.593 2.61-3.375 5.672-1.78 3.063-2.906 5.594-1.11 2.531-1.11 3.703-.202.562-.827.562-1.828 0-2.532-.296-.703-.297-.703-.907 0-1.031 2.219-4.828 2.219-3.797 2.219-4.61 0-.812-.672-1.218-.672-.406-2.234-.406-1.563 0-2.172.031-1.125 1.844-2.594 4.719-1.469 2.86-2.469 4.687-1 1.828-1.594 2.297-1.234.938-3.03.938-1.032 0-1.032-.532 0-.296.875-1.78.89-1.485 2.844-4.673 1.968-3.187 3.406-5.578l-2.031.094q-.5 0-.5-.266 0-.562.718-1.125.72-.578 1.172-.734.469-.172 1.938-.234 1.234-2.11 3.172-5.844.734-1.594.734-2.86zm21.828 11.063-2.828-.094q-2.11 0-3.234 1.36-.797 1-2.125 3.265-1.313 2.266-1.313 3.61 0 1.218 2.438 1.218 1.5 0 3.203-.562 3.422-1.125 5.422-4.328.234-.297.797-.297.578 0 .578.656 0 .64-1.078 2.703-1.063 2.063-1.89 3.11-.438.53-1.688.593-1.25.063-3.813.063h-3.266l-1.906-.031-.89-.063h-.235q-.203 0-.5.297-1.11.969-3.14.969-.97 0-.97-.438v-.094q0-.375 2.313-4.359 2.328-3.984 5.157-8.875 2.843-4.906 3.64-6.719.797-1.812.797-3.11v-.374q0-.563 7.094-.563 2.344 0 4.062.063.5-.563 2.578-.563.86 0 .86.438 0 .766-1.516 3.078-1.515 2.313-2.64 3.156-.375.297-.938.297-.562 0-.562-.234 0-.11.093-.266.532-1.031.532-2.344 0-1.828-2.532-1.828-1.53 0-2.422.813-.875.797-1.75 2.234-.859 1.422-1.28 2.453-.407 1.032-.407 1.297 0 .797.781.985.781.187 3.11.187l2.468-.094q.328 0 .328.25t-.359.828q-.344.579-.703.813-.734.5-2.266.5zm7.161 11.234-.469-.031q-.453 0-.687.297-1.14.969-3.078.969-1 0-1-.438v-.094q0-.375 2.312-4.359 2.328-3.984 5.14-8.875 2.813-4.906 3.626-6.734.828-1.828.828-3.032v-.437q0-.86 3.562-.86 1.797 0 1.797.657 0 .265-.265.547-2.657 4.328-7.063 12.359l-.469.828q-.468.844-.671 1.188-.188.343-.61 1.203-.422.844-.61 1.375-.577 1.5-.577 2.344 0 1.218 2.203 1.218h.234q1.36 0 3-.562 3.203-1.125 5.203-4.328.125-.297.735-.297.625 0 .625.531 0 .797-1.063 2.875-1.062 2.063-1.937 3.063-.422.593-1.657.593-1.234.063-5.343.063l-3.766-.063zm17.43 0-.468-.031q-.453 0-.688.297-1.14.969-3.078.969-1 0-1-.438v-.094q0-.375 2.313-4.359 2.328-3.984 5.14-8.875 2.813-4.906 3.625-6.734.828-1.828.828-3.032v-.437q0-.86 3.563-.86 1.797 0 1.797.657 0 .265-.266.547-2.656 4.328-7.062 12.359l-.469.828q-.469.844-.672 1.188-.187.343-.61 1.203-.421.844-.609 1.375-.578 1.5-.578 2.344 0 1.218 2.203 1.218h.235q1.36 0 3-.562 3.203-1.125 5.203-4.328.125-.297.734-.297.625 0 .625.531 0 .797-1.062 2.875-1.063 2.063-1.938 3.063-.422.593-1.656.593-1.234.063-5.344.063l-3.765-.063zm36.694-18.203q0 1.875-.75 4.281-.75 2.391-2.22 4.891-1.452 2.5-3.374 4.625-1.922 2.11-4.547 3.469-2.61 1.344-5.39 1.344-2.782 0-4.376-1.547-1.593-1.563-1.593-4.297 0-1.86.734-4.25.75-2.406 2.219-4.906 1.469-2.5 3.375-4.594 1.922-2.11 4.531-3.453 2.625-1.36 5.406-1.36 2.797 0 4.39 1.532 1.595 1.53 1.595 4.265zm-3.922-.297q0-3.672-2.672-3.672-2.234 0-4.984 2.844-2.75 2.828-4.672 6.844-1.907 4.016-1.907 7.187 0 3.657 2.672 3.657 2.188 0 4.953-2.828 2.766-2.829 4.688-6.844 1.922-4.016 1.922-7.188zm18.39-3.86-.032-.733q0-.907 3.094-.907 1.938 0 1.938.969 0 .172-.063.234-.234 1.297-2.64 8.297-2.391 7-2.391 7.719 0 .719.656.719.5 0 .766-.266l1.172-1.172q.703-.703 3.828-5.047 3.14-4.343 5.03-7.515.642-1.266 4.204-1.266.906 0 .906.563l-.234.64q-1 2.032-2.703 7.172-1.703 5.125-1.703 6.016 0 .875.672.875.5 0 .765-.266l.938-.937q1.234-1.235 5.406-7.047 4.187-5.813 5.656-8.688.36-.734.828-.968.844-.391 2.938-.47h.672q1.734 0 1.734.579 0 .234-.312.531-3.266 3.094-9.579 10.516-6.312 7.406-8.578 10.719-.468.687-.734 1-.266.296-.875.687-1.125.734-3.953.734-1.64 0-1.64-.796l.109-.36q.187-.64.718-2.14.547-1.5.907-2.532.375-1.031.796-2.265.844-2.5.844-3.063 0-.578-.5-.578-.547 0-1.203.813-2.64 3.125-6.406 8.5-.625.89-1 1.28-.36.376-1.531.75-1.172.391-2.922.391-1.735 0-1.735-.796l.094-.36q1.172-3.375 3.11-9.703 1.953-6.328 2.656-9.297.297-1.703.297-2.531zm44.69 4.157q0 1.875-.75 4.281-.75 2.391-2.22 4.891-1.453 2.5-3.374 4.625-1.922 2.11-4.547 3.469-2.61 1.344-5.39 1.344-2.782 0-4.376-1.547-1.594-1.563-1.594-4.297 0-1.86.735-4.25.75-2.406 2.218-4.906 1.47-2.5 3.375-4.594 1.922-2.11 4.532-3.453 2.625-1.36 5.406-1.36 2.797 0 4.39 1.532 1.594 1.53 1.594 4.265zm-3.923-.297q0-3.672-2.671-3.672-2.235 0-4.985 2.844-2.75 2.828-4.672 6.844-1.906 4.016-1.906 7.187 0 3.657 2.672 3.657 2.187 0 4.953-2.828 2.766-2.829 4.688-6.844 1.921-4.016 1.921-7.188zm15.158 17.266.062 1q0 .531-1.594.531-2.796 0-2.796-1.062 0-1.063 1.484-4.594 1.484-3.547 1.484-4.406 0-1.766-2.172-1.766l-.53.031q-.407 0-.407-.297 0-.64.484-1.28.485-.657 1.22-.657 3.03 0 5.42-1.797 2.407-1.797 2.407-3.797 0-1.437-.89-2-.875-.562-2.407-.562-1.53 0-2.328.922-1.969 2.468-6.328 10.328-4.344 7.843-4.875 9.64-.297.828-1.547 1.219-1.25.406-2.437.406-1.172 0-1.172-.453v-.078q0-.36 2.297-4.25 2.297-3.906 5.078-8.687 2.781-4.782 3.594-6.61.828-1.844.828-3.11v-.327q0-.907 5.062-.907 5.438 0 7.156 1.094.735.469 1.25 1.375.516.89.516 2.297 0 1.406-1.14 2.844-1.126 1.422-2.407 2.11-1.281.671-2.547.984-1.265.296-1.906.5-.625.187-.625.625 0 .265.484.656.485.375.985.922.5.53.5 1.125 0 .593-1.11 3.453-1.093 2.844-1.093 4.578zm6.296 1.234-.469-.031q-.453 0-.687.297-1.141.969-3.079.969-1 0-1-.438v-.094q0-.375 2.313-4.359 2.328-3.984 5.14-8.875 2.813-4.906 3.626-6.734.828-1.828.828-3.032v-.437q0-.86 3.562-.86 1.797 0 1.797.657 0 .265-.266.547-2.656 4.328-7.062 12.359l-.469.828q-.469.844-.672 1.188-.187.343-.61 1.203-.421.844-.608 1.375-.579 1.5-.579 2.344 0 1.218 2.204 1.218h.234q1.36 0 3-.562 3.203-1.125 5.203-4.328.125-.297.734-.297.625 0 .625.531 0 .797-1.062 2.875-1.063 2.063-1.938 3.063-.421.593-1.656.593-1.234.063-5.344.063l-3.765-.063zm20.837.532q-1.766 0-2.266-.125-.5-.11-.86-.204-.343-.078-.453-.109-.093-.031-.296-.031-.391 0-.72.203-1.171.969-3.077.969-1 0-1-.453 0-.454 2.312-4.454 2.328-4 5.14-8.89 2.813-4.906 3.626-6.735.828-1.828.828-3.171v-.266q0-.969 5.562-.969 8.266 0 8.266 5.64 0 4.063-2.766 8.97-1.437 2.562-3.375 4.703-1.921 2.125-4.812 3.53-2.875 1.392-6.11 1.392zm10.968-11.407q1.235-2.39 1.875-4.468.657-2.094.657-3.5 0-1.422-.829-2.157-.812-.734-2.75-.734-1.328 0-2.125.937-2.093 2.625-6.062 9.72-3.969 7.077-3.969 8.28 0 1.329 2.828 1.329 2 0 4.032-1.391 2.03-1.406 3.562-3.516 1.547-2.125 2.781-4.5zM570.105 307.99l-.062-.688q0-.875 3.125-.875 1.906 0 1.906 1 0 .64-2.469 8.063-2.469 7.406-2.469 8.14 0 .735.672.735.531 0 .797-.266l.328-.344q.078-.062.266-.28.203-.22.312-.313 1.328-1.328 5.64-7.11 4.313-5.797 5.75-8.625.376-.734.845-.968.828-.391 2.922-.47h.671q1.735 0 1.735.579 0 .234-.297.531-3.203 3.094-10.125 10.938-6.906 7.828-8.344 10.297-.5.859-.937 1.296-.438.422-1.61.766-1.156.36-2.906.36-1.75 0-1.75-.797l.11-.36q1.062-3.11 2.953-9.515 1.906-6.422 2.609-9.485.328-2 .328-2.61zm19.997 0-.063-.688q0-.875 3.125-.875 1.907 0 1.907 1 0 .64-2.47 8.063-2.468 7.406-2.468 8.14 0 .735.672.735.531 0 .797-.266l.328-.344q.078-.062.266-.28.203-.22.312-.313 1.328-1.328 5.64-7.11 4.313-5.797 5.75-8.625.376-.734.845-.968.828-.391 2.921-.47h.672q1.735 0 1.735.579 0 .234-.297.531-3.203 3.094-10.125 10.938-6.906 7.828-8.344 10.297-.5.859-.937 1.296-.438.422-1.61.766-1.156.36-2.906.36-1.75 0-1.75-.797l.11-.36q1.062-3.11 2.952-9.515 1.907-6.422 2.61-9.485.328-2 .328-2.61zm11.029 22.437-.469-.031q-.453 0-.687.297-1.141.969-3.078.969-1 0-1-.438v-.094q0-.375 2.312-4.359 2.328-3.984 5.14-8.875 2.813-4.906 3.626-6.734.828-1.828.828-3.032v-.437q0-.86 3.562-.86 1.797 0 1.797.657 0 .265-.265.547-2.657 4.328-7.063 12.359l-.469.828q-.468.844-.672 1.188-.187.343-.609 1.203-.422.844-.61 1.375-.577 1.5-.577 2.344 0 1.218 2.203 1.218h.234q1.36 0 3-.562 3.203-1.125 5.203-4.328.125-.297.735-.297.625 0 .625.531 0 .797-1.063 2.875-1.062 2.063-1.937 3.063-.422.593-1.657.593-1.234.063-5.343.063l-3.766-.063zm18.442-17.36-.047-3.53q0-1.407-.203-1.797-.188-.406-.188-.672 0-.672 2.61-.672 2.625 0 2.625 1.234 0 .829-.563 4.016-.547 3.188-.578 4.375-.031 1.172.64 1.172.391 0 .891-.438 2.032-1.796 4.563-4.546 2.547-2.75 3.375-3.829.828-1.078 1.406-1.312 1.188-.469 2.86-.531h.562q1.906 0 1.906.593 0 .329-.562.672-2.14 1.235-7.36 5.594-5.218 4.36-7.609 6.938-.969 1.03-3.266 5.312-2.296 4.281-3.14 4.844-.766.672-2.266.672t-1.5-.563v-.11q0-.234 1.11-2.062 3.562-5.828 4-7.328.734-2.406.734-8.031zm14.66 17.954q-2.407 0-3.985-1.125-1.578-1.14-1.578-3.203 0-1.328 1.313-3.938 1.312-2.625 3.593-6.421 2.282-3.797 3.266-5.75.984-1.954.984-3.188 0-.328.203-.531.47-.469 3.204-.469 1.796 0 1.796.703 0 .328-.234.563-1.828 2.562-5.64 9.14-3.797 6.563-3.797 8.36 0 2.625 2.406 2.625 2.172 0 3.36-1.125.905-.907 1.5-1.875 1.343-2.032 3.468-6.375 2.14-4.344 3.812-7.72 1.688-3.39 2.375-3.937.688-.562 2.391-.562 1.719 0 1.719.406 0 .266-.578.969-.578.687-1.72 2.422-1.124 1.734-2.608 4.14-1.485 2.391-2.594 4.235-1.094 1.828-2.578 4.344-1.485 2.515-1.75 2.953-3.125 5.359-8.328 5.359zm25.09-9.234q-.235 0-.297-.297 0-.563.797-1.297t1.281-.922q.484-.203 3.219-.281l.469-.531q10.125-11.688 14.062-11.688.328-.047.766-.047 2.297 0 2.297 1.11 0 .203-.422 1.062l-1.5 3q-1.078 2.125-2.078 4.328-5.391 11.906-6.266 15.61 0 .265-.688.265-.671 0-1.64-.75-.969-.75-.969-1.328 0-1.031 1.625-3.89 1.64-2.876 1.64-3.735 0-1.172-4.53-1.172-.657 0-2.063.063l-1.266 1.672q-2.328 3.14-4.468 7.765-.36.828-2.235.828-1.86 0-1.86-.531 0-.36 2.079-3.203 2.078-2.86 4.953-6.328-.5.078-1.266.14-.765.063-1.187.11-.422.047-.453.047zm13.828-4.282q1.312-1.578 1.953-3.171.656-1.61.656-2.172 0-.563-.562-.563-1 0-3.313 2.125-2.297 2.11-5 5.266l3.64.078q1.33 0 2.626-1.563zm9.503 13.485q-5.5 0-5.5-5.594 0-1.64.781-3.969.782-2.328 2.313-4.843 1.547-2.516 3.469-4.688 1.937-2.172 4.53-3.562 2.61-1.407 5.235-1.407 1.235 0 1.907.282.671.28.718.28.047 0 .828-.327.782-.328 1.86-.328 1.094 0 1.094.625 0 .609-1.282 2.671-1.281 2.063-3.093 3.97-1.797 1.89-2.86 1.89-.14.031-.328.031-.64 0-.64-.36 0-.062.468-.75.469-.687.938-1.827.468-1.157.468-1.844 0-.703-.078-1-.062-.313-.453-.703-.375-.407-1.047-.407-1.797 0-4.281 2.735-2.484 2.734-4.266 6.422-1.78 3.672-1.78 6.234 0 3.078 2.796 3.078 3.344 0 6.469-4.312.14-.266.281-.266.156 0 .234.031.079.016.235.203.156.172.156.672t-.687 1.672q-.688 1.156-1.829 2.39-1.125 1.235-2.921 2.126-1.797.875-3.735.875zm12.971-2.469q0 .672.079 1.016.078.328.078.484 0 .766-3.25.766t-3.25-.766l.203-.39q1.14-.672 4.531-6.188 3.406-5.516 6.906-12.453.735-1.453.735-2.766v-.531q0-.86 3.562-.86 1.797 0 1.797.657 0 .265-.266.547-2.265 2.922-6.703 10.968-4.422 8.047-4.422 9.516zm7.123 1.906-.469-.031q-.453 0-.687.297-1.14.969-3.078.969-1 0-1-.438v-.094q0-.375 2.312-4.359 2.328-3.984 5.14-8.875 2.813-4.906 3.626-6.734.828-1.828.828-3.032v-.437q0-.86 3.563-.86 1.796 0 1.796.657 0 .265-.265.547-2.656 4.328-7.063 12.359l-.468.828q-.47.844-.672 1.188-.188.343-.61 1.203-.422.844-.61 1.375-.577 1.5-.577 2.344 0 1.218 2.203 1.218h.234q1.36 0 3-.562 3.203-1.125 5.203-4.328.125-.297.735-.297.625 0 .625.531 0 .797-1.063 2.875-1.062 2.063-1.937 3.063-.422.593-1.656.593-1.235.063-5.344.063l-3.766-.063zm21.806.407q-2.797 0-4.407-1.547-1.593-1.563-1.593-4.297 0-1.86.75-4.25.75-2.406 2.203-4.906 1.469-2.5 3.39-4.594 1.922-2.11 4.532-3.453 2.625-1.36 5.406-1.36 2.781 0 4.375 1.532 1.61 1.53 1.61 4.578 0 3.03-2.313 7.547-2.297 4.515-5.625 7.046-1.328 1.032-1.328 1.625 0 .172.125.594.14.406.14.844 0 1.14-.797 2.36-.78 1.234-1.703 1.234l-.109-.094q-.063-.203-.125-.563-.375-2.609-1.797-2.609l-.437.078q-.907.235-2.297.235zm4.86-10.047q.233 0 .296.343 0 .125.11 1.032.124.906.234 1.359.125.438.265.766.297.78.766.78.703 0 2.078-2.14 1.39-2.14 2.547-5.343 1.172-3.22 1.172-5.657 0-3.672-2.672-3.672-2.188 0-4.969 2.844-2.765 2.828-4.687 6.844-1.907 4.016-1.907 7.187 0 .704.11 1.391.125.672.765 1.469.657.797 1.797.797 2.032 0 2.032-.766 0-.328-.375-.953-.36-.64-.36-1.5 0-1.61 1.078-3.188 1.094-1.593 1.72-1.593z"/><defs><radialGradient id="b" gradientUnits="userSpaceOnUse" gradientTransform="scale(8.32987)" spreadMethod="pad" cx="55.62" cy="38.266" fx="55.62" fy="38.266" r="8.33"><stop offset="0" stop-color="#dcecd5"/><stop offset="1" stop-color="#93bc81"/></radialGradient></defs><path fill="url(#b)" d="M397.367 307.944h110.268V297.14l21.606 21.607-21.606 21.606V329.55H397.367z" fill-rule="evenodd"/><path stroke="#38761d" stroke-linejoin="round" stroke-linecap="butt" d="M397.367 307.944h110.268V297.14l21.606 21.607-21.606 21.606V329.55H397.367z"/><path fill="#c27ba0" d="M96.136 96.869c0 10.698 9.918 20.292 24.953 24.139v-5.11l14.008 15.85-14.008 12.388v-5.109c-15.035-3.846-24.953-13.44-24.953-24.139z" fill-rule="evenodd"/><path fill="#9b627f" d="M135.097 89.02c-16.284 0-30.85 6.724-36.521 16.859-4.443-7.94-2.75-16.822 4.532-23.777C110.39 75.147 122.34 71 135.098 71z" fill-rule="evenodd"/><path fill="none" d="M96.136 96.869c0 10.698 9.918 20.292 24.953 24.139v-5.11l14.008 15.85-14.008 12.388v-5.109c-15.035-3.846-24.953-13.44-24.953-24.139v-18.02C96.136 82.583 113.58 71 135.097 71v18.02c-16.284 0-30.85 6.724-36.521 16.859"/><path stroke="#741b47" stroke-linejoin="round" stroke-linecap="butt" d="M96.136 96.869c0 10.698 9.918 20.292 24.953 24.139v-5.11l14.008 15.85-14.008 12.388v-5.109c-15.035-3.846-24.953-13.44-24.953-24.139v-18.02C96.136 82.583 113.58 71 135.097 71v18.02c-16.284 0-30.85 6.724-36.521 16.859"/><path fill="#d5a6bd" d="M5.236 56.449h85.008v74.866H5.236z" fill-rule="evenodd"/><path stroke="#741b47" stroke-width="3" stroke-linejoin="round" stroke-linecap="butt" d="M5.236 56.449h85.008v74.866H5.236z"/><path fill="none" d="M1.488 71h92.504v52H1.488z"/><path fill="#a64d79" d="M15.863 87.53q-.203.25-.469.25-.265 0-.437-.312-.281-.594-.281-1.344 0-2.328 1.765-2.328.97 0 .97.766 0 .328-.22.672l-1.328 2.297zm2.422 0q-.203.25-.469.25-.265 0-.453-.312-.25-.594-.25-1.344 0-2.328 1.75-2.328.969 0 .969.766 0 .328-.219.672l-1.328 2.297zm10.954-.593q0 1.015-.406 2.312-.391 1.297-1.172 2.641-.781 1.328-1.828 2.469-1.032 1.14-2.453 1.875-1.422.734-2.985.734-1.562 0-2.5-.906-.937-.906-.937-2.485 0-1.03.406-2.312.406-1.297 1.172-2.625.781-1.344 1.812-2.469 1.047-1.14 2.469-1.875 1.422-.734 2.984-.734 1.563 0 2.5.906.938.89.938 2.469zm-2.75-.156q0-1.547-1.031-1.547-1 0-2.36 1.406-1.36 1.39-2.328 3.422-.969 2.015-.969 3.578 0 1.547 1.032 1.547.984 0 2.343-1.39 1.375-1.391 2.344-3.407.969-2.031.969-3.61zm8.603 8.968.031.516q0 .656-1.187.656-1.828 0-1.828-.765 0-.782.765-2.61.782-1.844.782-2.219 0-.562-.75-.562l-.282.016q-.578 0-.578-.516 0-.453.328-.906.344-.453.907-.453 1.453 0 2.578-.844 1.14-.86 1.14-1.703 0-.547-.343-.766-.328-.219-.985-.219-.656 0-.953.36-1.015 1.25-3.265 5.312-2.235 4.047-2.5 4.938-.22.61-.985.86-.75.25-1.578.25-.828 0-.828-.61v-.032q0-.28 1.219-2.359 1.218-2.078 2.656-4.547 1.453-2.484 1.86-3.39.406-.907.406-1.485V84.5q0-.828 2.984-.828 2.937 0 3.922.64.453.282.765.829.329.547.329 1.39 0 .829-.657 1.657-.656.812-1.375 1.203-.718.39-1.406.547-.672.156-.89.203-.22.047-.172.047-.079 0 .156.14.234.125.547.47.328.343.328.75 0 .405-.578 1.89-.563 1.484-.563 2.312zm2.342-3.468q-.422 0-.516-.485 0-.484.485-.937.5-.469.812-.594.313-.125 1.656-.172l.141-.14q5.36-6.22 7.563-6.22.171-.015.406-.015 1.562 0 1.562.938 0 .203-.28.718l-.767 1.547q-.546 1.11-1.078 2.25-2.78 6.14-3.218 8 0 .453-.594.453t-1.219-.484q-.625-.484-.625-.953 0-.625.844-2.11.86-1.5.86-1.859 0-.234-2-.234-.345 0-.891.031l-.563.719q-1.172 1.61-2.266 3.984-.312.625-1.578.625-1.25 0-1.25-.625 0-.312 1.125-1.844 1.125-1.53 2.657-2.984.015.266-.391.297-.39.031-.61.062-.218.032-.265.032zm6.937-2.875q.61-.735.922-1.5.313-.766.344-.891.047-.125.047-.047-.39 0-1.531 1.047-1.125 1.047-2.032 2.094l1.125.031q.532 0 1.125-.734zm5.7 6.468q0-.78.563-3.875.562-3.109.562-3.234t.063-.125q.078 0-.172.297-.234.281-.422.594l-.219.375q-1.39 2.25-3.125 5.984-.39.828-.796 1.11-.391.28-1.204.28-.812 0-.812-.624v-.047q0-.328.922-1.828 3.375-5.407 4.922-8.547.375-.735.375-1.282v-.28q0-.25.156-.47.172-.218.75-.39.594-.172 1.531-.172 1.688 0 1.688.86 0 .202-.72 3.406-.702 3.203-.812 3.78-.109.579-.109.36.047 0 .203-.156.172-.156.266-.328l.125-.235q1.11-1.796 1.984-3.578.875-1.797 1.313-2.687.437-.89.843-1.172.547-.328 1.47-.328.921 0 .921.578v.031q0 .235-.953 1.61t-2.469 3.78q-1.5 2.407-2.61 4.595-.452 1.046-.452 1.64 0 .313-.157.531-.156.22-.703.329-.547.109-1.062.109h-.547q-.266 0-.578-.11-.735-.218-.735-.78zm11.854.875q-.406 0-.672-.312-.25-.328-.328-.656l-.047-.22q.11-.03.062.032-.046.063-.109.11-1.719 1.359-3.25 1.359-2.156 0-2.156-2.781 0-.907.453-2.22.453-1.312 1.297-2.718.86-1.406 1.937-2.64 1.078-1.235 2.516-2.047 1.453-.829 2.922-.829.844 0 1.36.297h-.016q.515-.343 1.421-.343.922 0 .922.687 0 .516-.937 1.844-1.453 2.078-2.516 2.078-.281 0-.515-.078-.22-.094-.22-.36 0-.28.141-.593.313-.657.313-1.032t-.11-.5q-.093-.14-.468-.14-.89 0-2.25 1.5-1.36 1.484-2.344 3.484-.984 1.985-.984 3.235 0 .765.562.765.61 0 1.469-.687.86-.688 1.406-1.469.547-.797.547-1 0-.203-.219-.281-.218-.094-1.187-.094-.563 0-.563-.516 0-.437.438-.843.437-.407.875-.47 1.265-.077 2.828-.077 1.562 0 1.562.593 0 .313-.265.782-.25.468-.406.75-.141.265-.422.75-.282.484-.469.765-.172.266-.531.828-.344.563-.563.907-.203.343-.5.922-.297.562-.5.89-.187.328-.484.328zm9.938-5.828-1.47-.047q-.92 0-1.405.578-.407.485-1.063 1.61-.64 1.125-.64 1.734 0 .281.906.281.719 0 1.547-.28 1.656-.548 2.64-2.11.25-.313.797-.313.563 0 .563.563 0 .562-.594 1.687-.578 1.11-1.016 1.688-.343.406-1.078.437-.719.047-2.062.047h-1.703l-1-.015-.47-.032h-.03q-.032 0-.094.063-.672.594-1.875.594-.86 0-.86-.594v-.047q0-.281 1.22-2.39l2.702-4.657q1.47-2.531 1.86-3.437.406-.907.406-1.5v-.204q0-.64 4.047-.64 1.219 0 1.953.031.266-.297 1.5-.297.812 0 .812.578 0 .516-.843 1.797-.828 1.266-1.47 1.735-.28.234-.827.234-.531 0-.531-.484 0-.157.109-.329.219-.421.219-1.03 0-.595-.953-.595-.657 0-1.047.36-.39.36-.813 1.062-.422.703-.625 1.203-.203.485-.203.563 0 .125.25.187.25.063 1.406.063l1.282-.063q.546 0 .546.375 0 .36-.234.75-.234.375-.5.516-.453.328-1.36.328zm10.344-6.25q.485-.844 1.516-.844 1.031 0 1.031.797t-1.39 1.985q-1.391 1.172-2.032 1.172-.547 0-.547-.5 0-.125.625-1.204.625-1.078.797-1.406zm-2.5 0q.485-.844 1.516-.844 1.031 0 1.031.797t-1.39 1.985q-1.391 1.172-2.032 1.172-.562 0-.562-.5 0-.141 1.437-2.61z"/><defs><linearGradient id="c" gradientUnits="userSpaceOnUse" gradientTransform="scale(7.21111)" spreadMethod="pad" x1="4.72" y1="18.626" x2="4.72" y2="25.837"><stop offset="0" stop-color="#c27ba0"/><stop offset="1" stop-color="#741b47"/></linearGradient></defs><path fill="url(#c)" d="M34.04 170.677h7.818v-36.362h15.638v36.362h7.819l-15.638 15.638z" fill-rule="evenodd"/><path stroke="#741b47" stroke-linejoin="round" stroke-linecap="butt" d="M34.04 170.677h7.818v-36.362h15.638v36.362h7.819l-15.638 15.638z"/><path fill="#c27ba0" d="M9.2 192.27h220.787v43.213H9.199z" fill-rule="evenodd"/><path stroke="#741b47" stroke-width="4" stroke-linejoin="round" stroke-linecap="butt" d="M9.2 192.27h220.787v43.213H9.199z"/><path fill="#741b47" d="M32.137 210.734q0 1.047-.422 2.39-.422 1.345-1.25 2.75-.812 1.391-1.89 2.579-1.063 1.187-2.532 1.953-1.469.75-3.031.75-1.547 0-2.453-.86-.89-.874-.89-2.406 0-1.046.421-2.39.422-1.344 1.234-2.735.829-1.406 1.891-2.578 1.078-1.187 2.547-1.937t3.016-.75q1.562 0 2.453.86.906.859.906 2.374zm-2.203-.156q0-2.063-1.485-2.063-1.25 0-2.796 1.594-1.547 1.578-2.625 3.828-1.063 2.25-1.063 4.032 0 2.046 1.5 2.046 1.234 0 2.781-1.578 1.547-1.593 2.61-3.843 1.078-2.25 1.078-4.016zm8.497 9.656.03.563q0 .297-.89.297-1.578 0-1.578-.594t.828-2.563q.844-1.984.844-2.468 0-1-1.219-1l-.297.015q-.218 0-.218-.156 0-.36.265-.719.266-.375.672-.375 1.703 0 3.047-1 1.344-1.015 1.344-2.125 0-.812-.5-1.125-.485-.312-1.344-.312-.86 0-1.313.515-1.093 1.39-3.53 5.782-2.438 4.39-2.735 5.406-.172.453-.875.672-.688.234-1.36.234-.656 0-.656-.266v-.03q0-.204 1.281-2.391 1.297-2.188 2.844-4.86 1.563-2.672 2.016-3.703.469-1.031.469-1.734v-.188q0-.5 2.828-.5 3.047 0 4.015.61.407.265.688.765.297.5.297 1.297 0 .781-.641 1.578-.625.797-1.344 1.188-.718.375-1.437.547-.703.171-1.063.28-.343.11-.343.36 0 .14.265.36.266.218.547.515.281.297.281.64 0 .329-.61 1.923-.608 1.593-.608 2.562zm2.906-4.14q-.14 0-.172-.172 0-.313.438-.72.453-.405.718-.515.282-.125 1.813-.156l.265-.297q5.672-6.547 7.86-6.547.187-.031.437-.031 1.282 0 1.282.625 0 .11-.235.594l-.844 1.672q-.593 1.203-1.156 2.437-3.015 6.656-3.5 8.735 0 .14-.39.14-.375 0-.922-.422t-.547-.734q0-.578.906-2.172.922-1.61.922-2.094 0-.656-2.531-.656-.375 0-1.157.031l-.703.938q-1.312 1.75-2.5 4.344-.218.468-1.265.468-1.032 0-1.032-.297 0-.203 1.157-1.796 1.172-1.594 2.78-3.547-.28.047-.718.093-.422.032-.656.063-.234.016-.25.016zm7.734-2.407q.735-.875 1.094-1.765.36-.907.36-1.22 0-.312-.313-.312-.563 0-1.844 1.188-1.281 1.172-2.797 2.953l2.032.031q.75 0 1.468-.875zm6.25 6.688q0-.828.61-4.156.609-3.344.609-3.688 0-.36-.203-.36-.188 0-.531.407-.329.39-.563.75l-.234.39q-1.5 2.454-3.375 6.485-.375.812-.72 1.047-.327.234-.952.234t-.625-.281v-.047q0-.25.953-1.781 3.64-5.828 5.312-9.235.438-.859.438-1.546v-.297q0-.125.094-.266.109-.14.64-.297.547-.172 1.5-.172 1.438 0 1.438.547 0 .172-.766 3.625-.765 3.453-.765 4.172 0 .719.14.719.235 0 .469-.25.25-.25.375-.469l.14-.234q1.188-1.97 2.141-3.891.953-1.937 1.39-2.844.454-.922.798-1.156.484-.281 1.218-.281.75 0 .75.219v.03q0 .141-.984 1.579-.984 1.437-2.625 4.047-1.625 2.594-2.844 4.953-.515 1.219-.515 1.953 0 .219-.094.328-.078.11-.578.203-.485.11-1.016.11h-.594q-.203 0-.5-.094-.53-.14-.53-.453zm12.393.531q-.266 0-.47-.234-.187-.25-.234-.485l-.062-.25q-.063-.203-.281-.203-.203 0-.375.125-1.75 1.39-3.266 1.39-1.937 0-1.937-2.593 0-.922.468-2.281.485-1.36 1.375-2.844.907-1.484 2.032-2.781 1.125-1.297 2.609-2.125 1.484-.844 2.953-.844.813 0 1.313.266.078.047.171.047.094 0 .188-.063.453-.312 1.187-.312.735 0 .735.359 0 .437-.938 1.766-1.453 2.078-2.39 2.078-.25 0-.328-.032-.079-.046-.079-.156t.11-.375q.375-.781.375-1.297 0-.515-.203-.781-.188-.281-.813-.281-1.11 0-2.656 1.703-1.531 1.687-2.64 3.89-1.094 2.204-1.094 3.641 0 1.219 1 1.219.78 0 1.78-.797 1-.812 1.641-1.734.641-.922.641-1.313 0-.406-.39-.562-.391-.157-1.5-.157-.235 0-.235-.171 0-.329.36-.657.374-.343.703-.375 1.343-.093 2.828-.093 1.484 0 1.484.265 0 .219-.25.688-.25.468-.406.765-.156.282-.469.797-.312.516-.5.813-.187.297-.578.906-.375.594-.594.969-.219.375-.547 1-.328.609-.484.859-.14.25-.234.25zm10.683-6.266-1.578-.062q-1.172 0-1.813.766-.453.562-1.187 1.843-.735 1.266-.735 2 0 .688 1.36.688.843 0 1.796-.313 1.922-.625 3.047-2.422.125-.171.438-.171.312 0 .312.375 0 .359-.593 1.515-.594 1.156-1.063 1.735-.234.296-.937.328-.704.047-2.141.047h-1.828l-1.063-.016-.5-.047h-.14q-.11 0-.266.172-.625.547-1.766.547-.53 0-.53-.25v-.063q0-.203 1.296-2.422 1.297-2.234 2.875-4.968 1.594-2.75 2.031-3.766.453-1.016.453-1.75v-.203q0-.313 3.97-.313 1.312 0 2.28.032.282-.313 1.438-.313.484 0 .484.235 0 .437-.86 1.734-.843 1.297-1.468 1.766-.203.156-.531.156-.313 0-.313-.125 0-.063.063-.156.297-.579.297-1.297 0-1.032-1.422-1.032-.86 0-1.36.454-.484.453-.968 1.25-.485.796-.719 1.375-.234.578-.234.734 0 .437.437.547.438.11 1.75.11l1.375-.063q.188 0 .188.14t-.203.469q-.188.328-.391.453-.422.281-1.281.281zm14.97-3.906q0 1.047-.423 2.39-.421 1.345-1.25 2.75-.812 1.391-1.89 2.579-1.063 1.187-2.531 1.953-1.47.75-3.032.75-1.547 0-2.453-.86-.89-.874-.89-2.406 0-1.046.421-2.39.422-1.344 1.235-2.735.828-1.406 1.89-2.578 1.079-1.187 2.547-1.937 1.469-.75 3.016-.75 1.562 0 2.453.86.906.859.906 2.374zm-2.204-.156q0-2.063-1.484-2.063-1.25 0-2.797 1.594-1.547 1.578-2.625 3.828-1.063 2.25-1.063 4.032 0 2.046 1.5 2.046 1.235 0 2.782-1.578 1.547-1.593 2.609-3.843 1.078-2.25 1.078-4.016zm8.497 9.656.031.563q0 .297-.89.297-1.579 0-1.579-.594t.828-2.563q.844-1.984.844-2.468 0-1-1.219-1l-.296.015q-.22 0-.22-.156 0-.36.266-.719.266-.375.672-.375 1.703 0 3.047-1 1.344-1.015 1.344-2.125 0-.812-.5-1.125-.484-.312-1.344-.312-.86 0-1.312.515-1.094 1.39-3.532 5.782-2.437 4.39-2.734 5.406-.172.453-.875.672-.687.234-1.36.234-.656 0-.656-.266v-.03q0-.204 1.282-2.391 1.297-2.188 2.843-4.86 1.563-2.672 2.016-3.703.469-1.031.469-1.734v-.188q0-.5 2.828-.5 3.047 0 4.016.61.406.265.687.765.297.5.297 1.297 0 .781-.64 1.578-.626.797-1.344 1.188-.72.375-1.438.547-.703.171-1.062.28-.344.11-.344.36 0 .14.265.36.266.218.547.515.282.297.282.64 0 .329-.61 1.923-.61 1.593-.61 2.562zm2.906-4.14q-.14 0-.172-.172 0-.313.438-.72.453-.405.719-.515.28-.125 1.812-.156l.266-.297q5.672-6.547 7.86-6.547.187-.031.437-.031 1.28 0 1.28.625 0 .11-.234.594l-.843 1.672q-.594 1.203-1.157 2.437-3.015 6.656-3.5 8.735 0 .14-.39.14-.375 0-.922-.422t-.547-.734q0-.578.906-2.172.922-1.61.922-2.094 0-.656-2.531-.656-.375 0-1.156.031l-.703.938q-1.313 1.75-2.5 4.344-.22.468-1.266.468-1.031 0-1.031-.297 0-.203 1.156-1.796 1.172-1.594 2.781-3.547-.281.047-.719.093-.421.032-.656.063-.234.016-.25.016zm7.735-2.407q.734-.875 1.093-1.765.36-.907.36-1.22 0-.312-.313-.312-.562 0-1.844 1.188-1.28 1.172-2.796 2.953l2.03.031q.75 0 1.47-.875zm6.25 6.688q0-.828.609-4.156.61-3.344.61-3.688 0-.36-.204-.36-.187 0-.531.407-.328.39-.563.75l-.234.39q-1.5 2.454-3.375 6.485-.375.812-.719 1.047-.328.234-.953.234t-.625-.281v-.047q0-.25.953-1.781 3.64-5.828 5.313-9.235.437-.859.437-1.546v-.297q0-.125.094-.266.11-.14.64-.297.547-.172 1.5-.172 1.438 0 1.438.547 0 .172-.766 3.625-.765 3.453-.765 4.172 0 .719.14.719.235 0 .47-.25.25-.25.374-.469l.14-.234q1.188-1.97 2.141-3.891.954-1.937 1.391-2.844.453-.922.797-1.156.484-.281 1.219-.281.75 0 .75.219v.03q0 .141-.985 1.579-.984 1.437-2.625 4.047-1.625 2.594-2.843 4.953-.516 1.219-.516 1.953 0 .219-.094.328-.078.11-.578.203-.484.11-1.016.11h-.593q-.203 0-.5-.094-.532-.14-.532-.453zm12.392.531q-.266 0-.469-.234-.187-.25-.234-.485l-.063-.25q-.062-.203-.281-.203-.203 0-.375.125-1.75 1.39-3.266 1.39-1.937 0-1.937-2.593 0-.922.469-2.281.484-1.36 1.375-2.844.906-1.484 2.03-2.781 1.126-1.297 2.61-2.125 1.485-.844 2.953-.844.813 0 1.313.266.078.047.172.047.094 0 .187-.063.453-.312 1.188-.312.734 0 .734.359 0 .437-.937 1.766-1.453 2.078-2.391 2.078-.25 0-.328-.032-.078-.046-.078-.156t.11-.375q.374-.781.374-1.297 0-.515-.203-.781-.187-.281-.812-.281-1.11 0-2.657 1.703-1.531 1.687-2.64 3.89-1.094 2.204-1.094 3.641 0 1.219 1 1.219.781 0 1.781-.797 1-.812 1.64-1.734.641-.922.641-1.313 0-.406-.39-.562-.39-.157-1.5-.157-.235 0-.235-.171 0-.329.36-.657.375-.343.703-.375 1.344-.093 2.828-.093 1.484 0 1.484.265 0 .219-.25.688-.25.468-.406.765-.156.282-.469.797-.312.516-.5.813-.187.297-.578.906-.375.594-.593.969-.22.375-.547 1-.328.609-.485.859-.14.25-.234.25zm10.683-6.266-1.578-.062q-1.172 0-1.813.766-.453.562-1.187 1.843-.735 1.266-.735 2 0 .688 1.36.688.844 0 1.797-.313 1.922-.625 3.047-2.422.125-.171.437-.171.313 0 .313.375 0 .359-.594 1.515t-1.063 1.735q-.234.296-.937.328-.703.047-2.14.047h-1.829l-1.062-.016-.5-.047H133q-.11 0-.266.172-.625.547-1.765.547-.532 0-.532-.25v-.063q0-.203 1.297-2.422 1.297-2.234 2.875-4.968 1.594-2.75 2.032-3.766.453-1.016.453-1.75v-.203q0-.313 3.968-.313 1.313 0 2.282.032.281-.313 1.437-.313.485 0 .485.235 0 .437-.86 1.734-.844 1.297-1.469 1.766-.203.156-.53.156-.313 0-.313-.125 0-.063.062-.156.297-.579.297-1.297 0-1.032-1.422-1.032-.86 0-1.36.454-.484.453-.968 1.25-.484.796-.719 1.375-.234.578-.234.734 0 .437.437.547.438.11 1.75.11l1.375-.063q.188 0 .188.14t-.203.469q-.188.328-.39.453-.423.281-1.282.281zm14.97-3.906q0 1.047-.422 2.39-.422 1.345-1.25 2.75-.813 1.391-1.89 2.579-1.063 1.187-2.532 1.953-1.469.75-3.031.75-1.547 0-2.454-.86-.89-.874-.89-2.406 0-1.046.422-2.39t1.234-2.735q.828-1.406 1.89-2.578 1.079-1.187 2.548-1.937 1.468-.75 3.015-.75 1.563 0 2.453.86.907.859.907 2.374zm-2.204-.156q0-2.063-1.484-2.063-1.25 0-2.797 1.594-1.547 1.578-2.625 3.828-1.062 2.25-1.062 4.032 0 2.046 1.5 2.046 1.234 0 2.78-1.578 1.548-1.593 2.61-3.843 1.078-2.25 1.078-4.016zm8.497 9.656.031.563q0 .297-.89.297-1.578 0-1.578-.594t.828-2.563q.844-1.984.844-2.468 0-1-1.22-1l-.296.015q-.219 0-.219-.156 0-.36.266-.719.265-.375.672-.375 1.703 0 3.047-1 1.343-1.015 1.343-2.125 0-.812-.5-1.125-.484-.312-1.343-.312-.86 0-1.313.515-1.094 1.39-3.531 5.782-2.438 4.39-2.735 5.406-.171.453-.875.672-.687.234-1.359.234-.656 0-.656-.266v-.03q0-.204 1.281-2.391 1.297-2.188 2.844-4.86 1.562-2.672 2.015-3.703.47-1.031.47-1.734v-.188q0-.5 2.827-.5 3.047 0 4.016.61.406.265.687.765.297.5.297 1.297 0 .781-.64 1.578-.625.797-1.344 1.188-.719.375-1.438.547-.703.171-1.062.28-.344.11-.344.36 0 .14.266.36.265.218.547.515.28.297.28.64 0 .329-.608 1.923-.61 1.593-.61 2.562zm2.907-4.14q-.141 0-.172-.172 0-.313.437-.72.453-.405.719-.515.281-.125 1.812-.156l.266-.297q5.672-6.547 7.86-6.547.187-.031.437-.031 1.281 0 1.281.625 0 .11-.234.594l-.844 1.672q-.594 1.203-1.156 2.437-3.016 6.656-3.5 8.735 0 .14-.39.14-.376 0-.923-.422t-.547-.734q0-.578.907-2.172.922-1.61.922-2.094 0-.656-2.532-.656-.375 0-1.156.031l-.703.938q-1.313 1.75-2.5 4.344-.219.468-1.266.468-1.031 0-1.031-.297 0-.203 1.156-1.796 1.172-1.594 2.782-3.547-.282.047-.72.093-.421.032-.655.063l-.25.016zm7.734-2.407q.734-.875 1.094-1.765.359-.907.359-1.22 0-.312-.312-.312-.563 0-1.844 1.188-1.281 1.172-2.797 2.953l2.031.031q.75 0 1.469-.875zm6.25 6.688q0-.828.61-4.156.608-3.344.608-3.688 0-.36-.203-.36-.187 0-.53.407-.329.39-.563.75l-.235.39q-1.5 2.454-3.375 6.485-.375.812-.719 1.047-.328.234-.953.234t-.625-.281v-.047q0-.25.953-1.781 3.641-5.828 5.313-9.235.437-.859.437-1.546v-.297q0-.125.094-.266.11-.14.64-.297.548-.172 1.5-.172 1.438 0 1.438.547 0 .172-.765 3.625-.766 3.453-.766 4.172 0 .719.14.719.235 0 .47-.25.25-.25.374-.469l.141-.234q1.188-1.97 2.14-3.891.954-1.937 1.391-2.844.453-.922.797-1.156.485-.281 1.219-.281.75 0 .75.219v.03q0 .141-.984 1.579-.985 1.437-2.625 4.047-1.625 2.594-2.844 4.953-.516 1.219-.516 1.953 0 .219-.094.328-.078.11-.578.203-.484.11-1.015.11h-.594q-.203 0-.5-.094-.531-.14-.531-.453zm12.392.531q-.265 0-.469-.234-.187-.25-.234-.485l-.062-.25q-.063-.203-.282-.203-.203 0-.375.125-1.75 1.39-3.265 1.39-1.938 0-1.938-2.593 0-.922.469-2.281.484-1.36 1.375-2.844.906-1.484 2.031-2.781 1.125-1.297 2.61-2.125 1.484-.844 2.953-.844.812 0 1.312.266.078.047.172.047.094 0 .188-.063.453-.312 1.187-.312t.734.359q0 .437-.937 1.766-1.453 2.078-2.39 2.078-.25 0-.329-.032-.078-.046-.078-.156t.11-.375q.374-.781.374-1.297 0-.515-.203-.781-.187-.281-.812-.281-1.11 0-2.656 1.703-1.532 1.687-2.641 3.89-1.094 2.204-1.094 3.641 0 1.219 1 1.219.781 0 1.781-.797 1-.812 1.641-1.734.64-.922.64-1.313 0-.406-.39-.562-.39-.157-1.5-.157-.234 0-.234-.171 0-.329.36-.657.374-.343.702-.375 1.344-.093 2.828-.093 1.485 0 1.485.265 0 .219-.25.688l-.407.765q-.156.282-.468.797-.313.516-.5.813-.188.297-.578.906-.375.594-.594.969-.219.375-.547 1-.328.609-.484.859-.141.25-.235.25zm10.683-6.266-1.578-.062q-1.172 0-1.812.766-.453.562-1.188 1.843-.734 1.266-.734 2 0 .688 1.36.688.843 0 1.796-.313 1.922-.625 3.047-2.422.125-.171.437-.171.313 0 .313.375 0 .359-.594 1.515t-1.062 1.735q-.235.296-.938.328-.703.047-2.14.047h-1.829l-1.062-.016-.5-.047h-.14q-.11 0-.266.172-.625.547-1.766.547-.531 0-.531-.25v-.063q0-.203 1.297-2.422 1.297-2.234 2.875-4.968 1.593-2.75 2.03-3.766.454-1.016.454-1.75v-.203q0-.313 3.969-.313 1.312 0 2.281.032.281-.313 1.438-.313.484 0 .484.235 0 .437-.86 1.734-.843 1.297-1.468 1.766-.203.156-.531.156-.313 0-.313-.125 0-.063.063-.156.296-.579.296-1.297 0-1.032-1.421-1.032-.86 0-1.36.454-.484.453-.969 1.25-.484.796-.718 1.375-.235.578-.235.734 0 .437.438.547.437.11 1.75.11l1.375-.063q.187 0 .187.14t-.203.469q-.187.328-.39.453-.422.281-1.282.281zm1.858 5.547q0-.437.484-.86.485-.421 1-.421 1.032 0 1.032.64 0 .5-.485.907-.484.406-1.031.406-1 0-1-.672zm3.937 0q0-.437.485-.86.484-.421 1-.421 1.031 0 1.031.64 0 .5-.484.907-.485.406-1.016.406-1.016 0-1.016-.672zm3.938 0q0-.437.484-.86.485-.421 1-.421 1.032 0 1.032.64 0 .5-.485.907-.484.406-1.031.406-1 0-1-.672z"/></g></svg>