<svg viewBox="0 0 1287.53 667.123" fill="none" stroke-linecap="square" stroke-miterlimit="10" xmlns="http://www.w3.org/2000/svg"><clipPath id="a"><path d="M0 0h1287.53v667.123H0V0z"/></clipPath><g clip-path="url(#a)"><path fill="none" d="M0 0h1287.53v667.123H0z"/><path fill="none" d="M110.64 244.63h970.804v407.874H110.64z"/><path fill="#000" d="M263.26 267.205v5.625h-1.718v-13.813h3.64q2.047 0 3.376 1.094 1.343 1.078 1.343 3.016 0 1.406-.75 2.375-.734.969-1.984 1.406 1.031 1.203 3.86 5.922h-2.079q-2.781-4.797-3.531-5.625h-2.156zm0-1.469h1.923q1.375 0 2.125-.672.75-.687.75-1.922 0-1.25-.75-1.921-.75-.688-2.125-.688h-1.922v5.203zm14.2 1.64v-.89q0-1.61-1.672-1.61-1.328 0-2.766.86l-.578-1.203q1.672-1.062 3.625-1.062 1.36 0 2.219.687.875.688.875 2.125v6.547h-1.078l-.5-1.203q-.641.656-1.532 1.047-.875.39-1.593.39-1.235 0-1.985-.672-.734-.687-.734-1.78 0-3.235 5.719-3.235zm-3.313 1.938q-.39.328-.516.61-.125.265-.125.703 0 .422.36.734.375.313.969.313 1.265 0 2.625-1.125v-2q-2.516.047-3.313.765zm9.594-7.75q-.313.328-.782.328-.453 0-.78-.328-.313-.328-.313-.78 0-.47.328-.798.328-.344.765-.344.438 0 .766.344.344.328.344.797 0 .453-.328.781zm-1.625 2.14h1.703v9.126h-1.703v-9.125zm4.665-5.233h1.641v14.359h-1.64v-14.36zm9.901 14.359v-13.813h7.781l-.375 1.516h-5.687v4.563h5.343v1.453h-5.343v6.28h-1.719zm12.874-1.156q1.453 0 2.89-.86l.578 1.203q-1.687 1.047-3.593 1.047-1.907 0-3.032-1.203-1.125-1.219-1.125-3.484 0-2.281 1.157-3.594 1.172-1.312 3.093-1.312 1.735 0 2.735 1.078.422.437.703 1.28.297.845.297 1.985l-.61.703h-5.671q.062 3.157 2.578 3.157zm2.03-4.422q0-1.125-.593-1.797-.578-.688-1.531-.688-.938 0-1.61.672-.656.672-.796 1.813h4.53zm11.617-1.328v6.906H321.5v-6.813q0-.53-.406-.812-.406-.281-1.094-.281-1.422 0-2.937 1.03v6.876h-1.704v-9.125h1.079l.5 1.047q1.546-1.281 3.343-1.281 1.344 0 2.125.687.797.672.797 1.766zm6.375-2.453q1.343 0 2.718.593l-.5 1.25q-1.015-.437-2.172-.437-1.14 0-1.812.86-.672.859-.672 2.515 0 1.656.703 2.547.703.875 1.844.875 1.14 0 2.36-.563l.374 1.313q-1.406.64-2.843.64-1.86 0-3.032-1.343-1.172-1.344-1.172-3.47 0-2.14 1.172-3.452 1.172-1.328 3.032-1.328zm8.318 8.203q1.453 0 2.89-.86l.578 1.203q-1.687 1.047-3.593 1.047-1.907 0-3.032-1.203-1.125-1.219-1.125-3.484 0-2.281 1.157-3.594 1.172-1.312 3.093-1.312 1.735 0 2.735 1.078.422.437.703 1.28.297.845.297 1.985l-.61.703h-5.671q.062 3.157 2.578 3.157zm2.03-4.422q0-1.125-.593-1.797-.578-.688-1.531-.688-.938 0-1.61.672-.656.672-.796 1.813h4.53zM604.276 260.736q-1.39-.484-2.593-.484-1.204 0-1.97.625-.75.61-.75 1.5 0 1.25 1.345 1.969l2.812 1.562q2.36 1.328 2.36 3.406 0 1.72-1.22 2.735-1.218 1.015-3.437 1.015t-3.984-.797l.5-1.39q1.64.719 3.234.719t2.344-.625q.766-.625.766-1.5 0-1.266-1.344-1.985l-2.813-1.562q-2.359-1.313-2.359-3.39 0-1.72 1.219-2.735 1.218-1.032 3.281-1.032 1.39 0 3.14.579l-.53 1.39zm7.022 2.735q1.343 0 2.718.593l-.5 1.25q-1.015-.437-2.172-.437-1.14 0-1.812.86-.672.859-.672 2.515 0 1.656.703 2.547.703.875 1.844.875 1.14 0 2.36-.563l.374 1.313q-1.406.64-2.843.64-1.86 0-3.032-1.343-1.172-1.344-1.172-3.47 0-2.14 1.172-3.452 1.172-1.328 3.032-1.328zm7.865 10.984q-.657 1.922-1.22 2.562-.546.657-1.624.657t-2.375-.61l.625-1.297q.86.47 1.469.47.546 0 .718-.188l.266-.266q.266-.25.453-.89.203-.641.328-1 .125-.344.172-.547l-3.328-9.641h1.719l2.36 7.312h.077l2.36-7.312h1.718l-3.718 10.75zm7.323-9.484v5.484q0 1.187 1.141 1.187.656 0 1.578-.375l.219 1.344q-.984.453-2.063.453-1.078 0-1.796-.64-.72-.657-.72-2v-5.453h-1.265v-1.266h1.266v-1.797l1.234-1.14h.406v2.937h2.579v1.266h-2.579zm9.733 2.406v-.89q0-1.61-1.671-1.61-1.329 0-2.766.86l-.578-1.204q1.672-1.062 3.625-1.062 1.36 0 2.219.687.875.688.875 2.125v6.547h-1.079l-.5-1.203q-.64.656-1.53 1.047-.876.39-1.595.39-1.234 0-1.984-.672-.734-.687-.734-1.78 0-3.235 5.718-3.235zm-3.312 1.937q-.39.328-.516.61-.125.265-.125.703 0 .422.36.734.375.313.968.313 1.266 0 2.625-1.125v-2q-2.515.047-3.312.765zm7.734-10.843h1.641v14.359h-1.64v-14.36zm8.095 13.203q1.453 0 2.89-.86l.578 1.203q-1.687 1.047-3.593 1.047-1.907 0-3.032-1.203-1.125-1.219-1.125-3.484 0-2.281 1.157-3.594 1.172-1.312 3.093-1.312 1.735 0 2.735 1.078.422.437.703 1.28.297.845.297 1.985l-.61.703h-5.671q.062 3.157 2.578 3.157zm2.031-4.422q0-1.125-.594-1.797-.578-.688-1.531-.688-.938 0-1.61.672-.656.672-.796 1.813h4.531zM887.26 267.205v5.625h-1.718v-13.813h3.64q2.048 0 3.376 1.094 1.343 1.078 1.343 3.016 0 1.406-.75 2.375-.734.969-1.984 1.406 1.031 1.203 3.86 5.922h-2.079q-2.78-4.797-3.53-5.625h-2.157zm0-1.469h1.923q1.375 0 2.125-.672.75-.687.75-1.922 0-1.25-.75-1.921-.75-.688-2.125-.688h-1.922v5.203zm12.55-.969q-.766 0-1.329.344-.546.344-.796.875-.485 1.031-.485 2.188 0 3.593 2.5 3.593.766 0 1.297-.328.547-.343.828-.89.485-1 .485-2.172 0-3.61-2.5-3.61zm0-1.296q2.218 0 3.234 1.39 1.016 1.375 1.016 3.594 0 1.594-.844 2.953-.453.734-1.375 1.203-.922.453-2.203.453-2.203 0-3.203-1.312-1-1.328-1-3.547 0-1.297.406-2.188.422-.906.875-1.39.469-.5 1.265-.828.797-.328 1.829-.328zm8.135.234v6.781q0 .563.406.875.406.313 1.078.313 1.406 0 2.906-1.125v-6.844h1.703v9.125h-1.078l-.5-1.203q-1.531 1.437-3.422 1.437-1.203 0-2-.64-.797-.64-.797-1.86v-6.86h1.704zm11.021 1.266v5.484q0 1.187 1.141 1.187.656 0 1.578-.375l.219 1.344q-.984.453-2.063.453-1.078 0-1.796-.64-.72-.657-.72-2v-5.453h-1.265v-1.266h1.266v-1.797l1.234-1.14h.406v2.937h2.579v1.266h-2.579zm8.39 6.703q1.453 0 2.89-.86l.579 1.203q-1.688 1.047-3.594 1.047t-3.031-1.203q-1.125-1.219-1.125-3.484 0-2.281 1.156-3.594 1.172-1.312 3.094-1.312 1.734 0 2.734 1.078.422.437.703 1.28.297.845.297 1.985l-.61.703h-5.671q.062 3.157 2.578 3.157zm2.031-4.422q0-1.125-.594-1.797-.578-.688-1.531-.688-.937 0-1.61.672-.656.672-.796 1.813h4.531zM206.686 602.408q0 2.297 1.204 3.75 1.218 1.438 3.28 1.438 2.079 0 4.048-1.032l.218 1.532q-2.234.968-4.39.968-2.156 0-3.594-.968-1.437-.97-2.094-2.438-.656-1.484-.656-3.25 0-3.36 1.953-5.5 1.969-2.14 5.235-2.14 1.5 0 3.234.546l-.484 1.391q-1.375-.422-2.75-.422-2.454 0-3.829 1.64-1.375 1.641-1.375 4.485zm14.444-1.64q-.766 0-1.329.343-.546.344-.796.875-.485 1.031-.485 2.188 0 3.593 2.5 3.593.766 0 1.297-.328.547-.343.828-.89.485-1 .485-2.172 0-3.61-2.5-3.61zm0-1.297q2.218 0 3.234 1.39 1.016 1.375 1.016 3.594 0 1.594-.844 2.953-.453.734-1.375 1.203-.922.453-2.203.453-2.203 0-3.203-1.312-1-1.328-1-3.547 0-1.297.406-2.188.422-.906.875-1.39.469-.5 1.265-.828.797-.328 1.829-.328zm6.431-5h1.641v14.359h-1.64v-14.36zm6.064 5.234v6.781q0 .563.406.875.406.313 1.078.313 1.406 0 2.906-1.125v-6.844h1.703v9.125h-1.078l-.5-1.203q-1.531 1.437-3.422 1.437-1.203 0-2-.64-.797-.64-.797-1.86v-6.859h1.704zm10.553 1.047q1.484-1.281 3.28-1.281 1.798 0 2.47 1.406 1.578-1.406 3.312-1.406 1.281 0 2.031.687.75.672.75 1.766v6.906h-1.703v-6.813q0-.53-.375-.812-.375-.281-1.015-.281-1.313 0-2.782 1.062v6.844h-1.703v-6.813q0-.53-.39-.812-.375-.281-1.016-.281-1.328 0-2.734 1.031v6.875H242.6v-9.125h1.078l.5 1.047zm22.485 1.172v6.906h-1.703v-6.813q0-.53-.406-.812-.406-.281-1.094-.281-1.422 0-2.937 1.031v6.875h-1.704v-9.125h1.079l.5 1.047q1.546-1.281 3.343-1.281 1.344 0 2.125.687.797.672.797 1.766zm7.796 1.453v-.89q0-1.61-1.671-1.61-1.329 0-2.766.86l-.578-1.204q1.672-1.062 3.625-1.062 1.36 0 2.219.687.875.688.875 2.125v6.547h-1.079l-.5-1.203q-.64.656-1.53 1.047-.876.39-1.595.39-1.234 0-1.984-.672-.734-.687-.734-1.78 0-3.235 5.718-3.235zm-3.312 1.937q-.39.328-.516.61-.125.265-.125.703 0 .422.36.734.375.313.968.313 1.266 0 2.625-1.125v-2q-2.515.047-3.312.765zm7.812-5.609h1.079l.5 1.61h.078q1.11-1.423 3.031-1.72l.172 1.579q-.938.062-1.828.484-.875.406-1.328 1.11v6.062h-1.704v-9.125zM562.802 608.83v-13.813h5.203q1.5 0 2.688.547 1.203.532 1.953 1.422 1.515 1.89 1.515 4.438 0 3.25-1.968 5.328-1.953 2.078-5.203 2.078h-4.188zm4.984-12.297h-3.265v10.781h2.469q2.468 0 3.828-1.562 1.359-1.563 1.359-4.328 0-2.047-1.156-3.469-1.14-1.422-3.235-1.422zm12.563 4.234q-.765 0-1.328.344-.547.344-.797.875-.484 1.031-.484 2.188 0 3.593 2.5 3.593.766 0 1.297-.328.547-.343.828-.89.484-1 .484-2.172 0-3.61-2.5-3.61zm0-1.296q2.22 0 3.235 1.39 1.015 1.375 1.015 3.594 0 1.594-.843 2.953-.453.734-1.375 1.203-.922.453-2.203.453-2.204 0-3.204-1.312-1-1.328-1-3.547 0-1.297.407-2.188.422-.906.875-1.39.468-.5 1.265-.828.797-.328 1.828-.328zm8.135.234v6.781q0 .563.407.875.406.313 1.078.313 1.406 0 2.906-1.125v-6.844h1.703v9.125H593.5l-.5-1.203q-1.531 1.437-3.422 1.437-1.203 0-2-.64-.797-.64-.797-1.86v-6.859h1.703zm12.397 8q1.5 0 2.313-1.016.828-1.015.828-2.453 0-1.453-.719-2.312-.719-.875-1.86-.875-1.124 0-2.405.687v5.61q.937.359 1.843.359zm-1.843-13.234v5.984q1.53-.86 3.078-.86 1.547 0 2.578 1.25 1.047 1.25 1.047 3.266t-1.219 3.485q-1.203 1.468-3.438 1.468-1.718 0-3.687-.875v-13.718h1.64zm8.863 0h1.641v14.359h-1.64v-14.36zm8.095 13.203q1.453 0 2.89-.86l.578 1.203q-1.687 1.047-3.593 1.047-1.907 0-3.032-1.203-1.125-1.219-1.125-3.484 0-2.281 1.157-3.594 1.172-1.312 3.093-1.312 1.735 0 2.735 1.078.422.437.703 1.281.297.844.297 1.984l-.61.703h-5.671q.062 3.157 2.578 3.157zm2.031-4.422q0-1.125-.594-1.797-.578-.688-1.531-.688-.938 0-1.61.672-.656.672-.796 1.813h4.531zM901.683 608.83h-2.062l-4.125-11.438h-.094l-.375 11.438h-1.719l.532-13.797h2.578l4.297 11.938h.093l4.297-11.938h2.578l.532 13.797h-1.907l-.39-11.438h-.094l-4.14 11.438zm12.58 1.625q-.657 1.922-1.219 2.562-.547.657-1.625.657-1.078 0-2.375-.61l.625-1.297q.86.47 1.469.47.547 0 .718-.188l.266-.266q.266-.25.453-.89.203-.641.328-1 .125-.344.172-.547l-3.328-9.641h1.719l2.36 7.312h.077l2.36-7.312h1.718l-3.718 10.75zm9.964-9.14q-1.031-.438-1.922-.438-1.75 0-1.75 1.047 0 .922 2.328 1.781.86.328 1.578 1.016.735.671.735 1.625 0 1.39-.906 2.062-.891.656-2.5.656-1.594 0-3.11-.875l.5-1.234q1.266.719 2.86.719.687 0 1.093-.282.422-.296.422-.796t-.484-.86q-.469-.36-1.156-.64-.672-.282-1.36-.61-.672-.344-1.156-.937-.484-.594-.484-1.422 0-1.281.875-1.969.875-.687 2.203-.687 1.343 0 2.734.593l-.5 1.25zm9.493 6.156v1.359h-7.016l-.375-.563 5.25-7.203h-4.453l-.156-1.359h6.53l.36.64-5.125 7.126h4.985zm3.822 1.359h-1.64v-14.36h1.64v8.485l3.563-3.25h2.25l-4.016 3.469 4.437 5.656h-2.156l-3.515-4.594-.563.469v4.125zm10.968-8.063q-.766 0-1.329.344-.546.344-.796.875-.485 1.031-.485 2.188 0 3.593 2.5 3.593.766 0 1.297-.328.547-.343.828-.89.485-1 .485-2.172 0-3.61-2.5-3.61zm0-1.296q2.218 0 3.234 1.39 1.016 1.375 1.016 3.594 0 1.594-.844 2.953-.453.734-1.375 1.203-.922.453-2.203.453-2.203 0-3.203-1.312-1-1.328-1-3.547 0-1.297.406-2.188.422-.906.875-1.39.469-.5 1.265-.828.797-.328 1.829-.328zm9.525 9.359h-1.875l-2.484-9.125h1.719l1.671 7.312h.079l2.14-7.312h1.61l2.171 7.312h.079l1.656-7.312h1.719l-2.485 9.125h-1.875l-2.031-6.5h-.11l-1.984 6.5zm14.712-7.516q-1.031-.437-1.922-.437-1.75 0-1.75 1.047 0 .922 2.328 1.781.86.328 1.578 1.016.735.671.735 1.625 0 1.39-.906 2.062-.891.656-2.5.656-1.594 0-3.11-.875l.5-1.234q1.266.719 2.86.719.687 0 1.093-.282.422-.296.422-.796t-.484-.86q-.469-.36-1.156-.64-.672-.282-1.36-.61-.672-.344-1.156-.937-.484-.594-.484-1.422 0-1.281.875-1.969.875-.687 2.203-.687 1.343 0 2.734.593l-.5 1.25zm4.555 7.516h-1.64v-14.36h1.64v8.485l3.563-3.25h2.25l-4.016 3.469 4.437 5.656h-2.156l-3.515-4.594-.563.469v4.125zm9.399-11.266q-.313.328-.781.328-.454 0-.782-.328-.312-.328-.312-.78 0-.47.328-.798.328-.344.766-.344.437 0 .765.344.344.328.344.797 0 .453-.328.781zm-1.625 2.141h1.703v9.125h-1.703v-9.125z"/><path fill="none" d="M454.206 103.312h379.118v87.307H454.206z"/><path fill="#000" d="M464.8 123.095h2.625v.219q-.188.203-.235.421-.046.22-.046.766v7.11h7.812v-8.516h2.625v.219q-.203.203-.25.421-.047.22-.047.766v18.531h-2.36v-9.5h-7.78v9.5H464.8v-19.937zm22.015 20.297q-.765 0-1.312-.547-.531-.547-.531-1.281 0-.735.53-1.282.548-.547 1.313-.547.75 0 1.282.547.547.547.547 1.282 0 .734-.547 1.28-.532.548-1.282.548zm16 0q-.765 0-1.312-.547-.531-.547-.531-1.281 0-.735.531-1.282.547-.547 1.312-.547.75 0 1.282.547.547.547.547 1.282 0 .734-.547 1.28-.532.548-1.282.548zm16 0q-.765 0-1.312-.547-.531-.547-.531-1.281 0-.735.531-1.282.547-.547 1.312-.547.75 0 1.282.547.547.547.547 1.282 0 .734-.547 1.28-.532.548-1.282.548zm10.5-20.297H531.942v.219q-.188.203-.235.421-.047.22-.047.766v16.61h9.594v1.921h-11.937v-19.937zm21.5 20.297q-.765 0-1.312-.547-.531-.547-.531-1.281 0-.735.531-1.282.547-.547 1.313-.547.75 0 1.28.547.548.547.548 1.282 0 .734-.547 1.28-.531.548-1.281.548zm16 0q-.765 0-1.312-.547-.531-.547-.531-1.281 0-.735.531-1.282.547-.547 1.313-.547.75 0 1.28.547.548.547.548 1.282 0 .734-.547 1.28-.531.548-1.281.548zm16 0q-.765 0-1.312-.547-.531-.547-.531-1.281 0-.735.531-1.282.547-.547 1.313-.547.75 0 1.28.547.548.547.548 1.282 0 .734-.547 1.28-.531.548-1.281.548zm16.391 0q-2.265 0-3.875-1.188-1.593-1.187-2.437-3.469-.828-2.296-.828-5.562 0-3.172.828-5.453.844-2.281 2.437-3.516 1.61-1.234 3.875-1.234 2.297 0 3.875 1.234 1.594 1.235 2.422 3.516.844 2.281.844 5.453 0 3.266-.844 5.562-.828 2.282-2.422 3.47-1.578 1.187-3.875 1.187zm0-1.953q1.532 0 2.61-.954 1.078-.968 1.64-2.812.578-1.844.578-4.5 0-2.531-.578-4.36-.562-1.843-1.64-2.859-1.078-1.031-2.61-1.031-1.5 0-2.593 1.031-1.094 1.016-1.672 2.86-.563 1.828-.563 4.359 0 2.656.563 4.5.578 1.844 1.672 2.812 1.093.954 2.593.954zm15.61 1.953q-.766 0-1.313-.547-.531-.547-.531-1.281 0-.735.531-1.282.547-.547 1.313-.547.75 0 1.28.547.548.547.548 1.282 0 .734-.547 1.28-.531.548-1.281.548zm16 0q-.766 0-1.313-.547-.531-.547-.531-1.281 0-.735.531-1.282.547-.547 1.313-.547.75 0 1.281.547.547.547.547 1.282 0 .734-.547 1.28-.531.548-1.281.548zm16 0q-.766 0-1.313-.547-.531-.547-.531-1.281 0-.735.531-1.282.547-.547 1.313-.547.75 0 1.281.547.547.547.547 1.282 0 .734-.547 1.28-.531.548-1.281.548zm10.125-.328v-19.97h4.64q1.72 0 2.907.329 1.187.312 2.015.906.828.594 1.469 1.485.672.906 1.094 2.03.437 1.11.64 2.438.22 1.328.22 2.891-.095 2.312-.61 4.14-.516 1.813-1.547 3.094-1.016 1.282-2.64 1.97-1.61.687-3.938.687h-4.25zm2.11-1.766h2.046q2.297 0 3.75-.922 1.469-.922 2.172-2.719.703-1.797.672-4.359 0-2.625-.64-4.469-.641-1.86-2-2.844-1.36-1-3.61-1h-2.39v16.313zm19.765 2.094q-.766 0-1.313-.547-.531-.547-.531-1.281 0-.735.531-1.282.547-.547 1.313-.547.75 0 1.281.547.547.547.547 1.282 0 .734-.547 1.28-.531.548-1.281.548zm16 0q-.766 0-1.313-.547-.53-.547-.53-1.281 0-.735.53-1.282.547-.547 1.313-.547.75 0 1.281.547.547.547.547 1.282 0 .734-.547 1.28-.531.548-1.281.548zm16 0q-.766 0-1.313-.547-.53-.547-.53-1.281 0-.735.53-1.282.547-.547 1.313-.547.75 0 1.281.547.547.547.547 1.282 0 .734-.547 1.28-.531.548-1.281.548zm10.125-.328v-19.97h4.64q1.72 0 2.907.329 1.187.312 2.015.906.829.594 1.47 1.485.671.906 1.093 2.03.437 1.11.64 2.438.22 1.328.22 2.891-.094 2.312-.61 4.14-.516 1.813-1.547 3.094-1.016 1.282-2.64 1.97-1.61.687-3.938.687h-4.25zm2.11-1.766h2.046q2.297 0 3.75-.922 1.469-.922 2.172-2.719.703-1.797.672-4.359 0-2.625-.64-4.469-.641-1.86-2-2.844-1.36-1-3.61-1h-2.39v16.313zm19.765 2.094q-.766 0-1.313-.547-.53-.547-.53-1.281 0-.735.53-1.282.547-.547 1.313-.547.75 0 1.281.547.547.547.547 1.282 0 .734-.547 1.28-.531.548-1.281.548zm16 0q-.766 0-1.313-.547-.53-.547-.53-1.281 0-.735.53-1.282.547-.547 1.313-.547.75 0 1.281.547.547.547.547 1.282 0 .734-.547 1.28-.531.548-1.281.548zm16 0q-.766 0-1.313-.547-.53-.547-.53-1.281 0-.735.53-1.282.547-.547 1.313-.547.75 0 1.281.547.547.547.547 1.282 0 .734-.547 1.28-.531.548-1.281.548zM470.815 181.792q-.765 0-1.312-.547-.531-.547-.531-1.281 0-.735.53-1.282.548-.547 1.313-.547.75 0 1.282.547.547.547.547 1.282 0 .734-.547 1.28-.532.548-1.282.548zm10.282-.36v-19.968h12.218v1.984h-10.109v6.562h8.36v2.047h-8.36v7.391h10.016v1.984h-12.125zm21.718.36q-.765 0-1.312-.547-.531-.547-.531-1.281 0-.735.531-1.282.547-.547 1.312-.547.75 0 1.282.547.547.547.547 1.282 0 .734-.547 1.28-.532.548-1.282.548zm16 0q-.765 0-1.312-.547-.531-.547-.531-1.281 0-.735.531-1.282.547-.547 1.312-.547.75 0 1.282.547.547.547.547 1.282 0 .734-.547 1.28-.532.548-1.282.548zm16 0q-.765 0-1.312-.547-.531-.547-.531-1.281 0-.735.531-1.282.547-.547 1.313-.547.75 0 1.28.547.548.547.548 1.282 0 .734-.547 1.28-.531.548-1.281.548zm16.391 0q-2.265 0-3.875-1.188-1.594-1.187-2.437-3.469-.828-2.296-.828-5.562 0-3.172.828-5.453.843-2.281 2.437-3.516 1.61-1.234 3.875-1.234 2.297 0 3.875 1.234 1.594 1.235 2.422 3.516.844 2.281.844 5.453 0 3.266-.844 5.562-.828 2.282-2.422 3.47-1.578 1.187-3.875 1.187zm0-1.953q1.531 0 2.61-.954 1.078-.968 1.64-2.812.578-1.844.578-4.5 0-2.531-.578-4.36-.562-1.843-1.64-2.859-1.079-1.031-2.61-1.031-1.5 0-2.594 1.031-1.093 1.016-1.671 2.86-.563 1.828-.563 4.359 0 2.656.563 4.5.578 1.844 1.671 2.812 1.094.954 2.594.954zm15.61 1.953q-.766 0-1.313-.547-.531-.547-.531-1.281 0-.735.531-1.282.547-.547 1.313-.547.75 0 1.28.547.548.547.548 1.282 0 .734-.547 1.28-.531.548-1.281.548zm16 0q-.766 0-1.313-.547-.531-.547-.531-1.281 0-.735.531-1.282.547-.547 1.313-.547.75 0 1.28.547.548.547.548 1.282 0 .734-.547 1.28-.531.548-1.281.548zm16 0q-.766 0-1.313-.547-.531-.547-.531-1.281 0-.735.531-1.282.547-.547 1.313-.547.75 0 1.28.547.548.547.548 1.282 0 .734-.547 1.28-.531.548-1.281.548zm10.187-.36v-19.937h5.89q2.36 0 3.813.703 1.453.703 2.125 1.984.672 1.282.672 3.016 0 1.11-.5 2.234-.484 1.125-1.406 1.953-.906.829-2.156 1.157l4.609 8.89h-2.484l-4.422-8.797h-3.875v8.797h-2.266zm2.266-10.78h3.875q2.14 0 3.094-.938.968-.954.968-2.516 0-1-.422-1.813-.406-.812-1.312-1.296-.89-.485-2.328-.485h-3.875v7.047zm19.547 11.14q-.766 0-1.313-.547-.531-.547-.531-1.281 0-.735.531-1.282.547-.547 1.313-.547.75 0 1.281.547.547.547.547 1.282 0 .734-.547 1.28-.531.548-1.281.548zm16 0q-.766 0-1.313-.547-.531-.547-.531-1.281 0-.735.531-1.282.547-.547 1.313-.547.75 0 1.281.547.547.547.547 1.282 0 .734-.547 1.28-.531.548-1.281.548zm16 0q-.766 0-1.313-.547-.531-.547-.531-1.281 0-.735.531-1.282.547-.547 1.313-.547.75 0 1.281.547.547.547.547 1.282 0 .734-.547 1.28-.531.548-1.281.548zm19.812-6.188h-7.234l.453-1.719h6.266l.515 1.72zm-3.453-9.344-5.25 15.172h-2.203l7.36-20.28h.25l7.359 20.28h-2.297l-5.219-15.172zm15.64 15.532q-.765 0-1.312-.547-.53-.547-.53-1.281 0-.735.53-1.282.547-.547 1.313-.547.75 0 1.281.547.547.547.547 1.282 0 .734-.547 1.28-.531.548-1.281.548zm16 0q-.765 0-1.312-.547-.53-.547-.53-1.281 0-.735.53-1.282.547-.547 1.313-.547.75 0 1.281.547.547.547.547 1.282 0 .734-.547 1.28-.531.548-1.281.548zm16 0q-.765 0-1.312-.547-.53-.547-.53-1.281 0-.735.53-1.282.547-.547 1.313-.547.75 0 1.281.547.547.547.547 1.282 0 .734-.547 1.28-.531.548-1.281.548zm19.813-6.188h-7.234l.453-1.719h6.266l.515 1.72zm-3.453-9.344-5.25 15.172h-2.203l7.36-20.28h.25l7.359 20.28h-2.297l-5.219-15.172zm15.641 15.532q-.766 0-1.313-.547-.53-.547-.53-1.281 0-.735.53-1.282.547-.547 1.313-.547.75 0 1.281.547.547.547.547 1.282 0 .734-.547 1.28-.531.548-1.281.548zm16 0q-.766 0-1.313-.547-.53-.547-.53-1.281 0-.735.53-1.282.547-.547 1.313-.547.75 0 1.281.547.547.547.547 1.282 0 .734-.547 1.28-.531.548-1.281.548zM470.815 220.192q-.765 0-1.312-.547-.531-.547-.531-1.281 0-.735.53-1.282.548-.547 1.313-.547.75 0 1.282.547.547.547.547 1.282 0 .734-.547 1.28-.532.548-1.282.548zm16 0q-.765 0-1.312-.547-.531-.547-.531-1.281 0-.735.53-1.282.548-.547 1.313-.547.75 0 1.282.547.547.547.547 1.282 0 .734-.547 1.28-.532.548-1.282.548zm10.5-20.297h2.625v.219q-.187.203-.234.421-.047.22-.047.766v16.61h9.594v1.921h-11.938v-19.937zm21.5 20.297q-.765 0-1.312-.547-.531-.547-.531-1.281 0-.735.531-1.282.547-.547 1.312-.547.75 0 1.282.547.547.547.547 1.282 0 .734-.547 1.28-.532.548-1.282.548zm16 0q-.765 0-1.312-.547-.531-.547-.531-1.281 0-.735.531-1.282.547-.547 1.313-.547.75 0 1.28.547.548.547.548 1.282 0 .734-.547 1.28-.531.548-1.281.548zm16 0q-.765 0-1.312-.547-.531-.547-.531-1.281 0-.735.531-1.282.547-.547 1.313-.547.75 0 1.28.547.548.547.548 1.282 0 .734-.547 1.28-.531.548-1.281.548zm12.141-.36-3.203-19.937h2.078l2.14 13.469 3.204-12h.703l3.234 12.062 1.829-13.531h1.875l-3.157 19.937h-.875l-3.422-13.03-3.484 13.03h-.922zm19.86.36q-.766 0-1.313-.547-.531-.547-.531-1.281 0-.735.531-1.282.547-.547 1.313-.547.75 0 1.28.547.548.547.548 1.282 0 .734-.547 1.28-.531.548-1.281.548zm16 0q-.766 0-1.313-.547-.531-.547-.531-1.281 0-.735.531-1.282.547-.547 1.313-.547.75 0 1.28.547.548.547.548 1.282 0 .734-.547 1.28-.531.548-1.281.548zm16 0q-.766 0-1.313-.547-.531-.547-.531-1.281 0-.735.531-1.282.547-.547 1.313-.547.75 0 1.28.547.548.547.548 1.282 0 .734-.547 1.28-.531.548-1.281.548zm10.5-20.297h2.625v.219q-.188.203-.235.421-.047.22-.047.766v16.61h9.594v1.921h-11.937v-19.937zm21.5 20.297q-.766 0-1.313-.547-.531-.547-.531-1.281 0-.735.531-1.282.547-.547 1.313-.547.75 0 1.281.547.547.547.547 1.282 0 .734-.547 1.28-.531.548-1.281.548zm16 0q-.766 0-1.313-.547-.531-.547-.531-1.281 0-.735.531-1.282.547-.547 1.313-.547.75 0 1.281.547.547.547.547 1.282 0 .734-.547 1.28-.531.548-1.281.548zm16 0q-.766 0-1.313-.547-.531-.547-.531-1.281 0-.735.531-1.282.547-.547 1.313-.547.75 0 1.281.547.547.547.547 1.282 0 .734-.547 1.28-.531.548-1.281.548zm9.984-20.297h2.188l8.375 14.781v-14.781h2.437v.219q-.187.203-.25.421-.047.22-.047.766v18.531h-1.75l-8.797-15.687v15.687H688.8v-19.937zm22.016 20.297q-.766 0-1.313-.547-.53-.547-.53-1.281 0-.735.53-1.282.547-.547 1.313-.547.75 0 1.281.547.547.547.547 1.282 0 .734-.547 1.28-.531.548-1.281.548zm16 0q-.766 0-1.313-.547-.53-.547-.53-1.281 0-.735.53-1.282.547-.547 1.313-.547.75 0 1.281.547.547.547.547 1.282 0 .734-.547 1.28-.531.548-1.281.548zm16 0q-.766 0-1.313-.547-.53-.547-.53-1.281 0-.735.53-1.282.547-.547 1.313-.547.75 0 1.281.547.547.547.547 1.282 0 .734-.547 1.28-.531.548-1.281.548zm10.5-20.297h2.625v.219q-.188.203-.234.421-.047.22-.047.766v16.61h9.593v1.921h-11.937v-19.937zm21.5 20.297q-.766 0-1.313-.547-.53-.547-.53-1.281 0-.735.53-1.282.547-.547 1.313-.547.75 0 1.281.547.547.547.547 1.282 0 .734-.547 1.28-.531.548-1.281.548z"/><path fill="none" d="M123.87 94.601h379.118v87.307H123.87z"/><path fill="#000" d="M134.464 114.384h2.625v.218q-.188.203-.235.422-.046.219-.046.766v7.11h7.812v-8.516h2.625v.218q-.203.203-.25.422-.047.219-.047.766v18.531h-2.36v-9.5h-7.78v9.5h-2.344v-19.937zm22.015 20.296q-.765 0-1.312-.546-.531-.547-.531-1.282 0-.734.531-1.281.547-.547 1.312-.547.75 0 1.282.547.547.547.547 1.281 0 .735-.547 1.282-.532.546-1.282.546zm16 0q-.765 0-1.312-.546-.531-.547-.531-1.282 0-.734.531-1.281.547-.547 1.313-.547.75 0 1.28.547.548.547.548 1.281 0 .735-.547 1.282-.531.546-1.281.546zm16 0q-.765 0-1.312-.546-.531-.547-.531-1.282 0-.734.531-1.281.547-.547 1.313-.547.75 0 1.28.547.548.547.548 1.281 0 .735-.547 1.282-.531.546-1.281.546zm16.391 0q-2.265 0-3.875-1.187-1.594-1.188-2.437-3.469-.828-2.297-.828-5.562 0-3.172.828-5.453.843-2.282 2.437-3.516 1.61-1.234 3.875-1.234 2.297 0 3.875 1.234 1.594 1.234 2.422 3.516.844 2.28.844 5.453 0 3.265-.844 5.562-.828 2.281-2.422 3.469-1.578 1.187-3.875 1.187zm0-1.953q1.531 0 2.61-.953 1.078-.969 1.64-2.812.578-1.844.578-4.5 0-2.532-.578-4.36-.562-1.843-1.64-2.86-1.079-1.03-2.61-1.03-1.5 0-2.594 1.03-1.093 1.017-1.671 2.86-.563 1.828-.563 4.36 0 2.656.563 4.5.578 1.843 1.671 2.812 1.094.953 2.594.953zm15.61 1.953q-.766 0-1.313-.546-.531-.547-.531-1.282 0-.734.531-1.281.547-.547 1.313-.547.75 0 1.28.547.548.547.548 1.281 0 .735-.547 1.282-.531.546-1.281.546zm16 0q-.766 0-1.313-.546-.531-.547-.531-1.282 0-.734.531-1.281.547-.547 1.313-.547.75 0 1.28.547.548.547.548 1.281 0 .735-.547 1.282-.531.546-1.281.546zm16 0q-.766 0-1.313-.546-.531-.547-.531-1.282 0-.734.531-1.281.547-.547 1.313-.547.75 0 1.28.547.548.547.548 1.281 0 .735-.547 1.282-.531.546-1.281.546zm10.5-20.296h2.625v.218q-.188.203-.235.422-.047.219-.047.766v16.61h9.594v1.921H262.98v-19.937zm21.5 20.296q-.766 0-1.313-.546-.531-.547-.531-1.282 0-.734.531-1.281.547-.547 1.313-.547.75 0 1.281.547.547.547.547 1.281 0 .735-.547 1.282-.531.546-1.281.546zm16 0q-.766 0-1.313-.546-.531-.547-.531-1.282 0-.734.531-1.281.547-.547 1.313-.547.75 0 1.281.547.547.547.547 1.281 0 .735-.547 1.282-.531.546-1.281.546zm16 0q-.766 0-1.313-.546-.531-.547-.531-1.282 0-.734.531-1.281.547-.547 1.313-.547.75 0 1.281.547.547.547.547 1.281 0 .735-.547 1.282-.531.546-1.281.546zm10.125-.328v-19.968h4.64q1.72 0 2.907.328 1.187.312 2.015.906.828.594 1.47 1.484.67.907 1.093 2.032.437 1.109.64 2.437.22 1.328.22 2.89-.095 2.313-.61 4.141-.516 1.813-1.547 3.094-1.016 1.281-2.64 1.969-1.61.687-3.938.687h-4.25zm2.11-1.765h2.046q2.297 0 3.75-.922 1.469-.922 2.172-2.719.703-1.797.672-4.36 0-2.624-.64-4.468-.641-1.86-2-2.844-1.36-1-3.61-1h-2.39v16.313zm19.765 2.093q-.766 0-1.313-.546-.53-.547-.53-1.282 0-.734.53-1.281.547-.547 1.313-.547.75 0 1.281.547.547.547.547 1.281 0 .735-.547 1.282-.531.546-1.281.546zm16 0q-.766 0-1.313-.546-.53-.547-.53-1.282 0-.734.53-1.281.547-.547 1.313-.547.75 0 1.281.547.547.547.547 1.281 0 .735-.547 1.282-.531.546-1.281.546zm16 0q-.766 0-1.313-.546-.53-.547-.53-1.282 0-.734.53-1.281.547-.547 1.313-.547.75 0 1.281.547.547.547.547 1.281 0 .735-.547 1.282-.531.546-1.281.546zm16.297-.046q-1.953 0-3.516-.625-1.547-.641-2.734-1.891l1.156-2.016.125-.297.234.125q.063.235.157.516.093.266.453.64.828.704 1.922 1.126 1.11.406 2.515.406.907 0 1.657-.266.75-.265 1.312-.734.563-.469.86-1.094.312-.625.312-1.328 0-.531-.125-.984-.11-.453-.422-.813-.297-.375-.812-.734-.5-.375-1.313-.781-.797-.422-1.906-.907-2.078-.797-3.281-1.734-1.204-.953-1.704-2-.5-1.063-.5-2.188 0-1.468.735-2.562.75-1.11 2.11-1.734 1.359-.625 3.25-.625 1.077 0 2.077.312 1.016.297 1.89.844.892.531 1.563 1.328l-1.25 1.672-.187.25-.203-.125q-.031-.25-.125-.5-.094-.266-.438-.656-.78-.735-1.64-1-.86-.282-2.047-.282-.797 0-1.422.235-.625.218-1.078.64-.438.407-.688.938-.234.531-.234 1.11 0 .546.125 1 .125.437.437.859.329.406.891.828.563.422 1.406.843.844.407 2.063.875 1.484.61 2.453 1.204.969.593 1.531 1.25.563.656.797 1.421.25.766.25 1.704 0 1.375-.687 2.703-.688 1.328-2.172 2.187-1.47.86-3.797.86zM140.48 173.08q-.766 0-1.313-.546-.531-.547-.531-1.282 0-.734.531-1.28.547-.548 1.312-.548.75 0 1.282.547.547.547.547 1.281 0 .735-.547 1.282-.532.546-1.282.546zm10.28-.359v-19.969h12.22v1.985h-10.11v6.562h8.36v2.047h-8.36v7.39h10.016v1.985H150.76zm21.72.36q-.766 0-1.313-.547-.531-.547-.531-1.282 0-.734.531-1.28.547-.548 1.313-.548.75 0 1.28.547.548.547.548 1.281 0 .735-.547 1.282-.531.546-1.281.546zm10.5-20.297h2.625v.218q-.188.203-.235.422-.047.219-.047.766v16.61h9.594v1.921H182.98v-19.937zm21.5 20.296q-.766 0-1.313-.546-.531-.547-.531-1.282 0-.734.531-1.28.547-.548 1.313-.548.75 0 1.28.547.548.547.548 1.281 0 .735-.547 1.282-.531.546-1.281.546zm12.14-.359-3.203-19.937h2.078l2.14 13.468 3.204-12h.703l3.234 12.063 1.829-13.531h1.875l-3.157 19.937h-.875l-3.422-13.031-3.484 13.031h-.922zm19.86.36q-.766 0-1.313-.547-.531-.547-.531-1.282 0-.734.531-1.28.547-.548 1.313-.548.75 0 1.28.547.548.547.548 1.281 0 .735-.547 1.282-.531.546-1.281.546zm10.187-.36v-19.937h5.89q2.36 0 3.813.703 1.453.703 2.125 1.984.672 1.281.672 3.016 0 1.11-.5 2.234-.484 1.125-1.406 1.953-.906.828-2.156 1.156l4.61 8.891h-2.485l-4.422-8.797h-3.875v8.797h-2.266zm2.266-10.781h3.875q2.14 0 3.094-.938.968-.953.968-2.515 0-1-.422-1.813-.406-.812-1.312-1.297-.89-.484-2.328-.484h-3.875v7.047zm19.547 11.14q-.766 0-1.313-.546-.531-.547-.531-1.282 0-.734.531-1.28.547-.548 1.313-.548.75 0 1.281.547.547.547.547 1.281 0 .735-.547 1.282-.531.546-1.281.546zm10.125-.328v-19.968h4.64q1.72 0 2.907.328 1.187.312 2.015.906.828.594 1.469 1.484.672.907 1.094 2.032.437 1.109.64 2.437.22 1.328.22 2.89-.095 2.313-.61 4.141-.516 1.813-1.547 3.094-1.016 1.281-2.64 1.969-1.61.687-3.938.687h-4.25zm2.11-1.765h2.046q2.297 0 3.75-.922 1.469-.922 2.172-2.719.703-1.797.672-4.36 0-2.624-.64-4.468-.642-1.86-2-2.844-1.36-1-3.61-1h-2.39v16.313zm19.765 2.093q-.766 0-1.313-.546-.531-.547-.531-1.282 0-.734.531-1.28.547-.548 1.313-.548.75 0 1.281.547.547.547.547 1.281 0 .735-.547 1.282-.531.546-1.281.546zm9.984-20.296h2.188l8.375 14.78v-14.78h2.437v.218q-.187.203-.25.422-.047.219-.047.766v18.531h-1.75l-8.797-15.687v15.687h-2.156v-19.937zm22.016 20.296q-.766 0-1.313-.546-.53-.547-.53-1.282 0-.734.53-1.28.547-.548 1.313-.548.75 0 1.281.547.547.547.547 1.281 0 .735-.547 1.282-.531.546-1.281.546zm19.812-6.187h-7.234l.453-1.719h6.266l.515 1.719zm-3.453-9.344-5.25 15.172h-2.203l7.36-20.281h.25l7.359 20.281h-2.297l-5.219-15.172zm15.64 15.531q-.765 0-1.312-.546-.53-.547-.53-1.282 0-.734.53-1.28.547-.548 1.313-.548.75 0 1.281.547.547.547.547 1.281 0 .735-.547 1.282-.531.546-1.281.546zm10.5-20.296H377.606v.218q-.188.203-.234.422-.047.219-.047.766v16.61h9.593v1.921H374.98v-19.937zm21.501 20.296q-.766 0-1.313-.546-.53-.547-.53-1.282 0-.734.53-1.28.547-.548 1.313-.548.75 0 1.281.547.547.547.547 1.281 0 .735-.547 1.282-.531.546-1.281.546zM140.48 211.48q-.766 0-1.313-.546-.531-.547-.531-1.282 0-.734.531-1.281.547-.547 1.312-.547.75 0 1.282.547.547.547.547 1.281 0 .735-.547 1.282-.532.546-1.282.546zm16 0q-.766 0-1.313-.546-.531-.547-.531-1.282 0-.734.531-1.281.547-.547 1.312-.547.75 0 1.282.547.547.547.547 1.281 0 .735-.547 1.282-.532.546-1.282.546zm10.5-20.296h2.625v.218q-.188.203-.235.422-.047.219-.047.766v16.61h9.594v1.921H166.98v-19.937zm21.5 20.296q-.766 0-1.313-.546-.531-.547-.531-1.282 0-.734.531-1.281.547-.547 1.313-.547.75 0 1.28.547.548.547.548 1.281 0 .735-.547 1.282-.531.546-1.281.546zm16 0q-.766 0-1.313-.546-.531-.547-.531-1.282 0-.734.531-1.281.547-.547 1.313-.547.75 0 1.28.547.548.547.548 1.281 0 .735-.547 1.282-.531.546-1.281.546zm16 0q-.766 0-1.313-.546-.531-.547-.531-1.282 0-.734.531-1.281.547-.547 1.313-.547.75 0 1.28.547.548.547.548 1.281 0 .735-.547 1.282-.531.546-1.281.546zm16.39 0q-2.265 0-3.875-1.187-1.593-1.188-2.437-3.469-.828-2.297-.828-5.562 0-3.172.828-5.453.844-2.282 2.437-3.516 1.61-1.234 3.875-1.234 2.297 0 3.875 1.234 1.594 1.234 2.422 3.516.844 2.28.844 5.453 0 3.265-.844 5.562-.828 2.281-2.422 3.469-1.578 1.187-3.875 1.187zm0-1.953q1.532 0 2.61-.953 1.078-.969 1.64-2.812.578-1.844.578-4.5 0-2.532-.578-4.36-.562-1.843-1.64-2.86-1.078-1.03-2.61-1.03-1.5 0-2.593 1.03-1.094 1.017-1.672 2.86-.563 1.828-.563 4.36 0 2.656.563 4.5.578 1.843 1.672 2.812 1.093.953 2.593.953zm15.61 1.953q-.766 0-1.313-.546-.531-.547-.531-1.282 0-.734.531-1.281.547-.547 1.313-.547.75 0 1.28.547.548.547.548 1.281 0 .735-.547 1.282-.531.546-1.281.546zm16 0q-.766 0-1.313-.546-.531-.547-.531-1.282 0-.734.531-1.281.547-.547 1.313-.547.75 0 1.281.547.547.547.547 1.281 0 .735-.547 1.282-.531.546-1.281.546zm16 0q-.766 0-1.313-.546-.531-.547-.531-1.282 0-.734.531-1.281.547-.547 1.313-.547.75 0 1.281.547.547.547.547 1.281 0 .735-.547 1.282-.531.546-1.281.546zm19.812-6.187h-7.234l.453-1.719h6.266l.515 1.719zm-3.453-9.344-5.25 15.172h-2.203l7.36-20.281h.25l7.359 20.281h-2.297l-5.219-15.172zm15.64 15.531q-.765 0-1.312-.546-.531-.547-.531-1.282 0-.734.531-1.281.547-.547 1.313-.547.75 0 1.281.547.547.547.547 1.281 0 .735-.547 1.282-.531.546-1.281.546zm16 0q-.765 0-1.312-.546-.53-.547-.53-1.282 0-.734.53-1.281.547-.547 1.313-.547.75 0 1.281.547.547.547.547 1.281 0 .735-.547 1.282-.531.546-1.281.546zm16 0q-.765 0-1.312-.546-.53-.547-.53-1.282 0-.734.53-1.281.547-.547 1.313-.547.75 0 1.281.547.547.547.547 1.281 0 .735-.547 1.282-.531.546-1.281.546zm10.5-20.296H361.606v.218q-.188.203-.234.422-.047.219-.047.766v16.61h9.593v1.921H358.98v-19.937zm21.5 20.296q-.765 0-1.312-.546-.53-.547-.53-1.282 0-.734.53-1.281.547-.547 1.313-.547.75 0 1.281.547.547.547.547 1.281 0 .735-.547 1.282-.531.546-1.281.546zm16 0q-.765 0-1.312-.546-.53-.547-.53-1.282 0-.734.53-1.281.547-.547 1.313-.547.75 0 1.281.547.547.547.547 1.281 0 .735-.547 1.282-.531.546-1.281.546z"/><path fill="none" d="M833.324 103.312h379.118v87.307H833.324z"/><path fill="#f6b26b" d="M842.324 112.312h16v38.4h-16v-38.4z"/><path fill="#76a5af" d="M858.324 112.312h80v38.4h-80v-38.4z"/><path fill="#93c47d" d="M954.324 112.312h16v38.4h-16v-38.4z"/><path fill="none" d="M842.324 115.544h16v33.568h-16v-33.568z"/><path fill="#000" d="M843.918 123.095h2.625v.219q-.188.203-.234.421-.047.22-.047.766v7.11h7.812v-8.516h2.625v.219q-.203.203-.25.421-.047.22-.047.766v18.531h-2.36v-9.5h-7.78v9.5h-2.344v-19.937z"/><path fill="none" d="M858.324 115.544h80v33.568h-80v-33.568z"/><path fill="#000" d="M860.215 143.032v-19.968h12.219v1.984h-10.11v6.562h8.36v2.047h-8.36v7.391h10.016v1.984h-12.125zm16.219-19.937h2.625v.219q-.188.203-.235.421-.047.22-.047.766v16.61h9.594v1.921h-11.937v-19.937zm16 0h2.625v.219q-.188.203-.235.421-.047.22-.047.766v16.61h9.594v1.921h-11.937v-19.937zm21.89 20.297q-2.265 0-3.875-1.188-1.593-1.187-2.437-3.469-.828-2.296-.828-5.562 0-3.172.828-5.453.844-2.281 2.437-3.516 1.61-1.234 3.875-1.234 2.297 0 3.875 1.234 1.594 1.235 2.422 3.516.844 2.281.844 5.453 0 3.266-.844 5.562-.828 2.282-2.422 3.47-1.578 1.187-3.875 1.187zm0-1.953q1.532 0 2.61-.954 1.078-.968 1.64-2.812.578-1.844.578-4.5 0-2.531-.578-4.36-.562-1.843-1.64-2.859-1.078-1.031-2.61-1.031-1.5 0-2.593 1.031-1.094 1.016-1.672 2.86-.563 1.828-.563 4.359 0 2.656.563 4.5.578 1.844 1.672 2.812 1.093.954 2.593.954zm11.75 1.593-3.203-19.937h2.078l2.14 13.469 3.204-12h.703l3.235 12.062 1.828-13.531h1.875l-3.157 19.937h-.875l-3.421-13.03-3.485 13.03h-.922zM946.324 143.392q-2.265 0-3.875-1.188-1.593-1.187-2.437-3.469-.828-2.296-.828-5.562 0-3.172.828-5.453.844-2.281 2.437-3.516 1.61-1.234 3.875-1.234 2.297 0 3.875 1.234 1.594 1.235 2.422 3.516.844 2.281.844 5.453 0 3.266-.844 5.562-.828 2.282-2.422 3.47-1.578 1.187-3.875 1.187zm0-1.953q1.532 0 2.61-.954 1.078-.968 1.64-2.812.578-1.844.578-4.5 0-2.531-.578-4.36-.562-1.843-1.64-2.859-1.078-1.031-2.61-1.031-1.5 0-2.593 1.031-1.094 1.016-1.672 2.86-.563 1.828-.563 4.359 0 2.656.563 4.5.578 1.844 1.672 2.812 1.093.954 2.593.954z"/><path fill="none" d="M954.324 115.544h16v33.568h-16v-33.568z"/><path fill="#000" d="M956.121 143.032v-19.937h5.89q2.36 0 3.813.703 1.453.703 2.125 1.984.672 1.282.672 3.016 0 1.11-.5 2.234-.484 1.125-1.406 1.953-.906.829-2.156 1.157l4.61 8.89h-2.485l-4.422-8.797h-3.875v8.797h-2.266zm2.266-10.78h3.875q2.14 0 3.094-.938.968-.954.968-2.516 0-1-.422-1.813-.406-.812-1.312-1.296-.89-.485-2.328-.485h-3.875v7.047z"/><path fill="none" d="M970.324 115.544v33.568-33.568z"/><path fill="#f6b26b" d="M842.324 150.712h16v38.4h-16v-38.4z"/><path fill="#93c47d" d="M954.324 150.712h16v38.4h-16v-38.4z"/><path fill="none" d="M842.324 153.944h16v33.568h-16v-33.568z"/><path fill="#000" d="M844.434 161.495h2.625v.219q-.188.203-.235.421-.047.22-.047.766v16.61h9.594v1.921h-11.937v-19.937zM860.059 181.464v-19.97h4.64q1.719 0 2.906.329 1.188.312 2.016.906.828.594 1.469 1.485.672.906 1.094 2.03.437 1.11.64 2.438.219 1.328.219 2.891-.094 2.312-.61 4.14-.515 1.813-1.546 3.094-1.016 1.282-2.641 1.97-1.61.687-3.937.687h-4.25zm2.109-1.766h2.047q2.297 0 3.75-.922 1.469-.922 2.172-2.719.703-1.797.672-4.359 0-2.625-.641-4.469-.64-1.86-2-2.844-1.36-1-3.61-1h-2.39v16.313zm23.578-4.094h-7.234l.453-1.719h6.265l.516 1.72zm-3.453-9.344-5.25 15.172h-2.203l7.36-20.28h.25l7.359 20.28h-2.297l-5.219-15.172zm9.625-4.765h2.187l8.375 14.781v-14.781H904.918v.219q-.188.203-.25.421-.047.22-.047.766v18.531h-1.75l-8.797-15.687v15.687h-2.156v-19.937zm16.14 19.969v-19.97h4.641q1.719 0 2.907.329 1.187.312 2.015.906.828.594 1.469 1.485.672.906 1.094 2.03.437 1.11.64 2.438.219 1.328.219 2.891-.094 2.312-.61 4.14-.515 1.813-1.546 3.094-1.016 1.282-2.64 1.97-1.61.687-3.938.687h-4.25zm2.11-1.766h2.047q2.297 0 3.75-.922 1.469-.922 2.172-2.719.703-1.797.672-4.359 0-2.625-.641-4.469-.64-1.86-2-2.844-1.36-1-3.61-1h-2.39v16.313zm13.469 1.734v-19.937h1.765l4.922 9.765 5.032-9.796h1.687v19.968h-2.11v-15.047l-4.327 8.032h-.86l-4.031-7.922v14.937h-2.078zm22.687.36q-2.265 0-3.875-1.188-1.593-1.187-2.437-3.469-.828-2.296-.828-5.562 0-3.172.828-5.453.844-2.281 2.437-3.516 1.61-1.234 3.875-1.234 2.297 0 3.875 1.234 1.594 1.235 2.422 3.516.844 2.281.844 5.453 0 3.266-.844 5.562-.828 2.282-2.422 3.47-1.578 1.187-3.875 1.187zm0-1.953q1.532 0 2.61-.954 1.078-.968 1.64-2.812.578-1.844.578-4.5 0-2.531-.578-4.36-.562-1.843-1.64-2.859-1.078-1.031-2.61-1.031-1.5 0-2.593 1.031-1.094 1.016-1.672 2.86-.563 1.828-.563 4.359 0 2.656.563 4.5.578 1.844 1.672 2.812 1.093.954 2.593.954z"/><path fill="none" d="M954.324 153.944h16v33.568h-16v-33.568z"/><path fill="#000" d="M962.356 181.792q-3.204 0-4.829-1.907-1.609-1.906-1.609-5.328v-13.062h2.5v.219q-.187.203-.234.421-.047.22-.047.766v11.688q0 2.421.937 3.875.953 1.437 3.313 1.437 2.406 0 3.36-1.437.968-1.454.968-3.97v-13h2.14v12.97q0 2.515-.812 4.14-.797 1.61-2.25 2.406-1.453.782-3.437.782z"/><path fill="none" d="M970.324 153.944v33.568-33.568z"/><path fill="#c27ba0" d="M842.324 189.112h112v38.4h-112v-38.4z"/><path fill="#93c47d" d="M954.324 189.112h16v38.4h-16v-38.4z"/><path fill="none" d="M842.324 192.344h112v33.568h-112v-33.568z"/><path fill="#000" d="M850.23 220.145q-1.953 0-3.515-.625-1.547-.64-2.735-1.89l1.157-2.016.125-.297.234.125q.063.234.156.515.094.266.453.641.829.703 1.922 1.125 1.11.406 2.516.406.906 0 1.656-.265.75-.266 1.313-.735.562-.469.859-1.094.313-.625.313-1.328 0-.53-.125-.984-.11-.453-.422-.813-.297-.375-.813-.734-.5-.375-1.312-.781-.797-.422-1.907-.906-2.078-.797-3.28-1.735-1.204-.953-1.704-2-.5-1.062-.5-2.187 0-1.469.734-2.563.75-1.11 2.11-1.734 1.36-.625 3.25-.625 1.078 0 2.078.312 1.016.297 1.89.844.891.531 1.563 1.328l-1.25 1.672-.187.25-.204-.125q-.03-.25-.125-.5-.093-.266-.437-.656-.781-.735-1.64-1-.86-.281-2.048-.281-.796 0-1.421.234-.625.219-1.079.64-.437.407-.687.938-.234.531-.234 1.11 0 .546.125 1 .125.437.437.859.328.406.89.828.563.422 1.407.844.844.406 2.062.875 1.485.61 2.454 1.203.968.594 1.53 1.25.563.656.798 1.422.25.765.25 1.703 0 1.375-.688 2.703-.687 1.328-2.172 2.187-1.468.86-3.797.86zm9.985-.313v-19.968h12.219v1.984h-10.11v6.562h8.36v2.047h-8.36v7.391h10.016v1.984h-12.125zm22.11.36q-2.266 0-3.876-1.188-1.594-1.187-2.437-3.469-.828-2.296-.828-5.562 0-3.172.828-5.453.843-2.281 2.437-3.516 1.61-1.234 3.875-1.234 2.297 0 3.875 1.234 1.594 1.235 2.422 3.516.844 2.281.844 5.453 0 3.266-.844 5.562-.828 2.282-2.422 3.47-1.578 1.187-3.875 1.187zm0-1.953q1.53 0 2.609-.954 1.078-.968 1.64-2.812.578-1.844.578-4.5 0-2.531-.578-4.36-.562-1.843-1.64-2.859-1.079-1.031-2.61-1.031-1.5 0-2.594 1.031-1.093 1.016-1.671 2.86-.563 1.828-.563 4.359 0 2.656.563 4.5.578 1.844 1.671 2.812 1.094.954 2.594.954zm10.5 1.593v-19.968h11.484v1.953h-9.25v6.265h7.453v1.953h-7.453v9.797h-2.235zm17.25 0-3.204-19.937h2.078l2.14 13.469 3.204-12h.703l3.235 12.062 1.828-13.531h1.875l-3.157 19.937h-.875l-3.421-13.03-3.485 13.03h-.922zm14.843 0v-1.89h3.938v-16.157h-3.72v-1.89h9.891v1.89h-3.937v16.188h4.125v1.86h-10.297zm21.313.313q-1.954 0-3.516-.625-1.547-.64-2.734-1.89l1.156-2.016.125-.297.234.125q.063.234.156.515.094.266.454.641.828.703 1.921 1.125 1.11.406 2.516.406.906 0 1.656-.265.75-.266 1.313-.735.562-.469.86-1.094.312-.625.312-1.328 0-.53-.125-.984-.11-.453-.422-.813-.297-.375-.813-.734-.5-.375-1.312-.781-.797-.422-1.906-.906-2.079-.797-3.282-1.735-1.203-.953-1.703-2-.5-1.062-.5-2.187 0-1.469.735-2.563.75-1.11 2.109-1.734 1.36-.625 3.25-.625 1.078 0 2.078.312 1.016.297 1.89.844.891.531 1.563 1.328l-1.25 1.672-.187.25-.203-.125q-.032-.25-.125-.5-.094-.266-.438-.656-.781-.735-1.64-1-.86-.281-2.047-.281-.797 0-1.422.234-.625.219-1.078.64-.438.407-.688.938-.234.531-.234 1.11 0 .546.125 1 .125.437.437.859.328.406.89.828.563.422 1.407.844.844.406 2.063.875 1.484.61 2.453 1.203.968.594 1.531 1.25.562.656.797 1.422.25.765.25 1.703 0 1.375-.688 2.703-.687 1.328-2.172 2.187-1.468.86-3.796.86z"/><path fill="none" d="M954.324 192.344h16v33.568h-16v-33.568z"/><path fill="#000" d="M956.215 219.832v-19.968h12.219v1.984h-10.11v6.562h8.36v2.047h-8.36v7.391h10.016v1.984h-12.125z"/><path fill="none" d="M970.324 192.344v33.568-33.568zM164.261 303.992H543.38V391.3H164.261z"/><path fill="#000" d="M181.62 344.025q-1.984 0-3.39-1.141-1.39-1.156-2.11-3.266-.718-2.109-.718-5 0-3.578.875-6.03.89-2.47 2.469-3.75 1.593-1.282 3.703-1.282 1.25 0 2.343.453 1.11.438 2.032 1.36l-1.407 1.609-.218.25-.157-.156q-.03-.25-.156-.47-.11-.234-.515-.593-.266-.187-.563-.281-.281-.094-.61-.14-.312-.048-.687-.048-.515 0-1.156.188-.64.187-1.281.672-.641.484-1.203 1.343-.547.86-.891 2.22-.328 1.359-.36 3.28.438-.765 1.11-1.28.672-.532 1.469-.813.812-.297 1.64-.297 1.125 0 2.11.469 1 .453 1.75 1.328.75.859 1.172 2.062.437 1.188.437 2.656 0 1.985-.766 3.5-.765 1.5-2.046 2.329-1.282.828-2.875.828zm.094-1.97q.672 0 1.297-.296.625-.312 1.094-.89.484-.579.75-1.438.281-.875.281-2.016 0-1.218-.312-2.078-.297-.875-.813-1.437-.515-.563-1.14-.828-.625-.266-1.22-.266-.577 0-1.14.203-.562.203-1.078.578-.516.36-.953.844-.422.484-.734 1.062-.125 1.079.078 2.235t.734 2.14q.531.97 1.328 1.579t1.828.609zm31.235 2.017q-1.578 0-3.016-.579-1.437-.578-2.469-1.703l1.485-1.765.218-.25.157.156q.031.266.125.5.093.234.453.625.547.484 1.25.797.703.297 1.687.297 1.282 0 2.11-.516.843-.516 1.25-1.422.422-.922.422-2.062 0-1.157-.407-1.953-.39-.797-1.125-1.266-.734-.469-1.765-.64-1.016-.173-2.297-.048v-1.796q1.531 0 2.5-.313.984-.328 1.5-.86.531-.546.719-1.265.203-.734.203-1.5 0-.672-.219-1.203-.203-.547-.578-.938-.36-.39-.89-.593-.516-.203-1.157-.203-.64 0-1.266.14-.625.14-1.218.469-.594.312-1.172.86l-1.344-1.344q1.094-1.125 2.39-1.579 1.297-.468 2.579-.468 1.625 0 2.781.625 1.156.625 1.766 1.75.625 1.109.625 2.578 0 1.031-.344 1.953-.328.906-1.031 1.578-.704.672-1.75 1.016 1.109.359 1.968 1.047.875.687 1.344 1.687.484.984.484 2.36 0 1.562-.687 2.89-.688 1.328-2.016 2.14-1.328.798-3.265.798zm26.656-2.157q1.719-1.75 3.156-3.187 1.438-1.453 2.578-2.672 1.141-1.234 1.938-2.344.797-1.11 1.203-2.172.422-1.078.422-2.265 0-1.016-.25-1.72-.25-.702-.719-1.14-.469-.437-1.094-.625-.625-.187-1.328-.187-.765 0-1.468.234-.704.219-1.344.656-.64.422-1.188 1.125-.281.454-.343.688-.063.234-.032.5l-.125.156-.265-.156-1.625-1.281q.64-1.25 1.593-2.11.97-.875 2.172-1.312 1.219-.453 2.594-.453 1.703 0 2.984.687 1.282.688 2.016 1.969.734 1.281.734 3.031 0 1.313-.484 2.547-.484 1.234-1.312 2.422-.829 1.187-1.954 2.375-1.109 1.172-2.375 2.437-1.265 1.266-2.609 2.641h7.422q.547 0 .766-.062.218-.063.421-.25h.22v2.265h-11.704v-1.797zm39.828 1.797v-4.89h-8.64v-1.641l9.125-13.438h1.89v13.22h2.563v1.89h-2.563v4.86h-2.375zm-6.047-6.781h6.047v-9.156l-6.047 9.156zm35.235 6.781v-17.187l-4.031 1.187-.516-1.25 5.219-2.719h1.562v19.97h-2.234zm32.61.36q-1.829 0-3.376-.797-1.547-.813-2.547-2.282l1.797-1.343.25-.188.125.156q-.031.25.078.485.125.219.438.64.64.704 1.422 1.047.781.328 1.937.328.766 0 1.469-.328.703-.343 1.234-.953.532-.61.844-1.5.328-.906.328-2 0-1.11-.328-1.984-.312-.89-.875-1.5-.562-.61-1.297-.922-.734-.328-1.594-.328-.671 0-1.359.234-.687.219-1.281.64-.594.407-1.11 1.016l-1.406-.578.672-10.14h10.11v2.015h-8.22l-.327 5.735q.546-.266 1.078-.438.531-.172 1.093-.25.563-.078 1.094-.078 1.313 0 2.406.469 1.094.453 1.907 1.344.812.875 1.25 2.109.453 1.219.453 2.766 0 2.046-.828 3.53-.828 1.485-2.235 2.298-1.406.797-3.203.797zM174.855 362.175h2.625v.218q-.188.203-.234.422-.047.219-.047.766v7.11h7.812v-8.516h2.625v.218q-.203.203-.25.422-.047.219-.047.766v18.531h-2.36v-9.5h-7.78v9.5h-2.344v-19.937zm32.297 19.937v-19.969h12.219v1.985h-10.11v6.562h8.36v2.047h-8.36v7.39h10.016v1.985h-12.125zm32.219-19.937h2.625v.218q-.188.203-.235.422-.047.219-.047.766v16.61h9.594v1.921h-11.937v-19.937zm32 0h2.625v.218q-.188.203-.235.422-.047.219-.047.766v16.61h9.594v1.921h-11.937v-19.937zm37.89 20.296q-2.265 0-3.875-1.187-1.593-1.188-2.437-3.469-.828-2.297-.828-5.562 0-3.172.828-5.453.844-2.282 2.437-3.516 1.61-1.234 3.875-1.234 2.297 0 3.875 1.234 1.594 1.234 2.422 3.516.844 2.28.844 5.453 0 3.265-.844 5.562-.828 2.281-2.422 3.469-1.578 1.187-3.875 1.187zm0-1.953q1.532 0 2.61-.953 1.078-.969 1.64-2.812.579-1.844.579-4.5 0-2.532-.579-4.36-.562-1.843-1.64-2.859-1.078-1.031-2.61-1.031-1.5 0-2.593 1.031-1.094 1.016-1.672 2.86-.563 1.827-.563 4.359 0 2.656.563 4.5.578 1.843 1.672 2.812 1.093.953 2.593.953zm27.75 1.594-3.203-19.937h2.078l2.141 13.468 3.203-12h.703l3.235 12.063 1.828-13.531h1.875l-3.156 19.937h-.875l-3.422-13.031-3.485 13.031h-.922zM181.261 420.872q-2.265 0-3.875-1.188-1.594-1.188-2.437-3.469-.828-2.297-.828-5.562 0-3.172.828-5.453.843-2.282 2.437-3.516 1.61-1.234 3.875-1.234 2.297 0 3.875 1.234 1.594 1.234 2.422 3.516.844 2.28.844 5.453 0 3.265-.844 5.562-.828 2.282-2.422 3.469-1.578 1.188-3.875 1.188zm0-1.954q1.531 0 2.61-.953 1.078-.968 1.64-2.812.578-1.844.578-4.5 0-2.531-.578-4.36-.562-1.843-1.64-2.859-1.079-1.031-2.61-1.031-1.5 0-2.594 1.031-1.093 1.016-1.671 2.86-.563 1.828-.563 4.359 0 2.656.563 4.5.578 1.844 1.671 2.812 1.094.953 2.594.953zm25.797 1.594v-19.937h5.89q2.36 0 3.813.703 1.453.703 2.125 1.984.672 1.281.672 3.016 0 1.11-.5 2.234-.484 1.125-1.406 1.953-.906.828-2.156 1.157l4.609 8.89h-2.484l-4.422-8.797h-3.875v8.797h-2.266zm2.266-10.781h3.875q2.14 0 3.093-.938.97-.953.97-2.515 0-1-.423-1.813-.406-.812-1.312-1.297-.89-.484-2.328-.484h-3.875v7.047zm30.047-9.156h2.625v.218q-.188.204-.235.422-.047.219-.047.766v16.61h9.594v1.921h-11.937v-19.937zm31.625 19.968v-19.968h4.64q1.72 0 2.907.328 1.187.312 2.015.906.828.594 1.469 1.484.672.907 1.094 2.032.437 1.109.64 2.437.22 1.328.22 2.89-.095 2.313-.61 4.141-.516 1.813-1.547 3.094-1.016 1.281-2.64 1.969-1.61.687-3.938.687h-4.25zm2.11-1.765h2.046q2.297 0 3.75-.922 1.469-.922 2.172-2.719.703-1.797.672-4.36 0-2.624-.64-4.468-.642-1.86-2-2.844-1.36-1-3.61-1h-2.39v16.313zm39.577-4.094h-7.234l.453-1.719h6.266l.515 1.719zm-3.453-9.344-5.25 15.172h-2.203l7.36-20.281h.25l7.359 20.281h-2.297l-5.219-15.172zm25.625-4.765h2.188l8.375 14.78v-14.78h2.437v.218q-.187.204-.25.422-.047.219-.047.766v18.531h-1.75l-8.797-15.687v15.687h-2.156v-19.937zM174.996 458.943v-19.968h4.64q1.719 0 2.906.328 1.188.312 2.016.906.828.594 1.469 1.484.672.907 1.094 2.032.437 1.109.64 2.437.219 1.328.219 2.89-.094 2.313-.61 4.141-.515 1.813-1.546 3.094-1.016 1.281-2.641 1.969-1.61.687-3.937.687h-4.25zm2.109-1.765h2.047q2.297 0 3.75-.922 1.469-.922 2.172-2.719.703-1.797.672-4.36 0-2.624-.641-4.468-.64-1.86-2-2.844-1.36-1-3.61-1h-2.39v16.313zm34.812 1.734V440.96h-5.671v-2.016h13.828v2.016h-5.89v17.953h-2.267zm26.938-19.937h2.625v.218q-.187.203-.234.422-.047.219-.047.766v7.11h7.812v-8.516h2.625v.218q-.203.203-.25.422-.047.219-.047.766v18.531h-2.359v-9.5h-7.781v9.5h-2.344v-19.937zm32.297 19.937v-19.969h12.219v1.985h-10.11v6.562h8.36v2.047h-8.36v7.39h10.016v1.985h-12.125zm31.422 0v-19.937h1.766l4.921 9.765 5.032-9.797h1.687v19.97h-2.11v-15.048l-4.327 8.031h-.86l-4.031-7.921v14.937h-2.078zm33.281 0v-1.89h3.938v-16.157h-3.719v-1.89h9.89v1.89h-3.937v16.188h4.125v1.86h-10.297zM182.386 497.625q-1.64 0-3.047-.579-1.406-.593-2.484-1.843-1.063-1.25-1.672-3.172-.61-1.922-.61-4.578 0-2.328.438-4.078.453-1.75 1.219-2.922.781-1.188 1.766-1.89 1-.704 2.078-1.017 1.093-.328 2.172-.328 2.187 0 3.718 1.078 1.532 1.063 2.313 2.86l-1.922.89-.297.125-.094-.218q.094-.25 0-.453-.093-.22-.343-.672-.813-1.078-1.657-1.438-.843-.375-1.781-.375-1.234 0-2.25.563-1.016.547-1.734 1.625-.72 1.062-1.094 2.61-.36 1.53-.36 3.483 0 1.891.438 3.422.438 1.532 1.188 2.657t1.75 1.734q1.015.61 2.171.61.797 0 1.547-.282.75-.297 1.39-.86.642-.562 1.095-1.296l1.656 1.094q-.953 1.593-2.297 2.421-1.344.829-3.297.829zm24.766-.313v-19.969h12.219v1.985h-10.11v6.562h8.36v2.047h-8.36v7.39h10.016v1.985h-12.125zm38.11.36q-2.266 0-3.876-1.188-1.593-1.188-2.437-3.469-.828-2.297-.828-5.562 0-3.172.828-5.453.844-2.282 2.437-3.516 1.61-1.234 3.875-1.234 2.297 0 3.875 1.234 1.594 1.234 2.422 3.516.844 2.28.844 5.453 0 3.265-.844 5.562-.828 2.281-2.422 3.469-1.578 1.187-3.875 1.187zm0-1.954q1.53 0 2.609-.953 1.078-.969 1.64-2.812.578-1.844.578-4.5 0-2.532-.578-4.36-.562-1.843-1.64-2.859-1.078-1.031-2.61-1.031-1.5 0-2.593 1.031-1.094 1.016-1.672 2.86-.563 1.827-.563 4.359 0 2.656.563 4.5.578 1.843 1.672 2.812 1.093.953 2.593.953zm26.5 1.594v-19.969h11.484v1.953h-9.25v6.266h7.453v1.953h-7.453v9.797h-2.235zm33.25 0-3.204-19.937h2.078l2.141 13.468 3.203-12h.703l3.235 12.063 1.828-13.531h1.875l-3.156 19.937h-.875l-3.422-13.031-3.485 13.031h-.922zm30.843 0v-1.89h3.938v-16.157h-3.719v-1.89h9.89v1.89h-3.937v16.188h4.125v1.86h-10.297zM181.167 536.025q-1.953 0-3.515-.625-1.547-.641-2.735-1.891l1.157-2.016.125-.297.234.125q.063.235.156.516.094.266.453.64.829.704 1.922 1.126 1.11.406 2.516.406.906 0 1.656-.266.75-.265 1.313-.734.562-.469.859-1.094.313-.625.313-1.328 0-.531-.125-.984-.11-.453-.422-.813-.297-.375-.813-.734-.5-.375-1.312-.781-.797-.422-1.907-.907-2.078-.797-3.28-1.734-1.204-.953-1.704-2-.5-1.063-.5-2.188 0-1.468.734-2.562.75-1.11 2.11-1.734 1.36-.625 3.25-.625 1.078 0 2.078.312 1.016.297 1.89.844.891.531 1.563 1.328l-1.25 1.672-.187.25-.204-.125q-.03-.25-.125-.5-.093-.266-.437-.656-.781-.735-1.64-1-.86-.282-2.048-.282-.796 0-1.421.235-.625.218-1.079.64-.437.407-.687.938-.234.531-.234 1.11 0 .546.125 1 .125.437.437.859.328.406.89.828.563.422 1.407.843.844.407 2.062.875 1.485.61 2.454 1.204.968.593 1.53 1.25.563.656.798 1.421.25.766.25 1.704 0 1.375-.688 2.703-.687 1.328-2.172 2.187-1.468.86-3.797.86zm25.985-.313v-19.969h12.219v1.985h-10.11v6.562h8.36v2.047h-8.36v7.39h10.016v1.985h-12.125z"/><path fill="none" d="M527.382 303.992H906.5V391.3H527.382z"/><path fill="#000" d="M544.741 344.025q-1.984 0-3.39-1.141-1.39-1.156-2.11-3.266-.718-2.109-.718-5 0-3.578.875-6.03.89-2.47 2.468-3.75 1.594-1.282 3.703-1.282 1.25 0 2.344.453 1.11.438 2.031 1.36l-1.406 1.609-.219.25-.156-.156q-.031-.25-.156-.47-.11-.234-.516-.593-.265-.187-.562-.281-.281-.094-.61-.14-.312-.048-.687-.048-.516 0-1.156.188-.64.187-1.282.672-.64.484-1.203 1.343-.547.86-.89 2.22-.328 1.359-.36 3.28.438-.765 1.11-1.28.672-.532 1.468-.813.813-.297 1.641-.297 1.125 0 2.11.469 1 .453 1.75 1.328.75.859 1.171 2.062.438 1.188.438 2.656 0 1.985-.766 3.5-.765 1.5-2.047 2.329-1.28.828-2.875.828zm.094-1.97q.672 0 1.297-.296.625-.312 1.094-.89.484-.579.75-1.438.28-.875.28-2.016 0-1.218-.312-2.078-.296-.875-.812-1.437-.516-.563-1.14-.828-.626-.266-1.22-.266-.578 0-1.14.203-.563.203-1.078.578-.516.36-.953.844-.422.484-.735 1.062-.125 1.079.078 2.235.204 1.156.735 2.14.531.97 1.328 1.579t1.828.609zm31.234 2.017q-1.578 0-3.015-.579-1.438-.578-2.469-1.703l1.484-1.765.22-.25.155.156q.032.266.125.5.094.234.454.625.546.484 1.25.797.703.297 1.687.297 1.281 0 2.11-.516.843-.516 1.25-1.422.421-.922.421-2.062 0-1.157-.406-1.953-.39-.797-1.125-1.266-.734-.469-1.766-.64-1.015-.173-2.296-.048v-1.796q1.53 0 2.5-.313.984-.328 1.5-.86.53-.546.718-1.265.203-.734.203-1.5 0-.672-.218-1.203-.203-.547-.578-.938-.36-.39-.891-.593-.516-.203-1.156-.203-.64 0-1.266.14-.625.14-1.219.469-.593.312-1.172.86l-1.343-1.344q1.093-1.125 2.39-1.579 1.297-.468 2.578-.468 1.625 0 2.782.625 1.156.625 1.765 1.75.625 1.109.625 2.578 0 1.031-.343 1.953-.329.906-1.032 1.578-.703.672-1.75 1.016 1.11.359 1.97 1.047.874.687 1.343 1.687.484.984.484 2.36 0 1.562-.687 2.89-.688 1.328-2.016 2.14-1.328.798-3.266.798zm26.657-2.157q1.719-1.75 3.156-3.187 1.438-1.453 2.578-2.672 1.14-1.234 1.938-2.344.797-1.11 1.203-2.172.422-1.078.422-2.265 0-1.016-.25-1.72-.25-.702-.72-1.14-.468-.437-1.093-.625-.625-.187-1.328-.187-.766 0-1.469.234-.703.219-1.343.656-.641.422-1.188 1.125-.281.454-.344.688-.062.234-.031.5l-.125.156-.266-.156-1.625-1.281q.641-1.25 1.594-2.11.969-.875 2.172-1.312 1.219-.453 2.594-.453 1.703 0 2.984.687 1.281.688 2.016 1.969.734 1.281.734 3.031 0 1.313-.484 2.547-.485 1.234-1.313 2.422-.828 1.187-1.953 2.375-1.11 1.172-2.375 2.437-1.265 1.266-2.61 2.641h7.423q.547 0 .765-.062.219-.063.422-.25h.219v2.265h-11.703v-1.797zm39.828 1.797v-4.89h-8.64v-1.641l9.124-13.438h1.891v13.22h2.562v1.89h-2.562v4.86h-2.375zm-6.047-6.781h6.047v-9.156l-6.047 9.156zm35.235 6.781v-17.187l-4.032 1.187-.515-1.25 5.218-2.719h1.563v19.97h-2.234zm32.609.36q-1.828 0-3.375-.797-1.547-.813-2.547-2.282l1.797-1.343.25-.188.125.156q-.031.25.078.485.125.219.438.64.64.704 1.421 1.047.782.328 1.938.328.766 0 1.469-.328.703-.343 1.234-.953.531-.61.844-1.5.328-.906.328-2 0-1.11-.328-1.984-.313-.89-.875-1.5-.563-.61-1.297-.922-.734-.328-1.594-.328-.672 0-1.36.234-.687.219-1.28.64-.594.407-1.11 1.016l-1.406-.578.672-10.14h10.11v2.015h-8.22l-.328 5.735q.547-.266 1.078-.438.532-.172 1.094-.25.563-.078 1.094-.078 1.312 0 2.406.469 1.094.453 1.906 1.344.813.875 1.25 2.109.454 1.219.454 2.766 0 2.046-.829 3.53-.828 1.485-2.234 2.298-1.406.797-3.203.797zM544.382 382.471q-2.266 0-3.875-1.187-1.594-1.188-2.438-3.469-.828-2.297-.828-5.562 0-3.172.828-5.453.844-2.282 2.438-3.516 1.61-1.234 3.875-1.234 2.297 0 3.875 1.234 1.594 1.234 2.422 3.516.844 2.28.844 5.453 0 3.265-.844 5.562-.828 2.281-2.422 3.469-1.578 1.188-3.875 1.188zm0-1.953q1.531 0 2.61-.953 1.077-.969 1.64-2.812.578-1.844.578-4.5 0-2.531-.578-4.36-.563-1.843-1.64-2.859-1.079-1.031-2.61-1.031-1.5 0-2.594 1.031-1.094 1.016-1.672 2.86-.562 1.827-.562 4.359 0 2.656.562 4.5.578 1.844 1.672 2.812 1.094.953 2.594.953zm35.422-4.234h-7.235l.454-1.719h6.265l.516 1.719zm-3.453-9.344-5.25 15.172h-2.203l7.359-20.281h.25l7.36 20.281h-2.298l-5.218-15.172zm25.344 15.172v-19.937h1.765l4.922 9.765 5.031-9.797h1.688v19.97h-2.11v-15.048l-4.328 8.031h-.86l-4.03-7.921v14.937h-2.078zm34.437 0-3.203-19.937h2.078l2.14 13.468 3.204-12h.703l3.234 12.063 1.828-13.531h1.875l-3.156 19.937h-.875l-3.422-13.031-3.484 13.031h-.922zm30.36-19.937h2.625v.218q-.188.204-.235.422-.047.219-.047.766v16.61h9.594v1.921h-11.937v-19.937zm32 0h2.625v.218q-.188.204-.235.422-.047.219-.047.766v16.61h9.594v1.921h-11.937v-19.937zM537.976 400.575h2.625v.218q-.188.203-.235.422-.047.219-.047.766v7.11h7.813v-8.516h2.625v.218q-.203.203-.25.422-.047.219-.047.766v18.531h-2.36v-9.5h-7.78v9.5h-2.344v-19.937zm38.406 20.296q-2.266 0-3.875-1.187-1.594-1.188-2.438-3.469-.828-2.297-.828-5.562 0-3.172.828-5.453.844-2.282 2.438-3.516 1.61-1.234 3.875-1.234 2.297 0 3.875 1.234 1.594 1.234 2.422 3.516.844 2.28.844 5.453 0 3.265-.844 5.562-.828 2.281-2.422 3.469-1.578 1.187-3.875 1.187zm0-1.953q1.531 0 2.61-.953 1.077-.969 1.64-2.812.578-1.844.578-4.5 0-2.532-.578-4.36-.563-1.843-1.64-2.859-1.079-1.031-2.61-1.031-1.5 0-2.594 1.031-1.094 1.016-1.672 2.86-.562 1.827-.562 4.359 0 2.656.562 4.5.578 1.843 1.672 2.812 1.094.953 2.594.953zm25.89 1.594v-19.969h12.22v1.985h-10.11v6.562h8.36v2.047h-8.36v7.39h10.016v1.985h-12.125zm31.907 0v-19.937h5.89q2.36 0 3.813.703 1.453.703 2.125 1.984.672 1.281.672 3.016 0 1.11-.5 2.234-.484 1.125-1.406 1.953-.907.828-2.157 1.156l4.61 8.891h-2.485l-4.421-8.797h-3.875v8.797h-2.266zm2.266-10.781h3.875q2.14 0 3.093-.938.97-.953.97-2.515 0-1-.423-1.813-.406-.812-1.312-1.297-.89-.484-2.328-.484h-3.875v7.047zm34.593 10.781V402.56h-5.671v-2.016h13.828v2.016h-5.891v17.953h-2.266zm27.235 0v-19.969h12.219v1.985h-10.11v6.562h8.36v2.047h-8.36v7.39h10.016v1.985h-12.125zM538.273 458.912v-19.969h12.218v1.985h-10.11v6.562h8.36v2.047h-8.36v7.39h10.017v1.985h-12.125zm32.218-19.937h2.625v.218q-.187.203-.234.422-.047.219-.047.766v16.61h9.594v1.921H570.49v-19.937zm31.625 19.968v-19.968h4.641q1.719 0 2.906.328 1.188.312 2.016.906.828.594 1.469 1.484.671.907 1.093 2.032.438 1.109.641 2.437.219 1.328.219 2.89-.094 2.313-.61 4.141-.515 1.813-1.547 3.094-1.015 1.281-2.64 1.969-1.61.687-3.938.687h-4.25zm2.11-1.765h2.047q2.296 0 3.75-.922 1.468-.922 2.171-2.719.704-1.797.672-4.36 0-2.624-.64-4.468-.64-1.86-2-2.844-1.36-1-3.61-1h-2.39v16.313zm30.047 1.734v-19.969h12.218v1.985h-10.109v6.562h8.36v2.047h-8.36v7.39h10.016v1.985h-12.125zm32.61 0v-19.969h11.483v1.953h-9.25v6.266h7.454v1.953h-7.454v9.797h-2.234zm33.25 0-3.204-19.937h2.078l2.14 13.468 3.204-12h.703l3.234 12.063 1.829-13.531h1.875l-3.157 19.937h-.875l-3.422-13.031-3.484 13.031h-.922zM537.976 477.375h2.187l8.375 14.78v-14.78H550.976v.218q-.188.203-.25.422-.047.219-.047.766v18.531h-1.75l-8.797-15.687v15.687h-2.156v-19.937zm33 19.937v-1.89h3.937v-16.157h-3.719v-1.89h9.891v1.89h-3.937v16.188h4.125v1.86h-10.297zm32 0v-1.89h3.937v-16.157h-3.718v-1.89h9.89v1.89h-3.937v16.188h4.125v1.86h-10.297zm31-19.937h2.625v.218q-.188.203-.235.422-.046.219-.046.766v7.11h7.812v-8.516h2.625v.218q-.203.203-.25.422-.047.219-.047.766v18.531h-2.36v-9.5h-7.78v9.5h-2.344v-19.937zm38.406 20.296q-2.265 0-3.875-1.187-1.594-1.188-2.437-3.469-.828-2.297-.828-5.562 0-3.172.828-5.453.843-2.282 2.437-3.516 1.61-1.234 3.875-1.234 2.297 0 3.875 1.234 1.594 1.234 2.422 3.516.844 2.28.844 5.453 0 3.265-.844 5.562-.828 2.281-2.422 3.469-1.578 1.187-3.875 1.187zm0-1.953q1.531 0 2.61-.953 1.078-.969 1.64-2.812.578-1.844.578-4.5 0-2.532-.578-4.36-.562-1.843-1.64-2.859-1.079-1.031-2.61-1.031-1.5 0-2.594 1.031-1.093 1.016-1.671 2.86-.563 1.827-.563 4.359 0 2.656.563 4.5.578 1.843 1.671 2.812 1.094.953 2.594.953zm25.735 1.625v-19.968h4.64q1.719 0 2.906.328 1.188.312 2.016.906.828.594 1.469 1.484.672.907 1.094 2.032.437 1.109.64 2.437.219 1.328.219 2.89-.094 2.313-.61 4.141-.515 1.813-1.546 3.094-1.016 1.281-2.64 1.969-1.61.687-3.938.687h-4.25zm2.109-1.765h2.047q2.297 0 3.75-.922 1.469-.922 2.172-2.719.703-1.797.672-4.36 0-2.624-.641-4.468-.64-1.86-2-2.844-1.36-1-3.61-1h-2.39v16.313zM545.507 536.025q-1.64 0-3.047-.579-1.406-.593-2.484-1.843-1.063-1.25-1.672-3.172-.61-1.922-.61-4.578 0-2.328.438-4.078.453-1.75 1.219-2.922.78-1.188 1.765-1.89 1-.704 2.078-1.017 1.094-.328 2.172-.328 2.188 0 3.719 1.078 1.531 1.063 2.313 2.86l-1.922.89-.297.125-.094-.218q.094-.25 0-.453-.094-.22-.344-.672-.812-1.078-1.656-1.438-.844-.375-1.781-.375-1.235 0-2.25.563-1.016.547-1.735 1.625-.718 1.062-1.093 2.61-.36 1.53-.36 3.483 0 1.891.438 3.422.437 1.532 1.187 2.657t1.75 1.734q1.016.61 2.172.61.797 0 1.547-.282.75-.297 1.39-.86.641-.562 1.094-1.296l1.657 1.094q-.953 1.593-2.297 2.421-1.344.829-3.297.829zm30.781 0q-1.953 0-3.515-.625-1.547-.641-2.735-1.891l1.156-2.016.125-.297.235.125q.062.235.156.516.094.266.453.64.828.704 1.922 1.126 1.11.406 2.516.406.906 0 1.656-.266.75-.265 1.312-.734.563-.469.86-1.094.312-.625.312-1.328 0-.531-.125-.984-.109-.453-.422-.813-.296-.375-.812-.734-.5-.375-1.313-.781-.796-.422-1.906-.907-2.078-.797-3.281-1.734-1.203-.953-1.703-2-.5-1.063-.5-2.188 0-1.468.734-2.562.75-1.11 2.11-1.734 1.359-.625 3.25-.625 1.078 0 2.078.312 1.015.297 1.89.844.891.531 1.563 1.328l-1.25 1.672-.188.25-.203-.125q-.031-.25-.125-.5-.094-.266-.437-.656-.782-.735-1.64-1-.86-.282-2.048-.282-.797 0-1.422.235-.625.218-1.078.64-.437.407-.687.938-.235.531-.235 1.11 0 .546.125 1 .125.437.438.859.328.406.89.828.563.422 1.407.843.843.407 2.062.875 1.485.61 2.453 1.204.97.593 1.532 1.25.562.656.796 1.421.25.766.25 1.704 0 1.375-.687 2.703-.688 1.328-2.172 2.187-1.469.86-3.797.86z"/><path fill="none" d="M858.319 303.992h379.118V391.3H858.319z"/><path fill="#000" d="M877.49 343.712v-4.89h-8.64v-1.641l9.125-13.438h1.89v13.22h2.563v1.89h-2.562v4.86h-2.375zm-6.046-6.781h6.047v-9.156l-6.047 9.156zm35.562 7.14q-1.578 0-3.015-.578-1.438-.578-2.469-1.703l1.484-1.765.22-.25.155.156q.032.266.125.5.094.234.454.625.546.484 1.25.797.703.297 1.687.297 1.281 0 2.11-.516.843-.516 1.25-1.422.421-.922.421-2.062 0-1.157-.406-1.953-.39-.797-1.125-1.266-.734-.469-1.766-.64-1.015-.173-2.296-.048v-1.796q1.53 0 2.5-.313.984-.328 1.5-.86.53-.546.718-1.265.203-.734.203-1.5 0-.672-.218-1.203-.203-.547-.578-.938-.36-.39-.891-.593-.516-.203-1.156-.203-.64 0-1.266.14-.625.14-1.219.469-.593.312-1.172.86l-1.343-1.344q1.093-1.125 2.39-1.579 1.297-.468 2.578-.468 1.625 0 2.782.625 1.156.625 1.765 1.75.625 1.109.625 2.578 0 1.031-.343 1.953-.329.906-1.032 1.578-.703.672-1.75 1.016 1.11.359 1.97 1.047.874.687 1.343 1.687.484.984.484 2.36 0 1.562-.687 2.89-.688 1.328-2.016 2.14-1.328.798-3.266.798zm26.657-2.156q1.719-1.75 3.156-3.187 1.438-1.453 2.578-2.672 1.14-1.234 1.938-2.344.797-1.11 1.203-2.172.422-1.078.422-2.265 0-1.016-.25-1.72-.25-.702-.72-1.14-.468-.437-1.093-.625-.625-.187-1.328-.187-.766 0-1.469.234-.703.219-1.343.656-.641.422-1.188 1.125-.281.454-.344.688-.062.234-.031.5l-.125.156-.266-.156-1.625-1.281q.641-1.25 1.594-2.11.969-.875 2.172-1.312 1.219-.453 2.594-.453 1.703 0 2.984.687 1.281.688 2.016 1.969.734 1.281.734 3.031 0 1.313-.484 2.547-.485 1.234-1.313 2.422-.828 1.187-1.953 2.375-1.11 1.172-2.375 2.437-1.265 1.266-2.61 2.641h7.423q.547 0 .765-.062.219-.063.422-.25h.219v2.265h-11.703v-1.797zm37.015 1.797v-17.187l-4.03 1.187-.516-1.25 5.218-2.719h1.563v19.97h-2.235zm34.813 0v-4.89h-8.64v-1.641l9.124-13.438h1.891v13.22h2.563v1.89h-2.563v4.86h-2.375zm-6.047-6.781h6.047v-9.156l-6.047 9.156zm35.563 7.14q-1.578 0-3.016-.578-1.437-.578-2.469-1.703l1.485-1.765.218-.25.157.156q.031.266.125.5.093.234.453.625.547.484 1.25.797.703.297 1.687.297 1.282 0 2.11-.516.843-.516 1.25-1.422.422-.922.422-2.062 0-1.157-.407-1.953-.39-.797-1.125-1.266-.734-.469-1.765-.64-1.016-.173-2.297-.048v-1.796q1.531 0 2.5-.313.984-.328 1.5-.86.531-.546.719-1.265.203-.734.203-1.5 0-.672-.219-1.203-.203-.547-.578-.938-.36-.39-.89-.593-.516-.203-1.157-.203-.64 0-1.266.14-.625.14-1.218.469-.594.312-1.172.86l-1.344-1.344q1.094-1.125 2.39-1.579 1.297-.468 2.579-.468 1.625 0 2.781.625 1.156.625 1.766 1.75.625 1.109.625 2.578 0 1.031-.344 1.953-.328.906-1.031 1.578-.704.672-1.75 1.016 1.109.359 1.968 1.047.875.687 1.344 1.687.484.984.484 2.36 0 1.562-.687 2.89-.688 1.328-2.016 2.14-1.328.798-3.265.798zM868.913 362.175h2.625v.218q-.188.203-.235.422-.047.219-.047.766v7.11h7.813v-8.516h2.625v.218q-.203.203-.25.422-.047.219-.047.766v18.531h-2.36v-9.5h-7.78v9.5h-2.344v-19.937zm32.297 19.937v-19.969h12.218v1.985H903.32v6.562h8.36v2.047h-8.36v7.39h10.016v1.985H901.21zm32.218-19.937h2.625v.218q-.187.203-.234.422-.047.219-.047.766v16.61h9.594v1.921h-11.938v-19.937zm32 0h2.625v.218q-.187.203-.234.422-.047.219-.047.766v16.61h9.594v1.921h-11.938v-19.937zm37.891 20.296q-2.265 0-3.875-1.187-1.594-1.188-2.437-3.469-.828-2.297-.828-5.562 0-3.172.828-5.453.843-2.282 2.437-3.516 1.61-1.234 3.875-1.234 2.297 0 3.875 1.234 1.594 1.234 2.422 3.516.844 2.28.844 5.453 0 3.265-.844 5.562-.828 2.281-2.422 3.469-1.578 1.187-3.875 1.187zm0-1.953q1.531 0 2.61-.953 1.078-.969 1.64-2.812.578-1.844.578-4.5 0-2.532-.578-4.36-.562-1.843-1.64-2.859-1.079-1.031-2.61-1.031-1.5 0-2.594 1.031-1.093 1.016-1.671 2.86-.563 1.827-.563 4.359 0 2.656.563 4.5.578 1.843 1.671 2.812 1.094.953 2.594.953zm27.75 1.594-3.203-19.937h2.078l2.14 13.468 3.204-12h.703l3.234 12.063 1.829-13.531h1.875l-3.157 19.937h-.875l-3.422-13.031-3.484 13.031h-.922zM875.319 420.872q-2.266 0-3.875-1.188-1.594-1.188-2.438-3.469-.828-2.297-.828-5.562 0-3.172.828-5.453.844-2.282 2.438-3.516 1.61-1.234 3.875-1.234 2.297 0 3.875 1.234 1.594 1.234 2.422 3.516.844 2.28.844 5.453 0 3.265-.844 5.562-.828 2.282-2.422 3.469-1.578 1.188-3.875 1.188zm0-1.954q1.531 0 2.61-.953 1.077-.968 1.64-2.812.578-1.844.578-4.5 0-2.531-.578-4.36-.563-1.843-1.64-2.859-1.079-1.031-2.61-1.031-1.5 0-2.594 1.031-1.094 1.016-1.672 2.86-.562 1.828-.562 4.359 0 2.656.562 4.5.578 1.844 1.672 2.812 1.094.953 2.594.953zm25.797 1.594v-19.937h5.89q2.36 0 3.813.703 1.453.703 2.125 1.984.672 1.281.672 3.016 0 1.11-.5 2.234-.485 1.125-1.406 1.953-.907.828-2.157 1.157l4.61 8.89h-2.485l-4.422-8.797h-3.875v8.797h-2.265zm2.265-10.781h3.875q2.141 0 3.094-.938.969-.953.969-2.515 0-1-.422-1.813-.406-.812-1.312-1.297-.891-.484-2.329-.484h-3.875v7.047zm30.047-9.156h2.625v.218q-.187.204-.234.422-.047.219-.047.766v16.61h9.594v1.921h-11.938v-19.937zm31.625 19.968v-19.968h4.641q1.719 0 2.906.328 1.188.312 2.016.906.828.594 1.469 1.484.672.907 1.093 2.032.438 1.109.641 2.437.219 1.328.219 2.89-.094 2.313-.61 4.141-.515 1.813-1.546 3.094-1.016 1.281-2.641 1.969-1.61.687-3.938.687h-4.25zm2.11-1.765h2.047q2.297 0 3.75-.922 1.468-.922 2.172-2.719.703-1.797.671-4.36 0-2.624-.64-4.468-.64-1.86-2-2.844-1.36-1-3.61-1h-2.39v16.313zm39.578-4.094h-7.234l.453-1.719h6.265l.516 1.719zm-3.453-9.344-5.25 15.172h-2.203l7.36-20.281h.25l7.359 20.281h-2.297l-5.22-15.172zm25.625-4.765h2.187l8.375 14.78v-14.78H1041.913v.218q-.188.204-.25.422-.047.219-.047.766v18.531h-1.75l-8.797-15.687v15.687h-2.156v-19.937zM869.053 458.943v-19.968h4.64q1.72 0 2.907.328 1.188.312 2.016.906.828.594 1.469 1.484.671.907 1.093 2.032.438 1.109.64 2.437.22 1.328.22 2.89-.094 2.313-.61 4.141-.515 1.813-1.547 3.094-1.015 1.281-2.64 1.969-1.61.687-3.938.687h-4.25zm2.11-1.765h2.047q2.296 0 3.75-.922 1.468-.922 2.171-2.719.704-1.797.672-4.36 0-2.624-.64-4.468-.64-1.86-2-2.844-1.36-1-3.61-1h-2.39v16.313zm34.812 1.734V440.96h-5.672v-2.016h13.828v2.016h-5.89v17.953h-2.266zm26.938-19.937h2.625v.218q-.188.203-.235.422-.046.219-.046.766v7.11h7.812v-8.516h2.625v.218q-.203.203-.25.422-.047.219-.047.766v18.531h-2.36v-9.5h-7.78v9.5h-2.344v-19.937zm32.297 19.937v-19.969h12.218v1.985H967.32v6.562h8.36v2.047h-8.36v7.39h10.016v1.985H965.21zm31.422 0v-19.937h1.765l4.922 9.765 5.031-9.797h1.688v19.97h-2.11v-15.048l-4.328 8.031h-.859l-4.031-7.921v14.937h-2.078zm33.281 0v-1.89h3.937v-16.157h-3.718v-1.89h9.89v1.89h-3.937v16.188h4.125v1.86h-10.297zM876.444 497.625q-1.64 0-3.047-.579-1.406-.593-2.484-1.843-1.063-1.25-1.672-3.172-.61-1.922-.61-4.578 0-2.328.438-4.078.453-1.75 1.219-2.922.78-1.188 1.765-1.89 1-.704 2.078-1.017 1.094-.328 2.172-.328 2.188 0 3.719 1.078 1.531 1.063 2.313 2.86l-1.922.89-.297.125-.094-.218q.094-.25 0-.453-.094-.22-.344-.672-.812-1.078-1.656-1.438-.844-.375-1.781-.375-1.235 0-2.25.563-1.016.547-1.735 1.625-.718 1.062-1.093 2.61-.36 1.53-.36 3.483 0 1.891.438 3.422.437 1.532 1.187 2.657t1.75 1.734q1.016.61 2.172.61.797 0 1.547-.282.75-.297 1.39-.86.641-.562 1.094-1.296l1.657 1.094q-.953 1.593-2.297 2.421-1.344.829-3.297.829zm24.766-.313v-19.969h12.218v1.985H903.32v6.562h8.36v2.047h-8.36v7.39h10.016v1.985H901.21zm38.109.36q-2.266 0-3.875-1.188-1.594-1.188-2.437-3.469-.829-2.297-.829-5.562 0-3.172.829-5.453.843-2.282 2.437-3.516 1.61-1.234 3.875-1.234 2.297 0 3.875 1.234 1.594 1.234 2.422 3.516.844 2.28.844 5.453 0 3.265-.844 5.562-.828 2.281-2.422 3.469-1.578 1.187-3.875 1.187zm0-1.954q1.531 0 2.61-.953 1.078-.969 1.64-2.812.578-1.844.578-4.5 0-2.532-.578-4.36-.562-1.843-1.64-2.859-1.079-1.031-2.61-1.031-1.5 0-2.594 1.031-1.093 1.016-1.672 2.86-.562 1.827-.562 4.359 0 2.656.562 4.5.579 1.843 1.672 2.812 1.094.953 2.594.953zm26.5 1.594v-19.969h11.484v1.953h-9.25v6.266h7.454v1.953h-7.454v9.797h-2.234zm33.25 0-3.203-19.937h2.078l2.14 13.468 3.204-12h.703l3.234 12.063 1.829-13.531h1.875l-3.157 19.937h-.875l-3.422-13.031-3.484 13.031h-.922zm30.844 0v-1.89h3.937v-16.157h-3.718v-1.89h9.89v1.89h-3.937v16.188h4.125v1.86h-10.297zM875.225 536.025q-1.953 0-3.515-.625-1.547-.641-2.735-1.891l1.156-2.016.125-.297.235.125q.062.235.156.516.094.266.453.64.828.704 1.922 1.126 1.11.406 2.516.406.906 0 1.656-.266.75-.265 1.312-.734.563-.469.86-1.094.312-.625.312-1.328 0-.531-.125-.984-.11-.453-.422-.813-.296-.375-.812-.734-.5-.375-1.313-.781-.796-.422-1.906-.907-2.078-.797-3.281-1.734-1.203-.953-1.703-2-.5-1.063-.5-2.188 0-1.468.734-2.562.75-1.11 2.11-1.734 1.359-.625 3.25-.625 1.078 0 2.078.312 1.015.297 1.89.844.89.531 1.563 1.328l-1.25 1.672-.188.25-.203-.125q-.031-.25-.125-.5-.094-.266-.437-.656-.782-.735-1.641-1-.86-.282-2.047-.282-.797 0-1.422.235-.625.218-1.078.64-.437.407-.687.938-.235.531-.235 1.11 0 .546.125 1 .125.437.438.859.328.406.89.828.563.422 1.407.843.843.407 2.062.875 1.485.61 2.453 1.204.969.593 1.532 1.25.562.656.796 1.421.25.766.25 1.704 0 1.375-.687 2.703-.688 1.328-2.172 2.187-1.469.86-3.797.86zm25.985-.313v-19.969h12.218v1.985H903.32v6.562h8.36v2.047h-8.36v7.39h10.016v1.985H901.21z"/></g></svg>