<svg viewBox="0 0 1287.53 667.123" fill="none" stroke-linecap="square" stroke-miterlimit="10" xmlns="http://www.w3.org/2000/svg"><clipPath id="a"><path d="M0 0h1287.53v667.123H0V0z"/></clipPath><g clip-path="url(#a)"><path fill="none" d="M0 0h1287.53v667.123H0z"/><path fill="none" d="M389.682 257.727h970.804v407.874H389.682z"/><path fill="#0b5394" d="m501.443 285.927-1.578-4.5h-5.219l-1.578 4.5h-1.78l5-13.812h2.062l5 13.812h-1.907zm-2.078-5.953-1.734-4.984-.328-1.125h-.078l-.329 1.125-1.734 4.984h4.203zm7.663-1.906v5.484q0 1.188 1.141 1.188.656 0 1.578-.375l.219 1.343q-.985.453-2.063.453-1.078 0-1.797-.64-.718-.656-.718-2v-5.453h-1.266v-1.266h1.266v-1.797l1.234-1.14h.406v2.937h2.578v1.266h-2.578zm8.155 6.734q1.5 0 2.313-1.016.828-1.015.828-2.453 0-1.453-.719-2.312-.719-.875-1.86-.875-1.124 0-2.405.687v5.61q.937.359 1.843.359zm-1.843-13.234v5.984q1.53-.86 3.078-.86 1.547 0 2.578 1.25 1.047 1.25 1.047 3.266t-1.219 3.485q-1.203 1.468-3.438 1.468-1.718 0-3.687-.875v-13.718h1.64zm13.941 8.906v-.89q0-1.61-1.671-1.61-1.329 0-2.766.86l-.578-1.204q1.672-1.062 3.625-1.062 1.36 0 2.219.687.875.688.875 2.125v6.547h-1.079l-.5-1.203q-.64.656-1.53 1.047-.876.39-1.595.39-1.234 0-1.984-.671-.734-.688-.734-1.782 0-3.234 5.718-3.234zm-3.312 1.937q-.39.329-.516.61-.125.265-.125.703 0 .422.36.734.375.313.968.313 1.266 0 2.625-1.125v-2q-2.515.047-3.312.765zm12.5-4q-1.031-.437-1.922-.437-1.75 0-1.75 1.047 0 .922 2.328 1.781.86.328 1.578 1.016.735.672.735 1.625 0 1.39-.907 2.062-.89.656-2.5.656-1.593 0-3.109-.875l.5-1.234q1.266.719 2.86.719.687 0 1.093-.281.422-.297.422-.797t-.484-.86q-.47-.36-1.157-.64-.671-.282-1.359-.61-.672-.343-1.156-.937-.485-.594-.485-1.422 0-1.281.875-1.969.875-.687 2.204-.687 1.343 0 2.734.593l-.5 1.25zm4.617-6.843v6.172q1.5-1.172 3.22-1.172 1.343 0 2.124.672.797.671.797 1.75v6.937h-1.703v-6.812q0-.532-.406-.813-.407-.281-1.094-.281-1.422 0-2.938 1.031v6.875h-1.703v-14.36h1.703zM638.303 280.302v5.625h-1.719v-13.812h3.64q2.047 0 3.376 1.093 1.343 1.078 1.343 3.016 0 1.406-.75 2.375-.734.969-1.984 1.406 1.031 1.203 3.86 5.922h-2.079q-2.781-4.797-3.531-5.625h-2.156zm0-1.469h1.922q1.375 0 2.125-.672.75-.687.75-1.921 0-1.25-.75-1.922-.75-.688-2.125-.688h-1.922v5.203zm14.855 7.328q-1.5 0-2.688-.546-1.187-.563-1.922-1.5-1.484-1.922-1.484-4.61 0-3.36 1.938-5.5 1.937-2.14 5.14-2.14 1.5 0 2.688.562 1.187.563 1.922 1.5 1.5 1.922 1.5 4.594 0 3.36-1.954 5.5-1.937 2.14-5.14 2.14zm.906-12.796q-2.484 0-3.828 1.625-1.328 1.625-1.328 4.53 0 2.141 1.14 3.673 1.157 1.515 3.22 1.515 2.484 0 3.812-1.61 1.328-1.624 1.328-4.546 0-2.14-1.14-3.656-1.141-1.531-3.204-1.531zm7.274.265v-1.515h9.64v1.515h-3.953v12.297h-1.718V273.63h-3.97zm15.121-1v13.297h-1.734v-11.484l-3.063 1.468-.578-1.296 4.156-1.985h1.219zm9.005 3.313q0-1.016-.578-1.485-.578-.484-1.719-.484-1.14 0-2.64.828l-.626-1.219q1.938-1.11 3.704-1.11 1.78 0 2.718.954.938.953.938 2.156 0 1.203-.64 2.14-.641.923-1.86 1.22v.14q1.515.438 2.14 1.266.625.812.625 2.187 0 1.375-1.14 2.5t-3.172 1.125q-2.031 0-3.656-.78l.547-1.22q1.265.61 2.656.61 1.39 0 2.172-.781.797-.782.797-1.797 0-1.032-.75-1.75-.75-.72-2.172-.72h-1.75v-1.312h1.61q1.312 0 2.046-.734.75-.734.75-1.734zM782.068 279.505q0 2.297 1.203 3.75 1.22 1.438 3.282 1.438 2.078 0 4.047-1.032l.218 1.532q-2.234.968-4.39.968-2.157 0-3.594-.968-1.438-.97-2.094-2.438-.656-1.484-.656-3.25 0-3.36 1.953-5.5 1.969-2.14 5.234-2.14 1.5 0 3.235.546l-.485 1.391q-1.375-.422-2.75-.422-2.453 0-3.828 1.64-1.375 1.641-1.375 4.485zm15.693.969v-.89q0-1.61-1.671-1.61-1.329 0-2.766.86l-.578-1.204q1.672-1.062 3.625-1.062 1.36 0 2.219.687.875.688.875 2.125v6.547h-1.079l-.5-1.203q-.64.656-1.53 1.047-.876.39-1.595.39-1.234 0-1.984-.671-.734-.688-.734-1.782 0-3.234 5.718-3.234zm-3.312 1.937q-.39.329-.516.61-.125.265-.125.703 0 .422.36.734.375.313.968.313 1.266 0 2.625-1.125v-2q-2.515.047-3.312.765zm11.469 2.36q1.453 0 2.89-.86l.578 1.204q-1.687 1.046-3.593 1.046-1.907 0-3.032-1.203-1.125-1.218-1.125-3.484 0-2.281 1.157-3.594 1.172-1.312 3.093-1.312 1.735 0 2.735 1.078.422.437.703 1.281.297.844.297 1.984l-.61.704h-5.671q.062 3.156 2.578 3.156zm2.031-4.422q0-1.125-.594-1.797-.578-.687-1.531-.687-.938 0-1.61.671-.656.672-.796 1.813h4.531zm8.46-1.938q-1.031-.437-1.922-.437-1.75 0-1.75 1.047 0 .922 2.328 1.781.86.328 1.578 1.016.735.672.735 1.625 0 1.39-.907 2.062-.89.656-2.5.656-1.593 0-3.109-.875l.5-1.234q1.266.719 2.86.719.687 0 1.093-.281.422-.297.422-.797t-.484-.86q-.469-.36-1.157-.64-.671-.282-1.359-.61-.672-.343-1.156-.937-.485-.594-.485-1.422 0-1.281.875-1.969.875-.687 2.204-.687 1.343 0 2.734.593l-.5 1.25zm7.992 2.063v-.89q0-1.61-1.671-1.61-1.329 0-2.766.86l-.578-1.204q1.672-1.062 3.625-1.062 1.36 0 2.219.687.875.688.875 2.125v6.547h-1.079l-.5-1.203q-.64.656-1.53 1.047-.876.39-1.595.39-1.234 0-1.984-.671-.734-.688-.734-1.782 0-3.234 5.718-3.234zm-3.312 1.937q-.39.329-.516.61-.125.265-.125.703 0 .422.36.734.375.313.968.313 1.266 0 2.625-1.125v-2q-2.515.047-3.312.765zm7.812-5.609h1.079l.5 1.61h.078q1.11-1.422 3.03-1.72l.173 1.579q-.938.062-1.828.484-.875.406-1.328 1.11v6.062H828.9v-9.125zM924.584 285.927v-13.812h3.484q2.22 0 3.532.921 1.328.907 1.328 2.688 0 2.016-2 2.984 1.219.407 1.906 1.235.703.828.703 2 0 1.89-1.39 2.937-1.375 1.047-3.657 1.047h-3.906zm3.875-6.453h-2.156v4.937h2.156q3.25 0 3.25-2.468 0-2.47-3.25-2.47zm-2.156-1.328h1.734q1.5 0 2.266-.64.781-.657.781-1.75 0-1.11-.75-1.61-.75-.516-2.297-.516h-1.734v4.516zm14.279 2.328v-.89q0-1.61-1.672-1.61-1.328 0-2.766.86l-.578-1.204q1.672-1.062 3.625-1.062 1.36 0 2.219.687.875.688.875 2.125v6.547h-1.078l-.5-1.203q-.641.656-1.532 1.047-.875.39-1.593.39-1.235 0-1.985-.671-.734-.688-.734-1.782 0-3.234 5.719-3.234zm-3.313 1.937q-.39.329-.516.61-.125.265-.125.703 0 .422.36.734.375.313.969.313 1.265 0 2.625-1.125v-2q-2.516.047-3.313.765zm11.39-5.843q1.344 0 2.72.593l-.5 1.25q-1.016-.437-2.173-.437-1.14 0-1.812.86-.672.859-.672 2.515 0 1.656.703 2.547.703.875 1.844.875 1.14 0 2.36-.563l.374 1.313q-1.406.64-2.843.64-1.86 0-3.032-1.343-1.172-1.344-1.172-3.47 0-2.14 1.172-3.452 1.172-1.328 3.032-1.328zm8.412 1.297q-.765 0-1.328.343-.547.344-.797.875-.484 1.032-.484 2.188 0 3.594 2.5 3.594.766 0 1.297-.329.547-.343.828-.89.484-1 .484-2.172 0-3.61-2.5-3.61zm0-1.297q2.22 0 3.235 1.39 1.015 1.375 1.015 3.594 0 1.594-.843 2.953-.453.735-1.375 1.203-.922.453-2.203.453-2.204 0-3.204-1.312-1-1.328-1-3.547 0-1.297.407-2.187.422-.907.875-1.391.468-.5 1.265-.828.797-.328 1.828-.328zm14.354 2.453v6.906h-1.703v-6.812q0-.532-.406-.813-.406-.281-1.094-.281-1.422 0-2.937 1.031v6.875h-1.704v-9.125h1.079l.5 1.047q1.546-1.281 3.343-1.281 1.344 0 2.125.687.797.672.797 1.766zm4.578-4.36q-.313.329-.781.329-.454 0-.782-.329-.312-.328-.312-.78 0-.47.328-.798.328-.343.766-.343.437 0 .765.343.344.328.344.797 0 .453-.328.781zm-1.625 2.141h1.703v9.125h-1.703v-9.125zm9.743 3.672v-.89q0-1.61-1.671-1.61-1.329 0-2.766.86l-.578-1.204q1.672-1.062 3.625-1.062 1.36 0 2.219.687.875.688.875 2.125v6.547h-1.079l-.5-1.203q-.64.656-1.53 1.047-.876.39-1.595.39-1.234 0-1.984-.671-.734-.688-.734-1.782 0-3.234 5.718-3.234zm-3.312 1.937q-.39.329-.516.61-.125.265-.125.703 0 .422.36.734.375.313.968.313 1.266 0 2.625-1.125v-2q-2.515.047-3.312.765zm15.656-3.39v6.906h-1.703v-6.812q0-.532-.406-.813-.406-.281-1.094-.281-1.422 0-2.937 1.031v6.875h-1.704v-9.125h1.079l.5 1.047q1.546-1.281 3.343-1.281 1.344 0 2.125.687.797.672.797 1.766zM1075.318 273.833q-1.39-.484-2.593-.484t-1.97.625q-.75.61-.75 1.5 0 1.25 1.345 1.969l2.812 1.562q2.36 1.328 2.36 3.406 0 1.72-1.22 2.735-1.218 1.015-3.437 1.015-2.218 0-3.984-.796l.5-1.391q1.64.719 3.234.719t2.344-.625q.766-.625.766-1.5 0-1.266-1.344-1.985l-2.813-1.562q-2.359-1.313-2.359-3.39 0-1.72 1.219-2.735 1.219-1.031 3.281-1.031 1.39 0 3.14.578l-.53 1.39zm5.225.828q-.313.329-.781.329-.454 0-.782-.329-.312-.328-.312-.78 0-.47.328-.798.328-.343.766-.343.437 0 .765.343.344.328.344.797 0 .453-.328.781zm-1.625 2.141h1.703v9.125h-1.703v-9.125zm6.322 1.047q1.484-1.281 3.28-1.281 1.798 0 2.47 1.406 1.578-1.406 3.312-1.406 1.281 0 2.031.687.75.672.75 1.766v6.906h-1.703v-6.812q0-.532-.375-.813-.375-.281-1.015-.281-1.313 0-2.782 1.062v6.844h-1.703v-6.812q0-.532-.39-.813-.375-.281-1.016-.281-1.328 0-2.734 1.031v6.875h-1.703v-9.125h1.078l.5 1.047zm18.142 6.953q1.5 0 2.312-1.016.828-1.015.828-2.484t-.719-2.375q-.703-.906-1.937-.906-.484 0-1.14.281-.657.281-1.188.75v5.39q.953.36 1.844.36zm-1.844 5.719h-1.656v-13.719h1.078l.468 1.047q1.454-1.281 3.094-1.281t2.672 1.28q1.047 1.282 1.047 3.329t-1.219 3.516q-1.203 1.468-3.437 1.468-1 0-2.047-.28v4.64zm8.905-18.953h1.641v14.359h-1.64v-14.36zm8.095 13.203q1.453 0 2.89-.86l.579 1.204q-1.688 1.046-3.594 1.046t-3.031-1.203q-1.125-1.218-1.125-3.484 0-2.281 1.156-3.594 1.172-1.312 3.094-1.312 1.734 0 2.734 1.078.422.437.703 1.281.297.844.297 1.984l-.61.704h-5.671q.062 3.156 2.578 3.156zm2.031-4.422q0-1.125-.594-1.797-.578-.687-1.531-.687-.937 0-1.61.671-.656.672-.796 1.813h4.531zm15.97-6.516q-1.391-.484-2.594-.484-1.204 0-1.97.625-.75.61-.75 1.5 0 1.25 1.345 1.969l2.812 1.562q2.36 1.328 2.36 3.406 0 1.72-1.22 2.735-1.218 1.015-3.437 1.015t-3.984-.796l.5-1.391q1.64.719 3.234.719t2.344-.625q.766-.625.766-1.5 0-1.266-1.344-1.985l-2.813-1.562q-2.359-1.313-2.359-3.39 0-1.72 1.219-2.735 1.218-1.031 3.281-1.031 1.39 0 3.14.578l-.53 1.39zm5.067 2.969v6.781q0 .563.407.875.406.313 1.078.313 1.406 0 2.906-1.125v-6.844h1.703v9.125h-1.078l-.5-1.203q-1.531 1.437-3.422 1.437-1.203 0-2-.64-.797-.64-.797-1.86v-6.859h1.703zm12.397 8q1.5 0 2.313-1.016.828-1.015.828-2.453 0-1.453-.719-2.312-.719-.875-1.86-.875-1.124 0-2.405.687v5.61q.937.359 1.843.359zm-1.843-13.234v5.984q1.53-.86 3.078-.86 1.547 0 2.578 1.25 1.047 1.25 1.047 3.266t-1.219 3.485q-1.203 1.468-3.438 1.468-1.718 0-3.687-.875v-13.718h1.64zm13.629 6.843q-1.031-.437-1.922-.437-1.75 0-1.75 1.047 0 .922 2.328 1.781.86.328 1.578 1.016.735.672.735 1.625 0 1.39-.907 2.062-.89.656-2.5.656-1.593 0-3.109-.875l.5-1.234q1.266.719 2.86.719.687 0 1.093-.281.422-.297.422-.797t-.484-.86q-.469-.36-1.157-.64-.671-.282-1.359-.61-.672-.343-1.156-.937-.485-.594-.485-1.422 0-1.281.875-1.969.875-.687 2.204-.687 1.343 0 2.734.593l-.5 1.25zm5.04-.343v5.484q0 1.188 1.14 1.188.656 0 1.578-.375l.219 1.343q-.985.453-2.063.453-1.078 0-1.797-.64-.718-.656-.718-2v-5.453h-1.266v-1.266h1.266v-1.797l1.234-1.14h.406v2.937h2.578v1.266h-2.578zm6.514-3.407q-.313.329-.782.329-.453 0-.78-.329-.313-.328-.313-.78 0-.47.328-.798.328-.343.765-.343.438 0 .766.343.344.328.344.797 0 .453-.328.781zm-1.625 2.141h1.703v9.125h-1.703v-9.125zm6.79 1.266v5.484q0 1.188 1.141 1.188.656 0 1.578-.375l.219 1.343q-.985.453-2.063.453-1.078 0-1.797-.64-.718-.656-.718-2v-5.453h-1.266v-1.266h1.266v-1.797l1.234-1.14h.406v2.937h2.578v1.266h-2.578zm6.358-1.266v6.781q0 .563.407.875.406.313 1.078.313 1.406 0 2.906-1.125v-6.844h1.703v9.125h-1.078l-.5-1.203q-1.531 1.437-3.422 1.437-1.203 0-2-.64-.797-.64-.797-1.86v-6.859h1.703zm11.022 1.266v5.484q0 1.188 1.141 1.188.656 0 1.578-.375l.219 1.343q-.985.453-2.063.453-1.078 0-1.797-.64-.718-.656-.718-2v-5.453h-1.266v-1.266h1.266v-1.797l1.234-1.14h.406v2.937h2.578v1.266h-2.578zm6.515-3.407q-.313.329-.782.329-.453 0-.78-.329-.313-.328-.313-.78 0-.47.328-.798.328-.343.765-.343.438 0 .766.343.344.328.344.797 0 .453-.328.781zm-1.625 2.141h1.703v9.125h-1.703v-9.125zm8.493 1.063q-.765 0-1.328.343-.547.344-.797.875-.484 1.032-.484 2.188 0 3.594 2.5 3.594.766 0 1.297-.329.547-.343.828-.89.484-1 .484-2.172 0-3.61-2.5-3.61zm0-1.297q2.22 0 3.235 1.39 1.015 1.375 1.015 3.594 0 1.594-.843 2.953-.453.735-1.375 1.203-.922.453-2.203.453-2.204 0-3.204-1.312-1-1.328-1-3.547 0-1.297.407-2.187.422-.907.875-1.391.468-.5 1.265-.828.797-.328 1.828-.328zm14.354 2.453v6.906h-1.703v-6.812q0-.532-.406-.813-.406-.281-1.094-.281-1.422 0-2.937 1.031v6.875h-1.704v-9.125h1.079l.5 1.047q1.546-1.281 3.343-1.281 1.344 0 2.125.687.797.672.797 1.766z"/><path fill="#134f5c" d="M615.501 496.302v5.625h-1.719v-13.812h3.641q2.047 0 3.375 1.093 1.344 1.078 1.344 3.016 0 1.406-.75 2.375-.735.969-1.985 1.406 1.032 1.203 3.86 5.922h-2.078q-2.782-4.797-3.532-5.625h-2.156zm0-1.469h1.922q1.375 0 2.125-.672.75-.687.75-1.921 0-1.25-.75-1.922-.75-.688-2.125-.688h-1.922v5.203zm10.824-2.031v6.781q0 .563.406.875.406.313 1.078.313 1.407 0 2.907-1.125v-6.844h1.703v9.125h-1.078l-.5-1.203q-1.532 1.437-3.422 1.437-1.203 0-2-.64-.797-.64-.797-1.86v-6.859h1.703zm16.819 2.219v6.906h-1.704v-6.812q0-.532-.406-.813-.406-.281-1.094-.281-1.421 0-2.937 1.031v6.875H635.3v-9.125h1.078l.5 1.047q1.547-1.281 3.344-1.281 1.343 0 2.125.687.797.672.797 1.766zm10.64 0v6.906h-1.703v-6.812q0-.532-.407-.813-.406-.281-1.093-.281-1.422 0-2.938 1.031v6.875h-1.703v-9.125h1.078l.5 1.047q1.547-1.281 3.344-1.281 1.344 0 2.125.687.797.672.797 1.766zm4.577-4.36q-.312.329-.781.329-.453 0-.781-.329-.313-.328-.313-.78 0-.47.328-.798.328-.343.766-.343.437 0 .765.343.344.328.344.797 0 .453-.328.781zm-1.625 2.141h1.703v9.125h-1.703v-9.125zm12.588 2.219v6.906h-1.704v-6.812q0-.532-.406-.813-.406-.281-1.094-.281-1.421 0-2.937 1.031v6.875h-1.703v-9.125h1.078l.5 1.047q1.547-1.281 3.344-1.281 1.343 0 2.125.687.797.672.797 1.766zm5.78 4.328q-.469 0-.875-.063-.5.954-.5 1.266 0 .14.36.234l2.437.547q1.703.375 2.422.875.719.516.719 1.516t-.703 1.687q-1.36 1.36-4 1.36-1.625 0-2.813-.61-1.172-.593-1.172-1.718 0-1.11 1.61-2.578-.61-.22-.61-.657 0-.437 1.188-2.187-1.72-.735-1.72-3.094 0-1.312.923-2.297.937-1 2.734-1 1.031 0 1.813.297l2.812-.312v1.328h-1.5q.516.843.516 2.14 0 1.282-.922 2.282-.922.984-2.719.984zm2.031-3.125q0-2.484-2.015-2.484-.797 0-1.297.421-.781.688-.781 1.704 0 1 .468 1.687.485.672 1.547.672 1.063 0 1.563-.64.515-.657.515-1.36zm-4.546 7.969q0 .64.687.968.703.344 1.828.344t2.078-.453q.953-.437.953-1.219 0-.406-.453-.656t-1.593-.484l-2.344-.532q-1.156 1.172-1.156 2.032zm16.092-2.266h-1.719v-13.812h1.72v5.828l5.468-5.828h2.125l-5.438 5.671 5.938 8.141h-2.188l-4.984-6.844-.922.969v5.875zm12.695-1.156q1.453 0 2.89-.86l.579 1.204q-1.688 1.046-3.594 1.046t-3.031-1.203q-1.125-1.218-1.125-3.484 0-2.281 1.156-3.594 1.172-1.312 3.094-1.312 1.734 0 2.734 1.078.422.437.703 1.281.297.844.297 1.984l-.61.704h-5.671q.062 3.156 2.578 3.156zm2.031-4.422q0-1.125-.593-1.797-.579-.687-1.532-.687-.937 0-1.61.671-.655.672-.796 1.813h4.531zm6.976 7.203q-.656 1.922-1.219 2.563-.547.656-1.625.656-1.078 0-2.375-.61l.625-1.296q.86.468 1.469.468.547 0 .719-.187l.265-.266q.266-.25.453-.89.204-.641.329-1 .125-.344.171-.547l-3.328-9.641h1.72l2.358 7.313h.079l2.359-7.313h1.719l-3.72 10.75zM848.882 488.115l3.875 11.906h.11l3.922-11.906h1.687l-4.515 13.812h-2.391l-4.594-13.812h1.906zm12.92 2.546q-.313.329-.782.329-.453 0-.781-.329-.313-.328-.313-.78 0-.47.328-.798.328-.343.766-.343.437 0 .766.343.343.328.343.797 0 .453-.328.781zm-1.626 2.141h1.703v9.125h-1.703v-9.125zm7.728 6.547q-.468 0-.875-.063-.5.954-.5 1.266 0 .14.36.234l2.437.547q1.703.375 2.422.875.719.516.719 1.516t-.703 1.687q-1.36 1.36-4 1.36-1.625 0-2.813-.61-1.172-.593-1.172-1.718 0-1.11 1.61-2.578-.61-.22-.61-.657 0-.437 1.188-2.187-1.719-.735-1.719-3.094 0-1.312.922-2.297.937-1 2.734-1 1.032 0 1.813.297l2.812-.312v1.328h-1.5q.516.843.516 2.14 0 1.282-.922 2.282-.922.984-2.719.984zm2.032-3.125q0-2.484-2.016-2.484-.797 0-1.297.421-.781.688-.781 1.704 0 1 .469 1.687.484.672 1.546.672 1.063 0 1.563-.64.516-.657.516-1.36zm-4.547 7.969q0 .64.687.968.703.344 1.828.344t2.078-.453q.954-.437.954-1.219 0-.406-.454-.656-.453-.25-1.593-.484l-2.344-.532q-1.156 1.172-1.156 2.032zm12.567-3.422q1.453 0 2.89-.86l.579 1.204q-1.688 1.046-3.594 1.046t-3.031-1.203q-1.125-1.218-1.125-3.484 0-2.281 1.156-3.594 1.172-1.312 3.094-1.312 1.734 0 2.734 1.078.422.437.703 1.281.297.844.297 1.984l-.61.704h-5.671q.063 3.156 2.578 3.156zm2.031-4.422q0-1.125-.593-1.797-.578-.687-1.532-.687-.937 0-1.609.671-.656.672-.797 1.813h4.531zm11.617-1.328v6.906H889.9v-6.812q0-.532-.407-.813-.406-.281-1.093-.281-1.422 0-2.938 1.031v6.875h-1.703v-9.125h1.078l.5 1.047q1.547-1.281 3.344-1.281 1.344 0 2.125.687.797.672.797 1.766zm6.452 5.75q1.453 0 2.89-.86l.579 1.204q-1.688 1.046-3.594 1.046t-3.031-1.203q-1.125-1.218-1.125-3.484 0-2.281 1.156-3.594 1.172-1.312 3.094-1.312 1.734 0 2.734 1.078.422.437.703 1.281.297.844.297 1.984l-.61.704h-5.671q.062 3.156 2.578 3.156zm2.031-4.422q0-1.125-.593-1.797-.579-.687-1.532-.687-.937 0-1.609.671-.656.672-.797 1.813h4.531zm-.64-4.688h-1.282l-2.703-2.593 1.438-1.078 2.547 3.671zm4.413 1.141h1.078l.5 1.61h.078q1.11-1.422 3.031-1.72l.172 1.579q-.937.062-1.828.484-.875.406-1.328 1.11v6.062h-1.703v-9.125zm9.956 7.969q1.453 0 2.89-.86l.579 1.204q-1.688 1.046-3.594 1.046t-3.031-1.203q-1.125-1.218-1.125-3.484 0-2.281 1.156-3.594 1.172-1.312 3.094-1.312 1.734 0 2.734 1.078.422.437.703 1.281.297.844.297 1.984l-.61.704h-5.671q.062 3.156 2.578 3.156zm2.031-4.422q0-1.125-.593-1.797-.579-.687-1.532-.687-.937 0-1.609.671-.656.672-.797 1.813h4.531zM1099.782 501.927v-13.812h8.125l-.39 1.515h-6.016v4.563h5.688v1.453h-5.688v4.765h6.781v1.516h-8.5zm18.482-6.906v6.906h-1.704v-6.812q0-.532-.406-.813-.406-.281-1.094-.281-1.421 0-2.937 1.031v6.875h-1.703v-9.125h1.078l.5 1.047q1.547-1.281 3.344-1.281 1.343 0 2.125.687.797.672.797 1.766zm4.577-4.36q-.312.329-.781.329-.453 0-.781-.329-.313-.328-.313-.78 0-.47.328-.798.328-.343.766-.343.437 0 .765.343.344.328.344.797 0 .453-.328.781zm-1.625 2.141h1.703v9.125h-1.703v-9.125zm7.728 6.547q-.469 0-.875-.063-.5.954-.5 1.266 0 .14.36.234l2.437.547q1.703.375 2.422.875.719.516.719 1.516t-.703 1.687q-1.36 1.36-4 1.36-1.625 0-2.813-.61-1.172-.593-1.172-1.718 0-1.11 1.61-2.578-.61-.22-.61-.657 0-.437 1.188-2.187-1.72-.735-1.72-3.094 0-1.312.923-2.297.937-1 2.734-1 1.031 0 1.813.297l2.812-.312v1.328h-1.5q.516.843.516 2.14 0 1.282-.922 2.282-.922.984-2.719.984zm2.031-3.125q0-2.484-2.015-2.484-.797 0-1.297.421-.781.688-.781 1.704 0 1 .468 1.687.485.672 1.547.672 1.063 0 1.563-.64.515-.657.515-1.36zm-4.546 7.969q0 .64.687.968.703.344 1.828.344t2.078-.453q.953-.437.953-1.219 0-.406-.453-.656t-1.593-.484l-2.344-.532q-1.156 1.172-1.156 2.032zm10.489-10.344q1.484-1.281 3.281-1.281 1.797 0 2.469 1.406 1.578-1.406 3.312-1.406 1.282 0 2.032.687.75.672.75 1.766v6.906h-1.704v-6.812q0-.532-.375-.813-.375-.281-1.015-.281-1.313 0-2.781 1.062v6.844h-1.704v-6.812q0-.532-.39-.813-.375-.281-1.016-.281-1.328 0-2.734 1.031v6.875h-1.703v-9.125h1.078l.5 1.047zm19.642 2.625v-.89q0-1.61-1.672-1.61-1.328 0-2.766.86l-.578-1.204q1.672-1.062 3.625-1.062 1.36 0 2.219.687.875.688.875 2.125v6.547h-1.078l-.5-1.203q-.64.656-1.531 1.047-.875.39-1.594.39-1.235 0-1.985-.671-.734-.688-.734-1.782 0-3.234 5.719-3.234zm-3.313 1.937q-.39.329-.515.61-.125.265-.125.703 0 .422.359.734.375.313.969.313 1.265 0 2.625-1.125v-2q-2.516.047-3.313.765z"/><path fill="none" d="M472.465 150.856h176.094v87.307H472.465z"/><path fill="#000" d="M492.886 184.748h-7.234l.453-1.72h6.266l.515 1.72zm-3.453-9.344-5.25 15.172h-2.203l7.36-20.282h.25l7.359 20.282h-2.297l-5.219-15.172zm9.563 15.172v-19.938h5.672q1.718 0 2.968.36 1.25.343 2.063.984.828.64 1.203 1.547.39.89.39 1.937 0 .938-.343 1.828-.328.891-.984 1.563-.657.672-1.625 1.031.843.281 1.53.797.688.516 1.173 1.203.5.688.765 1.469.282.781.282 1.625 0 1.234-.454 2.281-.437 1.047-1.359 1.781-.906.735-2.312 1.141-1.407.39-3.329.39h-5.64zm2.219-1.953h3.796q1.407 0 2.47-.36 1.062-.375 1.64-1.203.594-.844.594-2.219 0-1.172-.516-2.078-.5-.922-1.64-1.453-1.141-.531-3.079-.531h-3.265v7.844zm0-9.735h3.125q1.765 0 2.78-.406 1.032-.422 1.47-1.14.453-.72.453-1.61 0-.672-.235-1.25-.234-.578-.75-1-.515-.438-1.343-.688-.829-.265-2.016-.265h-3.484v6.36zm21.375 12q-1.641 0-3.047-.578-1.407-.594-2.485-1.844-1.062-1.25-1.672-3.172-.609-1.921-.609-4.578 0-2.328.438-4.078.453-1.75 1.218-2.922.782-1.187 1.766-1.89 1-.703 2.078-1.016 1.094-.328 2.172-.328 2.187 0 3.719 1.078 1.531 1.063 2.312 2.86l-1.922.89-.297.125-.093-.219q.093-.25 0-.453-.094-.219-.344-.672-.813-1.078-1.656-1.437-.844-.375-1.782-.375-1.234 0-2.25.562-1.015.547-1.734 1.625-.719 1.063-1.094 2.61-.359 1.53-.359 3.484 0 1.89.437 3.422.438 1.531 1.188 2.656.75 1.125 1.75 1.735 1.016.609 2.172.609.797 0 1.547-.281.75-.297 1.39-.86.641-.562 1.094-1.297l1.656 1.094q-.953 1.594-2.297 2.422-1.343.828-3.296.828zm8.609-.281v-19.969h4.64q1.72 0 2.907.328 1.187.313 2.016.907.828.593 1.468 1.484.672.906 1.094 2.031.438 1.11.64 2.438.22 1.328.22 2.89-.094 2.313-.61 4.14-.516 1.813-1.547 3.095-1.015 1.28-2.64 1.968-1.61.688-3.938.688h-4.25zm2.11-1.766h2.046q2.297 0 3.75-.922 1.469-.921 2.172-2.718.703-1.797.672-4.36 0-2.625-.64-4.468-.641-1.86-2-2.844-1.36-1-3.61-1h-2.39v16.312zm14.046 1.735v-19.97h12.219v1.985h-10.11v6.563h8.36v2.047h-8.36v7.39h10.016v1.985h-12.125zm16.61 0v-19.97h11.484v1.954h-9.25v6.266h7.453v1.953H566.2v9.797h-2.234zM483.965 228.976v-19.97h11.484v1.954h-9.25v6.266h7.453v1.953H486.2v9.797h-2.234zm15.39 0v-19.97h12.219v1.985h-10.11v6.563h8.36v2.047h-8.36v7.39h10.016v1.985h-12.125zm15.844.03v-19.968h4.64q1.72 0 2.907.328 1.187.313 2.015.907.829.593 1.47 1.484.671.906 1.093 2.031.437 1.11.64 2.438.22 1.328.22 2.89-.094 2.313-.61 4.14-.516 1.813-1.547 3.095-1.016 1.28-2.64 1.968-1.61.688-3.938.688h-4.25zm2.11-1.765h2.046q2.297 0 3.75-.922 1.469-.921 2.172-2.718.703-1.797.672-4.36 0-2.625-.64-4.468-.641-1.86-2-2.844-1.36-1-3.61-1h-2.39v16.312zm21.28 2.047q-1.64 0-3.046-.578-1.406-.594-2.485-1.844-1.062-1.25-1.671-3.172-.61-1.921-.61-4.578 0-2.328.438-4.078.453-1.75 1.218-2.922.782-1.187 1.766-1.89 1-.703 2.078-1.016 1.094-.328 2.172-.328 2.188 0 3.719 1.078 1.531 1.063 2.312 2.86l-1.922.89-.296.125-.094-.219q.094-.25 0-.453-.094-.219-.344-.672-.812-1.078-1.656-1.437-.844-.375-1.781-.375-1.235 0-2.25.562-1.016.547-1.735 1.625-.719 1.063-1.094 2.61-.359 1.53-.359 3.484 0 1.89.438 3.422.437 1.531 1.187 2.656.75 1.125 1.75 1.735 1.016.609 2.172.609.797 0 1.547-.281.75-.297 1.39-.86.641-.562 1.094-1.297l1.656 1.094q-.953 1.594-2.296 2.422-1.344.828-3.297.828zm8.407-.312v-19.938h5.672q1.719 0 2.969.36 1.25.343 2.062.984.828.64 1.203 1.547.39.89.39 1.937 0 .938-.343 1.828-.328.891-.984 1.563-.657.672-1.625 1.031.843.281 1.53.797.688.516 1.173 1.203.5.688.765 1.469.282.781.282 1.625 0 1.234-.453 2.281-.438 1.047-1.36 1.781-.906.735-2.312 1.141-1.407.39-3.328.39h-5.641zm2.219-1.953h3.797q1.406 0 2.468-.36 1.063-.375 1.64-1.203.595-.844.595-2.219 0-1.172-.516-2.078-.5-.922-1.64-1.453-1.141-.531-3.079-.531h-3.265v7.844zm0-9.735h3.125q1.765 0 2.78-.406 1.032-.422 1.47-1.14.453-.72.453-1.61 0-.672-.235-1.25-.234-.578-.75-1-.515-.438-1.343-.688-.828-.265-2.016-.265h-3.484v6.36zm23.672 5.86h-7.235l.453-1.72h6.266l.516 1.72zm-3.454-9.344-5.25 15.172h-2.203l7.36-20.282h.25l7.36 20.282h-2.298l-5.219-15.172z"/><path fill="none" d="M608.874 150.856h176.094v87.307H608.874z"/><path fill="#000" d="M629.296 184.748h-7.234l.453-1.72h6.265l.516 1.72zm-3.453-9.344-5.25 15.172h-2.203l7.359-20.282h.25l7.36 20.282h-2.297l-5.22-15.172zm9.562 15.172v-19.938h5.672q1.719 0 2.969.36 1.25.343 2.062.984.829.64 1.204 1.547.39.89.39 1.937 0 .938-.344 1.828-.328.891-.984 1.563-.656.672-1.625 1.031.844.281 1.531.797.688.516 1.172 1.203.5.688.766 1.469.281.781.281 1.625 0 1.234-.453 2.281-.438 1.047-1.36 1.781-.906.735-2.312 1.141-1.406.39-3.328.39h-5.64zm2.219-1.953h3.797q1.406 0 2.469-.36 1.062-.375 1.64-1.203.594-.844.594-2.219 0-1.172-.516-2.078-.5-.922-1.64-1.453t-3.078-.531h-3.266v7.844zm0-9.735h3.125q1.766 0 2.781-.406 1.032-.422 1.469-1.14.453-.72.453-1.61 0-.672-.234-1.25-.235-.578-.75-1-.516-.438-1.344-.688-.828-.265-2.016-.265h-3.484v6.36zm21.375 12q-1.64 0-3.047-.578-1.406-.594-2.484-1.844-1.063-1.25-1.672-3.172-.61-1.921-.61-4.578 0-2.328.438-4.078.453-1.75 1.219-2.922.781-1.187 1.765-1.89 1-.703 2.079-1.016 1.093-.328 2.171-.328 2.188 0 3.72 1.078 1.53 1.063 2.312 2.86l-1.922.89-.297.125-.094-.219q.094-.25 0-.453-.094-.219-.344-.672-.812-1.078-1.656-1.437-.844-.375-1.781-.375-1.234 0-2.25.562-1.016.547-1.734 1.625-.72 1.063-1.094 2.61-.36 1.53-.36 3.484 0 1.89.438 3.422.437 1.531 1.187 2.656.75 1.125 1.75 1.735 1.016.609 2.172.609.797 0 1.547-.281.75-.297 1.39-.86.641-.562 1.095-1.297l1.656 1.094q-.953 1.594-2.297 2.422-1.344.828-3.297.828zm8.61-.281v-19.969h4.64q1.719 0 2.906.328 1.188.313 2.016.907.828.593 1.469 1.484.672.906 1.093 2.031.438 1.11.641 2.438.219 1.328.219 2.89-.094 2.313-.61 4.14-.515 1.813-1.546 3.095-1.016 1.28-2.641 1.968-1.61.688-3.938.688h-4.25zm2.109-1.766h2.047q2.297 0 3.75-.922 1.468-.921 2.172-2.718.703-1.797.671-4.36 0-2.625-.64-4.468-.64-1.86-2-2.844-1.36-1-3.61-1h-2.39v16.312zm14.047 1.735v-19.97h12.219v1.985h-10.11v6.563h8.36v2.047h-8.36v7.39h10.016v1.985h-12.125zm16.61 0v-19.97h11.484v1.954h-9.25v6.266h7.453v1.953h-7.453v9.797h-2.235zM619.468 209.038h2.187l8.375 14.781v-14.78H632.468v.218q-.188.203-.25.422-.047.219-.047.765v18.532h-1.75l-8.797-15.688v15.688h-2.156v-19.938zm22.406 20.297q-2.266 0-3.875-1.187-1.594-1.188-2.437-3.47-.829-2.296-.829-5.562 0-3.172.829-5.453.843-2.281 2.437-3.515 1.61-1.235 3.875-1.235 2.297 0 3.875 1.235 1.594 1.234 2.422 3.515.844 2.281.844 5.453 0 3.266-.844 5.563-.828 2.281-2.422 3.469-1.578 1.187-3.875 1.187zm0-1.953q1.531 0 2.61-.953 1.078-.969 1.64-2.813.578-1.843.578-4.5 0-2.531-.578-4.36-.562-1.843-1.64-2.858-1.079-1.032-2.61-1.032-1.5 0-2.594 1.032-1.093 1.015-1.672 2.859-.562 1.828-.562 4.36 0 2.656.562 4.5.579 1.843 1.672 2.812 1.094.953 2.594.953zm9.89 1.594v-19.938h6.391q2.25 0 3.625.766 1.375.765 2.032 2.031.656 1.266.656 2.844 0 1.14-.36 2.14-.343.985-1.093 1.766-.75.766-1.907 1.188-1.156.406-2.78.406h-4.266v8.797h-2.297zm2.298-10.782h4q1.468 0 2.359-.421.906-.438 1.312-1.22.422-.796.422-1.812 0-1-.422-1.797-.406-.796-1.312-1.296-.89-.5-2.328-.5h-4.031v7.046zm24.64 15.422q-1.562.063-2.64-.156-1.063-.203-1.72-.75-.655-.531-.952-1.406-.282-.86-.282-2.11-1.609-.218-3.046-1.359-1.438-1.156-2.36-3.328-.906-2.188-.906-5.39 0-2.97.672-4.97.672-2 1.765-3.171 1.094-1.172 2.313-1.657 1.234-.5 2.36-.5 1.343 0 2.64.594 1.297.594 2.297 1.828 1.015 1.219 1.594 3.157.578 1.937.515 4.625 0 2.203-.375 3.953-.36 1.75-1.125 3.03-.75 1.267-1.86 2.079-1.093.797-2.53 1.11.062.703.265 1.25.203.546.703.843.5.313 1.391.313l2.594-.157-.063 2.172h-1.25zm-4.64-6.406q.843 0 1.671-.39.829-.407 1.516-1.313.688-.922 1.11-2.375.437-1.453.437-3.563 0-2.687-.469-4.39-.453-1.719-1.203-2.672-.75-.969-1.61-1.344-.843-.39-1.609-.39-1.25 0-2.187.656-.922.656-1.531 1.765-.594 1.094-.907 2.5-.297 1.407-.297 2.938 0 2.531.594 4.469.61 1.937 1.75 3.03 1.14 1.079 2.735 1.079zm9.609 1.766v-19.938h5.89q2.36 0 3.813.703 1.453.703 2.125 1.985.672 1.28.672 3.015 0 1.11-.5 2.235-.484 1.125-1.406 1.953-.906.828-2.156 1.156l4.609 8.89h-2.484l-4.422-8.796h-3.875v8.797h-2.266zm2.266-10.782h3.875q2.14 0 3.093-.937.97-.953.97-2.516 0-1-.423-1.812-.406-.813-1.312-1.297-.89-.484-2.328-.484h-3.875v7.046zm19.843 11.094q-1.953 0-3.515-.625-1.547-.64-2.735-1.89l1.157-2.016.125-.297.234.125q.063.234.156.516.094.265.453.64.829.703 1.922 1.125 1.11.407 2.516.407.906 0 1.656-.266.75-.266 1.313-.734.562-.47.859-1.094.313-.625.313-1.328 0-.532-.125-.985-.11-.453-.422-.812-.297-.375-.813-.735-.5-.375-1.312-.78-.797-.423-1.907-.907-2.078-.797-3.28-1.734-1.204-.954-1.704-2-.5-1.063-.5-2.188 0-1.469.734-2.562.75-1.11 2.11-1.735 1.36-.625 3.25-.625 1.078 0 2.078.313 1.016.297 1.89.843.891.532 1.563 1.329l-1.25 1.671-.187.25-.204-.125q-.03-.25-.125-.5-.093-.265-.437-.656-.781-.734-1.64-1-.86-.281-2.048-.281-.796 0-1.421.234-.625.219-1.079.64-.437.407-.687.938-.234.532-.234 1.11 0 .547.125 1 .125.437.437.86.328.405.89.827.563.422 1.407.844.844.406 2.062.875 1.485.61 2.454 1.203.968.594 1.53 1.25.563.656.798 1.422.25.766.25 1.703 0 1.375-.688 2.703-.687 1.328-2.172 2.188-1.468.86-3.797.86z"/><path fill="none" d="M752.808 150.856h176.095v87.307H752.808z"/><path fill="#000" d="M773.23 184.748h-7.234l.453-1.72h6.266l.515 1.72zm-3.453-9.344-5.25 15.172h-2.203l7.36-20.282h.25l7.359 20.282h-2.297l-5.219-15.172zm9.563 15.172v-19.938h5.672q1.718 0 2.968.36 1.25.343 2.063.984.828.64 1.203 1.547.39.89.39 1.937 0 .938-.343 1.828-.328.891-.985 1.563-.656.672-1.625 1.031.844.281 1.532.797.687.516 1.172 1.203.5.688.765 1.469.281.781.281 1.625 0 1.234-.453 2.281-.437 1.047-1.36 1.781-.905.735-2.312 1.141-1.406.39-3.328.39h-5.64zm2.218-1.953h3.797q1.407 0 2.47-.36 1.062-.375 1.64-1.203.593-.844.593-2.219 0-1.172-.515-2.078-.5-.922-1.64-1.453-1.141-.531-3.079-.531h-3.266v7.844zm0-9.735h3.125q1.766 0 2.782-.406 1.03-.422 1.468-1.14.454-.72.454-1.61 0-.672-.235-1.25-.234-.578-.75-1-.515-.438-1.344-.688-.828-.265-2.015-.265h-3.485v6.36zm21.375 12q-1.64 0-3.046-.578-1.407-.594-2.485-1.844-1.062-1.25-1.672-3.172-.609-1.921-.609-4.578 0-2.328.437-4.078.454-1.75 1.22-2.922.78-1.187 1.765-1.89 1-.703 2.078-1.016 1.094-.328 2.172-.328 2.187 0 3.719 1.078 1.53 1.063 2.312 2.86l-1.922.89-.297.125-.093-.219q.093-.25 0-.453-.094-.219-.344-.672-.813-1.078-1.656-1.437-.844-.375-1.782-.375-1.234 0-2.25.562-1.015.547-1.734 1.625-.719 1.063-1.094 2.61-.36 1.53-.36 3.484 0 1.89.438 3.422.438 1.531 1.188 2.656.75 1.125 1.75 1.735 1.015.609 2.172.609.797 0 1.547-.281.75-.297 1.39-.86.64-.562 1.094-1.297l1.656 1.094q-.953 1.594-2.297 2.422-1.343.828-3.297.828zm8.61-.281v-19.969h4.64q1.72 0 2.907.328 1.187.313 2.015.907.828.593 1.47 1.484.671.906 1.093 2.031.437 1.11.64 2.438.22 1.328.22 2.89-.095 2.313-.61 4.14-.516 1.813-1.547 3.095-1.016 1.28-2.64 1.968-1.61.688-3.938.688h-4.25zm2.11-1.766h2.046q2.297 0 3.75-.922 1.469-.921 2.172-2.718.703-1.797.672-4.36 0-2.625-.64-4.468-.641-1.86-2-2.844-1.36-1-3.61-1h-2.39v16.312zm14.046 1.735v-19.97h12.219v1.985h-10.11v6.563h8.36v2.047h-8.36v7.39h10.016v1.985H827.7zm16.61 0v-19.97h11.484v1.954h-9.25v6.266h7.453v1.953h-7.453v9.797h-2.234zM768.074 229.335q-1.406 0-2.594-.562-1.172-.563-2.11-1.657l1.282-1.593.235-.266.156.14q.031.282.14.516.11.219.532.563.547.422 1.093.656.563.219 1.266.219 1.094 0 1.766-.485.672-.484.984-1.578.328-1.11.328-2.969v-11.39h-3.844v-1.89h9.125v1.89h-3.078v11.36q.063 1.921-.36 3.265-.405 1.344-1.171 2.187-.766.844-1.734 1.219-.953.375-2.016.375zm15.047-10.344-1.563 1.735v8.25h-2.406v-19.938h2.688v.219q-.188.203-.235.422-.047.219-.047.765v7.782l8.313-9.344.375.062q.203.032.406.047l.438.032q.218.015.453.015h.828l-7.547 8.61 8.063 11.328-2.891.125-6.875-10.11zm12.797-9.953h2.625v.219q-.188.203-.235.422-.046.219-.046.765v16.61h9.593v1.922h-11.937v-19.938zm15.203 19.938v-19.938h1.766l4.921 9.766 5.032-9.797h1.687v19.969h-2.11v-15.047l-4.327 8.031h-.86l-4.03-7.922v14.938h-2.079zm16.281-19.938h2.188l8.375 14.781v-14.78h2.437v.218q-.187.203-.25.422-.047.219-.047.765v18.532h-1.75l-8.796-15.688v15.688h-2.157v-19.938zm22.407 20.297q-2.266 0-3.875-1.187-1.594-1.188-2.438-3.47-.828-2.296-.828-5.562 0-3.172.828-5.453.844-2.281 2.438-3.515 1.609-1.235 3.875-1.235 2.296 0 3.875 1.235 1.593 1.234 2.421 3.515.844 2.281.844 5.453 0 3.266-.844 5.563-.828 2.281-2.421 3.469-1.579 1.187-3.875 1.187zm0-1.953q1.53 0 2.609-.953 1.078-.969 1.64-2.813.579-1.843.579-4.5 0-2.531-.578-4.36-.563-1.843-1.641-2.858-1.078-1.032-2.61-1.032-1.5 0-2.593 1.032-1.094 1.015-1.672 2.859-.563 1.828-.563 4.36 0 2.656.563 4.5.578 1.843 1.672 2.812 1.094.953 2.594.953z"/><path fill="none" d="M902.764 134.3h167.212v87.306H902.764z"/><path fill="#000" d="M923.186 168.191h-7.235l.453-1.719h6.266l.516 1.72zm-3.453-9.344-5.25 15.172h-2.204l7.36-20.281h.25l7.36 20.281h-2.298l-5.218-15.172zm9.562 15.172v-19.937h5.672q1.719 0 2.969.36 1.25.343 2.062.983.828.641 1.203 1.547.39.891.39 1.938 0 .937-.343 1.828-.328.89-.984 1.562-.656.672-1.625 1.032.844.281 1.531.797.688.515 1.172 1.203.5.687.766 1.468.28.782.28 1.625 0 1.235-.452 2.282-.438 1.047-1.36 1.781-.906.734-2.312 1.14-1.406.391-3.328.391h-5.641zm2.219-1.953h3.797q1.406 0 2.468-.36 1.063-.374 1.641-1.202.594-.844.594-2.22 0-1.171-.516-2.077-.5-.922-1.64-1.453-1.141-.532-3.079-.532h-3.265v7.844zm0-9.734h3.125q1.765 0 2.781-.407 1.031-.421 1.469-1.14.453-.719.453-1.61 0-.671-.234-1.25-.235-.578-.75-1-.516-.437-1.344-.687-.828-.266-2.016-.266h-3.484v6.36zm21.375 12q-1.64 0-3.047-.578-1.406-.594-2.484-1.844-1.063-1.25-1.672-3.172-.61-1.922-.61-4.578 0-2.328.438-4.078.453-1.75 1.219-2.922.78-1.188 1.765-1.89 1-.704 2.078-1.016 1.094-.329 2.172-.329 2.188 0 3.719 1.079 1.531 1.062 2.312 2.859l-1.921.89-.297.126-.094-.22q.094-.25 0-.452-.094-.219-.344-.672-.812-1.078-1.656-1.438-.844-.375-1.781-.375-1.235 0-2.25.563-1.016.547-1.735 1.625-.718 1.062-1.093 2.61-.36 1.53-.36 3.484 0 1.89.438 3.421.437 1.532 1.187 2.657t1.75 1.734q1.016.61 2.172.61.797 0 1.547-.282.75-.297 1.39-.86.641-.562 1.094-1.296l1.657 1.094q-.954 1.593-2.297 2.422-1.344.828-3.297.828zM918.295 204.974q-1.203 0-2.187-.36-.985-.375-1.704-1.094-.703-.718-1.093-1.78-.375-1.079-.375-2.454 0-1.39.39-2.469.407-1.078 1.094-1.812.688-.735 1.61-1.11.921-.39 1.953-.39.937 0 1.75.312.812.313 1.406.953.61.625.953 1.61.36.984.36 2.328 0 .203-.016.406t-.047.39h-7.797q.047 1.063.36 1.845.312.78.812 1.28.515.485 1.172.72.656.234 1.406.234.578 0 1.078-.125.5-.14.938-.406.453-.282.812-.688l.969.938q-.469.547-1.063.937-.578.375-1.281.547-.687.188-1.5.188zm-3.625-6.813h6.016q0-.766-.203-1.375-.204-.61-.579-1.047-.359-.453-.875-.672-.515-.234-1.171-.234-.579 0-1.094.187-.516.188-.953.61-.422.422-.72 1.047-.296.625-.421 1.484zm10.219 6.578 3.86-5.562-3.782-5.407h1.89l2.86 4.063 2.734-4.063h1.781l-3.562 5.329 4.031 5.64h-1.969l-3.015-4.265-2.86 4.265h-1.968zm15.937.266q-1.875 0-2.89-.844-1-.86-1-2.187 0-.875.437-1.579.438-.718 1.188-1.203.75-.5 1.75-.765 1.015-.266 2.156-.266.406 0 .812.016.422.015.891.047.469.03.984.109l.047 1.312q-.437-.062-.89-.093-.438-.047-.875-.063-.422-.031-.829-.031-.875 0-1.593.156-.719.14-1.25.422-.516.281-.813.75-.281.453-.281 1.094 0 .5.172.86.187.343.5.546.312.203.734.297.422.094.922.094.938 0 1.656-.297.735-.297 1.25-.875.516-.578.782-1.406.265-.844.265-1.922 0-1.64-.39-2.547-.375-.922-1.141-1.297-.75-.39-1.922-.39-.797 0-1.562.312-.766.297-1.391.922l-.844-1.11q.781-.765 1.781-1.14 1.016-.39 2.141-.39 1.078 0 1.969.265.89.25 1.515.875.641.61.985 1.64.36 1.032.36 2.594v5.828h-1.876v-1.687q-.312.61-.765 1-.438.375-.954.578-.5.203-1.03.281-.516.094-1 .094zm7.844-.266V193.77h1.594v1.079q.265-.407.609-.704.344-.296.766-.468.422-.172.859-.172.469 0 .875.203.422.203.688.562.28.36.375.844.218-.484.578-.844.375-.359.859-.562.5-.203 1.031-.203.563 0 .969.219.406.218.672.593.266.36.375.875.125.516.094 1.125v8.422h-1.578v-7.781q0-1-.141-1.453-.125-.469-.375-.594-.234-.125-.516-.125-.453 0-.86.422-.39.406-.64 1.031-.25.625-.25 1.25v7.25h-1.61v-7.625q0-1.375-.25-1.828-.25-.453-.952-.453-.266 0-.547.187-.266.172-.516.5-.234.313-.375.797-.14.485-.14 1.11v7.312h-1.594zm12.531 4.016V193.77h1.75v2.157q.266-.828.75-1.36.5-.53 1.156-.78.672-.25 1.438-.25.906 0 1.734.343.828.344 1.469 1.047.64.687 1 1.75.375 1.047.375 2.5 0 1.437-.406 2.547-.39 1.093-1.047 1.828-.656.734-1.484 1.11-.829.358-1.688.358-.656 0-1.266-.203-.609-.203-1.125-.593-.5-.391-.875-.922v5.453h-1.78zm4.75-5.266q.578 0 1.125-.203.563-.203 1.016-.672.453-.484.719-1.312.265-.828.265-2.063 0-1.312-.344-2.234-.328-.922-.968-1.422-.625-.516-1.547-.563-.672-.046-1.266.204-.578.234-1.031.78-.453.548-.719 1.454-.25.89-.25 2.172.031.765.172 1.39.14.625.406 1.094.266.469.625.766.36.297.813.453.453.156.984.156zm7.703 1.25v-1.39h3.25v-13.172h-3.094v-1.39h4.844v14.562h3.219v1.39h-8.219zm16.64.235q-1.202 0-2.187-.36-.984-.375-1.703-1.094-.703-.718-1.094-1.78-.375-1.079-.375-2.454 0-1.39.391-2.469.406-1.078 1.094-1.812.687-.735 1.61-1.11.921-.39 1.952-.39.938 0 1.75.312.813.313 1.407.953.609.625.953 1.61.36.984.36 2.328 0 .203-.017.406-.015.203-.046.39h-7.797q.047 1.063.36 1.845.312.78.812 1.28.515.485 1.171.72.657.234 1.407.234.578 0 1.078-.125.5-.14.937-.406.453-.282.813-.688l.969.938q-.47.547-1.063.937-.578.375-1.281.547-.688.188-1.5.188zm-3.624-6.813h6.015q0-.766-.203-1.375-.203-.61-.578-1.047-.36-.453-.875-.672-.515-.234-1.172-.234-.578 0-1.093.187-.516.188-.954.61-.421.422-.718 1.047t-.422 1.484zm28.265 6.75q-1.046 0-1.718-.36-.672-.359-1.032-1.109-.359-.765-.468-1.922-.11-1.156-.063-2.734l.281-7.828 1.797-.203.25-.031.016.171q-.11.157-.203.329-.078.171-.125.578l-.219 2.718.078.422-.172 3.97q-.078 1.812.094 2.812.172 1 .594 1.375.437.375 1.156.375.797 0 1.406-.313.61-.312 1.282-.797l.53 1.36q-.812.609-1.687.906-.86.281-1.797.281zm-5.484-11.14h7.89v1.421h-7.89v-1.422zm16.844 11.203q-1.203 0-2.188-.36-.984-.375-1.703-1.094-.703-.718-1.094-1.78-.375-1.079-.375-2.454 0-1.39.391-2.469.406-1.078 1.094-1.812.687-.735 1.61-1.11.921-.39 1.952-.39.938 0 1.75.312.813.313 1.407.953.609.625.953 1.61.359.984.359 2.328 0 .203-.016.406-.015.203-.046.39h-7.797q.046 1.063.359 1.845.312.78.812 1.28.516.485 1.172.72.657.234 1.407.234.578 0 1.078-.125.5-.14.937-.406.453-.282.813-.688l.969.938q-.47.547-1.063.937-.578.375-1.281.547-.688.188-1.5.188zm-3.625-6.813h6.015q0-.766-.203-1.375-.203-.61-.578-1.047-.36-.453-.875-.672-.515-.234-1.172-.234-.578 0-1.093.187-.516.188-.954.61-.422.422-.718 1.047-.297.625-.422 1.484zm10.218 6.578 3.86-5.562-3.781-5.407h1.89l2.86 4.063 2.734-4.063h1.781l-3.562 5.329 4.03 5.64h-1.968l-3.015-4.265-2.86 4.265h-1.969zm15.86 0V191.27h-4.235v-1.5h10.36v1.5h-4.406v13.47h-1.72zM917.686 237.664q-1.141 0-2.078-.187-.922-.172-1.579-.516-.656-.344-1.015-.875-.344-.531-.344-1.25 0-.672.281-1.203.297-.531.766-.875.469-.344 1.016-.516l.734.438q-.438.265-.703.531-.266.25-.39.594-.11.36-.11.844 0 .406.234.718.235.328.672.547.453.219 1.094.328.64.125 1.453.125 1.11 0 1.781-.234.688-.219 1.016-.625.344-.39.344-.89 0-.532-.188-.876-.187-.328-.797-.484-.594-.172-1.828-.172-.828 0-1.531-.062-.688-.079-1.25-.25-.547-.172-.922-.422t-.563-.61q-.187-.359-.187-.843 0-.625.344-1.204.343-.578.953-1.093l.812.64q-.234.266-.39.47-.141.202-.203.39-.063.172-.063.39 0 .391.297.625.312.235 1.047.344.75.11 2.015.11 1.282 0 2.063.203.797.203 1.219.593.422.375.593.891.172.5.172 1.094 0 .656-.265 1.234-.25.594-.797 1.063-.547.468-1.469.734-.906.281-2.234.281zm-.5-7.844q-1.172 0-2.047-.515-.86-.516-1.328-1.39-.47-.876-.47-1.938 0-1.047.47-1.907.468-.875 1.328-1.39.875-.516 2.047-.516 1.203 0 2.047.516.859.515 1.328 1.39.468.86.468 1.907 0 1.062-.468 1.937-.47.875-1.328 1.39-.844.516-2.047.516zm0-1.437q.703 0 1.234-.328.547-.328.86-.875.312-.547.312-1.203 0-.672-.313-1.203-.312-.547-.859-.86-.531-.328-1.234-.328-.688 0-1.235.328-.547.313-.86.86-.296.53-.296 1.203 0 .656.297 1.203.312.547.86.875.546.328 1.234.328zm3.187-4.031-.672-.797q.703-.703 1.453-1.016.766-.328 1.797-.25l.219 1.406q-.797-.062-1.5.063-.687.11-1.297.594zm9.39 9.375q-1.484 0-2.624-.719-1.14-.734-1.797-2.016-.64-1.297-.64-2.953 0-1.672.64-2.953.656-1.297 1.797-2.016 1.14-.734 2.625-.734 1.484 0 2.625.734 1.14.72 1.781 2.016.656 1.281.656 2.953 0 1.656-.656 2.953-.64 1.282-1.781 2.016-1.14.719-2.625.719zm0-1.438q.954 0 1.673-.547.734-.562 1.14-1.515.422-.953.422-2.203t-.422-2.204q-.406-.968-1.14-1.5-.72-.546-1.672-.546-.938 0-1.672.546-.735.532-1.156 1.5-.407.954-.407 2.204 0 1.25.407 2.203.421.953 1.156 1.515.734.547 1.672.547zm12.532 1.485q-1.203 0-2.188-.36-.984-.375-1.703-1.094-.703-.718-1.093-1.78-.375-1.079-.375-2.454 0-1.39.39-2.469.406-1.078 1.094-1.812.687-.735 1.61-1.11.921-.39 1.952-.39.938 0 1.75.312.813.313 1.407.953.61.625.953 1.61.36.984.36 2.328 0 .203-.016.406t-.047.39h-7.797q.047 1.063.36 1.845.312.78.812 1.28.515.485 1.172.72.656.234 1.406.234.578 0 1.078-.125.5-.14.937-.406.454-.282.813-.688l.969.938q-.469.547-1.063.937-.578.375-1.281.547-.688.188-1.5.188zm-3.625-6.813h6.016q0-.766-.204-1.375-.203-.61-.578-1.047-.359-.453-.875-.672-.515-.234-1.172-.234-.578 0-1.093.187-.516.188-.953.61-.422.422-.72 1.047-.296.625-.421 1.484zm15.016 6.813q-1.454 0-2.625-.47-1.157-.484-2.047-1.421l.859-1.516.094-.218.172.109.109.36q.078.202.344.5.625.53 1.453.843.828.313 1.89.313.672 0 1.235-.204.562-.218.984-.562.422-.344.64-.813.235-.468.235-1 0-.406-.093-.734-.079-.344-.313-.61-.219-.28-.61-.562-.374-.281-.984-.578-.593-.312-1.437-.687-1.563-.594-2.469-1.297-.89-.719-1.266-1.5-.359-.797-.359-1.64 0-1.095.547-1.923.547-.828 1.562-1.297 1.032-.468 2.438-.468.828 0 1.578.234.75.219 1.406.625.672.406 1.172 1.016l-.937 1.234-.141.203-.14-.094q-.032-.203-.11-.39-.062-.188-.328-.485-.578-.547-1.234-.75-.641-.203-1.516-.203-.61 0-1.078.172-.469.156-.813.469-.328.312-.515.719-.172.39-.172.828 0 .406.094.75.093.328.328.64.25.313.672.625.421.313 1.046.625.641.313 1.563.672 1.094.453 1.828.906.734.438 1.156.938.422.484.594 1.062.188.563.188 1.266 0 1.031-.516 2.031-.516.985-1.625 1.641-1.094.64-2.86.64zm19.828-16.188h1.89v.156q-.14.157-.172.328-.03.157-.03.563v5.875q.421-.672 1.015-1.156.593-.5 1.25-.766.656-.281 1.328-.281.984 0 1.734.469.766.453 1.188 1.468.422 1 .422 2.657v6.64h-1.688v-6.594q0-1.156-.266-1.843-.265-.688-.718-.985-.453-.297-1.032-.297-.437 0-.89.141-.453.14-.875.438-.422.28-.766.703-.328.422-.515.953-.188.531-.188 1.172v6.312h-1.687v-15.953zm16.78 16.188q-1.202 0-2.187-.36-.984-.375-1.703-1.094-.703-.718-1.094-1.78-.375-1.079-.375-2.454 0-1.39.391-2.469.406-1.078 1.094-1.812.687-.735 1.61-1.11.921-.39 1.952-.39.938 0 1.75.312.813.313 1.407.953.609.625.953 1.61.36.984.36 2.328 0 .203-.017.406-.015.203-.046.39h-7.797q.047 1.063.36 1.845.312.78.812 1.28.515.485 1.171.72.657.234 1.407.234.578 0 1.078-.125.5-.14.937-.406.453-.282.813-.688l.969.938q-.47.547-1.063.937-.578.375-1.281.547-.688.188-1.5.188zm-3.624-6.813h6.015q0-.766-.203-1.375-.203-.61-.578-1.047-.36-.453-.875-.672-.515-.234-1.172-.234-.578 0-1.093.187-.516.188-.954.61-.421.422-.718 1.047t-.422 1.484zm11.953-4.39h1.797l-.078 3.187-.203-.36q.14-.734.5-1.312.359-.578.859-.969.5-.406 1.094-.609.61-.203 1.265-.203.86 0 1.594.312.734.297 1.297.891l-.766 1.344-.093.218-.172-.093q-.047-.203-.14-.36-.095-.172-.407-.422-.375-.234-.703-.312-.328-.094-.735-.094-.593 0-1.203.235-.594.234-1.094.718-.484.47-.78 1.22-.282.733-.282 1.765v5.843h-1.75v-11zm15.672 11.203q-1.203 0-2.188-.36-.984-.375-1.703-1.094-.703-.718-1.094-1.78-.375-1.079-.375-2.454 0-1.39.391-2.469.406-1.078 1.094-1.812.687-.735 1.61-1.11.921-.39 1.952-.39.938 0 1.75.312.813.313 1.407.953.609.625.953 1.61.36.984.36 2.328 0 .203-.017.406-.015.203-.046.39h-7.797q.047 1.063.36 1.845.312.78.812 1.28.515.485 1.171.72.657.234 1.407.234.578 0 1.078-.125.5-.14.937-.406.453-.282.813-.688l.969.938q-.47.547-1.063.937-.578.375-1.281.547-.688.188-1.5.188zm-3.625-6.813h6.015q0-.766-.203-1.375-.203-.61-.578-1.047-.36-.453-.875-.672-.515-.234-1.172-.234-.578 0-1.093.187-.516.188-.954.61-.421.422-.718 1.047t-.422 1.484z"/><path fill="none" d="M1069.976 150.856h176.095v87.307h-176.095z"/><path fill="#000" d="M1090.398 184.748h-7.234l.453-1.72h6.266l.515 1.72zm-3.453-9.344-5.25 15.172h-2.203l7.36-20.282h.25l7.359 20.282h-2.297l-5.219-15.172zm9.563 15.172v-19.938h5.672q1.718 0 2.968.36 1.25.343 2.063.984.828.64 1.203 1.547.39.89.39 1.937 0 .938-.343 1.828-.328.891-.985 1.563-.656.672-1.625 1.031.844.281 1.532.797.687.516 1.172 1.203.5.688.765 1.469.281.781.281 1.625 0 1.234-.453 2.281-.437 1.047-1.36 1.781-.905.735-2.312 1.141-1.406.39-3.328.39h-5.64zm2.218-1.953h3.797q1.407 0 2.47-.36 1.062-.375 1.64-1.203.593-.844.593-2.219 0-1.172-.515-2.078-.5-.922-1.64-1.453-1.141-.531-3.079-.531h-3.266v7.844zm0-9.735h3.125q1.766 0 2.782-.406 1.03-.422 1.468-1.14.454-.72.454-1.61 0-.672-.235-1.25-.234-.578-.75-1-.515-.438-1.344-.688-.828-.265-2.015-.265h-3.485v6.36zm21.375 12q-1.64 0-3.046-.578-1.407-.594-2.485-1.844-1.062-1.25-1.672-3.172-.61-1.921-.61-4.578 0-2.328.438-4.078.454-1.75 1.22-2.922.78-1.187 1.765-1.89 1-.703 2.078-1.016 1.094-.328 2.172-.328 2.187 0 3.719 1.078 1.53 1.063 2.312 2.86l-1.922.89-.297.125-.093-.219q.093-.25 0-.453-.094-.219-.344-.672-.813-1.078-1.656-1.437-.844-.375-1.782-.375-1.234 0-2.25.562-1.015.547-1.734 1.625-.719 1.063-1.094 2.61-.36 1.53-.36 3.484 0 1.89.438 3.422.438 1.531 1.188 2.656.75 1.125 1.75 1.735 1.015.609 2.172.609.797 0 1.547-.281.75-.297 1.39-.86.64-.562 1.094-1.297l1.656 1.094q-.953 1.594-2.297 2.422-1.343.828-3.297.828zm8.61-.281v-19.969h4.64q1.72 0 2.907.328 1.187.313 2.015.907.828.593 1.47 1.484.67.906 1.093 2.031.437 1.11.64 2.438.22 1.328.22 2.89-.095 2.313-.61 4.14-.516 1.813-1.547 3.095-1.016 1.28-2.64 1.968-1.61.688-3.938.688h-4.25zm2.11-1.766h2.046q2.297 0 3.75-.922 1.469-.921 2.172-2.718.703-1.797.672-4.36 0-2.625-.64-4.468-.641-1.86-2-2.844-1.36-1-3.61-1h-2.39v16.312zm14.046 1.735v-19.97h12.219v1.985h-10.11v6.563h8.36v2.047h-8.36v7.39h10.016v1.985h-12.125zm16.61 0v-19.97h11.484v1.954h-9.25v6.266h7.453v1.953h-7.453v9.797h-2.234zM1080.57 227.413l10.047-16.36h-9.656v-2.015h12.312v1.563l-9.875 16.39h8.985q.546 0 .765-.062.235-.063.422-.25h.219v2.297h-13.219v-1.563zm16-18.375h2.188l8.375 14.781v-14.78h2.437v.218q-.187.203-.25.422-.047.219-.047.765v18.532h-1.75l-8.797-15.688v15.688h-2.156v-19.938zm16.297 19.938v-19.97h12.219v1.985h-10.11v6.563h8.36v2.047h-8.36v7.39h10.016v1.985h-12.125zm22.11.359q-2.266 0-3.876-1.187-1.593-1.188-2.437-3.47-.828-2.296-.828-5.562 0-3.172.828-5.453.844-2.281 2.437-3.515 1.61-1.235 3.875-1.235 2.297 0 3.875 1.235 1.594 1.234 2.422 3.515.844 2.281.844 5.453 0 3.266-.844 5.563-.828 2.281-2.422 3.469-1.578 1.187-3.875 1.187zm0-1.953q1.53 0 2.609-.953 1.078-.969 1.64-2.813.579-1.843.579-4.5 0-2.531-.579-4.36-.562-1.843-1.64-2.858-1.078-1.032-2.61-1.032-1.5 0-2.593 1.032-1.094 1.015-1.672 2.859-.563 1.828-.563 4.36 0 2.656.563 4.5.578 1.843 1.672 2.812 1.093.953 2.593.953zm15.906 1.906q-1.953 0-3.516-.625-1.547-.64-2.734-1.89l1.156-2.016.125-.297.234.125q.063.234.157.516.093.265.453.64.828.703 1.922 1.125 1.109.407 2.515.407.906 0 1.656-.266.75-.266 1.313-.734.562-.47.86-1.094.312-.625.312-1.328 0-.532-.125-.985-.11-.453-.422-.812-.297-.375-.813-.735-.5-.375-1.312-.78-.797-.423-1.906-.907-2.078-.797-3.282-1.734-1.203-.954-1.703-2-.5-1.063-.5-2.188 0-1.469.735-2.562.75-1.11 2.11-1.735 1.358-.625 3.25-.625 1.077 0 2.077.313 1.016.297 1.89.843.891.532 1.563 1.329l-1.25 1.671-.187.25-.203-.125q-.032-.25-.125-.5-.094-.265-.438-.656-.781-.734-1.64-1-.86-.281-2.047-.281-.797 0-1.422.234-.625.219-1.078.64-.438.407-.688.938-.234.532-.234 1.11 0 .547.125 1 .125.437.437.86.328.405.891.827.562.422 1.406.844.844.406 2.063.875 1.484.61 2.453 1.203.969.594 1.531 1.25.563.656.797 1.422.25.766.25 1.703 0 1.375-.688 2.703-.687 1.328-2.171 2.188-1.47.86-3.797.86zm15.672-.187-6.782-20.094h2.344l5.11 15.328 4.843-15.297h2.203l-6.687 20.063h-1.031z"/><path fill="none" d="M560.436 382.084h257.92v87.307h-257.92z"/><path fill="#000" d="M580.858 415.976h-7.235l.453-1.719h6.266l.516 1.719zm-3.454-9.344-5.25 15.172h-2.203l7.36-20.281h.25l7.359 20.281h-2.297l-5.219-15.172zm9.563 15.172v-19.938h5.672q1.719 0 2.969.36 1.25.344 2.062.984.828.64 1.203 1.547.39.89.39 1.938 0 .937-.343 1.828-.328.89-.984 1.562-.657.672-1.625 1.031.843.282 1.531.797.687.516 1.172 1.203.5.688.765 1.47.282.78.282 1.624 0 1.235-.453 2.281-.438 1.047-1.36 1.782-.906.734-2.312 1.14-1.407.391-3.328.391h-5.641zm2.219-1.953h3.797q1.406 0 2.468-.36 1.063-.375 1.641-1.203.594-.843.594-2.218 0-1.172-.516-2.079-.5-.921-1.64-1.453-1.141-.53-3.079-.53h-3.265v7.843zm0-9.735h3.125q1.765 0 2.781-.406 1.031-.422 1.469-1.14.453-.72.453-1.61 0-.672-.235-1.25-.234-.578-.75-1-.515-.437-1.343-.687-.828-.266-2.016-.266h-3.484v6.36zm21.375 12q-1.64 0-3.047-.578-1.406-.593-2.485-1.843-1.062-1.25-1.671-3.172-.61-1.922-.61-4.578 0-2.329.438-4.079.453-1.75 1.218-2.921.782-1.188 1.766-1.891 1-.703 2.078-1.016 1.094-.328 2.172-.328 2.188 0 3.719 1.078 1.531 1.063 2.312 2.86l-1.922.89-.296.125-.094-.218q.094-.25 0-.454-.094-.218-.344-.671-.812-1.079-1.656-1.438-.844-.375-1.781-.375-1.235 0-2.25.563-1.016.546-1.735 1.625-.719 1.062-1.094 2.609-.359 1.531-.359 3.484 0 1.891.438 3.422.437 1.531 1.187 2.656.75 1.125 1.75 1.735 1.016.61 2.172.61.797 0 1.547-.282.75-.297 1.39-.86.641-.562 1.094-1.296l1.656 1.093q-.953 1.594-2.296 2.422-1.344.828-3.297.828zm8.61-.28v-19.97h4.64q1.719 0 2.906.329 1.188.312 2.016.906.828.594 1.468 1.484.672.906 1.094 2.031.438 1.11.64 2.438.22 1.328.22 2.89-.094 2.313-.61 4.141-.515 1.813-1.547 3.094-1.015 1.281-2.64 1.969-1.61.687-3.938.687h-4.25zm2.109-1.766h2.046q2.297 0 3.75-.922 1.47-.922 2.172-2.719.703-1.797.672-4.36 0-2.624-.64-4.468-.641-1.86-2-2.844-1.36-1-3.61-1h-2.39v16.313zm14.046 1.734v-19.969h12.22v1.985h-10.11v6.562h8.36v2.047h-8.36v7.39h10.015v1.985h-12.125zm16.61 0v-19.969h11.484v1.953h-9.25v6.266h7.453v1.953h-7.453v9.797h-2.234zm22.36.312q-2.36 0-4.11-1.234-1.735-1.25-2.672-3.516-.922-2.28-.922-5.296-.031-2.579.453-4.391.5-1.813 1.328-2.984.844-1.188 1.86-1.86 1.031-.672 2.062-.922 1.047-.265 1.906-.265 1.188 0 2.313.437 1.14.422 2.078 1.156.953.735 1.5 1.766l-1.562 1.25-.266.219-.125-.188q.031-.265-.078-.468-.11-.204-.469-.625-.469-.547-.984-.891-.516-.36-1.11-.516-.593-.156-1.328-.156-.86 0-1.672.234-.797.235-1.468.797-.672.563-1.188 1.5-.5.922-.781 2.266-.266 1.344-.266 3.172 0 2.078.375 3.672.39 1.578 1.11 2.672.718 1.078 1.718 1.64 1.016.563 2.297.563.453 0 .938-.063.5-.078 1-.219.5-.14.968-.375.485-.25.875-.562v-4.734h-3.609v-1.954h5.688v7.797q-1.407 1.032-2.875 1.563-1.47.515-2.985.515zm8.734-20.25h2.625v.22q-.188.202-.235.421-.047.219-.047.766v7.11h7.813v-8.517h2.625v.22q-.203.202-.25.421-.047.219-.047.766v18.531h-2.36v-9.5h-7.78v9.5h-2.344v-19.938zm17 19.938v-1.89h3.937v-16.157h-3.719v-1.89h9.891v1.89h-3.937v16.188h4.125v1.859H700.03zm19.672.36q-1.407 0-2.594-.563-1.172-.563-2.11-1.656l1.282-1.594.234-.266.156.14q.032.282.141.516.11.22.531.563.547.422 1.094.656.562.219 1.266.219 1.093 0 1.765-.484.672-.485.985-1.579.328-1.109.328-2.968v-11.39h-3.844v-1.892h9.125v1.891h-3.078v11.36q.062 1.921-.36 3.265-.406 1.344-1.171 2.188-.766.843-1.735 1.218-.953.375-2.015.375zm15.046-10.344-1.562 1.734v8.25h-2.406v-19.938h2.687v.22q-.187.202-.234.421-.047.219-.047.766v7.781l8.312-9.344.375.063q.204.031.407.047l.437.03q.219.016.453.016h.828l-7.546 8.61 8.062 11.328-2.89.125-6.876-10.11zm12.797-9.954h2.625v.22q-.187.202-.234.421-.047.219-.047.766v16.61h9.594v1.921h-11.938v-19.938zM572.03 460.204v-1.89h3.937v-16.157h-3.719v-1.89h9.89v1.89h-3.937v16.188h4.125v1.859H572.03zm20.062 0v-17.953h-5.672v-2.016h13.828v2.016h-5.89v17.953h-2.266zm13.094 0-3.203-19.938h2.078l2.14 13.47 3.203-12h.704l3.234 12.062 1.828-13.532h1.875l-3.156 19.938h-.875l-3.422-13.031-3.484 13.031h-.922zm23.672-5.828h-7.235l.453-1.719h6.266l.516 1.719zm-3.453-9.344-5.25 15.172h-2.204l7.36-20.281h.25l7.36 20.281h-2.298l-5.218-15.172zm15.937 15.484q-1.953 0-3.516-.625-1.546-.64-2.734-1.89l1.156-2.016.125-.297.235.125q.062.235.156.516.094.266.453.64.828.704 1.922 1.126 1.11.406 2.516.406.906 0 1.656-.266.75-.265 1.312-.734.563-.469.86-1.094.312-.625.312-1.328 0-.531-.125-.984-.11-.454-.422-.813-.297-.375-.812-.734-.5-.375-1.313-.782-.797-.421-1.906-.906-2.078-.797-3.281-1.734-1.203-.953-1.703-2-.5-1.063-.5-2.188 0-1.468.734-2.562.75-1.11 2.11-1.735 1.359-.625 3.25-.625 1.078 0 2.078.313 1.015.297 1.89.844.89.531 1.563 1.328l-1.25 1.672-.188.25-.203-.125q-.031-.25-.125-.5-.094-.266-.437-.657-.782-.734-1.641-1-.86-.28-2.047-.28-.797 0-1.422.234-.625.218-1.078.64-.437.406-.687.938-.235.531-.235 1.11 0 .546.125 1 .125.437.438.858.328.407.89.829.563.421 1.407.843.843.407 2.062.875 1.484.61 2.453 1.203.969.594 1.531 1.25.563.657.797 1.422.25.766.25 1.703 0 1.375-.687 2.704-.688 1.328-2.172 2.187-1.469.86-3.797.86zm19.516-6.14h-7.235l.453-1.719h6.266l.516 1.719zm-3.453-9.344-5.25 15.172h-2.204l7.36-20.281h.25l7.36 20.281h-2.298l-5.218-15.172zm9.625-4.766h2.625v.22q-.188.202-.235.421-.047.219-.047.766v7.11h7.813v-8.517h2.625v.22q-.203.202-.25.421-.047.219-.047.766v18.531h-2.36v-9.5h-7.78v9.5h-2.344v-19.938zm22.406 20.297q-2.266 0-3.875-1.187-1.594-1.188-2.438-3.469-.828-2.297-.828-5.562 0-3.172.828-5.454.844-2.28 2.438-3.515 1.61-1.235 3.875-1.235 2.297 0 3.875 1.235 1.594 1.234 2.422 3.515.844 2.282.844 5.454 0 3.265-.844 5.562-.828 2.281-2.422 3.469-1.578 1.187-3.875 1.187zm0-1.953q1.531 0 2.61-.953 1.077-.969 1.64-2.812.578-1.844.578-4.5 0-2.532-.578-4.36-.563-1.844-1.64-2.86-1.079-1.03-2.61-1.03-1.5 0-2.594 1.03-1.094 1.016-1.672 2.86-.562 1.828-.562 4.36 0 2.656.562 4.5.578 1.843 1.672 2.812 1.094.953 2.594.953zm9.531 1.594v-19.938h5.672q1.719 0 2.969.36 1.25.344 2.062.984.828.64 1.203 1.547.391.89.391 1.938 0 .937-.344 1.828-.328.89-.984 1.562-.656.672-1.625 1.031.844.282 1.531.797.688.516 1.172 1.203.5.688.766 1.47.28.78.28 1.624 0 1.235-.452 2.281-.438 1.047-1.36 1.782-.906.734-2.312 1.14-1.406.391-3.328.391h-5.64zm2.219-1.953h3.797q1.406 0 2.469-.36 1.062-.375 1.64-1.203.594-.843.594-2.218 0-1.172-.516-2.079-.5-.921-1.64-1.453-1.141-.53-3.078-.53h-3.266v7.843zm0-9.735h3.125q1.766 0 2.781-.406 1.031-.422 1.469-1.14.453-.72.453-1.61 0-.672-.234-1.25-.235-.578-.75-1-.516-.437-1.344-.687-.828-.266-2.016-.266h-3.484v6.36zm13.781 11.688v-19.938h5.672q1.719 0 2.969.36 1.25.344 2.062.984.828.64 1.203 1.547.391.89.391 1.938 0 .937-.344 1.828-.328.89-.984 1.562-.656.672-1.625 1.031.844.282 1.531.797.688.516 1.172 1.203.5.688.766 1.47.281.78.281 1.624 0 1.235-.453 2.281-.438 1.047-1.36 1.782-.906.734-2.312 1.14-1.406.391-3.328.391h-5.64zm2.219-1.953h3.797q1.406 0 2.469-.36 1.062-.375 1.64-1.203.594-.843.594-2.218 0-1.172-.516-2.079-.5-.921-1.64-1.453-1.14-.53-3.078-.53h-3.266v7.843zm0-9.735h3.125q1.766 0 2.781-.406 1.031-.422 1.469-1.14.453-.72.453-1.61 0-.672-.234-1.25-.235-.578-.75-1-.516-.437-1.344-.687-.828-.266-2.016-.266h-3.484v6.36zm14.844 11.688v-1.89h3.937v-16.157h-3.719v-1.89h9.891v1.89h-3.937v16.188h4.125v1.859H732.03zm20.062 0v-17.953h-5.672v-2.016h13.829v2.016h-5.891v17.953h-2.266z"/><path fill="none" d="M794 382.084h257.921v87.307H794z"/><path fill="#000" d="M814.422 415.976h-7.234l.453-1.719h6.265l.516 1.719zm-3.453-9.344-5.25 15.172h-2.203l7.359-20.281h.25l7.36 20.281h-2.297l-5.22-15.172zm9.562 15.172v-19.938h5.672q1.719 0 2.969.36 1.25.344 2.062.984.829.64 1.204 1.547.39.89.39 1.938 0 .937-.344 1.828-.328.89-.984 1.562-.656.672-1.625 1.031.844.282 1.531.797.688.516 1.172 1.203.5.688.766 1.47.281.78.281 1.624 0 1.235-.453 2.281-.438 1.047-1.36 1.782-.906.734-2.312 1.14-1.406.391-3.328.391h-5.64zm2.219-1.953h3.797q1.406 0 2.469-.36 1.062-.375 1.64-1.203.594-.843.594-2.218 0-1.172-.516-2.079-.5-.921-1.64-1.453-1.14-.53-3.078-.53h-3.266v7.843zm0-9.735h3.125q1.766 0 2.781-.406 1.032-.422 1.469-1.14.453-.72.453-1.61 0-.672-.234-1.25-.235-.578-.75-1-.516-.437-1.344-.687-.828-.266-2.016-.266h-3.484v6.36zm21.375 12q-1.64 0-3.047-.578-1.406-.593-2.484-1.843-1.063-1.25-1.672-3.172-.61-1.922-.61-4.578 0-2.329.438-4.079.453-1.75 1.219-2.921.781-1.188 1.765-1.891 1-.703 2.079-1.016 1.093-.328 2.171-.328 2.188 0 3.72 1.078 1.53 1.063 2.312 2.86l-1.922.89-.297.125-.094-.218q.094-.25 0-.454-.094-.218-.344-.671-.812-1.079-1.656-1.438-.844-.375-1.781-.375-1.234 0-2.25.563-1.016.546-1.734 1.625-.72 1.062-1.094 2.609-.36 1.531-.36 3.484 0 1.891.438 3.422.437 1.531 1.187 2.656.75 1.125 1.75 1.735 1.016.61 2.172.61.797 0 1.547-.282.75-.297 1.39-.86.641-.562 1.095-1.296l1.656 1.093q-.953 1.594-2.297 2.422-1.344.828-3.297.828zm8.61-.28v-19.97h4.64q1.719 0 2.906.329 1.188.312 2.016.906.828.594 1.469 1.484.672.906 1.094 2.031.437 1.11.64 2.438.219 1.328.219 2.89-.094 2.313-.61 4.141-.515 1.813-1.546 3.094-1.016 1.281-2.641 1.969-1.61.687-3.937.687h-4.25zm2.109-1.766h2.047q2.297 0 3.75-.922 1.469-.922 2.172-2.719.703-1.797.672-4.36 0-2.624-.641-4.468-.64-1.86-2-2.844-1.36-1-3.61-1h-2.39v16.313zm14.047 1.734v-19.969h12.219v1.985H871v6.562h8.36v2.047H871v7.39h10.016v1.985H868.89zm16.61 0v-19.969h11.484v1.953h-9.25v6.266h7.453v1.953h-7.453v9.797H885.5zm22.359.312q-2.36 0-4.11-1.234-1.734-1.25-2.672-3.516-.922-2.28-.922-5.296-.03-2.579.454-4.391.5-1.813 1.328-2.984.843-1.188 1.86-1.86 1.03-.672 2.062-.922 1.046-.265 1.906-.265 1.187 0 2.312.437 1.141.422 2.078 1.156.954.735 1.5 1.766l-1.562 1.25-.266.219-.125-.188q.032-.265-.078-.468-.11-.204-.469-.625-.468-.547-.984-.891-.516-.36-1.11-.516-.593-.156-1.327-.156-.86 0-1.672.234-.797.235-1.469.797-.672.563-1.188 1.5-.5.922-.78 2.266-.266 1.344-.266 3.172 0 2.078.375 3.672.39 1.578 1.109 2.672.719 1.078 1.719 1.64 1.015.563 2.297.563.453 0 .937-.063.5-.078 1-.219.5-.14.969-.375.484-.25.875-.562v-4.734h-3.61v-1.954h5.688v7.797q-1.406 1.032-2.875 1.563-1.469.515-2.984.515zm8.734-20.25h2.625v.22q-.187.202-.234.421-.047.219-.047.766v7.11h7.812v-8.517h2.625v.22q-.203.202-.25.421-.047.219-.047.766v18.531h-2.359v-9.5h-7.781v9.5h-2.344v-19.938zm17 19.938v-1.89h3.938v-16.157h-3.72v-1.89h9.891v1.89h-3.937v16.188h4.125v1.859h-10.297zm19.672.36q-1.406 0-2.594-.563-1.172-.563-2.11-1.656l1.282-1.594.234-.266.157.14q.03.282.14.516.11.22.532.563.546.422 1.093.656.563.219 1.266.219 1.094 0 1.766-.484.671-.485.984-1.579.328-1.109.328-2.968v-11.39H952.5v-1.892h9.125v1.891h-3.078v11.36q.063 1.921-.36 3.265-.405 1.344-1.171 2.188-.766.843-1.734 1.218-.954.375-2.016.375zm15.047-10.344-1.563 1.734v8.25h-2.406v-19.938h2.688v.22q-.188.202-.235.421-.047.219-.047.766v7.781l8.313-9.344.375.063q.203.031.406.047l.438.03q.218.016.453.016h.828l-7.547 8.61 8.062 11.328-2.89.125-6.875-10.11zm12.797-9.954h2.625v.22q-.188.202-.235.421-.046.219-.046.766v16.61h9.593v1.921H981.11v-19.938zM812.125 460.516q-1.64 0-3.047-.578-1.406-.593-2.484-1.843-1.063-1.25-1.672-3.172-.61-1.922-.61-4.578 0-2.329.438-4.079.453-1.75 1.219-2.921.781-1.188 1.765-1.891 1-.703 2.078-1.016 1.094-.328 2.172-.328 2.188 0 3.72 1.078 1.53 1.063 2.312 2.86l-1.922.89-.297.125-.094-.218q.094-.25 0-.454-.094-.218-.344-.671-.812-1.079-1.656-1.438-.844-.375-1.781-.375-1.235 0-2.25.563-1.016.546-1.735 1.625-.718 1.062-1.093 2.609-.36 1.531-.36 3.484 0 1.891.438 3.422.437 1.531 1.187 2.656.75 1.125 1.75 1.735 1.016.61 2.172.61.797 0 1.547-.282.75-.297 1.39-.86.641-.562 1.095-1.296l1.656 1.093q-.953 1.594-2.297 2.422-1.344.828-3.297.828zm13.14.047q-1.406 0-2.593-.562-1.172-.563-2.11-1.656l1.282-1.594.234-.266.156.14q.032.282.141.516.11.22.531.563.547.422 1.094.656.563.219 1.266.219 1.093 0 1.765-.484.672-.485.985-1.579.328-1.109.328-2.968v-11.39H824.5v-1.892h9.125v1.891h-3.078v11.36q.062 1.921-.36 3.265-.406 1.344-1.171 2.188-.766.843-1.735 1.218-.953.375-2.015.375zm11.532-.359v-19.938h5.89q2.36 0 3.813.704 1.453.703 2.125 1.984.672 1.281.672 3.016 0 1.109-.5 2.234-.484 1.125-1.406 1.953-.907.828-2.157 1.156l4.61 8.891h-2.485l-4.421-8.797h-3.875v8.797h-2.266zm2.266-10.781h3.875q2.14 0 3.093-.938.97-.953.97-2.515 0-1-.423-1.813-.406-.812-1.312-1.297-.89-.484-2.328-.484h-3.875v7.047zm17.25.797-1.563 1.734v8.25h-2.406v-19.938h2.687v.22q-.187.202-.234.421-.047.219-.047.766v7.781l8.313-9.344.375.063q.203.031.406.047l.437.03q.22.016.453.016h.829l-7.547 8.61 8.062 11.328-2.89.125-6.875-10.11zm13.28 9.984v-1.89h3.938v-16.157h-3.718v-1.89h9.89v1.89h-3.937v16.188h4.125v1.859h-10.297zm17.157 0-3.203-19.938h2.078l2.14 13.47 3.204-12h.703l3.234 12.062 1.828-13.532h1.875l-3.156 19.938h-.875l-3.422-13.031-3.484 13.031h-.922zm14.844 0v-1.89h3.937v-16.157h-3.718v-1.89h9.89v1.89h-3.937v16.188h4.125v1.859h-10.297zm15.297 0v-19.938h6.39q2.25 0 3.625.766t2.032 2.031q.656 1.266.656 2.844 0 1.14-.36 2.14-.343.985-1.093 1.766-.75.766-1.906 1.188-1.157.406-2.782.406h-4.265v8.797h-2.297zm2.297-10.781h4q1.468 0 2.36-.422.905-.438 1.312-1.219.421-.797.421-1.812 0-1-.421-1.797-.407-.797-1.313-1.297-.89-.5-2.328-.5h-4.031v7.047zm13.125 10.781 5.437-10.172-5.344-9.797h2.407l4.187 7.578 4.125-7.578h2.25l-5.062 9.766 5.656 10.203h-2.516l-4.422-7.906-4.28 7.906h-2.438zm27.515 4.64q-1.562.063-2.64-.156-1.063-.203-1.719-.75-.656-.53-.953-1.406-.281-.86-.281-2.11-1.61-.218-3.047-1.359-1.438-1.156-2.36-3.328-.906-2.187-.906-5.39 0-2.97.672-4.97.672-2 1.766-3.171 1.093-1.172 2.312-1.656 1.234-.5 2.36-.5 1.343 0 2.64.593 1.297.594 2.297 1.829 1.016 1.218 1.594 3.156.578 1.937.515 4.625 0 2.203-.375 3.953-.359 1.75-1.125 3.031-.75 1.266-1.859 2.078-1.094.797-2.531 1.11.062.703.265 1.25t.703.843q.5.313 1.391.313l2.594-.156-.063 2.172h-1.25zm-4.64-6.406q.843 0 1.672-.39.828-.407 1.515-1.313.688-.922 1.11-2.375.437-1.453.437-3.562 0-2.688-.469-4.39-.453-1.72-1.203-2.673-.75-.969-1.61-1.344-.843-.39-1.609-.39-1.25 0-2.187.656-.922.656-1.531 1.766-.594 1.093-.907 2.5-.296 1.406-.296 2.937 0 2.531.593 4.469.61 1.937 1.75 3.031 1.141 1.078 2.735 1.078zM971 460.563q-2.265 0-3.875-1.187-1.593-1.188-2.437-3.469-.828-2.297-.828-5.562 0-3.172.828-5.454.844-2.28 2.437-3.515 1.61-1.235 3.875-1.235 2.297 0 3.875 1.235 1.594 1.234 2.422 3.515.844 2.282.844 5.454 0 3.265-.844 5.562-.828 2.281-2.422 3.469-1.578 1.187-3.875 1.187zm0-1.953q1.532 0 2.61-.953 1.078-.969 1.64-2.812.578-1.844.578-4.5 0-2.532-.578-4.36-.562-1.844-1.64-2.86-1.078-1.03-2.61-1.03-1.5 0-2.593 1.03-1.094 1.016-1.672 2.86-.563 1.828-.563 4.36 0 2.656.563 4.5.578 1.843 1.672 2.812 1.093.953 2.593.953zm17.125 1.906q-1.64 0-3.047-.578-1.406-.593-2.484-1.843-1.062-1.25-1.672-3.172-.61-1.922-.61-4.578 0-2.329.438-4.079.453-1.75 1.22-2.921.78-1.188 1.765-1.891 1-.703 2.078-1.016 1.094-.328 2.172-.328 2.187 0 3.718 1.078 1.532 1.063 2.313 2.86l-1.922.89-.297.125-.094-.218q.094-.25 0-.454-.093-.218-.343-.671-.813-1.079-1.657-1.438-.843-.375-1.78-.375-1.235 0-2.25.563-1.016.546-1.735 1.625-.719 1.062-1.094 2.609-.36 1.531-.36 3.484 0 1.891.438 3.422.438 1.531 1.188 2.656.75 1.125 1.75 1.735 1.015.61 2.172.61.796 0 1.546-.282.75-.297 1.391-.86.64-.562 1.094-1.296l1.656 1.093q-.953 1.594-2.297 2.422-1.344.828-3.297.828z"/><path fill="none" d="M1036.863 382.084h257.922v87.307h-257.922z"/><path fill="#000" d="M1057.285 415.976h-7.234l.453-1.719h6.266l.515 1.719zm-3.453-9.344-5.25 15.172h-2.203l7.36-20.281h.25l7.359 20.281h-2.297l-5.219-15.172zm9.563 15.172v-19.938h5.672q1.718 0 2.968.36 1.25.344 2.063.984.828.64 1.203 1.547.39.89.39 1.938 0 .937-.343 1.828-.328.89-.984 1.562-.657.672-1.625 1.031.843.282 1.53.797.688.516 1.173 1.203.5.688.765 1.47.282.78.282 1.624 0 1.235-.454 2.281-.437 1.047-1.359 1.782-.906.734-2.312 1.14-1.407.391-3.329.391h-5.64zm2.219-1.953h3.796q1.407 0 2.47-.36 1.062-.375 1.64-1.203.594-.843.594-2.218 0-1.172-.516-2.079-.5-.921-1.64-1.453-1.141-.53-3.079-.53h-3.265v7.843zm0-9.735h3.125q1.765 0 2.78-.406 1.032-.422 1.47-1.14.453-.72.453-1.61 0-.672-.235-1.25-.234-.578-.75-1-.515-.437-1.343-.687-.829-.266-2.016-.266h-3.484v6.36zm21.375 12q-1.641 0-3.047-.578-1.407-.593-2.485-1.843-1.062-1.25-1.672-3.172-.609-1.922-.609-4.578 0-2.329.438-4.079.453-1.75 1.218-2.921.782-1.188 1.766-1.891 1-.703 2.078-1.016 1.094-.328 2.172-.328 2.187 0 3.719 1.078 1.53 1.063 2.312 2.86l-1.922.89-.297.125-.093-.218q.093-.25 0-.454-.094-.218-.344-.671-.813-1.079-1.656-1.438-.844-.375-1.782-.375-1.234 0-2.25.563-1.015.546-1.734 1.625-.719 1.062-1.094 2.609-.36 1.531-.36 3.484 0 1.891.438 3.422.438 1.531 1.188 2.656.75 1.125 1.75 1.735 1.016.61 2.172.61.797 0 1.547-.282.75-.297 1.39-.86.64-.562 1.094-1.296l1.656 1.093q-.953 1.594-2.297 2.422-1.343.828-3.296.828zm8.609-.28v-19.97h4.64q1.72 0 2.907.329 1.187.312 2.016.906.828.594 1.468 1.484.672.906 1.094 2.031.438 1.11.64 2.438.22 1.328.22 2.89-.094 2.313-.61 4.141-.516 1.813-1.547 3.094-1.015 1.281-2.64 1.969-1.61.687-3.938.687h-4.25zm2.11-1.766h2.046q2.297 0 3.75-.922 1.469-.922 2.172-2.719.703-1.797.672-4.36 0-2.624-.64-4.468-.641-1.86-2-2.844-1.36-1-3.61-1h-2.39v16.313zm14.046 1.734v-19.969h12.219v1.985h-10.11v6.562h8.36v2.047h-8.36v7.39h10.016v1.985h-12.125zm16.61 0v-19.969h11.484v1.953h-9.25v6.266h7.453v1.953h-7.453v9.797h-2.234zm22.359.312q-2.36 0-4.11-1.234-1.734-1.25-2.671-3.516-.922-2.28-.922-5.296-.031-2.579.453-4.391.5-1.813 1.328-2.984.844-1.188 1.86-1.86 1.03-.672 2.062-.922 1.047-.265 1.906-.265 1.188 0 2.313.437 1.14.422 2.078 1.156.953.735 1.5 1.766l-1.563 1.25-.265.219-.125-.188q.031-.265-.078-.468-.11-.204-.47-.625-.468-.547-.983-.891-.516-.36-1.11-.516-.594-.156-1.328-.156-.86 0-1.672.234-.797.235-1.469.797-.671.563-1.187 1.5-.5.922-.781 2.266-.266 1.344-.266 3.172 0 2.078.375 3.672.39 1.578 1.11 2.672.718 1.078 1.718 1.64 1.016.563 2.297.563.453 0 .938-.063.5-.078 1-.219.5-.14.968-.375.485-.25.875-.562v-4.734h-3.61v-1.954h5.688v7.797q-1.406 1.032-2.875 1.563-1.468.515-2.984.515zm8.735-20.25h2.625v.22q-.188.202-.235.421-.047.219-.047.766v7.11h7.813v-8.517h2.625v.22q-.203.202-.25.421-.047.219-.047.766v18.531h-2.36v-9.5h-7.78v9.5h-2.344v-19.938zm17 19.938v-1.89h3.937v-16.157h-3.719v-1.89h9.89v1.89h-3.937v16.188h4.125v1.859h-10.296zm19.671.36q-1.406 0-2.593-.563-1.172-.563-2.11-1.656l1.282-1.594.234-.266.156.14q.031.282.14.516.11.22.532.563.547.422 1.094.656.562.219 1.265.219 1.094 0 1.766-.484.672-.485.984-1.579.329-1.109.329-2.968v-11.39h-3.844v-1.892h9.125v1.891h-3.078v11.36q.062 1.921-.36 3.265-.406 1.344-1.172 2.188-.765.843-1.734 1.218-.953.375-2.016.375zm15.047-10.344-1.562 1.734v8.25h-2.406v-19.938h2.687v.22q-.187.202-.234.421-.047.219-.047.766v7.781l8.312-9.344.375.063q.203.031.407.047l.437.03q.219.016.453.016h.828l-7.547 8.61 8.063 11.328-2.89.125-6.876-10.11zm12.797-9.954h2.625v.22q-.187.202-.234.421-.047.219-.047.766v16.61h9.594v1.921h-11.938v-19.938zM1048.457 460.204v-1.89h3.938v-16.157h-3.719v-1.89h9.89v1.89h-3.937v16.188h4.125v1.859h-10.297zm21.407.36q-2.266 0-3.875-1.188-1.594-1.188-2.438-3.469-.828-2.297-.828-5.562 0-3.172.828-5.454.844-2.28 2.438-3.515 1.609-1.235 3.875-1.235 2.296 0 3.875 1.235 1.593 1.234 2.421 3.515.844 2.282.844 5.454 0 3.265-.844 5.562-.828 2.281-2.421 3.469-1.579 1.187-3.875 1.187zm0-1.954q1.53 0 2.609-.953 1.078-.969 1.64-2.812.579-1.844.579-4.5 0-2.532-.578-4.36-.563-1.844-1.641-2.86-1.078-1.03-2.61-1.03-1.5 0-2.593 1.03-1.094 1.016-1.672 2.86-.563 1.828-.563 4.36 0 2.656.563 4.5.578 1.843 1.672 2.812 1.094.953 2.594.953zm10.109-18.344h2.625v.22q-.188.202-.234.421-.047.219-.047.766v16.61h9.593v1.921h-11.937v-19.938zm16.484 19.938v-1.89h3.938v-16.157h-3.719v-1.89h9.89v1.89h-3.937v16.188h4.125v1.859h-10.297zm14.72 0 5.437-10.172-5.344-9.797h2.406l4.188 7.578 4.125-7.578h2.25l-5.063 9.766 5.656 10.203h-2.515l-4.422-7.906-4.281 7.906h-2.438zm16.421.031v-19.969h4.64q1.72 0 2.907.329 1.187.312 2.016.906.828.594 1.468 1.484.672.906 1.094 2.031.438 1.11.64 2.438.22 1.328.22 2.89-.094 2.313-.61 4.141-.516 1.813-1.547 3.094-1.015 1.281-2.64 1.969-1.61.687-3.938.687h-4.25zm2.11-1.765h2.046q2.297 0 3.75-.922 1.469-.922 2.172-2.719.703-1.797.672-4.36 0-2.624-.64-4.468-.641-1.86-2-2.844-1.36-1-3.61-1h-2.39v16.313zm18.812 1.734v-17.953h-5.672v-2.016h13.828v2.016h-5.89v17.953h-2.266zm17.375.36q-3.203 0-4.828-1.907-1.61-1.906-1.61-5.328v-13.063H1161.959v.22q-.188.202-.235.421-.047.219-.047.766v11.687q0 2.422.938 3.875.953 1.438 3.312 1.438 2.407 0 3.36-1.438.968-1.453.968-3.969v-13h2.141v12.97q0 2.515-.812 4.14-.797 1.61-2.25 2.406-1.454.781-3.438.781zm9.703-.329v-19.969h4.64q1.72 0 2.907.329 1.188.312 2.016.906.828.594 1.468 1.484.672.906 1.094 2.031.438 1.11.64 2.438.22 1.328.22 2.89-.094 2.313-.61 4.141-.515 1.813-1.547 3.094-1.015 1.281-2.64 1.969-1.61.687-3.938.687h-4.25zm2.11-1.765h2.046q2.297 0 3.75-.922 1.47-.922 2.172-2.719.703-1.797.672-4.36 0-2.624-.64-4.468-.641-1.86-2-2.844-1.36-1-3.61-1h-2.39v16.313zm19.203 1.734v-7.875l-6.157-12.063h2.563l4.906 9.672 4.406-9.672h2.375l-5.671 12.063v7.875h-2.422zm15.218.36q-1.406 0-2.593-.563-1.172-.563-2.11-1.656l1.282-1.594.234-.266.156.14q.031.282.14.516.11.22.532.563.547.422 1.094.656.562.219 1.265.219 1.094 0 1.766-.484.672-.485.984-1.579.329-1.109.329-2.968v-11.39h-3.844v-1.892h9.125v1.891h-3.078v11.36q.062 1.921-.36 3.265-.406 1.344-1.172 2.188-.765.843-1.734 1.218-.953.375-2.016.375zm11.626-.36v-19.969h12.218v1.985h-10.11v6.562h8.36v2.047h-8.36v7.39h10.017v1.985h-12.125z"/><defs><linearGradient id="b" gradientUnits="userSpaceOnUse" gradientTransform="rotate(90) scale(3.02235)" spreadMethod="pad" x1="44.435" y1="-139.323" x2="44.435" y2="-136.301"><stop offset="0" stop-color="#1077d2"/><stop offset="1" stop-color="#093153"/></linearGradient></defs><path fill="url(#b)" d="m411.949 134.3 9.134 7.913v198.26l-9.134-7.914z" fill-rule="evenodd"/><defs><linearGradient id="c" gradientUnits="userSpaceOnUse" gradientTransform="rotate(90) scale(3.02235)" spreadMethod="pad" x1="118.642" y1="-172.816" x2="118.642" y2="-169.794"><stop offset="0" stop-color="#45818e"/><stop offset="1" stop-color="#134f5c"/></linearGradient></defs><path fill="url(#c)" d="m513.176 358.577 9.134 10.134v196.04l-9.134-10.134z" fill-rule="evenodd"/><path fill="#0b5394" d="m28.022 185.308-1.376 31.41h3.612l.494-19.25.086-7.858 1.312 4.855 3.956 12.016h2.645l4.15-12.497 1.312-4.374.236 7.522.56 19.587h3.74l-1.354-31.41h-4.666l-3.978 11.823-1.182 3.99-1.226-3.99-3.784-11.824zM61.908 195.714c.96 0 1.83.19 2.61.57.783.373 1.447.934 1.992 1.681.544.743.963 1.672 1.254 2.788.296 1.11.444 2.411.444 3.901 0 1.202-.119 2.345-.358 3.429-.234 1.079-.607 2.027-1.118 2.844a5.948 5.948 0 0 1-1.957 1.962c-.793.486-1.748.73-2.867.73-.974 0-1.849-.187-2.623-.561-.774-.38-1.433-.94-1.978-1.683-.545-.747-.965-1.682-1.261-2.803-.292-1.122-.438-2.428-.438-3.918 0-1.185.117-2.317.352-3.396.239-1.084.611-2.035 1.118-2.852a5.963 5.963 0 0 1 1.956-1.955c.798-.491 1.756-.737 2.874-.737zm.215-3.556c-1.62 0-3.067.31-4.343.929a9.206 9.206 0 0 0-3.247 2.595c-.888 1.111-1.57 2.44-2.042 3.99-.473 1.543-.71 3.252-.71 5.127 0 2.002.225 3.773.674 5.31.454 1.539 1.106 2.829 1.956 3.87a8.335 8.335 0 0 0 3.118 2.371c1.228.534 2.616.801 4.164.801 1.62 0 3.068-.307 4.344-.921a9.326 9.326 0 0 0 3.246-2.596c.89-1.116 1.57-2.454 2.043-4.013.473-1.565.71-3.284.71-5.159 0-1.987-.227-3.749-.681-5.287-.45-1.538-1.102-2.823-1.957-3.853a8.22 8.22 0 0 0-3.118-2.355c-1.223-.54-2.608-.81-4.157-.81zM88.054 192.157c-.63 0-1.24.07-1.827.209a6.02 6.02 0 0 0-1.735.705c-.563.336-1.14.782-1.727 1.338-.588.55-1.197 1.241-1.828 2.074l-.15-3.893h-3.333v24.129h3.741v-16.006a35.419 35.419 0 0 1 1.857-2.403c.554-.641 1.068-1.148 1.54-1.522.474-.38.928-.644 1.362-.793.44-.155.89-.233 1.348-.233 1.247 0 2.186.454 2.817 1.362.63.903.946 2.3.946 4.19v15.405h3.741v-15.742c0-2.948-.571-5.153-1.713-6.617-1.137-1.468-2.817-2.203-5.039-2.203zM110.33 195.714c.96 0 1.83.19 2.61.57.783.373 1.447.934 1.992 1.681.544.743.962 1.672 1.254 2.788.296 1.11.444 2.411.444 3.901 0 1.202-.12 2.345-.358 3.429-.234 1.079-.607 2.027-1.118 2.844a5.948 5.948 0 0 1-1.957 1.962c-.793.486-1.749.73-2.867.73-.975 0-1.849-.187-2.623-.561-.774-.38-1.433-.94-1.978-1.683-.545-.747-.965-1.682-1.262-2.803-.291-1.122-.437-2.428-.437-3.918 0-1.185.117-2.317.351-3.396.24-1.084.612-2.035 1.118-2.852a5.962 5.962 0 0 1 1.957-1.955c.798-.491 1.756-.737 2.874-.737zm.215-3.556c-1.62 0-3.067.31-4.343.929a9.206 9.206 0 0 0-3.247 2.595c-.889 1.111-1.57 2.44-2.043 3.99-.473 1.543-.71 3.252-.71 5.127 0 2.002.225 3.773.675 5.31.454 1.539 1.106 2.829 1.956 3.87a8.335 8.335 0 0 0 3.118 2.371c1.228.534 2.616.801 4.164.801 1.62 0 3.068-.307 4.344-.921a9.326 9.326 0 0 0 3.246-2.596c.889-1.116 1.57-2.454 2.043-4.013.473-1.565.71-3.284.71-5.159 0-1.987-.227-3.749-.681-5.287-.45-1.538-1.102-2.823-1.957-3.853a8.22 8.22 0 0 0-3.118-2.355c-1.223-.54-2.609-.81-4.157-.81zM139.336 205.736v4.278c-1.233 1.265-2.406 2.192-3.52 2.78-1.108.581-2.092.873-2.952.873-.66 0-1.218-.097-1.677-.289a3.01 3.01 0 0 1-1.118-.777 3.084 3.084 0 0 1-.624-1.13 4.603 4.603 0 0 1-.193-1.337c0-.673.102-1.277.308-1.81.21-.54.53-1.002.96-1.387.43-.384.982-.68 1.656-.889.674-.208 1.476-.312 2.408-.312zm-4.666-13.578c-.717 0-1.426.045-2.129.136a20.752 20.752 0 0 0-3.863.84 20.58 20.58 0 0 0-1.577.562v3.773a23.48 23.48 0 0 1 3.663-1.298 14.433 14.433 0 0 1 3.605-.457c1.677 0 2.924.43 3.741 1.29.817.855 1.226 1.995 1.226 3.42v2.116h-4.472c-3.154 0-5.538.686-7.153 2.058-1.61 1.367-2.416 3.26-2.416 5.68 0 .977.132 1.882.395 2.716.267.833.683 1.559 1.247 2.179.568.614 1.29 1.097 2.164 1.45.875.352 1.928.528 3.16.528a8.748 8.748 0 0 0 3.814-.865c1.214-.577 2.408-1.514 3.583-2.812l.086 3.245h3.355v-16.63c0-1.347-.194-2.516-.58-3.51-.388-.993-.944-1.818-1.67-2.475-.722-.657-1.606-1.145-2.653-1.466-1.046-.32-2.221-.48-3.526-.48zM151.054 182.76v3.437h6.386v27.037h-7.095v3.485h17.309v-3.485h-6.43V182.76zM184.511 195.81c.774 0 1.44.214 2 .641.559.422 1.017 1.01 1.376 1.763.358.753.619 1.658.781 2.715a22.38 22.38 0 0 1 .25 3.485c0 3.076-.573 5.38-1.72 6.913-1.146 1.528-2.73 2.291-4.751 2.291-.731 0-1.477-.09-2.236-.272-.76-.187-1.484-.44-2.172-.761v-11.704c.66-.961 1.278-1.765 1.856-2.411.583-.652 1.135-1.172 1.656-1.562.526-.395 1.032-.676 1.52-.841.487-.171.967-.257 1.44-.257zm.753-3.653c-1.42 0-2.738.334-3.957 1.002-1.218.662-2.365 1.818-3.44 3.469l-.237-4.038h-3.332v33.982h3.741v-10.094c.702.193 1.393.329 2.071.409.684.08 1.37.12 2.057.12 1.505 0 2.903-.264 4.193-.793a9.062 9.062 0 0 0 3.354-2.38c.946-1.057 1.687-2.386 2.222-3.989.54-1.602.81-3.476.81-5.623 0-1.827-.158-3.48-.473-4.959-.315-1.485-.788-2.75-1.419-3.797-.63-1.052-1.412-1.867-2.344-2.443-.931-.577-2.014-.866-3.246-.866zM198.509 182.76v33.959h3.74v-16.006a47.018 47.018 0 0 1 1.936-2.403c.56-.641 1.075-1.148 1.548-1.522.473-.38.927-.644 1.362-.793.44-.155.91-.233 1.412-.233 1.16 0 2.052.462 2.673 1.386.626.919.94 2.307.94 4.166v15.405h3.74v-15.742c0-2.948-.587-5.153-1.763-6.617-1.175-1.468-2.838-2.203-4.988-2.203-.63 0-1.24.073-1.828.217a6.393 6.393 0 0 0-1.734.72 9.762 9.762 0 0 0-1.699 1.315 15.61 15.61 0 0 0-1.727 1.978l.129-3.797v-9.83zM236.18 205.736v4.278c-1.233 1.265-2.406 2.192-3.52 2.78-1.108.581-2.092.873-2.953.873-.659 0-1.218-.097-1.677-.289a3.01 3.01 0 0 1-1.118-.777 3.084 3.084 0 0 1-.623-1.13 4.603 4.603 0 0 1-.194-1.337c0-.673.103-1.277.308-1.81.21-.54.53-1.002.96-1.387.43-.384.983-.68 1.656-.889.674-.208 1.477-.312 2.409-.312zm-4.666-13.578c-.717 0-1.427.045-2.129.136a20.752 20.752 0 0 0-3.863.84 20.58 20.58 0 0 0-1.577.562v3.773a23.481 23.481 0 0 1 3.662-1.298 14.433 14.433 0 0 1 3.606-.457c1.677 0 2.924.43 3.74 1.29.818.855 1.226 1.995 1.226 3.42v2.116h-4.472c-3.153 0-5.538.686-7.153 2.058-1.61 1.367-2.415 3.26-2.415 5.68 0 .977.131 1.882.394 2.716.268.833.683 1.559 1.247 2.179.569.614 1.29 1.097 2.165 1.45.874.352 1.928.528 3.16.528a8.748 8.748 0 0 0 3.813-.865c1.214-.577 2.409-1.514 3.584-2.812l.086 3.245h3.354v-16.63c0-1.347-.193-2.516-.58-3.51-.387-.993-.944-1.818-1.67-2.475-.722-.657-1.606-1.145-2.652-1.466-1.047-.32-2.222-.48-3.526-.48zM257.144 195.81c.774 0 1.44.214 2 .641.558.422 1.017 1.01 1.375 1.763.359.753.62 1.658.782 2.715a22.38 22.38 0 0 1 .25 3.485c0 1.746-.176 3.21-.53 4.39-.349 1.175-.822 2.12-1.419 2.836-.592.71-1.28 1.217-2.064 1.522a6.693 6.693 0 0 1-2.459.456c-.688 0-1.411-.09-2.171-.272-.76-.187-1.505-.44-2.236-.761v-11.704c.659-.961 1.278-1.765 1.856-2.411.583-.652 1.135-1.172 1.656-1.562.525-.395 1.032-.676 1.519-.841.487-.171.968-.257 1.44-.257zm-10.214-13.05v32.54a18.494 18.494 0 0 0 3.957 1.298c1.333.273 2.637.409 3.913.409 1.634 0 3.103-.291 4.408-.873a9.117 9.117 0 0 0 3.318-2.524c.913-1.1 1.615-2.438 2.107-4.013.497-1.58.746-3.373.746-5.375 0-1.827-.158-3.48-.473-4.959-.316-1.485-.789-2.75-1.42-3.797-.63-1.052-1.411-1.867-2.343-2.443-.932-.577-2.014-.866-3.247-.866a8.142 8.142 0 0 0-3.949 1.002c-1.223.662-2.372 1.802-3.447 3.42l.172-4.47v-9.348zM279.85 195.498c.945 0 1.777.182 2.494.545a4.978 4.978 0 0 1 1.791 1.498c.483.64.839 1.407 1.068 2.299.23.886.323 1.866.28 2.94H274.13c.072-1.074.258-2.059.559-2.956.301-.897.695-1.666 1.183-2.307a5.209 5.209 0 0 1 1.741-1.49 4.75 4.75 0 0 1 2.236-.529zm.171-3.34c-1.548 0-2.931.336-4.15 1.009a9.465 9.465 0 0 0-3.088 2.732c-.837 1.142-1.475 2.472-1.914 3.989-.435 1.511-.652 3.116-.652 4.814 0 1.955.203 3.707.609 5.256.41 1.543 1.042 2.849 1.892 3.917.855 1.063 1.95 1.874 3.283 2.435 1.333.56 2.924.841 4.773.841 1.376 0 2.704-.101 3.985-.304 1.285-.198 2.437-.457 3.455-.777v-3.437c-.46.144-.958.278-1.498.4-.536.118-1.097.225-1.685.321-.587.096-1.197.174-1.827.232-.631.054-1.262.08-1.892.08-2.323 0-4.1-.66-5.333-1.978-1.233-1.325-1.849-3.22-1.849-5.688h15.159c.028-.352.05-.729.064-1.13.014-.4.022-.897.022-1.49 0-1.714-.206-3.262-.617-4.646-.406-1.388-1.008-2.566-1.806-3.532a8.018 8.018 0 0 0-2.931-2.251c-1.161-.53-2.494-.794-4-.794zM303.05 184.876l-3.742 1.081v6.633h-6.042v3.509h6.042v12.593c0 2.836.667 4.94 2 6.312 1.333 1.367 3.354 2.051 6.064 2.051.931 0 1.849-.053 2.752-.16a16.196 16.196 0 0 0 2.623-.513v-3.605c-.889.257-1.742.446-2.559.57-.817.117-1.57.175-2.257.175-1.606 0-2.822-.427-3.649-1.281-.821-.86-1.232-2.155-1.232-3.886V196.1h9.697v-3.509h-9.697v-7.714zM328.228 182.472c-.415 0-.803.086-1.16.257-.36.165-.672.4-.94.705-.263.304-.47.654-.623 1.05a3.58 3.58 0 0 0-.223 1.28 3.527 3.527 0 0 0 .846 2.331c.268.305.58.543.94.714.357.166.745.248 1.16.248.416 0 .803-.082 1.161-.248.359-.17.67-.409.932-.713.268-.304.475-.657.624-1.057.152-.4.229-.826.229-1.274a3.48 3.48 0 0 0-.23-1.282 3.36 3.36 0 0 0-.623-1.05 2.734 2.734 0 0 0-.932-.704 2.663 2.663 0 0 0-1.16-.257zm-7.697 10.118v3.46h6.386v17.184h-7.096v3.485h17.309v-3.485h-6.43V192.59zM354.61 192.254c-1.605 0-3.074.301-4.407.905a9.843 9.843 0 0 0-3.44 2.555c-.96 1.106-1.706 2.436-2.237 3.99-.53 1.554-.795 3.284-.795 5.19 0 3.974.92 6.994 2.76 9.06 1.844 2.068 4.472 3.101 7.883 3.101 1.09 0 2.146-.101 3.168-.304a14.676 14.676 0 0 0 3.003-.922v-3.893c-.889.513-1.81.897-2.766 1.154-.951.256-1.935.384-2.953.384-2.25 0-4.011-.723-5.282-2.17-1.267-1.453-1.9-3.638-1.9-6.554 0-1.393.187-2.643.56-3.749.372-1.105.88-2.042 1.526-2.811a6.652 6.652 0 0 1 2.243-1.763 6.206 6.206 0 0 1 2.724-.617c1.032 0 2.03.126 2.996.377.97.246 1.92.64 2.852 1.186v-3.99c-.889-.4-1.82-.689-2.795-.865a17.65 17.65 0 0 0-3.14-.264z" fill-rule="evenodd"/><path fill="#134f5c" d="M148.662 445.933c2.121 0 3.772.537 4.952 1.61 1.185 1.074 1.778 2.62 1.778 4.639 0 2.243-.614 3.917-1.842 5.023-1.223 1.105-2.967 1.658-5.232 1.658h-3.57v-12.93zm-7.74-3.556v31.41h3.827v-11.271h3.483c1.95 0 3.626-.307 5.031-.922 1.405-.62 2.559-1.426 3.462-2.419a9.584 9.584 0 0 0 2-3.372c.43-1.26.645-2.532.645-3.814 0-1.746-.287-3.228-.86-4.446-.574-1.217-1.345-2.21-2.315-2.98-.966-.769-2.086-1.324-3.362-1.666a15.166 15.166 0 0 0-4-.52zM173.84 452.783c.96 0 1.83.19 2.61.568.783.374 1.447.935 1.992 1.683.544.742.962 1.671 1.254 2.787.296 1.111.444 2.412.444 3.902 0 1.201-.12 2.344-.358 3.428-.234 1.079-.607 2.027-1.118 2.844a5.948 5.948 0 0 1-1.957 1.963c-.793.486-1.749.729-2.867.729-.974 0-1.849-.187-2.623-.561-.774-.38-1.433-.94-1.978-1.682-.545-.748-.965-1.683-1.261-2.804-.292-1.122-.438-2.427-.438-3.917 0-1.186.117-2.318.352-3.397.238-1.084.611-2.035 1.118-2.852a5.963 5.963 0 0 1 1.956-1.954c.798-.492 1.756-.737 2.874-.737zm.215-3.557c-1.62 0-3.067.31-4.343.929a9.206 9.206 0 0 0-3.247 2.595c-.888 1.111-1.57 2.441-2.042 3.99-.473 1.543-.71 3.252-.71 5.127 0 2.002.225 3.773.674 5.31.454 1.539 1.106 2.829 1.956 3.87a8.335 8.335 0 0 0 3.118 2.371c1.228.534 2.616.801 4.164.801 1.62 0 3.068-.307 4.344-.92a9.326 9.326 0 0 0 3.246-2.596c.89-1.116 1.57-2.454 2.043-4.014.473-1.564.71-3.284.71-5.159 0-1.986-.227-3.749-.681-5.287-.45-1.538-1.102-2.822-1.957-3.853a8.22 8.22 0 0 0-3.118-2.355c-1.223-.54-2.609-.81-4.157-.81zM190.354 439.83v3.436h6.386v27.036h-7.096v3.485h17.309v-3.485h-6.43V439.83zM211.576 449.658l8.622 24.129c-.459 1.137-.932 2.107-1.42 2.908-.487.8-.995 1.452-1.526 1.954-.53.508-1.094.874-1.691 1.098a5.382 5.382 0 0 1-1.921.336c-.416 0-.81-.021-1.183-.064a20.38 20.38 0 0 1-1.032-.128v3.797c.359.032.688.056.99.072.3.016.637.024 1.01.024 1.419 0 2.702-.24 3.849-.72 1.146-.481 2.2-1.232 3.16-2.252.96-1.014 1.845-2.315 2.652-3.9.813-1.587 1.599-3.478 2.358-5.673l7.354-21.58h-4.107l-5.053 15.86-1.247 3.846-1.096-3.75-5.462-15.957zM251.268 462.804v4.278c-1.233 1.266-2.406 2.192-3.52 2.78-1.108.582-2.092.873-2.952.873-.66 0-1.219-.096-1.677-.289a3.009 3.009 0 0 1-1.118-.777 3.084 3.084 0 0 1-.624-1.13 4.603 4.603 0 0 1-.193-1.337c0-.673.102-1.276.308-1.81.21-.54.53-1.002.96-1.386.43-.385.982-.681 1.656-.89.674-.208 1.476-.312 2.408-.312zm-4.666-13.578c-.717 0-1.426.045-2.129.136a20.753 20.753 0 0 0-3.863.841c-.578.182-1.104.369-1.577.56v3.774a23.48 23.48 0 0 1 3.663-1.298 14.433 14.433 0 0 1 3.605-.456c1.677 0 2.924.43 3.741 1.29.817.854 1.226 1.994 1.226 3.42v2.115h-4.472c-3.154 0-5.538.686-7.153 2.059-1.61 1.367-2.416 3.26-2.416 5.68 0 .976.132 1.882.394 2.715.268.833.684 1.56 1.248 2.179.568.614 1.29 1.097 2.164 1.45.874.352 1.928.528 3.16.528a8.748 8.748 0 0 0 3.814-.865c1.213-.577 2.408-1.514 3.583-2.812l.086 3.245h3.355v-16.63c0-1.346-.194-2.516-.58-3.51-.388-.993-.945-1.818-1.67-2.475-.722-.657-1.606-1.145-2.653-1.466-1.046-.32-2.222-.48-3.526-.48zM262.986 439.83v3.436h6.386v27.036h-7.095v3.485h17.309v-3.485h-6.43V439.83zM296.443 452.879c.774 0 1.44.213 2 .64.559.422 1.017 1.01 1.376 1.763.358.753.618 1.658.78 2.716a22.38 22.38 0 0 1 .252 3.484c0 3.076-.574 5.38-1.72 6.914-1.147 1.527-2.731 2.29-4.752 2.29a9.6 9.6 0 0 1-2.236-.272c-.76-.187-1.484-.44-2.172-.76v-11.705c.66-.96 1.278-1.765 1.856-2.41.583-.652 1.135-1.173 1.656-1.563.525-.395 1.032-.675 1.52-.841.487-.17.967-.256 1.44-.256zm.752-3.653c-1.419 0-2.737.334-3.956 1.001-1.218.662-2.365 1.819-3.44 3.469l-.237-4.038h-3.332v33.982h3.74v-10.093c.703.192 1.394.328 2.072.408.683.08 1.37.12 2.057.12 1.505 0 2.903-.264 4.193-.793a9.062 9.062 0 0 0 3.354-2.379c.946-1.057 1.687-2.387 2.222-3.99.54-1.602.81-3.476.81-5.623 0-1.826-.158-3.48-.473-4.959-.315-1.484-.788-2.75-1.42-3.797-.63-1.052-1.411-1.866-2.343-2.443-.932-.577-2.014-.865-3.247-.865zM310.44 439.83v33.957h3.742V457.78a47.004 47.004 0 0 1 1.935-2.403c.559-.64 1.075-1.148 1.548-1.522.473-.38.927-.644 1.362-.793.44-.155.91-.232 1.412-.232 1.16 0 2.052.462 2.673 1.385.626.919.939 2.308.939 4.166v15.405h3.741v-15.741c0-2.948-.587-5.154-1.763-6.617-1.175-1.469-2.838-2.203-4.988-2.203-.63 0-1.24.072-1.828.216a6.393 6.393 0 0 0-1.734.721 9.762 9.762 0 0 0-1.699 1.314 15.61 15.61 0 0 0-1.727 1.978l.129-3.797v-9.829zM348.111 462.804v4.278c-1.232 1.266-2.405 2.192-3.519 2.78-1.108.582-2.093.873-2.953.873-.659 0-1.218-.096-1.677-.289a3.01 3.01 0 0 1-1.118-.777 3.084 3.084 0 0 1-.623-1.13 4.603 4.603 0 0 1-.194-1.337c0-.673.103-1.276.308-1.81.21-.54.53-1.002.96-1.386.43-.385.983-.681 1.656-.89.674-.208 1.477-.312 2.409-.312zm-4.665-13.578c-.717 0-1.427.045-2.13.136a20.752 20.752 0 0 0-3.862.841c-.578.182-1.104.369-1.577.56v3.774a23.48 23.48 0 0 1 3.662-1.298 14.433 14.433 0 0 1 3.606-.456c1.677 0 2.924.43 3.74 1.29.818.854 1.226 1.994 1.226 3.42v2.115h-4.472c-3.154 0-5.538.686-7.153 2.059-1.61 1.367-2.415 3.26-2.415 5.68 0 .976.131 1.882.394 2.715.268.833.683 1.56 1.247 2.179.569.614 1.29 1.097 2.165 1.45.874.352 1.928.528 3.16.528a8.748 8.748 0 0 0 3.813-.865c1.214-.577 2.409-1.514 3.584-2.812l.086 3.245h3.354v-16.63c0-1.346-.193-2.516-.58-3.51-.387-.993-.944-1.818-1.67-2.475-.722-.657-1.606-1.145-2.652-1.466-1.047-.32-2.222-.48-3.526-.48zM369.076 452.879c.774 0 1.44.213 2 .64.558.422 1.017 1.01 1.375 1.763.359.753.62 1.658.782 2.716a22.38 22.38 0 0 1 .25 3.484c0 1.747-.176 3.21-.53 4.39-.349 1.175-.822 2.12-1.42 2.836-.592.71-1.28 1.218-2.063 1.522a6.693 6.693 0 0 1-2.459.457c-.688 0-1.412-.091-2.171-.273-.76-.187-1.505-.44-2.236-.76v-11.705c.659-.96 1.278-1.765 1.856-2.41.583-.652 1.135-1.173 1.655-1.563.526-.395 1.033-.675 1.52-.841.487-.17.968-.256 1.44-.256zm-10.214-13.05v32.54a18.494 18.494 0 0 0 3.957 1.298c1.333.272 2.637.408 3.913.408 1.634 0 3.103-.29 4.408-.873a9.118 9.118 0 0 0 3.318-2.523c.913-1.1 1.615-2.438 2.107-4.014.497-1.58.746-3.372.746-5.375 0-1.826-.158-3.48-.473-4.959-.316-1.484-.789-2.75-1.42-3.797-.63-1.052-1.411-1.866-2.343-2.443-.932-.577-2.014-.865-3.247-.865a8.142 8.142 0 0 0-3.949 1.001c-1.223.662-2.372 1.803-3.447 3.42l.172-4.47v-9.348zM391.781 452.566c.946 0 1.778.182 2.495.545a4.978 4.978 0 0 1 1.791 1.498c.483.64.839 1.407 1.068 2.3.23.886.323 1.866.28 2.939h-11.353c.072-1.073.258-2.059.559-2.956.3-.897.695-1.666 1.182-2.307a5.21 5.21 0 0 1 1.742-1.49 4.75 4.75 0 0 1 2.236-.529zm.172-3.34c-1.548 0-2.931.336-4.15 1.01a9.465 9.465 0 0 0-3.089 2.73c-.836 1.144-1.474 2.473-1.913 3.99-.435 1.512-.652 3.116-.652 4.815 0 1.954.203 3.706.609 5.255.41 1.543 1.041 2.849 1.892 3.917.855 1.063 1.95 1.875 3.283 2.435 1.333.561 2.924.841 4.773.841 1.376 0 2.704-.101 3.985-.304 1.285-.198 2.437-.457 3.454-.777v-3.437c-.458.145-.958.278-1.497.4-.536.118-1.097.225-1.685.321-.587.096-1.197.174-1.827.233-.631.053-1.262.08-1.893.08-2.322 0-4.1-.66-5.332-1.979-1.233-1.324-1.85-3.22-1.85-5.688h15.16c.028-.352.05-.729.064-1.13.014-.4.022-.896.022-1.49 0-1.713-.206-3.262-.617-4.645-.406-1.389-1.008-2.567-1.806-3.533a8.018 8.018 0 0 0-2.931-2.251c-1.161-.529-2.495-.793-4-.793zM414.982 441.944l-3.742 1.081v6.633h-6.042v3.509h6.042v12.593c0 2.836.667 4.94 2 6.313 1.333 1.367 3.354 2.05 6.063 2.05.932 0 1.85-.053 2.753-.16a16.196 16.196 0 0 0 2.623-.513v-3.604c-.889.256-1.742.445-2.559.568-.817.118-1.57.177-2.257.177-1.606 0-2.822-.428-3.649-1.282-.821-.86-1.232-2.155-1.232-3.885v-12.257h9.697v-3.509h-9.697v-7.714zM440.16 439.54c-.416 0-.803.086-1.161.257-.358.166-.671.4-.939.705-.263.304-.47.654-.623 1.05a3.58 3.58 0 0 0-.223 1.281 3.527 3.527 0 0 0 .846 2.331c.268.305.58.542.939.713.358.166.745.249 1.161.249.416 0 .803-.083 1.161-.249.359-.17.67-.408.932-.713.268-.304.475-.657.623-1.057.153-.4.23-.825.23-1.274a3.48 3.48 0 0 0-.23-1.282 3.36 3.36 0 0 0-.623-1.049 2.734 2.734 0 0 0-.932-.705 2.663 2.663 0 0 0-1.16-.256zm-7.698 10.118v3.461h6.386v17.183h-7.095v3.485h17.309v-3.485h-6.43v-20.644zM466.543 449.322c-1.606 0-3.075.302-4.408.905a9.843 9.843 0 0 0-3.44 2.556c-.96 1.105-1.706 2.435-2.237 3.989-.53 1.554-.795 3.284-.795 5.19 0 3.974.92 6.994 2.76 9.061 1.844 2.067 4.472 3.1 7.883 3.1 1.09 0 2.146-.101 3.168-.304a14.676 14.676 0 0 0 3.003-.921v-3.894c-.889.513-1.81.898-2.766 1.154-.951.256-1.936.384-2.953.384-2.25 0-4.012-.723-5.283-2.17-1.266-1.453-1.899-3.637-1.899-6.553 0-1.394.186-2.644.56-3.75.372-1.105.88-2.042 1.526-2.811a6.652 6.652 0 0 1 2.243-1.762 6.206 6.206 0 0 1 2.724-.617c1.032 0 2.03.125 2.996.376.97.246 1.92.641 2.852 1.186v-3.99a11.95 11.95 0 0 0-2.795-.865 17.649 17.649 0 0 0-3.14-.264z" fill-rule="evenodd"/></g></svg>