<svg viewBox="0 0 513.105 465.937" fill="none" stroke-linecap="square" stroke-miterlimit="10" xmlns="http://www.w3.org/2000/svg"><clipPath id="a"><path d="M0 0h513.105v465.937H0V0z"/></clipPath><g clip-path="url(#a)"><path fill="none" d="M0 0h513.105v465.937H0z"/><defs><radialGradient id="b" gradientUnits="userSpaceOnUse" gradientTransform="scale(15.36443)" spreadMethod="pad" cx="15.898" cy="14.587" fx="15.898" fy="14.587" r="15.364"><stop offset="0" stop-color="#e4f0f2"/><stop offset="1" stop-color="#8fbdc4"/></radialGradient></defs><path fill="url(#b)" d="M72.743 224.118c0-89.574 76.795-162.189 171.527-162.189 45.492 0 89.121 17.088 121.289 47.504 32.167 30.417 50.239 71.67 50.239 114.685 0 89.575-76.796 162.19-171.528 162.19-94.732 0-171.527-72.615-171.527-162.19z" fill-rule="evenodd"/><path stroke="#000" stroke-linejoin="round" stroke-linecap="butt" d="M72.743 224.118c0-89.574 76.795-162.189 171.527-162.189 45.492 0 89.121 17.088 121.289 47.504 32.167 30.417 50.239 71.67 50.239 114.685 0 89.575-76.796 162.19-171.528 162.19-94.732 0-171.527-72.615-171.527-162.19z"/><defs><linearGradient id="c" gradientUnits="userSpaceOnUse" gradientTransform="scale(18.25458)" spreadMethod="pad" x1="3.985" y1="2.908" x2="3.985" y2="21.162"><stop offset="0" stop-color="#76a5af"/><stop offset="1" stop-color="#134f5c"/></linearGradient></defs><path fill="url(#c)" d="M72.743 219.696c0-92.019 76.795-166.615 171.527-166.615 45.492 0 89.121 17.554 121.289 48.8 32.167 31.247 50.239 73.626 50.239 117.815 0 92.018-76.796 166.614-171.528 166.614-94.732 0-171.527-74.596-171.527-166.614zm12.78 0c0 84.96 71.073 153.834 158.747 153.834 87.675 0 158.749-68.874 158.749-153.834 0-84.961-71.074-153.835-158.749-153.835-87.674 0-158.748 68.874-158.748 153.835z" fill-rule="evenodd"/><path stroke="#000" stroke-linejoin="round" stroke-linecap="butt" d="M72.743 219.696c0-92.019 76.795-166.615 171.527-166.615 45.492 0 89.121 17.554 121.289 48.8 32.167 31.247 50.239 73.626 50.239 117.815 0 92.018-76.796 166.614-171.528 166.614-94.732 0-171.527-74.596-171.527-166.614zm12.78 0c0 84.96 71.073 153.834 158.747 153.834 87.675 0 158.749-68.874 158.749-153.834 0-84.961-71.074-153.835-158.749-153.835-87.674 0-158.748 68.874-158.748 153.835z"/><defs><linearGradient id="d" gradientUnits="userSpaceOnUse" gradientTransform="rotate(.025) scale(14.18423)" spreadMethod="pad" x1="14.137" y1="7.91" x2="14.135" y2="22.095"><stop offset="0" stop-color="#76a5af"/><stop offset="1" stop-color="#134f5c"/></linearGradient></defs><path fill="url(#d)" d="M244.711 112.22c-9.681 0-16.903 2.39-21.665 7.168-4.762 4.748-7.143 10.795-7.143 18.142 0 7.346 2.176 13.498 6.528 18.455 4.383 4.958 11.7 7.436 21.95 7.436 10.28 0 17.833-2.389 22.658-7.167 4.857-4.778 7.285-11.154 7.285-19.127 0-7.974-2.523-14.11-7.569-18.411-5.014-4.33-12.362-6.496-22.044-6.496zm-44.182 70.15v4.972h17.124v121.08h-15.989v4.973h86.331v-4.972h-16.272V182.37z" fill-rule="evenodd"/><path stroke="#134f5c" stroke-linejoin="round" stroke-linecap="butt" d="M244.711 112.22c-9.681 0-16.903 2.39-21.665 7.168-4.762 4.748-7.143 10.795-7.143 18.142 0 7.346 2.176 13.498 6.528 18.455 4.383 4.958 11.7 7.436 21.95 7.436 10.28 0 17.833-2.389 22.658-7.167 4.857-4.778 7.285-11.154 7.285-19.127 0-7.974-2.523-14.11-7.569-18.411-5.014-4.33-12.362-6.496-22.044-6.496zm-44.182 70.15v4.972h17.124v121.08h-15.989v4.973h86.331v-4.972h-16.272V182.37z"/></g></svg>