<svg viewBox="0 0 1355.614 489.076" fill="none" stroke-linecap="square" stroke-miterlimit="10" xmlns="http://www.w3.org/2000/svg"><clipPath id="a"><path d="M0 0h1355.614v489.076H0V0z"/></clipPath><g clip-path="url(#a)"><path fill="none" d="M0 0h1355.614v489.076H0z"/><path fill="#d3c3e5" fill-opacity=".855" d="M674.942 122.627c0-7.775 10.788-14.078 24.095-14.078 13.307 0 24.094 6.303 24.094 14.078 0 7.776-10.787 14.079-24.094 14.079s-24.095-6.303-24.095-14.079z" fill-rule="evenodd"/><path stroke="#000" stroke-linejoin="round" stroke-linecap="butt" d="M674.942 122.627c0-7.775 10.788-14.078 24.095-14.078 13.307 0 24.094 6.303 24.094 14.078 0 7.776-10.787 14.079-24.094 14.079s-24.095-6.303-24.095-14.079z"/><path fill="#c7e1be" fill-opacity=".832" d="M533.517 122.627c0-7.775 10.788-14.078 24.095-14.078 13.307 0 24.094 6.303 24.094 14.078 0 7.776-10.787 14.079-24.094 14.079s-24.095-6.303-24.095-14.079z" fill-rule="evenodd"/><path stroke="#000" stroke-linejoin="round" stroke-linecap="butt" d="M533.517 122.627c0-7.775 10.788-14.078 24.095-14.078 13.307 0 24.094 6.303 24.094 14.078 0 7.776-10.787 14.079-24.094 14.079s-24.095-6.303-24.095-14.079z"/><defs><linearGradient id="b" gradientUnits="userSpaceOnUse" gradientTransform="rotate(90) scale(6.05747)" spreadMethod="pad" x1="29.595" y1="-37.084" x2="29.595" y2="-31.027"><stop offset="0" stop-color="#ffc002"/><stop offset="1" stop-color="#795b04"/></linearGradient></defs><path fill="url(#b)" d="M224.635 179.273v10.614h-36.693v-10.614z" fill-rule="evenodd"/><path stroke="#000" stroke-linejoin="round" stroke-linecap="butt" d="M224.635 179.273v10.614h-36.693v-10.614z"/><defs><linearGradient id="c" gradientUnits="userSpaceOnUse" gradientTransform="rotate(90) scale(6.05747)" spreadMethod="pad" x1="27.199" y1="-37.084" x2="27.199" y2="-31.027"><stop offset="0" stop-color="#ffc002"/><stop offset="1" stop-color="#795b04"/></linearGradient></defs><path fill="url(#c)" d="M224.635 164.754v10.615h-36.693v-10.615z" fill-rule="evenodd"/><path stroke="#000" stroke-linejoin="round" stroke-linecap="butt" d="M224.635 164.754v10.615h-36.693v-10.615z"/><defs><linearGradient id="d" gradientUnits="userSpaceOnUse" gradientTransform="scale(7.90097)" spreadMethod="pad" x1="23.788" y1="16.951" x2="23.788" y2="24.852"><stop offset="0" stop-color="#ffc002"/><stop offset="1" stop-color="#795b04"/></linearGradient></defs><path fill="url(#d)" d="M187.952 133.933h17.89v62.425h-17.89z" fill-rule="evenodd"/><path stroke="#000" stroke-linejoin="round" stroke-linecap="butt" d="M187.952 133.933h17.89v62.425h-17.89z"/><path fill="none" d="M57.65 326.791h1211.497V621.69H57.651z"/><path fill="#134f5c" d="m77.01 378.991-1.578-4.5h-5.219l-1.578 4.5h-1.781l5-13.812h2.063l5 13.812H77.01zm-2.078-5.953-1.734-4.984-.328-1.125h-.078l-.329 1.125-1.734 4.984h4.203zm11.757-8.406h1.64v14.36h-1.077l-.5-1.204q-1.5 1.438-3.094 1.438-1.594 0-2.64-1.219-1.032-1.234-1.032-3.328 0-2.11 1.234-3.516 1.25-1.406 3.203-1.406 1.063 0 2.266.469v-5.594zm-1.844 6.484q-1.5 0-2.328 1.016-.812 1.016-.812 2.484 0 1.453.672 2.344.687.875 1.78.875.595 0 1.282-.328.688-.328 1.25-.922v-5.11q-.937-.359-1.844-.359zm10.002 7.875h-1.875l-3.187-9.125h1.718l2.375 7.313h.079l2.359-7.313h1.719l-3.188 9.125zm9.721-5.453v-.89q0-1.61-1.671-1.61-1.329 0-2.766.86l-.578-1.204q1.672-1.062 3.625-1.062 1.36 0 2.219.687.875.688.875 2.125v6.547h-1.079l-.5-1.203q-.64.656-1.53 1.047-.876.39-1.595.39-1.234 0-1.984-.671-.734-.688-.734-1.781 0-3.235 5.718-3.235zm-3.312 1.938q-.39.328-.516.61-.125.265-.125.702 0 .422.36.735.375.312.968.312 1.266 0 2.625-1.125v-2q-2.515.047-3.312.766zm15.656-3.39v6.905h-1.703v-6.812q0-.531-.406-.813-.407-.28-1.094-.28-1.422 0-2.938 1.03v6.875h-1.703v-9.125h1.078l.5 1.047q1.547-1.281 3.344-1.281 1.344 0 2.125.687.797.672.797 1.766zm6.374-2.454q1.344 0 2.72.594l-.5 1.25q-1.016-.438-2.173-.438-1.14 0-1.812.86-.672.859-.672 2.515 0 1.656.703 2.547.703.875 1.844.875 1.14 0 2.36-.562l.374 1.312q-1.406.64-2.844.64-1.859 0-3.03-1.343-1.173-1.344-1.173-3.469 0-2.14 1.172-3.453 1.172-1.328 3.031-1.328zm8.319 8.203q1.453 0 2.89-.86l.578 1.204q-1.687 1.047-3.593 1.047-1.907 0-3.032-1.203-1.125-1.22-1.125-3.485 0-2.281 1.157-3.594 1.171-1.312 3.093-1.312 1.735 0 2.735 1.078.422.438.703 1.281.297.844.297 1.985l-.61.703h-5.672q.063 3.156 2.579 3.156zm2.03-4.422q0-1.125-.593-1.797-.578-.687-1.531-.687-.938 0-1.61.672-.656.672-.796 1.812h4.53zm9.914-8.781h1.64v14.36h-1.078l-.5-1.204q-1.5 1.438-3.093 1.438-1.594 0-2.64-1.219-1.032-1.234-1.032-3.328 0-2.11 1.234-3.516 1.25-1.406 3.203-1.406 1.063 0 2.266.469v-5.594zm-1.844 6.484q-1.5 0-2.328 1.016-.812 1.016-.812 2.484 0 1.453.671 2.344.688.875 1.782.875.593 0 1.281-.328.687-.328 1.25-.922v-5.11q-.938-.359-1.844-.359zm11.746 7.875V365.18h8.125l-.39 1.515h-6.016v4.563h5.687v1.453h-5.687v4.766h6.78v1.515h-8.5zm18.481-6.906v6.906h-1.703v-6.812q0-.531-.406-.813-.407-.28-1.094-.28-1.422 0-2.938 1.03v6.875h-1.703v-9.125h1.078l.5 1.047q1.547-1.281 3.344-1.281 1.344 0 2.125.687.797.672.797 1.766zm6.374-2.453q1.344 0 2.72.594l-.5 1.25q-1.016-.438-2.173-.438-1.14 0-1.812.86-.672.859-.672 2.515 0 1.656.703 2.547.703.875 1.844.875 1.14 0 2.36-.562l.374 1.312q-1.406.64-2.844.64-1.859 0-3.03-1.343-1.173-1.344-1.173-3.469 0-2.14 1.172-3.453 1.172-1.328 3.031-1.328zm4.662.234h1.078l.5 1.61h.079q1.109-1.422 3.03-1.719l.173 1.578q-.938.063-1.828.484-.875.407-1.329 1.11v6.062h-1.703v-9.125zm9.503 10.75q-.656 1.922-1.218 2.563-.547.656-1.625.656-1.078 0-2.375-.61l.625-1.296q.859.469 1.468.469.547 0 .72-.188l.265-.266q.265-.25.453-.89.203-.64.328-1 .125-.344.172-.547l-3.328-9.64h1.719l2.359 7.312h.078l2.36-7.313h1.718l-3.719 10.75zm8.777-2.75q1.5 0 2.313-1.015.828-1.016.828-2.485 0-1.468-.719-2.375-.703-.906-1.937-.906-.485 0-1.141.281-.656.282-1.187.75v5.391q.953.36 1.843.36zm-1.843 5.72h-1.657v-13.72h1.078l.47 1.047q1.452-1.281 3.093-1.281 1.64 0 2.672 1.281 1.047 1.281 1.047 3.328 0 2.047-1.22 3.516-1.202 1.469-3.437 1.469-1 0-2.046-.282v4.641zm11.03-12.454v5.484q0 1.188 1.14 1.188.657 0 1.579-.375l.219 1.344q-.985.453-2.063.453-1.078 0-1.797-.64-.718-.657-.718-2v-5.454h-1.266v-1.266h1.266v-1.797l1.234-1.14h.406v2.937h2.578v1.266h-2.578zm6.515-3.406q-.313.328-.782.328-.453 0-.781-.328-.312-.328-.312-.782 0-.468.328-.796.328-.344.765-.344.438 0 .766.344.344.328.344.796 0 .454-.328.782zm-1.625 2.14h1.703v9.125h-1.703v-9.125zm8.493 1.063q-.765 0-1.328.344-.547.343-.797.875-.484 1.03-.484 2.187 0 3.594 2.5 3.594.766 0 1.297-.328.547-.344.828-.89.484-1 .484-2.173 0-3.61-2.5-3.61zm0-1.297q2.219 0 3.235 1.39 1.015 1.376 1.015 3.594 0 1.594-.843 2.953-.454.735-1.375 1.204-.922.453-2.204.453-2.203 0-3.203-1.313-1-1.328-1-3.547 0-1.297.407-2.187.421-.906.875-1.39.468-.5 1.265-.829.797-.328 1.828-.328zm14.354 2.453v6.906h-1.703v-6.812q0-.531-.406-.813-.407-.28-1.094-.28-1.422 0-2.938 1.03v6.875h-1.703v-9.125h1.078l.5 1.047q1.547-1.281 3.344-1.281 1.344 0 2.125.687.797.672.797 1.766zm14.993-5.187q-1.39-.485-2.594-.485-1.203 0-1.968.625-.75.61-.75 1.5 0 1.25 1.343 1.969l2.813 1.562q2.36 1.329 2.36 3.407 0 1.718-1.22 2.734-1.218 1.016-3.437 1.016t-3.984-.797l.5-1.39q1.64.718 3.234.718t2.344-.625q.765-.625.765-1.5 0-1.266-1.343-1.984l-2.813-1.563q-2.36-1.312-2.36-3.39 0-1.72 1.22-2.735 1.218-1.031 3.28-1.031 1.391 0 3.141.578l-.53 1.39zm5.49 4.234v5.484q0 1.188 1.14 1.188.657 0 1.579-.375l.219 1.344q-.985.453-2.063.453-1.078 0-1.797-.64-.719-.657-.719-2v-5.454h-1.265v-1.266h1.265v-1.797l1.235-1.14h.406v2.937h2.578v1.266h-2.578zm9.733 2.406v-.89q0-1.61-1.672-1.61-1.328 0-2.765.86l-.578-1.204q1.671-1.062 3.625-1.062 1.359 0 2.218.687.875.688.875 2.125v6.547h-1.078l-.5-1.203q-.64.656-1.531 1.047-.875.39-1.594.39-1.234 0-1.984-.671-.735-.688-.735-1.781 0-3.235 5.72-3.235zm-3.312 1.938q-.39.328-.516.61-.125.265-.125.702 0 .422.36.735.374.312.968.312 1.266 0 2.625-1.125v-2q-2.515.047-3.312.766zm15.656-3.39v6.905h-1.703v-6.812q0-.531-.406-.813-.407-.28-1.094-.28-1.422 0-2.938 1.03v6.875h-1.703v-9.125h1.078l.5 1.047q1.547-1.281 3.344-1.281 1.344 0 2.125.687.797.672.797 1.766zm8.937-7.454h1.64v14.36h-1.078l-.5-1.204q-1.5 1.438-3.093 1.438-1.594 0-2.641-1.219-1.031-1.234-1.031-3.328 0-2.11 1.234-3.516 1.25-1.406 3.203-1.406 1.063 0 2.266.469v-5.594zm-1.844 6.484q-1.5 0-2.328 1.016-.813 1.016-.813 2.484 0 1.453.672 2.344.688.875 1.782.875.593 0 1.28-.328.688-.328 1.25-.922v-5.11q-.937-.359-1.843-.359zm11.283 2.422v-.89q0-1.61-1.672-1.61-1.328 0-2.765.86l-.578-1.204q1.671-1.062 3.625-1.062 1.359 0 2.218.687.875.688.875 2.125v6.547h-1.078l-.5-1.203q-.64.656-1.531 1.047-.875.39-1.594.39-1.234 0-1.984-.671-.735-.688-.735-1.781 0-3.235 5.72-3.235zm-3.312 1.938q-.391.328-.516.61-.125.265-.125.702 0 .422.36.735.374.312.968.312 1.266 0 2.625-1.125v-2q-2.515.047-3.312.766zm7.812-5.61h1.078l.5 1.61h.078q1.11-1.422 3.032-1.719l.172 1.578q-.938.063-1.829.484-.875.407-1.328 1.11v6.062h-1.703v-9.125zm12.44-5.234h1.641v14.36h-1.078l-.5-1.204q-1.5 1.438-3.093 1.438-1.594 0-2.641-1.219-1.031-1.234-1.031-3.328 0-2.11 1.234-3.516 1.25-1.406 3.203-1.406 1.063 0 2.266.469v-5.594zm-1.843 6.484q-1.5 0-2.328 1.016-.813 1.016-.813 2.484 0 1.453.672 2.344.688.875 1.782.875.593 0 1.28-.328.688-.328 1.25-.922v-5.11q-.937-.359-1.843-.359zM545.07 373.366v5.625h-1.72V365.18h3.642q2.046 0 3.375 1.094 1.343 1.078 1.343 3.015 0 1.406-.75 2.375-.734.969-1.984 1.406 1.031 1.204 3.86 5.922h-2.079q-2.781-4.797-3.531-5.625h-2.156zm0-1.468h1.922q1.375 0 2.125-.672.75-.688.75-1.922 0-1.25-.75-1.922-.75-.688-2.125-.688h-1.922v5.204zm10.98-4.172q-.313.328-.782.328-.453 0-.78-.328-.313-.328-.313-.782 0-.468.328-.796.328-.344.765-.344.438 0 .766.344.344.328.344.796 0 .454-.328.782zm-1.625 2.14h1.703v9.125h-1.703v-9.125zm8.462 9.125h-1.875l-3.187-9.125h1.718l2.375 7.313h.079l2.359-7.313h1.719l-3.188 9.125zm8.378-1.156q1.453 0 2.89-.86l.578 1.204q-1.687 1.047-3.593 1.047-1.907 0-3.032-1.203-1.125-1.22-1.125-3.485 0-2.281 1.157-3.594 1.171-1.312 3.093-1.312 1.735 0 2.735 1.078.422.438.703 1.281.297.844.297 1.985l-.61.703h-5.672q.063 3.156 2.579 3.156zm2.03-4.422q0-1.125-.593-1.797-.578-.687-1.531-.687-.938 0-1.61.672-.656.672-.796 1.812h4.53zm8.46-1.937q-1.03-.438-1.921-.438-1.75 0-1.75 1.047 0 .922 2.328 1.781.86.328 1.578 1.016.735.672.735 1.625 0 1.39-.907 2.062-.89.657-2.5.657-1.593 0-3.109-.875l.5-1.235q1.266.72 2.86.72.687 0 1.093-.282.422-.297.422-.797t-.484-.86q-.47-.359-1.157-.64-.672-.281-1.359-.61-.672-.343-1.156-.937-.485-.594-.485-1.422 0-1.281.875-1.969.875-.687 2.203-.687 1.344 0 2.735.594l-.5 1.25zm5.04-.344v5.484q0 1.188 1.14 1.188.657 0 1.579-.375l.219 1.344q-.985.453-2.063.453-1.078 0-1.797-.64-.718-.657-.718-2v-5.454h-1.266v-1.266h1.266v-1.797l1.234-1.14h.406v2.937h2.578v1.266h-2.578zm9.702 3.297h-5.703v-1.36h5.703v1.36zm8.928-7.531q-1.39-.485-2.594-.485-1.203 0-1.968.625-.75.61-.75 1.5 0 1.25 1.343 1.969l2.813 1.562q2.36 1.329 2.36 3.407 0 1.718-1.22 2.734-1.218 1.016-3.437 1.016t-3.984-.797l.5-1.39q1.64.718 3.234.718t2.344-.625q.765-.625.765-1.5 0-1.266-1.343-1.984l-2.813-1.563q-2.36-1.312-2.36-3.39 0-1.72 1.22-2.735 1.218-1.031 3.28-1.031 1.391 0 3.141.578l-.53 1.39zm5.068-2.266v6.172q1.5-1.172 3.22-1.172 1.343 0 2.124.672.797.672.797 1.75v6.937h-1.703v-6.812q0-.531-.406-.813-.407-.28-1.094-.28-1.422 0-2.938 1.03v6.875h-1.703v-14.359h1.703zm13.935 8.906v-.89q0-1.61-1.672-1.61-1.328 0-2.765.86l-.578-1.204q1.672-1.062 3.625-1.062 1.36 0 2.218.687.875.688.875 2.125v6.547h-1.078l-.5-1.203q-.64.656-1.53 1.047-.876.39-1.595.39-1.234 0-1.984-.671-.734-.688-.734-1.781 0-3.235 5.718-3.235zm-3.312 1.938q-.39.328-.516.61-.125.265-.125.702 0 .422.36.735.375.312.968.312 1.266 0 2.625-1.125v-2q-2.515.047-3.312.766zm9.39-4.563q1.485-1.281 3.282-1.281t2.468 1.406q1.579-1.406 3.313-1.406 1.281 0 2.031.687.75.672.75 1.766v6.906h-1.703v-6.812q0-.531-.375-.813-.375-.28-1.016-.28-1.312 0-2.78 1.062v6.843h-1.704v-6.812q0-.531-.39-.813-.376-.28-1.016-.28-1.328 0-2.735 1.03v6.875h-1.703v-9.125h1.078l.5 1.047zm16.424-3.187q-.313.328-.782.328-.453 0-.78-.328-.313-.328-.313-.782 0-.468.328-.796.328-.344.765-.344.438 0 .766.344.344.328.344.796 0 .454-.328.782zm-1.625 2.14h1.703v9.125h-1.703v-9.125zm4.743 0h1.078l.5 1.61h.079q1.109-1.422 3.03-1.719l.173 1.578q-.938.063-1.828.484-.875.407-1.329 1.11v6.062h-1.703v-9.125zm11.269 4.563h-5.703v-1.36h5.703v1.36zm11.053 4.562-1.578-4.5h-5.219l-1.578 4.5h-1.781l5-13.812h2.062l5 13.812h-1.906zm-2.078-5.953-1.734-4.984-.328-1.125h-.079l-.328 1.125-1.734 4.984h4.203zm11.757-8.406h1.64v14.36h-1.078l-.5-1.204q-1.5 1.438-3.093 1.438-1.594 0-2.641-1.219-1.031-1.234-1.031-3.328 0-2.11 1.234-3.516 1.25-1.406 3.203-1.406 1.063 0 2.266.469v-5.594zm-1.844 6.484q-1.5 0-2.328 1.016-.812 1.016-.812 2.484 0 1.453.671 2.344.688.875 1.782.875.593 0 1.28-.328.688-.328 1.25-.922v-5.11q-.937-.359-1.843-.359zm6.205-6.484h1.64v14.36h-1.64v-14.36zm8.095 13.203q1.453 0 2.89-.86l.578 1.204q-1.687 1.047-3.593 1.047-1.907 0-3.032-1.203-1.125-1.22-1.125-3.485 0-2.281 1.157-3.594 1.171-1.312 3.093-1.312 1.735 0 2.735 1.078.422.438.703 1.281.297.844.297 1.985l-.61.703h-5.672q.063 3.156 2.579 3.156zm2.03-4.422q0-1.125-.593-1.797-.578-.687-1.531-.687-.938 0-1.61.672-.656.672-.796 1.812h4.53zm5.351-2.5q1.485-1.281 3.282-1.281 1.796 0 2.468 1.406 1.578-1.406 3.313-1.406 1.281 0 2.031.687.75.672.75 1.766v6.906h-1.703v-6.812q0-.531-.375-.813-.375-.28-1.016-.28-1.312 0-2.78 1.062v6.843h-1.704v-6.812q0-.531-.39-.813-.376-.28-1.016-.28-1.328 0-2.735 1.03v6.875h-1.703v-9.125h1.078l.5 1.047zm19.642 2.625v-.89q0-1.61-1.672-1.61-1.328 0-2.765.86l-.578-1.204q1.672-1.062 3.625-1.062 1.359 0 2.218.687.875.688.875 2.125v6.547h-1.078l-.5-1.203q-.64.656-1.531 1.047-.875.39-1.594.39-1.234 0-1.984-.671-.734-.688-.734-1.781 0-3.235 5.718-3.235zm-3.312 1.938q-.39.328-.516.61-.125.265-.125.702 0 .422.36.735.375.312.968.312 1.266 0 2.625-1.125v-2q-2.515.047-3.312.766zm15.656-3.39v6.905h-1.703v-6.812q0-.531-.406-.813-.407-.28-1.094-.28-1.422 0-2.938 1.03v6.875h-1.703v-9.125h1.078l.5 1.047q1.547-1.281 3.344-1.281 1.344 0 2.125.687.797.672.797 1.766zM1034.885 366.898q-1.39-.485-2.593-.485-1.204 0-1.97.625-.75.61-.75 1.5 0 1.25 1.345 1.969l2.812 1.562q2.36 1.329 2.36 3.407 0 1.718-1.22 2.734-1.218 1.016-3.437 1.016t-3.984-.797l.5-1.39q1.64.718 3.234.718t2.344-.625q.766-.625.766-1.5 0-1.266-1.344-1.984l-2.813-1.563q-2.36-1.312-2.36-3.39 0-1.72 1.22-2.735 1.218-1.031 3.28-1.031 1.392 0 3.142.578l-.532 1.39zm7.1 10.937q1.453 0 2.89-.86l.578 1.204q-1.687 1.047-3.593 1.047-1.907 0-3.032-1.203-1.125-1.22-1.125-3.485 0-2.281 1.157-3.594 1.172-1.312 3.093-1.312 1.735 0 2.735 1.078.422.438.703 1.281.297.844.297 1.985l-.61.703h-5.671q.062 3.156 2.578 3.156zm2.03-4.422q0-1.125-.593-1.797-.578-.687-1.531-.687-.938 0-1.61.672-.656.672-.796 1.812h4.53zm7.352-3.781q1.343 0 2.718.594l-.5 1.25q-1.015-.438-2.172-.438-1.14 0-1.812.86-.672.859-.672 2.515 0 1.656.703 2.547.703.875 1.844.875 1.14 0 2.36-.562l.374 1.312q-1.406.64-2.843.64-1.86 0-3.032-1.343-1.172-1.344-1.172-3.469 0-2.14 1.172-3.453 1.172-1.328 3.032-1.328zm6.286.234v6.782q0 .562.407.875.406.312 1.078.312 1.406 0 2.906-1.125v-6.844h1.703v9.125h-1.078l-.5-1.203q-1.531 1.438-3.422 1.438-1.203 0-2-.64-.797-.642-.797-1.86v-6.86h1.703zm8.975 0h1.079l.5 1.61h.078q1.11-1.422 3.031-1.719l.172 1.578q-.938.063-1.828.484-.875.407-1.328 1.11v6.062h-1.704v-9.125zm9.957 7.97q1.453 0 2.89-.86l.578 1.203q-1.687 1.047-3.593 1.047-1.907 0-3.032-1.203-1.125-1.22-1.125-3.485 0-2.281 1.157-3.594 1.172-1.312 3.093-1.312 1.735 0 2.735 1.078.422.438.703 1.281.297.844.297 1.985l-.61.703h-5.671q.062 3.156 2.578 3.156zm2.03-4.423q0-1.125-.593-1.797-.578-.687-1.531-.687-.938 0-1.61.672-.656.672-.796 1.812h4.53zm18.423 5.578v-6.28h-7.468v6.28h-1.72V365.18h1.72v6.078h7.468v-6.078h1.72v13.812h-1.72zm9.65-5.453v-.89q0-1.61-1.671-1.61-1.329 0-2.766.86l-.578-1.204q1.672-1.062 3.625-1.062 1.36 0 2.219.687.875.688.875 2.125v6.547h-1.079l-.5-1.203q-.64.656-1.53 1.047-.876.39-1.595.39-1.234 0-1.984-.671-.734-.688-.734-1.781 0-3.235 5.718-3.235zm-3.312 1.938q-.39.328-.516.61-.125.265-.125.702 0 .422.36.735.375.312.968.312 1.266 0 2.625-1.125v-2q-2.515.047-3.312.766zm12.5-4q-1.031-.438-1.922-.438-1.75 0-1.75 1.047 0 .922 2.328 1.781.86.328 1.578 1.016.735.672.735 1.625 0 1.39-.907 2.062-.89.657-2.5.657-1.593 0-3.11-.875l.5-1.235q1.267.72 2.86.72.688 0 1.094-.282.422-.297.422-.797t-.484-.86q-.47-.359-1.157-.64-.672-.281-1.36-.61-.671-.343-1.155-.937-.485-.594-.485-1.422 0-1.281.875-1.969.875-.687 2.203-.687 1.344 0 2.735.594l-.5 1.25zm4.617-6.844v6.172q1.5-1.172 3.22-1.172 1.343 0 2.124.672.797.672.797 1.75v6.937h-1.703v-6.812q0-.531-.406-.813-.407-.28-1.094-.28-1.422 0-2.938 1.03v6.875h-1.703v-14.359h1.703zm23.257 14.36-1.578-4.5h-5.219l-1.578 4.5h-1.781l5-13.813h2.062l5 13.812h-1.906zm-2.078-5.954-1.734-4.984-.328-1.125h-.079l-.328 1.125-1.734 4.984h4.203zm5.538-8.406h1.64v14.36h-1.64v-14.36zm7.423 11.781q-.469 0-.875-.062-.5.953-.5 1.265 0 .141.36.235l2.437.547q1.703.375 2.421.875.72.515.72 1.515 0 1-.704 1.688-1.36 1.36-4 1.36-1.625 0-2.812-.61-1.172-.594-1.172-1.719 0-1.11 1.61-2.578-.61-.219-.61-.656 0-.438 1.187-2.188-1.719-.734-1.719-3.094 0-1.312.922-2.297.938-1 2.735-1 1.031 0 1.812.297l2.813-.312v1.328h-1.5q.515.844.515 2.14 0 1.282-.922 2.282-.921.984-2.718.984zm2.031-3.125q0-2.484-2.016-2.484-.797 0-1.297.422-.78.687-.78 1.703 0 1 .468 1.687.484.672 1.547.672 1.062 0 1.562-.64.516-.657.516-1.36zm-4.547 7.969q0 .64.688.969.703.343 1.828.343t2.078-.453q.953-.437.953-1.218 0-.407-.453-.657-.453-.25-1.594-.484l-2.344-.531q-1.156 1.172-1.156 2.031zm12.661-10.328q-.765 0-1.328.344-.547.343-.797.875-.484 1.03-.484 2.187 0 3.594 2.5 3.594.766 0 1.297-.328.547-.344.828-.89.484-1 .484-2.173 0-3.61-2.5-3.61zm0-1.297q2.22 0 3.235 1.39 1.015 1.376 1.015 3.594 0 1.594-.843 2.953-.454.735-1.375 1.204-.922.453-2.204.453-2.203 0-3.203-1.313-1-1.328-1-3.547 0-1.297.407-2.187.421-.906.875-1.39.468-.5 1.265-.829.797-.328 1.828-.328zm6.51.234h1.078l.5 1.61h.079q1.109-1.422 3.03-1.719l.173 1.578q-.938.063-1.828.484-.875.407-1.329 1.11v6.062h-1.703v-9.125zm8.082-2.14q-.313.328-.782.328-.453 0-.78-.328-.313-.328-.313-.782 0-.468.328-.796.328-.344.765-.344.438 0 .766.344.344.328.344.796 0 .454-.328.782zm-1.625 2.14h1.703v9.125h-1.703v-9.125zm6.79 1.266v5.484q0 1.188 1.14 1.188.657 0 1.579-.375l.219 1.344q-.985.453-2.063.453-1.078 0-1.797-.64-.718-.657-.718-2v-5.454h-1.266v-1.266h1.266v-1.797l1.234-1.14h.406v2.937h2.578v1.266h-2.578zm6.358-6.5v6.172q1.5-1.172 3.219-1.172 1.344 0 2.125.672.797.672.797 1.75v6.937h-1.703v-6.812q0-.531-.407-.813-.406-.28-1.093-.28-1.422 0-2.938 1.03v6.875h-1.703v-14.359h1.703zm10.513 6.281q1.485-1.281 3.282-1.281t2.468 1.406q1.579-1.406 3.313-1.406 1.281 0 2.031.687.75.672.75 1.766v6.906h-1.703v-6.812q0-.531-.375-.813-.375-.28-1.016-.28-1.312 0-2.78 1.062v6.843h-1.704v-6.812q0-.531-.39-.813-.376-.28-1.016-.28-1.328 0-2.735 1.03v6.875h-1.703v-9.125h1.078l.5 1.047z"/><defs><linearGradient id="e" gradientUnits="userSpaceOnUse" gradientTransform="scale(8.95133)" spreadMethod="pad" x1=".706" y1="27.557" x2=".706" y2="36.509"><stop offset="0" stop-color="#ebf2e9"/><stop offset="1" stop-color="#b6d7a8"/></linearGradient></defs><path fill="url(#e)" d="M6.32 246.676h107.055v80.126H6.32z" fill-rule="evenodd"/><path stroke="#000" stroke-linejoin="round" stroke-linecap="butt" d="M6.32 246.676h107.055v80.126H6.32z"/><path fill="#000" d="M19.633 272.112h-2.75v-1.36h7.125v1.36h-2.735v9.156h2.735v1.39h-7.125v-1.39h2.75v-9.156zm7.398 1.406h1.422l.062 1.469q.39-.469.766-.781.375-.313.734-.5.36-.203.734-.281.375-.079.782-.079 1.406 0 2.125.844.734.828.734 2.5v5.969h-1.594v-5.844q0-1.078-.406-1.578-.39-.516-1.187-.516-.282 0-.563.094-.281.078-.578.297-.297.203-.656.578-.344.36-.782.906v6.063h-1.593v-9.14zm18.085 4.407q0 1.218-.344 2.14-.343.906-.953 1.516-.594.594-1.422.89-.812.297-1.765.297-.438 0-.875-.047-.438-.046-.875-.156v3.828h-1.594v-12.875h1.422l.094 1.532q.687-.938 1.453-1.313.78-.39 1.687-.39.781 0 1.375.328t.985.937q.406.594.609 1.438.203.828.203 1.875zm-1.625.062q0-.719-.11-1.313-.109-.609-.343-1.03-.219-.423-.578-.657-.344-.25-.844-.25-.297 0-.61.094-.312.094-.64.328-.328.219-.703.594-.36.359-.781.906v4.437q.437.172.922.282.484.109.937.109 1.281 0 2.016-.875.734-.875.734-2.625zm11.414 4.672h-1.422l-.063-1.469q-.406.469-.781.781-.36.313-.734.516-.36.188-.735.25-.36.078-.765.078-1.422 0-2.141-.828-.719-.828-.719-2.5v-5.969h1.594v5.844q0 2.11 1.578 2.11.297 0 .563-.079.28-.093.578-.312.312-.219.656-.578.36-.36.797-.922v-6.063h1.594v9.14zm10.273-.125q-.532.14-1.11.187-.578.063-1.172.063-1.718 0-2.562-.781-.844-.782-.844-2.391v-4.766h-2.562v-1.328h2.562v-2.515l1.578-.407v2.922h4.11v1.328h-4.11v4.641q0 .984.516 1.469.531.484 1.547.484.437 0 .953-.062.531-.063 1.094-.22v1.376zM25.133 304.659h-1.594l-.234-7.422-.094-2.86-.563 1.657-1.75 4.75h-1.125l-1.672-4.563-.562-1.843-.031 2.984-.203 7.297h-1.532l.578-11.906h1.922l1.61 4.484.515 1.516.5-1.516 1.688-4.484h1.969l.578 11.906zm9.632-5.063q0 .344-.016.578 0 .22-.03.422h-6.423q0 1.407.782 2.157.796.75 2.265.75.406 0 .797-.032.406-.03.781-.078.375-.062.719-.125.344-.078.625-.156v1.297q-.64.187-1.469.297-.812.11-1.687.11-1.172 0-2.016-.313-.844-.313-1.39-.922-.547-.61-.813-1.485-.25-.875-.25-2 0-.953.281-1.812.282-.86.813-1.516.531-.656 1.297-1.031.78-.39 1.765-.39.953 0 1.688.312.75.297 1.25.844.5.546.765 1.343.266.782.266 1.75zm-1.656-.218q.031-.61-.125-1.11-.14-.515-.453-.875-.297-.375-.75-.578-.453-.203-1.063-.203-.515 0-.953.203-.422.203-.734.563-.297.359-.5.875-.188.515-.235 1.125h4.813zm11.429 2.78q0 .485-.172.876-.156.375-.437.672-.282.297-.657.515-.375.203-.797.344-.421.125-.875.188-.453.062-.875.062-.921 0-1.703-.078-.781-.078-1.531-.266v-1.453q.797.235 1.594.36.797.109 1.578.109 1.14 0 1.687-.313.547-.312.547-.89 0-.235-.093-.422-.079-.203-.313-.375-.219-.188-.703-.375-.484-.203-1.313-.438-.609-.187-1.14-.421-.516-.235-.906-.547-.375-.328-.594-.75-.219-.422-.219-1.016 0-.375.172-.828.172-.453.594-.844.437-.406 1.172-.656.734-.266 1.812-.266.547 0 1.203.063.656.062 1.36.203v1.406q-.75-.172-1.422-.25-.657-.094-1.157-.094-.593 0-1 .094-.39.078-.656.25-.25.156-.36.375-.109.203-.109.453t.094.453q.11.188.36.375.265.188.718.375.469.188 1.219.407.813.234 1.36.5.562.25.906.578.359.312.5.719.156.406.156.906zm10.257 0q0 .485-.172.876-.156.375-.437.672-.281.297-.656.515-.375.203-.797.344-.422.125-.875.188-.453.062-.875.062-.922 0-1.703-.078-.782-.078-1.532-.266v-1.453q.797.235 1.594.36.797.109 1.578.109 1.14 0 1.688-.313.547-.312.547-.89 0-.235-.094-.422-.078-.203-.313-.375-.218-.188-.703-.375-.484-.203-1.312-.438-.61-.187-1.14-.421-.517-.235-.907-.547-.375-.328-.594-.75-.219-.422-.219-1.016 0-.375.172-.828.172-.453.594-.844.437-.406 1.172-.656.734-.266 1.812-.266.547 0 1.203.063.657.062 1.36.203v1.406q-.75-.172-1.422-.25-.656-.094-1.156-.094-.594 0-1 .094-.39.078-.657.25-.25.156-.359.375-.11.203-.11.453t.094.453q.11.188.36.375.265.188.719.375.468.188 1.218.407.813.234 1.36.5.562.25.906.578.36.312.5.719.156.406.156.906zm8.883 2.5-.032-1.234q-.75.75-1.515 1.079-.766.312-1.625.312-.782 0-1.344-.187-.547-.204-.906-.547-.36-.36-.532-.828-.156-.485-.156-1.032 0-1.375 1.016-2.156 1.031-.781 3.031-.781h1.89v-.797q0-.813-.515-1.297-.516-.5-1.578-.5-.781 0-1.531.188-.75.171-1.547.484v-1.438q.297-.109.656-.203.375-.109.781-.187.407-.078.86-.125.453-.063.906-.063.828 0 1.484.188.672.172 1.125.547.469.375.703.953.25.562.25 1.328v6.297h-1.421zm-.172-4.155H61.49q-.578 0-1.016.125-.421.109-.703.328-.265.218-.406.531-.125.297-.125.672 0 .265.078.515.078.235.266.422.187.188.469.297.296.11.718.11.547 0 1.25-.329.703-.343 1.485-1.062v-1.61zm11.148-3.704q.25.329.39.75.14.422.14.922 0 .703-.265 1.297-.25.578-.734 1-.469.422-1.125.656-.656.235-1.453.235-.578 0-1.078-.125-.5-.125-.782-.313-.187.266-.312.5-.11.22-.11.5 0 .344.329.578.343.22.89.235l2.406.094q.672.015 1.25.171.594.157 1 .454.422.28.641.718.234.422.234.985 0 .61-.265 1.156-.25.547-.813.953-.547.422-1.39.672-.844.25-2.016.25-1.11 0-1.89-.188-.782-.171-1.282-.484-.5-.312-.734-.75-.219-.422-.219-.953 0-.656.297-1.156.312-.5.969-.969-.235-.11-.407-.266-.171-.172-.28-.359-.11-.203-.173-.422-.047-.219-.047-.437 0-.579.266-1.063.281-.5.672-.937-.172-.22-.313-.407-.125-.203-.234-.437-.094-.235-.14-.5-.047-.281-.047-.625 0-.703.25-1.281.265-.594.734-1.016.469-.422 1.125-.656.672-.235 1.469-.235.343 0 .64.047.313.047.547.125h3.328v1.281h-1.468zm-5.5 9.188q0 .64.671.937.672.297 1.875.297.75 0 1.266-.14t.828-.36q.313-.218.453-.515.14-.282.14-.578 0-.563-.452-.829-.453-.265-1.39-.296l-2.391-.094q-.297.203-.5.39-.204.204-.313.391-.11.203-.156.39-.031.204-.031.407zm.484-7.484q0 .437.14.812.141.36.407.61.265.25.625.39t.797.14q.468 0 .843-.156.375-.156.625-.421.25-.282.375-.641.141-.36.141-.734 0-.438-.156-.797-.14-.375-.406-.625t-.625-.39q-.36-.142-.797-.142-.47 0-.844.172-.36.157-.625.422-.25.266-.375.625-.125.344-.125.735zm16.413 1.093q0 .344-.015.578 0 .22-.031.422h-6.422q0 1.407.781 2.157.797.75 2.266.75.406 0 .796-.032.407-.03.782-.078.375-.062.718-.125.344-.078.625-.156v1.297q-.64.187-1.468.297-.813.11-1.688.11-1.172 0-2.015-.313-.844-.313-1.391-.922-.547-.61-.813-1.485-.25-.875-.25-2 0-.953.282-1.812.281-.86.812-1.516t1.297-1.031q.781-.39 1.766-.39.953 0 1.687.312.75.297 1.25.844.5.546.766 1.343.265.782.265 1.75zm-1.656-.218q.031-.61-.125-1.11-.14-.515-.453-.875-.297-.375-.75-.578-.453-.203-1.062-.203-.516 0-.954.203-.421.203-.734.563-.297.359-.5.875-.187.515-.234 1.125h4.812z"/><defs><linearGradient id="f" gradientUnits="userSpaceOnUse" gradientTransform="scale(7.41626) rotate(-40.59)" spreadMethod="pad" x1="-15.293" y1="25.89" x2="-15.294" y2="31.521"><stop offset="0" stop-color="#45818e"/><stop offset="1" stop-color="#134f5c"/></linearGradient></defs><path fill="url(#f)" d="m52.395 235.467.006-27.49 8.016 6.875 61.405-52.613-8.016-6.874 32.07.007-.007 27.49-8.016-6.875L76.448 228.6l8.016 6.874z" fill-rule="evenodd"/><path stroke="#000" stroke-linejoin="round" stroke-linecap="butt" d="m52.395 235.467.006-27.49 8.016 6.875 61.405-52.613-8.016-6.874 32.07.007-.007 27.49-8.016-6.875L76.448 228.6l8.016 6.874z"/><defs><linearGradient id="g" gradientUnits="userSpaceOnUse" gradientTransform="scale(7.41552) rotate(40.579)" spreadMethod="pad" x1="38.698" y1="-8.336" x2="38.697" y2="-2.704"><stop offset="0" stop-color="#45818e"/><stop offset="1" stop-color="#134f5c"/></linearGradient></defs><path fill="url(#g)" d="m244.57 155.592 32.072-.01-8.015 6.874 61.18 52.398 8.015-6.874.009 27.486-32.072.01 8.016-6.874-61.18-52.398-8.016 6.874z" fill-rule="evenodd"/><path stroke="#000" stroke-linejoin="round" stroke-linecap="butt" d="m244.57 155.592 32.072-.01-8.015 6.874 61.18 52.398 8.015-6.874.009 27.486-32.072.01 8.016-6.874-61.18-52.398-8.016 6.874z"/><defs><linearGradient id="h" gradientUnits="userSpaceOnUse" gradientTransform="scale(8.95133)" spreadMethod="pad" x1="30.064" y1="27.557" x2="30.064" y2="36.509"><stop offset="0" stop-color="#e9eff2"/><stop offset="1" stop-color="#9fc5e8"/></linearGradient></defs><path fill="url(#h)" d="M269.113 246.676h113.67v80.126h-113.67z" fill-rule="evenodd"/><path stroke="#000" stroke-linejoin="round" stroke-linecap="butt" d="M269.113 246.676h113.67v80.126h-113.67z"/><path fill="#000" d="M286.707 282.659h-6.766v-11.906h6.766v1.359h-5.141v3.703h4.953v1.36h-4.953v4.093h5.14v1.39zm3.116-9.14h1.422l.063 1.468q.39-.469.765-.781.375-.313.735-.5.359-.203.734-.282.375-.078.781-.078 1.407 0 2.125.844.735.828.735 2.5v5.969h-1.594v-5.844q0-1.078-.406-1.578-.391-.516-1.188-.516-.281 0-.562.094-.282.078-.578.297-.297.203-.657.578-.343.36-.781.906v6.063h-1.594v-9.14zm17.367 8.796q-.625.25-1.281.36-.64.109-1.328.109-2.172 0-3.344-1.172-1.172-1.172-1.172-3.438 0-1.078.328-1.953.344-.89.953-1.515.61-.64 1.453-.985.86-.343 1.875-.343.72 0 1.328.109.625.094 1.188.328v1.516q-.594-.313-1.219-.453-.61-.141-1.265-.141-.61 0-1.157.234-.53.235-.937.672-.406.422-.656 1.063-.235.625-.235 1.422 0 1.656.797 2.484.813.812 2.25.812.64 0 1.25-.14t1.172-.438v1.47zm3.523-8.797h1.453l.047 1.688q.812-.985 1.594-1.422.797-.438 1.593-.438 1.422 0 2.157.922.734.922.672 2.735h-1.594q.015-1.204-.36-1.735-.375-.547-1.109-.547-.312 0-.64.11-.329.11-.672.36-.329.25-.72.64-.374.39-.812.953v5.875h-1.61v-9.14zm18.023 0-3.11 8.172q-.484 1.25-1 2.156-.515.907-1.125 1.485-.609.578-1.343.843-.735.282-1.625.282-.25 0-.438-.016-.187-.016-.422-.031v-1.438q.203.032.438.047.25.031.5.031.437 0 .812-.14.39-.125.72-.406.343-.282.655-.75.313-.454.594-1.094l-3.656-9.14h1.812l2.313 6.046.469 1.422.53-1.469 2.141-6h1.735zm9.945 4.406q0 1.22-.344 2.141-.344.906-.953 1.516-.594.593-1.422.89-.813.297-1.766.297-.437 0-.875-.047-.437-.047-.875-.156v3.828h-1.594v-12.875h1.422l.094 1.531q.688-.937 1.453-1.312.781-.39 1.688-.39.781 0 1.375.327.593.329.984.938.406.594.61 1.437.203.829.203 1.875zm-1.625.063q0-.719-.11-1.313-.11-.609-.344-1.03-.218-.423-.578-.657-.343-.25-.843-.25-.297 0-.61.094-.312.093-.64.328-.329.219-.704.594-.359.359-.78.906v4.437q.437.172.921.282.484.109.938.109 1.28 0 2.015-.875.735-.875.735-2.625zm11.429 4.547q-.531.14-1.11.187-.578.063-1.171.063-1.72 0-2.563-.781-.844-.782-.844-2.391v-4.766h-2.562v-1.328h2.562v-2.515l1.578-.407v2.922h4.11v1.328h-4.11v4.641q0 .984.516 1.469.531.484 1.547.484.437 0 .953-.062.531-.063 1.094-.22v1.376zm10.616-4.938q0 .344-.015.578 0 .22-.031.422h-6.422q0 1.407.78 2.157.798.75 2.267.75.406 0 .796-.032.407-.03.782-.078.375-.062.718-.125.344-.078.625-.156v1.297q-.64.187-1.468.297-.813.11-1.688.11-1.172 0-2.015-.313-.844-.313-1.391-.922-.547-.61-.813-1.485-.25-.875-.25-2 0-.953.282-1.812.28-.86.812-1.516.531-.656 1.297-1.031.781-.39 1.766-.39.953 0 1.687.312.75.297 1.25.844.5.546.766 1.343.265.782.265 1.75zm-1.656-.218q.031-.61-.125-1.11-.14-.515-.453-.875-.297-.375-.75-.578-.453-.203-1.062-.203-.516 0-.954.203-.421.203-.734.563-.297.359-.5.875-.187.515-.234 1.125h4.812zm3.726.906q0-1.172.313-2.078.312-.907.906-1.532.594-.625 1.406-.937.828-.328 1.844-.328.437 0 .86.062.421.047.827.157v-3.844h1.594v12.875H367.5l-.047-1.735q-.671.97-1.453 1.438-.765.453-1.672.453-.78 0-1.375-.312-.593-.329-1-.922-.39-.61-.593-1.438-.188-.844-.188-1.86zm1.61-.11q0 1.657.484 2.485.5.812 1.39.812.594 0 1.266-.53.672-.548 1.406-1.61v-4.235q-.39-.187-.859-.28-.469-.095-.937-.095-1.297 0-2.032.844-.718.828-.718 2.61zM287.925 304.659h-1.593l-.235-7.422-.093-2.86-.563 1.657-1.75 4.75h-1.125l-1.672-4.563-.562-1.843-.032 2.984-.203 7.297h-1.531l.578-11.906h1.922l1.61 4.484.515 1.516.5-1.516 1.688-4.484h1.968l.578 11.906zm9.633-5.063q0 .344-.016.578 0 .22-.031.422h-6.422q0 1.407.781 2.157.797.75 2.266.75.406 0 .797-.032.406-.03.78-.078.376-.062.72-.125.343-.078.625-.156v1.297q-.641.187-1.47.297-.812.11-1.687.11-1.171 0-2.015-.313-.844-.313-1.39-.922-.548-.61-.813-1.485-.25-.875-.25-2 0-.953.28-1.812.282-.86.813-1.516.532-.656 1.297-1.031.782-.39 1.766-.39.953 0 1.687.312.75.297 1.25.844.5.546.766 1.343.266.782.266 1.75zm-1.657-.218q.032-.61-.125-1.11-.14-.515-.453-.875-.297-.375-.75-.578-.453-.203-1.062-.203-.516 0-.953.203-.422.203-.735.563-.297.359-.5.875-.187.515-.234 1.125h4.812zm11.43 2.78q0 .485-.172.876-.157.375-.438.672-.281.297-.656.515-.375.203-.797.344-.422.125-.875.188-.453.062-.875.062-.922 0-1.703-.078t-1.531-.266v-1.453q.797.235 1.593.36.797.109 1.579.109 1.14 0 1.687-.313.547-.312.547-.89 0-.235-.094-.422-.078-.203-.312-.375-.219-.188-.703-.375-.485-.203-1.313-.438-.61-.187-1.14-.421-.516-.235-.907-.547-.375-.328-.594-.75-.218-.422-.218-1.016 0-.375.172-.828.171-.453.593-.844.438-.406 1.172-.656.735-.266 1.813-.266.547 0 1.203.063.656.062 1.36.203v1.406q-.75-.172-1.423-.25-.656-.094-1.156-.094-.594 0-1 .094-.39.078-.656.25-.25.156-.36.375-.109.203-.109.453t.094.453q.11.188.36.375.265.188.718.375.469.188 1.219.407.812.234 1.36.5.562.25.905.578.36.312.5.719.157.406.157.906zm10.257 0q0 .485-.172.876-.156.375-.437.672-.282.297-.657.515-.375.203-.797.344-.421.125-.875.188-.453.062-.875.062-.921 0-1.703-.078-.781-.078-1.531-.266v-1.453q.797.235 1.594.36.797.109 1.578.109 1.14 0 1.687-.313.547-.312.547-.89 0-.235-.093-.422-.079-.203-.313-.375-.219-.188-.703-.375-.484-.203-1.313-.438-.609-.187-1.14-.421-.516-.235-.906-.547-.375-.328-.594-.75-.219-.422-.219-1.016 0-.375.172-.828.172-.453.594-.844.437-.406 1.172-.656.734-.266 1.812-.266.547 0 1.203.063.656.062 1.36.203v1.406q-.75-.172-1.422-.25-.657-.094-1.157-.094-.593 0-1 .094-.39.078-.656.25-.25.156-.36.375-.109.203-.109.453t.094.453q.11.188.36.375.265.188.718.375.469.188 1.219.407.813.234 1.36.5.562.25.906.578.359.312.5.719.156.406.156.906zm8.882 2.5-.031-1.234q-.75.75-1.516 1.079-.765.312-1.625.312-.78 0-1.343-.187-.547-.204-.907-.547-.36-.36-.53-.828-.157-.485-.157-1.032 0-1.375 1.015-2.156 1.032-.781 3.032-.781h1.89v-.797q0-.813-.515-1.297-.516-.5-1.578-.5-.782 0-1.532.188-.75.171-1.547.484v-1.438q.297-.109.657-.203.375-.109.78-.187.407-.078.86-.125.453-.063.907-.063.828 0 1.484.188.672.172 1.125.547.469.375.703.953.25.562.25 1.328v6.297h-1.422zm-.172-4.155h-2.015q-.578 0-1.016.125-.422.109-.703.328-.266.218-.406.531-.125.297-.125.672 0 .265.078.515.078.235.265.422.188.188.47.297.296.11.718.11.547 0 1.25-.329.703-.343 1.484-1.062v-1.61zm11.148-3.704q.25.329.39.75.141.422.141.922 0 .703-.265 1.297-.25.578-.735 1-.468.422-1.125.656-.656.235-1.453.235-.578 0-1.078-.125-.5-.125-.781-.313-.188.266-.313.5-.109.22-.109.5 0 .344.328.578.344.22.89.235l2.407.094q.672.015 1.25.171.594.157 1 .454.422.28.64.718.235.422.235.985 0 .61-.266 1.156-.25.547-.812.953-.547.422-1.39.672-.844.25-2.016.25-1.11 0-1.89-.188-.782-.171-1.282-.484-.5-.312-.735-.75-.218-.422-.218-.953 0-.656.297-1.156.312-.5.968-.969-.234-.11-.406-.266-.172-.172-.281-.359-.11-.203-.172-.422-.047-.219-.047-.437 0-.579.266-1.063.281-.5.672-.937-.172-.22-.313-.407-.125-.203-.234-.437-.094-.235-.14-.5-.048-.281-.048-.625 0-.703.25-1.281.266-.594.735-1.016.468-.422 1.125-.656.671-.235 1.468-.235.344 0 .641.047.312.047.547.125h3.328v1.281h-1.469zm-5.5 9.188q0 .64.672.937.672.297 1.875.297.75 0 1.266-.14.515-.14.828-.36.312-.218.453-.515.14-.282.14-.578 0-.563-.453-.829-.453-.265-1.39-.296l-2.39-.094q-.298.203-.5.39-.204.204-.313.391-.11.203-.157.39-.03.204-.03.407zm.485-7.484q0 .437.14.812.14.36.406.61t.625.39q.36.14.797.14.47 0 .844-.156.375-.156.625-.421.25-.282.375-.641.14-.36.14-.734 0-.438-.156-.797-.14-.375-.406-.625-.265-.25-.625-.39-.36-.142-.797-.142-.468 0-.843.172-.36.157-.625.422-.25.266-.375.625-.125.344-.125.735zm16.413 1.093q0 .344-.015.578 0 .22-.032.422h-6.422q0 1.407.782 2.157.797.75 2.265.75.407 0 .797-.032.406-.03.781-.078.375-.062.72-.125.343-.078.624-.156v1.297q-.64.187-1.469.297-.812.11-1.687.11-1.172 0-2.016-.313-.843-.313-1.39-.922-.547-.61-.813-1.485-.25-.875-.25-2 0-.953.281-1.812.282-.86.813-1.516.531-.656 1.297-1.031.781-.39 1.765-.39.954 0 1.688.312.75.297 1.25.844.5.546.766 1.343.265.782.265 1.75zm-1.656-.218q.031-.61-.125-1.11-.14-.515-.453-.875-.297-.375-.75-.578-.453-.203-1.063-.203-.515 0-.953.203-.422.203-.734.563-.297.359-.5.875-.188.515-.235 1.125h4.813z"/><defs><linearGradient id="i" gradientUnits="userSpaceOnUse" gradientTransform="matrix(0 5.44406 -5.44406 0 0 0)" spreadMethod="pad" x1="32.097" y1="-106.543" x2="32.097" y2="-101.099"><stop offset="0" stop-color="#dcecd5"/><stop offset="1" stop-color="#93bc81"/></linearGradient></defs><path fill="url(#i)" d="M580.03 174.74V184h-29.638v-9.26z" fill-rule="evenodd"/><path stroke="#000" stroke-linejoin="round" stroke-linecap="butt" d="M580.03 174.74V184h-29.638v-9.26z"/><defs><linearGradient id="j" gradientUnits="userSpaceOnUse" gradientTransform="matrix(0 5.44406 -5.44406 0 0 0)" spreadMethod="pad" x1="29.777" y1="-106.543" x2="29.777" y2="-101.099"><stop offset="0" stop-color="#dcecd5"/><stop offset="1" stop-color="#93bc81"/></linearGradient></defs><path fill="url(#j)" d="M580.03 162.11v9.26h-29.638v-9.26z" fill-rule="evenodd"/><path stroke="#000" stroke-linejoin="round" stroke-linecap="butt" d="M580.03 162.11v9.26h-29.638v-9.26z"/><defs><linearGradient id="k" gradientUnits="userSpaceOnUse" gradientTransform="scale(7.37094)" spreadMethod="pad" x1="74.669" y1="18.356" x2="74.669" y2="25.726"><stop offset="0" stop-color="#dcecd5"/><stop offset="1" stop-color="#93bc81"/></linearGradient></defs><path fill="url(#k)" d="M550.384 135.298h14.457v54.33h-14.457z" fill-rule="evenodd"/><path stroke="#000" stroke-linejoin="round" stroke-linecap="butt" d="M550.384 135.298h14.457v54.33h-14.457z"/><defs><linearGradient id="l" gradientUnits="userSpaceOnUse" gradientTransform="rotate(90) scale(5.44406)" spreadMethod="pad" x1="32.097" y1="-132.521" x2="32.097" y2="-127.077"><stop offset="0" stop-color="#dbd4eb"/><stop offset="1" stop-color="#9180bb"/></linearGradient></defs><path fill="url(#l)" d="M721.455 174.74V184h-29.638v-9.26z" fill-rule="evenodd"/><path stroke="#000" stroke-linejoin="round" stroke-linecap="butt" d="M721.455 174.74V184h-29.638v-9.26z"/><defs><linearGradient id="m" gradientUnits="userSpaceOnUse" gradientTransform="rotate(90) scale(5.44407)" spreadMethod="pad" x1="29.777" y1="-132.521" x2="29.777" y2="-127.077"><stop offset="0" stop-color="#dbd4eb"/><stop offset="1" stop-color="#9180bb"/></linearGradient></defs><path fill="url(#m)" d="M721.455 162.11v9.26h-29.638v-9.26z" fill-rule="evenodd"/><path stroke="#000" stroke-linejoin="round" stroke-linecap="butt" d="M721.455 162.11v9.26h-29.638v-9.26z"/><defs><linearGradient id="n" gradientUnits="userSpaceOnUse" gradientTransform="scale(7.37094)" spreadMethod="pad" x1="93.856" y1="18.356" x2="93.856" y2="25.726"><stop offset="0" stop-color="#dbd4eb"/><stop offset="1" stop-color="#9180bb"/></linearGradient></defs><path fill="url(#n)" d="M691.81 135.298h14.456v54.33H691.81z" fill-rule="evenodd"/><path stroke="#000" stroke-linejoin="round" stroke-linecap="butt" d="M691.81 135.298h14.456v54.33H691.81z"/><defs><linearGradient id="o" gradientUnits="userSpaceOnUse" gradientTransform="scale(8.95133)" spreadMethod="pad" x1="49.82" y1="27.556" x2="49.82" y2="36.508"><stop offset="0" stop-color="#ebf2e9"/><stop offset="1" stop-color="#b6d7a8"/></linearGradient></defs><path fill="url(#o)" d="M445.958 246.665h111.496v80.126H445.958z" fill-rule="evenodd"/><path stroke="#000" stroke-linejoin="round" stroke-linecap="butt" d="M445.958 246.665h111.496v80.126H445.958z"/><path fill="#000" d="M459.27 272.101h-2.75v-1.359h7.126v1.36h-2.735v9.156h2.735v1.39h-7.125v-1.39h2.75V272.1zm7.398 1.407h1.422l.063 1.468q.39-.468.765-.78.375-.313.735-.5.36-.204.734-.282.375-.078.781-.078 1.407 0 2.125.844.735.828.735 2.5v5.968h-1.594v-5.843q0-1.079-.406-1.579-.39-.515-1.188-.515-.281 0-.562.094-.281.078-.578.296-.297.204-.657.579-.343.359-.78.906v6.062h-1.595v-9.14zm18.086 4.406q0 1.219-.344 2.14-.344.907-.953 1.516-.594.594-1.422.89-.812.298-1.766.298-.437 0-.875-.047-.437-.047-.875-.156v3.828h-1.593v-12.875h1.422l.093 1.531q.688-.938 1.453-1.313.782-.39 1.688-.39.781 0 1.375.328t.984.937q.407.594.61 1.438.203.828.203 1.875zm-1.625.062q0-.718-.11-1.312-.109-.61-.343-1.031-.219-.422-.578-.657-.344-.25-.844-.25-.297 0-.61.094-.312.094-.64.328-.328.22-.703.594-.36.36-.782.906v4.438q.438.172.922.281.485.11.938.11 1.281 0 2.015-.876.735-.875.735-2.625zm11.413 4.672h-1.421l-.063-1.468q-.406.468-.781.78-.36.313-.735.516-.359.188-.734.25-.36.079-.766.079-1.421 0-2.14-.829-.719-.828-.719-2.5v-5.968h1.594v5.843q0 2.11 1.578 2.11.297 0 .562-.078.282-.094.579-.313.312-.219.656-.578.36-.36.797-.922v-6.062h1.593v9.14zm10.273-.125q-.53.141-1.11.188-.577.062-1.17.062-1.72 0-2.563-.78-.844-.782-.844-2.392v-4.765h-2.563v-1.328h2.563v-2.516l1.578-.406v2.922h4.11v1.328h-4.11v4.64q0 .985.516 1.47.53.484 1.546.484.438 0 .954-.063.53-.062 1.093-.219v1.375zM464.77 304.648h-1.593l-.235-7.422-.093-2.859-.563 1.656-1.75 4.75h-1.125l-1.672-4.562-.562-1.844-.031 2.984-.204 7.297h-1.53l.577-11.906h1.922l1.61 4.484.515 1.516.5-1.516 1.688-4.484h1.968l.579 11.906zm9.633-5.062q0 .344-.016.578 0 .219-.031.422h-6.422q0 1.406.781 2.156.797.75 2.266.75.406 0 .797-.031.406-.031.781-.078.375-.063.719-.125.344-.078.625-.157v1.297q-.64.188-1.469.297-.812.11-1.687.11-1.172 0-2.016-.313-.844-.312-1.39-.922-.548-.61-.813-1.484-.25-.875-.25-2 0-.953.281-1.813.281-.859.813-1.515.53-.657 1.296-1.032.782-.39 1.766-.39.953 0 1.688.312.75.297 1.25.844.5.547.765 1.344.266.781.266 1.75zm-1.656-.219q.03-.61-.125-1.11-.141-.515-.454-.874-.296-.375-.75-.578-.453-.204-1.062-.204-.516 0-.953.204-.422.203-.735.562-.296.36-.5.875-.187.516-.234 1.125h4.813zm11.429 2.781q0 .485-.172.875-.156.375-.438.672-.28.297-.656.516-.375.203-.797.344-.422.125-.875.187-.453.063-.875.063-.922 0-1.703-.079-.781-.078-1.531-.265v-1.453q.797.234 1.594.36.796.108 1.578.108 1.14 0 1.687-.312.547-.313.547-.89 0-.235-.094-.423-.078-.203-.312-.375-.219-.187-.703-.375-.485-.203-1.313-.437-.61-.188-1.14-.422-.516-.234-.907-.547-.375-.328-.593-.75-.22-.422-.22-1.015 0-.375.173-.829.172-.453.593-.843.438-.407 1.172-.657.735-.265 1.813-.265.547 0 1.203.062.656.063 1.36.203v1.407q-.75-.172-1.423-.25-.656-.094-1.156-.094-.594 0-1 .094-.39.078-.656.25-.25.156-.36.375-.109.203-.109.453t.094.453q.11.187.36.375.265.187.718.375.469.187 1.219.406.812.235 1.36.5.562.25.905.578.36.313.5.72.157.405.157.905zm10.257 0q0 .485-.172.875-.156.375-.437.672-.282.297-.657.516-.375.203-.796.344-.422.125-.875.187-.454.063-.875.063-.922 0-1.704-.079-.78-.078-1.53-.265v-1.453q.796.234 1.593.36.797.108 1.578.108 1.14 0 1.688-.312.546-.313.546-.89 0-.235-.093-.423-.078-.203-.313-.375-.219-.187-.703-.375-.484-.203-1.312-.437-.61-.188-1.141-.422-.516-.234-.906-.547-.375-.328-.594-.75-.219-.422-.219-1.015 0-.375.172-.829.172-.453.594-.843.437-.407 1.172-.657.734-.265 1.812-.265.547 0 1.203.062.657.063 1.36.203v1.407q-.75-.172-1.422-.25-.656-.094-1.156-.094-.594 0-1 .094-.391.078-.657.25-.25.156-.36.375-.108.203-.108.453t.093.453q.11.187.36.375.265.187.718.375.47.187 1.22.406.812.235 1.359.5.562.25.906.578.36.313.5.72.156.405.156.905zm8.882 2.5-.03-1.234q-.75.75-1.517 1.078-.765.313-1.625.313-.78 0-1.343-.188-.547-.203-.907-.547-.359-.36-.53-.828-.157-.484-.157-1.031 0-1.375 1.016-2.156 1.03-.782 3.03-.782h1.891v-.797q0-.812-.515-1.296-.516-.5-1.578-.5-.782 0-1.532.187-.75.172-1.546.484v-1.437q.296-.11.656-.203.375-.11.781-.188t.86-.125q.453-.062.906-.062.828 0 1.484.187.672.172 1.125.547.469.375.703.953.25.563.25 1.328v6.297h-1.422zm-.172-4.156h-2.015q-.578 0-1.016.125-.422.11-.703.328-.266.219-.406.531-.125.297-.125.672 0 .266.078.516.078.234.266.422.187.187.468.297.297.11.72.11.546 0 1.25-.329.702-.344 1.483-1.063v-1.609zm11.148-3.703q.25.328.39.75.142.422.142.922 0 .703-.266 1.297-.25.578-.734 1-.47.422-1.125.656-.657.234-1.454.234-.578 0-1.078-.125-.5-.125-.78-.312-.188.265-.313.5-.11.219-.11.5 0 .344.328.578.344.219.891.234l2.406.094q.672.016 1.25.172.594.156 1 .453.422.281.64.719.235.422.235.984 0 .61-.265 1.156-.25.547-.813.954-.547.421-1.39.671-.844.25-2.016.25-1.11 0-1.89-.187-.782-.172-1.282-.484-.5-.313-.734-.75-.22-.422-.22-.954 0-.656.298-1.156.312-.5.968-.969-.234-.109-.406-.265-.172-.172-.281-.36-.11-.203-.172-.421-.047-.22-.047-.438 0-.578.266-1.062.281-.5.672-.938-.172-.219-.313-.406-.125-.203-.234-.438-.094-.234-.14-.5-.048-.28-.048-.625 0-.703.25-1.28.266-.595.735-1.017.468-.421 1.125-.656.672-.234 1.468-.234.344 0 .641.047.313.047.547.125h3.328v1.281h-1.469zm-5.5 9.187q0 .641.672.938.672.297 1.875.297.75 0 1.266-.14.515-.141.828-.36.312-.219.453-.516.14-.281.14-.578 0-.562-.452-.828-.454-.266-1.391-.297l-2.39-.094q-.298.203-.5.391-.204.203-.313.39-.11.204-.156.391-.032.203-.032.406zm.485-7.484q0 .438.14.813.141.359.407.609.265.25.625.39.359.141.796.141.47 0 .844-.156.375-.156.625-.422.25-.281.375-.64.14-.36.14-.735 0-.437-.155-.797-.141-.375-.407-.625-.265-.25-.625-.39-.359-.141-.797-.141-.468 0-.843.172-.36.156-.625.422-.25.265-.375.625-.125.343-.125.734zm16.413 1.094q0 .344-.015.578 0 .219-.032.422h-6.421q0 1.406.78 2.156.798.75 2.266.75.407 0 .797-.031.407-.031.782-.078.375-.063.718-.125.344-.078.625-.157v1.297q-.64.188-1.468.297-.813.11-1.688.11-1.172 0-2.016-.313-.843-.312-1.39-.922-.547-.61-.813-1.484-.25-.875-.25-2 0-.953.282-1.813.28-.859.812-1.515.531-.657 1.297-1.032.781-.39 1.766-.39.953 0 1.687.312.75.297 1.25.844.5.547.766 1.344.265.781.265 1.75zm-1.656-.219q.031-.61-.125-1.11-.14-.515-.453-.874-.297-.375-.75-.578-.453-.204-1.063-.204-.515 0-.953.204-.422.203-.734.562-.297.36-.5.875-.188.516-.234 1.125h4.812z"/><defs><linearGradient id="p" gradientUnits="userSpaceOnUse" gradientTransform="scale(8.95133)" spreadMethod="pad" x1="79.178" y1="27.379" x2="79.178" y2="36.33"><stop offset="0" stop-color="#e9eff2"/><stop offset="1" stop-color="#9fc5e8"/></linearGradient></defs><path fill="url(#p)" d="M708.75 245.075h113.67V325.2H708.75z" fill-rule="evenodd"/><path stroke="#000" stroke-linejoin="round" stroke-linecap="butt" d="M708.75 245.075h113.67V325.2H708.75z"/><path fill="#000" d="M726.344 281.058h-6.765v-11.906h6.765v1.359h-5.14v3.703h4.953v1.36h-4.953v4.093h5.14v1.39zm3.117-9.14h1.422l.062 1.468q.391-.469.766-.781.375-.313.734-.5.36-.203.735-.282.375-.078.781-.078 1.406 0 2.125.844.734.828.734 2.5v5.969h-1.593v-5.844q0-1.078-.407-1.578-.39-.516-1.187-.516-.281 0-.563.094-.28.078-.578.297-.297.203-.656.578-.344.36-.781.906v6.063h-1.594v-9.14zm17.367 8.796q-.625.25-1.282.36-.64.109-1.328.109-2.172 0-3.343-1.172-1.172-1.172-1.172-3.438 0-1.078.328-1.953.344-.89.953-1.515.61-.64 1.453-.985.86-.343 1.875-.343.719 0 1.328.109.625.094 1.188.328v1.516q-.594-.313-1.219-.453-.61-.141-1.266-.141-.609 0-1.156.234-.531.235-.937.672-.407.422-.657 1.063-.234.625-.234 1.422 0 1.656.797 2.484.812.812 2.25.812.64 0 1.25-.14t1.172-.438v1.47zm3.523-8.797h1.453l.047 1.688q.812-.985 1.593-1.422.797-.438 1.594-.438 1.422 0 2.156.922.735.922.672 2.735h-1.593q.015-1.204-.36-1.735-.375-.547-1.11-.547-.312 0-.64.11t-.672.36q-.328.25-.718.64-.375.39-.813.953v5.875h-1.61v-9.14zm18.023 0-3.11 8.172q-.484 1.25-1 2.156-.515.907-1.125 1.485-.61.578-1.344.843-.734.282-1.625.282-.25 0-.437-.016-.188-.016-.422-.031v-1.438q.203.032.438.047.25.031.5.031.437 0 .812-.14.39-.125.719-.406.344-.282.656-.75.313-.454.594-1.094l-3.656-9.14h1.812l2.313 6.046.468 1.422.532-1.469 2.14-6h1.735zm9.944 4.406q0 1.22-.343 2.141-.344.906-.953 1.516-.594.593-1.422.89-.813.297-1.766.297-.437 0-.875-.047-.437-.047-.875-.156v3.828h-1.594v-12.875h1.422l.094 1.531q.687-.937 1.453-1.312.781-.39 1.688-.39.78 0 1.375.327.593.329.984.938.406.594.61 1.437.202.829.202 1.875zm-1.625.063q0-.719-.109-1.313-.11-.609-.344-1.03-.218-.423-.578-.657-.344-.25-.844-.25-.296 0-.609.094-.312.093-.64.328-.329.219-.704.594-.36.359-.781.906v4.437q.438.172.922.282.484.109.937.109 1.282 0 2.016-.875t.734-2.625zm11.43 4.547q-.532.14-1.11.187-.578.063-1.172.063-1.718 0-2.562-.781-.844-.782-.844-2.391v-4.766h-2.562v-1.328h2.562v-2.515l1.578-.407v2.922h4.11v1.328h-4.11v4.641q0 .984.516 1.469.531.484 1.547.484.437 0 .953-.062.531-.063 1.094-.22v1.376zm10.616-4.938q0 .344-.015.578 0 .22-.032.422h-6.422q0 1.407.782 2.157.797.75 2.265.75.407 0 .797-.032.406-.03.781-.078.375-.062.72-.125.343-.078.624-.156v1.297q-.64.187-1.469.297-.812.11-1.687.11-1.172 0-2.016-.313-.843-.313-1.39-.922-.547-.61-.813-1.485-.25-.875-.25-2 0-.953.281-1.812.282-.86.813-1.516.531-.656 1.297-1.031.781-.39 1.765-.39.954 0 1.688.312.75.297 1.25.844.5.546.766 1.343.265.782.265 1.75zm-1.656-.218q.031-.61-.125-1.11-.14-.515-.453-.875-.297-.375-.75-.578-.453-.203-1.063-.203-.515 0-.953.203-.422.203-.734.563-.297.359-.5.875-.188.515-.235 1.125h4.813zm3.726.906q0-1.172.312-2.078.313-.907.907-1.532.593-.625 1.406-.937.828-.328 1.844-.328.437 0 .86.062.421.047.827.157v-3.844h1.594v12.875h-1.422l-.047-1.735q-.672.97-1.453 1.438-.766.453-1.672.453-.781 0-1.375-.312-.594-.329-1-.922-.39-.61-.594-1.438-.187-.844-.187-1.86zm1.61-.11q0 1.657.484 2.485.5.812 1.39.812.594 0 1.266-.53.672-.548 1.406-1.61v-4.235q-.39-.187-.86-.28-.468-.095-.937-.095-1.297 0-2.03.844-.72.828-.72 2.61zM727.563 303.058h-1.594l-.234-7.422-.094-2.86-.562 1.657-1.75 4.75h-1.125l-1.672-4.563-.563-1.843-.03 2.984-.204 7.297h-1.531l.578-11.906h1.922l1.61 4.484.515 1.516.5-1.516 1.687-4.484h1.97l.577 11.906zm9.633-5.063q0 .344-.016.578 0 .22-.031.422h-6.422q0 1.407.781 2.157.797.75 2.266.75.406 0 .797-.032.406-.03.78-.078.376-.062.72-.125.343-.078.625-.156v1.297q-.641.187-1.47.297-.812.11-1.687.11-1.172 0-2.015-.313-.844-.313-1.391-.922-.547-.61-.812-1.485-.25-.875-.25-2 0-.953.28-1.812.282-.86.813-1.516.532-.656 1.297-1.031.781-.39 1.766-.39.953 0 1.687.312.75.297 1.25.844.5.546.766 1.343.266.782.266 1.75zm-1.657-.218q.032-.61-.125-1.11-.14-.515-.453-.875-.297-.375-.75-.578-.453-.203-1.062-.203-.516 0-.953.203-.422.203-.735.563-.297.359-.5.875-.187.515-.234 1.125h4.812zm11.43 2.78q0 .485-.172.876-.157.375-.438.672-.281.297-.656.515-.375.203-.797.344-.422.125-.875.188-.453.062-.875.062-.922 0-1.703-.078t-1.531-.266v-1.453q.796.235 1.593.36.797.109 1.578.109 1.141 0 1.688-.313.547-.312.547-.89 0-.235-.094-.422-.078-.203-.312-.375-.22-.188-.704-.375-.484-.203-1.312-.438-.61-.187-1.14-.421-.516-.235-.907-.547-.375-.328-.594-.75-.218-.422-.218-1.016 0-.375.171-.828.172-.453.594-.844.438-.406 1.172-.656.734-.266 1.813-.266.546 0 1.203.063.656.062 1.359.203v1.406q-.75-.172-1.422-.25-.656-.094-1.156-.094-.594 0-1 .094-.39.078-.656.25-.25.156-.36.375-.11.203-.11.453t.095.453q.109.188.359.375.266.188.719.375.469.188 1.219.407.812.234 1.359.5.562.25.906.578.36.312.5.719.156.406.156.906zm10.257 0q0 .485-.172.876-.156.375-.438.672-.28.297-.656.515-.375.203-.797.344-.422.125-.875.188-.453.062-.875.062-.922 0-1.703-.078t-1.531-.266v-1.453q.797.235 1.594.36.796.109 1.578.109 1.14 0 1.687-.313.547-.312.547-.89 0-.235-.094-.422-.078-.203-.312-.375-.219-.188-.703-.375-.485-.203-1.313-.438-.61-.187-1.14-.421-.516-.235-.907-.547-.375-.328-.593-.75-.22-.422-.22-1.016 0-.375.173-.828.172-.453.593-.844.438-.406 1.172-.656.735-.266 1.813-.266.547 0 1.203.063.656.062 1.36.203v1.406q-.75-.172-1.423-.25-.656-.094-1.156-.094-.594 0-1 .094-.39.078-.656.25-.25.156-.36.375-.109.203-.109.453t.094.453q.11.188.36.375.265.188.718.375.469.188 1.219.407.812.234 1.36.5.562.25.905.578.36.312.5.719.157.406.157.906zm8.882 2.5-.031-1.234q-.75.75-1.516 1.079-.766.312-1.625.312-.781 0-1.344-.187-.547-.204-.906-.547-.36-.36-.531-.828-.156-.485-.156-1.032 0-1.375 1.015-2.156 1.031-.781 3.031-.781h1.891v-.797q0-.813-.516-1.297-.515-.5-1.578-.5-.78 0-1.53.188-.75.171-1.548.484v-1.438q.297-.109.656-.203.375-.109.782-.187.406-.078.86-.125.452-.063.905-.063.828 0 1.485.188.672.172 1.125.547.468.375.703.953.25.562.25 1.328v6.297h-1.422zm-.172-4.155h-2.016q-.578 0-1.015.125-.422.109-.703.328-.266.218-.407.531-.125.297-.125.672 0 .265.079.515.078.235.265.422.188.188.469.297.297.11.719.11.547 0 1.25-.329.703-.343 1.484-1.062v-1.61zm11.148-3.704q.25.329.39.75.141.422.141.922 0 .703-.265 1.297-.25.578-.735 1-.468.422-1.125.656-.656.235-1.453.235-.578 0-1.078-.125-.5-.125-.781-.313-.188.266-.313.5-.11.22-.11.5 0 .344.33.578.343.22.89.235l2.406.094q.672.015 1.25.171.594.157 1 .454.422.28.64.718.235.422.235.985 0 .61-.266 1.156-.25.547-.812.953-.547.422-1.39.672-.845.25-2.016.25-1.11 0-1.891-.188-.781-.171-1.281-.484-.5-.312-.735-.75-.218-.422-.218-.953 0-.656.296-1.156.313-.5.97-.969-.235-.11-.407-.266-.172-.172-.281-.359-.11-.203-.172-.422-.047-.219-.047-.437 0-.579.266-1.063.28-.5.671-.937-.171-.22-.312-.407-.125-.203-.234-.437-.094-.235-.141-.5-.047-.281-.047-.625 0-.703.25-1.281.266-.594.734-1.016.47-.422 1.125-.656.672-.235 1.47-.235.343 0 .64.047.312.047.547.125h3.328v1.281h-1.469zm-5.5 9.188q0 .64.672.937.672.297 1.875.297.75 0 1.266-.14.515-.14.828-.36.312-.218.453-.515.14-.282.14-.578 0-.563-.453-.829-.453-.265-1.39-.296l-2.39-.094q-.298.203-.5.39-.204.204-.313.391-.11.203-.157.39-.03.204-.03.407zm.484-7.484q0 .437.141.812.14.36.406.61t.625.39q.36.14.797.14.469 0 .844-.156t.625-.421q.25-.282.375-.641.14-.36.14-.734 0-.438-.156-.797-.14-.375-.406-.625t-.625-.39q-.36-.142-.797-.142-.469 0-.844.172-.359.157-.625.422-.25.266-.375.625-.125.344-.125.735zm16.414 1.093q0 .344-.016.578 0 .22-.03.422h-6.423q0 1.407.781 2.157.797.75 2.266.75.406 0 .797-.032.406-.03.781-.078.375-.062.719-.125.344-.078.625-.156v1.297q-.64.187-1.469.297-.812.11-1.687.11-1.172 0-2.016-.313-.844-.313-1.39-.922-.547-.61-.813-1.485-.25-.875-.25-2 0-.953.281-1.812.281-.86.813-1.516.531-.656 1.297-1.031.78-.39 1.765-.39.953 0 1.688.312.75.297 1.25.844.5.546.765 1.343.266.782.266 1.75zm-1.656-.218q.031-.61-.125-1.11-.14-.515-.453-.875-.297-.375-.75-.578-.454-.203-1.063-.203-.516 0-.953.203-.422.203-.734.563-.297.359-.5.875-.188.515-.235 1.125h4.813z"/><defs><linearGradient id="q" gradientUnits="userSpaceOnUse" gradientTransform="scale(6.71264) rotate(-45)" spreadMethod="pad" x1="26.544" y1="73.094" x2="26.543" y2="77.841"><stop offset="0" stop-color="#45818e"/><stop offset="1" stop-color="#134f5c"/></linearGradient></defs><path fill="url(#q)" d="m478.576 226.594 38.22-38.22-5.63-5.63h22.52v22.52l-5.63-5.63-38.22 38.22z" fill-rule="evenodd"/><path stroke="#000" stroke-linejoin="round" stroke-linecap="butt" d="m478.576 226.594 38.22-38.22-5.63-5.63h22.52v22.52l-5.63-5.63-38.22 38.22z"/><defs><linearGradient id="r" gradientUnits="userSpaceOnUse" gradientTransform="rotate(.026) scale(5.64418)" spreadMethod="pad" x1="106.468" y1="27.628" x2="106.467" y2="33.273"><stop offset="0" stop-color="#45818e"/><stop offset="1" stop-color="#134f5c"/></linearGradient></defs><path fill="url(#r)" d="M600.927 163.914h54.063v-7.96l15.921 15.921-15.921 15.921v-7.96h-54.063z" fill-rule="evenodd"/><path stroke="#000" stroke-linejoin="round" stroke-linecap="butt" d="M600.927 163.914h54.063v-7.96l15.921 15.921-15.921 15.921v-7.96h-54.063z"/><defs><linearGradient id="s" gradientUnits="userSpaceOnUse" gradientTransform="rotate(45) scale(6.71264)" spreadMethod="pad" x1="96.104" y1="-59.978" x2="96.103" y2="-55.232"><stop offset="0" stop-color="#45818e"/><stop offset="1" stop-color="#134f5c"/></linearGradient></defs><path fill="url(#s)" d="m735.216 177.114 38.22 38.22 5.63-5.63v22.52h-22.52l5.63-5.63-38.22-38.22z" fill-rule="evenodd"/><path stroke="#000" stroke-linejoin="round" stroke-linecap="butt" d="m735.216 177.114 38.22 38.22 5.63-5.63v22.52h-22.52l5.63-5.63-38.22-38.22z"/><path fill="none" d="M531.262 99.41h65.45v28.158h-65.45z"/><path fill="#38761d" d="M549.512 118.065q0 .735-.28 1.453-.266.703-.845 1.282-.562.562-1.453.921-.89.344-2.14.344h-1.47v4.266H541.7v-11.906h3.36q.874 0 1.687.203.812.187 1.422.625.625.437.984 1.14.36.688.36 1.672zm-1.687.078q0-1.156-.75-1.765-.75-.61-2.094-.61h-1.656v4.907h1.516q1.437 0 2.203-.625.78-.641.78-1.907zm12.273 8.188h-1.828l-1.781-3.813q-.204-.437-.422-.718-.203-.282-.453-.454-.235-.171-.516-.234-.281-.078-.64-.078h-.766v5.297h-1.625v-11.906h3.187q1.047 0 1.781.234.75.219 1.22.64.484.407.702.985.235.578.235 1.281 0 .547-.172 1.047-.156.5-.485.906-.312.407-.796.703-.485.282-1.094.438.5.172.844.61.359.421.718 1.14l1.89 3.922zm-2.594-8.64q0-.954-.61-1.423-.593-.484-1.671-.484h-1.531v3.937h1.312q.578 0 1.031-.125.454-.14.782-.39.328-.266.5-.64.187-.376.187-.876zm7.586-1.907h-2.75v-1.36h7.125v1.36h-2.735v9.156h2.735v1.39h-7.125v-1.39h2.75v-9.156z"/><path fill="none" d="M674.43 99.413h65.45v28.158h-65.45z"/><path fill="#351c75" d="M692.68 118.068q0 .734-.28 1.453-.266.703-.845 1.281-.562.563-1.453.922-.89.344-2.14.344h-1.47v4.265h-1.624v-11.906h3.36q.874 0 1.687.203.812.188 1.422.625.625.438.984 1.14.36.688.36 1.673zm-1.687.078q0-1.156-.75-1.766-.75-.61-2.094-.61h-1.656v4.907h1.516q1.437 0 2.203-.625.78-.64.78-1.906zm11.976 4.047q0 .984-.281 1.781-.282.797-.828 1.36-.532.546-1.313.859-.781.297-1.781.297-1.11 0-1.89-.282-.782-.296-1.266-.828-.485-.531-.704-1.281-.218-.75-.218-1.672v-8h1.61v7.875q0 .703.124 1.235.14.53.438.89.312.344.78.531.485.188 1.173.188 1.297 0 1.906-.75.625-.75.625-2.11v-7.859h1.625v7.766zm10.226.578q0 .86-.328 1.516t-.953 1.125q-.61.453-1.485.687-.859.234-1.922.234h-3.125v-11.906h3.407q3.984 0 3.984 2.89 0 .97-.469 1.673-.453.687-1.484 1.015.469.094.906.313.438.219.766.578.328.344.515.812.188.47.188 1.063zm-2.11-5.234q0-.36-.109-.672-.11-.328-.39-.563-.266-.234-.735-.375-.453-.14-1.172-.14h-1.672v3.734h1.625q.547 0 1-.11.454-.124.766-.374.328-.25.5-.61.188-.375.188-.89zm.391 5.296q0-.468-.187-.828-.188-.36-.563-.61-.36-.25-.89-.39-.516-.14-1.172-.14h-1.657v4.109h1.704q1.406 0 2.078-.516.687-.53.687-1.625z"/><defs><linearGradient id="t" gradientUnits="userSpaceOnUse" gradientTransform="scale(8.95133)" spreadMethod="pad" x1="99.431" y1="25.327" x2="99.431" y2="34.279"><stop offset="0" stop-color="#ebf2e9"/><stop offset="1" stop-color="#b6d7a8"/></linearGradient></defs><path fill="url(#t)" d="M890.037 226.713h107.055v80.126H890.037z" fill-rule="evenodd"/><path stroke="#000" stroke-linejoin="round" stroke-linecap="butt" d="M890.037 226.713h107.055v80.126H890.037z"/><path fill="#000" d="M903.35 252.149h-2.75v-1.36h7.124v1.36h-2.734v9.156h2.734v1.39H900.6v-1.39h2.75v-9.156zm7.397 1.406h1.422l.063 1.469q.39-.469.765-.781.375-.313.735-.5.359-.204.734-.282.375-.078.781-.078 1.406 0 2.125.844.735.828.735 2.5v5.969h-1.594v-5.844q0-1.078-.406-1.578-.391-.516-1.188-.516-.281 0-.562.094-.282.078-.579.297-.296.203-.656.578-.344.36-.781.906v6.063h-1.594v-9.141zm18.086 4.406q0 1.219-.344 2.14-.344.907-.953 1.516-.594.594-1.422.891-.813.297-1.766.297-.437 0-.875-.047-.437-.047-.875-.156v3.828h-1.594v-12.875h1.422l.094 1.531q.688-.937 1.453-1.312.781-.39 1.688-.39.781 0 1.375.327.593.328.984.938.406.594.61 1.437.203.828.203 1.875zm-1.625.063q0-.719-.11-1.313-.11-.61-.344-1.031-.218-.422-.578-.656-.343-.25-.843-.25-.297 0-.61.094-.312.093-.64.328-.329.218-.704.593-.359.36-.78.907v4.437q.437.172.921.281.484.11.938.11 1.28 0 2.015-.875.735-.875.735-2.625zm11.413 4.672H937.2l-.062-1.47q-.406.47-.781.782-.36.313-.735.516-.36.187-.734.25-.36.078-.766.078-1.422 0-2.14-.828-.72-.828-.72-2.5v-5.969h1.595v5.844q0 2.11 1.578 2.11.297 0 .562-.079.281-.094.578-.313.313-.218.657-.578.359-.359.796-.922v-6.062h1.594v9.14zm10.273-.125q-.531.14-1.11.187-.577.063-1.171.063-1.719 0-2.563-.782-.843-.78-.843-2.39v-4.766h-2.563v-1.328h2.563v-2.516l1.578-.406v2.922h4.109v1.328h-4.11v4.64q0 .985.516 1.47.532.484 1.547.484.438 0 .953-.063.532-.062 1.094-.218v1.375zM908.85 284.696h-1.595l-.234-7.422-.094-2.86-.562 1.657-1.75 4.75h-1.125l-1.672-4.563-.563-1.844-.03 2.985-.204 7.297h-1.531l.578-11.907h1.922l1.61 4.485.515 1.515.5-1.515 1.687-4.485h1.97l.577 11.907zm9.632-5.063q0 .344-.016.578 0 .219-.031.422h-6.422q0 1.406.781 2.156.797.75 2.266.75.406 0 .797-.03.406-.032.78-.079.376-.063.72-.125.343-.078.625-.156v1.297q-.641.187-1.47.296-.812.11-1.687.11-1.172 0-2.015-.313-.844-.312-1.39-.922-.548-.609-.813-1.484-.25-.875-.25-2 0-.953.28-1.812.282-.86.813-1.516.532-.656 1.297-1.031.781-.39 1.766-.39.953 0 1.687.312.75.296 1.25.843.5.547.766 1.344.266.781.266 1.75zm-1.657-.219q.032-.609-.125-1.109-.14-.516-.453-.875-.297-.375-.75-.578-.453-.203-1.062-.203-.516 0-.953.203-.422.203-.735.562-.297.36-.5.875-.187.516-.234 1.125h4.812zm11.43 2.782q0 .484-.172.875-.157.375-.438.671-.281.297-.656.516-.375.203-.797.344-.422.125-.875.187-.453.063-.875.063-.922 0-1.703-.078t-1.531-.266v-1.453q.796.234 1.593.36.797.109 1.578.109 1.141 0 1.688-.313.547-.312.547-.89 0-.235-.094-.422-.078-.203-.312-.375-.22-.188-.704-.375-.484-.203-1.312-.438-.61-.187-1.14-.422-.516-.234-.907-.547-.375-.328-.594-.75-.218-.421-.218-1.015 0-.375.171-.828.172-.453.594-.844.438-.406 1.172-.656.734-.266 1.813-.266.546 0 1.203.063.656.062 1.36.203v1.406q-.75-.172-1.423-.25-.656-.094-1.156-.094-.594 0-1 .094-.39.078-.656.25-.25.156-.36.375-.109.203-.109.453t.094.453q.11.188.36.375.265.188.718.375.469.188 1.219.406.812.235 1.359.5.562.25.906.579.36.312.5.718.156.407.156.907zm10.257 0q0 .484-.172.875-.156.375-.438.671-.28.297-.656.516-.375.203-.797.344-.422.125-.875.187-.453.063-.875.063-.922 0-1.703-.078t-1.531-.266v-1.453q.797.234 1.594.36.797.109 1.578.109 1.14 0 1.687-.313.547-.312.547-.89 0-.235-.094-.422-.078-.203-.312-.375-.219-.188-.703-.375-.485-.203-1.313-.438-.61-.187-1.14-.422-.516-.234-.907-.547-.375-.328-.593-.75-.22-.421-.22-1.015 0-.375.173-.828.172-.453.594-.844.437-.406 1.171-.656.735-.266 1.813-.266.547 0 1.203.063.656.062 1.36.203v1.406q-.75-.172-1.422-.25-.657-.094-1.157-.094-.593 0-1 .094-.39.078-.656.25-.25.156-.36.375-.109.203-.109.453t.094.453q.11.188.36.375.265.188.718.375.469.188 1.219.406.812.235 1.36.5.562.25.906.579.359.312.5.718.156.407.156.907zm8.882 2.5-.031-1.235q-.75.75-1.516 1.078-.765.313-1.625.313-.781 0-1.344-.188-.546-.203-.906-.547-.36-.359-.531-.828-.156-.484-.156-1.03 0-1.376 1.015-2.157 1.032-.781 3.032-.781h1.89v-.797q0-.813-.515-1.297-.516-.5-1.579-.5-.78 0-1.53.187-.75.172-1.548.485v-1.438q.297-.11.657-.203.375-.11.78-.187.407-.079.86-.125.453-.063.906-.063.829 0 1.485.188.672.171 1.125.546.469.375.703.954.25.562.25 1.328v6.297h-1.422zm-.172-4.157h-2.015q-.579 0-1.016.125-.422.11-.703.328-.266.22-.406.532-.125.297-.125.672 0 .265.078.515.078.235.265.422.188.188.469.297.297.11.719.11.547 0 1.25-.329.703-.344 1.484-1.062v-1.61zm11.148-3.703q.25.328.39.75.141.422.141.922 0 .703-.265 1.297-.25.578-.735 1-.468.422-1.125.656-.656.235-1.453.235-.578 0-1.078-.125-.5-.125-.781-.313-.188.266-.313.5-.109.219-.109.5 0 .344.328.578.344.219.89.235l2.407.093q.672.016 1.25.172.594.156 1 .453.422.282.64.72.235.421.235.983 0 .61-.266 1.157-.25.547-.812.953-.547.422-1.39.672-.845.25-2.016.25-1.11 0-1.891-.188-.781-.172-1.281-.484-.5-.313-.735-.75-.218-.422-.218-.953 0-.657.296-1.157.313-.5.97-.968-.235-.11-.407-.266-.172-.172-.281-.36-.11-.202-.172-.421-.047-.219-.047-.438 0-.578.266-1.062.28-.5.671-.938-.171-.218-.312-.406-.125-.203-.234-.437-.094-.235-.141-.5-.047-.282-.047-.625 0-.704.25-1.282.266-.593.734-1.015.47-.422 1.125-.657.672-.234 1.47-.234.343 0 .64.047.312.047.547.125h3.328v1.281h-1.469zm-5.5 9.188q0 .64.672.937.672.297 1.875.297.75 0 1.266-.14.515-.141.828-.36.312-.219.453-.516.14-.28.14-.578 0-.562-.453-.828-.453-.265-1.39-.297l-2.39-.093q-.298.203-.5.39-.204.203-.313.39-.11.204-.157.391-.03.204-.03.407zm.484-7.485q0 .438.141.813.14.36.406.61t.625.39q.36.14.797.14.469 0 .844-.156t.625-.422q.25-.28.375-.64.14-.36.14-.735 0-.437-.156-.797-.14-.375-.406-.625t-.625-.39q-.36-.14-.797-.14-.469 0-.844.171-.359.156-.625.422-.25.266-.375.625-.125.344-.125.734zm16.414 1.094q0 .344-.016.578 0 .219-.03.422h-6.423q0 1.406.782 2.156.796.75 2.265.75.406 0 .797-.03.406-.032.781-.079.375-.063.719-.125.344-.078.625-.156v1.297q-.64.187-1.469.296-.812.11-1.687.11-1.172 0-2.016-.313-.844-.312-1.39-.922-.547-.609-.813-1.484-.25-.875-.25-2 0-.953.281-1.812.282-.86.813-1.516.531-.656 1.297-1.031.78-.39 1.765-.39.953 0 1.688.312.75.296 1.25.843.5.547.765 1.344.266.781.266 1.75zm-1.656-.219q.031-.609-.125-1.109-.14-.516-.453-.875-.297-.375-.75-.578-.453-.203-1.063-.203-.515 0-.953.203-.422.203-.734.562-.297.36-.5.875-.188.516-.235 1.125h4.813z"/><defs><linearGradient id="u" gradientUnits="userSpaceOnUse" gradientTransform="rotate(.049) scale(5.64379)" spreadMethod="pad" x1="176.671" y1="45.01" x2="176.67" y2="50.654"><stop offset="0" stop-color="#45818e"/><stop offset="1" stop-color="#134f5c"/></linearGradient></defs><path fill="url(#u)" d="M997.092 261.996h32.268v-7.96l15.921 15.92-15.921 15.922v-7.96h-32.268z" fill-rule="evenodd"/><path stroke="#000" stroke-linejoin="round" stroke-linecap="butt" d="M997.092 261.996h32.268v-7.96l15.921 15.92-15.921 15.922v-7.96h-32.268z"/><defs><linearGradient id="v" gradientUnits="userSpaceOnUse" gradientTransform="scale(10.67784)" spreadMethod="pad" x1="97.665" y1="19.778" x2="97.665" y2="30.456"><stop offset="0" stop-color="#fff"/><stop offset="1" stop-color="#b3b3b3"/></linearGradient></defs><path fill="url(#v)" d="M1054.197 222.526h122.294v91.334h-122.294z" fill-rule="evenodd"/><defs><linearGradient id="w" gradientUnits="userSpaceOnUse" gradientTransform="scale(10.67784)" spreadMethod="pad" x1="97.665" y1="19.778" x2="97.665" y2="30.456"><stop offset="0" stop-color="#fff"/><stop offset="1" stop-color="#b3b3b3"/></linearGradient></defs><path fill="url(#w)" d="M1042.856 211.185h144.976l-11.341 11.341h-122.294z" fill-rule="evenodd"/><defs><linearGradient id="x" gradientUnits="userSpaceOnUse" gradientTransform="scale(10.67784)" spreadMethod="pad" x1="97.665" y1="19.778" x2="97.665" y2="30.456"><stop offset="0" stop-color="#fff"/><stop offset="1" stop-color="#b3b3b3"/></linearGradient></defs><path fill="url(#x)" d="m1042.856 325.2 11.34-11.34h122.295l11.341 11.34z" fill-rule="evenodd"/><defs><linearGradient id="y" gradientUnits="userSpaceOnUse" gradientTransform="scale(10.67784)" spreadMethod="pad" x1="97.665" y1="19.778" x2="97.665" y2="30.456"><stop offset="0" stop-color="#fff"/><stop offset="1" stop-color="#b3b3b3"/></linearGradient></defs><path fill="url(#y)" d="m1042.856 211.185 11.34 11.341v91.334l-11.34 11.34z" fill-rule="evenodd"/><defs><linearGradient id="z" gradientUnits="userSpaceOnUse" gradientTransform="scale(10.67784)" spreadMethod="pad" x1="97.665" y1="19.778" x2="97.665" y2="30.456"><stop offset="0" stop-color="#fff"/><stop offset="1" stop-color="#b3b3b3"/></linearGradient></defs><path fill="url(#z)" d="M1187.832 211.185v114.016l-11.341-11.341v-91.334z" fill-rule="evenodd"/><path fill="none" d="M1042.856 211.185h144.976v114.016h-144.976zm11.34 11.341h122.295v91.334h-122.294zm-11.34-11.341 11.34 11.341m-11.34 102.675 11.34-11.341m133.636-102.675-11.341 11.341m11.341 102.675-11.341-11.341"/><path fill="#fff" fill-opacity=".2" d="M1042.856 211.185h144.976l-11.341 11.341h-122.294z" fill-rule="evenodd"/><path fill="#000" fill-opacity=".2" d="m1042.856 325.2 11.34-11.34h122.295l11.341 11.34z" fill-rule="evenodd"/><path fill="#fff" fill-opacity=".4" d="m1042.856 211.185 11.34 11.341v91.334l-11.34 11.34z" fill-rule="evenodd"/><path fill="#000" fill-opacity=".4" d="M1187.832 211.185v114.016l-11.341-11.341v-91.334z" fill-rule="evenodd"/><path stroke="#666" stroke-linejoin="round" stroke-linecap="butt" d="M1042.856 211.185h144.976v114.016h-144.976zm11.34 11.341h122.295v91.334h-122.294zm-11.34-11.341 11.34 11.341m-11.34 102.675 11.34-11.341m133.636-102.675-11.341 11.341m11.341 102.675-11.341-11.341"/><path fill="#000" d="M1072.447 264.113h-1.61v-5.469h-5.015v5.469h-1.61v-11.906h1.61v5.03h5.015v-5.03h1.61v11.906zm8.335 0-.031-1.234q-.75.75-1.516 1.078-.765.312-1.625.312-.78 0-1.343-.187-.547-.203-.907-.547-.359-.36-.53-.828-.157-.485-.157-1.032 0-1.375 1.015-2.156 1.032-.781 3.032-.781h1.89v-.797q0-.812-.515-1.297-.516-.5-1.578-.5-.782 0-1.532.188-.75.172-1.547.484v-1.437q.297-.11.657-.204.375-.109.781-.187t.86-.125q.452-.063.906-.063.828 0 1.484.188.672.172 1.125.547.469.375.703.953.25.562.25 1.328v6.297h-1.422zm-.172-4.156h-2.015q-.578 0-1.016.125-.422.109-.703.328-.266.219-.406.531-.125.297-.125.672 0 .266.078.516.078.234.265.421.188.188.47.297.296.11.718.11.547 0 1.25-.328.703-.344 1.484-1.063v-1.61zm11.805 1.656q0 .484-.172.875-.157.375-.438.672-.281.297-.656.515-.375.204-.797.344-.422.125-.875.188-.453.062-.875.062-.922 0-1.703-.078t-1.531-.266v-1.453q.797.235 1.593.36.797.109 1.579.109 1.14 0 1.687-.312.547-.313.547-.891 0-.234-.094-.422-.078-.203-.312-.375-.22-.187-.703-.375-.485-.203-1.313-.437-.61-.188-1.14-.422-.516-.235-.907-.547-.375-.328-.594-.75-.218-.422-.218-1.016 0-.375.172-.828.171-.453.593-.844.438-.406 1.172-.656.735-.266 1.813-.266.547 0 1.203.063.656.062 1.36.203v1.406q-.75-.172-1.423-.25-.656-.093-1.156-.093-.594 0-1 .093-.39.078-.656.25-.25.157-.36.375-.109.203-.109.453t.094.454q.11.187.36.375.265.187.718.375.469.187 1.219.406.812.234 1.36.5.562.25.905.578.36.312.5.719.157.406.157.906zm10.366 2.5h-1.594v-5.844q0-1.047-.39-1.562-.39-.532-1.14-.532-.313 0-.595.094-.28.078-.578.297-.297.203-.656.578-.36.36-.812.906v6.063h-1.594v-12.875h1.594v3.734l-.063 1.438q.375-.453.734-.75.36-.313.72-.5.359-.188.734-.266.375-.094.78-.094 1.36 0 2.11.844.75.828.75 2.5v5.969zm6.023-7.828h-2.703v-1.313h4.297v7.813h2.734v1.328h-7.344v-1.328h3.016v-6.5zm.547-5.156q.266 0 .484.093.235.094.407.282.171.171.265.39t.094.485q0 .25-.094.484-.094.234-.265.406-.172.172-.407.266-.218.094-.484.094t-.5-.094q-.219-.094-.39-.266-.157-.172-.266-.406-.094-.234-.094-.484 0-.266.094-.485.11-.219.265-.39.172-.188.391-.282.234-.093.5-.093zm6.585 3.843h1.422l.063 1.469q.39-.469.765-.781.375-.313.735-.5.36-.203.734-.281.375-.079.781-.079 1.407 0 2.125.844.735.828.735 2.5v5.969h-1.594v-5.844q0-1.078-.406-1.578-.39-.516-1.188-.516-.281 0-.562.094-.281.078-.578.297-.297.203-.657.578-.343.36-.78.906v6.063h-1.595v-9.14zm16.851 1.282q.25.328.391.75.14.421.14.921 0 .704-.265 1.297-.25.578-.734 1-.469.422-1.125.657-.657.234-1.453.234-.579 0-1.079-.125t-.78-.313q-.188.266-.313.5-.11.22-.11.5 0 .344.328.579.344.218.891.234l2.406.094q.672.015 1.25.172.594.156 1 .453.422.28.641.718.234.422.234.985 0 .61-.265 1.156-.25.547-.813.953-.547.422-1.39.672-.844.25-2.016.25-1.11 0-1.89-.187-.782-.172-1.282-.485-.5-.312-.734-.75-.219-.422-.219-.953 0-.656.297-1.156.312-.5.969-.969-.235-.11-.407-.266-.172-.171-.28-.359-.11-.203-.173-.422-.047-.219-.047-.437 0-.578.266-1.063.281-.5.672-.937-.172-.22-.313-.407-.125-.203-.234-.437-.094-.234-.14-.5-.048-.281-.048-.625 0-.703.25-1.281.266-.594.735-1.016.469-.422 1.125-.656.672-.235 1.469-.235.343 0 .64.047.313.047.547.125h3.328v1.282h-1.469zm-5.5 9.187q0 .64.672.938.672.296 1.875.296.75 0 1.266-.14t.828-.36q.313-.218.453-.515.14-.281.14-.578 0-.563-.452-.828-.453-.266-1.39-.297l-2.392-.094q-.296.203-.5.39-.203.204-.312.391-.11.203-.156.39-.032.204-.032.407zm.485-7.484q0 .437.14.812.141.36.407.61.265.25.625.39t.797.14q.468 0 .843-.155.375-.157.625-.422.25-.282.375-.641.141-.36.141-.734 0-.438-.156-.797-.14-.375-.407-.625-.265-.25-.625-.39-.359-.141-.796-.141-.47 0-.844.171-.36.157-.625.422-.25.266-.375.625-.125.344-.125.735zM1071.775 275.597h-5.047v3.86h4.781v1.36h-4.781v5.296h-1.656v-11.906h6.703v1.39zm10.492 10.516h-1.422l-.063-1.469q-.406.469-.781.781-.36.313-.734.516-.36.188-.735.25-.36.078-.765.078-1.422 0-2.141-.828-.719-.828-.719-2.5v-5.969h1.594v5.844q0 2.11 1.578 2.11.297 0 .563-.079.28-.093.578-.312.312-.219.656-.578.36-.36.797-.922v-6.063h1.594v9.14zm2.898-9.14h1.421l.063 1.468q.39-.469.766-.781.375-.313.734-.5.36-.203.734-.281.375-.079.782-.079 1.406 0 2.125.844.734.828.734 2.5v5.969h-1.594v-5.844q0-1.078-.406-1.578-.39-.516-1.188-.516-.28 0-.562.094-.281.078-.578.297-.297.203-.656.578-.344.36-.782.906v6.063h-1.593v-9.14zm17.366 8.796q-.625.25-1.281.36-.64.109-1.328.109-2.172 0-3.344-1.172-1.172-1.172-1.172-3.437 0-1.079.328-1.954.344-.89.953-1.515.61-.64 1.454-.985.859-.343 1.875-.343.718 0 1.328.11.625.093 1.187.327v1.516q-.594-.313-1.219-.453-.609-.14-1.265-.14-.61 0-1.156.233-.532.235-.938.672-.406.422-.656 1.063-.235.625-.235 1.422 0 1.656.797 2.484.813.813 2.25.813.64 0 1.25-.141.61-.14 1.172-.438v1.47zm10.523.219q-.531.14-1.11.187-.577.063-1.171.063-1.719 0-2.563-.781-.843-.782-.843-2.39V278.3h-2.563v-1.328h2.563v-2.515l1.578-.407v2.922h4.11v1.328h-4.11v4.641q0 .984.515 1.469.532.484 1.547.484.438 0 .953-.062.532-.063 1.094-.22v1.376zm6.007-7.703h-2.703v-1.313h4.297v7.813h2.735v1.328h-7.344v-1.328h3.015v-6.5zm.547-5.156q.266 0 .485.093.234.094.406.282.172.171.266.39.093.219.093.485 0 .25-.093.484-.094.234-.266.406-.172.172-.406.266-.22.094-.485.094t-.5-.094q-.218-.094-.39-.266-.157-.172-.266-.406-.094-.234-.094-.484 0-.266.094-.485.11-.219.266-.39.172-.188.39-.282.235-.093.5-.093zm14.554 8.343q0 1.063-.312 1.953-.297.891-.86 1.532-.562.625-1.374.968-.813.344-1.844.344-.985 0-1.766-.297-.765-.312-1.312-.89-.547-.594-.828-1.47-.282-.874-.282-2.015 0-1.062.297-1.937.297-.89.86-1.516.562-.64 1.375-.984.812-.36 1.843-.36.985 0 1.766.313.781.297 1.312.89.547.579.829 1.454.296.875.296 2.015zm-1.625.063q0-.844-.187-1.469-.188-.64-.531-1.062-.344-.422-.844-.641-.5-.219-1.11-.219-.703 0-1.218.281-.5.282-.828.75-.313.454-.469 1.079-.156.609-.156 1.28 0 .86.187 1.5.188.626.531 1.048.36.422.844.64.5.22 1.11.22.718 0 1.218-.282.5-.281.828-.735.329-.468.47-1.078.155-.625.155-1.312zm3.914-4.563h1.422l.062 1.47q.39-.47.766-.782.375-.313.734-.5.36-.203.735-.281.375-.079.78-.079 1.407 0 2.126.844.734.828.734 2.5v5.969h-1.593v-5.844q0-1.078-.407-1.578-.39-.516-1.187-.516-.281 0-.563.094-.281.078-.578.297-.297.203-.656.578-.344.36-.781.906v6.063h-1.594v-9.14z"/><defs><linearGradient id="A" gradientUnits="userSpaceOnUse" gradientTransform="scale(5.64378)" spreadMethod="pad" x1="210.467" y1="45.01" x2="210.466" y2="50.654"><stop offset="0" stop-color="#45818e"/><stop offset="1" stop-color="#134f5c"/></linearGradient></defs><path fill="url(#A)" d="M1187.832 261.996h32.268v-7.96l15.921 15.92-15.921 15.922v-7.96h-32.268z" fill-rule="evenodd"/><path stroke="#000" stroke-linejoin="round" stroke-linecap="butt" d="M1187.832 261.996h32.268v-7.96l15.921 15.92-15.921 15.922v-7.96h-32.268z"/><defs><linearGradient id="B" gradientUnits="userSpaceOnUse" gradientTransform="scale(8.95133)" spreadMethod="pad" x1="137.811" y1="25.486" x2="137.811" y2="34.437"><stop offset="0" stop-color="#e9eff2"/><stop offset="1" stop-color="#9fc5e8"/></linearGradient></defs><path fill="url(#B)" d="M1233.596 228.13h113.67v80.126h-113.67z" fill-rule="evenodd"/><path stroke="#000" stroke-linejoin="round" stroke-linecap="butt" d="M1233.596 228.13h113.67v80.126h-113.67z"/><path fill="#000" d="M1251.19 264.113h-6.766v-11.906h6.766v1.36h-5.141v3.702h4.953v1.36h-4.953v4.093h5.14v1.391zm3.116-9.14h1.422l.063 1.468q.39-.469.765-.781.375-.313.735-.5.359-.203.734-.281.375-.079.781-.079 1.407 0 2.125.844.735.828.735 2.5v5.969h-1.594v-5.844q0-1.078-.406-1.578-.391-.516-1.188-.516-.281 0-.562.094-.282.078-.578.297-.297.203-.657.578-.343.36-.781.906v6.063h-1.594v-9.14zm17.367 8.796q-.625.25-1.281.36-.64.109-1.328.109-2.172 0-3.344-1.172-1.172-1.172-1.172-3.437 0-1.079.328-1.954.344-.89.953-1.515.61-.64 1.453-.985.86-.343 1.875-.343.72 0 1.328.11.625.093 1.188.327v1.516q-.594-.313-1.219-.453-.61-.14-1.265-.14-.61 0-1.157.233-.53.235-.937.672-.406.422-.656 1.063-.235.625-.235 1.422 0 1.656.797 2.484.813.813 2.25.813.64 0 1.25-.141.61-.14 1.172-.438v1.47zm3.523-8.797h1.453l.047 1.688q.812-.985 1.594-1.422.796-.438 1.593-.438 1.422 0 2.157.922.734.922.671 2.735h-1.593q.015-1.203-.36-1.735-.375-.547-1.109-.547-.313 0-.64.11-.329.11-.673.36-.328.25-.718.64-.375.39-.813.953v5.875h-1.61v-9.14zm18.023 0-3.11 8.172q-.484 1.25-1 2.156-.515.907-1.125 1.485-.609.578-1.343.844-.735.28-1.625.28-.25 0-.438-.015-.187-.015-.422-.031v-1.438q.203.032.438.047.25.032.5.032.437 0 .812-.141.39-.125.719-.406.344-.282.656-.75.313-.453.594-1.094l-3.656-9.14h1.812l2.313 6.046.469 1.422.53-1.469 2.141-6h1.735zm9.945 4.407q0 1.218-.344 2.14-.344.906-.953 1.516-.594.594-1.422.89-.813.297-1.766.297-.437 0-.875-.047-.437-.046-.875-.156v3.828h-1.594v-12.875h1.422l.094 1.532q.688-.938 1.453-1.313.781-.39 1.688-.39.781 0 1.375.328.593.328.984.937.406.594.61 1.438.203.828.203 1.875zm-1.625.062q0-.719-.11-1.312-.11-.61-.344-1.032-.218-.422-.578-.656-.343-.25-.843-.25-.297 0-.61.094-.312.094-.64.328-.329.219-.704.594-.359.36-.78.906v4.437q.437.172.921.282.484.11.938.11 1.28 0 2.015-.876.735-.875.735-2.625zm11.429 4.547q-.531.14-1.11.187-.578.063-1.171.063-1.72 0-2.563-.781-.844-.782-.844-2.39V256.3h-2.562v-1.328h2.562v-2.515l1.578-.407v2.922h4.11v1.328h-4.11v4.641q0 .984.516 1.469.531.484 1.547.484.437 0 .953-.062.531-.063 1.094-.219v1.375zm10.616-4.938q0 .344-.015.579 0 .218-.031.421h-6.422q0 1.407.78 2.157.798.75 2.267.75.406 0 .796-.032.407-.03.782-.078.375-.062.718-.125.344-.078.625-.156v1.297q-.64.187-1.468.297-.813.11-1.688.11-1.172 0-2.015-.313-.844-.313-1.391-.922-.547-.61-.813-1.485-.25-.875-.25-2 0-.953.282-1.812.28-.86.812-1.516.531-.656 1.297-1.03.781-.392 1.766-.392.953 0 1.687.313.75.297 1.25.844.5.547.766 1.343.265.782.265 1.75zm-1.656-.218q.031-.61-.125-1.11-.14-.515-.453-.875-.297-.375-.75-.578-.453-.203-1.062-.203-.516 0-.954.203-.421.203-.734.563-.297.36-.5.875-.187.515-.234 1.125h4.812zm3.726.906q0-1.172.313-2.078.312-.906.906-1.531.594-.625 1.406-.938.828-.328 1.844-.328.437 0 .86.062.421.047.827.157v-3.844h1.594v12.875h-1.422l-.047-1.734q-.671.968-1.453 1.437-.765.453-1.672.453-.78 0-1.375-.312-.593-.328-1-.922-.39-.61-.593-1.438-.188-.843-.188-1.859zm1.61-.11q0 1.657.484 2.485.5.812 1.39.812.594 0 1.266-.53.672-.548 1.406-1.61v-4.235q-.39-.187-.859-.28-.469-.095-.937-.095-1.297 0-2.032.844-.718.828-.718 2.61zM1252.408 286.113h-1.593l-.235-7.422-.094-2.86-.562 1.657-1.75 4.75h-1.125l-1.672-4.563-.562-1.843-.032 2.984-.203 7.297h-1.531l.578-11.906h1.922l1.61 4.484.515 1.516.5-1.516 1.687-4.484h1.97l.577 11.906zm9.633-5.063q0 .344-.016.579 0 .218-.031.421h-6.422q0 1.407.781 2.157.797.75 2.266.75.406 0 .797-.032.406-.03.78-.078.376-.062.72-.125.343-.078.625-.156v1.297q-.641.187-1.47.297-.812.11-1.687.11-1.172 0-2.015-.313-.844-.313-1.39-.922-.548-.61-.813-1.485-.25-.875-.25-2 0-.953.28-1.812.282-.86.813-1.516.532-.656 1.297-1.03.781-.392 1.766-.392.953 0 1.687.313.75.297 1.25.844.5.547.766 1.343.266.782.266 1.75zm-1.657-.218q.032-.61-.125-1.11-.14-.515-.453-.875-.297-.375-.75-.578-.453-.203-1.062-.203-.516 0-.953.203-.422.203-.735.563-.297.36-.5.875-.187.515-.234 1.125h4.812zm11.43 2.781q0 .484-.172.875-.157.375-.438.672-.281.297-.656.515-.375.204-.797.344-.422.125-.875.188-.453.062-.875.062-.922 0-1.703-.078t-1.531-.266v-1.453q.797.235 1.593.36.797.11 1.579.11 1.14 0 1.687-.313.547-.313.547-.891 0-.234-.094-.422-.078-.203-.312-.375-.22-.187-.703-.375-.485-.203-1.313-.437-.61-.188-1.14-.422-.516-.235-.907-.547-.375-.328-.594-.75-.218-.422-.218-1.016 0-.375.172-.828.171-.453.593-.844.438-.406 1.172-.656.735-.266 1.813-.266.547 0 1.203.063.656.062 1.36.203v1.406q-.75-.172-1.423-.25-.656-.093-1.156-.093-.594 0-1 .093-.39.078-.656.25-.25.157-.36.375-.109.203-.109.453t.094.454q.11.187.36.375.265.187.718.375.469.187 1.219.406.812.234 1.36.5.562.25.905.578.36.312.5.719.157.406.157.906zm10.257 0q0 .484-.172.875-.156.375-.438.672-.28.297-.656.515-.375.204-.797.344-.422.125-.875.188-.453.062-.875.062-.922 0-1.703-.078t-1.531-.266v-1.453q.797.235 1.594.36.797.11 1.578.11 1.14 0 1.687-.313.547-.313.547-.891 0-.234-.094-.422-.078-.203-.312-.375-.219-.187-.703-.375-.485-.203-1.313-.437-.61-.188-1.14-.422-.516-.235-.907-.547-.375-.328-.593-.75-.22-.422-.22-1.016 0-.375.173-.828.172-.453.594-.844.437-.406 1.171-.656.735-.266 1.813-.266.547 0 1.203.063.656.062 1.36.203v1.406q-.75-.172-1.422-.25-.657-.093-1.157-.093-.593 0-1 .093-.39.078-.656.25-.25.157-.36.375-.109.203-.109.453t.094.454q.11.187.36.375.265.187.718.375.469.187 1.219.406.812.234 1.36.5.562.25.906.578.359.312.5.719.156.406.156.906zm8.882 2.5-.031-1.234q-.75.75-1.516 1.078-.765.312-1.625.312-.781 0-1.344-.187-.546-.203-.906-.547-.36-.36-.531-.828-.156-.485-.156-1.032 0-1.375 1.015-2.156 1.032-.781 3.032-.781h1.89v-.797q0-.812-.515-1.297-.516-.5-1.579-.5-.78 0-1.53.188-.75.172-1.548.484v-1.437q.297-.11.657-.204.375-.109.78-.187.407-.078.86-.125.453-.063.906-.063.829 0 1.485.188.672.172 1.125.547.469.375.703.953.25.562.25 1.328v6.297h-1.422zm-.172-4.156h-2.015q-.579 0-1.016.125-.422.11-.703.328-.266.219-.406.531-.125.297-.125.672 0 .266.078.516.078.234.265.421.188.188.47.297.296.11.718.11.547 0 1.25-.328.703-.344 1.484-1.063v-1.61zm11.148-3.703q.25.328.39.75.141.421.141.921 0 .704-.265 1.297-.25.578-.735 1-.468.422-1.125.657-.656.234-1.453.234-.578 0-1.078-.125-.5-.125-.781-.313-.188.266-.313.5-.109.22-.109.5 0 .344.328.579.344.218.89.234l2.407.094q.672.015 1.25.172.594.156 1 .453.422.281.64.718.235.422.235.985 0 .61-.266 1.156-.25.547-.812.953-.547.422-1.39.672-.844.25-2.016.25-1.11 0-1.891-.187-.781-.172-1.281-.485-.5-.312-.735-.75-.218-.422-.218-.953 0-.656.297-1.156.312-.5.968-.969-.234-.11-.406-.266-.172-.171-.281-.359-.11-.203-.172-.422-.047-.219-.047-.437 0-.578.266-1.063.28-.5.672-.937-.172-.219-.313-.407-.125-.203-.234-.437-.094-.234-.141-.5-.047-.281-.047-.625 0-.703.25-1.281.266-.594.735-1.016.468-.422 1.125-.656.671-.235 1.468-.235.344 0 .64.047.313.047.548.125h3.328v1.282h-1.469zm-5.5 9.187q0 .64.672.938.672.296 1.875.296.75 0 1.266-.14.515-.14.828-.36.312-.218.453-.515.14-.281.14-.578 0-.563-.453-.828-.453-.266-1.39-.297l-2.39-.094q-.298.203-.5.39-.204.204-.313.391-.11.203-.157.39-.03.204-.03.407zm.485-7.484q0 .437.14.812.14.36.406.61t.625.39q.36.14.797.14.469 0 .844-.155.375-.157.625-.422.25-.282.375-.64.14-.36.14-.735 0-.438-.156-.797-.14-.375-.406-.625-.265-.25-.625-.39-.36-.141-.797-.141-.468 0-.843.171-.36.157-.625.422-.25.266-.375.625-.125.344-.125.735zm16.413 1.093q0 .344-.016.579 0 .218-.03.421h-6.423q0 1.407.782 2.157.796.75 2.265.75.406 0 .797-.032.406-.03.781-.078.375-.062.72-.125.343-.078.624-.156v1.297q-.64.187-1.469.297-.812.11-1.687.11-1.172 0-2.016-.313-.844-.313-1.39-.922-.547-.61-.813-1.485-.25-.875-.25-2 0-.953.281-1.812.282-.86.813-1.516.531-.656 1.297-1.03.781-.392 1.765-.392.953 0 1.688.313.75.297 1.25.844.5.547.765 1.343.266.782.266 1.75zm-1.656-.218q.031-.61-.125-1.11-.14-.515-.453-.875-.297-.375-.75-.578-.453-.203-1.063-.203-.515 0-.953.203-.422.203-.734.563-.297.36-.5.875-.188.515-.235 1.125h4.813z"/><defs><linearGradient id="C" gradientUnits="userSpaceOnUse" gradientTransform="scale(6.97353)" spreadMethod="pad" x1="23.217" y1="14.098" x2="23.217" y2="21.071"><stop offset="0" stop-color="#ffc002"/><stop offset="1" stop-color="#795b04"/></linearGradient></defs><path fill="url(#C)" d="M161.906 122.626c0-13.429 15.666-24.315 34.992-24.315 19.325 0 34.992 10.886 34.992 24.315 0 13.429-15.667 24.315-34.992 24.315-19.326 0-34.992-10.886-34.992-24.315zm12.157 0c0 6.714 10.223 12.157 22.835 12.157 12.61 0 22.834-5.443 22.834-12.157s-10.223-12.157-22.834-12.157c-12.612 0-22.835 5.443-22.835 12.157z" fill-rule="evenodd"/><path stroke="#000" stroke-linejoin="round" stroke-linecap="butt" d="M161.906 122.626c0-13.429 15.666-24.315 34.992-24.315 19.325 0 34.992 10.886 34.992 24.315 0 13.429-15.667 24.315-34.992 24.315-19.326 0-34.992-10.886-34.992-24.315zm12.157 0c0 6.714 10.223 12.157 22.835 12.157 12.61 0 22.834-5.443 22.834-12.157s-10.223-12.157-22.834-12.157c-12.612 0-22.835 5.443-22.835 12.157z"/><defs><linearGradient id="D" gradientUnits="userSpaceOnUse" gradientTransform="scale(6.81362)" spreadMethod="pad" x1="76.702" y1="14.59" x2="76.702" y2="21.404"><stop offset="0" stop-color="#dcecd5"/><stop offset="1" stop-color="#93bc81"/></linearGradient></defs><path fill="url(#D)" d="M522.62 122.626c0-12.82 15.666-23.213 34.992-23.213 19.325 0 34.992 10.393 34.992 23.213s-15.667 23.213-34.992 23.213c-19.326 0-34.993-10.393-34.993-23.213zm11.606 0c0 6.41 10.47 11.606 23.386 11.606 12.915 0 23.385-5.196 23.385-11.606s-10.47-11.606-23.385-11.606c-12.916 0-23.386 5.196-23.386 11.606z" fill-rule="evenodd"/><path stroke="#000" stroke-linejoin="round" stroke-linecap="butt" d="M522.62 122.626c0-12.82 15.666-23.213 34.992-23.213 19.325 0 34.992 10.393 34.992 23.213s-15.667 23.213-34.992 23.213c-19.326 0-34.993-10.393-34.993-23.213zm11.606 0c0 6.41 10.47 11.606 23.386 11.606 12.915 0 23.385-5.196 23.385-11.606s-10.47-11.606-23.385-11.606c-12.916 0-23.386 5.196-23.386 11.606z"/><defs><linearGradient id="E" gradientUnits="userSpaceOnUse" gradientTransform="scale(6.81362)" spreadMethod="pad" x1="97.458" y1="14.59" x2="97.458" y2="21.404"><stop offset="0" stop-color="#dbd4eb"/><stop offset="1" stop-color="#9180bb"/></linearGradient></defs><path fill="url(#E)" d="M664.045 122.626c0-12.82 15.666-23.213 34.992-23.213 19.325 0 34.992 10.393 34.992 23.213s-15.667 23.213-34.992 23.213c-19.326 0-34.992-10.393-34.992-23.213zm11.606 0c0 6.41 10.47 11.606 23.386 11.606 12.915 0 23.386-5.196 23.386-11.606s-10.47-11.606-23.386-11.606c-12.916 0-23.386 5.196-23.386 11.606z" fill-rule="evenodd"/><path stroke="#000" stroke-linejoin="round" stroke-linecap="butt" d="M664.045 122.626c0-12.82 15.666-23.213 34.992-23.213 19.325 0 34.992 10.393 34.992 23.213s-15.667 23.213-34.992 23.213c-19.326 0-34.992-10.393-34.992-23.213zm11.606 0c0 6.41 10.47 11.606 23.386 11.606 12.915 0 23.386-5.196 23.386-11.606s-10.47-11.606-23.386-11.606c-12.916 0-23.386 5.196-23.386 11.606z"/></g></svg>